<svg xmlns="http://www.w3.org/2000/svg" xmlns:xlink="http://www.w3.org/1999/xlink" width="500" zoomAndPan="magnify" viewBox="0 0 375 374.999991" height="500" preserveAspectRatio="xMidYMid meet" version="1.0"><defs><g/><clipPath id="3b51dd458f"><path d="M 108 148 L 236 148 L 236 200.429688 L 108 200.429688 Z M 108 148 " clip-rule="nonzero"/></clipPath><clipPath id="6e41d9a7bd"><path d="M 107 57 L 268 57 L 268 200.429688 L 107 200.429688 Z M 107 57 " clip-rule="nonzero"/></clipPath><clipPath id="e662b09308"><path d="M 93 256 L 290 256 L 290 301 L 93 301 Z M 93 256 " clip-rule="nonzero"/></clipPath><clipPath id="28d86d74d5"><path d="M 92.328125 268.800781 L 288.777344 255.152344 L 291.058594 287.957031 L 94.605469 301.605469 Z M 92.328125 268.800781 " clip-rule="nonzero"/></clipPath><clipPath id="9c503cdf26"><path d="M 108.730469 267.660156 L 272.339844 256.292969 C 276.691406 255.992188 280.984375 257.429688 284.273438 260.292969 C 287.5625 263.152344 289.582031 267.207031 289.882812 271.558594 C 290.1875 275.90625 288.746094 280.199219 285.886719 283.488281 C 283.023438 286.777344 278.972656 288.796875 274.621094 289.097656 L 111.011719 300.46875 C 106.660156 300.769531 102.367188 299.332031 99.078125 296.46875 C 95.789062 293.605469 93.769531 289.554688 93.46875 285.203125 C 93.164062 280.855469 94.605469 276.5625 97.464844 273.273438 C 100.328125 269.980469 104.378906 267.964844 108.730469 267.660156 Z M 108.730469 267.660156 " clip-rule="nonzero"/></clipPath><clipPath id="bb50ada018"><path d="M 93 256 L 290 256 L 290 301 L 93 301 Z M 93 256 " clip-rule="nonzero"/></clipPath><clipPath id="b6a2592e9d"><path d="M 92.328125 268.800781 L 289.101562 255.128906 L 291.390625 288.050781 L 94.617188 301.722656 Z M 92.328125 268.800781 " clip-rule="nonzero"/></clipPath><clipPath id="791660cd12"><path d="M 92.332031 268.800781 L 288.867188 255.144531 L 291.171875 288.328125 L 94.636719 301.980469 Z M 92.332031 268.800781 " clip-rule="nonzero"/></clipPath><clipPath id="d6d851f5a6"><path d="M 108.734375 267.660156 L 272.335938 256.292969 C 276.683594 255.992188 280.976562 257.429688 284.265625 260.292969 C 287.554688 263.152344 289.574219 267.207031 289.875 271.554688 C 290.179688 275.90625 288.738281 280.199219 285.878906 283.488281 C 283.015625 286.777344 278.964844 288.796875 274.613281 289.097656 L 111.015625 300.464844 C 106.664062 300.765625 102.371094 299.328125 99.082031 296.46875 C 95.792969 293.605469 93.773438 289.554688 93.472656 285.203125 C 93.171875 280.851562 94.609375 276.5625 97.472656 273.269531 C 100.332031 269.980469 104.386719 267.964844 108.734375 267.660156 Z M 108.734375 267.660156 " clip-rule="nonzero"/></clipPath></defs><path fill="#fa9712" d="M 243.835938 116.136719 C 244.347656 114.703125 245.523438 113.769531 245.523438 113.769531 C 245.523438 113.769531 233.152344 102.371094 231.992188 89.558594 C 230.832031 76.742188 242.460938 71.289062 249.421875 70.605469 C 256.386719 69.925781 264.167969 74.863281 266.378906 87.605469 C 268.589844 100.347656 260.023438 111.652344 260.046875 112.285156 C 260.046875 112.285156 264.8125 115.933594 262.320312 118.328125 C 260.539062 120.039062 258.675781 118.691406 257.761719 117.789062 C 257.398438 117.425781 257.183594 117.136719 257.183594 117.136719 C 257.183594 117.136719 257.171875 120.535156 254.152344 121.671875 C 251.890625 122.523438 250.621094 120.070312 250.128906 118.785156 C 249.960938 118.355469 249.882812 118.054688 249.882812 118.054688 C 249.882812 118.054688 247.277344 123.449219 244.597656 120.039062 C 243.445312 118.582031 243.453125 117.21875 243.835938 116.136719 Z M 243.835938 116.136719 " fill-opacity="1" fill-rule="nonzero"/><path fill="#fdefe3" d="M 261.605469 135.796875 C 265.328125 138.632812 265.621094 141.710938 263.695312 143.65625 C 261.769531 145.601562 258.148438 146.28125 256.140625 142.292969 C 255.566406 143.738281 253.976562 145.0625 252.320312 145.628906 L 252.320312 145.632812 C 250.695312 146.1875 249 146.019531 248.152344 144.523438 C 246.59375 141.769531 247.351562 139.527344 250.1875 135.425781 C 253.023438 131.320312 249.855469 118.886719 249.855469 118.886719 L 250.128906 118.785156 C 250.621094 120.070312 251.890625 122.523438 254.152344 121.671875 C 257.171875 120.535156 257.183594 117.136719 257.183594 117.136719 C 257.183594 117.136719 257.398438 117.425781 257.761719 117.789062 C 257.761719 117.789062 257.882812 132.960938 261.605469 135.796875 Z M 261.605469 135.796875 " fill-opacity="1" fill-rule="nonzero"/><path fill="#fdefe3" d="M 249.855469 118.886719 C 249.855469 118.886719 253.023438 131.320312 250.1875 135.425781 C 247.351562 139.527344 246.59375 141.769531 248.152344 144.523438 C 249 146.019531 250.695312 146.1875 252.320312 145.632812 C 247.800781 156.695312 240.269531 167.898438 231.65625 174.917969 C 233.96875 168.953125 235.09375 162.59375 235.042969 156.167969 C 235.046875 156.164062 235.046875 156.160156 235.046875 156.160156 C 235.28125 151.074219 233.742188 144.667969 233.46875 143.582031 C 233.457031 143.53125 233.445312 143.492188 233.4375 143.460938 C 233.4375 143.445312 233.433594 143.433594 233.429688 143.425781 C 233.429688 143.421875 233.429688 143.421875 233.429688 143.421875 C 232.359375 139.097656 230.761719 134.835938 228.636719 130.734375 L 228.636719 130.730469 C 228.636719 130.429688 236.421875 120.535156 243.835938 116.136719 C 243.453125 117.21875 243.445312 118.582031 244.597656 120.039062 C 247.277344 123.449219 249.882812 118.054688 249.882812 118.054688 C 249.882812 118.054688 249.960938 118.355469 250.128906 118.785156 Z M 249.855469 118.886719 " fill-opacity="1" fill-rule="nonzero"/><path fill="#fd551b" d="M 193.800781 89.5625 C 194.320312 89.402344 226.042969 79.683594 226.554688 97.753906 C 226.773438 105.5 223.851562 108.371094 219.03125 108.800781 C 212.523438 109.386719 202.558594 105.519531 192.226562 103.222656 C 174.25 99.226562 156.175781 103.65625 147.6875 102.730469 C 147.636719 102.722656 147.582031 102.71875 147.53125 102.710938 C 131.78125 100.769531 136.921875 66.480469 161.378906 59.714844 C 178.691406 54.925781 178.066406 64.503906 177.519531 85.0625 C 187.828125 56.839844 208.3125 64.800781 208.101562 73.578125 C 207.890625 82.246094 194.148438 89.382812 193.800781 89.5625 Z M 193.800781 89.5625 " fill-opacity="1" fill-rule="nonzero"/><path fill="#fa9712" d="M 203.570312 133.007812 C 210.613281 134.6875 215.59375 140.75 214.21875 145.335938 C 212.839844 149.917969 190.777344 151.351562 194.773438 143.941406 C 198.777344 136.527344 196.535156 131.332031 203.570312 133.007812 Z M 203.570312 133.007812 " fill-opacity="1" fill-rule="nonzero"/><g clip-path="url(#3b51dd458f)"><path fill="#fdefe3" d="M 170.78125 204.394531 C 162.507812 209.578125 148.65625 201.730469 138.488281 193.136719 C 136.8125 191.71875 135.359375 190.050781 134.253906 188.296875 C 119.289062 187.835938 117.785156 177.304688 127.789062 171.320312 C 122.8125 173.148438 117.445312 173.003906 114.042969 172.023438 C 103.539062 169.011719 108.269531 153.199219 125.644531 151.007812 C 143.144531 148.800781 147.761719 158.382812 147.761719 158.382812 C 147.847656 155.300781 147.828125 151.964844 147.710938 148.398438 L 147.832031 148.394531 L 147.945312 152.296875 C 147.945312 152.296875 180.351562 171.707031 206.070312 172.015625 C 205.5 172.839844 204.984375 173.808594 204.582031 174.878906 C 203.117188 178.785156 203.613281 182.582031 205.691406 183.363281 C 207.773438 184.144531 210.648438 181.613281 212.109375 177.707031 C 212.941406 175.492188 213.144531 173.3125 212.78125 171.699219 C 213.101562 171.664062 213.417969 171.625 213.726562 171.582031 C 213.527344 173.214844 213.917969 175.339844 214.929688 177.449219 C 216.730469 181.207031 219.820312 183.476562 221.820312 182.519531 C 223.824219 181.558594 223.984375 177.730469 222.179688 173.972656 C 221.476562 172.5 220.578125 171.261719 219.621094 170.351562 C 233.210938 166.339844 234.996094 156.476562 235.042969 156.167969 C 235.09375 162.59375 233.96875 168.953125 231.65625 174.917969 C 230.695312 177.390625 229.53125 179.792969 228.164062 182.109375 C 224.460938 188.371094 217.398438 196.175781 207.835938 201.371094 C 204.457031 203.203125 200.769531 204.710938 196.800781 205.707031 C 193.601562 206.515625 190.226562 206.988281 186.691406 207.03125 C 181.800781 207.101562 176.605469 206.34375 171.15625 204.519531 C 171.035156 204.476562 170.90625 204.4375 170.78125 204.394531 Z M 170.78125 204.394531 " fill-opacity="1" fill-rule="nonzero"/></g><path fill="#fdefe3" d="M 147.710938 148.398438 C 147.460938 140.996094 146.78125 132.601562 145.722656 123.433594 C 144.96875 116.898438 144.804688 108.332031 147.480469 103.109375 L 147.53125 102.710938 C 147.582031 102.71875 147.636719 102.722656 147.6875 102.730469 C 156.175781 103.65625 174.25 99.226562 192.226562 103.222656 C 202.558594 105.519531 212.523438 109.386719 219.03125 108.800781 L 219.117188 109.726562 C 219.410156 110.347656 219.75 111.117188 220.085938 111.992188 C 222.535156 118.378906 225.4375 124.578125 228.59375 130.648438 C 228.605469 130.671875 228.621094 130.703125 228.636719 130.730469 L 228.636719 130.734375 C 230.761719 134.835938 232.359375 139.097656 233.429688 143.421875 C 233.429688 143.421875 233.429688 143.421875 233.429688 143.425781 C 233.398438 143.761719 231.570312 163.152344 205.980469 163.152344 C 180.171875 163.152344 147.6875 143.421875 147.6875 143.421875 L 147.832031 148.394531 Z M 214.21875 145.335938 C 215.59375 140.75 210.613281 134.6875 203.570312 133.007812 C 196.535156 131.332031 198.777344 136.527344 194.773438 143.941406 C 190.777344 151.351562 212.839844 149.917969 214.21875 145.335938 Z M 214.21875 145.335938 " fill-opacity="1" fill-rule="nonzero"/><path fill="#fd551b" d="M 147.832031 148.394531 L 147.6875 143.421875 C 147.6875 143.421875 180.171875 163.152344 205.980469 163.152344 C 231.570312 163.152344 233.398438 143.761719 233.429688 143.425781 C 233.433594 143.433594 233.4375 143.445312 233.4375 143.460938 C 233.449219 143.5 233.457031 143.542969 233.46875 143.582031 C 234.488281 147.75 235.015625 151.976562 235.042969 156.167969 C 234.996094 156.476562 233.210938 166.339844 219.621094 170.351562 C 220.578125 171.261719 221.476562 172.5 222.179688 173.972656 C 223.984375 177.730469 223.824219 181.558594 221.820312 182.519531 C 219.820312 183.476562 216.730469 181.207031 214.929688 177.449219 C 213.917969 175.339844 213.527344 173.214844 213.726562 171.582031 C 213.417969 171.625 213.101562 171.664062 212.78125 171.699219 C 213.144531 173.3125 212.941406 175.492188 212.109375 177.707031 C 210.648438 181.613281 207.773438 184.144531 205.691406 183.363281 C 203.613281 182.582031 203.117188 178.785156 204.582031 174.878906 C 204.984375 173.808594 205.5 172.839844 206.070312 172.015625 C 180.351562 171.707031 147.945312 152.296875 147.945312 152.296875 Z M 147.832031 148.394531 " fill-opacity="1" fill-rule="nonzero"/><path fill="#2c2a27" d="M 202.449219 150.285156 C 204.089844 150.285156 205.777344 150.136719 207.339844 149.878906 C 209.972656 149.445312 214.515625 148.316406 215.3125 145.664062 C 215.898438 143.710938 215.535156 141.4375 214.289062 139.273438 C 212.277344 135.78125 208.273438 132.957031 203.832031 131.894531 C 198.074219 130.523438 197.183594 133.589844 196.160156 137.140625 C 195.660156 138.878906 195.035156 141.042969 193.761719 143.398438 C 192.707031 145.355469 193.1875 146.753906 193.777344 147.578125 C 195.164062 149.523438 198.703125 150.285156 202.449219 150.285156 Z M 195.785156 144.488281 C 197.171875 141.917969 197.832031 139.625 198.367188 137.777344 C 199.421875 134.125 199.671875 133.261719 203.304688 134.125 C 207.152344 135.042969 210.601562 137.453125 212.308594 140.414062 C 213.238281 142.03125 213.527344 143.660156 213.121094 145.007812 C 212.917969 145.679688 211.113281 146.9375 206.96875 147.621094 C 201.867188 148.464844 196.789062 147.847656 195.644531 146.25 C 195.519531 146.070312 195.179688 145.601562 195.785156 144.488281 Z M 195.785156 144.488281 " fill-opacity="1" fill-rule="nonzero"/><g clip-path="url(#6e41d9a7bd)"><path fill="#2c2a27" d="M 262.300781 134.886719 C 260.203125 133.292969 259.207031 125.652344 258.96875 119.992188 C 260.4375 120.59375 261.894531 120.324219 263.113281 119.15625 C 263.871094 118.433594 264.242188 117.523438 264.183594 116.527344 C 264.082031 114.65625 262.46875 112.90625 261.480469 112 C 261.539062 111.894531 261.601562 111.789062 261.664062 111.683594 C 263.582031 108.402344 269.425781 98.421875 267.511719 87.410156 C 266.449219 81.277344 264.003906 76.371094 260.449219 73.214844 C 257.277344 70.402344 253.328125 69.074219 249.316406 69.464844 C 241.542969 70.222656 229.65625 76.378906 230.855469 89.660156 C 231.875 100.917969 241.019531 110.898438 243.902344 113.785156 C 243.566406 114.1875 243.207031 114.722656 242.929688 115.347656 C 239.027344 117.738281 235.191406 121.449219 232.625 124.179688 C 231.371094 125.511719 230.117188 126.945312 229.082031 128.210938 C 228.988281 128.328125 228.898438 128.441406 228.8125 128.546875 C 225.730469 122.503906 223.214844 116.933594 221.160156 111.574219 C 220.929688 110.976562 220.679688 110.378906 220.402344 109.757812 C 225.515625 108.789062 227.910156 104.835938 227.707031 97.710938 C 227.59375 93.757812 226.085938 90.710938 223.222656 88.664062 C 217.378906 84.476562 207.039062 85.5 200.210938 86.824219 C 204.332031 83.730469 209.121094 78.992188 209.25 73.59375 C 209.351562 69.394531 205.503906 65.484375 200.300781 64.5 C 193.726562 63.253906 185.046875 66.644531 178.824219 79.105469 C 179.03125 68.992188 178.691406 62.210938 174.722656 59.109375 C 171.964844 56.949219 167.628906 56.789062 161.078125 58.597656 C 151.523438 61.242188 145.847656 67.515625 142.765625 72.316406 C 138.941406 78.277344 137.007812 85.222656 137.457031 91.363281 C 137.941406 97.875 141.097656 102.332031 146.003906 103.574219 C 143.601562 109.230469 143.886719 117.46875 144.585938 123.550781 C 145.65625 132.84375 146.328125 141.210938 146.570312 148.425781 C 146.648438 150.757812 146.679688 152.984375 146.671875 155.078125 C 143.785156 152.199219 137.546875 148.339844 125.503906 149.859375 C 114.234375 151.28125 107.859375 158.253906 107.382812 164.40625 C 107.0625 168.5625 109.492188 171.898438 113.726562 173.113281 C 115.957031 173.753906 119.375 174.128906 123.09375 173.632812 C 120.746094 176.222656 119.78125 179.199219 120.507812 181.996094 C 121.628906 186.300781 126.511719 189.046875 133.625 189.40625 C 134.753906 191.078125 136.167969 192.65625 137.75 193.996094 C 141.929688 197.53125 154.304688 207.183594 164.578125 207.183594 C 166.523438 207.183594 168.390625 206.828125 170.117188 206.03125 C 170.679688 211.789062 173.40625 216.5625 177.730469 219.261719 C 180.050781 220.707031 182.632812 221.4375 185.253906 221.4375 C 187.292969 221.4375 189.355469 220.996094 191.332031 220.109375 C 193.742188 219.023438 195.015625 217.535156 195.136719 215.675781 C 195.316406 212.769531 192.402344 209.851562 190.054688 207.992188 C 192.160156 207.804688 194.25 207.472656 196.3125 206.988281 C 200.140625 209.1875 208.578125 213.660156 213.949219 213.660156 C 214.96875 213.660156 215.882812 213.496094 216.628906 213.125 C 217.5 212.695312 218.582031 211.777344 218.824219 209.867188 C 219.125 207.476562 218.570312 205.453125 217.171875 203.847656 C 215.59375 202.03125 213.230469 201.125 211.28125 200.671875 C 218.558594 196.085938 225.101562 189.539062 229.160156 182.679688 C 230.492188 180.425781 231.65625 178.046875 232.621094 175.597656 C 240.738281 168.902344 248.390625 158.078125 253.203125 146.507812 C 254.339844 146.027344 255.386719 145.265625 256.160156 144.382812 C 257.242188 145.660156 258.464844 146.125 259.402344 146.277344 C 261.164062 146.554688 263.125 145.855469 264.515625 144.449219 C 265.578125 143.378906 266.105469 142 266.003906 140.566406 C 265.898438 139.195312 265.175781 137.082031 262.300781 134.886719 Z M 233.132812 89.457031 C 231.945312 76.363281 244.570312 72.234375 249.535156 71.75 C 255.398438 71.175781 263.035156 75.035156 265.25 87.800781 C 267.019531 97.988281 261.496094 107.425781 259.679688 110.527344 C 259.050781 111.601562 258.882812 111.890625 258.898438 112.328125 C 258.914062 112.671875 259.078125 112.992188 259.347656 113.195312 C 260.152344 113.808594 261.828125 115.460938 261.894531 116.65625 C 261.90625 116.875 261.875 117.167969 261.527344 117.503906 C 261.1875 117.828125 260.296875 118.683594 258.574219 116.976562 C 258.285156 116.691406 258.105469 116.457031 258.105469 116.457031 C 257.816406 116.058594 257.300781 115.898438 256.835938 116.050781 C 256.367188 116.199219 256.050781 116.636719 256.042969 117.125 C 256.042969 117.234375 255.972656 119.761719 253.753906 120.601562 C 252.527344 121.0625 251.6875 119.644531 251.199219 118.371094 C 251.0625 118.015625 250.996094 117.765625 250.996094 117.765625 C 250.875 117.300781 250.480469 116.960938 250.003906 116.914062 C 249.964844 116.910156 249.925781 116.90625 249.886719 116.90625 C 249.453125 116.90625 249.050781 117.15625 248.855469 117.550781 C 248.398438 118.496094 247.347656 119.933594 246.550781 120.019531 C 246.238281 120.054688 245.890625 119.820312 245.503906 119.332031 C 244.773438 118.398438 244.582031 117.480469 244.921875 116.519531 C 245.3125 115.429688 246.238281 114.671875 246.242188 114.667969 C 246.503906 114.457031 246.664062 114.144531 246.675781 113.8125 C 246.6875 113.476562 246.554688 113.152344 246.304688 112.929688 C 246.175781 112.816406 234.238281 101.6875 233.132812 89.457031 Z M 139.742188 91.210938 C 138.894531 79.75 147.046875 64.867188 161.683594 60.820312 C 167.472656 59.21875 171.164062 59.253906 173.304688 60.925781 C 176.949219 63.773438 176.734375 71.722656 176.40625 83.753906 L 176.375 85.03125 C 176.359375 85.589844 176.753906 86.082031 177.304688 86.1875 C 177.859375 86.292969 178.402344 85.980469 178.59375 85.453125 C 184.316406 69.785156 193.335938 65.523438 199.863281 66.761719 C 203.976562 67.542969 207.027344 70.457031 206.949219 73.546875 C 206.765625 81.398438 193.8125 88.261719 193.289062 88.539062 C 192.910156 88.726562 192.644531 89.113281 192.644531 89.570312 C 192.644531 90.203125 193.15625 90.714844 193.789062 90.714844 C 193.917969 90.714844 194.042969 90.691406 194.164062 90.652344 C 195.046875 90.386719 213.894531 84.820312 221.878906 90.542969 C 224.160156 92.175781 225.316406 94.546875 225.40625 97.792969 C 225.640625 105.960938 222.257812 107.367188 218.925781 107.667969 C 214.730469 108.042969 208.707031 106.390625 202.328125 104.640625 C 199.140625 103.765625 195.84375 102.859375 192.472656 102.113281 C 186.574219 100.800781 180.730469 100.378906 175.1875 100.378906 C 169.628906 100.378906 164.378906 100.804688 159.703125 101.183594 C 154.867188 101.578125 150.691406 101.914062 147.824219 101.605469 L 147.664062 101.585938 C 143.074219 101.007812 140.183594 97.230469 139.742188 91.210938 Z M 148.351562 103.9375 C 151.371094 104.148438 155.34375 103.828125 159.890625 103.460938 C 169.070312 102.71875 180.496094 101.792969 191.976562 104.34375 C 195.292969 105.078125 198.5625 105.976562 201.722656 106.84375 C 207.863281 108.53125 213.253906 110.011719 217.621094 110.011719 C 217.75 110.011719 217.875 110.003906 218.003906 110.003906 C 218.019531 110.074219 218.046875 110.144531 218.078125 110.21875 C 218.429688 110.972656 218.734375 111.691406 219.011719 112.40625 C 221.273438 118.3125 224.074219 124.453125 227.566406 131.164062 L 227.605469 131.246094 C 227.605469 131.246094 227.605469 131.25 227.609375 131.25 C 227.613281 131.253906 227.613281 131.261719 227.617188 131.261719 C 229.644531 135.175781 231.207031 139.292969 232.265625 143.503906 C 232.152344 144.402344 231.460938 148.605469 228.375 152.730469 C 223.765625 158.886719 216.230469 162.007812 205.980469 162.007812 C 182.097656 162.007812 151.929688 144.601562 148.589844 142.628906 C 148.246094 136.769531 147.667969 130.296875 146.863281 123.304688 C 146.292969 118.375 145.75 109.386719 148.351562 103.9375 Z M 233.28125 148.535156 C 233.667969 151.046875 233.871094 153.566406 233.894531 156.070312 C 233.703125 156.996094 231.570312 165.632812 219.296875 169.257812 C 218.902344 169.371094 218.601562 169.6875 218.507812 170.085938 C 218.410156 170.484375 218.53125 170.902344 218.832031 171.1875 C 219.726562 172.039062 220.527344 173.175781 221.148438 174.472656 C 222.21875 176.695312 222.574219 179.078125 222.0625 180.53125 C 221.894531 181.015625 221.648438 181.335938 221.324219 181.488281 C 220.765625 181.753906 219.910156 181.515625 218.980469 180.832031 C 217.84375 179.996094 216.746094 178.582031 215.964844 176.953125 C 215.085938 175.117188 214.683594 173.207031 214.867188 171.722656 C 214.90625 171.367188 214.785156 171.015625 214.53125 170.765625 C 214.277344 170.515625 213.921875 170.398438 213.570312 170.449219 C 213.273438 170.492188 212.964844 170.527344 212.65625 170.5625 C 212.332031 170.597656 212.039062 170.773438 211.847656 171.039062 C 211.660156 171.300781 211.59375 171.632812 211.664062 171.949219 C 211.988281 173.421875 211.765625 175.375 211.039062 177.308594 C 209.75 180.742188 207.367188 182.765625 206.09375 182.292969 C 204.824219 181.8125 204.367188 178.714844 205.652344 175.285156 C 206.011719 174.339844 206.464844 173.460938 207.011719 172.671875 C 207.25 172.324219 207.28125 171.871094 207.085938 171.492188 C 206.894531 171.117188 206.507812 170.878906 206.082031 170.875 C 182.761719 170.59375 153.394531 154.128906 149.074219 151.632812 L 148.894531 145.460938 C 156.128906 149.617188 183.316406 164.300781 205.980469 164.300781 C 219.695312 164.300781 226.726562 158.757812 230.207031 154.105469 C 231.65625 152.164062 232.628906 150.21875 233.28125 148.535156 Z M 122.722656 181.429688 C 121.925781 178.363281 124.089844 174.867188 128.378906 172.300781 C 128.886719 171.996094 129.078125 171.359375 128.824219 170.824219 C 128.566406 170.289062 127.949219 170.039062 127.390625 170.242188 C 122.40625 172.074219 117.253906 171.753906 114.355469 170.917969 C 111.136719 169.996094 109.425781 167.691406 109.667969 164.59375 C 110.070312 159.367188 115.734375 153.414062 125.785156 152.144531 C 140.878906 150.238281 145.785156 157.265625 146.601562 158.660156 C 146.40625 164.800781 145.78125 169.804688 144.730469 173.550781 C 137.421875 172.726562 133.921875 174.601562 132.257812 176.730469 C 130.257812 179.289062 130.273438 183.035156 132.21875 187.015625 C 127 186.460938 123.5 184.4375 122.722656 181.429688 Z M 192.839844 215.546875 C 192.78125 216.488281 191.957031 217.328125 190.386719 218.03125 C 186.574219 219.75 182.398438 219.492188 178.9375 217.332031 C 175.304688 215.0625 172.984375 211.03125 172.429688 206.121094 C 176.996094 207.492188 181.578125 208.183594 186.085938 208.183594 C 186.179688 208.183594 186.265625 208.183594 186.359375 208.183594 C 189.046875 209.882812 192.984375 213.226562 192.839844 215.546875 Z M 215.433594 205.371094 C 216.398438 206.480469 216.757812 207.859375 216.539062 209.589844 C 216.414062 210.5625 215.972656 210.898438 215.59375 211.085938 C 212.894531 212.429688 205.628906 209.464844 199.472656 206.140625 C 202.40625 205.234375 205.292969 204.027344 208.089844 202.53125 C 209.195312 202.59375 213.375 202.996094 215.433594 205.371094 Z M 227.175781 181.527344 C 222.789062 188.941406 215.351562 195.984375 207.285156 200.367188 C 203.808594 202.25 200.1875 203.675781 196.515625 204.597656 C 193.285156 205.414062 189.972656 205.847656 186.671875 205.886719 C 182.238281 205.953125 177.71875 205.300781 173.195312 203.957031 C 174.992188 202.257812 176.382812 199.90625 177.339844 196.929688 C 180.382812 187.5 177.730469 180.949219 174.972656 177.117188 C 171.988281 172.96875 168.304688 171.078125 168.152344 171 C 167.585938 170.714844 166.898438 170.9375 166.613281 171.503906 C 166.328125 172.070312 166.554688 172.761719 167.121094 173.042969 C 167.152344 173.0625 170.457031 174.757812 173.117188 178.453125 C 176.679688 183.40625 177.367188 189.390625 175.164062 196.230469 C 174.074219 199.609375 172.394531 202.027344 170.171875 203.425781 C 162.660156 208.132812 149.261719 200.746094 139.226562 192.261719 C 137.660156 190.9375 136.277344 189.355469 135.222656 187.6875 C 132.84375 183.933594 132.402344 180.273438 134.070312 178.140625 C 136.765625 174.6875 144.75 174.847656 155.972656 178.574219 C 156.574219 178.773438 157.222656 178.449219 157.421875 177.84375 C 157.621094 177.246094 157.296875 176.59375 156.695312 176.398438 C 152.957031 175.15625 149.761719 174.355469 147.023438 173.882812 C 148.089844 169.925781 148.726562 164.730469 148.90625 158.421875 C 148.945312 157.082031 148.960938 155.671875 148.960938 154.210938 C 155.671875 158.03125 181.730469 172.058594 204.105469 173.105469 C 203.886719 173.550781 203.683594 174.007812 203.507812 174.480469 C 201.765625 179.121094 202.53125 183.402344 205.289062 184.441406 C 205.667969 184.582031 206.058594 184.648438 206.460938 184.648438 C 208.933594 184.648438 211.707031 182.042969 213.183594 178.113281 C 213.304688 177.78125 213.421875 177.441406 213.523438 177.105469 C 213.636719 177.386719 213.761719 177.667969 213.894531 177.945312 C 214.84375 179.929688 216.167969 181.613281 217.621094 182.679688 C 219.28125 183.902344 220.945312 184.210938 222.3125 183.554688 C 223.1875 183.132812 223.84375 182.351562 224.222656 181.289062 C 224.949219 179.226562 224.570312 176.304688 223.210938 173.476562 C 222.765625 172.542969 222.234375 171.675781 221.640625 170.902344 C 227.941406 168.675781 231.542969 165.210938 233.582031 162.21875 C 233.113281 166.453125 232.109375 170.566406 230.582031 174.503906 C 229.644531 176.933594 228.496094 179.292969 227.175781 181.527344 Z M 234.125 171.179688 C 235.527344 166.378906 236.222656 161.371094 236.191406 156.234375 C 236.191406 156.226562 236.191406 156.222656 236.191406 156.214844 C 236.433594 151 234.894531 144.546875 234.582031 143.308594 L 234.582031 143.304688 L 234.550781 143.183594 C 234.550781 143.179688 234.550781 143.179688 234.550781 143.175781 C 234.546875 143.15625 234.542969 143.144531 234.535156 143.125 C 233.484375 138.894531 231.941406 134.753906 229.953125 130.808594 C 231.328125 128.945312 236.84375 122.371094 242.550781 118.347656 C 242.695312 119.101562 243.039062 119.917969 243.699219 120.753906 C 244.828125 122.191406 246.007812 122.390625 246.796875 122.304688 C 247.71875 122.203125 248.523438 121.660156 249.171875 121.023438 C 250.027344 125.125 251.019531 132.214844 249.25 134.777344 C 246.359375 138.957031 245.242188 141.703125 247.15625 145.09375 C 247.851562 146.316406 249.042969 146.996094 250.472656 147.058594 C 246.402344 156.335938 240.515625 165.003906 234.125 171.179688 Z M 262.878906 142.847656 C 261.996094 143.738281 260.800781 144.191406 259.75 144.027344 C 258.699219 143.859375 257.832031 143.105469 257.164062 141.78125 C 256.960938 141.378906 256.539062 141.132812 256.089844 141.148438 C 255.636719 141.167969 255.242188 141.449219 255.074219 141.871094 C 254.644531 142.945312 253.328125 144.074219 251.949219 144.546875 C 251.921875 144.554688 251.898438 144.5625 251.875 144.574219 C 251.09375 144.832031 249.769531 145.054688 249.148438 143.960938 C 247.921875 141.792969 248.347656 140.101562 251.128906 136.082031 C 253.167969 133.125 252.550781 126.878906 251.820312 122.675781 C 252.269531 122.890625 252.738281 123 253.226562 123 C 253.65625 123 254.097656 122.917969 254.550781 122.75 C 255.496094 122.390625 256.203125 121.867188 256.734375 121.277344 C 257.011719 126.140625 257.921875 134.441406 260.90625 136.710938 C 262.625 138.019531 263.617188 139.449219 263.707031 140.738281 C 263.761719 141.527344 263.484375 142.238281 262.878906 142.847656 Z M 262.878906 142.847656 " fill-opacity="1" fill-rule="nonzero"/></g><path fill="#2c2a27" d="M 193.113281 123.671875 C 194.261719 127.84375 192.53125 131.953125 189.253906 132.855469 C 185.976562 133.753906 182.390625 131.101562 181.242188 126.929688 C 180.097656 122.757812 181.828125 118.648438 185.105469 117.75 C 188.386719 116.851562 191.972656 119.503906 193.113281 123.671875 Z M 193.113281 123.671875 " fill-opacity="1" fill-rule="nonzero"/><path fill="#2c2a27" d="M 215.433594 121.144531 C 215.800781 125.453125 213.359375 129.183594 209.972656 129.476562 C 206.585938 129.765625 203.539062 126.507812 203.167969 122.199219 C 202.796875 117.890625 205.242188 114.160156 208.628906 113.867188 C 212.011719 113.578125 215.058594 116.835938 215.433594 121.144531 Z M 215.433594 121.144531 " fill-opacity="1" fill-rule="nonzero"/><g fill="#ff650e" fill-opacity="1"><g transform="translate(118.674762, 231.769571)"><g><path d="M 8.171875 0.296875 C 9.929688 0.160156 11.578125 -0.441406 13.109375 -1.515625 C 14.640625 -2.585938 15.421875 -4.175781 15.453125 -6.28125 C 15.359375 -8.101562 15.265625 -9.617188 15.171875 -10.828125 C 15.085938 -12.035156 15.046875 -12.941406 15.046875 -13.546875 C 15.054688 -14.160156 15.207031 -14.484375 15.5 -14.515625 L 17.5 -14.71875 C 17.832031 -14.738281 18.046875 -14.722656 18.140625 -14.671875 C 18.234375 -14.628906 18.285156 -14.535156 18.296875 -14.390625 L 18.4375 -12.515625 C 18.664062 -9.316406 18.929688 -6.984375 19.234375 -5.515625 C 19.640625 -3.921875 20.515625 -2.753906 21.859375 -2.015625 C 23.210938 -1.285156 24.675781 -0.976562 26.25 -1.09375 C 27.363281 -1.175781 28.4375 -1.5 29.46875 -2.0625 C 31.738281 -3.257812 32.773438 -5.195312 32.578125 -7.875 C 32.128906 -14.019531 31.796875 -19.046875 31.578125 -22.953125 C 31.378906 -26.265625 31.039062 -31.210938 30.5625 -37.796875 C 30.382812 -40.148438 29.878906 -41.945312 29.046875 -43.1875 C 27.554688 -45.394531 25.4375 -46.398438 22.6875 -46.203125 C 21.582031 -46.117188 20.601562 -45.882812 19.75 -45.5 C 18.90625 -45.125 18.332031 -44.75 18.03125 -44.375 C 17.300781 -43.28125 16.890625 -41.960938 16.796875 -40.421875 C 16.710938 -38.878906 16.722656 -37.410156 16.828125 -36.015625 L 17.484375 -28.6875 C 17.640625 -26.476562 17.53125 -25.359375 17.15625 -25.328125 L 15.453125 -25.15625 C 14.941406 -25.113281 14.625 -25.15625 14.5 -25.28125 C 14.382812 -25.40625 14.3125 -25.671875 14.28125 -26.078125 L 13.703125 -35.4375 L 13.390625 -38.859375 C 13.265625 -40.484375 12.742188 -41.769531 11.828125 -42.71875 C 10.910156 -43.664062 9.800781 -44.320312 8.5 -44.6875 C 7.195312 -45.050781 5.925781 -45.1875 4.6875 -45.09375 C 2.914062 -44.96875 1.53125 -44.097656 0.53125 -42.484375 C -0.457031 -40.878906 -0.894531 -38.789062 -0.78125 -36.21875 L 0.5 -15.953125 C 0.695312 -13.710938 0.914062 -10.992188 1.15625 -7.796875 C 1.289062 -5.953125 1.484375 -4.523438 1.734375 -3.515625 C 1.992188 -2.503906 2.519531 -1.632812 3.3125 -0.90625 C 4.601562 0.0390625 6.222656 0.441406 8.171875 0.296875 Z M 8.171875 0.296875 "/></g></g></g><g fill="#ff650e" fill-opacity="1"><g transform="translate(151.984261, 229.321345)"><g><path d="M 4.71875 0.15625 C 6.1875 0.0507812 7.441406 -0.492188 8.484375 -1.484375 C 9.523438 -2.472656 10.335938 -3.742188 10.921875 -5.296875 C 10.972656 -5.515625 11.066406 -5.703125 11.203125 -5.859375 C 11.347656 -6.023438 11.878906 -6.140625 12.796875 -6.203125 L 16.890625 -6.453125 L 21.46875 -6.796875 C 22.351562 -6.859375 22.992188 -6.472656 23.390625 -5.640625 C 24.179688 -4.304688 25.171875 -3.335938 26.359375 -2.734375 C 27.546875 -2.140625 28.734375 -1.890625 29.921875 -1.984375 C 31.023438 -2.054688 32.015625 -2.382812 32.890625 -2.96875 C 33.773438 -3.550781 34.4375 -4.363281 34.875 -5.40625 C 35.1875 -6.195312 35.316406 -6.976562 35.265625 -7.75 C 35.191406 -8.707031 34.742188 -10.039062 33.921875 -11.75 C 32.773438 -14.1875 30.804688 -18.796875 28.015625 -25.578125 C 26.035156 -30.273438 24.320312 -34.222656 22.875 -37.421875 C 21.425781 -40.617188 20.175781 -42.796875 19.125 -43.953125 C 17.644531 -45.347656 16.003906 -45.976562 14.203125 -45.84375 C 12.648438 -45.726562 11.300781 -45.046875 10.15625 -43.796875 C 9.945312 -43.554688 9.757812 -43.300781 9.59375 -43.03125 C 9.269531 -42.476562 8.695312 -40.929688 7.875 -38.390625 C 7.476562 -37.265625 4.3125 -27.257812 -1.625 -8.375 C -1.914062 -7.394531 -2.023438 -6.425781 -1.953125 -5.46875 C -1.867188 -4.28125 -1.507812 -3.125 -0.875 -2 C -0.320312 -1.070312 0.300781 -0.492188 1 -0.265625 C 1.707031 -0.046875 2.375 0.078125 3 0.109375 L 3.4375 0.140625 C 3.882812 0.179688 4.3125 0.1875 4.71875 0.15625 Z M 16.0625 -17.640625 C 15.4375 -17.597656 15.117188 -17.65625 15.109375 -17.8125 C 15.265625 -18.1875 15.484375 -18.679688 15.765625 -19.296875 C 16.054688 -19.910156 16.28125 -20.460938 16.4375 -20.953125 C 16.550781 -20.960938 16.644531 -20.953125 16.71875 -20.921875 C 17.070312 -20.054688 17.414062 -19.359375 17.75 -18.828125 C 18.007812 -18.441406 18.144531 -18.175781 18.15625 -18.03125 C 18.15625 -17.945312 18.113281 -17.90625 18.03125 -17.90625 Z M 16.0625 -17.640625 "/></g></g></g><g fill="#ff650e" fill-opacity="1"><g transform="translate(184.466517, 226.933922)"><g><path d="M 16.5625 -0.0625 C 13.550781 0.164062 10.726562 -0.644531 8.09375 -2.5 C 5.46875 -4.363281 3.285156 -6.957031 1.546875 -10.28125 C -0.191406 -13.613281 -1.210938 -17.375 -1.515625 -21.5625 C -1.828125 -25.71875 -1.367188 -29.578125 -0.140625 -33.140625 C 1.085938 -36.710938 2.867188 -39.609375 5.203125 -41.828125 C 7.546875 -44.054688 10.222656 -45.285156 13.234375 -45.515625 C 16.253906 -45.734375 19.078125 -44.910156 21.703125 -43.046875 C 24.335938 -41.191406 26.515625 -38.585938 28.234375 -35.234375 C 29.960938 -31.890625 30.984375 -28.140625 31.296875 -23.984375 C 31.597656 -19.796875 31.140625 -15.925781 29.921875 -12.375 C 28.710938 -8.832031 26.9375 -5.945312 24.59375 -3.71875 C 22.257812 -1.5 19.582031 -0.28125 16.5625 -0.0625 Z M 15.375 -18.046875 C 15.925781 -18.085938 16.351562 -18.550781 16.65625 -19.4375 C 16.957031 -20.332031 17.0625 -21.398438 16.96875 -22.640625 C 16.875 -23.859375 16.613281 -24.894531 16.1875 -25.75 C 15.757812 -26.613281 15.269531 -27.023438 14.71875 -26.984375 C 14.195312 -26.941406 13.773438 -26.460938 13.453125 -25.546875 C 13.128906 -24.640625 13.015625 -23.578125 13.109375 -22.359375 C 13.203125 -21.117188 13.472656 -20.078125 13.921875 -19.234375 C 14.367188 -18.398438 14.851562 -18.003906 15.375 -18.046875 Z M 15.375 -18.046875 "/></g></g></g><g fill="#ff650e" fill-opacity="1"><g transform="translate(215.790644, 224.63162)"><g><path d="M 3.765625 -37.890625 C 4.316406 -37.929688 4.835938 -38.109375 5.328125 -38.421875 C 6.835938 -39.492188 7.492188 -41.390625 7.296875 -44.109375 L 6.796875 -48.703125 C 6.617188 -50.046875 6.222656 -51.128906 5.609375 -51.953125 C 5.003906 -52.785156 4.328125 -53.382812 3.578125 -53.75 C 2.828125 -54.125 2.0625 -54.285156 1.28125 -54.234375 C 0.582031 -54.179688 -0.0664062 -53.945312 -0.671875 -53.53125 C -1.878906 -52.550781 -2.460938 -51.25 -2.421875 -49.625 C -2.429688 -48.738281 -2.40625 -47.851562 -2.34375 -46.96875 C -2.25 -45.820312 -2.070312 -44.648438 -1.8125 -43.453125 C -1.5625 -42.265625 -1.128906 -41.222656 -0.515625 -40.328125 C 0.859375 -38.585938 2.285156 -37.773438 3.765625 -37.890625 Z M 3.765625 -37.890625 "/></g></g></g><g fill="#ff650e" fill-opacity="1"><g transform="translate(224.613778, 223.983126)"><g><path d="M 14.671875 -0.25 C 18.785156 -0.664062 22.101562 -1.675781 24.625 -3.28125 C 27.15625 -4.882812 28.960938 -6.851562 30.046875 -9.1875 C 31.128906 -11.53125 31.585938 -13.898438 31.421875 -16.296875 C 31.210938 -19.054688 30.25 -21.609375 28.53125 -23.953125 C 26.425781 -26.742188 23.410156 -28.5 19.484375 -29.21875 C 18.109375 -29.445312 16.800781 -29.847656 15.5625 -30.421875 C 14.332031 -31.003906 13.601562 -32.0625 13.375 -33.59375 C 13.394531 -33.957031 13.523438 -34.296875 13.765625 -34.609375 C 14.003906 -34.929688 14.25 -35.101562 14.5 -35.125 C 14.832031 -35.0625 15.113281 -34.78125 15.34375 -34.28125 C 15.570312 -33.78125 16.085938 -33.046875 16.890625 -32.078125 C 17.972656 -30.828125 19.398438 -30.265625 21.171875 -30.390625 C 22.160156 -30.460938 23.085938 -30.769531 23.953125 -31.3125 C 24.816406 -31.863281 25.457031 -32.601562 25.875 -33.53125 C 26.289062 -34.46875 26.460938 -35.4375 26.390625 -36.4375 C 26.273438 -37.945312 25.707031 -39.394531 24.6875 -40.78125 C 23.675781 -42.164062 22.390625 -43.300781 20.828125 -44.1875 C 18.398438 -45.40625 15.828125 -45.914062 13.109375 -45.71875 C 9.984375 -45.488281 7.0625 -44.332031 4.34375 -42.25 C 1.632812 -40.164062 -0.125 -37.148438 -0.9375 -33.203125 C -1.113281 -32.160156 -1.171875 -31.195312 -1.109375 -30.3125 C -0.773438 -25.707031 2.671875 -22.0625 9.234375 -19.375 C 9.953125 -19.019531 10.453125 -18.757812 10.734375 -18.59375 C 13.117188 -17.21875 14.347656 -16.019531 14.421875 -15 C 14.441406 -14.625 14.320312 -14.320312 14.0625 -14.09375 C 13.800781 -13.875 13.492188 -13.75 13.140625 -13.71875 C 12.585938 -13.675781 12.070312 -13.878906 11.59375 -14.328125 C 9.050781 -16.660156 6.785156 -17.753906 4.796875 -17.609375 C 3.285156 -17.492188 2.046875 -16.835938 1.078125 -15.640625 C 0.117188 -14.441406 -0.289062 -12.941406 -0.15625 -11.140625 C 0.0507812 -8.265625 1.703125 -5.460938 4.796875 -2.734375 C 6.597656 -1.316406 9.171875 -0.507812 12.515625 -0.3125 C 13.742188 -0.25 14.460938 -0.226562 14.671875 -0.25 Z M 14.671875 -0.25 "/></g></g></g><path stroke-linecap="butt" transform="matrix(0.924212, -0.067929, 0.067929, 0.924212, 62.437179, 177.36308)" fill="none" stroke-linejoin="miter" d="M 64.991156 63.961716 C 66.901499 63.962648 68.723112 63.445643 70.455378 62.419109 C 72.184366 61.379655 73.151512 59.722071 73.352302 57.450254 C 73.390263 55.496141 73.412841 53.866343 73.412246 52.551836 C 73.411341 51.241532 73.441295 50.258942 73.497595 49.607961 C 73.558716 48.948882 73.747694 48.620419 74.069042 48.618679 L 76.20775 48.560317 C 76.566932 48.561357 76.797218 48.590963 76.894403 48.648825 C 76.999996 48.707304 77.055638 48.812832 77.052613 48.968993 L 77.054715 51.010582 C 77.0542 54.46788 77.151706 56.994084 77.347542 58.584989 C 77.667087 60.332917 78.52088 61.655189 79.909229 62.5476 C 81.297578 63.440012 82.853821 63.888294 84.574062 63.887933 C 85.757324 63.890371 86.930314 63.630006 88.084009 63.114628 C 90.629409 62.008383 91.901509 59.997048 91.9 57.084829 C 91.902274 50.440824 91.946499 45.008703 92.032058 40.796872 C 92.07096 37.219824 92.092499 31.86634 92.092162 24.740315 C 92.089304 22.191481 91.692723 20.226563 90.894629 18.836533 C 89.460051 16.3304 87.248663 15.077409 84.264669 15.077869 C 83.072691 15.079017 82.0077 15.250109 81.074207 15.587249 C 80.144609 15.928901 79.496361 16.29546 79.137253 16.695949 C 78.265543 17.80264 77.716116 19.182386 77.493176 20.835496 C 77.278952 22.48502 77.171183 24.06629 77.169559 25.58351 L 77.287443 33.525451 C 77.285845 35.904894 77.088485 37.094961 76.691159 37.095344 L 74.839858 37.153697 C 74.286371 37.151055 73.944745 37.08368 73.81949 36.947677 C 73.702644 36.812291 73.643472 36.524762 73.64587 36.089601 L 73.762594 25.933274 L 73.705051 22.230794 C 73.702341 20.48502 73.244573 19.065059 72.335333 17.979626 C 71.418613 16.880964 70.27273 16.082452 68.893172 15.587984 C 67.526224 15.094443 66.16658 14.84658 64.814237 14.844395 C 62.903895 14.843463 61.346825 15.671545 60.152053 17.320852 C 58.956971 18.974362 58.320834 21.188822 58.24364 23.964233 L 58.011724 45.866192 C 58.048766 48.294967 58.068822 51.242362 58.06769 54.708068 C 58.069913 56.690494 58.167328 58.240353 58.359935 59.357644 C 58.565153 60.475863 59.064081 61.450833 59.860613 62.287067 C 61.173423 63.402162 62.881997 63.963078 64.991156 63.961716 Z M 97.330026 63.54061 C 98.923534 63.539388 100.315922 63.054234 101.511704 62.081253 C 102.708103 61.099865 103.683235 59.793674 104.441301 58.162989 C 104.517767 57.927695 104.633491 57.733325 104.788473 57.579879 C 104.956993 57.414749 105.533784 57.330346 106.52274 57.331182 L 110.939446 57.389533 L 115.892945 57.390126 C 116.843758 57.392385 117.499325 57.84632 117.859029 58.760338 C 118.618427 60.274321 119.613166 61.404077 120.84807 62.141507 C 122.079388 62.87022 123.333384 63.232889 124.605544 63.233407 C 125.801726 63.232567 126.891257 62.957615 127.883164 62.40076 C 128.88317 61.848727 129.661786 61.031055 130.21419 59.955841 C 130.61384 59.118768 130.814672 58.283988 130.812793 57.446988 C 130.812206 56.419888 130.434433 54.946634 129.674653 53.035326 C 128.648337 50.322511 126.898083 45.21074 124.432916 37.692222 C 122.681361 32.483144 121.147627 28.105804 119.828438 24.547282 C 118.513762 20.984865 117.345141 18.540544 116.313859 17.217907 C 114.840236 15.588031 113.124978 14.773029 111.172288 14.773211 C 109.502802 14.773076 107.989063 15.414147 106.639479 16.697043 C 106.406852 16.929312 106.189187 17.188041 105.986792 17.469026 C 105.586824 18.022895 104.851322 19.634106 103.78418 22.30717 C 103.261886 23.490261 99.060944 34.009973 91.181354 53.866306 C 90.783997 54.902197 90.585149 55.939998 90.585736 56.967098 C 90.585218 58.239259 90.884719 59.512337 91.488443 60.786643 C 92.003755 61.826216 92.630953 62.49362 93.365214 62.796956 C 94.104606 63.087989 94.809376 63.275039 95.479213 63.362311 L 95.960803 63.423067 C 96.436954 63.500329 96.894866 63.538212 97.330026 63.54061 Z M 110.938589 45.26766 C 110.258059 45.268361 109.917359 45.188374 109.920075 45.036417 C 110.122713 44.637107 110.405778 44.121137 110.764756 43.492403 C 111.12466 42.851057 111.399748 42.271103 111.593914 41.757052 C 111.71224 41.757296 111.812205 41.777323 111.902528 41.813548 C 112.212899 42.766206 112.527532 43.545888 112.847042 44.144185 C 113.089395 44.584655 113.211316 44.881023 113.212804 45.033289 C 113.211138 45.113472 113.174417 45.153038 113.094234 45.151372 Z M 145.253541 64.252285 C 141.990548 64.253372 139.011528 63.151062 136.320687 60.945665 C 133.643075 58.732788 131.494385 55.76419 129.882714 52.044694 C 128.271352 48.320993 127.462976 44.195616 127.462717 39.656258 C 127.462644 35.171859 128.268177 31.055212 129.882592 27.319237 C 131.493112 23.578748 133.643232 20.60489 136.324236 18.401249 C 139.014573 16.185614 141.991239 15.077254 145.254233 15.076167 C 148.516918 15.079284 151.491424 16.185488 154.17324 18.398675 C 156.864081 20.604072 158.999851 23.575946 160.580241 27.318503 C 162.173551 31.057783 162.970243 35.169622 162.970006 39.658224 C 162.970575 44.193378 162.176726 48.323564 160.580363 52.04396 C 159.000814 55.765592 156.863924 58.731969 154.169382 60.947295 C 151.488379 63.150936 148.516535 64.251198 145.253541 64.252285 Z M 145.368689 44.801609 C 145.964523 44.803137 146.459513 44.336556 146.857862 43.402176 C 147.256829 42.459388 147.454994 41.315872 147.452975 39.963221 C 147.456274 38.653226 147.256186 37.522705 146.857224 36.567762 C 146.458571 35.608615 145.961328 35.128278 145.369697 35.127059 C 144.815901 35.128621 144.332596 35.608741 143.915269 36.571312 C 143.494665 37.520963 143.289019 38.651249 143.285411 39.965448 C 143.287739 41.313895 143.494998 42.46185 143.912012 43.401213 C 144.329334 44.336373 144.819097 44.80348 145.368689 44.801609 Z M 168.336578 22.537748 C 168.936616 22.539585 169.514765 22.379203 170.071024 22.056602 C 171.778066 21.028214 172.634171 19.04125 172.634825 16.099604 L 172.457929 11.145739 C 172.380485 9.6692 172.0421 8.465115 171.438881 7.528972 C 170.847965 6.59796 170.163458 5.90521 169.385669 5.446519 C 168.608499 4.97942 167.801414 4.74681 166.964415 4.74869 C 166.207906 4.748032 165.496039 4.945078 164.8243 5.343723 C 163.426424 6.306076 162.688441 7.66351 162.61066 9.411821 C 162.532423 10.361275 162.49202 11.313511 162.493965 12.264633 C 162.492024 13.498649 162.579787 14.777298 162.757563 16.096375 C 162.939851 17.411558 163.328804 18.560187 163.919599 19.550362 C 165.269343 21.543072 166.74307 22.53897 168.336578 22.537748 Z M 186.654189 63.888587 C 191.1133 63.772538 194.7663 62.950576 197.608677 61.426594 C 200.456185 59.890309 202.554405 57.910108 203.903646 55.481786 C 205.25709 53.053773 205.931672 50.546278 205.931285 47.963814 C 205.930825 44.97982 205.094545 42.154176 203.422753 39.482677 C 201.404252 36.295413 198.301806 34.169655 194.115725 33.101198 C 192.645788 32.74379 191.277727 32.207902 190.007029 31.497427 C 188.732746 30.778235 188.034252 29.585722 187.907654 27.915374 C 187.953822 27.517243 188.115536 27.157191 188.388592 26.834908 C 188.669746 26.517446 188.952079 26.356455 189.231079 26.355829 C 189.580496 26.432229 189.852828 26.752332 190.048077 27.316137 C 190.252351 27.872153 190.753068 28.707777 191.550226 29.823011 C 192.628742 31.250557 194.123172 31.964797 196.037718 31.966038 C 197.107166 31.964337 198.123378 31.709355 199.09538 31.193303 C 200.079993 30.678178 200.827824 29.934321 201.338872 28.961731 C 201.854742 27.981044 202.112136 26.951772 202.111052 25.873916 C 202.112611 24.242574 201.625782 22.642961 200.654459 21.079589 C 199.683755 19.50781 198.38219 18.182213 196.749764 17.102799 C 194.243975 15.599935 191.51831 14.845919 188.576664 14.845265 C 185.186937 14.84549 181.946785 15.858407 178.860105 17.888528 C 175.778247 19.91055 173.648593 23.008482 172.462428 27.185911 C 172.18173 28.302228 172.03815 29.335639 172.039786 30.290964 C 172.037957 35.261279 175.456866 39.464412 182.297133 42.891954 C 183.055447 43.328082 183.573148 43.645086 183.85475 43.839073 C 186.322648 45.512442 187.555902 46.904869 187.558408 48.020869 C 187.558791 48.418195 187.40468 48.732314 187.1051 48.955436 C 186.806138 49.170151 186.456047 49.275443 186.054517 49.275517 C 185.462887 49.274298 184.928248 49.015221 184.454495 48.502797 C 181.91065 45.792563 179.563129 44.436581 177.415825 44.439366 C 175.784483 44.437807 174.39995 45.046109 173.262535 46.260068 C 172.12512 47.474026 171.560861 49.055557 171.561044 51.008247 C 171.557365 54.106054 173.11406 57.250923 176.223337 60.433827 C 178.048849 62.106473 180.751031 63.179982 184.338292 63.654972 C 185.649775 63.810537 186.421741 63.888409 186.654189 63.888587 Z M 186.654189 63.888587 " stroke="#2c2a27" stroke-width="2.984445" stroke-opacity="1" stroke-miterlimit="4"/><g fill="#ff650e" fill-opacity="1"><g transform="translate(102.54437, 267.177056)"><g><path d="M 7.859375 0.421875 C 16.203125 -0.179688 22.210938 -3.101562 25.890625 -8.34375 C 29.078125 -12.832031 30.457031 -18.289062 30.03125 -24.71875 C 29.757812 -28.363281 28.757812 -31.820312 27.03125 -35.09375 C 25.3125 -38.363281 22.742188 -40.945312 19.328125 -42.84375 C 15.921875 -44.738281 11.550781 -45.53125 6.21875 -45.21875 C 4.3125 -45.070312 2.648438 -44.144531 1.234375 -42.4375 C -0.171875 -40.726562 -0.863281 -38.726562 -0.84375 -36.4375 C -0.75 -33.664062 -0.457031 -28.9375 0.03125 -22.25 L 0.625 -15.015625 C 0.976562 -10.242188 1.191406 -7.5625 1.265625 -6.96875 C 1.460938 -5.875 1.859375 -4.75 2.453125 -3.59375 C 3.046875 -2.4375 3.816406 -1.457031 4.765625 -0.65625 C 5.722656 0.144531 6.753906 0.503906 7.859375 0.421875 Z M 13.75 -18.09375 C 13.632812 -18.082031 13.578125 -18.097656 13.578125 -18.140625 C 13.585938 -18.578125 13.367188 -21.828125 12.921875 -27.890625 C 12.941406 -28.003906 13.007812 -28.066406 13.125 -28.078125 C 13.382812 -28.097656 13.753906 -27.957031 14.234375 -27.65625 C 14.722656 -27.351562 15.175781 -26.851562 15.59375 -26.15625 C 16.019531 -25.457031 16.28125 -24.460938 16.375 -23.171875 C 16.46875 -21.960938 16.335938 -20.984375 15.984375 -20.234375 C 15.628906 -19.484375 15.210938 -18.941406 14.734375 -18.609375 C 14.265625 -18.273438 13.9375 -18.101562 13.75 -18.09375 Z M 13.75 -18.09375 "/></g></g></g><g fill="#ff650e" fill-opacity="1"><g transform="translate(132.6552, 264.96393)"><g><path d="M 8.953125 -0.21875 C 10.210938 -0.3125 11.378906 -0.738281 12.453125 -1.5 C 13.523438 -2.269531 14.335938 -3.367188 14.890625 -4.796875 C 15.359375 -6.535156 15.539062 -8.125 15.4375 -9.5625 L 15.375 -10.21875 C 15.34375 -10.769531 15.332031 -11.234375 15.34375 -11.609375 L 15.59375 -11.734375 C 16.050781 -11.066406 17.25 -9.691406 19.1875 -7.609375 C 21.238281 -5.367188 22.773438 -3.859375 23.796875 -3.078125 C 25.296875 -2.109375 26.742188 -1.675781 28.140625 -1.78125 C 29.765625 -1.90625 31.148438 -2.585938 32.296875 -3.828125 C 33.441406 -5.078125 33.957031 -6.476562 33.84375 -8.03125 C 33.78125 -8.945312 33.4375 -9.882812 32.8125 -10.84375 C 30.75 -13.351562 29.195312 -15.144531 28.15625 -16.21875 C 26.988281 -17.425781 26.390625 -18.234375 26.359375 -18.640625 C 26.335938 -18.890625 26.644531 -19.316406 27.28125 -19.921875 C 27.925781 -20.523438 28.804688 -21.566406 29.921875 -23.046875 C 31.710938 -25.804688 32.492188 -28.769531 32.265625 -31.9375 C 32.023438 -35.207031 30.703125 -38.222656 28.296875 -40.984375 C 25.890625 -43.753906 22.410156 -45.425781 17.859375 -46 C 15.671875 -46.175781 13.488281 -46.1875 11.3125 -46.03125 C 10 -45.925781 8.675781 -45.789062 7.34375 -45.625 C 5.820312 -45.4375 4.441406 -44.984375 3.203125 -44.265625 C 1.972656 -43.554688 1.007812 -42.59375 0.3125 -41.375 C -0.382812 -40.15625 -0.671875 -38.664062 -0.546875 -36.90625 L 0.6875 -18.6875 C 0.769531 -17.550781 0.835938 -16.734375 0.890625 -16.234375 C 0.953125 -15.734375 0.992188 -15.328125 1.015625 -15.015625 C 1.035156 -14.710938 1.070312 -14.3125 1.125 -13.8125 C 1.175781 -13.3125 1.351562 -11.054688 1.65625 -7.046875 C 1.664062 -6.796875 1.738281 -6.460938 1.875 -6.046875 C 2.019531 -5.628906 2.144531 -5.253906 2.25 -4.921875 C 2.8125 -3.203125 3.726562 -1.960938 5 -1.203125 C 6.28125 -0.441406 7.597656 -0.113281 8.953125 -0.21875 Z M 15.671875 -25.390625 C 15.285156 -25.429688 15.03125 -26.3125 14.90625 -28.03125 C 14.707031 -30.6875 14.8125 -32.03125 15.21875 -32.0625 L 15.328125 -32.078125 C 15.847656 -32.109375 16.335938 -31.742188 16.796875 -30.984375 C 17.265625 -30.222656 17.523438 -29.53125 17.578125 -28.90625 C 17.640625 -28.050781 17.5 -27.28125 17.15625 -26.59375 C 16.8125 -25.914062 16.316406 -25.515625 15.671875 -25.390625 Z M 15.671875 -25.390625 "/></g></g></g><g fill="#ff650e" fill-opacity="1"><g transform="translate(165.578661, 262.544078)"><g><path d="M 11.953125 0.34375 C 13.535156 0.226562 15.390625 0.0546875 17.515625 -0.171875 C 19.054688 -0.328125 20.765625 -0.476562 22.640625 -0.625 C 24.515625 -0.78125 26.097656 -1.472656 27.390625 -2.703125 C 28.691406 -3.929688 29.269531 -5.554688 29.125 -7.578125 C 28.96875 -9.609375 28.3125 -11.265625 27.15625 -12.546875 C 26.007812 -13.828125 24.625 -14.519531 23 -14.625 C 19.65625 -14.375 17.019531 -14.191406 15.09375 -14.078125 C 14.832031 -14.109375 14.664062 -14.226562 14.59375 -14.4375 C 14.53125 -14.65625 14.484375 -14.953125 14.453125 -15.328125 C 14.429688 -15.679688 14.453125 -15.929688 14.515625 -16.078125 C 14.578125 -16.234375 14.769531 -16.34375 15.09375 -16.40625 C 15.425781 -16.476562 15.976562 -16.554688 16.75 -16.640625 L 19.265625 -16.9375 C 19.742188 -16.96875 20.414062 -17.015625 21.28125 -17.078125 C 22.144531 -17.148438 23.015625 -17.347656 23.890625 -17.671875 C 25.816406 -18.410156 26.648438 -20.5625 26.390625 -24.125 C 26.273438 -25.675781 25.898438 -26.796875 25.265625 -27.484375 C 24.191406 -28.585938 22.53125 -29.054688 20.28125 -28.890625 C 17.863281 -28.710938 16.265625 -28.617188 15.484375 -28.609375 C 14.703125 -28.609375 14.226562 -28.695312 14.0625 -28.875 C 13.90625 -29.050781 13.816406 -29.320312 13.796875 -29.6875 L 13.78125 -29.90625 L 13.65625 -30.78125 C 13.632812 -31.039062 13.785156 -31.222656 14.109375 -31.328125 C 14.847656 -31.378906 15.9375 -31.507812 17.375 -31.71875 C 19.226562 -32.007812 20.875 -32.207031 22.3125 -32.3125 C 23.96875 -32.4375 25.164062 -32.945312 25.90625 -33.84375 C 27.0625 -35.257812 27.5625 -37.019531 27.40625 -39.125 C 27.269531 -41.070312 26.734375 -42.566406 25.796875 -43.609375 C 24.035156 -45.460938 21.390625 -46.257812 17.859375 -46 L 4.625 -45.03125 C 1.101562 -44.550781 -0.738281 -42.960938 -0.90625 -40.265625 C -0.925781 -39.660156 -0.820312 -37.796875 -0.59375 -34.671875 C -0.46875 -32.972656 -0.332031 -31.238281 -0.1875 -29.46875 C -0.0507812 -27.707031 0.0703125 -26.222656 0.1875 -25.015625 C 0.300781 -23.816406 0.378906 -23.21875 0.421875 -23.21875 L 1.171875 -11.96875 C 1.453125 -8.175781 1.859375 -5.363281 2.390625 -3.53125 C 2.929688 -1.695312 3.925781 -0.535156 5.375 -0.046875 C 6.820312 0.429688 9.015625 0.5625 11.953125 0.34375 Z M 11.953125 0.34375 "/></g></g></g><g fill="#ff650e" fill-opacity="1"><g transform="translate(194.035003, 260.452557)"><g><path d="M 4.71875 0.15625 C 6.1875 0.0507812 7.441406 -0.492188 8.484375 -1.484375 C 9.523438 -2.472656 10.335938 -3.742188 10.921875 -5.296875 C 10.972656 -5.515625 11.066406 -5.703125 11.203125 -5.859375 C 11.347656 -6.023438 11.878906 -6.140625 12.796875 -6.203125 L 16.890625 -6.453125 L 21.46875 -6.796875 C 22.351562 -6.859375 22.992188 -6.472656 23.390625 -5.640625 C 24.179688 -4.304688 25.171875 -3.335938 26.359375 -2.734375 C 27.546875 -2.140625 28.734375 -1.890625 29.921875 -1.984375 C 31.023438 -2.054688 32.015625 -2.382812 32.890625 -2.96875 C 33.773438 -3.550781 34.4375 -4.363281 34.875 -5.40625 C 35.1875 -6.195312 35.316406 -6.976562 35.265625 -7.75 C 35.191406 -8.707031 34.742188 -10.039062 33.921875 -11.75 C 32.773438 -14.1875 30.804688 -18.796875 28.015625 -25.578125 C 26.035156 -30.273438 24.320312 -34.222656 22.875 -37.421875 C 21.425781 -40.617188 20.175781 -42.796875 19.125 -43.953125 C 17.644531 -45.347656 16.003906 -45.976562 14.203125 -45.84375 C 12.648438 -45.726562 11.300781 -45.046875 10.15625 -43.796875 C 9.945312 -43.554688 9.757812 -43.300781 9.59375 -43.03125 C 9.269531 -42.476562 8.695312 -40.929688 7.875 -38.390625 C 7.476562 -37.265625 4.3125 -27.257812 -1.625 -8.375 C -1.914062 -7.394531 -2.023438 -6.425781 -1.953125 -5.46875 C -1.867188 -4.28125 -1.507812 -3.125 -0.875 -2 C -0.320312 -1.070312 0.300781 -0.492188 1 -0.265625 C 1.707031 -0.046875 2.375 0.078125 3 0.109375 L 3.4375 0.140625 C 3.882812 0.179688 4.3125 0.1875 4.71875 0.15625 Z M 16.0625 -17.640625 C 15.4375 -17.597656 15.117188 -17.65625 15.109375 -17.8125 C 15.265625 -18.1875 15.484375 -18.679688 15.765625 -19.296875 C 16.054688 -19.910156 16.28125 -20.460938 16.4375 -20.953125 C 16.550781 -20.960938 16.644531 -20.953125 16.71875 -20.921875 C 17.070312 -20.054688 17.414062 -19.359375 17.75 -18.828125 C 18.007812 -18.441406 18.144531 -18.175781 18.15625 -18.03125 C 18.15625 -17.945312 18.113281 -17.90625 18.03125 -17.90625 Z M 16.0625 -17.640625 "/></g></g></g><g fill="#ff650e" fill-opacity="1"><g transform="translate(226.517258, 258.065133)"><g><path d="M 8.9375 0.28125 C 11.21875 0.113281 12.976562 -0.703125 14.21875 -2.171875 C 15.46875 -3.648438 16.050781 -5.671875 15.96875 -8.234375 L 15.71875 -14.015625 C 15.695312 -14.242188 15.796875 -14.367188 16.015625 -14.390625 L 16.3125 -14.34375 C 16.65625 -14.113281 17.085938 -13.757812 17.609375 -13.28125 C 18.328125 -12.625 19.128906 -11.960938 20.015625 -11.296875 C 20.910156 -10.640625 21.835938 -10.347656 22.796875 -10.421875 C 23.578125 -10.554688 24.351562 -10.957031 25.125 -11.625 C 25.90625 -12.289062 26.640625 -13.003906 27.328125 -13.765625 C 28.015625 -14.523438 28.632812 -15.128906 29.1875 -15.578125 L 29.53125 -15.703125 C 29.9375 -15.734375 30.1875 -15.566406 30.28125 -15.203125 L 30.28125 -14.328125 C 30.25 -13.835938 30.253906 -13.296875 30.296875 -12.703125 C 30.648438 -9.921875 31.007812 -7.90625 31.375 -6.65625 C 31.738281 -5.414062 32.359375 -4.398438 33.234375 -3.609375 C 34.722656 -2.460938 36.347656 -1.953125 38.109375 -2.078125 C 39.359375 -2.171875 40.484375 -2.597656 41.484375 -3.359375 C 42.492188 -4.117188 43.117188 -5.242188 43.359375 -6.734375 L 43.40625 -6.953125 C 43.46875 -7.179688 43.515625 -7.539062 43.546875 -8.03125 C 43.804688 -10.601562 43.382812 -19.882812 42.28125 -35.875 C 42.113281 -38.164062 41.898438 -39.945312 41.640625 -41.21875 C 41.378906 -42.488281 40.925781 -43.675781 40.28125 -44.78125 C 39.132812 -46.46875 37.566406 -47.238281 35.578125 -47.09375 C 34.597656 -47.019531 33.597656 -46.675781 32.578125 -46.0625 C 31.566406 -45.457031 30.664062 -44.519531 29.875 -43.25 C 26.9375 -38.40625 24.90625 -35.039062 23.78125 -33.15625 C 22.613281 -31.09375 21.914062 -29.96875 21.6875 -29.78125 C 21.457031 -29.601562 21.304688 -29.507812 21.234375 -29.5 C 21.160156 -29.5 21.054688 -29.546875 20.921875 -29.640625 C 20.785156 -29.742188 20.648438 -29.882812 20.515625 -30.0625 L 10.296875 -42.640625 C 9.484375 -43.578125 8.597656 -44.238281 7.640625 -44.625 C 6.691406 -45.019531 5.757812 -45.179688 4.84375 -45.109375 C 3.40625 -45.003906 2.207031 -44.382812 1.25 -43.25 C 0.632812 -42.53125 0.175781 -41.492188 -0.125 -40.140625 C -0.425781 -38.785156 -0.492188 -36.507812 -0.328125 -33.3125 C 0.617188 -20.363281 1.164062 -12.640625 1.3125 -10.140625 L 1.515625 -7.390625 C 1.578125 -6.503906 1.640625 -5.953125 1.703125 -5.734375 C 2.253906 -3.671875 3.296875 -2.128906 4.828125 -1.109375 C 6.359375 -0.0859375 7.726562 0.375 8.9375 0.28125 Z M 8.9375 0.28125 "/></g></g></g><path stroke-linecap="butt" transform="matrix(0.924212, -0.067929, 0.067929, 0.924212, 62.437179, 211.584992)" fill="none" stroke-linejoin="miter" d="M 47.18871 64.078409 C 56.212466 64.078077 62.91302 61.413313 67.294882 56.080223 C 71.071536 51.5057 72.98356 45.733257 73.021929 38.770686 C 73.019523 34.835571 72.225191 31.036671 70.630213 27.377574 C 69.039749 23.714582 66.477844 20.732519 62.953215 18.4278 C 59.437303 16.119496 54.795595 14.924566 49.036499 14.843628 C 46.969687 14.843876 45.109817 15.708874 43.456889 17.438624 C 41.803961 19.168373 40.897475 21.265752 40.732919 23.734655 C 40.615362 26.714202 40.556475 31.828253 40.55626 39.076808 L 40.61646 46.883486 C 40.616306 52.061025 40.635248 54.966073 40.673287 55.598628 C 40.792453 56.795053 41.128057 58.036973 41.679789 59.32859 C 42.244133 60.621135 42.998944 61.737482 43.952629 62.678251 C 44.915339 63.611231 45.992528 64.079248 47.18871 64.078409 Z M 54.997217 44.614149 C 54.878891 44.613905 54.821273 44.592764 54.824054 44.554929 C 54.858969 44.079893 54.881243 40.556569 54.882159 33.988543 C 54.920237 33.872997 54.996338 33.815192 55.114664 33.815436 C 55.393664 33.814809 55.781907 33.995501 56.279704 34.353309 C 56.772987 34.715011 57.220777 35.293151 57.618868 36.08742 C 58.016651 36.885893 58.215316 37.97827 58.218758 39.369066 C 58.215458 40.679061 57.999177 41.724034 57.561814 42.499163 C 57.124142 43.278496 56.640097 43.826186 56.105166 44.146128 C 55.570853 44.457662 55.200239 44.612165 54.997217 44.614149 Z M 81.019943 63.479583 C 82.372285 63.481768 83.65482 63.111111 84.867239 62.371814 C 86.079348 61.636722 87.041193 60.511297 87.751847 59.008151 C 88.394116 57.170306 88.71294 55.477751 88.713141 53.922387 L 88.714912 53.208227 C 88.711927 52.616287 88.731571 52.118995 88.773227 51.724759 L 89.077694 51.607661 C 89.513124 52.353955 90.68685 53.92375 92.590772 56.312223 C 94.619827 58.895863 96.15206 60.648391 97.191676 61.570117 C 98.738666 62.71933 100.268824 63.292492 101.78215 63.289603 C 103.531818 63.291405 105.069853 62.664799 106.400459 61.410095 C 107.743367 60.160521 108.413096 58.696633 108.413231 57.027147 C 108.414376 56.033986 108.109875 55.001455 107.508754 53.921763 C 105.479072 51.059123 103.947448 49.01078 102.921363 47.789962 C 101.764705 46.390484 101.185473 45.473011 101.183976 45.033337 C 101.187553 44.754646 101.553646 44.316631 102.294558 43.724422 C 103.031265 43.131904 104.055428 42.078684 105.367356 40.56056 C 107.515069 37.734455 108.585537 34.613618 108.587474 31.194464 C 108.58607 27.648266 107.403698 24.298449 105.032259 21.14019 C 102.661438 17.973523 99.052554 15.895073 94.205605 14.904839 C 91.856938 14.542018 89.503085 14.364785 87.153069 14.36535 C 85.724439 14.366011 84.297232 14.404816 82.871448 14.481764 C 81.192196 14.556989 79.663674 14.939153 78.295217 15.616261 C 76.927068 16.289166 75.812396 17.251202 74.959607 18.502987 C 74.102615 19.754462 73.677702 21.337782 73.676461 23.252328 L 73.5599 42.952268 C 73.562162 44.186593 73.569051 45.070453 73.588973 45.604465 C 73.608896 46.138478 73.619109 46.574565 73.619614 46.912728 C 73.61981 47.255095 73.629714 47.695387 73.64871 48.242011 C 73.668632 48.776023 73.675938 51.206839 73.678726 55.539281 C 73.67484 55.822175 73.736549 56.190196 73.850932 56.64662 C 73.969519 57.103353 74.070485 57.512298 74.158344 57.869561 C 74.63523 59.776983 75.529085 61.186731 76.838984 62.111416 C 78.14981 63.023489 79.544761 63.481049 81.019943 63.479583 Z M 90.199621 36.918251 C 89.799449 36.842346 89.600849 35.864091 89.603204 33.991893 C 89.6025 31.126225 89.821985 29.692642 90.257455 29.690837 L 90.388393 29.692007 C 90.942188 29.690445 91.438627 30.124231 91.873813 30.988852 C 92.313822 31.845373 92.532692 32.605337 92.529807 33.27715 C 92.530329 34.190128 92.322324 35.007474 91.906102 35.724986 C 91.485677 36.442188 90.919652 36.840149 90.199621 36.918251 Z M 119.805335 64.309981 C 121.51686 64.313207 123.518882 64.274385 125.824013 64.194443 C 127.492076 64.156434 129.345418 64.127817 131.375631 64.107974 C 133.405845 64.08813 135.163099 63.469184 136.647084 62.255339 C 138.143681 61.04242 138.89408 59.343547 138.894077 57.158408 C 138.890796 54.96035 138.323654 53.130825 137.188755 51.665322 C 136.058987 50.187516 134.621306 49.333744 132.87602 49.099802 C 129.253844 49.099849 126.406536 49.080769 124.338301 49.042873 C 124.054601 48.992435 123.883105 48.853033 123.828324 48.620772 C 123.770266 48.37559 123.73879 48.056283 123.738407 47.658958 C 123.738333 47.257428 123.779745 46.981518 123.854544 46.826406 C 123.933547 46.671603 124.152083 46.573547 124.509842 46.536444 C 124.872732 46.487038 125.467761 46.442014 126.303029 46.406194 L 129.059022 46.287538 C 129.57047 46.28709 130.297242 46.289789 131.227345 46.286299 C 132.161342 46.287322 133.110049 46.145723 134.068952 45.865396 C 136.216051 45.232837 137.289512 42.991348 137.289952 39.132519 C 137.290088 37.463033 136.970682 36.230757 136.327839 35.431179 C 135.25891 34.16072 133.509346 33.52494 131.083352 33.524147 C 128.450132 33.525029 126.715238 33.494727 125.882565 33.437753 C 125.046614 33.367858 124.548948 33.238295 124.39408 33.04517 C 124.240138 32.839433 124.160874 32.537747 124.160491 32.140421 L 124.16067 31.907973 L 124.104693 30.944426 C 124.103448 30.673834 124.277099 30.496402 124.629231 30.420845 C 125.423883 30.42008 126.599168 30.358532 128.155393 30.231999 C 130.182882 30.076705 131.976565 29.997211 133.531929 29.997412 C 135.319741 29.997791 136.646599 29.541633 137.520912 28.629556 C 138.87352 27.1905 139.546143 25.342206 139.547807 23.076886 C 139.546445 20.967726 139.092751 19.319829 138.178933 18.124169 C 136.430684 15.975373 133.64801 14.904401 129.83153 14.902846 L 115.507704 14.902471 C 111.690736 15.137568 109.580448 16.706905 109.185249 19.611099 C 109.095937 20.2512 109.053958 22.259963 109.050598 25.640974 C 109.051641 27.46693 109.062207 29.335852 109.081985 31.251943 C 109.102073 33.16383 109.118874 34.775389 109.140799 36.087238 C 109.17113 37.399704 109.203112 38.057174 109.241255 38.055751 L 109.184064 50.219849 C 109.182826 54.319533 109.402075 57.374553 109.837605 59.3846 C 110.277029 61.39916 111.249457 62.717472 112.75427 63.347943 C 114.266564 63.991643 116.61832 64.312426 119.805335 64.309981 Z M 142.82926 63.538132 C 144.422458 63.541114 145.815155 63.051756 147.010628 62.082979 C 148.207028 61.101591 149.182159 59.7954 149.940226 58.164715 C 150.016692 57.929421 150.132415 57.735051 150.287397 57.581606 C 150.455917 57.416476 151.032708 57.332072 152.021664 57.332908 L 156.43837 57.391259 L 161.391869 57.391852 C 162.342991 57.389908 162.99825 57.848046 163.357954 58.762064 C 164.117351 60.276047 165.1124 61.401599 166.347303 62.139029 C 167.578622 62.867742 168.832308 63.234615 170.104468 63.235133 C 171.30065 63.234294 172.390491 62.955137 173.382089 62.402487 C 174.382095 61.850454 175.16071 61.032781 175.713423 59.953363 C 176.112764 59.120494 176.313597 58.285714 176.311717 57.448714 C 176.311439 56.41741 175.933357 54.94836 175.173886 53.032848 C 174.147261 50.324237 172.397316 45.208262 169.932149 37.689744 C 168.180285 32.48487 166.64686 28.103326 165.327362 24.549008 C 164.012995 20.982387 162.844065 18.542271 161.812783 17.219633 C 160.33916 15.589757 158.624211 14.770552 156.671521 14.770734 C 155.002035 14.770598 153.488296 15.411669 152.138712 16.694565 C 151.906085 16.926835 151.68842 17.185564 151.486025 17.466548 C 151.086058 18.020418 150.350246 19.635832 149.283413 22.304692 C 148.76081 23.491988 144.559869 34.011699 136.680587 53.863828 C 136.282922 54.903923 136.084382 55.93752 136.084661 56.968825 C 136.084142 58.240985 136.383643 59.514063 136.987676 60.784165 C 137.502988 61.823738 138.129877 62.495347 138.864447 62.794478 C 139.60384 63.085511 140.3083 63.276765 140.978137 63.364037 L 141.460036 63.420589 C 141.935878 63.502055 142.39379 63.539938 142.82926 63.538132 Z M 156.437513 45.269386 C 155.757292 45.265883 155.416283 45.1901 155.419308 45.033939 C 155.621946 44.634629 155.904702 44.122863 156.263989 43.489925 C 156.623894 42.84858 156.898672 42.272829 157.093147 41.754575 C 157.211473 41.754818 157.311439 41.774845 157.401452 41.815274 C 157.711824 42.767932 158.026765 43.54341 158.345967 44.145911 C 158.588629 44.582178 158.710549 44.878546 158.711729 45.035015 C 158.710371 45.110994 158.67365 45.150561 158.593159 45.153098 Z M 182.506724 64.019893 C 184.975066 64.019572 186.931999 63.271599 188.377523 61.775973 C 189.835659 60.281274 190.625364 58.162632 190.754736 55.424868 L 190.928019 49.156918 C 190.928816 48.916062 191.047694 48.793776 191.292754 48.794881 L 191.584244 48.854345 C 191.944053 49.134385 192.37836 49.550924 192.895574 50.104581 C 193.613281 50.863169 194.431881 51.629174 195.342657 52.406179 C 196.257636 53.183494 197.230778 53.572012 198.27049 53.572352 C 199.108847 53.494493 199.972728 53.126878 200.866645 52.46561 C 201.760563 51.804341 202.60261 51.101222 203.401506 50.352665 C 204.196815 49.595391 204.917016 48.997433 205.557596 48.562686 L 205.90441 48.444473 C 206.344084 48.442976 206.599845 48.643517 206.68041 49.04251 L 206.619297 49.988997 C 206.543458 50.503291 206.505331 51.079529 206.504608 51.721915 C 206.658758 54.742565 206.88577 56.944388 207.190158 58.32349 C 207.49096 59.693875 208.079039 60.836007 208.9505 61.745373 C 210.465844 63.095136 212.178687 63.770483 214.080622 63.770797 C 215.42876 63.772673 216.672843 63.407643 217.808356 62.6796 C 218.948691 61.943459 219.715117 60.774085 220.110912 59.184398 L 220.171489 58.935256 C 220.247955 58.699962 220.325901 58.329526 220.402049 57.811028 C 220.891221 55.065897 221.171961 45.035742 221.248163 27.725076 C 221.247842 25.256734 221.156907 23.331187 220.971772 21.939717 C 220.79894 20.553378 220.409426 19.239871 219.806816 18.007913 C 218.700775 16.092287 217.072 15.135712 214.924697 15.138496 C 213.84715 15.135376 212.739567 15.425907 211.601948 16.010092 C 210.477867 16.582591 209.43231 17.524347 208.469482 18.835669 C 204.933757 23.812519 202.48592 27.271683 201.129247 29.226083 C 199.697774 31.335595 198.85302 32.478079 198.594055 32.666147 C 198.340531 32.837709 198.173369 32.926861 198.09739 32.925503 C 198.008491 32.927422 197.898695 32.868633 197.763488 32.753031 C 197.625004 32.624509 197.492887 32.466868 197.367755 32.271702 L 187.342805 17.946445 C 186.54707 16.869355 185.653728 16.085178 184.663088 15.589709 C 183.672447 15.09424 182.676497 14.843523 181.67462 14.845964 C 180.12346 14.846072 178.792154 15.420247 177.685215 16.564594 C 176.964461 17.285081 176.386525 18.362645 175.951408 19.797285 C 175.512395 21.227412 175.256899 23.668498 175.175893 27.128333 C 175.177672 41.135325 175.159252 49.494131 175.120633 52.204752 L 175.117817 55.175826 C 175.119143 56.135355 175.138635 56.732734 175.176291 56.967963 C 175.613684 59.240195 176.614068 60.983218 178.177443 62.197034 C 179.753429 63.411777 181.19642 64.020798 182.506724 64.019893 Z M 182.506724 64.019893 " stroke="#2c2a27" stroke-width="2.984445" stroke-opacity="1" stroke-miterlimit="4"/><g clip-path="url(#e662b09308)"><g clip-path="url(#28d86d74d5)"><g clip-path="url(#9c503cdf26)"><path fill="#fa9712" d="M 92.328125 268.800781 L 288.777344 255.152344 L 291.058594 287.957031 L 94.605469 301.605469 Z M 92.328125 268.800781 " fill-opacity="1" fill-rule="nonzero"/></g></g></g><g clip-path="url(#bb50ada018)"><g clip-path="url(#b6a2592e9d)"><g clip-path="url(#791660cd12)"><g clip-path="url(#d6d851f5a6)"><path stroke-linecap="butt" transform="matrix(0.748196, -0.0519872, 0.0519872, 0.748196, 92.333041, 268.801007)" fill="none" stroke-linejoin="miter" d="M 21.92129 -0.00163611 L 240.577457 -0.00145281 C 246.393385 0.000649077 251.970721 2.30947 256.080961 6.421977 C 260.191562 10.529289 262.503053 16.109185 262.501312 21.919917 C 262.504406 27.736206 260.190389 33.31318 256.083078 37.423781 C 251.97057 41.534021 246.39587 43.845873 240.579942 43.843771 L 21.923775 43.843588 C 16.107847 43.841486 10.530511 41.532665 6.41991 37.425354 C 2.30967 33.312846 -0.00218155 27.738146 -0.0000796689 21.922218 C 0.00202221 16.106291 2.310482 10.534151 6.42335 6.418715 C 10.530662 2.308114 16.110197 0.00181883 21.92129 -0.00163611 Z M 21.92129 -0.00163611 " stroke="#2c2a27" stroke-width="6" stroke-opacity="1" stroke-miterlimit="4"/></g></g></g></g><g fill="#fdefe3" fill-opacity="1"><g transform="translate(112.518362, 290.383084)"><g><path d="M 6.132812 -13.5 C 2.414062 -13.238281 -0.261719 -10.46875 0.0078125 -6.585938 C 0.289062 -2.527344 3.128906 -0.015625 7.089844 -0.289062 C 9.0625 -0.425781 11.1875 -1.523438 12.1875 -3.148438 C 13.078125 -4.585938 11.269531 -5.613281 10.273438 -4.230469 C 9.574219 -3.25 8.257812 -2.433594 6.988281 -2.34375 C 4.375 -2.164062 2.515625 -3.914062 2.320312 -6.746094 C 2.136719 -9.382812 3.703125 -11.269531 6.257812 -11.445312 C 7.503906 -11.53125 8.625 -11.386719 9.703125 -10.371094 C 10.828125 -9.320312 12.449219 -10.703125 11.277344 -11.855469 C 9.871094 -13.234375 8.105469 -13.636719 6.132812 -13.5 Z M 6.132812 -13.5 "/></g></g></g><g fill="#fdefe3" fill-opacity="1"><g transform="translate(130.635747, 289.124226)"><g><path d="M 9.707031 -13.542969 C 9.125 -13.503906 8.585938 -13.101562 8.632812 -12.417969 L 8.953125 -7.835938 L 2.941406 -7.417969 L 2.621094 -12 C 2.574219 -12.683594 1.945312 -13.003906 1.363281 -12.964844 C 0.777344 -12.925781 0.261719 -12.523438 0.308594 -11.839844 L 1.050781 -1.164062 C 1.097656 -0.460938 1.710938 -0.117188 2.3125 -0.160156 C 2.855469 -0.199219 3.414062 -0.582031 3.363281 -1.324219 L 3.074219 -5.46875 L 9.085938 -5.882812 L 9.375 -1.742188 C 9.425781 -1.019531 10.011719 -0.695312 10.597656 -0.734375 C 11.160156 -0.777344 11.757812 -1.179688 11.707031 -1.90625 L 10.964844 -12.582031 C 10.917969 -13.265625 10.269531 -13.582031 9.707031 -13.542969 Z M 9.707031 -13.542969 "/></g></g></g><g fill="#fdefe3" fill-opacity="1"><g transform="translate(149.074842, 287.843015)"><g><path d="M 0.0898438 -11.785156 L 0.832031 -1.089844 C 0.882812 -0.382812 1.46875 -0.101562 2.070312 -0.144531 C 2.652344 -0.183594 3.234375 -0.566406 3.1875 -1.25 L 2.441406 -11.949219 C 2.390625 -12.691406 1.765625 -12.992188 1.179688 -12.953125 C 0.578125 -12.910156 0.0390625 -12.53125 0.0898438 -11.785156 Z M 0.0898438 -11.785156 "/></g></g></g><g fill="#fdefe3" fill-opacity="1"><g transform="translate(158.204243, 287.208673)"><g><path d="M 6.132812 -13.5 C 2.414062 -13.238281 -0.261719 -10.46875 0.0078125 -6.585938 C 0.289062 -2.527344 3.128906 -0.015625 7.089844 -0.289062 C 9.0625 -0.425781 11.1875 -1.523438 12.1875 -3.148438 C 13.078125 -4.585938 11.269531 -5.613281 10.273438 -4.230469 C 9.574219 -3.25 8.257812 -2.433594 6.988281 -2.34375 C 4.375 -2.164062 2.515625 -3.914062 2.320312 -6.746094 C 2.136719 -9.382812 3.703125 -11.269531 6.257812 -11.445312 C 7.503906 -11.53125 8.625 -11.386719 9.703125 -10.371094 C 10.828125 -9.320312 12.449219 -10.703125 11.277344 -11.855469 C 9.871094 -13.234375 8.105469 -13.636719 6.132812 -13.5 Z M 6.132812 -13.5 "/></g></g></g><g fill="#fdefe3" fill-opacity="1"><g transform="translate(176.321628, 285.949815)"><g><path d="M 11.355469 -2.585938 L 6.152344 -7.398438 L 10.539062 -11.765625 C 10.78125 -12.023438 10.902344 -12.316406 10.886719 -12.574219 C 10.847656 -13.097656 10.289062 -13.585938 9.644531 -13.539062 C 9.34375 -13.519531 9.070312 -13.398438 8.824219 -13.160156 L 2.992188 -7.21875 L 2.660156 -12.023438 C 2.609375 -12.726562 1.984375 -13.007812 1.402344 -12.96875 C 0.820312 -12.925781 0.277344 -12.566406 0.328125 -11.863281 L 1.074219 -1.125 C 1.121094 -0.441406 1.710938 -0.117188 2.292969 -0.160156 C 2.875 -0.199219 3.453125 -0.605469 3.40625 -1.289062 L 3.1875 -4.445312 L 4.601562 -5.875 L 9.765625 -1.0625 C 10.066406 -0.78125 10.414062 -0.722656 10.738281 -0.746094 C 11.339844 -0.789062 11.835938 -1.226562 11.796875 -1.789062 C 11.78125 -2.03125 11.640625 -2.285156 11.355469 -2.585938 Z M 11.355469 -2.585938 "/></g></g></g><g fill="#fdefe3" fill-opacity="1"><g transform="translate(193.634723, 284.746842)"><g><path d="M 5.964844 -13.285156 L 1.484375 -12.972656 C 0.839844 -12.929688 0.328125 -12.429688 0.371094 -11.824219 L 1.113281 -1.148438 C 1.152344 -0.566406 1.730469 -0.121094 2.371094 -0.164062 L 7.277344 -0.503906 C 9.894531 -0.6875 12.632812 -1.644531 12.417969 -4.761719 C 12.320312 -6.191406 11.558594 -7.226562 10.132812 -7.695312 C 10.847656 -8.167969 11.21875 -9.246094 11.15625 -10.109375 C 10.949219 -13.125 7.917969 -13.421875 5.964844 -13.285156 Z M 6.105469 -11.292969 C 7.109375 -11.363281 8.753906 -11.257812 8.84375 -9.949219 C 8.921875 -8.824219 7.75 -8.277344 6.382812 -8.183594 L 2.984375 -7.945312 L 2.765625 -11.0625 Z M 7.464844 -6.257812 C 8.832031 -6.351562 9.960938 -5.824219 10.046875 -4.597656 C 10.15625 -3.007812 8.589844 -2.597656 7.140625 -2.496094 L 3.378906 -2.234375 L 3.121094 -5.953125 Z M 7.464844 -6.257812 "/></g></g></g><g fill="#fdefe3" fill-opacity="1"><g transform="translate(212.154252, 283.460042)"><g><path d="M 5.671875 -13.464844 C 5.148438 -13.429688 4.835938 -13.285156 4.664062 -12.832031 L -0.285156 -1.210938 C -0.59375 -0.402344 0.234375 0.1875 0.9375 0.136719 C 1.320312 0.109375 1.730469 -0.078125 1.902344 -0.515625 L 3.117188 -3.410156 L 9.589844 -3.859375 L 11.195312 -1.160156 C 11.421875 -0.792969 11.878906 -0.625 12.257812 -0.648438 C 13.023438 -0.703125 13.785156 -1.363281 13.203125 -2.210938 L 6.734375 -12.972656 C 6.507812 -13.363281 6.09375 -13.496094 5.671875 -13.464844 Z M 5.90625 -10.066406 L 8.472656 -5.742188 L 3.96875 -5.429688 Z M 5.90625 -10.066406 "/></g></g></g><g fill="#fdefe3" fill-opacity="1"><g transform="translate(230.874854, 282.159271)"><g><path d="M 6.074219 -4.199219 L 1.785156 -12.085938 C 1.460938 -12.6875 1.019531 -12.941406 0.496094 -12.90625 C -0.246094 -12.851562 -0.898438 -12.039062 -0.410156 -11.144531 L 5.121094 -1.023438 C 5.335938 -0.574219 5.75 -0.398438 6.214844 -0.433594 C 6.695312 -0.464844 7.160156 -0.738281 7.316406 -1.132812 L 10.503906 -8.769531 L 14.753906 -1.652344 C 15.007812 -1.203125 15.382812 -1.070312 15.84375 -1.101562 C 16.308594 -1.132812 16.734375 -1.386719 16.90625 -1.839844 L 21.058594 -12.71875 C 21.433594 -13.714844 20.566406 -14.300781 19.859375 -14.25 C 19.339844 -14.214844 18.9375 -13.863281 18.75 -13.363281 L 15.5625 -4.859375 L 11.398438 -11.90625 C 11.148438 -12.292969 10.667969 -12.480469 10.226562 -12.449219 C 9.765625 -12.417969 9.378906 -12.167969 9.226562 -11.714844 Z M 6.074219 -4.199219 "/></g></g></g><g fill="#fdefe3" fill-opacity="1"><g transform="translate(259.106222, 280.197659)"><g><path d="M 11.355469 -2.585938 L 6.152344 -7.398438 L 10.539062 -11.765625 C 10.78125 -12.023438 10.902344 -12.316406 10.886719 -12.574219 C 10.847656 -13.097656 10.289062 -13.585938 9.644531 -13.539062 C 9.34375 -13.519531 9.070312 -13.398438 8.824219 -13.160156 L 2.992188 -7.21875 L 2.660156 -12.023438 C 2.609375 -12.726562 1.984375 -13.007812 1.402344 -12.96875 C 0.820312 -12.925781 0.277344 -12.566406 0.328125 -11.863281 L 1.074219 -1.125 C 1.121094 -0.441406 1.710938 -0.117188 2.292969 -0.160156 C 2.875 -0.199219 3.453125 -0.605469 3.40625 -1.289062 L 3.1875 -4.445312 L 4.601562 -5.875 L 9.765625 -1.0625 C 10.066406 -0.78125 10.414062 -0.722656 10.738281 -0.746094 C 11.339844 -0.789062 11.835938 -1.226562 11.796875 -1.789062 C 11.78125 -2.03125 11.640625 -2.285156 11.355469 -2.585938 Z M 11.355469 -2.585938 "/></g></g></g></svg>