<svg xmlns="http://www.w3.org/2000/svg" xmlns:xlink="http://www.w3.org/1999/xlink" width="128" zoomAndPan="magnify" viewBox="0 0 96 95.999999" height="128" preserveAspectRatio="xMidYMid meet" version="1.0"><defs><clipPath id="ce40727927"><path d="M 31 91 L 84.898438 91 L 84.898438 96 L 31 96 Z M 31 91 " clip-rule="nonzero"/></clipPath><clipPath id="7c1f0805cf"><path d="M 31 5 L 84.898438 5 L 84.898438 55 L 31 55 Z M 31 5 " clip-rule="nonzero"/></clipPath><clipPath id="d3910886fc"><path d="M 31 28 L 84.898438 28 L 84.898438 94 L 31 94 Z M 31 28 " clip-rule="nonzero"/></clipPath><clipPath id="0c1558550f"><path d="M 63 28 L 84.898438 28 L 84.898438 94 L 63 94 Z M 63 28 " clip-rule="nonzero"/></clipPath><clipPath id="924d15d8a5"><path d="M 30 4 L 84.898438 4 L 84.898438 56 L 30 56 Z M 30 4 " clip-rule="nonzero"/></clipPath><clipPath id="8945cb35be"><path d="M 30 27 L 84.898438 27 L 84.898438 95 L 30 95 Z M 30 27 " clip-rule="nonzero"/></clipPath><clipPath id="1a61505cb2"><path d="M 11.398438 30 L 33 30 L 33 80 L 11.398438 80 Z M 11.398438 30 " clip-rule="nonzero"/></clipPath></defs><g clip-path="url(#ce40727927)"><path fill="#18134b" d="M 84.144531 93.730469 C 84.144531 93.800781 84.101562 93.871094 84.015625 93.941406 C 83.933594 94.011719 83.804688 94.078125 83.636719 94.148438 C 83.46875 94.21875 83.257812 94.285156 83.007812 94.351562 C 82.757812 94.417969 82.46875 94.484375 82.136719 94.550781 C 81.804688 94.613281 81.4375 94.679688 81.03125 94.742188 C 80.625 94.800781 80.179688 94.863281 79.699219 94.921875 C 79.21875 94.980469 78.707031 95.035156 78.15625 95.089844 C 77.609375 95.144531 77.03125 95.195312 76.421875 95.246094 C 75.808594 95.296875 75.171875 95.34375 74.503906 95.386719 C 73.835938 95.429688 73.140625 95.472656 72.421875 95.511719 C 71.707031 95.550781 70.964844 95.585938 70.203125 95.621094 C 69.441406 95.652344 68.660156 95.683594 67.863281 95.710938 C 67.066406 95.738281 66.253906 95.761719 65.425781 95.78125 C 64.601562 95.800781 63.765625 95.816406 62.917969 95.832031 C 62.070312 95.84375 61.214844 95.855469 60.355469 95.863281 C 59.496094 95.871094 58.636719 95.875 57.773438 95.875 C 56.90625 95.875 56.046875 95.871094 55.1875 95.863281 C 54.328125 95.855469 53.472656 95.84375 52.625 95.832031 C 51.78125 95.816406 50.941406 95.800781 50.117188 95.78125 C 49.289062 95.761719 48.476562 95.738281 47.679688 95.710938 C 46.882812 95.683594 46.101562 95.652344 45.339844 95.621094 C 44.578125 95.585938 43.839844 95.550781 43.121094 95.511719 C 42.402344 95.472656 41.707031 95.429688 41.042969 95.386719 C 40.375 95.34375 39.734375 95.296875 39.125 95.246094 C 38.511719 95.195312 37.933594 95.144531 37.386719 95.089844 C 36.835938 95.035156 36.324219 94.980469 35.84375 94.921875 C 35.363281 94.863281 34.921875 94.800781 34.511719 94.742188 C 34.105469 94.679688 33.738281 94.613281 33.40625 94.550781 C 33.074219 94.484375 32.785156 94.417969 32.535156 94.351562 C 32.285156 94.285156 32.074219 94.21875 31.90625 94.148438 C 31.738281 94.078125 31.609375 94.011719 31.527344 93.941406 C 31.441406 93.871094 31.398438 93.800781 31.398438 93.730469 C 31.398438 93.660156 31.441406 93.589844 31.527344 93.519531 C 31.609375 93.449219 31.738281 93.382812 31.90625 93.3125 C 32.074219 93.242188 32.285156 93.175781 32.535156 93.109375 C 32.785156 93.042969 33.074219 92.976562 33.40625 92.910156 C 33.738281 92.84375 34.105469 92.78125 34.511719 92.71875 C 34.921875 92.660156 35.363281 92.597656 35.84375 92.539062 C 36.324219 92.480469 36.835938 92.425781 37.386719 92.371094 C 37.933594 92.316406 38.511719 92.265625 39.125 92.214844 C 39.734375 92.164062 40.375 92.117188 41.042969 92.074219 C 41.707031 92.03125 42.402344 91.988281 43.121094 91.949219 C 43.839844 91.910156 44.578125 91.875 45.339844 91.839844 C 46.101562 91.808594 46.882812 91.777344 47.679688 91.75 C 48.476562 91.722656 49.289062 91.699219 50.117188 91.679688 C 50.941406 91.660156 51.78125 91.640625 52.625 91.628906 C 53.472656 91.613281 54.328125 91.605469 55.1875 91.597656 C 56.046875 91.589844 56.90625 91.585938 57.773438 91.585938 C 58.636719 91.585938 59.496094 91.589844 60.355469 91.597656 C 61.214844 91.605469 62.070312 91.613281 62.917969 91.628906 C 63.765625 91.640625 64.601562 91.660156 65.425781 91.679688 C 66.253906 91.699219 67.066406 91.722656 67.863281 91.75 C 68.660156 91.777344 69.441406 91.808594 70.203125 91.839844 C 70.964844 91.875 71.707031 91.910156 72.421875 91.949219 C 73.140625 91.988281 73.835938 92.03125 74.503906 92.074219 C 75.171875 92.117188 75.808594 92.164062 76.421875 92.214844 C 77.03125 92.265625 77.609375 92.316406 78.15625 92.371094 C 78.707031 92.425781 79.21875 92.480469 79.699219 92.539062 C 80.179688 92.597656 80.625 92.660156 81.03125 92.71875 C 81.4375 92.78125 81.804688 92.84375 82.136719 92.910156 C 82.46875 92.976562 82.757812 93.042969 83.007812 93.109375 C 83.257812 93.175781 83.46875 93.242188 83.636719 93.3125 C 83.804688 93.382812 83.933594 93.449219 84.015625 93.519531 C 84.101562 93.589844 84.144531 93.660156 84.144531 93.730469 Z M 84.144531 93.730469 " fill-opacity="0.5" fill-rule="nonzero"/></g><path fill="#ffe093" d="M 74.425781 91.574219 C 71.992188 92.773438 69.414062 93.371094 66.695312 93.367188 L 48.847656 93.367188 C 46.128906 93.371094 43.554688 92.773438 41.117188 91.574219 C 45.65625 91.273438 51.457031 91.09375 57.773438 91.09375 C 64.085938 91.09375 69.886719 91.265625 74.425781 91.574219 Z M 74.425781 91.574219 " fill-opacity="1" fill-rule="nonzero"/><g clip-path="url(#7c1f0805cf)"><path fill="#ffffff" d="M 84.144531 28.484375 L 84.144531 40.59375 C 84.144531 40.59375 78.25 41.335938 78.089844 34.144531 C 78.003906 30.175781 75.265625 28.863281 72.824219 28.484375 L 51.613281 28.484375 C 44.84375 29.757812 45.074219 35.191406 44.835938 39.222656 C 44.570312 43.71875 43.5625 43.875 39.738281 43.296875 L 39.738281 43.558594 C 39.738281 43.613281 39.738281 43.671875 39.738281 43.730469 C 39.738281 44.007812 39.726562 44.289062 39.714844 44.578125 C 39.714844 44.683594 39.714844 44.792969 39.714844 44.902344 C 39.714844 45.125 39.6875 45.351562 39.675781 45.574219 C 39.675781 45.675781 39.664062 45.777344 39.65625 45.875 C 39.628906 46.332031 39.589844 46.792969 39.546875 47.246094 C 39.53125 47.433594 39.511719 47.621094 39.492188 47.8125 L 39.472656 48.027344 C 39.46875 48.046875 39.46875 48.066406 39.472656 48.085938 L 39.429688 48.476562 C 39.429688 48.507812 39.429688 48.539062 39.429688 48.570312 C 39.382812 48.980469 39.300781 49.382812 39.179688 49.78125 C 39.0625 50.175781 38.90625 50.558594 38.71875 50.925781 C 38.527344 51.296875 38.308594 51.644531 38.054688 51.972656 C 37.800781 52.296875 37.519531 52.601562 37.207031 52.878906 C 36.898438 53.152344 36.566406 53.398438 36.214844 53.617188 C 35.859375 53.832031 35.488281 54.011719 35.097656 54.160156 C 34.710938 54.308594 34.3125 54.421875 33.902344 54.496094 C 33.496094 54.570312 33.082031 54.609375 32.667969 54.609375 L 31.398438 54.609375 L 31.398438 28.484375 C 31.398438 28.285156 31.398438 28.089844 31.398438 27.890625 C 31.394531 25.9375 31.675781 24.027344 32.25 22.15625 C 34.046875 16.324219 38.507812 12.1875 43.722656 12.1875 C 44.882812 12.1875 46.011719 12.386719 47.105469 12.785156 C 49.234375 8.453125 53.214844 5.539062 57.773438 5.539062 C 62.328125 5.539062 66.316406 8.460938 68.445312 12.796875 C 69.535156 12.394531 70.660156 12.191406 71.820312 12.1875 C 76.703125 12.1875 80.921875 15.890625 82.917969 21.265625 C 83.746094 23.527344 84.152344 25.859375 84.144531 28.265625 Z M 84.144531 28.484375 " fill-opacity="1" fill-rule="nonzero"/></g><path fill="#ffe093" d="M 83.929688 28.847656 L 83.929688 31.074219 C 83.941406 28.667969 83.53125 26.335938 82.703125 24.074219 C 80.710938 18.707031 76.488281 14.996094 71.609375 14.996094 C 70.445312 15 69.324219 15.203125 68.234375 15.605469 C 66.09375 11.269531 62.121094 8.351562 57.558594 8.351562 C 52.996094 8.351562 49.023438 11.265625 46.902344 15.605469 C 45.8125 15.210938 44.683594 15.011719 43.523438 15.007812 C 38.304688 15.007812 33.847656 19.136719 32.046875 24.972656 C 31.476562 26.839844 31.195312 28.75 31.199219 30.703125 L 31.199219 28.847656 C 31.199219 28.648438 31.199219 28.453125 31.199219 28.253906 C 31.195312 26.300781 31.476562 24.390625 32.046875 22.519531 C 33.847656 16.6875 38.304688 12.558594 43.523438 12.558594 C 44.683594 12.558594 45.8125 12.753906 46.902344 13.152344 C 49.035156 8.816406 53.015625 5.902344 57.570312 5.902344 C 62.125 5.902344 66.09375 8.824219 68.234375 13.164062 C 69.324219 12.757812 70.449219 12.554688 71.609375 12.550781 C 76.492188 12.550781 80.710938 16.253906 82.703125 21.628906 C 83.53125 23.890625 83.941406 26.222656 83.933594 28.628906 C 83.933594 28.699219 83.929688 28.773438 83.929688 28.847656 Z M 83.929688 28.847656 " fill-opacity="1" fill-rule="nonzero"/><g clip-path="url(#d3910886fc)"><path fill="#fcb833" d="M 84.144531 40.59375 L 84.144531 76.488281 C 84.144531 77.054688 84.117188 77.625 84.058594 78.191406 C 84.003906 78.757812 83.921875 79.320312 83.808594 79.878906 C 83.699219 80.4375 83.558594 80.988281 83.394531 81.53125 C 83.226562 82.078125 83.035156 82.613281 82.816406 83.136719 C 82.597656 83.664062 82.351562 84.175781 82.085938 84.679688 C 81.816406 85.179688 81.519531 85.667969 81.203125 86.140625 C 80.886719 86.613281 80.546875 87.070312 80.183594 87.511719 C 79.820312 87.949219 79.4375 88.371094 79.035156 88.773438 C 78.628906 89.175781 78.207031 89.558594 77.765625 89.917969 C 77.324219 90.28125 76.863281 90.621094 76.390625 90.9375 C 75.914062 91.25 75.425781 91.542969 74.921875 91.8125 C 74.417969 92.082031 73.902344 92.324219 73.371094 92.542969 C 72.84375 92.757812 72.308594 92.949219 71.761719 93.117188 C 71.214844 93.28125 70.660156 93.417969 70.097656 93.53125 C 69.539062 93.640625 68.972656 93.726562 68.40625 93.78125 C 67.835938 93.835938 67.265625 93.863281 66.695312 93.863281 L 48.847656 93.863281 C 47.753906 93.863281 46.671875 93.761719 45.597656 93.558594 C 44.523438 93.355469 43.480469 93.054688 42.460938 92.65625 C 41.445312 92.257812 40.472656 91.769531 39.550781 91.191406 C 38.625 90.609375 37.761719 89.949219 36.960938 89.207031 C 36.160156 88.464844 35.4375 87.65625 34.789062 86.78125 C 34.140625 85.902344 33.582031 84.976562 33.109375 83.992188 C 32.636719 83.011719 32.261719 81.996094 31.980469 80.941406 C 31.699219 79.890625 31.519531 78.824219 31.441406 77.738281 C 31.414062 77.324219 31.398438 76.90625 31.398438 76.488281 L 31.398438 54.613281 L 32.640625 54.613281 C 33.054688 54.613281 33.464844 54.574219 33.875 54.5 C 34.285156 54.421875 34.683594 54.3125 35.070312 54.164062 C 35.457031 54.015625 35.828125 53.835938 36.183594 53.617188 C 36.539062 53.402344 36.871094 53.15625 37.179688 52.878906 C 37.488281 52.605469 37.769531 52.300781 38.023438 51.976562 C 38.277344 51.648438 38.5 51.300781 38.6875 50.929688 C 38.878906 50.5625 39.03125 50.179688 39.152344 49.785156 C 39.273438 49.386719 39.355469 48.984375 39.398438 48.574219 C 39.398438 48.542969 39.398438 48.511719 39.398438 48.484375 L 39.441406 48.089844 C 39.441406 48.070312 39.441406 48.050781 39.441406 48.03125 L 39.464844 47.816406 C 39.484375 47.628906 39.503906 47.441406 39.519531 47.253906 C 39.558594 46.796875 39.597656 46.335938 39.628906 45.878906 C 39.628906 45.78125 39.640625 45.679688 39.648438 45.578125 C 39.660156 45.355469 39.675781 45.132812 39.683594 44.910156 C 39.683594 44.800781 39.683594 44.6875 39.683594 44.582031 C 39.683594 44.292969 39.703125 44.011719 39.707031 43.734375 C 39.707031 43.679688 39.707031 43.617188 39.707031 43.5625 L 39.707031 43.292969 C 43.546875 43.875 44.542969 43.714844 44.808594 39.222656 C 45.046875 35.1875 44.808594 29.753906 51.582031 28.484375 L 72.796875 28.484375 C 75.234375 28.859375 77.972656 30.171875 78.0625 34.140625 C 78.25 41.335938 84.144531 40.59375 84.144531 40.59375 Z M 84.144531 40.59375 " fill-opacity="1" fill-rule="nonzero"/></g><path fill="#ffe093" d="M 74.425781 92.160156 C 71.992188 93.363281 69.414062 93.964844 66.695312 93.960938 L 48.847656 93.960938 C 46.128906 93.964844 43.554688 93.367188 41.117188 92.167969 C 45.65625 91.867188 51.457031 91.691406 57.773438 91.691406 C 64.085938 91.691406 69.886719 91.859375 74.425781 92.160156 Z M 74.425781 92.160156 " fill-opacity="1" fill-rule="nonzero"/><g clip-path="url(#0c1558550f)"><path fill="#ffe093" d="M 84.71875 40.691406 L 84.71875 76.578125 C 84.71875 77.148438 84.691406 77.714844 84.632812 78.28125 C 84.578125 78.847656 84.496094 79.410156 84.382812 79.96875 C 84.273438 80.527344 84.132812 81.078125 83.96875 81.625 C 83.800781 82.167969 83.609375 82.703125 83.390625 83.230469 C 83.171875 83.757812 82.929688 84.269531 82.660156 84.773438 C 82.390625 85.273438 82.097656 85.761719 81.78125 86.234375 C 81.460938 86.710938 81.121094 87.164062 80.757812 87.605469 C 80.398438 88.046875 80.011719 88.46875 79.609375 88.871094 C 79.207031 89.273438 78.78125 89.65625 78.339844 90.015625 C 77.898438 90.378906 77.441406 90.714844 76.964844 91.03125 C 76.488281 91.347656 76 91.640625 75.496094 91.910156 C 74.992188 92.175781 74.476562 92.421875 73.949219 92.636719 C 73.417969 92.855469 72.882812 93.046875 72.335938 93.214844 C 71.789062 93.378906 71.234375 93.515625 70.671875 93.628906 C 70.113281 93.738281 69.546875 93.824219 68.980469 93.878906 C 68.410156 93.933594 67.839844 93.960938 67.269531 93.960938 L 63.453125 93.960938 C 64.027344 93.960938 64.597656 93.933594 65.164062 93.878906 C 65.734375 93.824219 66.296875 93.738281 66.859375 93.628906 C 67.417969 93.515625 67.972656 93.378906 68.519531 93.214844 C 69.066406 93.046875 69.605469 92.855469 70.132812 92.640625 C 70.660156 92.421875 71.175781 92.179688 71.679688 91.910156 C 72.183594 91.640625 72.671875 91.351562 73.148438 91.035156 C 73.625 90.71875 74.082031 90.378906 74.523438 90.019531 C 74.964844 89.65625 75.390625 89.273438 75.792969 88.871094 C 76.195312 88.46875 76.582031 88.050781 76.941406 87.609375 C 77.304688 87.167969 77.644531 86.710938 77.960938 86.238281 C 78.28125 85.765625 78.574219 85.277344 78.84375 84.777344 C 79.113281 84.273438 79.355469 83.761719 79.574219 83.234375 C 79.792969 82.710938 79.984375 82.175781 80.152344 81.628906 C 80.316406 81.085938 80.457031 80.535156 80.566406 79.976562 C 80.679688 79.417969 80.761719 78.855469 80.820312 78.289062 C 80.875 77.722656 80.902344 77.15625 80.902344 76.585938 L 80.902344 40.691406 C 80.902344 40.691406 75.007812 41.429688 74.847656 34.238281 C 74.761719 30.273438 72.023438 28.957031 69.582031 28.582031 L 73.40625 28.582031 C 75.847656 28.957031 78.585938 30.273438 78.671875 34.238281 C 78.820312 41.429688 84.71875 40.691406 84.71875 40.691406 Z M 84.71875 40.691406 " fill-opacity="1" fill-rule="nonzero"/></g><path fill="#ffe093" d="M 21.847656 78.859375 L 20.226562 78.859375 C 15.761719 78.859375 12.144531 74.503906 12.144531 69.128906 L 12.144531 40.824219 C 12.144531 35.640625 15.632812 31.445312 19.933594 31.445312 L 21.554688 31.445312 C 17.253906 31.445312 13.765625 35.640625 13.765625 40.824219 L 13.765625 69.128906 C 13.765625 74.503906 17.382812 78.859375 21.847656 78.859375 Z M 21.847656 78.859375 " fill-opacity="1" fill-rule="nonzero"/><path fill="#fcb833" d="M 26.285156 73.519531 L 24.664062 73.519531 C 20.203125 73.519531 16.582031 69.160156 16.582031 63.789062 L 16.582031 46.164062 C 16.582031 40.984375 20.070312 36.785156 24.371094 36.785156 L 25.992188 36.785156 C 21.691406 36.785156 18.203125 40.984375 18.203125 46.164062 L 18.203125 63.789062 C 18.203125 69.160156 21.820312 73.519531 26.285156 73.519531 Z M 26.285156 73.519531 " fill-opacity="1" fill-rule="nonzero"/><path fill="#fcb833" d="M 31.398438 78.859375 L 21.847656 78.859375 C 17.382812 78.859375 13.765625 74.503906 13.765625 69.128906 L 13.765625 40.824219 C 13.765625 35.640625 17.253906 31.445312 21.554688 31.445312 L 31.359375 31.445312 L 31.359375 36.785156 L 24.371094 36.785156 C 20.070312 36.785156 16.582031 40.984375 16.582031 46.164062 L 16.582031 63.789062 C 16.582031 69.160156 20.203125 73.519531 24.664062 73.519531 L 31.359375 73.519531 L 31.359375 77.609375 C 31.359375 78.03125 31.371094 78.449219 31.398438 78.859375 Z M 31.398438 78.859375 " fill-opacity="1" fill-rule="nonzero"/><path fill="#18134b" d="M 55.582031 44.644531 C 55.582031 45.003906 55.5625 45.363281 55.527344 45.714844 C 55.488281 46.066406 55.433594 46.410156 55.359375 46.742188 C 55.289062 47.074219 55.199219 47.390625 55.089844 47.6875 C 54.984375 47.988281 54.863281 48.261719 54.730469 48.519531 C 54.59375 48.773438 54.449219 49 54.289062 49.199219 C 54.128906 49.398438 53.964844 49.566406 53.785156 49.703125 C 53.609375 49.84375 53.429688 49.945312 53.242188 50.015625 C 53.054688 50.085938 52.863281 50.121094 52.675781 50.121094 C 52.484375 50.121094 52.292969 50.085938 52.105469 50.015625 C 51.917969 49.945312 51.738281 49.84375 51.5625 49.703125 C 51.386719 49.566406 51.21875 49.398438 51.058594 49.199219 C 50.898438 49 50.753906 48.773438 50.617188 48.519531 C 50.484375 48.261719 50.363281 47.988281 50.257812 47.6875 C 50.152344 47.390625 50.0625 47.074219 49.988281 46.742188 C 49.914062 46.410156 49.859375 46.066406 49.824219 45.714844 C 49.785156 45.363281 49.765625 45.003906 49.765625 44.644531 C 49.765625 44.285156 49.785156 43.929688 49.824219 43.578125 C 49.859375 43.226562 49.914062 42.882812 49.988281 42.550781 C 50.0625 42.21875 50.152344 41.902344 50.257812 41.605469 C 50.363281 41.304688 50.484375 41.027344 50.617188 40.773438 C 50.753906 40.519531 50.898438 40.292969 51.058594 40.09375 C 51.21875 39.894531 51.386719 39.726562 51.5625 39.585938 C 51.738281 39.449219 51.917969 39.347656 52.105469 39.277344 C 52.292969 39.207031 52.484375 39.171875 52.675781 39.171875 C 52.863281 39.171875 53.054688 39.207031 53.242188 39.277344 C 53.429688 39.347656 53.609375 39.449219 53.785156 39.585938 C 53.964844 39.726562 54.128906 39.894531 54.289062 40.09375 C 54.449219 40.292969 54.59375 40.519531 54.730469 40.773438 C 54.863281 41.027344 54.984375 41.304688 55.089844 41.605469 C 55.199219 41.902344 55.289062 42.21875 55.359375 42.550781 C 55.433594 42.882812 55.488281 43.226562 55.527344 43.578125 C 55.5625 43.929688 55.582031 44.285156 55.582031 44.644531 Z M 55.582031 44.644531 " fill-opacity="1" fill-rule="nonzero"/><path fill="#18134b" d="M 75.023438 44.644531 C 75.023438 45.003906 75.003906 45.363281 74.964844 45.714844 C 74.929688 46.066406 74.875 46.410156 74.800781 46.742188 C 74.726562 47.074219 74.636719 47.390625 74.53125 47.6875 C 74.425781 47.988281 74.304688 48.261719 74.171875 48.519531 C 74.035156 48.773438 73.886719 49 73.730469 49.199219 C 73.570312 49.398438 73.402344 49.566406 73.226562 49.703125 C 73.050781 49.84375 72.867188 49.945312 72.679688 50.015625 C 72.496094 50.085938 72.304688 50.121094 72.113281 50.121094 C 71.921875 50.121094 71.734375 50.085938 71.546875 50.015625 C 71.359375 49.945312 71.179688 49.84375 71 49.703125 C 70.824219 49.566406 70.65625 49.398438 70.5 49.199219 C 70.339844 49 70.195312 48.773438 70.058594 48.519531 C 69.921875 48.261719 69.804688 47.988281 69.695312 47.6875 C 69.589844 47.390625 69.5 47.074219 69.429688 46.742188 C 69.355469 46.410156 69.300781 46.066406 69.261719 45.714844 C 69.226562 45.363281 69.207031 45.003906 69.207031 44.644531 C 69.207031 44.285156 69.226562 43.929688 69.261719 43.578125 C 69.300781 43.226562 69.355469 42.882812 69.429688 42.550781 C 69.5 42.21875 69.589844 41.902344 69.695312 41.605469 C 69.804688 41.304688 69.921875 41.027344 70.058594 40.773438 C 70.195312 40.519531 70.339844 40.292969 70.5 40.09375 C 70.65625 39.894531 70.824219 39.726562 71 39.585938 C 71.179688 39.449219 71.359375 39.347656 71.546875 39.277344 C 71.734375 39.207031 71.921875 39.171875 72.113281 39.171875 C 72.304688 39.171875 72.496094 39.207031 72.679688 39.277344 C 72.867188 39.347656 73.050781 39.449219 73.226562 39.585938 C 73.402344 39.726562 73.570312 39.894531 73.730469 40.09375 C 73.886719 40.292969 74.035156 40.519531 74.171875 40.773438 C 74.304688 41.027344 74.425781 41.304688 74.53125 41.605469 C 74.636719 41.902344 74.726562 42.21875 74.800781 42.550781 C 74.875 42.882812 74.929688 43.226562 74.964844 43.578125 C 75.003906 43.929688 75.023438 44.285156 75.023438 44.644531 Z M 75.023438 44.644531 " fill-opacity="1" fill-rule="nonzero"/><path fill="#18134b" d="M 66.351562 56.90625 C 66.351562 58.507812 65.050781 59.109375 63.445312 59.109375 C 61.835938 59.109375 60.539062 58.507812 60.539062 56.90625 C 60.539062 55.308594 61.839844 54.613281 63.445312 54.613281 C 65.050781 54.613281 66.351562 55.308594 66.351562 56.90625 Z M 66.351562 56.90625 " fill-opacity="1" fill-rule="nonzero"/><path fill="#18134b" d="M 48.878906 34.976562 C 49.058594 34.929688 49.226562 34.894531 49.398438 34.859375 C 49.570312 34.824219 49.742188 34.796875 49.914062 34.769531 C 50.261719 34.71875 50.613281 34.683594 50.964844 34.664062 C 51.675781 34.621094 52.382812 34.644531 53.089844 34.734375 C 53.8125 34.828125 54.515625 34.996094 55.199219 35.25 C 55.371094 35.308594 55.539062 35.382812 55.710938 35.453125 C 55.882812 35.523438 56.046875 35.605469 56.210938 35.691406 C 56.542969 35.867188 56.863281 36.058594 57.167969 36.273438 C 57.339844 36.386719 57.445312 36.546875 57.484375 36.75 C 57.523438 36.949219 57.484375 37.136719 57.367188 37.304688 C 57.25 37.476562 57.09375 37.582031 56.890625 37.617188 C 56.6875 37.65625 56.5 37.617188 56.328125 37.503906 L 56.261719 37.449219 L 56.242188 37.429688 C 56.011719 37.226562 55.773438 37.03125 55.523438 36.851562 C 55.394531 36.761719 55.261719 36.683594 55.128906 36.59375 C 54.996094 36.507812 54.855469 36.433594 54.714844 36.355469 C 54.144531 36.058594 53.542969 35.832031 52.917969 35.671875 C 52.28125 35.507812 51.632812 35.402344 50.976562 35.359375 C 50.644531 35.339844 50.3125 35.328125 49.976562 35.335938 C 49.8125 35.335938 49.644531 35.335938 49.480469 35.359375 C 49.3125 35.378906 49.144531 35.382812 49 35.40625 C 48.855469 35.417969 48.769531 35.355469 48.742188 35.210938 C 48.734375 35.101562 48.78125 35.023438 48.878906 34.976562 Z M 48.878906 34.976562 " fill-opacity="1" fill-rule="nonzero"/><path fill="#18134b" d="M 75.953125 35.414062 C 75.796875 35.390625 75.625 35.378906 75.460938 35.363281 C 75.296875 35.351562 75.128906 35.347656 74.960938 35.34375 C 74.628906 35.34375 74.292969 35.34375 73.964844 35.371094 C 73.304688 35.414062 72.660156 35.519531 72.019531 35.683594 C 71.394531 35.84375 70.796875 36.070312 70.222656 36.367188 C 70.082031 36.4375 69.949219 36.523438 69.8125 36.609375 C 69.675781 36.691406 69.542969 36.773438 69.417969 36.867188 C 69.164062 37.042969 68.925781 37.234375 68.699219 37.445312 L 68.683594 37.457031 C 68.527344 37.59375 68.347656 37.65625 68.144531 37.640625 C 67.9375 37.628906 67.765625 37.546875 67.628906 37.390625 C 67.492188 37.238281 67.429688 37.058594 67.445312 36.855469 C 67.457031 36.648438 67.539062 36.476562 67.695312 36.34375 C 67.71875 36.320312 67.742188 36.300781 67.769531 36.285156 C 68.078125 36.070312 68.398438 35.878906 68.730469 35.703125 C 68.894531 35.613281 69.0625 35.542969 69.226562 35.464844 C 69.394531 35.390625 69.566406 35.320312 69.742188 35.261719 C 70.425781 35.007812 71.128906 34.839844 71.851562 34.75 C 72.558594 34.660156 73.265625 34.636719 73.976562 34.679688 C 74.324219 34.699219 74.675781 34.738281 75.023438 34.785156 C 75.195312 34.8125 75.371094 34.84375 75.539062 34.875 C 75.710938 34.910156 75.878906 34.945312 76.058594 34.996094 C 76.203125 35.03125 76.253906 35.121094 76.214844 35.265625 C 76.179688 35.386719 76.101562 35.441406 75.972656 35.425781 Z M 75.953125 35.414062 " fill-opacity="1" fill-rule="nonzero"/><path fill="#6b0b2a" d="M 71.371094 73.921875 C 71.054688 73.574219 70.722656 73.246094 70.375 72.933594 C 70.023438 72.625 69.660156 72.332031 69.28125 72.058594 C 68.902344 71.785156 68.507812 71.53125 68.101562 71.296875 C 67.695312 71.066406 67.277344 70.851562 66.847656 70.664062 C 66.417969 70.476562 65.980469 70.308594 65.535156 70.164062 C 65.089844 70.019531 64.636719 69.898438 64.179688 69.804688 C 63.71875 69.707031 63.257812 69.632812 62.789062 69.585938 C 62.324219 69.535156 61.855469 69.511719 61.386719 69.511719 C 60.917969 69.511719 60.453125 69.535156 59.984375 69.585938 C 59.519531 69.632812 59.054688 69.707031 58.597656 69.804688 C 58.136719 69.898438 57.6875 70.019531 57.238281 70.164062 C 56.792969 70.308594 56.355469 70.476562 55.925781 70.664062 C 55.5 70.851562 55.082031 71.066406 54.675781 71.296875 C 54.269531 71.53125 53.875 71.785156 53.496094 72.058594 C 53.113281 72.332031 52.75 72.625 52.402344 72.933594 C 52.050781 73.246094 51.71875 73.574219 51.40625 73.921875 C 49.007812 69.773438 49.941406 64.320312 49.941406 64.320312 L 72.832031 64.320312 C 72.832031 64.320312 73.769531 69.773438 71.371094 73.921875 Z M 71.371094 73.921875 " fill-opacity="1" fill-rule="nonzero"/><path fill="#18134b" d="M 51.40625 74.664062 L 51.328125 74.664062 C 51.074219 74.636719 50.886719 74.515625 50.761719 74.296875 C 48.261719 69.96875 49.167969 64.433594 49.207031 64.199219 C 49.238281 64.019531 49.324219 63.871094 49.460938 63.753906 C 49.601562 63.636719 49.761719 63.578125 49.945312 63.582031 L 72.835938 63.582031 C 73.019531 63.582031 73.179688 63.636719 73.316406 63.753906 C 73.457031 63.871094 73.539062 64.019531 73.570312 64.199219 C 73.609375 64.4375 74.519531 69.96875 72.019531 74.296875 C 71.960938 74.398438 71.878906 74.484375 71.78125 74.550781 C 71.679688 74.613281 71.570312 74.652344 71.453125 74.667969 C 71.332031 74.679688 71.21875 74.664062 71.105469 74.621094 C 70.996094 74.578125 70.898438 74.515625 70.820312 74.425781 C 70.523438 74.097656 70.207031 73.789062 69.878906 73.492188 C 69.546875 73.199219 69.203125 72.921875 68.84375 72.664062 C 68.488281 72.402344 68.113281 72.164062 67.730469 71.945312 C 67.347656 71.722656 66.953125 71.523438 66.546875 71.34375 C 66.140625 71.164062 65.730469 71.007812 65.308594 70.871094 C 64.886719 70.734375 64.457031 70.621094 64.023438 70.53125 C 63.589844 70.4375 63.15625 70.371094 62.714844 70.324219 C 62.273438 70.277344 61.832031 70.253906 61.386719 70.253906 C 60.945312 70.253906 60.503906 70.277344 60.0625 70.324219 C 59.621094 70.371094 59.183594 70.4375 58.75 70.53125 C 58.316406 70.621094 57.890625 70.734375 57.46875 70.871094 C 57.046875 71.007812 56.632812 71.164062 56.226562 71.34375 C 55.824219 71.523438 55.429688 71.722656 55.046875 71.945312 C 54.660156 72.164062 54.289062 72.402344 53.929688 72.664062 C 53.570312 72.921875 53.226562 73.199219 52.898438 73.492188 C 52.566406 73.789062 52.253906 74.097656 51.957031 74.425781 C 51.808594 74.585938 51.625 74.664062 51.40625 74.664062 Z M 50.601562 65.054688 C 50.46875 66.414062 50.3125 69.757812 51.601562 72.660156 C 52.257812 72.042969 52.964844 71.488281 53.722656 71.003906 C 54.484375 70.519531 55.28125 70.109375 56.121094 69.777344 C 56.957031 69.441406 57.820312 69.191406 58.707031 69.023438 C 59.59375 68.851562 60.488281 68.765625 61.390625 68.765625 C 62.292969 68.765625 63.1875 68.851562 64.074219 69.023438 C 64.960938 69.191406 65.824219 69.441406 66.660156 69.777344 C 67.5 70.109375 68.296875 70.519531 69.058594 71.003906 C 69.816406 71.488281 70.523438 72.042969 71.179688 72.660156 C 72.46875 69.757812 72.3125 66.414062 72.179688 65.054688 Z M 50.601562 65.054688 " fill-opacity="1" fill-rule="nonzero"/><path fill="#6b0b2a" d="M 71.371094 73.921875 C 71.207031 74.207031 71.027344 74.484375 70.832031 74.75 C 70.210938 74.140625 69.53125 73.59375 68.800781 73.113281 C 68.070312 72.632812 67.300781 72.226562 66.492188 71.898438 C 65.683594 71.566406 64.847656 71.316406 63.988281 71.148438 C 63.128906 70.980469 62.261719 70.898438 61.386719 70.898438 C 60.511719 70.898438 59.644531 70.980469 58.785156 71.148438 C 57.929688 71.316406 57.09375 71.566406 56.285156 71.898438 C 55.472656 72.226562 54.703125 72.632812 53.972656 73.113281 C 53.242188 73.59375 52.566406 74.140625 51.941406 74.75 C 51.75 74.484375 51.570312 74.207031 51.40625 73.921875 C 51.71875 73.574219 52.050781 73.246094 52.402344 72.933594 C 52.75 72.625 53.113281 72.332031 53.496094 72.058594 C 53.875 71.785156 54.269531 71.53125 54.675781 71.296875 C 55.082031 71.066406 55.5 70.851562 55.925781 70.664062 C 56.355469 70.476562 56.792969 70.308594 57.238281 70.164062 C 57.6875 70.019531 58.136719 69.898438 58.597656 69.804688 C 59.054688 69.707031 59.519531 69.632812 59.984375 69.585938 C 60.453125 69.535156 60.917969 69.511719 61.386719 69.511719 C 61.855469 69.511719 62.324219 69.535156 62.789062 69.585938 C 63.257812 69.632812 63.71875 69.707031 64.179688 69.804688 C 64.636719 69.898438 65.089844 70.019531 65.535156 70.164062 C 65.980469 70.308594 66.417969 70.476562 66.847656 70.664062 C 67.277344 70.851562 67.695312 71.066406 68.101562 71.296875 C 68.507812 71.53125 68.902344 71.785156 69.28125 72.058594 C 69.660156 72.332031 70.023438 72.625 70.375 72.933594 C 70.722656 73.246094 71.054688 73.574219 71.371094 73.921875 Z M 71.371094 73.921875 " fill-opacity="1" fill-rule="nonzero"/><path fill="#ffe093" d="M 71.371094 75.308594 C 69.820312 77.996094 66.878906 80.128906 61.390625 79.882812 C 55.898438 80.121094 52.953125 77.996094 51.40625 75.308594 C 51.578125 75.117188 51.757812 74.933594 51.941406 74.75 C 53.605469 77.03125 56.476562 78.71875 61.390625 78.492188 C 66.300781 78.71875 69.171875 77.03125 70.832031 74.75 C 71.019531 74.933594 71.199219 75.117188 71.371094 75.308594 Z M 71.371094 75.308594 " fill-opacity="1" fill-rule="nonzero"/><path fill="#eb155a" d="M 70.835938 74.75 C 69.175781 77.03125 66.300781 78.71875 61.390625 78.492188 C 56.480469 78.71875 53.605469 77.03125 51.945312 74.75 C 52.570312 74.140625 53.246094 73.59375 53.976562 73.113281 C 54.707031 72.632812 55.476562 72.226562 56.285156 71.898438 C 57.097656 71.566406 57.929688 71.316406 58.789062 71.148438 C 59.648438 70.980469 60.515625 70.898438 61.390625 70.898438 C 62.265625 70.898438 63.132812 70.980469 63.992188 71.148438 C 64.851562 71.316406 65.683594 71.566406 66.492188 71.898438 C 67.304688 72.226562 68.074219 72.632812 68.804688 73.113281 C 69.535156 73.59375 70.210938 74.140625 70.835938 74.75 Z M 70.835938 74.75 " fill-opacity="1" fill-rule="nonzero"/><path fill="#ffe093" d="M 48.453125 57.40625 C 48.453125 57.632812 48.367188 57.847656 48.195312 58.058594 C 48.019531 58.265625 47.773438 58.449219 47.453125 58.609375 C 47.128906 58.769531 46.757812 58.894531 46.339844 58.980469 C 45.921875 59.066406 45.484375 59.109375 45.027344 59.109375 C 44.574219 59.109375 44.136719 59.066406 43.71875 58.980469 C 43.296875 58.894531 42.929688 58.769531 42.605469 58.609375 C 42.285156 58.449219 42.039062 58.265625 41.863281 58.058594 C 41.691406 57.847656 41.605469 57.632812 41.605469 57.40625 C 41.605469 57.179688 41.691406 56.960938 41.863281 56.753906 C 42.039062 56.542969 42.285156 56.359375 42.605469 56.199219 C 42.929688 56.039062 43.296875 55.914062 43.71875 55.828125 C 44.136719 55.742188 44.574219 55.699219 45.027344 55.699219 C 45.484375 55.699219 45.921875 55.742188 46.339844 55.828125 C 46.757812 55.914062 47.128906 56.039062 47.453125 56.199219 C 47.773438 56.359375 48.019531 56.542969 48.195312 56.753906 C 48.367188 56.960938 48.453125 57.179688 48.453125 57.40625 Z M 48.453125 57.40625 " fill-opacity="1" fill-rule="nonzero"/><path fill="#ffe093" d="M 81.871094 57.933594 C 81.871094 58.160156 81.785156 58.375 81.613281 58.585938 C 81.4375 58.792969 81.191406 58.980469 80.871094 59.140625 C 80.546875 59.300781 80.175781 59.421875 79.757812 59.507812 C 79.339844 59.59375 78.902344 59.636719 78.445312 59.636719 C 77.992188 59.636719 77.554688 59.59375 77.136719 59.507812 C 76.714844 59.421875 76.347656 59.300781 76.023438 59.140625 C 75.703125 58.980469 75.457031 58.792969 75.28125 58.585938 C 75.109375 58.375 75.023438 58.160156 75.023438 57.933594 C 75.023438 57.707031 75.109375 57.488281 75.28125 57.28125 C 75.457031 57.070312 75.703125 56.886719 76.023438 56.726562 C 76.347656 56.566406 76.714844 56.445312 77.136719 56.355469 C 77.554688 56.269531 77.992188 56.226562 78.445312 56.226562 C 78.902344 56.226562 79.339844 56.269531 79.757812 56.355469 C 80.175781 56.445312 80.546875 56.566406 80.871094 56.726562 C 81.191406 56.886719 81.4375 57.070312 81.613281 57.28125 C 81.785156 57.488281 81.871094 57.707031 81.871094 57.933594 Z M 81.871094 57.933594 " fill-opacity="1" fill-rule="nonzero"/><path fill="#e6e7e8" d="M 74.261719 44.644531 C 74.261719 44.8125 74.230469 44.96875 74.167969 45.121094 C 74.101562 45.273438 74.011719 45.40625 73.894531 45.523438 C 73.777344 45.640625 73.644531 45.730469 73.492188 45.792969 C 73.339844 45.855469 73.179688 45.886719 73.015625 45.886719 C 72.847656 45.886719 72.6875 45.855469 72.535156 45.792969 C 72.382812 45.730469 72.25 45.640625 72.132812 45.523438 C 72.015625 45.40625 71.925781 45.273438 71.863281 45.121094 C 71.796875 44.96875 71.765625 44.8125 71.765625 44.644531 C 71.765625 44.480469 71.796875 44.324219 71.863281 44.171875 C 71.925781 44.019531 72.015625 43.882812 72.132812 43.769531 C 72.25 43.652344 72.382812 43.5625 72.535156 43.5 C 72.6875 43.433594 72.847656 43.402344 73.015625 43.402344 C 73.179688 43.402344 73.339844 43.433594 73.492188 43.5 C 73.644531 43.5625 73.777344 43.652344 73.894531 43.769531 C 74.011719 43.882812 74.101562 44.019531 74.167969 44.171875 C 74.230469 44.324219 74.261719 44.480469 74.261719 44.644531 Z M 74.261719 44.644531 " fill-opacity="1" fill-rule="nonzero"/><path fill="#e6e7e8" d="M 54.832031 44.605469 C 54.832031 44.765625 54.800781 44.917969 54.742188 45.066406 C 54.679688 45.210938 54.59375 45.34375 54.480469 45.453125 C 54.367188 45.566406 54.234375 45.65625 54.089844 45.714844 C 53.941406 45.777344 53.785156 45.808594 53.625 45.808594 C 53.464844 45.808594 53.3125 45.777344 53.164062 45.714844 C 53.015625 45.65625 52.886719 45.566406 52.773438 45.453125 C 52.660156 45.34375 52.574219 45.210938 52.511719 45.066406 C 52.449219 44.917969 52.417969 44.765625 52.417969 44.605469 C 52.417969 44.445312 52.449219 44.292969 52.511719 44.144531 C 52.574219 44 52.660156 43.867188 52.773438 43.753906 C 52.886719 43.644531 53.015625 43.554688 53.164062 43.496094 C 53.3125 43.433594 53.464844 43.402344 53.625 43.402344 C 53.785156 43.402344 53.941406 43.433594 54.089844 43.496094 C 54.234375 43.554688 54.367188 43.644531 54.480469 43.753906 C 54.59375 43.867188 54.679688 44 54.742188 44.144531 C 54.800781 44.292969 54.832031 44.445312 54.832031 44.605469 Z M 54.832031 44.605469 " fill-opacity="1" fill-rule="nonzero"/><path fill="#ffe093" d="M 34.40625 54.613281 L 34.40625 78.5 C 34.40625 78.5 35.203125 90.953125 48.820312 93.722656 C 38.144531 91.421875 33.113281 87.546875 31.761719 78.851562 C 31.761719 68.175781 31.96875 54.550781 31.96875 54.550781 Z M 34.40625 54.613281 " fill-opacity="1" fill-rule="nonzero"/><path fill="#ffe093" d="M 55.609375 91.585938 C 55.609375 91.835938 55.558594 92.074219 55.464844 92.304688 C 55.367188 92.535156 55.234375 92.738281 55.054688 92.914062 C 54.878906 93.089844 54.675781 93.226562 54.445312 93.320312 C 54.214844 93.417969 53.972656 93.464844 53.722656 93.464844 C 53.472656 93.464844 53.230469 93.417969 53 93.320312 C 52.769531 93.226562 52.566406 93.089844 52.390625 92.914062 C 52.210938 92.738281 52.078125 92.535156 51.980469 92.304688 C 51.886719 92.074219 51.835938 91.835938 51.835938 91.585938 C 51.835938 91.339844 51.886719 91.097656 51.980469 90.867188 C 52.078125 90.640625 52.210938 90.4375 52.390625 90.261719 C 52.566406 90.082031 52.769531 89.949219 53 89.851562 C 53.230469 89.757812 53.472656 89.710938 53.722656 89.710938 C 53.972656 89.710938 54.214844 89.757812 54.445312 89.851562 C 54.675781 89.949219 54.878906 90.082031 55.054688 90.261719 C 55.234375 90.4375 55.367188 90.640625 55.464844 90.867188 C 55.558594 91.097656 55.609375 91.339844 55.609375 91.585938 Z M 55.609375 91.585938 " fill-opacity="1" fill-rule="nonzero"/><path fill="#ffe093" d="M 67.582031 91.585938 C 67.582031 91.835938 67.53125 92.074219 67.4375 92.304688 C 67.339844 92.535156 67.203125 92.738281 67.027344 92.914062 C 66.851562 93.089844 66.648438 93.226562 66.417969 93.320312 C 66.183594 93.417969 65.945312 93.464844 65.695312 93.464844 C 65.445312 93.464844 65.203125 93.417969 64.972656 93.320312 C 64.742188 93.226562 64.539062 93.089844 64.363281 92.914062 C 64.183594 92.738281 64.046875 92.535156 63.953125 92.304688 C 63.855469 92.074219 63.808594 91.835938 63.808594 91.585938 C 63.808594 91.339844 63.855469 91.097656 63.953125 90.867188 C 64.046875 90.640625 64.183594 90.4375 64.363281 90.261719 C 64.539062 90.082031 64.742188 89.949219 64.972656 89.851562 C 65.203125 89.757812 65.445312 89.710938 65.695312 89.710938 C 65.945312 89.710938 66.183594 89.757812 66.417969 89.851562 C 66.648438 89.949219 66.851562 90.082031 67.027344 90.261719 C 67.203125 90.4375 67.339844 90.640625 67.4375 90.867188 C 67.53125 91.097656 67.582031 91.339844 67.582031 91.585938 Z M 67.582031 91.585938 " fill-opacity="1" fill-rule="nonzero"/><path fill="#ffe093" d="M 39.230469 86.621094 C 39.230469 86.871094 39.183594 87.109375 39.085938 87.339844 C 38.992188 87.570312 38.855469 87.773438 38.679688 87.949219 C 38.503906 88.125 38.296875 88.261719 38.066406 88.355469 C 37.835938 88.449219 37.597656 88.5 37.34375 88.5 C 37.09375 88.5 36.855469 88.449219 36.625 88.355469 C 36.394531 88.261719 36.1875 88.125 36.011719 87.949219 C 35.835938 87.773438 35.699219 87.570312 35.605469 87.339844 C 35.507812 87.109375 35.460938 86.871094 35.460938 86.621094 C 35.460938 86.371094 35.507812 86.132812 35.605469 85.902344 C 35.699219 85.671875 35.835938 85.46875 36.011719 85.292969 C 36.1875 85.117188 36.394531 84.980469 36.625 84.886719 C 36.855469 84.792969 37.09375 84.742188 37.34375 84.742188 C 37.597656 84.742188 37.835938 84.792969 38.066406 84.886719 C 38.296875 84.980469 38.503906 85.117188 38.679688 85.292969 C 38.855469 85.46875 38.992188 85.671875 39.085938 85.902344 C 39.183594 86.132812 39.230469 86.371094 39.230469 86.621094 Z M 39.230469 86.621094 " fill-opacity="1" fill-rule="nonzero"/><path fill="#ffe093" d="M 41.382812 90.203125 C 41.382812 90.398438 41.34375 90.585938 41.269531 90.769531 C 41.195312 90.949219 41.085938 91.109375 40.949219 91.246094 C 40.808594 91.386719 40.648438 91.492188 40.464844 91.566406 C 40.285156 91.644531 40.09375 91.679688 39.898438 91.679688 C 39.699219 91.679688 39.511719 91.644531 39.328125 91.566406 C 39.148438 91.492188 38.988281 91.386719 38.847656 91.246094 C 38.707031 91.109375 38.601562 90.949219 38.527344 90.769531 C 38.449219 90.585938 38.414062 90.398438 38.414062 90.203125 C 38.414062 90.007812 38.449219 89.816406 38.527344 89.636719 C 38.601562 89.453125 38.707031 89.296875 38.847656 89.15625 C 38.988281 89.019531 39.148438 88.910156 39.328125 88.835938 C 39.511719 88.761719 39.699219 88.722656 39.898438 88.722656 C 40.09375 88.722656 40.285156 88.761719 40.464844 88.835938 C 40.648438 88.910156 40.808594 89.019531 40.949219 89.15625 C 41.085938 89.296875 41.195312 89.453125 41.269531 89.636719 C 41.34375 89.816406 41.382812 90.007812 41.382812 90.203125 Z M 41.382812 90.203125 " fill-opacity="1" fill-rule="nonzero"/><path fill="#ffe093" d="M 37.585938 65.046875 C 37.585938 65.429688 37.511719 65.800781 37.363281 66.15625 C 37.214844 66.507812 37.007812 66.824219 36.734375 67.09375 C 36.460938 67.367188 36.148438 67.574219 35.789062 67.722656 C 35.433594 67.867188 35.0625 67.941406 34.679688 67.941406 C 34.292969 67.941406 33.921875 67.867188 33.566406 67.722656 C 33.210938 67.574219 32.894531 67.367188 32.621094 67.09375 C 32.351562 66.824219 32.140625 66.507812 31.992188 66.15625 C 31.84375 65.800781 31.769531 65.429688 31.769531 65.046875 C 31.769531 64.664062 31.84375 64.292969 31.992188 63.9375 C 32.140625 63.585938 32.351562 63.269531 32.621094 63 C 32.894531 62.726562 33.210938 62.519531 33.566406 62.371094 C 33.921875 62.226562 34.292969 62.152344 34.679688 62.152344 C 35.0625 62.152344 35.433594 62.226562 35.789062 62.371094 C 36.148438 62.519531 36.460938 62.726562 36.734375 63 C 37.007812 63.269531 37.214844 63.585938 37.363281 63.9375 C 37.511719 64.292969 37.585938 64.664062 37.585938 65.046875 Z M 37.585938 65.046875 " fill-opacity="1" fill-rule="nonzero"/><path fill="#ffe093" d="M 82.898438 68.402344 C 82.898438 68.648438 82.847656 68.890625 82.753906 69.121094 C 82.65625 69.351562 82.523438 69.550781 82.34375 69.730469 C 82.167969 69.90625 81.964844 70.039062 81.734375 70.136719 C 81.503906 70.230469 81.261719 70.277344 81.011719 70.277344 C 80.761719 70.277344 80.519531 70.230469 80.289062 70.136719 C 80.058594 70.039062 79.855469 69.90625 79.679688 69.730469 C 79.5 69.550781 79.363281 69.351562 79.269531 69.121094 C 79.175781 68.890625 79.125 68.648438 79.125 68.402344 C 79.125 68.152344 79.175781 67.914062 79.269531 67.683594 C 79.363281 67.453125 79.5 67.25 79.679688 67.074219 C 79.855469 66.898438 80.058594 66.761719 80.289062 66.667969 C 80.519531 66.570312 80.761719 66.523438 81.011719 66.523438 C 81.261719 66.523438 81.503906 66.570312 81.734375 66.667969 C 81.964844 66.761719 82.167969 66.898438 82.34375 67.074219 C 82.523438 67.25 82.65625 67.453125 82.753906 67.683594 C 82.847656 67.914062 82.898438 68.152344 82.898438 68.402344 Z M 82.898438 68.402344 " fill-opacity="1" fill-rule="nonzero"/><path fill="#ffe093" d="M 67.488281 88.683594 C 67.488281 88.8125 67.445312 88.921875 67.351562 89.015625 C 67.261719 89.105469 67.152344 89.152344 67.023438 89.152344 C 66.890625 89.152344 66.78125 89.105469 66.691406 89.015625 C 66.597656 88.921875 66.554688 88.8125 66.554688 88.683594 C 66.554688 88.554688 66.597656 88.445312 66.691406 88.355469 C 66.78125 88.265625 66.890625 88.21875 67.023438 88.21875 C 67.152344 88.21875 67.261719 88.265625 67.351562 88.355469 C 67.445312 88.445312 67.488281 88.554688 67.488281 88.683594 Z M 67.488281 88.683594 " fill-opacity="1" fill-rule="nonzero"/><path fill="#ffe093" d="M 69.378906 87.253906 C 69.378906 87.515625 69.289062 87.734375 69.101562 87.917969 C 68.917969 88.101562 68.695312 88.195312 68.433594 88.195312 C 68.171875 88.195312 67.949219 88.101562 67.765625 87.917969 C 67.582031 87.734375 67.488281 87.515625 67.488281 87.253906 C 67.488281 86.996094 67.582031 86.773438 67.765625 86.589844 C 67.949219 86.40625 68.171875 86.3125 68.433594 86.3125 C 68.695312 86.3125 68.917969 86.40625 69.101562 86.589844 C 69.289062 86.773438 69.378906 86.996094 69.378906 87.253906 Z M 69.378906 87.253906 " fill-opacity="1" fill-rule="nonzero"/><path fill="#ffe093" d="M 71.683594 85.050781 C 71.683594 85.21875 71.648438 85.378906 71.585938 85.535156 C 71.523438 85.6875 71.429688 85.824219 71.3125 85.941406 C 71.195312 86.058594 71.058594 86.152344 70.902344 86.214844 C 70.746094 86.277344 70.585938 86.308594 70.417969 86.308594 C 70.25 86.308594 70.089844 86.277344 69.933594 86.214844 C 69.78125 86.152344 69.644531 86.058594 69.523438 85.941406 C 69.40625 85.824219 69.316406 85.6875 69.25 85.535156 C 69.1875 85.378906 69.152344 85.21875 69.152344 85.050781 C 69.152344 84.882812 69.1875 84.722656 69.25 84.570312 C 69.316406 84.414062 69.40625 84.28125 69.523438 84.160156 C 69.644531 84.042969 69.78125 83.953125 69.933594 83.886719 C 70.089844 83.824219 70.25 83.792969 70.417969 83.792969 C 70.585938 83.792969 70.746094 83.824219 70.902344 83.886719 C 71.058594 83.953125 71.195312 84.042969 71.3125 84.160156 C 71.429688 84.28125 71.523438 84.414062 71.585938 84.570312 C 71.648438 84.722656 71.683594 84.882812 71.683594 85.050781 Z M 71.683594 85.050781 " fill-opacity="1" fill-rule="nonzero"/><path fill="#ffe093" d="M 77.941406 78.039062 C 77.941406 78.257812 77.898438 78.46875 77.816406 78.667969 C 77.730469 78.871094 77.613281 79.046875 77.457031 79.199219 C 77.304688 79.355469 77.125 79.472656 76.921875 79.554688 C 76.722656 79.640625 76.511719 79.679688 76.292969 79.679688 C 76.074219 79.679688 75.863281 79.640625 75.664062 79.554688 C 75.460938 79.472656 75.28125 79.355469 75.128906 79.199219 C 74.972656 79.046875 74.855469 78.871094 74.769531 78.667969 C 74.6875 78.46875 74.644531 78.257812 74.644531 78.039062 C 74.644531 77.824219 74.6875 77.613281 74.769531 77.414062 C 74.855469 77.210938 74.972656 77.035156 75.128906 76.878906 C 75.28125 76.726562 75.460938 76.605469 75.664062 76.523438 C 75.863281 76.441406 76.074219 76.398438 76.292969 76.398438 C 76.511719 76.398438 76.722656 76.441406 76.921875 76.523438 C 77.125 76.605469 77.304688 76.726562 77.457031 76.878906 C 77.613281 77.035156 77.730469 77.210938 77.816406 77.414062 C 77.898438 77.613281 77.941406 77.824219 77.941406 78.039062 Z M 77.941406 78.039062 " fill-opacity="1" fill-rule="nonzero"/><path fill="#ffe093" d="M 78.316406 74.058594 C 78.316406 74.230469 78.253906 74.378906 78.132812 74.496094 C 78.011719 74.617188 77.867188 74.679688 77.695312 74.679688 C 77.523438 74.679688 77.375 74.617188 77.253906 74.496094 C 77.132812 74.378906 77.074219 74.230469 77.074219 74.058594 C 77.074219 73.890625 77.132812 73.742188 77.253906 73.621094 C 77.375 73.503906 77.523438 73.441406 77.695312 73.441406 C 77.867188 73.441406 78.011719 73.503906 78.132812 73.621094 C 78.253906 73.742188 78.316406 73.890625 78.316406 74.058594 Z M 78.316406 74.058594 " fill-opacity="1" fill-rule="nonzero"/><path fill="#ffe093" d="M 78.9375 70.589844 C 78.9375 70.675781 78.910156 70.75 78.847656 70.808594 C 78.785156 70.871094 78.714844 70.898438 78.628906 70.898438 C 78.539062 70.898438 78.46875 70.871094 78.40625 70.808594 C 78.34375 70.75 78.316406 70.675781 78.316406 70.589844 C 78.316406 70.503906 78.34375 70.429688 78.40625 70.371094 C 78.46875 70.308594 78.539062 70.277344 78.628906 70.277344 C 78.714844 70.277344 78.785156 70.308594 78.847656 70.371094 C 78.910156 70.429688 78.9375 70.503906 78.9375 70.589844 Z M 78.9375 70.589844 " fill-opacity="1" fill-rule="nonzero"/><path fill="#f1f1f2" d="M 75.207031 28.777344 C 74.390625 26.390625 72.253906 25.488281 70.304688 25.195312 L 69.761719 25.195312 C 70.460938 24.292969 71.371094 22.46875 69.632812 20.367188 C 70.589844 23.539062 67.257812 25.195312 67.257812 25.195312 L 50.792969 25.195312 C 50.792969 25.195312 49.625 22.675781 45.757812 22.78125 C 47.949219 23.5 48.679688 24.472656 48.875 25.234375 C 44.984375 26.03125 43.480469 28.238281 42.847656 30.726562 C 42.703125 31.316406 42.597656 31.914062 42.53125 32.519531 C 42.113281 34.191406 41.199219 36.5 39.273438 36.796875 C 40.742188 36.582031 41.742188 35.496094 42.375 34.449219 C 42.351562 34.953125 42.328125 35.453125 42.300781 35.929688 C 42.039062 40.320312 41.070312 40.574219 37.464844 40.039062 C 37.394531 40.035156 37.335938 40.050781 37.28125 40.097656 C 37.230469 40.140625 37.203125 40.195312 37.199219 40.265625 C 37.199219 40.320312 37.199219 40.382812 37.199219 40.4375 C 37.199219 40.714844 37.199219 41 37.175781 41.285156 C 37.175781 41.390625 37.175781 41.503906 37.175781 41.613281 C 37.175781 41.835938 37.152344 42.058594 37.140625 42.285156 C 37.140625 42.382812 37.125 42.484375 37.121094 42.585938 C 37.089844 43.039062 37.050781 43.5 37.011719 43.957031 C 36.992188 44.140625 36.972656 44.332031 36.953125 44.519531 L 36.933594 44.734375 C 36.933594 44.753906 36.933594 44.773438 36.933594 44.792969 L 36.890625 45.1875 C 36.890625 45.21875 36.890625 45.246094 36.890625 45.277344 C 36.8125 45.980469 36.628906 46.652344 36.339844 47.300781 C 36.050781 47.945312 35.671875 48.53125 35.199219 49.058594 C 34.726562 49.585938 34.183594 50.027344 33.570312 50.386719 C 32.957031 50.746094 32.304688 51 31.613281 51.15625 C 31.496094 51.1875 31.433594 51.261719 31.433594 51.382812 L 31.433594 54.394531 C 31.441406 54.542969 31.519531 54.621094 31.671875 54.621094 L 32.683594 54.621094 C 33.097656 54.617188 33.507812 54.578125 33.914062 54.5 C 34.320312 54.421875 34.714844 54.308594 35.101562 54.160156 C 35.488281 54.007812 35.855469 53.828125 36.207031 53.609375 C 36.5625 53.394531 36.890625 53.148438 37.199219 52.871094 C 37.503906 52.59375 37.785156 52.292969 38.035156 51.964844 C 38.289062 51.636719 38.507812 51.289062 38.695312 50.925781 C 38.882812 50.558594 39.035156 50.175781 39.15625 49.78125 C 39.273438 49.386719 39.355469 48.984375 39.398438 48.574219 C 39.398438 48.542969 39.398438 48.511719 39.398438 48.484375 L 39.441406 48.089844 C 39.441406 48.070312 39.441406 48.050781 39.441406 48.03125 C 39.453125 47.960938 39.460938 47.886719 39.464844 47.816406 C 39.484375 47.628906 39.503906 47.4375 39.519531 47.25 C 39.558594 46.796875 39.597656 46.335938 39.628906 45.878906 C 39.628906 45.78125 39.640625 45.679688 39.648438 45.578125 C 39.660156 45.355469 39.675781 45.132812 39.683594 44.910156 L 39.699219 44.582031 C 39.707031 44.292969 39.714844 44.011719 39.71875 43.734375 C 39.71875 43.679688 39.71875 43.617188 39.71875 43.5625 C 39.722656 43.492188 39.753906 43.4375 39.804688 43.394531 C 39.855469 43.347656 39.917969 43.328125 39.984375 43.335938 C 43.582031 43.871094 44.5625 43.617188 44.820312 39.226562 C 45.058594 35.199219 44.820312 29.769531 51.574219 28.488281 L 72.828125 28.488281 C 73.535156 28.59375 74.222656 28.789062 74.878906 29.070312 C 74.976562 29.113281 75.0625 29.101562 75.140625 29.03125 C 75.21875 28.960938 75.242188 28.878906 75.207031 28.777344 Z M 75.207031 28.777344 " fill-opacity="1" fill-rule="nonzero"/><path fill="#f1f1f2" d="M 75.011719 25.621094 C 75.011719 25.8125 74.976562 25.996094 74.902344 26.171875 C 74.828125 26.351562 74.722656 26.507812 74.585938 26.640625 C 74.453125 26.777344 74.296875 26.878906 74.117188 26.953125 C 73.941406 27.027344 73.753906 27.0625 73.5625 27.0625 C 73.371094 27.0625 73.1875 27.027344 73.007812 26.953125 C 72.832031 26.878906 72.675781 26.777344 72.539062 26.640625 C 72.402344 26.507812 72.296875 26.351562 72.222656 26.171875 C 72.152344 25.996094 72.113281 25.8125 72.113281 25.621094 C 72.113281 25.429688 72.152344 25.246094 72.222656 25.070312 C 72.296875 24.890625 72.402344 24.734375 72.539062 24.601562 C 72.675781 24.464844 72.832031 24.359375 73.007812 24.289062 C 73.1875 24.214844 73.371094 24.179688 73.5625 24.179688 C 73.753906 24.179688 73.941406 24.214844 74.117188 24.289062 C 74.296875 24.359375 74.453125 24.464844 74.585938 24.601562 C 74.722656 24.734375 74.828125 24.890625 74.902344 25.070312 C 74.976562 25.246094 75.011719 25.429688 75.011719 25.621094 Z M 75.011719 25.621094 " fill-opacity="1" fill-rule="nonzero"/><path fill="#f1f1f2" d="M 41.902344 22.230469 C 41.902344 22.492188 41.808594 22.714844 41.621094 22.902344 C 41.433594 23.085938 41.210938 23.179688 40.945312 23.179688 C 40.683594 23.179688 40.457031 23.085938 40.269531 22.902344 C 40.085938 22.714844 39.992188 22.492188 39.992188 22.230469 C 39.992188 21.964844 40.085938 21.742188 40.269531 21.554688 C 40.457031 21.371094 40.683594 21.277344 40.945312 21.277344 C 41.210938 21.277344 41.433594 21.371094 41.621094 21.554688 C 41.808594 21.742188 41.902344 21.964844 41.902344 22.230469 Z M 41.902344 22.230469 " fill-opacity="1" fill-rule="nonzero"/><path fill="#f1f1f2" d="M 40.308594 28.015625 C 40.308594 28.277344 40.214844 28.5 40.027344 28.6875 C 39.84375 28.871094 39.617188 28.964844 39.351562 28.964844 C 39.089844 28.964844 38.863281 28.871094 38.679688 28.6875 C 38.492188 28.5 38.398438 28.277344 38.398438 28.015625 C 38.398438 27.753906 38.492188 27.527344 38.679688 27.34375 C 38.863281 27.15625 39.089844 27.0625 39.351562 27.0625 C 39.617188 27.0625 39.84375 27.15625 40.027344 27.34375 C 40.214844 27.527344 40.308594 27.753906 40.308594 28.015625 Z M 40.308594 28.015625 " fill-opacity="1" fill-rule="nonzero"/><path fill="#f1f1f2" d="M 59.941406 21.867188 C 59.941406 22.03125 59.882812 22.171875 59.769531 22.289062 C 59.652344 22.40625 59.511719 22.460938 59.34375 22.460938 C 59.179688 22.460938 59.039062 22.40625 58.921875 22.289062 C 58.804688 22.171875 58.746094 22.03125 58.746094 21.867188 C 58.746094 21.703125 58.804688 21.5625 58.921875 21.449219 C 59.039062 21.332031 59.179688 21.273438 59.34375 21.273438 C 59.511719 21.273438 59.652344 21.332031 59.769531 21.449219 C 59.882812 21.5625 59.941406 21.703125 59.941406 21.867188 Z M 59.941406 21.867188 " fill-opacity="1" fill-rule="nonzero"/><path fill="#f1f1f2" d="M 56.988281 22.847656 C 56.988281 23.003906 56.933594 23.136719 56.824219 23.246094 C 56.714844 23.355469 56.582031 23.410156 56.425781 23.410156 C 56.269531 23.410156 56.136719 23.355469 56.027344 23.246094 C 55.917969 23.136719 55.863281 23.003906 55.863281 22.847656 C 55.863281 22.691406 55.917969 22.558594 56.027344 22.449219 C 56.136719 22.339844 56.269531 22.285156 56.425781 22.285156 C 56.582031 22.285156 56.714844 22.339844 56.824219 22.449219 C 56.933594 22.558594 56.988281 22.691406 56.988281 22.847656 Z M 56.988281 22.847656 " fill-opacity="1" fill-rule="nonzero"/><path fill="#f1f1f2" d="M 44.949219 22.457031 C 44.949219 22.65625 44.875 22.828125 44.734375 22.96875 C 44.59375 23.109375 44.421875 23.179688 44.222656 23.179688 C 44.023438 23.179688 43.851562 23.109375 43.710938 22.96875 C 43.570312 22.828125 43.5 22.65625 43.5 22.457031 C 43.5 22.257812 43.570312 22.089844 43.710938 21.949219 C 43.851562 21.808594 44.023438 21.738281 44.222656 21.738281 C 44.421875 21.738281 44.59375 21.808594 44.734375 21.949219 C 44.875 22.089844 44.949219 22.257812 44.949219 22.457031 Z M 44.949219 22.457031 " fill-opacity="1" fill-rule="nonzero"/><path fill="#f1f1f2" d="M 76.960938 25.144531 C 76.960938 25.277344 76.914062 25.390625 76.820312 25.484375 C 76.726562 25.578125 76.613281 25.625 76.480469 25.625 C 76.347656 25.625 76.234375 25.578125 76.140625 25.484375 C 76.046875 25.390625 75.996094 25.277344 75.996094 25.144531 C 75.996094 25.011719 76.046875 24.898438 76.140625 24.804688 C 76.234375 24.710938 76.347656 24.664062 76.480469 24.664062 C 76.613281 24.664062 76.726562 24.710938 76.820312 24.804688 C 76.914062 24.898438 76.960938 25.011719 76.960938 25.144531 Z M 76.960938 25.144531 " fill-opacity="1" fill-rule="nonzero"/><g clip-path="url(#924d15d8a5)"><path fill="#18134b" d="M 32.640625 55.355469 L 31.398438 55.355469 C 31.191406 55.355469 31.015625 55.28125 30.871094 55.136719 C 30.726562 54.992188 30.652344 54.816406 30.652344 54.613281 L 30.652344 28.484375 C 30.652344 28.453125 30.652344 28.421875 30.652344 28.390625 C 30.652344 28.21875 30.652344 28.054688 30.652344 27.890625 C 30.648438 25.859375 30.941406 23.875 31.535156 21.933594 C 32.472656 18.898438 34.089844 16.304688 36.207031 14.425781 C 38.414062 12.476562 41.007812 11.449219 43.722656 11.449219 C 44.746094 11.449219 45.75 11.59375 46.730469 11.882812 C 47.796875 9.886719 49.253906 8.238281 51.101562 6.929688 C 51.585938 6.582031 52.09375 6.277344 52.625 6.011719 C 53.15625 5.746094 53.707031 5.523438 54.269531 5.339844 C 54.835938 5.160156 55.414062 5.023438 56.003906 4.933594 C 56.589844 4.839844 57.179688 4.792969 57.773438 4.792969 C 58.371094 4.792969 58.960938 4.839844 59.546875 4.933594 C 60.136719 5.023438 60.714844 5.160156 61.277344 5.339844 C 61.84375 5.523438 62.394531 5.746094 62.925781 6.011719 C 63.457031 6.277344 63.964844 6.582031 64.449219 6.929688 C 66.296875 8.238281 67.753906 9.890625 68.816406 11.886719 C 69.796875 11.589844 70.796875 11.441406 71.820312 11.441406 C 74.359375 11.441406 76.816406 12.375 78.933594 14.136719 C 80.957031 15.828125 82.578125 18.199219 83.617188 21 C 84.480469 23.34375 84.902344 25.769531 84.890625 28.269531 L 84.890625 40.59375 C 84.890625 40.78125 84.828125 40.945312 84.703125 41.085938 C 84.578125 41.226562 84.425781 41.308594 84.238281 41.332031 C 84.132812 41.34375 81.597656 41.640625 79.617188 39.929688 C 78.175781 38.6875 77.402344 36.742188 77.347656 34.15625 C 77.285156 31.375 75.742188 29.703125 72.765625 29.222656 L 51.683594 29.222656 C 49.167969 29.703125 47.515625 30.851562 46.632812 32.714844 C 45.824219 34.417969 45.71875 36.539062 45.625 38.398438 C 45.613281 38.691406 45.597656 38.980469 45.582031 39.265625 C 45.457031 41.332031 45.175781 42.867188 44.1875 43.664062 C 43.308594 44.378906 42.113281 44.367188 40.472656 44.140625 L 40.457031 44.601562 C 40.457031 44.703125 40.457031 44.8125 40.441406 44.921875 L 40.441406 44.933594 C 40.441406 45.175781 40.417969 45.414062 40.40625 45.613281 C 40.40625 45.714844 40.390625 45.816406 40.386719 45.917969 C 40.355469 46.359375 40.320312 46.828125 40.273438 47.308594 C 40.257812 47.5 40.238281 47.6875 40.21875 47.878906 C 40.21875 47.949219 40.207031 48.023438 40.199219 48.097656 C 40.195312 48.109375 40.195312 48.125 40.199219 48.136719 C 40.195312 48.144531 40.195312 48.152344 40.199219 48.164062 L 40.199219 48.269531 C 40.199219 48.367188 40.175781 48.457031 40.167969 48.550781 C 40.164062 48.570312 40.164062 48.585938 40.167969 48.601562 L 40.167969 48.636719 C 40.117188 49.09375 40.027344 49.542969 39.894531 49.984375 C 39.765625 50.429688 39.59375 50.855469 39.382812 51.265625 C 39.171875 51.675781 38.925781 52.0625 38.640625 52.429688 C 38.359375 52.792969 38.046875 53.128906 37.699219 53.4375 C 37.355469 53.746094 36.984375 54.019531 36.589844 54.257812 C 36.195312 54.5 35.78125 54.699219 35.347656 54.863281 C 34.917969 55.027344 34.472656 55.152344 34.015625 55.234375 C 33.5625 55.316406 33.101562 55.355469 32.640625 55.355469 Z M 32.144531 53.871094 L 32.640625 53.871094 C 33.007812 53.871094 33.375 53.839844 33.738281 53.773438 C 34.105469 53.703125 34.457031 53.605469 34.804688 53.472656 C 35.148438 53.34375 35.480469 53.179688 35.796875 52.988281 C 36.113281 52.796875 36.40625 52.578125 36.683594 52.332031 C 36.957031 52.085938 37.207031 51.816406 37.433594 51.523438 C 37.660156 51.230469 37.859375 50.921875 38.027344 50.59375 C 38.195312 50.265625 38.332031 49.925781 38.4375 49.574219 C 38.546875 49.21875 38.617188 48.859375 38.65625 48.496094 C 38.660156 48.476562 38.660156 48.460938 38.65625 48.445312 L 38.65625 48.398438 C 38.65625 48.304688 38.679688 48.210938 38.6875 48.121094 L 38.6875 47.953125 L 38.710938 47.746094 C 38.730469 47.554688 38.75 47.371094 38.765625 47.179688 C 38.808594 46.703125 38.84375 46.257812 38.875 45.828125 C 38.875 45.730469 38.875 45.628906 38.894531 45.53125 C 38.894531 45.335938 38.917969 45.105469 38.925781 44.875 L 38.925781 44.859375 C 38.925781 44.757812 38.925781 44.652344 38.925781 44.554688 C 38.925781 44.269531 38.945312 43.992188 38.949219 43.722656 C 38.949219 43.671875 38.949219 43.621094 38.949219 43.570312 L 38.949219 43.546875 C 38.949219 43.464844 38.949219 43.382812 38.949219 43.308594 C 38.949219 43.199219 38.96875 43.097656 39.015625 43 C 39.0625 42.898438 39.125 42.816406 39.207031 42.746094 C 39.289062 42.675781 39.382812 42.625 39.488281 42.59375 C 39.589844 42.566406 39.695312 42.558594 39.804688 42.574219 C 41.667969 42.855469 42.707031 42.929688 43.203125 42.523438 C 43.699219 42.121094 43.921875 41.121094 44.046875 39.179688 C 44.066406 38.902344 44.078125 38.617188 44.09375 38.328125 C 44.289062 34.410156 44.554688 29.050781 51.429688 27.757812 C 51.476562 27.753906 51.519531 27.753906 51.566406 27.757812 L 72.777344 27.757812 C 72.816406 27.753906 72.855469 27.753906 72.894531 27.757812 C 76.617188 28.335938 78.710938 30.597656 78.789062 34.132812 C 78.835938 36.269531 79.421875 37.84375 80.53125 38.804688 C 81.351562 39.476562 82.292969 39.832031 83.355469 39.871094 L 83.355469 28.507812 C 83.355469 28.496094 83.355469 28.484375 83.355469 28.476562 L 83.355469 28.269531 C 83.367188 25.949219 82.972656 23.703125 82.171875 21.527344 C 80.238281 16.308594 76.152344 12.9375 71.777344 12.9375 C 70.703125 12.9375 69.664062 13.125 68.65625 13.503906 C 68.484375 13.554688 68.3125 13.542969 68.144531 13.472656 C 67.980469 13.402344 67.855469 13.285156 67.773438 13.125 C 65.703125 8.902344 61.871094 6.289062 57.773438 6.289062 C 53.671875 6.289062 49.855469 8.917969 47.773438 13.121094 C 47.6875 13.292969 47.558594 13.414062 47.382812 13.484375 C 47.203125 13.554688 47.027344 13.558594 46.847656 13.492188 C 45.839844 13.125 44.800781 12.941406 43.730469 12.941406 C 38.960938 12.941406 34.734375 16.644531 32.96875 22.375 C 32.417969 24.175781 32.144531 26.019531 32.148438 27.898438 C 32.148438 28.082031 32.148438 28.269531 32.148438 28.472656 C 32.152344 28.515625 32.152344 28.558594 32.148438 28.601562 Z M 32.144531 53.871094 " fill-opacity="1" fill-rule="nonzero"/></g><g clip-path="url(#8945cb35be)"><path fill="#18134b" d="M 66.695312 94.605469 L 48.847656 94.605469 C 47.707031 94.605469 46.578125 94.5 45.460938 94.289062 C 44.339844 94.078125 43.25 93.765625 42.1875 93.347656 C 41.128906 92.933594 40.117188 92.421875 39.152344 91.816406 C 38.1875 91.214844 37.289062 90.523438 36.453125 89.75 C 35.621094 88.976562 34.867188 88.132812 34.191406 87.21875 C 33.515625 86.304688 32.929688 85.335938 32.4375 84.3125 C 31.945312 83.289062 31.554688 82.230469 31.261719 81.132812 C 30.96875 80.035156 30.78125 78.921875 30.699219 77.789062 C 30.667969 77.363281 30.652344 76.921875 30.652344 76.488281 L 30.652344 54.613281 C 30.652344 54.40625 30.726562 54.234375 30.871094 54.089844 C 31.015625 53.941406 31.191406 53.871094 31.398438 53.871094 L 32.640625 53.871094 C 33.007812 53.871094 33.375 53.839844 33.738281 53.769531 C 34.105469 53.703125 34.457031 53.605469 34.804688 53.472656 C 35.148438 53.339844 35.480469 53.179688 35.796875 52.988281 C 36.109375 52.796875 36.40625 52.578125 36.683594 52.332031 C 36.957031 52.085938 37.207031 51.816406 37.433594 51.523438 C 37.660156 51.230469 37.855469 50.921875 38.027344 50.59375 C 38.195312 50.265625 38.332031 49.925781 38.4375 49.574219 C 38.542969 49.21875 38.617188 48.859375 38.65625 48.496094 C 38.660156 48.476562 38.660156 48.460938 38.65625 48.445312 L 38.65625 48.398438 C 38.65625 48.304688 38.679688 48.210938 38.6875 48.121094 L 38.6875 47.953125 L 38.710938 47.746094 C 38.730469 47.558594 38.75 47.375 38.765625 47.191406 C 38.808594 46.710938 38.84375 46.261719 38.875 45.835938 C 38.875 45.738281 38.875 45.636719 38.894531 45.539062 C 38.894531 45.34375 38.917969 45.113281 38.925781 44.882812 L 38.925781 44.867188 C 38.925781 44.761719 38.925781 44.660156 38.925781 44.558594 C 38.925781 44.277344 38.945312 44 38.949219 43.730469 C 38.949219 43.679688 38.949219 43.628906 38.949219 43.574219 L 38.949219 43.554688 C 38.949219 43.46875 38.949219 43.390625 38.949219 43.316406 C 38.949219 43.207031 38.96875 43.105469 39.015625 43.003906 C 39.0625 42.90625 39.125 42.824219 39.207031 42.753906 C 39.289062 42.683594 39.382812 42.632812 39.488281 42.601562 C 39.589844 42.574219 39.695312 42.566406 39.804688 42.582031 C 41.667969 42.863281 42.707031 42.9375 43.203125 42.53125 C 43.699219 42.128906 43.921875 41.128906 44.046875 39.1875 C 44.066406 38.910156 44.078125 38.625 44.09375 38.335938 C 44.289062 34.417969 44.554688 29.054688 51.429688 27.765625 C 51.476562 27.761719 51.519531 27.761719 51.566406 27.765625 L 72.777344 27.765625 C 72.816406 27.761719 72.855469 27.761719 72.894531 27.765625 C 76.617188 28.34375 78.710938 30.605469 78.789062 34.140625 C 78.835938 36.277344 79.421875 37.851562 80.53125 38.808594 C 82.011719 40.089844 83.988281 39.875 84.011719 39.871094 C 84.117188 39.859375 84.21875 39.871094 84.320312 39.902344 C 84.421875 39.933594 84.511719 39.984375 84.59375 40.054688 C 84.671875 40.125 84.734375 40.207031 84.777344 40.304688 C 84.824219 40.402344 84.84375 40.503906 84.84375 40.609375 L 84.84375 76.488281 C 84.84375 77.082031 84.816406 77.671875 84.757812 78.261719 C 84.699219 78.855469 84.609375 79.441406 84.496094 80.023438 C 84.378906 80.605469 84.234375 81.179688 84.0625 81.746094 C 83.886719 82.316406 83.6875 82.871094 83.460938 83.421875 C 83.230469 83.96875 82.976562 84.503906 82.695312 85.027344 C 82.414062 85.550781 82.109375 86.058594 81.777344 86.554688 C 81.445312 87.046875 81.09375 87.523438 80.714844 87.980469 C 80.335938 88.441406 79.9375 88.878906 79.515625 89.300781 C 79.09375 89.71875 78.652344 90.117188 78.191406 90.492188 C 77.730469 90.871094 77.253906 91.222656 76.757812 91.550781 C 76.261719 91.882812 75.75 92.1875 75.226562 92.46875 C 74.699219 92.746094 74.164062 93 73.613281 93.226562 C 73.0625 93.453125 72.5 93.652344 71.929688 93.828125 C 71.359375 94 70.785156 94.144531 70.199219 94.257812 C 69.613281 94.375 69.027344 94.460938 68.433594 94.519531 C 67.839844 94.578125 67.246094 94.605469 66.648438 94.605469 Z M 32.152344 55.355469 L 32.152344 76.488281 C 32.152344 76.890625 32.167969 77.289062 32.195312 77.683594 C 32.273438 78.71875 32.449219 79.742188 32.71875 80.746094 C 32.988281 81.753906 33.351562 82.726562 33.804688 83.664062 C 34.257812 84.601562 34.792969 85.492188 35.414062 86.328125 C 36.03125 87.167969 36.726562 87.941406 37.492188 88.648438 C 38.257812 89.359375 39.082031 89.992188 39.964844 90.546875 C 40.847656 91.101562 41.777344 91.570312 42.75 91.953125 C 43.722656 92.335938 44.722656 92.625 45.75 92.820312 C 46.777344 93.015625 47.8125 93.117188 48.859375 93.117188 L 66.703125 93.117188 C 67.25 93.117188 67.796875 93.089844 68.339844 93.035156 C 68.886719 92.984375 69.425781 92.902344 69.960938 92.796875 C 70.5 92.6875 71.027344 92.558594 71.550781 92.398438 C 72.074219 92.238281 72.589844 92.054688 73.09375 91.847656 C 73.597656 91.640625 74.09375 91.40625 74.574219 91.148438 C 75.058594 90.890625 75.527344 90.613281 75.980469 90.308594 C 76.433594 90.007812 76.875 89.683594 77.296875 89.335938 C 77.71875 88.992188 78.125 88.625 78.511719 88.242188 C 78.898438 87.855469 79.265625 87.453125 79.613281 87.03125 C 79.957031 86.613281 80.285156 86.175781 80.589844 85.722656 C 80.890625 85.269531 81.171875 84.800781 81.429688 84.324219 C 81.6875 83.84375 81.921875 83.351562 82.132812 82.847656 C 82.34375 82.34375 82.527344 81.832031 82.6875 81.3125 C 82.84375 80.789062 82.980469 80.261719 83.085938 79.730469 C 83.191406 79.195312 83.273438 78.65625 83.328125 78.113281 C 83.382812 77.574219 83.410156 77.03125 83.410156 76.484375 L 83.410156 41.351562 C 81.984375 41.308594 80.722656 40.832031 79.625 39.917969 C 78.1875 38.671875 77.410156 36.730469 77.355469 34.144531 C 77.285156 31.375 75.742188 29.703125 72.765625 29.222656 L 51.683594 29.222656 C 49.167969 29.703125 47.515625 30.851562 46.632812 32.714844 C 45.824219 34.417969 45.71875 36.539062 45.625 38.398438 C 45.613281 38.691406 45.597656 38.980469 45.582031 39.265625 C 45.457031 41.332031 45.175781 42.867188 44.1875 43.664062 C 43.308594 44.378906 42.113281 44.367188 40.472656 44.140625 L 40.457031 44.601562 C 40.457031 44.703125 40.457031 44.8125 40.441406 44.921875 L 40.441406 44.933594 C 40.441406 45.175781 40.417969 45.414062 40.40625 45.613281 C 40.40625 45.714844 40.390625 45.816406 40.386719 45.917969 C 40.355469 46.359375 40.320312 46.828125 40.273438 47.308594 C 40.257812 47.5 40.242188 47.6875 40.21875 47.878906 C 40.21875 47.949219 40.207031 48.023438 40.199219 48.097656 C 40.195312 48.109375 40.195312 48.125 40.199219 48.136719 C 40.195312 48.144531 40.195312 48.152344 40.199219 48.164062 L 40.199219 48.269531 C 40.199219 48.367188 40.175781 48.457031 40.167969 48.550781 C 40.164062 48.570312 40.164062 48.585938 40.167969 48.601562 L 40.167969 48.636719 C 40.117188 49.09375 40.027344 49.539062 39.894531 49.980469 C 39.761719 50.421875 39.589844 50.84375 39.378906 51.253906 C 39.171875 51.664062 38.925781 52.046875 38.644531 52.414062 C 38.359375 52.777344 38.046875 53.109375 37.707031 53.417969 C 37.363281 53.726562 36.992188 53.996094 36.601562 54.238281 C 36.207031 54.476562 35.792969 54.679688 35.363281 54.84375 C 34.933594 55.007812 34.492188 55.128906 34.039062 55.214844 C 33.585938 55.296875 33.125 55.339844 32.664062 55.339844 Z M 32.152344 55.355469 " fill-opacity="1" fill-rule="nonzero"/></g><g clip-path="url(#1a61505cb2)"><path fill="#18134b" d="M 31.398438 79.601562 L 20.226562 79.601562 C 15.359375 79.601562 11.398438 74.90625 11.398438 69.128906 L 11.398438 40.824219 C 11.398438 35.242188 15.238281 30.703125 19.933594 30.703125 L 31.359375 30.703125 C 31.566406 30.703125 31.742188 30.773438 31.886719 30.917969 C 32.035156 31.0625 32.105469 31.238281 32.105469 31.441406 L 32.105469 36.785156 C 32.105469 36.992188 32.035156 37.167969 31.886719 37.3125 C 31.742188 37.457031 31.566406 37.53125 31.359375 37.53125 L 24.371094 37.53125 C 20.488281 37.53125 17.328125 41.40625 17.328125 46.164062 L 17.328125 63.789062 C 17.328125 68.742188 20.617188 72.773438 24.664062 72.773438 L 31.359375 72.773438 C 31.566406 72.773438 31.742188 72.847656 31.886719 72.992188 C 32.035156 73.136719 32.105469 73.3125 32.105469 73.519531 L 32.105469 77.609375 C 32.105469 78.015625 32.117188 78.421875 32.144531 78.816406 C 32.15625 79.03125 32.085938 79.214844 31.941406 79.367188 C 31.792969 79.523438 31.613281 79.601562 31.398438 79.601562 Z M 19.933594 32.1875 C 16.050781 32.1875 12.890625 36.058594 12.890625 40.824219 L 12.890625 69.128906 C 12.890625 74.085938 16.179688 78.117188 20.226562 78.117188 L 30.621094 78.117188 C 30.621094 77.949219 30.621094 77.78125 30.621094 77.609375 L 30.621094 74.265625 L 24.664062 74.265625 C 19.796875 74.265625 15.835938 69.570312 15.835938 63.796875 L 15.835938 46.164062 C 15.835938 40.585938 19.675781 36.042969 24.371094 36.042969 L 30.609375 36.042969 L 30.609375 32.1875 Z M 19.933594 32.1875 " fill-opacity="1" fill-rule="nonzero"/></g><path fill="#18134b" d="M 48.878906 34.976562 C 49.058594 34.929688 49.226562 34.894531 49.398438 34.859375 C 49.570312 34.824219 49.742188 34.796875 49.914062 34.769531 C 50.261719 34.71875 50.613281 34.683594 50.964844 34.664062 C 51.675781 34.621094 52.382812 34.644531 53.089844 34.734375 C 53.8125 34.828125 54.515625 34.996094 55.199219 35.25 C 55.371094 35.308594 55.539062 35.382812 55.710938 35.453125 C 55.882812 35.523438 56.046875 35.605469 56.210938 35.691406 C 56.542969 35.867188 56.863281 36.058594 57.167969 36.273438 C 57.339844 36.386719 57.445312 36.546875 57.484375 36.75 C 57.523438 36.949219 57.484375 37.136719 57.367188 37.304688 C 57.25 37.476562 57.09375 37.582031 56.890625 37.617188 C 56.6875 37.65625 56.5 37.617188 56.328125 37.503906 L 56.261719 37.449219 L 56.242188 37.429688 C 56.011719 37.226562 55.773438 37.03125 55.523438 36.851562 C 55.394531 36.761719 55.261719 36.683594 55.128906 36.59375 C 54.996094 36.507812 54.855469 36.433594 54.714844 36.355469 C 54.144531 36.058594 53.542969 35.832031 52.917969 35.671875 C 52.28125 35.507812 51.632812 35.402344 50.976562 35.359375 C 50.644531 35.339844 50.3125 35.328125 49.976562 35.335938 C 49.8125 35.335938 49.644531 35.335938 49.480469 35.359375 C 49.3125 35.378906 49.144531 35.382812 49 35.40625 C 48.855469 35.417969 48.769531 35.355469 48.742188 35.210938 C 48.734375 35.101562 48.78125 35.023438 48.878906 34.976562 Z M 48.878906 34.976562 " fill-opacity="1" fill-rule="nonzero"/><path fill="#18134b" d="M 75.953125 35.414062 C 75.796875 35.390625 75.625 35.378906 75.460938 35.363281 C 75.296875 35.351562 75.128906 35.347656 74.960938 35.34375 C 74.628906 35.34375 74.292969 35.34375 73.964844 35.371094 C 73.304688 35.414062 72.660156 35.519531 72.019531 35.683594 C 71.394531 35.84375 70.796875 36.070312 70.222656 36.367188 C 70.082031 36.4375 69.949219 36.523438 69.8125 36.609375 C 69.675781 36.691406 69.542969 36.773438 69.417969 36.867188 C 69.164062 37.042969 68.925781 37.234375 68.699219 37.445312 L 68.683594 37.457031 C 68.527344 37.59375 68.347656 37.65625 68.144531 37.640625 C 67.9375 37.628906 67.765625 37.546875 67.628906 37.390625 C 67.492188 37.238281 67.429688 37.058594 67.445312 36.855469 C 67.457031 36.648438 67.539062 36.476562 67.695312 36.34375 C 67.71875 36.320312 67.742188 36.300781 67.769531 36.285156 C 68.078125 36.070312 68.398438 35.878906 68.730469 35.703125 C 68.894531 35.613281 69.0625 35.542969 69.226562 35.464844 C 69.394531 35.390625 69.566406 35.320312 69.742188 35.261719 C 70.425781 35.007812 71.128906 34.839844 71.851562 34.75 C 72.558594 34.660156 73.265625 34.636719 73.976562 34.679688 C 74.324219 34.699219 74.675781 34.738281 75.023438 34.785156 C 75.195312 34.8125 75.371094 34.84375 75.539062 34.875 C 75.710938 34.910156 75.878906 34.945312 76.058594 34.996094 C 76.203125 35.03125 76.253906 35.121094 76.214844 35.265625 C 76.179688 35.386719 76.101562 35.441406 75.972656 35.425781 Z M 75.953125 35.414062 " fill-opacity="1" fill-rule="nonzero"/><path fill="#18134b" d="M 51.40625 74.664062 L 51.328125 74.664062 C 51.074219 74.636719 50.886719 74.515625 50.761719 74.296875 C 48.261719 69.96875 49.167969 64.433594 49.207031 64.199219 C 49.238281 64.019531 49.324219 63.871094 49.460938 63.753906 C 49.601562 63.636719 49.761719 63.578125 49.945312 63.582031 L 72.835938 63.582031 C 73.019531 63.582031 73.179688 63.636719 73.316406 63.753906 C 73.457031 63.871094 73.539062 64.019531 73.570312 64.199219 C 73.609375 64.4375 74.519531 69.96875 72.019531 74.296875 C 71.960938 74.398438 71.878906 74.484375 71.78125 74.550781 C 71.679688 74.613281 71.570312 74.652344 71.453125 74.667969 C 71.332031 74.679688 71.21875 74.664062 71.105469 74.621094 C 70.996094 74.578125 70.898438 74.515625 70.820312 74.425781 C 70.523438 74.097656 70.207031 73.789062 69.878906 73.492188 C 69.546875 73.199219 69.203125 72.921875 68.84375 72.664062 C 68.488281 72.402344 68.113281 72.164062 67.730469 71.945312 C 67.347656 71.722656 66.953125 71.523438 66.546875 71.34375 C 66.140625 71.164062 65.730469 71.007812 65.308594 70.871094 C 64.886719 70.734375 64.457031 70.621094 64.023438 70.53125 C 63.589844 70.4375 63.15625 70.371094 62.714844 70.324219 C 62.273438 70.277344 61.832031 70.253906 61.386719 70.253906 C 60.945312 70.253906 60.503906 70.277344 60.0625 70.324219 C 59.621094 70.371094 59.183594 70.4375 58.75 70.53125 C 58.316406 70.621094 57.890625 70.734375 57.46875 70.871094 C 57.046875 71.007812 56.632812 71.164062 56.226562 71.34375 C 55.824219 71.523438 55.429688 71.722656 55.046875 71.945312 C 54.660156 72.164062 54.289062 72.402344 53.929688 72.664062 C 53.570312 72.921875 53.226562 73.199219 52.898438 73.492188 C 52.566406 73.789062 52.253906 74.097656 51.957031 74.425781 C 51.808594 74.585938 51.625 74.664062 51.40625 74.664062 Z M 50.601562 65.054688 C 50.46875 66.414062 50.3125 69.757812 51.601562 72.660156 C 52.257812 72.042969 52.964844 71.488281 53.722656 71.003906 C 54.484375 70.519531 55.28125 70.109375 56.121094 69.777344 C 56.957031 69.441406 57.820312 69.191406 58.707031 69.023438 C 59.59375 68.851562 60.488281 68.765625 61.390625 68.765625 C 62.292969 68.765625 63.1875 68.851562 64.074219 69.023438 C 64.960938 69.191406 65.824219 69.441406 66.660156 69.777344 C 67.5 70.109375 68.296875 70.519531 69.058594 71.003906 C 69.816406 71.488281 70.523438 72.042969 71.179688 72.660156 C 72.46875 69.757812 72.3125 66.414062 72.179688 65.054688 Z M 50.601562 65.054688 " fill-opacity="1" fill-rule="nonzero"/><path fill="#18134b" d="M 62.238281 79.257812 C 61.960938 79.257812 61.675781 79.257812 61.390625 79.238281 C 58.71875 79.355469 56.425781 78.925781 54.578125 77.964844 C 52.9375 77.117188 51.667969 75.894531 50.761719 74.292969 C 50.679688 74.152344 50.648438 74.003906 50.664062 73.84375 C 50.683594 73.683594 50.746094 73.542969 50.851562 73.425781 C 51.1875 73.058594 51.535156 72.710938 51.90625 72.382812 C 52.273438 72.054688 52.65625 71.746094 53.058594 71.457031 C 53.460938 71.167969 53.875 70.898438 54.304688 70.652344 C 54.734375 70.40625 55.171875 70.183594 55.625 69.984375 C 56.078125 69.785156 56.539062 69.609375 57.011719 69.457031 C 57.480469 69.304688 57.960938 69.179688 58.445312 69.078125 C 58.925781 68.972656 59.414062 68.898438 59.910156 68.847656 C 60.402344 68.792969 60.894531 68.769531 61.390625 68.769531 C 61.882812 68.769531 62.378906 68.792969 62.871094 68.847656 C 63.363281 68.898438 63.851562 68.972656 64.335938 69.078125 C 64.820312 69.179688 65.296875 69.304688 65.765625 69.457031 C 66.238281 69.609375 66.699219 69.785156 67.152344 69.984375 C 67.605469 70.183594 68.046875 70.40625 68.472656 70.652344 C 68.902344 70.898438 69.320312 71.167969 69.71875 71.457031 C 70.121094 71.746094 70.503906 72.054688 70.875 72.382812 C 71.242188 72.710938 71.59375 73.058594 71.925781 73.425781 C 72.035156 73.542969 72.097656 73.683594 72.113281 73.84375 C 72.132812 74.003906 72.097656 74.152344 72.019531 74.292969 C 71.109375 75.890625 69.839844 77.109375 68.203125 77.957031 C 66.554688 78.824219 64.550781 79.257812 62.238281 79.257812 Z M 61.390625 77.753906 L 61.425781 77.753906 C 65.636719 77.945312 68.664062 76.6875 70.4375 74.015625 C 69.847656 73.421875 69.203125 72.886719 68.503906 72.417969 C 67.804688 71.949219 67.070312 71.554688 66.292969 71.230469 C 65.515625 70.90625 64.714844 70.664062 63.890625 70.496094 C 63.0625 70.332031 62.230469 70.25 61.390625 70.25 C 60.546875 70.25 59.714844 70.332031 58.886719 70.496094 C 58.0625 70.664062 57.261719 70.90625 56.484375 71.230469 C 55.707031 71.554688 54.972656 71.949219 54.273438 72.417969 C 53.578125 72.886719 52.933594 73.421875 52.339844 74.015625 C 54.117188 76.6875 57.136719 77.941406 61.355469 77.75 Z M 61.390625 77.753906 " fill-opacity="1" fill-rule="nonzero"/><path fill="#ffffff" d="M 47.09375 7.0625 C 47.09375 7.441406 47.019531 7.804688 46.875 8.15625 C 46.726562 8.503906 46.519531 8.8125 46.25 9.082031 C 45.984375 9.351562 45.671875 9.554688 45.320312 9.703125 C 44.96875 9.847656 44.605469 9.917969 44.222656 9.917969 C 43.84375 9.917969 43.476562 9.847656 43.125 9.703125 C 42.773438 9.554688 42.464844 9.351562 42.195312 9.082031 C 41.925781 8.8125 41.71875 8.503906 41.574219 8.15625 C 41.425781 7.804688 41.355469 7.441406 41.355469 7.0625 C 41.355469 6.683594 41.425781 6.320312 41.574219 5.96875 C 41.71875 5.617188 41.925781 5.308594 42.195312 5.042969 C 42.464844 4.773438 42.773438 4.566406 43.125 4.421875 C 43.476562 4.277344 43.84375 4.203125 44.222656 4.203125 C 44.605469 4.203125 44.96875 4.277344 45.320312 4.421875 C 45.671875 4.566406 45.984375 4.773438 46.25 5.042969 C 46.519531 5.308594 46.726562 5.617188 46.875 5.96875 C 47.019531 6.320312 47.09375 6.683594 47.09375 7.0625 Z M 47.09375 7.0625 " fill-opacity="1" fill-rule="nonzero"/><path fill="#18134b" d="M 44.222656 10.660156 C 43.742188 10.660156 43.28125 10.570312 42.839844 10.386719 C 42.394531 10.207031 42.003906 9.945312 41.664062 9.609375 C 41.328125 9.269531 41.066406 8.882812 40.882812 8.441406 C 40.699219 8 40.605469 7.539062 40.605469 7.0625 C 40.605469 6.585938 40.695312 6.125 40.878906 5.683594 C 41.0625 5.246094 41.324219 4.855469 41.664062 4.515625 C 42.003906 4.179688 42.394531 3.917969 42.835938 3.734375 C 43.277344 3.554688 43.742188 3.460938 44.21875 3.460938 C 44.699219 3.460938 45.160156 3.554688 45.605469 3.734375 C 46.046875 3.917969 46.4375 4.179688 46.777344 4.515625 C 47.117188 4.851562 47.378906 5.242188 47.558594 5.683594 C 47.742188 6.125 47.835938 6.585938 47.835938 7.0625 C 47.835938 7.539062 47.742188 7.996094 47.558594 8.4375 C 47.375 8.878906 47.113281 9.269531 46.777344 9.605469 C 46.4375 9.941406 46.046875 10.203125 45.605469 10.386719 C 45.164062 10.570312 44.703125 10.660156 44.222656 10.660156 Z M 44.222656 4.949219 C 43.941406 4.949219 43.671875 5 43.410156 5.109375 C 43.152344 5.214844 42.921875 5.367188 42.722656 5.566406 C 42.523438 5.765625 42.371094 5.992188 42.261719 6.253906 C 42.152344 6.511719 42.101562 6.78125 42.101562 7.0625 C 42.101562 7.34375 42.152344 7.613281 42.261719 7.871094 C 42.371094 8.128906 42.523438 8.359375 42.722656 8.558594 C 42.921875 8.753906 43.152344 8.90625 43.410156 9.015625 C 43.671875 9.121094 43.941406 9.175781 44.222656 9.175781 C 44.503906 9.175781 44.777344 9.121094 45.035156 9.015625 C 45.296875 8.90625 45.523438 8.753906 45.722656 8.558594 C 45.921875 8.359375 46.078125 8.128906 46.183594 7.871094 C 46.292969 7.613281 46.347656 7.34375 46.347656 7.0625 C 46.34375 6.78125 46.292969 6.511719 46.183594 6.253906 C 46.074219 5.996094 45.921875 5.765625 45.722656 5.566406 C 45.523438 5.371094 45.292969 5.21875 45.035156 5.109375 C 44.773438 5.003906 44.503906 4.949219 44.222656 4.949219 Z M 44.222656 4.949219 " fill-opacity="1" fill-rule="nonzero"/><path fill="#ffffff" d="M 73.871094 7.632812 C 73.871094 7.910156 73.816406 8.179688 73.710938 8.433594 C 73.601562 8.691406 73.453125 8.917969 73.253906 9.113281 C 73.058594 9.3125 72.828125 9.460938 72.570312 9.566406 C 72.3125 9.675781 72.046875 9.726562 71.765625 9.726562 C 71.488281 9.726562 71.21875 9.675781 70.960938 9.566406 C 70.703125 9.460938 70.476562 9.3125 70.277344 9.113281 C 70.082031 8.917969 69.929688 8.691406 69.824219 8.433594 C 69.714844 8.179688 69.664062 7.910156 69.664062 7.632812 C 69.664062 7.355469 69.714844 7.085938 69.824219 6.832031 C 69.929688 6.574219 70.082031 6.347656 70.277344 6.152344 C 70.476562 5.953125 70.703125 5.804688 70.960938 5.695312 C 71.21875 5.589844 71.488281 5.539062 71.765625 5.539062 C 72.046875 5.539062 72.3125 5.589844 72.570312 5.695312 C 72.828125 5.804688 73.058594 5.953125 73.253906 6.152344 C 73.453125 6.347656 73.601562 6.574219 73.710938 6.832031 C 73.816406 7.085938 73.871094 7.355469 73.871094 7.632812 Z M 73.871094 7.632812 " fill-opacity="1" fill-rule="nonzero"/><path fill="#18134b" d="M 71.765625 10.46875 C 71.386719 10.46875 71.023438 10.398438 70.675781 10.253906 C 70.328125 10.109375 70.019531 9.90625 69.75 9.640625 C 69.484375 9.375 69.277344 9.066406 69.132812 8.71875 C 68.988281 8.371094 68.917969 8.007812 68.917969 7.632812 C 68.917969 7.257812 68.988281 6.894531 69.132812 6.546875 C 69.277344 6.199219 69.484375 5.890625 69.75 5.625 C 70.019531 5.359375 70.328125 5.15625 70.675781 5.011719 C 71.023438 4.867188 71.386719 4.792969 71.765625 4.792969 C 72.144531 4.792969 72.507812 4.867188 72.855469 5.011719 C 73.207031 5.15625 73.515625 5.359375 73.78125 5.625 C 74.046875 5.890625 74.253906 6.199219 74.398438 6.546875 C 74.542969 6.894531 74.617188 7.257812 74.617188 7.632812 C 74.617188 8.007812 74.542969 8.371094 74.398438 8.71875 C 74.253906 9.066406 74.046875 9.371094 73.78125 9.640625 C 73.515625 9.90625 73.207031 10.109375 72.855469 10.253906 C 72.507812 10.398438 72.144531 10.46875 71.765625 10.46875 Z M 71.765625 6.28125 C 71.585938 6.28125 71.414062 6.316406 71.246094 6.382812 C 71.082031 6.453125 70.933594 6.550781 70.804688 6.675781 C 70.679688 6.804688 70.582031 6.949219 70.511719 7.117188 C 70.441406 7.28125 70.410156 7.453125 70.410156 7.632812 C 70.410156 7.8125 70.441406 7.984375 70.511719 8.148438 C 70.582031 8.316406 70.679688 8.460938 70.804688 8.589844 C 70.933594 8.714844 71.082031 8.8125 71.246094 8.882812 C 71.414062 8.949219 71.585938 8.984375 71.765625 8.984375 C 71.945312 8.984375 72.121094 8.949219 72.285156 8.882812 C 72.453125 8.8125 72.597656 8.714844 72.726562 8.589844 C 72.855469 8.460938 72.953125 8.316406 73.019531 8.148438 C 73.089844 7.984375 73.125 7.8125 73.125 7.632812 C 73.121094 7.453125 73.085938 7.28125 73.015625 7.117188 C 72.949219 6.953125 72.847656 6.808594 72.722656 6.683594 C 72.59375 6.558594 72.449219 6.460938 72.285156 6.394531 C 72.117188 6.324219 71.945312 6.289062 71.765625 6.289062 Z M 71.765625 6.28125 " fill-opacity="1" fill-rule="nonzero"/><path fill="#ffffff" d="M 79.324219 4.203125 C 79.324219 4.421875 79.285156 4.628906 79.199219 4.828125 C 79.117188 5.023438 79 5.199219 78.847656 5.351562 C 78.695312 5.503906 78.519531 5.621094 78.316406 5.707031 C 78.117188 5.789062 77.910156 5.828125 77.695312 5.828125 C 77.476562 5.828125 77.269531 5.789062 77.070312 5.707031 C 76.871094 5.621094 76.695312 5.503906 76.539062 5.351562 C 76.386719 5.199219 76.269531 5.023438 76.1875 4.828125 C 76.105469 4.628906 76.0625 4.421875 76.0625 4.203125 C 76.0625 3.988281 76.105469 3.78125 76.1875 3.582031 C 76.269531 3.382812 76.386719 3.207031 76.539062 3.054688 C 76.695312 2.902344 76.871094 2.785156 77.070312 2.703125 C 77.269531 2.621094 77.476562 2.582031 77.695312 2.582031 C 77.910156 2.582031 78.117188 2.621094 78.316406 2.703125 C 78.519531 2.785156 78.695312 2.902344 78.847656 3.054688 C 79 3.207031 79.117188 3.382812 79.199219 3.582031 C 79.285156 3.78125 79.324219 3.988281 79.324219 4.203125 Z M 79.324219 4.203125 " fill-opacity="1" fill-rule="nonzero"/><path fill="#18134b" d="M 77.695312 6.570312 C 77.378906 6.570312 77.074219 6.511719 76.785156 6.390625 C 76.492188 6.273438 76.234375 6.101562 76.011719 5.878906 C 75.789062 5.65625 75.617188 5.402344 75.496094 5.109375 C 75.378906 4.820312 75.316406 4.519531 75.316406 4.203125 C 75.316406 3.890625 75.378906 3.589844 75.496094 3.296875 C 75.617188 3.007812 75.789062 2.753906 76.011719 2.53125 C 76.234375 2.308594 76.492188 2.136719 76.785156 2.015625 C 77.074219 1.898438 77.378906 1.835938 77.695312 1.835938 C 78.007812 1.835938 78.3125 1.898438 78.605469 2.015625 C 78.894531 2.136719 79.152344 2.308594 79.375 2.53125 C 79.597656 2.753906 79.769531 3.007812 79.890625 3.296875 C 80.011719 3.589844 80.070312 3.890625 80.070312 4.203125 C 80.070312 4.519531 80.011719 4.820312 79.890625 5.109375 C 79.769531 5.398438 79.597656 5.65625 79.375 5.878906 C 79.152344 6.101562 78.894531 6.269531 78.601562 6.390625 C 78.3125 6.511719 78.007812 6.570312 77.695312 6.570312 Z M 77.695312 3.324219 C 77.449219 3.324219 77.238281 3.410156 77.066406 3.582031 C 76.894531 3.753906 76.804688 3.964844 76.804688 4.207031 C 76.804688 4.453125 76.894531 4.660156 77.066406 4.832031 C 77.242188 5.003906 77.449219 5.089844 77.695312 5.089844 C 77.941406 5.089844 78.148438 5.003906 78.324219 4.832031 C 78.496094 4.65625 78.582031 4.449219 78.582031 4.203125 C 78.582031 3.960938 78.492188 3.753906 78.320312 3.582031 C 78.148438 3.410156 77.9375 3.324219 77.695312 3.324219 Z M 77.695312 3.324219 " fill-opacity="1" fill-rule="nonzero"/><path fill="#ffffff" d="M 40.417969 2.757812 C 40.417969 2.980469 40.375 3.199219 40.289062 3.40625 C 40.203125 3.613281 40.078125 3.796875 39.917969 3.957031 C 39.761719 4.117188 39.574219 4.238281 39.367188 4.324219 C 39.160156 4.410156 38.941406 4.453125 38.714844 4.453125 C 38.488281 4.453125 38.273438 4.410156 38.0625 4.324219 C 37.855469 4.238281 37.671875 4.117188 37.511719 3.957031 C 37.351562 3.796875 37.226562 3.613281 37.140625 3.40625 C 37.054688 3.199219 37.011719 2.980469 37.011719 2.757812 C 37.011719 2.53125 37.054688 2.316406 37.140625 2.109375 C 37.226562 1.898438 37.351562 1.714844 37.511719 1.558594 C 37.671875 1.398438 37.855469 1.277344 38.0625 1.191406 C 38.273438 1.105469 38.488281 1.0625 38.714844 1.0625 C 38.941406 1.0625 39.160156 1.105469 39.367188 1.191406 C 39.574219 1.277344 39.761719 1.398438 39.917969 1.558594 C 40.078125 1.714844 40.203125 1.898438 40.289062 2.109375 C 40.375 2.316406 40.417969 2.53125 40.417969 2.757812 Z M 40.417969 2.757812 " fill-opacity="1" fill-rule="nonzero"/><path fill="#18134b" d="M 38.714844 5.195312 C 38.390625 5.195312 38.078125 5.132812 37.777344 5.007812 C 37.476562 4.882812 37.214844 4.707031 36.984375 4.480469 C 36.753906 4.25 36.578125 3.988281 36.453125 3.6875 C 36.328125 3.386719 36.265625 3.078125 36.265625 2.753906 C 36.265625 2.429688 36.328125 2.117188 36.453125 1.820312 C 36.578125 1.519531 36.753906 1.257812 36.984375 1.027344 C 37.214844 0.800781 37.480469 0.625 37.78125 0.5 C 38.078125 0.378906 38.390625 0.316406 38.71875 0.316406 C 39.042969 0.316406 39.355469 0.378906 39.65625 0.5 C 39.953125 0.625 40.21875 0.800781 40.449219 1.03125 C 40.679688 1.261719 40.855469 1.523438 40.980469 1.824219 C 41.101562 2.121094 41.164062 2.433594 41.164062 2.757812 C 41.164062 3.082031 41.101562 3.390625 40.976562 3.691406 C 40.851562 3.988281 40.675781 4.25 40.445312 4.480469 C 40.214844 4.707031 39.953125 4.882812 39.652344 5.007812 C 39.351562 5.132812 39.039062 5.195312 38.714844 5.195312 Z M 38.714844 1.800781 C 38.449219 1.800781 38.222656 1.894531 38.035156 2.082031 C 37.847656 2.269531 37.757812 2.492188 37.757812 2.757812 C 37.757812 3.019531 37.847656 3.246094 38.035156 3.433594 C 38.222656 3.621094 38.449219 3.710938 38.714844 3.710938 C 38.980469 3.710938 39.207031 3.621094 39.394531 3.433594 C 39.582031 3.246094 39.675781 3.019531 39.675781 2.757812 C 39.675781 2.492188 39.582031 2.269531 39.394531 2.082031 C 39.207031 1.894531 38.980469 1.800781 38.714844 1.800781 Z M 38.714844 1.800781 " fill-opacity="1" fill-rule="nonzero"/></svg>