<svg xmlns="http://www.w3.org/2000/svg" xmlns:xlink="http://www.w3.org/1999/xlink" width="128" zoomAndPan="magnify" viewBox="0 0 96 95.999999" height="128" preserveAspectRatio="xMidYMid meet" version="1.0"><defs><g/></defs><g fill="#ffffff" fill-opacity="1"><g transform="translate(13.335588, 46.553947)"><g><path d="M 4.421875 1.734375 C 5.535156 1.648438 6.226562 1.410156 6.5 1.015625 C 6.644531 0.796875 6.710938 0.578125 6.703125 0.359375 C 6.679688 0.140625 6.59375 -0.0507812 6.4375 -0.21875 C 6.289062 -0.382812 6.078125 -0.488281 5.796875 -0.53125 L 5.53125 -0.53125 C 5.320312 -0.519531 5.09375 -0.488281 4.84375 -0.4375 C 4.59375 -0.382812 4.375 -0.351562 4.1875 -0.34375 C 4.050781 -0.332031 3.941406 -0.332031 3.859375 -0.34375 C 3.316406 -0.457031 2.898438 -0.757812 2.609375 -1.25 C 2.265625 -1.863281 2.066406 -2.460938 2.015625 -3.046875 C 1.960938 -3.765625 2.09375 -4.425781 2.40625 -5.03125 C 2.726562 -5.644531 3.164062 -6.140625 3.71875 -6.515625 C 4.269531 -6.890625 4.867188 -7.097656 5.515625 -7.140625 C 6.003906 -7.179688 6.503906 -7.109375 7.015625 -6.921875 C 7.328125 -6.785156 7.5625 -6.554688 7.71875 -6.234375 C 7.882812 -5.921875 7.976562 -5.582031 8 -5.21875 C 8.039062 -4.65625 7.941406 -4.144531 7.703125 -3.6875 C 7.648438 -3.582031 7.597656 -3.523438 7.546875 -3.515625 C 7.484375 -3.515625 7.441406 -3.601562 7.421875 -3.78125 C 7.398438 -3.957031 7.378906 -4.144531 7.359375 -4.34375 L 7.34375 -4.546875 L 7.34375 -4.625 C 7.34375 -4.6875 7.34375 -4.757812 7.34375 -4.84375 C 7.34375 -4.925781 7.34375 -5.007812 7.34375 -5.09375 L 7.3125 -5.3125 C 7.257812 -5.59375 7.132812 -5.800781 6.9375 -5.9375 C 6.75 -6.082031 6.539062 -6.148438 6.3125 -6.140625 C 6.007812 -6.117188 5.757812 -5.957031 5.5625 -5.65625 C 5.539062 -5.613281 5.515625 -5.59375 5.484375 -5.59375 C 5.441406 -5.582031 5.390625 -5.597656 5.328125 -5.640625 C 5.273438 -5.679688 5.195312 -5.710938 5.09375 -5.734375 C 5 -5.765625 4.875 -5.773438 4.71875 -5.765625 L 4.65625 -5.765625 C 3.945312 -5.660156 3.421875 -5.328125 3.078125 -4.765625 C 2.734375 -4.203125 2.585938 -3.617188 2.640625 -3.015625 C 2.671875 -2.585938 2.789062 -2.191406 3 -1.828125 C 3.21875 -1.472656 3.539062 -1.21875 3.96875 -1.0625 C 4.25 -0.96875 4.492188 -0.925781 4.703125 -0.9375 C 5.035156 -0.96875 5.304688 -1.078125 5.515625 -1.265625 C 5.734375 -1.453125 5.914062 -1.648438 6.0625 -1.859375 C 6.113281 -1.910156 6.148438 -1.941406 6.171875 -1.953125 C 6.191406 -1.953125 6.210938 -1.9375 6.234375 -1.90625 C 6.703125 -1.5625 7.175781 -1.40625 7.65625 -1.4375 C 8.039062 -1.46875 8.394531 -1.597656 8.71875 -1.828125 C 9.039062 -2.054688 9.304688 -2.363281 9.515625 -2.75 C 10.054688 -3.738281 10.289062 -4.726562 10.21875 -5.71875 C 10.175781 -6.257812 10.03125 -6.769531 9.78125 -7.25 C 9.289062 -7.96875 8.660156 -8.492188 7.890625 -8.828125 C 7.128906 -9.160156 6.316406 -9.296875 5.453125 -9.234375 C 4.523438 -9.160156 3.628906 -8.859375 2.765625 -8.328125 C 1.910156 -7.796875 1.222656 -7.015625 0.703125 -5.984375 C 0.171875 -4.890625 -0.0546875 -3.796875 0.015625 -2.703125 C 0.0859375 -1.785156 0.34375 -0.972656 0.78125 -0.265625 C 1.226562 0.441406 1.773438 0.957031 2.421875 1.28125 C 2.722656 1.445312 3.023438 1.570312 3.328125 1.65625 C 3.628906 1.738281 3.992188 1.765625 4.421875 1.734375 Z M 4.78125 -3 C 4.75 -3 4.710938 -3.019531 4.671875 -3.0625 C 4.628906 -3.101562 4.609375 -3.15625 4.609375 -3.21875 L 4.59375 -3.28125 L 4.5625 -3.265625 L 4.75 -3.875 C 4.789062 -3.96875 4.832031 -4.015625 4.875 -4.015625 C 4.96875 -4.003906 5.03125 -3.953125 5.0625 -3.859375 L 5.0625 -3.75 C 5.070312 -3.601562 5.050781 -3.441406 5 -3.265625 C 4.945312 -3.097656 4.875 -3.007812 4.78125 -3 Z M 4.78125 -3 "/></g></g></g><g fill="#ffffff" fill-opacity="1"><g transform="translate(23.589433, 45.800297)"><g/></g></g><g fill="#ffffff" fill-opacity="1"><g transform="translate(27.296914, 45.527799)"><g><path d="M 2.234375 0.078125 C 2.535156 0.046875 2.890625 0.015625 3.296875 -0.015625 C 3.585938 -0.0546875 3.914062 -0.09375 4.28125 -0.125 C 4.644531 -0.15625 4.953125 -0.285156 5.203125 -0.515625 C 5.453125 -0.742188 5.5625 -1.054688 5.53125 -1.453125 C 5.5 -1.835938 5.375 -2.15625 5.15625 -2.40625 C 4.9375 -2.65625 4.664062 -2.785156 4.34375 -2.796875 C 3.695312 -2.753906 3.191406 -2.722656 2.828125 -2.703125 C 2.773438 -2.710938 2.742188 -2.738281 2.734375 -2.78125 C 2.722656 -2.820312 2.710938 -2.878906 2.703125 -2.953125 C 2.703125 -3.023438 2.707031 -3.070312 2.71875 -3.09375 C 2.726562 -3.113281 2.765625 -3.128906 2.828125 -3.140625 C 2.890625 -3.148438 2.992188 -3.164062 3.140625 -3.1875 L 3.640625 -3.234375 C 3.722656 -3.242188 3.847656 -3.253906 4.015625 -3.265625 C 4.179688 -3.273438 4.351562 -3.3125 4.53125 -3.375 C 4.894531 -3.519531 5.050781 -3.9375 5 -4.625 C 4.976562 -4.925781 4.90625 -5.140625 4.78125 -5.265625 C 4.570312 -5.484375 4.253906 -5.578125 3.828125 -5.546875 C 3.359375 -5.515625 3.046875 -5.492188 2.890625 -5.484375 C 2.742188 -5.484375 2.65625 -5.5 2.625 -5.53125 C 2.601562 -5.570312 2.585938 -5.628906 2.578125 -5.703125 L 2.578125 -5.734375 L 2.546875 -5.90625 C 2.546875 -5.957031 2.578125 -5.988281 2.640625 -6 C 2.785156 -6.007812 2.992188 -6.035156 3.265625 -6.078125 C 3.617188 -6.140625 3.9375 -6.179688 4.21875 -6.203125 C 4.53125 -6.222656 4.757812 -6.320312 4.90625 -6.5 C 5.132812 -6.769531 5.234375 -7.109375 5.203125 -7.515625 C 5.171875 -7.890625 5.070312 -8.175781 4.90625 -8.375 C 4.5625 -8.738281 4.046875 -8.894531 3.359375 -8.84375 L 0.828125 -8.65625 C 0.148438 -8.5625 -0.203125 -8.253906 -0.234375 -7.734375 C -0.234375 -7.609375 -0.210938 -7.25 -0.171875 -6.65625 C -0.148438 -6.320312 -0.125 -5.984375 -0.09375 -5.640625 C -0.0703125 -5.304688 -0.0507812 -5.023438 -0.03125 -4.796875 C -0.0078125 -4.566406 0.00390625 -4.453125 0.015625 -4.453125 L 0.15625 -2.3125 C 0.21875 -1.570312 0.296875 -1.023438 0.390625 -0.671875 C 0.492188 -0.328125 0.6875 -0.101562 0.96875 0 C 1.25 0.09375 1.671875 0.117188 2.234375 0.078125 Z M 2.234375 0.078125 "/></g></g></g><g fill="#ffffff" fill-opacity="1"><g transform="translate(32.709836, 45.129953)"><g><path d="M 2.828125 -0.046875 C 3.609375 -0.128906 4.242188 -0.320312 4.734375 -0.625 C 5.222656 -0.9375 5.570312 -1.316406 5.78125 -1.765625 C 5.988281 -2.210938 6.070312 -2.664062 6.03125 -3.125 C 6 -3.644531 5.8125 -4.132812 5.46875 -4.59375 C 5.070312 -5.132812 4.492188 -5.472656 3.734375 -5.609375 C 3.472656 -5.660156 3.222656 -5.738281 2.984375 -5.84375 C 2.753906 -5.945312 2.613281 -6.148438 2.5625 -6.453125 C 2.5625 -6.523438 2.582031 -6.59375 2.625 -6.65625 C 2.675781 -6.71875 2.722656 -6.75 2.765625 -6.75 C 2.847656 -6.738281 2.90625 -6.679688 2.9375 -6.578125 C 2.976562 -6.484375 3.078125 -6.34375 3.234375 -6.15625 C 3.441406 -5.925781 3.71875 -5.820312 4.0625 -5.84375 C 4.25 -5.851562 4.425781 -5.910156 4.59375 -6.015625 C 4.769531 -6.117188 4.894531 -6.257812 4.96875 -6.4375 C 5.039062 -6.625 5.070312 -6.8125 5.0625 -7 C 5.039062 -7.289062 4.929688 -7.570312 4.734375 -7.84375 C 4.546875 -8.113281 4.300781 -8.332031 4 -8.5 C 3.53125 -8.726562 3.035156 -8.828125 2.515625 -8.796875 C 1.921875 -8.753906 1.363281 -8.53125 0.84375 -8.125 C 0.320312 -7.71875 -0.0195312 -7.132812 -0.1875 -6.375 C -0.21875 -6.175781 -0.222656 -5.992188 -0.203125 -5.828125 C -0.140625 -4.941406 0.519531 -4.238281 1.78125 -3.71875 C 1.914062 -3.644531 2.007812 -3.59375 2.0625 -3.5625 C 2.507812 -3.300781 2.738281 -3.078125 2.75 -2.890625 C 2.757812 -2.816406 2.742188 -2.753906 2.703125 -2.703125 C 2.660156 -2.660156 2.601562 -2.640625 2.53125 -2.640625 C 2.425781 -2.628906 2.328125 -2.664062 2.234375 -2.75 C 1.753906 -3.1875 1.320312 -3.390625 0.9375 -3.359375 C 0.644531 -3.335938 0.40625 -3.21875 0.21875 -3 C 0.03125 -2.78125 -0.0507812 -2.5 -0.03125 -2.15625 C 0.0078125 -1.601562 0.328125 -1.054688 0.921875 -0.515625 C 1.265625 -0.253906 1.765625 -0.101562 2.421875 -0.0625 C 2.648438 -0.0507812 2.785156 -0.046875 2.828125 -0.046875 Z M 2.828125 -0.046875 "/></g></g></g><g fill="#ffffff" fill-opacity="1"><g transform="translate(38.557068, 44.700186)"><g><path d="M 1.6875 0.03125 C 2.039062 0.0078125 2.34375 -0.148438 2.59375 -0.453125 C 2.84375 -0.753906 2.984375 -1.109375 3.015625 -1.515625 C 3.035156 -2.003906 3.039062 -2.3125 3.03125 -2.4375 C 3.019531 -2.539062 3.019531 -2.597656 3.03125 -2.609375 C 3.039062 -2.617188 3.113281 -2.628906 3.25 -2.640625 C 3.96875 -2.773438 4.539062 -3.015625 4.96875 -3.359375 C 5.394531 -3.710938 5.691406 -4.125 5.859375 -4.59375 C 6.023438 -5.0625 6.09375 -5.53125 6.0625 -6 C 6.007812 -6.707031 5.753906 -7.3125 5.296875 -7.8125 C 4.972656 -8.15625 4.664062 -8.398438 4.375 -8.546875 C 4.09375 -8.703125 3.765625 -8.785156 3.390625 -8.796875 C 3.015625 -8.804688 2.5 -8.789062 1.84375 -8.75 L 0.921875 -8.671875 C 0.691406 -8.660156 0.457031 -8.535156 0.21875 -8.296875 C -0.0078125 -8.054688 -0.132812 -7.757812 -0.15625 -7.40625 C -0.15625 -7.101562 -0.128906 -6.644531 -0.078125 -6.03125 L 0 -4.890625 C 0.0625 -4.140625 0.15625 -2.976562 0.28125 -1.40625 L 0.28125 -1.328125 C 0.332031 -0.648438 0.664062 -0.210938 1.28125 -0.015625 C 1.425781 0.0234375 1.5625 0.0390625 1.6875 0.03125 Z M 2.96875 -4.9375 C 2.945312 -4.925781 2.921875 -4.9375 2.890625 -4.96875 L 2.875 -4.984375 C 2.863281 -4.992188 2.851562 -5.023438 2.84375 -5.078125 L 2.796875 -5.890625 C 2.796875 -6.015625 2.832031 -6.082031 2.90625 -6.09375 C 2.988281 -6.09375 3.078125 -6.03125 3.171875 -5.90625 C 3.265625 -5.789062 3.316406 -5.679688 3.328125 -5.578125 C 3.335938 -5.472656 3.316406 -5.367188 3.265625 -5.265625 C 3.222656 -5.171875 3.171875 -5.09375 3.109375 -5.03125 C 3.046875 -4.96875 3 -4.9375 2.96875 -4.9375 Z M 2.96875 -4.9375 "/></g></g></g><g fill="#ffffff" fill-opacity="1"><g transform="translate(44.61616, 44.254847)"><g><path d="M 3.5625 -0.09375 C 4.3125 -0.144531 4.835938 -0.242188 5.140625 -0.390625 C 5.441406 -0.535156 5.617188 -0.835938 5.671875 -1.296875 L 5.671875 -1.5625 C 5.640625 -2 5.484375 -2.289062 5.203125 -2.4375 C 4.921875 -2.59375 4.5625 -2.660156 4.125 -2.640625 C 3.695312 -2.628906 3.382812 -2.625 3.1875 -2.625 C 3.070312 -2.613281 2.984375 -2.601562 2.921875 -2.59375 C 2.859375 -2.59375 2.816406 -2.597656 2.796875 -2.609375 C 2.785156 -2.617188 2.78125 -2.632812 2.78125 -2.65625 C 2.78125 -2.789062 2.757812 -3.175781 2.71875 -3.8125 C 2.675781 -4.445312 2.640625 -4.972656 2.609375 -5.390625 C 2.578125 -5.816406 2.5625 -6.15625 2.5625 -6.40625 L 2.53125 -6.75 C 2.53125 -6.84375 2.523438 -6.921875 2.515625 -6.984375 C 2.515625 -7.054688 2.515625 -7.113281 2.515625 -7.15625 L 2.515625 -7.296875 L 2.53125 -7.296875 C 2.5 -7.492188 2.441406 -7.703125 2.359375 -7.921875 C 2.285156 -8.140625 2.148438 -8.328125 1.953125 -8.484375 C 1.765625 -8.640625 1.472656 -8.703125 1.078125 -8.671875 C 0.734375 -8.648438 0.46875 -8.550781 0.28125 -8.375 C 0.101562 -8.207031 -0.015625 -8.007812 -0.078125 -7.78125 C -0.140625 -7.550781 -0.160156 -7.332031 -0.140625 -7.125 L 0.296875 -1.046875 C 0.328125 -0.691406 0.476562 -0.414062 0.75 -0.21875 C 1.019531 -0.0195312 1.289062 0.0664062 1.5625 0.046875 Z M 3.5625 -0.09375 "/></g></g></g><g fill="#ffffff" fill-opacity="1"><g transform="translate(49.82782, 43.871793)"><g><path d="M 0.90625 0.03125 C 1.1875 0.0078125 1.425781 -0.09375 1.625 -0.28125 C 1.832031 -0.46875 1.992188 -0.710938 2.109375 -1.015625 C 2.117188 -1.054688 2.132812 -1.09375 2.15625 -1.125 C 2.1875 -1.164062 2.289062 -1.191406 2.46875 -1.203125 L 3.234375 -1.25 L 4.109375 -1.3125 C 4.285156 -1.320312 4.410156 -1.242188 4.484375 -1.078125 C 4.640625 -0.816406 4.832031 -0.628906 5.0625 -0.515625 C 5.289062 -0.398438 5.519531 -0.351562 5.75 -0.375 C 5.957031 -0.394531 6.144531 -0.457031 6.3125 -0.5625 C 6.488281 -0.675781 6.613281 -0.835938 6.6875 -1.046875 C 6.75 -1.191406 6.773438 -1.335938 6.765625 -1.484375 C 6.753906 -1.671875 6.671875 -1.929688 6.515625 -2.265625 C 6.296875 -2.734375 5.921875 -3.613281 5.390625 -4.90625 C 5.003906 -5.8125 4.671875 -6.570312 4.390625 -7.1875 C 4.109375 -7.800781 3.867188 -8.222656 3.671875 -8.453125 C 3.390625 -8.710938 3.078125 -8.832031 2.734375 -8.8125 C 2.429688 -8.789062 2.171875 -8.660156 1.953125 -8.421875 C 1.921875 -8.378906 1.882812 -8.328125 1.84375 -8.265625 C 1.789062 -8.160156 1.679688 -7.867188 1.515625 -7.390625 C 1.441406 -7.160156 0.832031 -5.234375 -0.3125 -1.609375 C -0.363281 -1.421875 -0.382812 -1.238281 -0.375 -1.0625 C -0.351562 -0.832031 -0.285156 -0.601562 -0.171875 -0.375 C -0.0664062 -0.195312 0.0507812 -0.0859375 0.1875 -0.046875 C 0.320312 -0.00390625 0.453125 0.015625 0.578125 0.015625 L 0.65625 0.03125 C 0.738281 0.03125 0.820312 0.03125 0.90625 0.03125 Z M 3.078125 -3.390625 C 2.953125 -3.378906 2.890625 -3.390625 2.890625 -3.421875 C 2.929688 -3.484375 2.976562 -3.570312 3.03125 -3.6875 C 3.082031 -3.8125 3.117188 -3.921875 3.140625 -4.015625 C 3.160156 -4.015625 3.179688 -4.007812 3.203125 -4 C 3.273438 -3.84375 3.34375 -3.710938 3.40625 -3.609375 C 3.457031 -3.535156 3.484375 -3.488281 3.484375 -3.46875 C 3.484375 -3.445312 3.472656 -3.429688 3.453125 -3.421875 Z M 3.078125 -3.390625 "/></g></g></g><g fill="#ffffff" fill-opacity="1"><g transform="translate(56.066982, 43.413219)"><g><path d="M 6.59375 -0.25 C 6.988281 -0.28125 7.269531 -0.410156 7.4375 -0.640625 C 7.613281 -0.867188 7.710938 -1.238281 7.734375 -1.75 C 7.765625 -2.269531 7.75 -2.96875 7.6875 -3.84375 C 7.59375 -5.039062 7.523438 -5.847656 7.484375 -6.265625 L 7.390625 -7.84375 C 7.367188 -8.132812 7.210938 -8.398438 6.921875 -8.640625 C 6.640625 -8.890625 6.304688 -9.003906 5.921875 -8.984375 C 5.234375 -8.929688 4.816406 -8.550781 4.671875 -7.84375 C 4.585938 -7.4375 4.570312 -6.707031 4.625 -5.65625 C 4.632812 -5.46875 4.585938 -5.359375 4.484375 -5.328125 C 4.441406 -5.316406 4.378906 -5.359375 4.296875 -5.453125 L 3.984375 -5.828125 C 2.742188 -7.347656 1.960938 -8.21875 1.640625 -8.4375 C 1.410156 -8.570312 1.160156 -8.628906 0.890625 -8.609375 C 0.710938 -8.597656 0.539062 -8.539062 0.375 -8.4375 C 0.21875 -8.34375 0.09375 -8.1875 0 -7.96875 C -0.0820312 -7.757812 -0.113281 -7.476562 -0.09375 -7.125 C -0.09375 -7.125 -0.078125 -6.863281 -0.046875 -6.34375 C -0.015625 -5.832031 0.0195312 -5.226562 0.0625 -4.53125 C 0.113281 -3.832031 0.160156 -3.210938 0.203125 -2.671875 C 0.253906 -1.890625 0.285156 -1.5 0.296875 -1.5 C 0.316406 -1.289062 0.363281 -1.050781 0.4375 -0.78125 C 0.644531 -0.132812 1.097656 0.160156 1.796875 0.109375 C 2.234375 0.078125 2.546875 -0.078125 2.734375 -0.359375 C 2.921875 -0.648438 3.003906 -0.972656 2.984375 -1.328125 C 2.960938 -1.628906 2.945312 -2.085938 2.9375 -2.703125 L 2.9375 -2.765625 C 2.9375 -2.796875 2.941406 -2.835938 2.953125 -2.890625 C 2.972656 -2.941406 3.003906 -2.96875 3.046875 -2.96875 C 3.066406 -2.96875 3.09375 -2.957031 3.125 -2.9375 C 3.414062 -2.675781 3.691406 -2.378906 3.953125 -2.046875 L 4.296875 -1.640625 C 4.535156 -1.335938 4.859375 -1.03125 5.265625 -0.71875 C 5.679688 -0.40625 6.125 -0.25 6.59375 -0.25 Z M 6.59375 -0.25 "/></g></g></g><g fill="#ffffff" fill-opacity="1"><g transform="translate(64.011593, 42.829296)"><g><path d="M 0.90625 0.03125 C 1.1875 0.0078125 1.425781 -0.09375 1.625 -0.28125 C 1.832031 -0.46875 1.992188 -0.710938 2.109375 -1.015625 C 2.117188 -1.054688 2.132812 -1.09375 2.15625 -1.125 C 2.1875 -1.164062 2.289062 -1.191406 2.46875 -1.203125 L 3.234375 -1.25 L 4.109375 -1.3125 C 4.285156 -1.320312 4.410156 -1.242188 4.484375 -1.078125 C 4.640625 -0.816406 4.832031 -0.628906 5.0625 -0.515625 C 5.289062 -0.398438 5.519531 -0.351562 5.75 -0.375 C 5.957031 -0.394531 6.144531 -0.457031 6.3125 -0.5625 C 6.488281 -0.675781 6.613281 -0.835938 6.6875 -1.046875 C 6.75 -1.191406 6.773438 -1.335938 6.765625 -1.484375 C 6.753906 -1.671875 6.671875 -1.929688 6.515625 -2.265625 C 6.296875 -2.734375 5.921875 -3.613281 5.390625 -4.90625 C 5.003906 -5.8125 4.671875 -6.570312 4.390625 -7.1875 C 4.109375 -7.800781 3.867188 -8.222656 3.671875 -8.453125 C 3.390625 -8.710938 3.078125 -8.832031 2.734375 -8.8125 C 2.429688 -8.789062 2.171875 -8.660156 1.953125 -8.421875 C 1.921875 -8.378906 1.882812 -8.328125 1.84375 -8.265625 C 1.789062 -8.160156 1.679688 -7.867188 1.515625 -7.390625 C 1.441406 -7.160156 0.832031 -5.234375 -0.3125 -1.609375 C -0.363281 -1.421875 -0.382812 -1.238281 -0.375 -1.0625 C -0.351562 -0.832031 -0.285156 -0.601562 -0.171875 -0.375 C -0.0664062 -0.195312 0.0507812 -0.0859375 0.1875 -0.046875 C 0.320312 -0.00390625 0.453125 0.015625 0.578125 0.015625 L 0.65625 0.03125 C 0.738281 0.03125 0.820312 0.03125 0.90625 0.03125 Z M 3.078125 -3.390625 C 2.953125 -3.378906 2.890625 -3.390625 2.890625 -3.421875 C 2.929688 -3.484375 2.976562 -3.570312 3.03125 -3.6875 C 3.082031 -3.8125 3.117188 -3.921875 3.140625 -4.015625 C 3.160156 -4.015625 3.179688 -4.007812 3.203125 -4 C 3.273438 -3.84375 3.34375 -3.710938 3.40625 -3.609375 C 3.457031 -3.535156 3.484375 -3.488281 3.484375 -3.46875 C 3.484375 -3.445312 3.472656 -3.429688 3.453125 -3.421875 Z M 3.078125 -3.390625 "/></g></g></g><g fill="#ffffff" fill-opacity="1"><g transform="translate(70.250752, 42.370722)"><g><path d="M 1.5625 0.078125 C 3.164062 -0.046875 4.316406 -0.609375 5.015625 -1.609375 C 5.628906 -2.472656 5.898438 -3.519531 5.828125 -4.75 C 5.773438 -5.445312 5.582031 -6.113281 5.25 -6.75 C 4.914062 -7.382812 4.421875 -7.878906 3.765625 -8.234375 C 3.109375 -8.597656 2.269531 -8.753906 1.25 -8.703125 C 0.882812 -8.671875 0.566406 -8.488281 0.296875 -8.15625 C 0.0234375 -7.832031 -0.109375 -7.445312 -0.109375 -7 C -0.0859375 -6.46875 -0.03125 -5.5625 0.0625 -4.28125 L 0.171875 -2.90625 C 0.234375 -1.976562 0.273438 -1.457031 0.296875 -1.34375 C 0.328125 -1.132812 0.398438 -0.914062 0.515625 -0.6875 C 0.640625 -0.46875 0.789062 -0.28125 0.96875 -0.125 C 1.15625 0.0195312 1.351562 0.0859375 1.5625 0.078125 Z M 2.6875 -3.46875 C 2.664062 -3.46875 2.65625 -3.472656 2.65625 -3.484375 C 2.65625 -3.566406 2.613281 -4.191406 2.53125 -5.359375 C 2.539062 -5.390625 2.554688 -5.40625 2.578125 -5.40625 C 2.617188 -5.40625 2.6875 -5.375 2.78125 -5.3125 C 2.875 -5.25 2.960938 -5.148438 3.046875 -5.015625 C 3.128906 -4.878906 3.175781 -4.6875 3.1875 -4.4375 C 3.207031 -4.207031 3.179688 -4.019531 3.109375 -3.875 C 3.046875 -3.726562 2.96875 -3.625 2.875 -3.5625 C 2.789062 -3.5 2.726562 -3.46875 2.6875 -3.46875 Z M 2.6875 -3.46875 "/></g></g></g><g fill="#ffffff" fill-opacity="1"><g transform="translate(76.0662, 41.94329)"><g><path d="M 2.296875 0.0625 C 2.597656 0.0390625 2.953125 0.0078125 3.359375 -0.03125 C 3.648438 -0.0625 3.976562 -0.09375 4.34375 -0.125 C 4.707031 -0.15625 5.015625 -0.285156 5.265625 -0.515625 C 5.515625 -0.753906 5.625 -1.070312 5.59375 -1.46875 C 5.5625 -1.851562 5.4375 -2.164062 5.21875 -2.40625 C 5 -2.65625 4.726562 -2.789062 4.40625 -2.8125 C 3.757812 -2.757812 3.253906 -2.726562 2.890625 -2.71875 C 2.835938 -2.71875 2.804688 -2.738281 2.796875 -2.78125 C 2.785156 -2.820312 2.773438 -2.878906 2.765625 -2.953125 C 2.765625 -3.023438 2.769531 -3.070312 2.78125 -3.09375 C 2.789062 -3.113281 2.828125 -3.128906 2.890625 -3.140625 C 2.953125 -3.148438 3.054688 -3.164062 3.203125 -3.1875 L 3.703125 -3.234375 C 3.785156 -3.242188 3.910156 -3.253906 4.078125 -3.265625 C 4.242188 -3.273438 4.414062 -3.316406 4.59375 -3.390625 C 4.957031 -3.523438 5.113281 -3.9375 5.0625 -4.625 C 5.039062 -4.925781 4.972656 -5.144531 4.859375 -5.28125 C 4.640625 -5.488281 4.316406 -5.578125 3.890625 -5.546875 C 3.421875 -5.515625 3.109375 -5.5 2.953125 -5.5 C 2.804688 -5.5 2.71875 -5.515625 2.6875 -5.546875 C 2.664062 -5.578125 2.648438 -5.628906 2.640625 -5.703125 L 2.640625 -5.734375 L 2.609375 -5.90625 C 2.609375 -5.957031 2.640625 -5.992188 2.703125 -6.015625 C 2.847656 -6.023438 3.054688 -6.050781 3.328125 -6.09375 C 3.679688 -6.144531 4 -6.179688 4.28125 -6.203125 C 4.59375 -6.222656 4.820312 -6.328125 4.96875 -6.515625 C 5.195312 -6.773438 5.296875 -7.109375 5.265625 -7.515625 C 5.234375 -7.890625 5.132812 -8.175781 4.96875 -8.375 C 4.625 -8.738281 4.109375 -8.894531 3.421875 -8.84375 L 0.890625 -8.65625 C 0.210938 -8.5625 -0.140625 -8.253906 -0.171875 -7.734375 C -0.171875 -7.617188 -0.148438 -7.265625 -0.109375 -6.671875 C -0.0859375 -6.335938 -0.0625 -6 -0.03125 -5.65625 C -0.0078125 -5.320312 0.0078125 -5.035156 0.03125 -4.796875 C 0.0507812 -4.566406 0.0664062 -4.453125 0.078125 -4.453125 L 0.21875 -2.3125 C 0.28125 -1.570312 0.359375 -1.023438 0.453125 -0.671875 C 0.554688 -0.328125 0.75 -0.109375 1.03125 -0.015625 C 1.3125 0.078125 1.734375 0.101562 2.296875 0.0625 Z M 2.296875 0.0625 "/></g></g></g><path stroke-linecap="butt" transform="matrix(0.662049, -0.0486602, 0.0486602, 0.662049, -0.34259, 36.909272)" fill="none" stroke-linejoin="miter" d="M 25.932349 19.071146 C 27.608072 19.070406 28.672683 18.794639 29.132482 18.23841 C 29.385079 17.932463 29.515299 17.60572 29.516842 17.263619 C 29.517522 16.933256 29.40955 16.636208 29.193356 16.366608 C 28.982599 16.103307 28.671044 15.927002 28.270428 15.838554 L 27.865499 15.808792 C 27.546872 15.808974 27.196746 15.836343 26.809684 15.884597 C 26.428922 15.927414 26.096401 15.956076 25.807549 15.952546 C 25.612593 15.955918 25.454574 15.938404 25.321323 15.905009 C 24.524405 15.669428 23.929252 15.177267 23.529566 14.433961 C 23.081717 13.462906 22.861447 12.526279 22.862024 11.635385 C 22.859661 10.543666 23.132087 9.566549 23.673864 8.697732 C 24.221941 7.823478 24.927265 7.137788 25.796137 6.635227 C 26.66544 6.126797 27.592919 5.870452 28.572272 5.871631 C 29.309721 5.872731 30.04683 6.039013 30.784031 6.364607 C 31.22668 6.60365 31.559643 6.970337 31.765315 7.463373 C 31.976425 7.962709 32.079744 8.483624 32.080278 9.038286 C 32.077283 9.881801 31.874496 10.633927 31.466049 11.294235 C 31.360506 11.445784 31.278177 11.522336 31.213623 11.517592 C 31.112995 11.521996 31.05793 11.388143 31.036261 11.12104 C 31.014591 10.853936 31.005952 10.57009 31.004045 10.274938 L 31.001706 9.985654 L 31.017064 9.856977 C 31.029402 9.769381 31.037166 9.663747 31.040787 9.534208 C 31.050277 9.4051 31.053466 9.281429 31.051218 9.151459 L 31.034724 8.813933 C 30.994495 8.397959 30.835431 8.073555 30.563401 7.841152 C 30.291802 7.602881 29.987671 7.486124 29.645139 7.490449 C 29.185236 7.486148 28.797834 7.699584 28.478357 8.11272 C 28.420795 8.173392 28.371259 8.205153 28.329748 8.208002 C 28.270631 8.209557 28.196065 8.180476 28.117788 8.12162 C 28.033642 8.062333 27.926021 8.001321 27.77689 7.943158 C 27.633627 7.885427 27.441259 7.853587 27.193487 7.853077 L 27.116765 7.853338 C 26.037044 7.933286 25.20856 8.368013 24.630448 9.169257 C 24.046467 9.970069 23.758331 10.839827 23.760172 11.778101 C 23.760536 12.415354 23.905196 13.01601 24.194583 13.574202 C 24.489838 14.132825 24.954327 14.556381 25.58175 14.850306 C 25.988065 15.021776 26.347601 15.107204 26.666227 15.107022 C 27.161772 15.108042 27.578779 14.973485 27.916384 14.715087 C 28.260289 14.451252 28.551808 14.177667 28.797242 13.888893 C 28.873703 13.81191 28.923671 13.774281 28.958882 13.776869 C 28.988225 13.779025 29.022142 13.799219 29.048465 13.842456 C 29.710158 14.39261 30.403429 14.673674 31.13501 14.674343 C 31.707709 14.669234 32.255549 14.520692 32.778529 14.228717 C 33.302372 13.925005 33.740514 13.50289 34.094249 12.944765 C 35.00236 11.506949 35.452725 10.035489 35.45035 8.542554 C 35.450758 7.734251 35.295995 6.949944 34.986062 6.189634 C 34.337298 5.062206 33.450693 4.200509 32.325386 3.616279 C 31.20051 3.026181 29.982782 2.73607 28.684802 2.735074 C 27.286626 2.732613 25.914955 3.092015 24.564353 3.80698 C 23.21375 4.521945 22.089615 5.607569 21.197384 7.070153 C 20.266321 8.659689 19.804309 10.289599 19.805913 11.953585 C 19.804314 13.340024 20.102352 14.58328 20.693294 15.694657 C 21.284236 16.806035 22.043458 17.634768 22.958361 18.191733 C 23.403859 18.472287 23.854102 18.688287 24.303222 18.839302 C 24.746041 18.995754 25.295096 19.071511 25.932349 19.071146 Z M 26.987868 12.015335 C 26.93462 12.017321 26.883528 11.989965 26.829156 11.926966 C 26.774353 11.869836 26.750617 11.791388 26.75165 11.69706 L 26.748108 11.584696 L 26.712466 11.587976 L 27.037107 10.7032 C 27.112013 10.5671 27.182174 10.495553 27.247159 10.494429 C 27.392147 10.528687 27.480437 10.611879 27.499427 10.754881 L 27.517555 10.909619 C 27.512902 11.133487 27.459575 11.377377 27.358005 11.635423 C 27.250998 11.887168 27.123707 12.013518 26.987868 12.015335 Z M 43.915587 16.351237 C 44.375921 16.349669 44.913409 16.341972 45.53435 16.322709 C 45.98381 16.308542 46.479786 16.303694 47.023142 16.296428 C 47.566499 16.289163 48.038479 16.129145 48.434508 15.798338 C 48.835974 15.473831 49.0348 15.016425 49.036422 14.432421 C 49.038476 13.842547 48.885621 13.353393 48.578288 12.959089 C 48.276824 12.565217 47.88656 12.335924 47.419234 12.272075 C 46.451617 12.271759 45.684825 12.268502 45.131026 12.257299 C 45.055166 12.245824 45.010806 12.207162 44.991645 12.146751 C 44.978784 12.080903 44.973517 11.992012 44.969544 11.885516 C 44.97144 11.779451 44.982915 11.703591 45.00354 11.663806 C 45.024165 11.62402 45.085007 11.59899 45.180198 11.588286 C 45.27582 11.571713 45.435996 11.559885 45.660726 11.552802 L 46.394894 11.518259 C 46.536602 11.516874 46.731126 11.519371 46.978899 11.519881 C 47.23254 11.520823 47.483332 11.480254 47.742581 11.404904 C 48.31562 11.234614 48.60152 10.636102 48.600712 9.6035 C 48.604151 9.155335 48.516372 8.82437 48.349113 8.611468 C 48.061804 8.265838 47.590504 8.095492 46.941514 8.094994 C 46.239276 8.096482 45.773505 8.091749 45.5505 8.075358 C 45.327496 8.058968 45.188808 8.019273 45.14531 7.968874 C 45.102244 7.912606 45.084377 7.83459 45.086272 7.728525 L 45.085148 7.66354 L 45.068485 7.408605 C 45.068223 7.331882 45.118622 7.288385 45.214676 7.265943 C 45.427237 7.263866 45.740858 7.251515 46.1564 7.217155 C 46.702344 7.174678 47.182009 7.15093 47.594963 7.151781 C 48.072903 7.151508 48.435799 7.030674 48.672345 6.78255 C 49.030745 6.401775 49.214984 5.901996 49.212463 5.294085 C 49.21236 4.733555 49.091697 4.288068 48.843742 3.968932 C 48.372862 3.3915 47.626774 3.106554 46.60591 3.108224 L 42.765218 3.103247 C 41.739609 3.169471 41.177797 3.588397 41.067612 4.365031 C 41.048804 4.540656 41.038895 5.076849 41.037024 5.985349 C 41.036434 6.475026 41.040851 6.976871 41.044405 7.490453 C 41.047958 8.004035 41.057551 8.435458 41.061445 8.783858 C 41.064907 9.138127 41.075873 9.31004 41.081741 9.310472 L 41.066218 12.572164 C 41.067719 13.675619 41.125565 14.494104 41.245196 15.033919 C 41.359389 15.567433 41.622362 15.923075 42.022807 16.094114 C 42.429122 16.265583 43.059904 16.353247 43.915587 16.351237 Z M 52.986598 16.239118 C 54.18067 16.208876 55.158808 15.985757 55.926451 15.576059 C 56.688225 15.16593 57.252364 14.63507 57.613 13.983049 C 57.973636 13.331028 58.152779 12.659767 58.156296 11.969697 C 58.156272 11.167262 57.928499 10.412991 57.485576 9.696009 C 56.940641 8.841723 56.109192 8.273191 54.985792 7.984114 C 54.591476 7.890229 54.224517 7.745253 53.884482 7.555054 C 53.544447 7.364855 53.355609 7.044163 53.323836 6.593409 C 53.337468 6.488207 53.380012 6.39103 53.451468 6.301878 C 53.52836 6.219026 53.602233 6.177253 53.678956 6.176992 C 53.77199 6.195631 53.842242 6.283397 53.896012 6.434856 C 53.950214 6.580445 54.086837 6.808796 54.300875 7.107739 C 54.585596 7.48858 54.990616 7.677656 55.503767 7.67997 C 55.787182 7.6772 56.063605 7.609014 56.321298 7.474548 C 56.585291 7.334644 56.788612 7.13718 56.925825 6.875854 C 57.063037 6.614527 57.130689 6.336288 57.12835 6.047005 C 57.130926 5.610576 57.0031 5.182264 56.739004 4.761637 C 56.480776 4.341441 56.129345 3.985197 55.696446 3.693769 C 55.02397 3.290328 54.289449 3.088835 53.50462 3.090153 C 52.59612 3.088281 51.726465 3.360676 50.895653 3.907337 C 50.071141 4.44856 49.496741 5.279578 49.18419 6.401253 C 49.109375 6.696666 49.071065 6.977062 49.070123 7.230703 C 49.066539 8.563894 49.986981 9.687689 51.819283 10.607094 C 52.022787 10.728256 52.158456 10.80903 52.237165 10.862017 C 52.900321 11.311975 53.226985 11.684099 53.228461 11.98512 C 53.226566 12.091185 53.190753 12.177056 53.109717 12.236003 C 53.029113 12.289081 52.932628 12.317391 52.826132 12.321364 C 52.666819 12.321455 52.524419 12.251986 52.398932 12.112958 C 51.714968 11.384159 51.086421 11.025249 50.508285 11.024058 C 50.071856 11.021482 49.699641 11.188832 49.398803 11.508935 C 49.091664 11.834474 48.942375 12.26012 48.939197 12.785008 C 48.937064 13.616785 49.359192 14.456144 50.187111 15.313528 C 50.679218 15.762714 51.4077 16.046367 52.365827 16.175791 C 52.716645 16.219276 52.921613 16.240242 52.986598 16.239118 Z M 60.109176 16.2257 C 60.640363 16.223441 61.116225 16.010606 61.530462 15.592634 C 61.944698 15.174661 62.200223 14.668321 62.284867 14.078618 C 62.368558 13.341339 62.414802 12.872718 62.411861 12.671894 C 62.410908 12.524318 62.422815 12.44259 62.435846 12.425847 C 62.448877 12.409104 62.561673 12.399693 62.762497 12.396753 C 63.851537 12.270288 64.735086 11.969414 65.413577 11.488261 C 66.092067 11.007107 66.583366 10.423692 66.893342 9.738446 C 67.203749 9.047332 67.355274 8.35044 67.359655 7.648633 C 67.355566 6.580389 67.040537 5.648597 66.414997 4.84739 C 65.953266 4.306032 65.522263 3.908539 65.116119 3.654478 C 64.709543 3.406286 64.225213 3.252684 63.65769 3.18737 C 63.096035 3.122488 62.307926 3.088163 61.304667 3.091128 L 59.918228 3.089529 C 59.56439 3.087124 59.198044 3.254905 58.81962 3.587006 C 58.441628 3.913238 58.227353 4.340007 58.177227 4.861445 C 58.137715 5.318759 58.122029 6.013835 58.1243 6.94624 L 58.122453 8.657174 C 58.133965 9.784966 58.140404 11.543712 58.136764 13.921241 L 58.139443 14.045343 C 58.141545 15.060339 58.598361 15.748842 59.515761 16.111282 C 59.716846 16.185064 59.914651 16.223203 60.109176 16.2257 Z M 62.586424 8.932171 C 62.568819 8.930877 62.529464 8.904383 62.474661 8.847253 L 62.446181 8.833359 C 62.436169 8.809023 62.428314 8.755343 62.428484 8.672752 L 62.441048 7.458226 C 62.454419 7.276301 62.508269 7.185855 62.603028 7.18102 C 62.732567 7.18464 62.866942 7.28302 62.999853 7.481597 C 63.144501 7.681036 63.214583 7.851394 63.215537 7.99897 C 63.215628 8.158283 63.17507 8.308709 63.093865 8.450246 C 63.01309 8.585915 62.921873 8.703116 62.820643 8.795979 C 62.719845 8.882975 62.645541 8.930616 62.586424 8.932171 Z M 72.090289 16.256669 C 73.223087 16.257326 74.026555 16.162974 74.50026 15.979482 C 74.974397 15.790121 75.272125 15.351785 75.387145 14.669911 L 75.403444 14.287593 C 75.404806 13.626866 75.208283 13.169904 74.808007 12.916275 C 74.4199 12.65764 73.893627 12.512755 73.234625 12.48792 C 72.581492 12.463516 72.104846 12.446183 71.804688 12.435922 C 71.633638 12.435151 71.504099 12.43153 71.410202 12.424629 C 71.322174 12.418159 71.26392 12.407977 71.235009 12.399952 C 71.212397 12.386489 71.196086 12.36759 71.198242 12.338247 C 71.22007 12.121542 71.23343 11.5384 71.245052 10.577515 C 71.256673 9.61663 71.262087 8.820495 71.261722 8.183243 C 71.261358 7.54599 71.26911 7.039139 71.291278 6.657252 L 71.293593 6.144102 C 71.298508 5.996957 71.307566 5.873717 71.308599 5.779389 C 71.304194 5.678762 71.31567 5.602902 71.326715 5.532911 L 71.325068 5.314481 L 71.343105 5.309906 C 71.329461 5.013891 71.27603 4.697252 71.171077 4.359124 C 71.071993 4.021428 70.880998 3.730079 70.604393 3.479639 C 70.327788 3.229199 69.894549 3.102953 69.304244 3.106768 C 68.785225 3.104021 68.38125 3.221836 68.08645 3.459779 C 67.792081 3.691853 67.58229 3.977346 67.469244 4.311251 C 67.349899 4.650594 67.290533 4.976644 67.290715 5.29527 L 67.289436 14.464151 C 67.290834 15.007076 67.483213 15.440133 67.866576 15.763322 C 68.25037 16.080642 68.651678 16.239943 69.070501 16.241225 Z M 75.963081 16.146001 C 76.388204 16.141845 76.763268 16.016006 77.083268 15.756314 C 77.403698 15.490754 77.665614 15.138289 77.868583 14.704789 C 77.890933 14.641529 77.924158 14.590869 77.96282 14.546509 C 78.00735 14.50258 78.16252 14.478583 78.427898 14.480387 L 79.612651 14.496663 L 80.940405 14.493948 C 81.194046 14.49489 81.373644 14.620194 81.467892 14.863131 C 81.668297 15.267277 81.935152 15.570102 82.268456 15.771607 C 82.596322 15.966812 82.93739 16.062683 83.273622 16.063795 C 83.598117 16.064044 83.886708 15.990851 84.157432 15.839643 C 84.421857 15.693871 84.632772 15.473363 84.778009 15.183126 C 84.888728 14.961154 84.940761 14.734869 84.939546 14.510571 C 84.942213 14.233455 84.841142 13.842511 84.637195 13.326001 C 84.359886 12.60349 83.88855 11.229492 83.228195 9.216176 C 82.758585 7.818704 82.349306 6.643976 81.994491 5.691559 C 81.645975 4.733706 81.328278 4.079029 81.053138 3.728393 C 80.660796 3.28654 80.198816 3.069677 79.673497 3.072368 C 79.225331 3.068929 78.823342 3.239992 78.461661 3.585123 C 78.3978 3.651233 78.339807 3.717773 78.287252 3.790613 C 78.17584 3.941731 77.97874 4.375663 77.69595 5.092408 C 77.554856 5.406551 76.427148 8.226584 74.312826 13.552507 C 74.209962 13.828158 74.154047 14.10726 74.157249 14.384807 C 74.155706 14.726907 74.237185 15.063309 74.394955 15.405319 C 74.533564 15.686918 74.703411 15.864608 74.904065 15.944259 C 75.098851 16.023478 75.289925 16.072923 75.465118 16.0976 L 75.593795 16.112958 C 75.72204 16.134184 75.845279 16.143242 75.963081 16.146001 Z M 79.609705 11.245414 C 79.432787 11.244211 79.339753 11.225572 79.336903 11.184061 C 79.392047 11.07601 79.466953 10.939909 79.567921 10.770323 C 79.663021 10.600306 79.733783 10.4403 79.791084 10.302906 C 79.820426 10.305062 79.849769 10.307219 79.872381 10.320681 C 79.95403 10.574493 80.039129 10.781356 80.12138 10.946708 C 80.189476 11.063817 80.21908 11.142696 80.221929 11.184207 C 80.220635 11.201813 80.213904 11.213119 80.189998 11.217262 Z M 93.96712 16.354139 C 94.551556 16.349893 94.988325 16.187287 95.265689 15.865459 C 95.549353 15.538194 95.743344 14.986029 95.835491 14.21397 C 95.933507 13.442342 95.981373 12.389717 95.979089 11.056095 C 95.981969 9.250833 95.976927 8.035013 95.963963 7.408634 L 95.979771 5.026099 C 95.982779 4.583802 95.783236 4.167919 95.381576 3.772582 C 94.980778 3.365508 94.493598 3.170395 93.915462 3.169204 C 92.88286 3.170011 92.206787 3.698544 91.89898 4.755665 C 91.731314 5.351066 91.628043 6.43502 91.594605 8.013827 C 91.596944 8.303111 91.514444 8.462254 91.358411 8.497988 C 91.281689 8.498249 91.192537 8.426794 91.084656 8.289059 L 90.656149 7.697041 C 88.946006 5.276153 87.868485 3.881202 87.417288 3.517626 C 87.086141 3.286779 86.717456 3.165277 86.30407 3.170295 C 86.032824 3.168059 85.780306 3.232102 85.53435 3.367431 C 85.288394 3.50276 85.083347 3.723699 84.925079 4.030679 C 84.766379 4.343528 84.682506 4.762181 84.666729 5.297943 C 84.660861 5.297512 84.649998 5.686129 84.645879 6.464658 C 84.64176 7.243187 84.633589 8.157124 84.632671 9.2132 C 84.626316 10.262976 84.622288 11.200818 84.620155 12.032595 C 84.622348 13.206904 84.626594 13.79134 84.638331 13.792203 C 84.638945 14.104961 84.683487 14.462249 84.783696 14.864931 C 85.01769 15.855669 85.653922 16.35085 86.69826 16.350905 C 87.358987 16.352266 87.857892 16.147025 88.182807 15.740189 C 88.508152 15.327483 88.666329 14.86119 88.669507 14.336302 C 88.66794 13.875968 88.694932 13.187624 88.744614 12.270838 L 88.744353 12.194115 C 88.748235 12.141298 88.764716 12.077607 88.800098 11.997604 C 88.840916 11.923901 88.885016 11.885841 88.938264 11.883854 C 88.985212 11.887305 89.024998 11.90793 89.068927 11.95246 C 89.474299 12.377571 89.846878 12.847473 90.186664 13.362167 L 90.669543 14.017184 C 91.001042 14.484067 91.454487 14.977614 92.035745 15.498255 C 92.617435 16.013029 93.262895 16.302379 93.96712 16.354139 Z M 97.386911 16.145273 C 97.817471 16.147417 98.187097 16.015278 98.507097 15.755586 C 98.827528 15.490026 99.089443 15.137561 99.292412 14.704061 C 99.314762 14.640801 99.347987 14.590141 99.386649 14.545781 C 99.43118 14.501852 99.58635 14.477855 99.851728 14.47966 L 101.03648 14.495935 L 102.364234 14.49322 C 102.617875 14.494162 102.797473 14.619467 102.891722 14.862404 C 103.097995 15.26698 103.36485 15.569806 103.692285 15.770879 C 104.02602 15.966515 104.361219 16.061955 104.697451 16.063067 C 105.021946 16.063316 105.316406 15.990555 105.581262 15.838915 C 105.845686 15.693143 106.056601 15.472635 106.201839 15.182398 C 106.312557 14.960426 106.364591 14.734141 106.363376 14.509843 C 106.365611 14.238596 106.264971 13.841783 106.061025 13.325273 C 105.783715 12.602762 105.31238 11.228764 104.652024 9.215448 C 104.182414 7.817977 103.773135 6.643248 103.41832 5.690832 C 103.069804 4.732978 102.752108 4.078302 102.476967 3.727665 C 102.084194 3.29168 101.622645 3.068949 101.097326 3.07164 C 100.64916 3.068201 100.24674 3.245132 99.885491 3.584396 C 99.821629 3.650505 99.763637 3.717045 99.71065 3.795754 C 99.59967 3.941003 99.402569 4.374935 99.11978 5.09168 C 98.978685 5.405823 97.850977 8.225856 95.736655 13.551779 C 95.633792 13.82743 95.577877 14.106532 95.581078 14.384079 C 95.579535 14.726179 95.661014 15.062581 95.818784 15.404591 C 95.957393 15.68619 96.12724 15.86388 96.327895 15.943531 C 96.52268 16.02275 96.713754 16.072195 96.888947 16.096872 L 97.023493 16.112662 C 97.145869 16.133457 97.269108 16.142515 97.386911 16.145273 Z M 101.033535 11.244686 C 100.856616 11.243483 100.763582 11.224844 100.760733 11.183333 C 100.815876 11.075282 100.890782 10.939182 100.99175 10.769595 C 101.08685 10.599578 101.157181 10.445441 101.214913 10.302178 C 101.244256 10.304335 101.273167 10.31236 101.29621 10.319954 C 101.377859 10.573765 101.462527 10.786496 101.545209 10.94598 C 101.613305 11.063089 101.642909 11.141968 101.645758 11.183479 C 101.644033 11.206954 101.637733 11.212391 101.613827 11.216534 Z M 107.790171 16.29038 C 110.209212 16.29117 112.008411 15.573776 113.181469 14.143633 C 114.191855 12.919842 114.706944 11.370536 114.720438 9.501151 C 114.720924 8.450944 114.506692 7.432157 114.077311 6.450659 C 113.64793 5.469161 112.963274 4.669509 112.017473 4.051271 C 111.077541 3.433464 109.832627 3.111854 108.2823 3.09231 C 107.72807 3.086976 107.232877 3.321991 106.785847 3.784755 C 106.344686 4.24795 106.102885 4.808401 106.060013 5.471977 C 106.030694 6.272255 106.012353 7.645663 106.011289 9.586765 L 106.028353 11.682604 C 106.026755 13.069044 106.034373 13.848435 106.04577 14.01448 C 106.075295 14.335263 106.168942 14.666659 106.314544 15.013675 C 106.466014 15.361121 106.668314 15.659202 106.926882 15.914216 C 107.180013 16.16293 107.465676 16.290131 107.790171 16.29038 Z M 109.884992 11.069228 C 109.849349 11.072509 109.838044 11.065777 109.833038 11.053609 C 109.848396 10.924932 109.852855 9.981222 109.852285 8.222908 C 109.86031 8.193996 109.885078 8.178116 109.914852 8.174404 C 109.991574 8.174143 110.094189 8.222987 110.228564 8.321367 C 110.36337 8.413878 110.481694 8.570081 110.589837 8.784538 C 110.69798 8.998995 110.747267 9.291729 110.749436 9.663604 C 110.74703 10.017442 110.691114 10.296543 110.57539 10.506347 C 110.454228 10.70985 110.325211 10.859674 110.177465 10.943219 C 110.035587 11.027195 109.937809 11.07311 109.884992 11.069228 Z M 117.680451 16.350581 C 118.134916 16.348583 118.672404 16.340886 119.293345 16.321622 C 119.736936 16.307024 120.232913 16.302176 120.782137 16.295342 C 121.325062 16.293944 121.797474 16.128058 122.193072 15.80312 C 122.594969 15.472744 122.793364 15.021207 122.795417 14.431334 C 122.79704 13.847329 122.644616 13.352307 122.337283 12.958003 C 122.035819 12.56413 121.651424 12.335269 121.184097 12.27142 C 120.210612 12.270672 119.449689 12.267847 118.890021 12.256213 C 118.82003 12.245168 118.769801 12.206075 118.756509 12.146096 C 118.737779 12.079816 118.732512 11.990926 118.734408 11.884861 C 118.730435 11.778364 118.741479 11.708373 118.762536 11.662719 C 118.783161 11.622933 118.844003 11.597904 118.939193 11.5872 C 119.034815 11.570627 119.194991 11.558799 119.419721 11.551715 L 120.159758 11.517604 C 120.295166 11.521656 120.490122 11.518284 120.737894 11.518795 C 120.991535 11.519736 121.242327 11.479167 121.501576 11.403818 C 122.080052 11.239827 122.366384 10.635446 122.365576 9.602845 C 122.363146 9.154248 122.281236 8.823714 122.108108 8.610381 C 121.820367 8.27062 121.354936 8.100705 120.700078 8.099775 C 119.998271 8.095395 119.5325 8.090662 119.309496 8.074272 C 119.080623 8.05745 118.947803 8.018186 118.910174 7.968219 C 118.867107 7.911951 118.843372 7.833504 118.845267 7.727439 L 118.844144 7.662453 L 118.82748 7.407518 C 118.833087 7.331227 118.877618 7.287298 118.973671 7.264857 C 119.185801 7.268648 119.499853 7.250429 119.915395 7.216068 C 120.461339 7.173591 120.941004 7.149844 121.359827 7.151126 C 121.837767 7.150853 122.194794 7.029588 122.42504 6.7869 C 122.78974 6.400688 122.973548 5.906777 122.971027 5.298867 C 122.971355 4.732468 122.850692 4.286982 122.602737 3.967845 C 122.137726 3.390845 121.391638 3.105898 120.364905 3.107137 L 116.523782 3.108029 C 115.504473 3.168816 114.936792 3.587311 114.832045 4.370244 C 114.807799 4.539569 114.79789 5.075763 114.796019 5.984262 C 114.79543 6.473939 114.799846 6.975784 114.8034 7.489366 C 114.806953 8.002949 114.810677 8.43394 114.82044 8.782772 C 114.823903 9.137041 114.834437 9.314822 114.846605 9.309816 L 114.831082 12.571509 C 114.832582 13.674964 114.890429 14.493449 115.004191 15.032832 C 115.123822 15.572647 115.381357 15.921989 115.787671 16.093459 C 116.193985 16.264928 116.824768 16.352592 117.680451 16.350581 Z M 117.680451 16.350581 " stroke="#233d4d" stroke-width="0.8" stroke-opacity="1" stroke-miterlimit="4"/><g fill="#ffffff" fill-opacity="1"><g transform="translate(12.078595, 61.2901)"><g><path d="M 2.828125 -0.046875 C 3.609375 -0.128906 4.242188 -0.320312 4.734375 -0.625 C 5.222656 -0.9375 5.570312 -1.316406 5.78125 -1.765625 C 5.988281 -2.210938 6.070312 -2.664062 6.03125 -3.125 C 6 -3.644531 5.8125 -4.132812 5.46875 -4.59375 C 5.070312 -5.132812 4.492188 -5.472656 3.734375 -5.609375 C 3.472656 -5.660156 3.222656 -5.738281 2.984375 -5.84375 C 2.753906 -5.945312 2.613281 -6.148438 2.5625 -6.453125 C 2.5625 -6.523438 2.582031 -6.59375 2.625 -6.65625 C 2.675781 -6.71875 2.722656 -6.75 2.765625 -6.75 C 2.847656 -6.738281 2.90625 -6.679688 2.9375 -6.578125 C 2.976562 -6.484375 3.078125 -6.34375 3.234375 -6.15625 C 3.441406 -5.925781 3.71875 -5.820312 4.0625 -5.84375 C 4.25 -5.851562 4.425781 -5.910156 4.59375 -6.015625 C 4.769531 -6.117188 4.894531 -6.257812 4.96875 -6.4375 C 5.039062 -6.625 5.070312 -6.8125 5.0625 -7 C 5.039062 -7.289062 4.929688 -7.570312 4.734375 -7.84375 C 4.546875 -8.113281 4.300781 -8.332031 4 -8.5 C 3.53125 -8.726562 3.035156 -8.828125 2.515625 -8.796875 C 1.921875 -8.753906 1.363281 -8.53125 0.84375 -8.125 C 0.320312 -7.71875 -0.0195312 -7.132812 -0.1875 -6.375 C -0.21875 -6.175781 -0.222656 -5.992188 -0.203125 -5.828125 C -0.140625 -4.941406 0.519531 -4.238281 1.78125 -3.71875 C 1.914062 -3.644531 2.007812 -3.59375 2.0625 -3.5625 C 2.507812 -3.300781 2.738281 -3.078125 2.75 -2.890625 C 2.757812 -2.816406 2.742188 -2.753906 2.703125 -2.703125 C 2.660156 -2.660156 2.601562 -2.640625 2.53125 -2.640625 C 2.425781 -2.628906 2.328125 -2.664062 2.234375 -2.75 C 1.753906 -3.1875 1.320312 -3.390625 0.9375 -3.359375 C 0.644531 -3.335938 0.40625 -3.21875 0.21875 -3 C 0.03125 -2.78125 -0.0507812 -2.5 -0.03125 -2.15625 C 0.0078125 -1.601562 0.328125 -1.054688 0.921875 -0.515625 C 1.265625 -0.253906 1.765625 -0.101562 2.421875 -0.0625 C 2.648438 -0.0507812 2.785156 -0.046875 2.828125 -0.046875 Z M 2.828125 -0.046875 "/></g></g></g><g fill="#ffffff" fill-opacity="1"><g transform="translate(17.925826, 60.860333)"><g><path d="M 0.90625 0.03125 C 1.1875 0.0078125 1.425781 -0.09375 1.625 -0.28125 C 1.832031 -0.46875 1.992188 -0.710938 2.109375 -1.015625 C 2.117188 -1.054688 2.132812 -1.09375 2.15625 -1.125 C 2.1875 -1.164062 2.289062 -1.191406 2.46875 -1.203125 L 3.234375 -1.25 L 4.109375 -1.3125 C 4.285156 -1.320312 4.410156 -1.242188 4.484375 -1.078125 C 4.640625 -0.816406 4.832031 -0.628906 5.0625 -0.515625 C 5.289062 -0.398438 5.519531 -0.351562 5.75 -0.375 C 5.957031 -0.394531 6.144531 -0.457031 6.3125 -0.5625 C 6.488281 -0.675781 6.613281 -0.835938 6.6875 -1.046875 C 6.75 -1.191406 6.773438 -1.335938 6.765625 -1.484375 C 6.753906 -1.671875 6.671875 -1.929688 6.515625 -2.265625 C 6.296875 -2.734375 5.921875 -3.613281 5.390625 -4.90625 C 5.003906 -5.8125 4.671875 -6.570312 4.390625 -7.1875 C 4.109375 -7.800781 3.867188 -8.222656 3.671875 -8.453125 C 3.390625 -8.710938 3.078125 -8.832031 2.734375 -8.8125 C 2.429688 -8.789062 2.171875 -8.660156 1.953125 -8.421875 C 1.921875 -8.378906 1.882812 -8.328125 1.84375 -8.265625 C 1.789062 -8.160156 1.679688 -7.867188 1.515625 -7.390625 C 1.441406 -7.160156 0.832031 -5.234375 -0.3125 -1.609375 C -0.363281 -1.421875 -0.382812 -1.238281 -0.375 -1.0625 C -0.351562 -0.832031 -0.285156 -0.601562 -0.171875 -0.375 C -0.0664062 -0.195312 0.0507812 -0.0859375 0.1875 -0.046875 C 0.320312 -0.00390625 0.453125 0.015625 0.578125 0.015625 L 0.65625 0.03125 C 0.738281 0.03125 0.820312 0.03125 0.90625 0.03125 Z M 3.078125 -3.390625 C 2.953125 -3.378906 2.890625 -3.390625 2.890625 -3.421875 C 2.929688 -3.484375 2.976562 -3.570312 3.03125 -3.6875 C 3.082031 -3.8125 3.117188 -3.921875 3.140625 -4.015625 C 3.160156 -4.015625 3.179688 -4.007812 3.203125 -4 C 3.273438 -3.84375 3.34375 -3.710938 3.40625 -3.609375 C 3.457031 -3.535156 3.484375 -3.488281 3.484375 -3.46875 C 3.484375 -3.445312 3.472656 -3.429688 3.453125 -3.421875 Z M 3.078125 -3.390625 "/></g></g></g><g fill="#ffffff" fill-opacity="1"><g transform="translate(24.164987, 60.401759)"><g><path d="M 3.375 -0.15625 C 3.757812 -0.1875 4.070312 -0.332031 4.3125 -0.59375 C 4.550781 -0.863281 4.664062 -1.226562 4.65625 -1.6875 L 4.53125 -3.375 L 4.40625 -4.9375 C 4.375 -5.457031 4.363281 -5.796875 4.375 -5.953125 C 4.363281 -6.046875 4.382812 -6.109375 4.4375 -6.140625 C 4.488281 -6.179688 4.53125 -6.203125 4.5625 -6.203125 C 4.757812 -6.222656 4.976562 -6.25 5.21875 -6.28125 C 5.457031 -6.320312 5.671875 -6.398438 5.859375 -6.515625 C 6.265625 -6.796875 6.441406 -7.25 6.390625 -7.875 C 6.367188 -8.238281 6.253906 -8.503906 6.046875 -8.671875 C 5.835938 -8.847656 5.613281 -8.957031 5.375 -9 C 5.132812 -9.050781 4.945312 -9.070312 4.8125 -9.0625 L 1.125 -8.78125 C 0.75 -8.757812 0.394531 -8.65625 0.0625 -8.46875 C -0.445312 -8.1875 -0.679688 -7.757812 -0.640625 -7.1875 C -0.617188 -6.882812 -0.5 -6.628906 -0.28125 -6.421875 C -0.0703125 -6.210938 0.140625 -6.078125 0.359375 -6.015625 C 0.460938 -5.972656 0.582031 -5.945312 0.71875 -5.9375 C 0.851562 -5.9375 1.054688 -5.945312 1.328125 -5.96875 C 1.390625 -5.976562 1.457031 -5.972656 1.53125 -5.953125 C 1.613281 -5.941406 1.65625 -5.890625 1.65625 -5.796875 C 1.78125 -4.835938 1.90625 -3.523438 2.03125 -1.859375 L 2.0625 -1.390625 C 2.0625 -1.378906 2.078125 -1.304688 2.109375 -1.171875 C 2.148438 -1.035156 2.222656 -0.882812 2.328125 -0.71875 C 2.429688 -0.5625 2.5625 -0.421875 2.71875 -0.296875 C 2.882812 -0.179688 3.101562 -0.132812 3.375 -0.15625 Z M 3.375 -0.15625 "/></g></g></g><g fill="#ffffff" fill-opacity="1"><g transform="translate(30.594824, 59.92917)"><g/></g></g><g fill="#ffffff" fill-opacity="1"><g transform="translate(34.302306, 59.656673)"><g><path d="M 4.5625 -0.15625 C 4.875 -0.1875 5.144531 -0.335938 5.375 -0.609375 C 5.613281 -0.878906 5.734375 -1.273438 5.734375 -1.796875 C 5.703125 -3.222656 5.660156 -4.285156 5.609375 -4.984375 C 5.578125 -5.347656 5.515625 -6.0625 5.421875 -7.125 C 5.390625 -7.539062 5.265625 -7.921875 5.046875 -8.265625 C 4.859375 -8.546875 4.660156 -8.71875 4.453125 -8.78125 C 4.242188 -8.851562 4.0625 -8.882812 3.90625 -8.875 C 3.800781 -8.875 3.6875 -8.863281 3.5625 -8.84375 C 3.445312 -8.832031 3.3125 -8.800781 3.15625 -8.75 C 3 -8.695312 2.800781 -8.550781 2.5625 -8.3125 C 2.320312 -8.082031 2 -7.710938 1.59375 -7.203125 C 1.1875 -6.703125 0.679688 -6.007812 0.078125 -5.125 C -0.179688 -4.71875 -0.300781 -4.351562 -0.28125 -4.03125 C -0.257812 -3.800781 -0.175781 -3.601562 -0.03125 -3.4375 C 0.1875 -3.164062 0.492188 -3.007812 0.890625 -2.96875 C 1.035156 -2.957031 1.25 -2.953125 1.53125 -2.953125 C 1.820312 -2.960938 2.285156 -2.988281 2.921875 -3.03125 C 2.960938 -3.03125 2.988281 -3.019531 3 -3 C 3.007812 -2.976562 3.019531 -2.941406 3.03125 -2.890625 L 3.03125 -2.71875 C 3.03125 -2.59375 3.039062 -2.390625 3.0625 -2.109375 L 3.109375 -1.734375 C 3.171875 -1.179688 3.347656 -0.773438 3.640625 -0.515625 C 3.929688 -0.253906 4.238281 -0.132812 4.5625 -0.15625 Z M 2.9375 -4.765625 L 2.828125 -4.78125 C 2.785156 -4.78125 2.757812 -4.800781 2.75 -4.84375 C 2.75 -4.863281 2.753906 -4.878906 2.765625 -4.890625 L 2.890625 -5.078125 C 2.972656 -5.242188 3.035156 -5.328125 3.078125 -5.328125 C 3.085938 -5.328125 3.097656 -5.3125 3.109375 -5.28125 C 3.140625 -5.207031 3.15625 -5.140625 3.15625 -5.078125 C 3.175781 -4.898438 3.101562 -4.796875 2.9375 -4.765625 Z M 2.9375 -4.765625 "/></g></g></g><g fill="#ffffff" fill-opacity="1"><g transform="translate(40.001239, 59.237805)"><g><path d="M 1.421875 0.171875 C 1.691406 0.148438 1.910156 0.0234375 2.078125 -0.203125 C 2.253906 -0.429688 2.410156 -0.691406 2.546875 -0.984375 L 3.21875 -2.546875 C 3.882812 -3.992188 4.546875 -5.53125 5.203125 -7.15625 C 5.359375 -7.488281 5.425781 -7.828125 5.40625 -8.171875 C 5.375 -8.609375 5.15625 -8.910156 4.75 -9.078125 C 4.488281 -9.179688 4.269531 -9.222656 4.09375 -9.203125 C 3.894531 -9.191406 3.734375 -9.132812 3.609375 -9.03125 C 3.390625 -8.851562 3.203125 -8.570312 3.046875 -8.1875 C 2.984375 -8.082031 2.519531 -7.015625 1.65625 -4.984375 L 0.28125 -1.84375 C 0.175781 -1.5 0.132812 -1.203125 0.15625 -0.953125 C 0.1875 -0.472656 0.476562 -0.113281 1.03125 0.125 C 1.175781 0.164062 1.304688 0.179688 1.421875 0.171875 Z M 1.421875 0.171875 "/></g></g></g><g fill="#ffffff" fill-opacity="1"><g transform="translate(45.647207, 58.822831)"><g><path d="M 2.375 0.046875 C 2.71875 0.0234375 3.09375 -0.00390625 3.5 -0.046875 L 4.4375 -0.140625 C 4.976562 -0.203125 5.394531 -0.351562 5.6875 -0.59375 C 5.988281 -0.84375 6.125 -1.144531 6.09375 -1.5 C 6.0625 -1.875 5.96875 -2.140625 5.8125 -2.296875 C 5.664062 -2.460938 5.488281 -2.5625 5.28125 -2.59375 C 5.082031 -2.632812 4.882812 -2.648438 4.6875 -2.640625 L 4.296875 -2.609375 C 4.054688 -2.585938 3.9375 -2.617188 3.9375 -2.703125 C 3.925781 -2.773438 3.960938 -2.859375 4.046875 -2.953125 C 4.140625 -3.054688 4.222656 -3.140625 4.296875 -3.203125 C 4.378906 -3.273438 4.4375 -3.328125 4.46875 -3.359375 C 4.945312 -3.796875 5.296875 -4.242188 5.515625 -4.703125 C 5.734375 -5.171875 5.820312 -5.632812 5.78125 -6.09375 C 5.726562 -6.894531 5.3125 -7.617188 4.53125 -8.265625 C 4.0625 -8.628906 3.519531 -8.789062 2.90625 -8.75 C 2.394531 -8.707031 1.90625 -8.539062 1.4375 -8.25 C 0.976562 -7.96875 0.597656 -7.632812 0.296875 -7.25 C -0.00390625 -6.863281 -0.164062 -6.476562 -0.1875 -6.09375 L -0.1875 -5.953125 C -0.15625 -5.597656 0 -5.273438 0.28125 -4.984375 C 0.570312 -4.691406 0.90625 -4.5625 1.28125 -4.59375 C 1.65625 -4.613281 2.003906 -4.820312 2.328125 -5.21875 L 2.53125 -5.4375 C 2.820312 -5.71875 3.007812 -5.859375 3.09375 -5.859375 C 3.101562 -5.867188 3.113281 -5.863281 3.125 -5.84375 L 3.125 -5.828125 C 3.195312 -5.773438 3.238281 -5.703125 3.25 -5.609375 C 3.257812 -5.378906 3.09375 -5.066406 2.75 -4.671875 C 2.40625 -4.273438 2.023438 -3.875 1.609375 -3.46875 C 1.296875 -3.15625 1.035156 -2.882812 0.828125 -2.65625 C 0.253906 -2.21875 -0.0078125 -1.675781 0.03125 -1.03125 C 0.0390625 -0.9375 0.0546875 -0.847656 0.078125 -0.765625 C 0.160156 -0.367188 0.394531 -0.117188 0.78125 -0.015625 C 1.164062 0.078125 1.695312 0.0976562 2.375 0.046875 Z M 2.375 0.046875 "/></g></g></g><g fill="#ffffff" fill-opacity="1"><g transform="translate(51.42029, 58.398513)"><g><path d="M 3.375 -0.09375 C 3.945312 -0.132812 4.453125 -0.3125 4.890625 -0.625 C 5.335938 -0.9375 5.6875 -1.414062 5.9375 -2.0625 C 6.101562 -2.488281 6.171875 -2.878906 6.140625 -3.234375 C 6.109375 -3.628906 5.976562 -3.972656 5.75 -4.265625 C 5.53125 -4.566406 5.242188 -4.800781 4.890625 -4.96875 C 4.546875 -5.144531 4.175781 -5.25 3.78125 -5.28125 C 3.445312 -5.320312 3.273438 -5.4375 3.265625 -5.625 C 3.253906 -5.707031 3.269531 -5.789062 3.3125 -5.875 L 3.328125 -6 C 3.421875 -6 3.539062 -6.003906 3.6875 -6.015625 C 3.84375 -6.035156 4.023438 -6.0625 4.234375 -6.09375 C 4.835938 -6.132812 5.253906 -6.28125 5.484375 -6.53125 C 5.722656 -6.78125 5.835938 -7.09375 5.828125 -7.46875 C 5.804688 -7.832031 5.6875 -8.148438 5.46875 -8.421875 C 5.25 -8.691406 4.988281 -8.835938 4.6875 -8.859375 C 4.25 -8.867188 3.023438 -8.800781 1.015625 -8.65625 C 0.429688 -8.582031 0.0976562 -8.265625 0.015625 -7.703125 C -0.00390625 -7.578125 -0.0195312 -7.328125 -0.03125 -6.953125 C -0.0390625 -6.578125 -0.03125 -6.175781 0 -5.75 C 0.0078125 -5.550781 0.0351562 -5.328125 0.078125 -5.078125 C 0.109375 -4.703125 0.160156 -4.398438 0.234375 -4.171875 C 0.316406 -3.941406 0.492188 -3.757812 0.765625 -3.625 C 0.847656 -3.59375 0.992188 -3.585938 1.203125 -3.609375 L 2.171875 -3.6875 C 2.367188 -3.707031 2.523438 -3.710938 2.640625 -3.703125 C 2.929688 -3.597656 3.085938 -3.410156 3.109375 -3.140625 C 3.117188 -3.023438 3.101562 -2.914062 3.0625 -2.8125 C 3.019531 -2.71875 2.96875 -2.65625 2.90625 -2.625 C 2.851562 -2.601562 2.800781 -2.59375 2.75 -2.59375 C 2.644531 -2.582031 2.523438 -2.601562 2.390625 -2.65625 C 2.265625 -2.707031 2.132812 -2.769531 2 -2.84375 C 1.863281 -2.914062 1.726562 -2.976562 1.59375 -3.03125 C 1.457031 -3.082031 1.328125 -3.101562 1.203125 -3.09375 L 1.125 -3.078125 C 0.757812 -2.992188 0.5 -2.820312 0.34375 -2.5625 C 0.195312 -2.3125 0.132812 -2.050781 0.15625 -1.78125 C 0.175781 -1.457031 0.3125 -1.1875 0.5625 -0.96875 C 1.226562 -0.488281 1.984375 -0.195312 2.828125 -0.09375 C 3.015625 -0.0820312 3.195312 -0.0820312 3.375 -0.09375 Z M 3.375 -0.09375 "/></g></g></g><g fill="#ffffff" fill-opacity="1"><g transform="translate(57.320484, 57.964853)"><g/></g></g><g fill="#ffffff" fill-opacity="1"><g transform="translate(61.027964, 57.692356)"><g><path d="M 2.453125 0.078125 C 2.710938 0.0546875 2.941406 -0.0546875 3.140625 -0.265625 C 3.347656 -0.484375 3.488281 -0.8125 3.5625 -1.25 C 3.570312 -1.332031 3.554688 -1.617188 3.515625 -2.109375 C 3.472656 -3.054688 3.40625 -4.144531 3.3125 -5.375 L 3.203125 -7.140625 C 3.171875 -7.484375 3.125 -7.734375 3.0625 -7.890625 C 3.007812 -8.054688 2.910156 -8.195312 2.765625 -8.3125 C 2.441406 -8.539062 2.125 -8.640625 1.8125 -8.609375 C 1.476562 -8.585938 1.175781 -8.4375 0.90625 -8.15625 C 0.644531 -7.875 0.332031 -7.503906 -0.03125 -7.046875 C -0.28125 -6.710938 -0.394531 -6.410156 -0.375 -6.140625 C -0.351562 -5.878906 -0.238281 -5.664062 -0.03125 -5.5 C 0.164062 -5.34375 0.40625 -5.273438 0.6875 -5.296875 L 0.734375 -5.3125 C 0.765625 -5.3125 0.789062 -5.273438 0.8125 -5.203125 C 0.875 -5.015625 0.941406 -4.429688 1.015625 -3.453125 L 1.046875 -2.921875 C 1.066406 -2.648438 1.09375 -2.398438 1.125 -2.171875 C 1.164062 -1.941406 1.191406 -1.71875 1.203125 -1.5 L 1.203125 -1.3125 C 1.242188 -0.84375 1.390625 -0.488281 1.640625 -0.25 C 1.898438 -0.0078125 2.171875 0.0976562 2.453125 0.078125 Z M 2.453125 0.078125 "/></g></g></g><g fill="#ffffff" fill-opacity="1"><g transform="translate(64.512996, 57.436208)"><g><path d="M 2.375 0.046875 C 2.71875 0.0234375 3.09375 -0.00390625 3.5 -0.046875 L 4.4375 -0.140625 C 4.976562 -0.203125 5.394531 -0.351562 5.6875 -0.59375 C 5.988281 -0.84375 6.125 -1.144531 6.09375 -1.5 C 6.0625 -1.875 5.96875 -2.140625 5.8125 -2.296875 C 5.664062 -2.460938 5.488281 -2.5625 5.28125 -2.59375 C 5.082031 -2.632812 4.882812 -2.648438 4.6875 -2.640625 L 4.296875 -2.609375 C 4.054688 -2.585938 3.9375 -2.617188 3.9375 -2.703125 C 3.925781 -2.773438 3.960938 -2.859375 4.046875 -2.953125 C 4.140625 -3.054688 4.222656 -3.140625 4.296875 -3.203125 C 4.378906 -3.273438 4.4375 -3.328125 4.46875 -3.359375 C 4.945312 -3.796875 5.296875 -4.242188 5.515625 -4.703125 C 5.734375 -5.171875 5.820312 -5.632812 5.78125 -6.09375 C 5.726562 -6.894531 5.3125 -7.617188 4.53125 -8.265625 C 4.0625 -8.628906 3.519531 -8.789062 2.90625 -8.75 C 2.394531 -8.707031 1.90625 -8.539062 1.4375 -8.25 C 0.976562 -7.96875 0.597656 -7.632812 0.296875 -7.25 C -0.00390625 -6.863281 -0.164062 -6.476562 -0.1875 -6.09375 L -0.1875 -5.953125 C -0.15625 -5.597656 0 -5.273438 0.28125 -4.984375 C 0.570312 -4.691406 0.90625 -4.5625 1.28125 -4.59375 C 1.65625 -4.613281 2.003906 -4.820312 2.328125 -5.21875 L 2.53125 -5.4375 C 2.820312 -5.71875 3.007812 -5.859375 3.09375 -5.859375 C 3.101562 -5.867188 3.113281 -5.863281 3.125 -5.84375 L 3.125 -5.828125 C 3.195312 -5.773438 3.238281 -5.703125 3.25 -5.609375 C 3.257812 -5.378906 3.09375 -5.066406 2.75 -4.671875 C 2.40625 -4.273438 2.023438 -3.875 1.609375 -3.46875 C 1.296875 -3.15625 1.035156 -2.882812 0.828125 -2.65625 C 0.253906 -2.21875 -0.0078125 -1.675781 0.03125 -1.03125 C 0.0390625 -0.9375 0.0546875 -0.847656 0.078125 -0.765625 C 0.160156 -0.367188 0.394531 -0.117188 0.78125 -0.015625 C 1.164062 0.078125 1.695312 0.0976562 2.375 0.046875 Z M 2.375 0.046875 "/></g></g></g><g fill="#ffffff" fill-opacity="1"><g transform="translate(70.286076, 57.011891)"><g><path d="M 1.6875 0.03125 C 2.039062 0.0078125 2.34375 -0.148438 2.59375 -0.453125 C 2.84375 -0.753906 2.984375 -1.109375 3.015625 -1.515625 C 3.035156 -2.003906 3.039062 -2.3125 3.03125 -2.4375 C 3.019531 -2.539062 3.019531 -2.597656 3.03125 -2.609375 C 3.039062 -2.617188 3.113281 -2.628906 3.25 -2.640625 C 3.96875 -2.773438 4.539062 -3.015625 4.96875 -3.359375 C 5.394531 -3.710938 5.691406 -4.125 5.859375 -4.59375 C 6.023438 -5.0625 6.09375 -5.53125 6.0625 -6 C 6.007812 -6.707031 5.753906 -7.3125 5.296875 -7.8125 C 4.972656 -8.15625 4.664062 -8.398438 4.375 -8.546875 C 4.09375 -8.703125 3.765625 -8.785156 3.390625 -8.796875 C 3.015625 -8.804688 2.5 -8.789062 1.84375 -8.75 L 0.921875 -8.671875 C 0.691406 -8.660156 0.457031 -8.535156 0.21875 -8.296875 C -0.0078125 -8.054688 -0.132812 -7.757812 -0.15625 -7.40625 C -0.15625 -7.101562 -0.128906 -6.644531 -0.078125 -6.03125 L 0 -4.890625 C 0.0625 -4.140625 0.15625 -2.976562 0.28125 -1.40625 L 0.28125 -1.328125 C 0.332031 -0.648438 0.664062 -0.210938 1.28125 -0.015625 C 1.425781 0.0234375 1.5625 0.0390625 1.6875 0.03125 Z M 2.96875 -4.9375 C 2.945312 -4.925781 2.921875 -4.9375 2.890625 -4.96875 L 2.875 -4.984375 C 2.863281 -4.992188 2.851562 -5.023438 2.84375 -5.078125 L 2.796875 -5.890625 C 2.796875 -6.015625 2.832031 -6.082031 2.90625 -6.09375 C 2.988281 -6.09375 3.078125 -6.03125 3.171875 -5.90625 C 3.265625 -5.789062 3.316406 -5.679688 3.328125 -5.578125 C 3.335938 -5.472656 3.316406 -5.367188 3.265625 -5.265625 C 3.222656 -5.171875 3.171875 -5.09375 3.109375 -5.03125 C 3.046875 -4.96875 3 -4.9375 2.96875 -4.9375 Z M 2.96875 -4.9375 "/></g></g></g><g fill="#ffffff" fill-opacity="1"><g transform="translate(76.345166, 56.566552)"><g><path d="M 1.71875 0.0625 C 2.164062 0.03125 2.503906 -0.125 2.734375 -0.40625 C 2.960938 -0.695312 3.070312 -1.085938 3.0625 -1.578125 L 3 -2.703125 C 3 -2.742188 3.019531 -2.765625 3.0625 -2.765625 L 3.125 -2.765625 C 3.195312 -2.710938 3.28125 -2.644531 3.375 -2.5625 C 3.507812 -2.4375 3.660156 -2.304688 3.828125 -2.171875 C 4.003906 -2.046875 4.1875 -1.988281 4.375 -2 C 4.519531 -2.03125 4.664062 -2.109375 4.8125 -2.234375 C 4.96875 -2.359375 5.109375 -2.492188 5.234375 -2.640625 C 5.367188 -2.785156 5.492188 -2.90625 5.609375 -3 L 5.671875 -3.03125 C 5.753906 -3.03125 5.800781 -2.992188 5.8125 -2.921875 L 5.8125 -2.75 C 5.8125 -2.65625 5.816406 -2.554688 5.828125 -2.453125 C 5.890625 -1.910156 5.957031 -1.519531 6.03125 -1.28125 C 6.101562 -1.039062 6.222656 -0.84375 6.390625 -0.6875 C 6.679688 -0.46875 6.992188 -0.367188 7.328125 -0.390625 C 7.566406 -0.410156 7.78125 -0.492188 7.96875 -0.640625 C 8.164062 -0.785156 8.289062 -1.003906 8.34375 -1.296875 L 8.359375 -1.34375 C 8.359375 -1.382812 8.363281 -1.453125 8.375 -1.546875 C 8.414062 -2.035156 8.335938 -3.816406 8.140625 -6.890625 C 8.097656 -7.328125 8.050781 -7.671875 8 -7.921875 C 7.957031 -8.171875 7.867188 -8.398438 7.734375 -8.609375 C 7.515625 -8.929688 7.21875 -9.078125 6.84375 -9.046875 C 6.644531 -9.035156 6.445312 -8.972656 6.25 -8.859375 C 6.0625 -8.742188 5.890625 -8.5625 5.734375 -8.3125 C 5.171875 -7.375 4.785156 -6.726562 4.578125 -6.375 C 4.335938 -5.976562 4.195312 -5.757812 4.15625 -5.71875 C 4.113281 -5.6875 4.085938 -5.671875 4.078125 -5.671875 C 4.066406 -5.671875 4.046875 -5.679688 4.015625 -5.703125 C 3.992188 -5.722656 3.96875 -5.742188 3.9375 -5.765625 L 1.984375 -8.1875 C 1.828125 -8.375 1.65625 -8.503906 1.46875 -8.578125 C 1.289062 -8.660156 1.113281 -8.691406 0.9375 -8.671875 C 0.65625 -8.648438 0.421875 -8.53125 0.234375 -8.3125 C 0.117188 -8.175781 0.0351562 -7.976562 -0.015625 -7.71875 C -0.078125 -7.457031 -0.09375 -7.019531 -0.0625 -6.40625 C 0.125 -3.914062 0.226562 -2.429688 0.25 -1.953125 L 0.28125 -1.421875 C 0.300781 -1.253906 0.316406 -1.148438 0.328125 -1.109375 C 0.429688 -0.703125 0.628906 -0.398438 0.921875 -0.203125 C 1.222656 -0.00390625 1.488281 0.0820312 1.71875 0.0625 Z M 1.71875 0.0625 "/></g></g></g><path stroke-linecap="butt" transform="matrix(0.662049, -0.0486602, 0.0486602, 0.662049, -0.34259, 36.909272)" fill="none" stroke-linejoin="miter" d="M 20.204551 38.238958 C 21.404491 38.209148 22.38263 37.986028 23.144404 37.575899 C 23.906178 37.16577 24.470317 36.63491 24.830953 35.982889 C 25.191589 35.330868 25.3766 34.660038 25.374249 33.969537 C 25.374225 33.167102 25.152321 32.413262 24.703529 31.695849 C 24.158594 30.841563 23.327145 30.273031 22.209614 29.984385 C 21.815298 29.890501 21.448338 29.745524 21.108303 29.555325 C 20.7624 29.364695 20.57943 29.044434 20.541789 28.593249 C 20.555421 28.488047 20.597965 28.39087 20.669421 28.301718 C 20.746313 28.218866 20.820186 28.177093 20.896909 28.176832 C 20.989942 28.195471 21.066063 28.283669 21.119834 28.435127 C 21.174036 28.580717 21.30479 28.808636 21.518828 29.107579 C 21.809417 29.488852 22.208569 29.677496 22.72172 29.679811 C 23.011003 29.677472 23.281558 29.608854 23.54512 29.474819 C 23.803244 29.334484 24.006565 29.13702 24.143778 28.875694 C 24.28099 28.614368 24.348642 28.336128 24.352172 28.047276 C 24.348879 27.610416 24.221053 27.182104 23.962826 26.761908 C 23.698729 26.341281 23.353166 25.985469 22.914399 25.693609 C 22.241923 25.290168 21.51327 25.089106 20.722573 25.089993 C 19.814073 25.088122 18.944418 25.360516 18.119475 25.907608 C 17.289094 26.448401 16.720563 27.27985 16.402142 28.401093 C 16.327328 28.696506 16.289018 28.976902 16.288076 29.230543 C 16.29036 30.564166 17.204934 31.687529 19.037236 32.606934 C 19.24074 32.728096 19.382277 32.809302 19.455118 32.861857 C 20.118274 33.311815 20.450807 33.684371 20.446414 33.98496 C 20.450387 34.091456 20.408706 34.176896 20.32767 34.235843 C 20.247066 34.288921 20.15645 34.317662 20.044085 34.321204 C 19.89064 34.321726 19.742372 34.251826 19.616885 34.112798 C 18.932921 33.383999 18.304374 33.025089 17.732106 33.024329 C 17.295678 33.021753 16.923463 33.189104 16.616755 33.508775 C 16.315486 33.834746 16.160328 34.25996 16.163019 34.785279 C 16.160886 35.617056 16.577145 36.455984 17.410933 37.313799 C 17.897171 37.762554 18.625653 38.046207 19.58378 38.175631 C 19.934598 38.219117 20.145434 38.240513 20.204551 38.238958 Z M 26.158858 38.145574 C 26.589849 38.14185 26.959045 38.015579 27.279044 37.755887 C 27.599475 37.490327 27.861391 37.137862 28.06436 36.704362 C 28.08671 36.641102 28.119935 36.590442 28.158597 36.546082 C 28.203127 36.502153 28.358297 36.478156 28.623675 36.47996 L 29.808427 36.496236 L 31.136181 36.493521 C 31.389822 36.494463 31.56942 36.619768 31.663669 36.862704 C 31.869943 37.267281 32.136797 37.570106 32.464232 37.77118 C 32.797967 37.966816 33.133167 38.062256 33.475267 38.063799 C 33.793894 38.063617 34.088353 37.990856 34.353209 37.839216 C 34.617634 37.693444 34.828549 37.472936 34.973786 37.182699 C 35.084505 36.960727 35.136538 36.734442 35.135323 36.510144 C 35.13799 36.233028 35.036919 35.842084 34.832972 35.325574 C 34.555663 34.603063 34.090196 33.229497 33.423971 31.215749 C 32.954361 29.818278 32.545083 28.643549 32.190267 27.691133 C 31.841752 26.733279 31.524055 26.078602 31.248914 25.727966 C 30.856142 25.291981 30.394593 25.06925 29.869273 25.071941 C 29.421108 25.068502 29.019119 25.239565 28.657438 25.584697 C 28.593577 25.650806 28.535584 25.717346 28.482597 25.796055 C 28.371617 25.941304 28.174517 26.375236 27.891727 27.091981 C 27.750633 27.406124 26.622925 30.226157 24.514471 35.552511 C 24.405739 35.827731 24.349824 36.106833 24.353025 36.38438 C 24.351482 36.72648 24.432961 37.062882 24.5966 37.405323 C 24.72934 37.686491 24.899188 37.864181 25.099842 37.943832 C 25.294628 38.023051 25.485701 38.072496 25.666763 38.097605 L 25.79544 38.112962 C 25.917817 38.133757 26.041056 38.142815 26.158858 38.145574 Z M 29.811351 33.245418 C 29.628563 33.243784 29.535529 33.225145 29.53268 33.183634 C 29.587824 33.075583 29.66273 32.939482 29.763698 32.769896 C 29.858797 32.599879 29.92956 32.439873 29.98686 32.302479 C 30.016203 32.304635 30.045114 32.312661 30.068157 32.320254 C 30.149806 32.574066 30.234475 32.786797 30.323025 32.946712 C 30.385252 33.06339 30.420725 33.142701 30.417706 33.18378 C 30.416412 33.201386 30.40968 33.212692 30.385775 33.216835 Z M 39.328175 38.14587 C 39.918479 38.142055 40.398484 37.953126 40.774059 37.579514 C 41.155933 37.200465 41.360366 36.666768 41.392795 35.984723 L 41.4111 33.407663 L 41.395409 31.052314 C 41.394091 30.267485 41.407712 29.761065 41.442139 29.533486 C 41.45206 29.39851 41.494173 29.307201 41.568477 29.25956 C 41.643213 29.206051 41.704055 29.181022 41.745135 29.184041 C 42.052024 29.182996 42.395419 29.166934 42.757713 29.13456 C 43.131744 29.103048 43.450972 29.014407 43.727565 28.863629 C 44.368517 28.491822 44.688074 27.836781 44.692533 26.89307 C 44.691136 26.350145 44.54441 25.938145 44.258225 25.6575 C 43.972471 25.370986 43.650042 25.182081 43.296806 25.091216 C 42.944001 24.994482 42.658599 24.944004 42.446038 24.946081 L 36.882244 24.944263 C 36.315845 24.943935 35.770162 25.063134 35.245626 25.295992 C 34.458391 25.651148 34.065564 26.259501 34.067143 27.121053 C 34.062842 27.580955 34.21043 27.981219 34.509907 28.321843 C 34.809385 28.662468 35.111189 28.891159 35.421189 29.008347 C 35.587495 29.073673 35.761394 29.115955 35.954193 29.141926 C 36.146992 29.167898 36.440851 29.183596 36.847936 29.184015 C 36.954001 29.18591 37.065072 29.199974 37.180718 29.232075 C 37.290495 29.263745 37.349441 29.34478 37.363426 29.475613 C 37.434237 30.920477 37.470802 32.911546 37.473553 35.442951 L 37.469173 36.144758 C 37.46831 36.156495 37.489889 36.264286 37.533478 36.473998 C 37.577066 36.68371 37.666309 36.914478 37.78947 37.16544 C 37.923936 37.423134 38.107938 37.649066 38.352782 37.84997 C 38.598058 38.045005 38.921089 38.14545 39.328175 38.14587 Z M 56.413009 38.256946 C 56.873343 38.255379 57.294232 38.068005 57.676537 37.683088 C 58.064712 37.298601 58.284764 36.71295 58.337125 35.920266 C 58.441745 33.774368 58.499951 32.17968 58.500006 31.135342 C 58.499472 30.58068 58.478209 29.505273 58.448387 27.904116 C 58.446729 27.284469 58.306644 26.701849 58.034862 26.144951 C 57.778791 25.695413 57.498906 25.409331 57.195206 25.286705 C 56.891506 25.164079 56.618704 25.102726 56.382669 25.103079 C 56.223355 25.10317 56.057742 25.108698 55.880392 25.113364 C 55.703042 25.118029 55.493761 25.15575 55.258418 25.226956 C 55.017638 25.291862 54.696515 25.486568 54.301779 25.79977 C 53.907044 26.112971 53.37941 26.628813 52.718877 27.347295 C 52.058776 28.05991 51.224957 29.048867 50.224152 30.302863 C 49.78567 30.89016 49.5695 31.422994 49.569773 31.900934 C 49.567367 32.254772 49.662309 32.568562 49.85546 32.830569 C 50.155199 33.247916 50.60156 33.516733 51.200843 33.631582 C 51.404086 33.676022 51.726424 33.705614 52.161127 33.731664 C 52.60213 33.752277 53.296774 33.773831 54.257228 33.791322 C 54.322213 33.790198 54.36243 33.804954 54.384179 33.830154 C 54.405928 33.855353 54.413352 33.914901 54.413182 33.997492 L 54.417677 34.257433 C 54.397575 34.450664 54.386882 34.75669 54.385169 35.181382 L 54.402878 35.743206 C 54.430088 36.57714 54.655613 37.201441 55.066854 37.626983 C 55.478527 38.046657 55.923333 38.256357 56.413009 38.256946 Z M 54.480671 31.152636 L 54.322652 31.135122 C 54.246792 31.123646 54.207869 31.091284 54.207176 31.02043 C 54.20847 31.002824 54.221933 30.980213 54.240832 30.963901 L 54.445186 30.672109 C 54.585679 30.446425 54.688202 30.335956 54.753188 30.334832 C 54.770793 30.336126 54.792973 30.355457 54.819297 30.398693 C 54.850887 30.53082 54.866597 30.638179 54.865564 30.732507 C 54.864191 30.992017 54.736037 31.130104 54.480671 31.152636 Z M 60.258797 38.433405 C 60.671752 38.434256 61.020493 38.26518 61.304588 37.932046 C 61.589115 37.593044 61.846888 37.216674 62.083774 36.803367 L 63.282439 34.543172 C 64.441409 32.421666 65.602706 30.188225 66.754593 27.841989 C 67.020992 27.348248 67.151983 26.850455 67.154298 26.337304 C 67.149791 25.676146 66.866965 25.189239 66.287784 24.881159 C 65.917544 24.70054 65.59365 24.611832 65.310666 24.608733 C 65.015514 24.610641 64.762134 24.686421 64.556826 24.830638 C 64.220084 25.077299 63.901469 25.478698 63.617726 26.047867 C 63.518052 26.199848 62.702373 27.744762 61.170258 30.688477 L 58.785358 35.280584 C 58.571344 35.784075 58.462703 36.218608 58.464441 36.596351 C 58.465498 37.304458 58.871824 37.877145 59.678414 38.302243 C 59.896242 38.389057 60.087747 38.432633 60.258797 38.433405 Z M 70.225708 38.334032 C 70.744728 38.336778 71.317858 38.325801 71.938799 38.306537 L 73.345432 38.274218 C 74.167198 38.252013 74.811953 38.069293 75.279699 37.726057 C 75.747445 37.38282 75.986056 36.946039 75.983797 36.414852 C 75.984125 35.848453 75.878479 35.439471 75.673159 35.182471 C 75.46154 34.930907 75.208239 34.764784 74.912825 34.689969 C 74.611543 34.614722 74.313542 34.575119 74.01839 34.577026 L 73.428516 34.574973 C 73.062942 34.571704 72.87903 34.505085 72.877214 34.369246 C 72.879109 34.263181 72.947284 34.138386 73.086744 34.007031 C 73.226204 33.875675 73.358933 33.755625 73.489936 33.659049 C 73.615502 33.556174 73.703269 33.485922 73.741931 33.441561 C 74.523376 32.84407 75.101579 32.20214 75.475678 31.527507 C 75.856076 30.847437 76.047818 30.165301 76.045467 29.4748 C 76.045862 28.26528 75.497294 27.139316 74.399762 26.096909 C 73.729783 25.498944 72.931741 25.198378 72.016942 25.201944 C 71.238413 25.197825 70.481292 25.384087 69.74558 25.76073 C 69.010299 26.131505 68.398088 26.593929 67.903508 27.141701 C 67.414366 27.695774 67.137354 28.253637 67.072472 28.815292 L 67.056081 29.038296 C 67.052904 29.563184 67.252276 30.061657 67.648329 30.533285 C 68.043951 31.010781 68.522243 31.246544 69.088642 31.246872 C 69.655041 31.2472 70.20607 30.974988 70.73543 30.435672 L 71.089516 30.113583 C 71.548544 29.728404 71.839894 29.537409 71.969864 29.535161 C 71.993338 29.536887 72.004213 29.549486 72.01923 29.585992 L 72.017936 29.603597 C 72.124263 29.682215 72.175184 29.792162 72.177432 29.922132 C 72.175026 30.27597 71.894041 30.727337 71.321876 31.287108 C 70.749712 31.846879 70.136467 32.403631 69.475843 32.9628 C 68.972716 33.386039 68.5489 33.773806 68.205256 34.114364 C 67.30014 34.708665 66.846561 35.501361 66.851251 36.481146 C 66.84763 36.610685 66.856178 36.735218 66.882331 36.861046 C 66.955274 37.474132 67.280213 37.86973 67.850846 38.053277 C 68.421048 38.242692 69.210713 38.336134 70.225708 38.334032 Z M 80.481472 38.238189 C 81.337155 38.236178 82.113606 38.027736 82.817126 37.607425 C 83.520646 37.187114 84.095137 36.515409 84.5469 35.586874 C 84.829519 34.95272 84.972849 34.36733 84.977321 33.824837 C 84.9748 33.216926 84.819958 32.674524 84.511933 32.209366 C 84.204339 31.73834 83.795947 31.354309 83.292626 31.057705 C 82.795173 30.761532 82.249308 30.562104 81.64873 30.46486 C 81.171392 30.376674 80.925254 30.193376 80.928784 29.904524 C 80.925673 29.78629 80.957774 29.670645 81.007912 29.550425 L 81.056063 29.376957 C 81.192765 29.363403 81.381852 29.3596 81.618319 29.35338 C 81.848917 29.346727 82.121458 29.331357 82.429641 29.312707 C 83.338141 29.314578 83.982465 29.137727 84.355883 28.793457 C 84.735601 28.443751 84.945732 27.993076 84.975834 27.422966 C 84.974437 26.880041 84.827451 26.391318 84.534443 25.962665 C 84.241867 25.528144 83.870503 25.28254 83.427082 25.214548 C 82.7522 25.164944 80.901715 25.135139 77.874764 25.13687 C 76.986719 25.177803 76.447087 25.61606 76.255867 26.45164 C 76.214015 26.619671 76.163367 26.987664 76.110222 27.550181 C 76.056646 28.118567 76.035693 28.724751 76.035194 29.373741 C 76.031664 29.662594 76.04229 29.999688 76.06707 30.385025 C 76.061736 30.939256 76.111114 31.391304 76.208905 31.746605 C 76.307127 32.096039 76.550938 32.39127 76.940771 32.626431 C 77.060991 32.676569 77.271395 32.703834 77.584153 32.70322 L 79.055771 32.669777 C 79.356361 32.67417 79.591102 32.691423 79.759133 32.733274 C 80.206096 32.913632 80.43187 33.213438 80.431882 33.614655 C 80.429386 33.809179 80.393403 33.977642 80.312197 34.119179 C 80.23056 34.266585 80.153236 34.355306 80.06262 34.384047 C 79.977441 34.419088 79.893556 34.436524 79.805097 34.435922 C 79.639915 34.435582 79.460578 34.386999 79.272955 34.290606 C 79.085332 34.194212 78.892703 34.08565 78.6955 33.959051 C 78.497865 33.838321 78.305667 33.723891 78.112175 33.627066 C 77.919115 33.524372 77.728041 33.474927 77.539386 33.472861 L 77.426158 33.48814 C 76.870463 33.583003 76.458292 33.812319 76.195514 34.176521 C 75.939036 34.535285 75.804072 34.926582 75.808658 35.345836 C 75.808069 35.835513 75.983705 36.255538 76.335137 36.611782 C 77.286466 37.395633 78.386744 37.919021 79.630534 38.175645 C 79.922667 38.214818 80.204357 38.235522 80.481472 38.238189 Z M 93.587188 38.381316 C 93.9708 38.38001 94.329984 38.229403 94.66474 37.929494 C 94.999927 37.623716 95.252863 37.152587 95.406375 36.508943 C 95.42087 36.392004 95.428452 35.967744 95.441289 35.231157 C 95.459369 33.781027 95.46864 32.12964 95.469534 30.27113 L 95.504321 27.630379 C 95.507067 27.111359 95.47055 26.72516 95.400206 26.47808 C 95.329432 26.236868 95.186509 26.013955 94.976445 25.821508 C 94.525679 25.452063 94.061542 25.264543 93.571865 25.263954 C 93.064152 25.267939 92.601321 25.464031 92.165336 25.856803 C 91.735219 26.250007 91.22519 26.767143 90.641119 27.408642 C 90.234738 27.880294 90.031769 28.313794 90.031349 28.72088 C 90.031793 29.116229 90.178688 29.445639 90.465736 29.714547 C 90.753215 29.977586 91.10887 30.115831 91.539861 30.112107 L 91.59984 30.098815 C 91.64722 30.096397 91.677686 30.163539 91.697971 30.288935 C 91.772026 30.565789 91.807954 31.441665 91.806186 32.910695 L 91.792316 33.74161 C 91.791897 34.148696 91.805371 34.527302 91.833171 34.871559 C 91.86097 35.215816 91.871595 35.552911 91.876352 35.889574 L 91.856511 36.159527 C 91.857136 36.873502 92.035021 37.423499 92.390165 37.809516 C 92.751608 38.190096 93.14446 38.384177 93.587188 38.381316 Z M 98.718004 38.33361 C 99.242892 38.336788 99.816022 38.32581 100.436964 38.306546 L 101.843596 38.274227 C 102.659493 38.251592 103.304249 38.068871 103.771995 37.725635 C 104.245609 37.38283 104.484221 36.946049 104.481961 36.414861 C 104.482289 35.848462 104.376643 35.439481 104.171324 35.18248 C 103.959704 34.930917 103.706403 34.764793 103.405121 34.689547 C 103.109708 34.614732 102.811706 34.575129 102.510685 34.576605 L 101.920812 34.574551 C 101.561106 34.571714 101.377195 34.505094 101.375378 34.369255 C 101.377274 34.26319 101.445448 34.138396 101.584908 34.00704 C 101.724368 33.875685 101.857097 33.755635 101.982232 33.658628 C 102.113666 33.556184 102.195565 33.4855 102.240095 33.441571 C 103.015672 32.843649 103.593875 32.201718 103.973842 31.527517 C 104.35424 30.847447 104.545982 30.165311 104.543631 29.47481 C 104.544027 28.26529 103.995458 27.139326 102.897927 26.096919 C 102.222079 25.498522 101.429905 25.198388 100.515106 25.201954 C 99.736577 25.197835 98.973588 25.383665 98.237876 25.760309 C 97.502595 26.131083 96.890384 26.593507 96.401241 27.147579 C 95.91253 27.695783 95.62965 28.253216 95.564768 28.81487 L 95.554245 29.038306 C 95.551068 29.563194 95.75044 30.061667 96.140625 30.532864 C 96.536247 31.01036 97.020407 31.246553 97.580938 31.24645 C 98.153205 31.24721 98.698366 30.974566 99.233594 30.435681 L 99.581812 30.113161 C 100.046709 29.728413 100.338058 29.537419 100.468029 29.535171 C 100.485634 29.536465 100.502377 29.549496 100.511526 29.58557 L 100.510232 29.603176 C 100.622427 29.682225 100.673348 29.792172 100.675596 29.922142 C 100.67319 30.27598 100.386336 30.726916 99.82004 31.287118 C 99.247876 31.846889 98.628763 32.403209 97.968139 32.962378 C 97.465012 33.385618 97.047064 33.773816 96.70342 34.114373 C 95.798304 34.708675 95.344725 35.501371 95.343547 36.480724 C 95.345794 36.610695 95.354342 36.735228 95.374627 36.860624 C 95.453439 37.474142 95.772508 37.869308 96.343142 38.052855 C 96.913344 38.242271 97.708877 38.336143 98.718004 38.33361 Z M 106.414313 38.220756 C 106.950938 38.224796 107.4268 38.011961 107.841037 37.593989 C 108.255704 37.170148 108.504929 36.669245 108.589573 36.079542 C 108.679133 35.342694 108.719508 34.873642 108.722436 34.673249 C 108.721482 34.525673 108.727521 34.443514 108.746421 34.427202 C 108.759452 34.410459 108.86638 34.400618 109.073072 34.398109 C 110.162112 34.271644 111.046092 33.964901 111.718283 33.489185 C 112.396774 33.008032 112.893941 32.425048 113.203917 31.739802 C 113.508455 31.048256 113.665849 30.351795 113.664361 29.649557 C 113.666141 28.581744 113.351112 27.649953 112.719703 26.848314 C 112.264272 26.301519 111.833269 25.904026 111.426693 25.655834 C 111.020118 25.407642 110.536219 25.24817 109.968265 25.188725 C 109.400742 25.123412 108.618501 25.089519 107.615242 25.092483 L 106.222934 25.090454 C 105.874965 25.088479 105.508619 25.256261 105.124326 25.58793 C 104.752203 25.914594 104.532059 26.340932 104.481934 26.862369 C 104.44829 27.320115 104.432604 28.01519 104.429007 28.947164 L 104.433028 30.65853 C 104.44454 31.786322 104.445542 33.538767 104.447339 35.922597 L 104.450018 36.046699 C 104.446251 37.061263 104.908936 37.750197 105.826336 38.112637 C 106.027421 38.186419 106.225226 38.224559 106.414313 38.220756 Z M 108.89743 30.927658 C 108.873525 30.931801 108.84047 30.89987 108.785236 30.848609 L 108.750887 30.834284 C 108.740875 30.809947 108.738889 30.756699 108.739059 30.674108 L 108.751623 29.459581 C 108.764994 29.277657 108.813406 29.180911 108.913603 29.182375 C 109.037274 29.185564 109.171649 29.283945 109.310428 29.482952 C 109.449639 29.676092 109.519289 29.852318 109.520243 29.999894 C 109.520334 30.159207 109.479777 30.309633 109.398571 30.45117 C 109.317797 30.586839 109.226579 30.70404 109.125781 30.791035 C 109.03042 30.88433 108.950247 30.93154 108.89743 30.927658 Z M 115.614955 38.271571 C 116.275682 38.272932 116.803498 38.075717 117.187097 37.673193 C 117.582434 37.271533 117.789455 36.702625 117.825766 35.967763 L 117.872405 34.289623 C 117.871282 34.224637 117.903212 34.191583 117.968197 34.190459 L 118.049494 34.208235 C 118.144515 34.280121 118.25999 34.394813 118.402651 34.541004 C 118.594248 34.743894 118.808887 34.954378 119.059168 35.161581 C 119.303581 35.368353 119.561627 35.469922 119.844611 35.473021 C 120.064335 35.453769 120.295966 35.352789 120.539073 35.175949 C 120.776311 34.998678 121.002675 34.808807 121.217734 34.612205 C 121.427786 34.403435 121.622219 34.246618 121.796028 34.129588 L 121.887075 34.094978 C 122.004877 34.097736 122.077718 34.150292 122.093428 34.257651 L 122.080749 34.510429 C 122.05866 34.650412 122.047445 34.802994 122.046674 34.974044 C 122.093215 35.785798 122.150278 36.374116 122.235037 36.74616 C 122.31436 37.111905 122.468849 37.418272 122.704374 37.665692 C 123.108623 38.025818 123.567323 38.207038 124.080473 38.209353 C 124.440611 38.206322 124.778307 38.107237 125.081394 37.917105 C 125.385343 37.715236 125.590991 37.405838 125.6992 36.977173 L 125.710245 36.907182 C 125.732164 36.84979 125.757533 36.745451 125.773323 36.610906 C 125.904393 35.871209 125.98371 33.186528 126.0004 28.544265 C 126.001761 27.883538 125.975165 27.362362 125.925616 26.992906 C 125.882368 26.618012 125.778277 26.268147 125.613776 25.937443 C 125.320939 25.4262 124.879583 25.169551 124.307316 25.168792 C 124.018463 25.165262 123.723572 25.243892 123.416774 25.40425 C 123.116707 25.553302 122.83235 25.809714 122.576303 26.162609 C 121.629008 27.491341 120.970552 28.422385 120.607669 28.944436 C 120.223729 29.512141 120.000475 29.820245 119.926171 29.867886 C 119.857735 29.915958 119.81493 29.936413 119.797324 29.935119 C 119.773419 29.939262 119.739501 29.919069 119.706015 29.893006 C 119.667524 29.854776 119.635332 29.811108 119.597703 29.76114 L 116.911961 25.923291 C 116.697492 25.630217 116.458947 25.423876 116.191753 25.286233 C 115.929995 25.154889 115.663493 25.0881 115.391815 25.091732 C 114.972992 25.09045 114.619677 25.241489 114.319701 25.549855 C 114.128548 25.742314 113.977442 26.03212 113.854646 26.41841 C 113.73815 26.799264 113.672235 27.455246 113.651464 28.380057 C 113.652526 32.138589 113.64707 34.38028 113.635095 35.105129 L 113.635551 35.901695 C 113.634178 36.161205 113.640137 36.32095 113.647561 36.380498 C 113.767884 36.991166 114.034398 37.459173 114.452972 37.78495 C 114.877414 38.111158 115.260686 38.275034 115.614955 38.271571 Z M 115.614955 38.271571 " stroke="#233d4d" stroke-width="0.8" stroke-opacity="1" stroke-miterlimit="4"/></svg>