<svg xmlns="http://www.w3.org/2000/svg" xmlns:xlink="http://www.w3.org/1999/xlink" width="128" zoomAndPan="magnify" viewBox="0 0 96 95.999999" height="128" preserveAspectRatio="xMidYMid meet" version="1.0"><defs><g/><clipPath id="4d0ab42386"><path d="M 1 11.101562 L 96 11.101562 L 96 84 L 1 84 Z M 1 11.101562 " clip-rule="nonzero"/></clipPath><clipPath id="2038997b6d"><path d="M 0 11.101562 L 96 11.101562 L 96 84.601562 L 0 84.601562 Z M 0 11.101562 " clip-rule="nonzero"/></clipPath></defs><g clip-path="url(#4d0ab42386)"><path fill="#ffffff" d="M 93.582031 26.0625 C 92.9375 24.398438 92.050781 22.875 90.851562 21.597656 C 87.753906 18.300781 82.539062 16.101562 78.25 14.894531 C 71.609375 13.027344 64.570312 12.179688 57.6875 11.957031 C 49.113281 11.679688 40.492188 12.234375 32.035156 13.699219 C 23.617188 15.160156 14.707031 17.378906 8.261719 23.328125 C 0.0703125 30.882812 0.460938 43.261719 3.933594 53.140625 C 6.011719 59.042969 9.582031 64.242188 14.859375 67.71875 C 17.34375 69.355469 20.09375 70.484375 22.957031 71.273438 C 24.535156 74.972656 24.816406 78.898438 21.042969 80.976562 C 19.769531 81.675781 20.285156 83.890625 21.808594 83.78125 C 29.347656 83.246094 35.855469 78.921875 40.394531 73.019531 C 40.699219 72.625 44.246094 72.800781 44.863281 72.75 C 46.503906 72.609375 48.140625 72.421875 49.769531 72.203125 C 56.675781 71.277344 63.558594 70.777344 70.394531 69.304688 C 77.261719 67.820312 84.601562 65.679688 88.746094 59.574219 C 92.390625 54.203125 94.496094 47.304688 94.96875 40.898438 C 95.300781 36.363281 95.363281 30.671875 93.582031 26.0625 " fill-opacity="1" fill-rule="nonzero"/></g><g clip-path="url(#2038997b6d)"><path fill="#231f20" d="M 93.582031 26.0625 L 94.328125 25.777344 C 93.65625 24.035156 92.71875 22.417969 91.4375 21.050781 C 89.792969 19.308594 87.640625 17.894531 85.355469 16.75 C 83.070312 15.609375 80.652344 14.742188 78.46875 14.128906 C 71.746094 12.234375 64.644531 11.382812 57.714844 11.160156 C 56.28125 11.113281 54.847656 11.089844 53.414062 11.089844 C 46.210938 11.089844 38.996094 11.679688 31.898438 12.914062 C 27.667969 13.648438 23.292969 14.574219 19.132812 16.082031 C 14.980469 17.585938 11.039062 19.675781 7.714844 22.742188 C 5.210938 25.050781 3.472656 27.804688 2.371094 30.78125 C 1.265625 33.753906 0.792969 36.949219 0.792969 40.171875 C 0.792969 44.6875 1.71875 49.261719 3.179688 53.40625 C 4.238281 56.421875 5.6875 59.265625 7.550781 61.808594 C 9.414062 64.351562 11.695312 66.589844 14.417969 68.382812 C 16.988281 70.078125 19.820312 71.234375 22.742188 72.042969 L 22.957031 71.273438 L 22.21875 71.585938 C 22.855469 73.074219 23.253906 74.578125 23.253906 75.90625 C 23.253906 76.820312 23.070312 77.644531 22.667969 78.367188 C 22.261719 79.089844 21.636719 79.734375 20.65625 80.277344 C 20.269531 80.488281 19.972656 80.804688 19.789062 81.15625 C 19.601562 81.503906 19.523438 81.886719 19.523438 82.253906 C 19.523438 82.8125 19.703125 83.363281 20.066406 83.8125 C 20.25 84.035156 20.484375 84.230469 20.761719 84.367188 C 21.039062 84.507812 21.363281 84.585938 21.699219 84.582031 C 21.753906 84.582031 21.804688 84.582031 21.855469 84.578125 L 21.863281 84.578125 C 25.773438 84.300781 29.40625 83.039062 32.640625 81.097656 C 35.871094 79.152344 38.707031 76.527344 41.03125 73.503906 L 40.542969 73.132812 L 40.882812 73.644531 C 40.917969 73.621094 40.96875 73.582031 41.03125 73.503906 L 40.542969 73.132812 L 40.882812 73.644531 L 40.671875 73.328125 L 40.824219 73.675781 C 40.832031 73.671875 40.851562 73.664062 40.882812 73.644531 L 40.671875 73.328125 L 40.824219 73.675781 L 40.785156 73.585938 L 40.820312 73.679688 L 40.824219 73.675781 L 40.785156 73.585938 L 40.820312 73.679688 C 40.824219 73.675781 40.933594 73.648438 41.074219 73.628906 C 41.292969 73.597656 41.609375 73.578125 41.953125 73.566406 C 42.296875 73.554688 42.675781 73.550781 43.042969 73.550781 C 43.53125 73.550781 44.003906 73.558594 44.363281 73.558594 C 44.476562 73.558594 44.582031 73.554688 44.675781 73.554688 C 44.769531 73.554688 44.847656 73.550781 44.929688 73.542969 L 44.933594 73.542969 C 46.585938 73.402344 48.234375 73.214844 49.878906 72.996094 C 56.75 72.070312 63.652344 71.570312 70.5625 70.082031 C 74.019531 69.335938 77.625 68.421875 80.929688 66.894531 C 82.578125 66.132812 84.15625 65.214844 85.589844 64.089844 C 87.027344 62.960938 88.324219 61.621094 89.410156 60.019531 C 93.152344 54.503906 95.28125 47.492188 95.765625 40.957031 C 95.875 39.492188 95.953125 37.90625 95.953125 36.265625 C 95.953125 32.777344 95.59375 29.054688 94.328125 25.777344 L 92.832031 26.347656 C 93.992188 29.339844 94.351562 32.890625 94.351562 36.265625 C 94.351562 37.855469 94.273438 39.402344 94.167969 40.839844 C 93.707031 47.117188 91.632812 53.902344 88.082031 59.125 C 87.097656 60.578125 85.921875 61.796875 84.597656 62.835938 C 82.621094 64.390625 80.3125 65.539062 77.851562 66.433594 C 75.390625 67.328125 72.785156 67.972656 70.222656 68.523438 C 63.460938 69.980469 56.601562 70.480469 49.664062 71.414062 C 48.042969 71.628906 46.421875 71.8125 44.792969 71.953125 L 44.800781 71.953125 C 44.777344 71.957031 44.722656 71.957031 44.644531 71.960938 C 44.570312 71.960938 44.472656 71.960938 44.363281 71.960938 C 44.019531 71.960938 43.546875 71.957031 43.042969 71.957031 C 42.449219 71.957031 41.820312 71.964844 41.285156 72.003906 C 41.019531 72.023438 40.773438 72.050781 40.546875 72.101562 C 40.433594 72.125 40.324219 72.15625 40.199219 72.207031 C 40.136719 72.234375 40.070312 72.265625 39.996094 72.3125 C 39.925781 72.363281 39.839844 72.429688 39.757812 72.535156 C 37.542969 75.414062 34.851562 77.902344 31.8125 79.730469 C 28.769531 81.558594 25.382812 82.726562 21.75 82.988281 L 21.808594 83.78125 L 21.757812 82.988281 C 21.734375 82.988281 21.714844 82.988281 21.699219 82.988281 C 21.601562 82.988281 21.535156 82.96875 21.476562 82.941406 C 21.386719 82.894531 21.300781 82.816406 21.234375 82.691406 C 21.164062 82.570312 21.125 82.40625 21.125 82.253906 C 21.125 82.121094 21.15625 81.996094 21.207031 81.902344 C 21.257812 81.804688 21.320312 81.734375 21.429688 81.671875 C 22.636719 81.011719 23.515625 80.140625 24.070312 79.140625 C 24.625 78.140625 24.855469 77.03125 24.855469 75.90625 C 24.855469 74.269531 24.382812 72.582031 23.691406 70.960938 C 23.597656 70.738281 23.402344 70.570312 23.171875 70.503906 C 20.371094 69.730469 17.699219 68.632812 15.300781 67.050781 C 12.746094 65.371094 10.605469 63.269531 8.84375 60.871094 C 7.085938 58.46875 5.707031 55.761719 4.691406 52.875 C 3.285156 48.878906 2.394531 44.46875 2.394531 40.171875 C 2.394531 37.101562 2.847656 34.097656 3.871094 31.332031 C 4.898438 28.566406 6.496094 26.042969 8.804688 23.914062 C 11.929688 21.03125 15.667969 19.035156 19.683594 17.582031 C 23.699219 16.125 27.984375 15.210938 32.171875 14.488281 C 39.175781 13.269531 46.300781 12.6875 53.414062 12.6875 C 54.832031 12.6875 56.246094 12.707031 57.660156 12.753906 C 64.496094 12.976562 71.476562 13.816406 78.03125 15.664062 C 80.132812 16.257812 82.46875 17.09375 84.636719 18.175781 C 86.808594 19.261719 88.8125 20.59375 90.265625 22.144531 C 91.382812 23.332031 92.21875 24.761719 92.832031 26.347656 L 93.582031 26.0625 " fill-opacity="1" fill-rule="nonzero"/></g><path fill="#ffffff" d="M 71.480469 17.214844 C 72.574219 17.132812 73.5 17.300781 74.507812 17.800781 " fill-opacity="1" fill-rule="nonzero"/><path fill="#231f20" d="M 71.542969 18.011719 C 71.703125 18 71.855469 17.992188 72 17.992188 C 72.761719 17.996094 73.394531 18.144531 74.148438 18.515625 C 74.542969 18.710938 75.023438 18.550781 75.222656 18.160156 C 75.421875 17.765625 75.261719 17.285156 74.863281 17.089844 C 73.929688 16.617188 72.988281 16.394531 72 16.394531 C 71.808594 16.394531 71.613281 16.40625 71.417969 16.417969 C 70.976562 16.453125 70.648438 16.835938 70.683594 17.277344 C 70.714844 17.714844 71.101562 18.046875 71.542969 18.011719 " fill-opacity="1" fill-rule="nonzero"/><path fill="#ffffff" d="M 75.851562 18.640625 C 82.238281 19.726562 87.785156 24.664062 89.800781 30.777344 " fill-opacity="1" fill-rule="nonzero"/><path fill="#231f20" d="M 75.714844 19.425781 C 78.746094 19.941406 81.601562 21.378906 83.9375 23.421875 C 86.269531 25.46875 88.082031 28.117188 89.039062 31.023438 C 89.179688 31.445312 89.632812 31.671875 90.050781 31.535156 C 90.472656 31.398438 90.703125 30.945312 90.5625 30.527344 C 89.507812 27.324219 87.535156 24.449219 84.996094 22.226562 C 82.453125 20 79.339844 18.421875 75.988281 17.851562 C 75.550781 17.777344 75.136719 18.070312 75.0625 18.503906 C 74.988281 18.9375 75.28125 19.351562 75.714844 19.425781 " fill-opacity="1" fill-rule="nonzero"/><path fill="#231f20" d="M 89.757812 32.703125 C 89.757812 33.035156 89.757812 33.289062 89.757812 33.539062 C 89.757812 33.980469 90.117188 34.335938 90.558594 34.335938 C 91 34.335938 91.359375 33.980469 91.359375 33.539062 C 91.359375 33.289062 91.359375 33.035156 91.359375 32.703125 C 91.359375 32.261719 91 31.902344 90.558594 31.902344 C 90.117188 31.902344 89.757812 32.261719 89.757812 32.703125 " fill-opacity="1" fill-rule="nonzero"/><path fill="#ffffff" d="M 49.125 68.863281 C 50.050781 68.863281 50.890625 68.695312 51.816406 68.613281 " fill-opacity="1" fill-rule="nonzero"/><path fill="#231f20" d="M 49.125 69.660156 C 49.636719 69.660156 50.113281 69.617188 50.566406 69.5625 C 51.019531 69.507812 51.453125 69.445312 51.886719 69.410156 C 52.328125 69.367188 52.652344 68.980469 52.613281 68.539062 C 52.574219 68.101562 52.183594 67.777344 51.742188 67.820312 C 51.253906 67.863281 50.804688 67.925781 50.375 67.976562 C 49.945312 68.027344 49.539062 68.066406 49.125 68.066406 C 48.683594 68.066406 48.324219 68.421875 48.324219 68.863281 C 48.324219 69.304688 48.683594 69.660156 49.125 69.660156 " fill-opacity="1" fill-rule="nonzero"/><path fill="#ffffff" d="M 55.34375 68.277344 C 57.195312 67.859375 59.125 67.941406 60.976562 67.691406 C 64.589844 67.355469 68.203125 66.605469 71.648438 65.265625 " fill-opacity="1" fill-rule="nonzero"/><path fill="#231f20" d="M 55.523438 69.054688 C 56.375 68.863281 57.28125 68.78125 58.214844 68.71875 C 59.148438 68.65625 60.109375 68.613281 61.085938 68.480469 L 60.976562 67.691406 L 61.050781 68.488281 C 64.722656 68.144531 68.414062 67.378906 71.941406 66.007812 C 72.351562 65.847656 72.554688 65.382812 72.394531 64.972656 C 72.234375 64.5625 71.769531 64.359375 71.355469 64.519531 C 67.992188 65.828125 64.453125 66.566406 60.902344 66.898438 L 60.867188 66.902344 C 59.992188 67.019531 59.066406 67.0625 58.105469 67.125 C 57.148438 67.191406 56.164062 67.273438 55.167969 67.5 C 54.734375 67.597656 54.464844 68.023438 54.5625 68.453125 C 54.660156 68.882812 55.089844 69.152344 55.523438 69.054688 " fill-opacity="1" fill-rule="nonzero"/><g fill="#ff650e" fill-opacity="1"><g transform="translate(19.70355, 40.743078)"><g><path d="M 1.21875 0.03125 C 1.601562 0.0078125 1.925781 -0.125 2.1875 -0.375 C 2.445312 -0.625 2.65625 -0.957031 2.8125 -1.375 C 2.8125 -1.425781 2.832031 -1.46875 2.875 -1.5 C 2.914062 -1.539062 3.050781 -1.570312 3.28125 -1.59375 L 4.34375 -1.671875 L 5.515625 -1.75 C 5.742188 -1.769531 5.90625 -1.675781 6 -1.46875 C 6.21875 -1.113281 6.476562 -0.859375 6.78125 -0.703125 C 7.082031 -0.546875 7.382812 -0.476562 7.6875 -0.5 C 7.976562 -0.519531 8.234375 -0.601562 8.453125 -0.75 C 8.671875 -0.90625 8.84375 -1.113281 8.96875 -1.375 C 9.039062 -1.59375 9.070312 -1.800781 9.0625 -2 C 9.039062 -2.238281 8.925781 -2.582031 8.71875 -3.03125 C 8.425781 -3.644531 7.921875 -4.828125 7.203125 -6.578125 C 6.691406 -7.785156 6.25 -8.800781 5.875 -9.625 C 5.5 -10.445312 5.179688 -11.003906 4.921875 -11.296875 C 4.535156 -11.648438 4.109375 -11.8125 3.640625 -11.78125 C 3.242188 -11.75 2.894531 -11.570312 2.59375 -11.25 C 2.550781 -11.195312 2.503906 -11.128906 2.453125 -11.046875 C 2.367188 -10.921875 2.226562 -10.53125 2.03125 -9.875 C 1.9375 -9.570312 1.125 -7 -0.40625 -2.15625 C -0.488281 -1.90625 -0.519531 -1.65625 -0.5 -1.40625 C -0.476562 -1.101562 -0.382812 -0.804688 -0.21875 -0.515625 C -0.0820312 -0.273438 0.0703125 -0.125 0.25 -0.0625 C 0.4375 0 0.609375 0.0234375 0.765625 0.015625 L 0.875 0.03125 C 1 0.0390625 1.113281 0.0390625 1.21875 0.03125 Z M 4.125 -4.53125 C 3.957031 -4.519531 3.875 -4.535156 3.875 -4.578125 C 3.914062 -4.671875 3.972656 -4.796875 4.046875 -4.953125 C 4.117188 -5.109375 4.175781 -5.253906 4.21875 -5.390625 C 4.25 -5.390625 4.269531 -5.382812 4.28125 -5.375 C 4.382812 -5.144531 4.476562 -4.96875 4.5625 -4.84375 C 4.625 -4.738281 4.65625 -4.664062 4.65625 -4.625 C 4.65625 -4.601562 4.648438 -4.59375 4.640625 -4.59375 Z M 4.125 -4.53125 "/></g></g></g><g fill="#ff650e" fill-opacity="1"><g transform="translate(28.057888, 40.12904)"><g><path d="M 4.765625 -0.109375 C 5.765625 -0.179688 6.46875 -0.316406 6.875 -0.515625 C 7.289062 -0.710938 7.523438 -1.125 7.578125 -1.75 L 7.578125 -2.078125 C 7.535156 -2.671875 7.332031 -3.0625 6.96875 -3.25 C 6.601562 -3.445312 6.125 -3.535156 5.53125 -3.515625 C 4.945312 -3.503906 4.519531 -3.492188 4.25 -3.484375 C 4.101562 -3.472656 3.988281 -3.46875 3.90625 -3.46875 C 3.820312 -3.46875 3.769531 -3.472656 3.75 -3.484375 C 3.726562 -3.492188 3.71875 -3.507812 3.71875 -3.53125 C 3.71875 -3.726562 3.691406 -4.25 3.640625 -5.09375 C 3.585938 -5.945312 3.539062 -6.65625 3.5 -7.21875 C 3.457031 -7.789062 3.429688 -8.242188 3.421875 -8.578125 L 3.390625 -9.03125 C 3.390625 -9.15625 3.382812 -9.257812 3.375 -9.34375 C 3.375 -9.4375 3.375 -9.507812 3.375 -9.5625 L 3.359375 -9.765625 L 3.375 -9.765625 C 3.351562 -10.023438 3.285156 -10.300781 3.171875 -10.59375 C 3.054688 -10.894531 2.867188 -11.144531 2.609375 -11.34375 C 2.347656 -11.539062 1.960938 -11.625 1.453125 -11.59375 C 0.984375 -11.550781 0.625 -11.414062 0.375 -11.1875 C 0.132812 -10.96875 -0.0234375 -10.703125 -0.109375 -10.390625 C -0.191406 -10.085938 -0.222656 -9.796875 -0.203125 -9.515625 L 0.40625 -1.390625 C 0.4375 -0.910156 0.628906 -0.539062 0.984375 -0.28125 C 1.347656 -0.0195312 1.71875 0.09375 2.09375 0.0625 Z M 4.765625 -0.109375 "/></g></g></g><g fill="#ff650e" fill-opacity="1"><g transform="translate(35.036384, 39.616126)"><g><path d="M 2.3125 -0.0625 C 2.632812 -0.0820312 2.929688 -0.1875 3.203125 -0.375 C 3.472656 -0.570312 3.679688 -0.859375 3.828125 -1.234375 C 3.941406 -1.679688 3.988281 -2.085938 3.96875 -2.453125 L 3.953125 -2.625 C 3.941406 -2.769531 3.9375 -2.890625 3.9375 -2.984375 L 4 -3.03125 C 4.113281 -2.863281 4.425781 -2.507812 4.9375 -1.96875 C 5.457031 -1.382812 5.847656 -0.992188 6.109375 -0.796875 C 6.503906 -0.546875 6.878906 -0.429688 7.234375 -0.453125 C 7.648438 -0.484375 8.003906 -0.660156 8.296875 -0.984375 C 8.585938 -1.304688 8.71875 -1.664062 8.6875 -2.0625 C 8.675781 -2.300781 8.59375 -2.539062 8.4375 -2.78125 C 7.90625 -3.425781 7.503906 -3.882812 7.234375 -4.15625 C 6.941406 -4.46875 6.789062 -4.675781 6.78125 -4.78125 C 6.769531 -4.84375 6.847656 -4.953125 7.015625 -5.109375 C 7.179688 -5.273438 7.410156 -5.546875 7.703125 -5.921875 C 8.148438 -6.640625 8.34375 -7.40625 8.28125 -8.21875 C 8.226562 -9.050781 7.894531 -9.820312 7.28125 -10.53125 C 6.664062 -11.25 5.769531 -11.679688 4.59375 -11.828125 C 4.03125 -11.878906 3.46875 -11.882812 2.90625 -11.84375 C 2.5625 -11.8125 2.226562 -11.773438 1.90625 -11.734375 C 1.5 -11.679688 1.140625 -11.5625 0.828125 -11.375 C 0.515625 -11.1875 0.265625 -10.9375 0.078125 -10.625 C -0.109375 -10.320312 -0.179688 -9.941406 -0.140625 -9.484375 L 0.1875 -4.796875 C 0.207031 -4.503906 0.222656 -4.296875 0.234375 -4.171875 C 0.242188 -4.046875 0.253906 -3.941406 0.265625 -3.859375 C 0.273438 -3.785156 0.28125 -3.679688 0.28125 -3.546875 C 0.289062 -3.421875 0.335938 -2.847656 0.421875 -1.828125 C 0.421875 -1.753906 0.441406 -1.660156 0.484375 -1.546875 C 0.523438 -1.441406 0.554688 -1.347656 0.578125 -1.265625 C 0.722656 -0.828125 0.960938 -0.507812 1.296875 -0.3125 C 1.628906 -0.113281 1.96875 -0.03125 2.3125 -0.0625 Z M 4.03125 -6.53125 C 3.925781 -6.53125 3.859375 -6.753906 3.828125 -7.203125 C 3.773438 -7.890625 3.800781 -8.238281 3.90625 -8.25 L 3.9375 -8.25 C 4.070312 -8.257812 4.195312 -8.164062 4.3125 -7.96875 C 4.4375 -7.78125 4.503906 -7.601562 4.515625 -7.4375 C 4.523438 -7.21875 4.488281 -7.015625 4.40625 -6.828125 C 4.320312 -6.648438 4.195312 -6.550781 4.03125 -6.53125 Z M 4.03125 -6.53125 "/></g></g></g><g fill="#ff650e" fill-opacity="1"><g transform="translate(43.504192, 38.993747)"><g><path d="M 3.0625 0.09375 C 3.46875 0.0625 3.945312 0.015625 4.5 -0.046875 C 4.894531 -0.0859375 5.332031 -0.128906 5.8125 -0.171875 C 6.300781 -0.210938 6.710938 -0.390625 7.046875 -0.703125 C 7.378906 -1.015625 7.523438 -1.429688 7.484375 -1.953125 C 7.453125 -2.472656 7.285156 -2.894531 6.984375 -3.21875 C 6.691406 -3.550781 6.332031 -3.726562 5.90625 -3.75 C 5.039062 -3.6875 4.363281 -3.640625 3.875 -3.609375 C 3.800781 -3.617188 3.757812 -3.648438 3.75 -3.703125 C 3.738281 -3.765625 3.726562 -3.84375 3.71875 -3.9375 C 3.707031 -4.03125 3.707031 -4.09375 3.71875 -4.125 C 3.738281 -4.164062 3.789062 -4.191406 3.875 -4.203125 C 3.96875 -4.222656 4.109375 -4.25 4.296875 -4.28125 L 4.953125 -4.359375 C 5.078125 -4.367188 5.25 -4.378906 5.46875 -4.390625 C 5.6875 -4.410156 5.910156 -4.457031 6.140625 -4.53125 C 6.640625 -4.726562 6.851562 -5.285156 6.78125 -6.203125 C 6.757812 -6.597656 6.664062 -6.882812 6.5 -7.0625 C 6.21875 -7.351562 5.789062 -7.476562 5.21875 -7.4375 C 4.59375 -7.394531 4.175781 -7.367188 3.96875 -7.359375 C 3.769531 -7.359375 3.648438 -7.378906 3.609375 -7.421875 C 3.566406 -7.460938 3.546875 -7.53125 3.546875 -7.625 L 3.53125 -7.6875 L 3.5 -7.921875 C 3.5 -7.984375 3.539062 -8.03125 3.625 -8.0625 C 3.820312 -8.070312 4.097656 -8.109375 4.453125 -8.171875 C 4.929688 -8.234375 5.359375 -8.28125 5.734375 -8.3125 C 6.160156 -8.34375 6.472656 -8.472656 6.671875 -8.703125 C 6.960938 -9.054688 7.085938 -9.503906 7.046875 -10.046875 C 7.015625 -10.546875 6.878906 -10.929688 6.640625 -11.203125 C 6.179688 -11.679688 5.5 -11.890625 4.59375 -11.828125 L 1.1875 -11.578125 C 0.289062 -11.453125 -0.179688 -11.039062 -0.234375 -10.34375 C -0.234375 -10.1875 -0.207031 -9.707031 -0.15625 -8.90625 C -0.125 -8.476562 -0.0859375 -8.035156 -0.046875 -7.578125 C -0.00390625 -7.117188 0.0234375 -6.734375 0.046875 -6.421875 C 0.078125 -6.109375 0.0976562 -5.957031 0.109375 -5.96875 L 0.3125 -3.0625 C 0.382812 -2.09375 0.488281 -1.375 0.625 -0.90625 C 0.757812 -0.4375 1.007812 -0.140625 1.375 -0.015625 C 1.75 0.109375 2.3125 0.144531 3.0625 0.09375 Z M 3.0625 0.09375 "/></g></g></g><g fill="#ff650e" fill-opacity="1"><g transform="translate(50.823103, 38.455813)"><g><path d="M 1.21875 0.03125 C 1.601562 0.0078125 1.925781 -0.125 2.1875 -0.375 C 2.445312 -0.625 2.65625 -0.957031 2.8125 -1.375 C 2.8125 -1.425781 2.832031 -1.46875 2.875 -1.5 C 2.914062 -1.539062 3.050781 -1.570312 3.28125 -1.59375 L 4.34375 -1.671875 L 5.515625 -1.75 C 5.742188 -1.769531 5.90625 -1.675781 6 -1.46875 C 6.21875 -1.113281 6.476562 -0.859375 6.78125 -0.703125 C 7.082031 -0.546875 7.382812 -0.476562 7.6875 -0.5 C 7.976562 -0.519531 8.234375 -0.601562 8.453125 -0.75 C 8.671875 -0.90625 8.84375 -1.113281 8.96875 -1.375 C 9.039062 -1.59375 9.070312 -1.800781 9.0625 -2 C 9.039062 -2.238281 8.925781 -2.582031 8.71875 -3.03125 C 8.425781 -3.644531 7.921875 -4.828125 7.203125 -6.578125 C 6.691406 -7.785156 6.25 -8.800781 5.875 -9.625 C 5.5 -10.445312 5.179688 -11.003906 4.921875 -11.296875 C 4.535156 -11.648438 4.109375 -11.8125 3.640625 -11.78125 C 3.242188 -11.75 2.894531 -11.570312 2.59375 -11.25 C 2.550781 -11.195312 2.503906 -11.128906 2.453125 -11.046875 C 2.367188 -10.921875 2.226562 -10.53125 2.03125 -9.875 C 1.9375 -9.570312 1.125 -7 -0.40625 -2.15625 C -0.488281 -1.90625 -0.519531 -1.65625 -0.5 -1.40625 C -0.476562 -1.101562 -0.382812 -0.804688 -0.21875 -0.515625 C -0.0820312 -0.273438 0.0703125 -0.125 0.25 -0.0625 C 0.4375 0 0.609375 0.0234375 0.765625 0.015625 L 0.875 0.03125 C 1 0.0390625 1.113281 0.0390625 1.21875 0.03125 Z M 4.125 -4.53125 C 3.957031 -4.519531 3.875 -4.535156 3.875 -4.578125 C 3.914062 -4.671875 3.972656 -4.796875 4.046875 -4.953125 C 4.117188 -5.109375 4.175781 -5.253906 4.21875 -5.390625 C 4.25 -5.390625 4.269531 -5.382812 4.28125 -5.375 C 4.382812 -5.144531 4.476562 -4.96875 4.5625 -4.84375 C 4.625 -4.738281 4.65625 -4.664062 4.65625 -4.625 C 4.65625 -4.601562 4.648438 -4.59375 4.640625 -4.59375 Z M 4.125 -4.53125 "/></g></g></g><g fill="#ff650e" fill-opacity="1"><g transform="translate(59.177443, 37.841774)"><g><path d="M 2.09375 0.09375 C 4.226562 -0.0625 5.773438 -0.8125 6.734375 -2.15625 C 7.554688 -3.300781 7.910156 -4.703125 7.796875 -6.359375 C 7.722656 -7.304688 7.460938 -8.195312 7.015625 -9.03125 C 6.578125 -9.863281 5.914062 -10.523438 5.03125 -11.015625 C 4.15625 -11.503906 3.035156 -11.707031 1.671875 -11.625 C 1.179688 -11.582031 0.753906 -11.34375 0.390625 -10.90625 C 0.0234375 -10.46875 -0.148438 -9.957031 -0.140625 -9.375 C -0.117188 -8.664062 -0.046875 -7.445312 0.078125 -5.71875 L 0.234375 -3.859375 C 0.328125 -2.628906 0.382812 -1.941406 0.40625 -1.796875 C 0.445312 -1.523438 0.546875 -1.238281 0.703125 -0.9375 C 0.859375 -0.632812 1.054688 -0.378906 1.296875 -0.171875 C 1.546875 0.0234375 1.8125 0.113281 2.09375 0.09375 Z M 3.59375 -4.640625 C 3.5625 -4.640625 3.546875 -4.644531 3.546875 -4.65625 C 3.554688 -4.769531 3.503906 -5.609375 3.390625 -7.171875 C 3.390625 -7.203125 3.40625 -7.222656 3.4375 -7.234375 C 3.5 -7.234375 3.59375 -7.195312 3.71875 -7.125 C 3.851562 -7.050781 3.972656 -6.921875 4.078125 -6.734375 C 4.179688 -6.546875 4.25 -6.285156 4.28125 -5.953125 C 4.300781 -5.640625 4.265625 -5.390625 4.171875 -5.203125 C 4.078125 -5.015625 3.96875 -4.875 3.84375 -4.78125 C 3.726562 -4.695312 3.644531 -4.648438 3.59375 -4.640625 Z M 3.59375 -4.640625 "/></g></g></g><g fill="#ff650e" fill-opacity="1"><g transform="translate(66.964425, 37.269437)"><g><path d="M 4.015625 -0.21875 C 4.304688 -0.238281 4.582031 -0.351562 4.84375 -0.5625 C 5.101562 -0.78125 5.28125 -1.03125 5.375 -1.3125 C 5.539062 -1.894531 5.59375 -2.570312 5.53125 -3.34375 C 5.507812 -3.644531 5.484375 -3.925781 5.453125 -4.1875 C 5.421875 -4.445312 5.398438 -4.679688 5.390625 -4.890625 C 5.359375 -5.265625 5.390625 -5.554688 5.484375 -5.765625 C 6.597656 -7.710938 7.304688 -8.976562 7.609375 -9.5625 C 7.722656 -9.8125 7.800781 -10 7.84375 -10.125 L 7.875 -10.1875 C 7.914062 -10.375 7.929688 -10.554688 7.921875 -10.734375 C 7.890625 -11.117188 7.722656 -11.453125 7.421875 -11.734375 C 7.117188 -12.015625 6.769531 -12.140625 6.375 -12.109375 C 6.050781 -12.085938 5.726562 -11.921875 5.40625 -11.609375 C 5.300781 -11.503906 5.140625 -11.265625 4.921875 -10.890625 C 4.648438 -10.453125 4.234375 -9.820312 3.671875 -9 C 3.617188 -8.945312 3.554688 -8.914062 3.484375 -8.90625 C 3.398438 -8.90625 3.320312 -8.941406 3.25 -9.015625 C 3.113281 -9.222656 2.941406 -9.453125 2.734375 -9.703125 L 1.9375 -10.71875 C 1.71875 -10.96875 1.441406 -11.1875 1.109375 -11.375 C 0.785156 -11.570312 0.460938 -11.660156 0.140625 -11.640625 C -0.191406 -11.609375 -0.46875 -11.441406 -0.6875 -11.140625 C -0.90625 -10.847656 -1.003906 -10.5625 -0.984375 -10.28125 C -0.960938 -9.9375 -0.800781 -9.519531 -0.5 -9.03125 C -0.195312 -8.550781 0.242188 -7.890625 0.828125 -7.046875 L 1.8125 -5.609375 C 1.90625 -5.429688 1.96875 -5.117188 2 -4.671875 L 2.078125 -3.421875 C 2.109375 -2.960938 2.164062 -2.484375 2.25 -1.984375 C 2.382812 -1.378906 2.617188 -0.925781 2.953125 -0.625 C 3.285156 -0.320312 3.640625 -0.1875 4.015625 -0.21875 Z M 4.015625 -0.21875 "/></g></g></g><path stroke-linecap="butt" transform="matrix(0.221624, -0.0162892, 0.0162892, 0.221624, 3.604044, 26.997331)" fill="none" stroke-linejoin="miter" d="M 73.156343 67.571895 C 74.865854 67.574164 76.3673 67.05 77.641861 66.015645 C 78.917711 64.963759 79.97261 63.560747 80.789029 61.805323 C 80.85966 61.563757 80.980308 61.361118 81.152259 61.179875 C 81.340452 61.017452 81.946809 60.921014 83.021344 60.92949 L 87.759044 60.978073 L 93.064173 60.980234 C 94.086115 60.984844 94.790198 61.477232 95.17642 62.457399 C 95.990878 64.085934 97.047918 65.29166 98.382602 66.077155 C 99.699756 66.861361 101.046545 67.242358 102.402862 67.253918 C 103.690344 67.242794 104.856908 66.958399 105.922659 66.366961 C 106.989699 65.757991 107.829347 64.885551 108.42536 63.730821 C 108.842979 62.844987 109.067758 61.94498 109.063349 61.045754 C 109.05687 59.934868 108.660576 58.372319 107.841981 56.320467 C 106.734617 53.401364 104.863556 47.923303 102.212555 39.867465 C 100.349225 34.284219 98.703252 29.5806 97.274635 25.756609 C 95.88108 21.935194 94.627807 19.322627 93.516106 17.901377 C 91.934157 16.163555 90.094944 15.288101 87.998466 15.275016 C 86.200012 15.283835 84.580497 15.975576 83.139919 17.35024 C 82.89269 17.596452 82.661704 17.861484 82.444383 18.180396 C 82.013607 18.765628 81.217296 20.48728 80.071693 23.36417 C 79.520542 24.627951 75.007473 35.911475 66.568835 57.199789 C 66.134466 58.313523 65.929285 59.426477 65.918233 60.536074 C 65.924203 61.89368 66.247017 63.256947 66.886674 64.625877 C 67.439186 65.741645 68.108987 66.460645 68.913609 66.784167 C 69.701988 67.08887 70.444218 67.302054 71.177936 67.391233 L 71.685041 67.44613 C 72.18957 67.536089 72.680434 67.572167 73.156343 67.571895 Z M 87.744475 47.986978 C 87.021845 47.986742 86.657563 47.907091 86.652918 47.730494 C 86.877969 47.306397 87.183453 46.747207 87.568079 46.070455 C 87.952705 45.393703 88.245811 44.763101 88.444821 44.213711 C 88.585068 44.224019 88.690253 44.23175 88.77533 44.273254 C 89.122625 45.303436 89.449032 46.138201 89.789613 46.780128 C 90.054136 47.257834 90.190009 47.567455 90.195943 47.726521 C 90.189501 47.814175 90.150574 47.864191 90.06292 47.857748 Z M 126.84546 68.028151 C 131.375366 68.026211 134.574726 67.662093 136.481178 66.903313 C 138.386341 66.162064 139.572196 64.416168 140.037454 61.683154 L 140.096961 60.154105 C 140.097397 57.510306 139.315933 55.672689 137.733748 54.657497 C 136.152851 53.624774 134.061256 53.065656 131.425187 52.960035 C 128.80665 52.855702 126.891923 52.767847 125.695961 52.732821 C 125.025924 52.736451 124.49871 52.715326 124.129274 52.705799 C 123.761126 52.67874 123.535802 52.626928 123.431906 52.601666 C 123.329298 52.558873 123.265617 52.466065 123.274637 52.343349 C 123.355304 51.485627 123.42149 49.146294 123.456952 45.306533 C 123.509946 41.468059 123.515264 38.278227 123.5255 35.740902 C 123.519494 33.184757 123.562487 31.160979 123.658345 29.616977 L 123.650034 27.571804 C 123.692554 26.993286 123.711102 26.501134 123.704387 26.112879 C 123.715203 25.725912 123.739685 25.392826 123.794074 25.13244 L 123.788376 24.250744 L 123.858499 24.255898 C 123.805871 23.053493 123.5818 21.785611 123.187574 20.43472 C 122.774529 19.100071 122.015513 17.916249 120.907949 16.918316 C 119.800385 15.920383 118.07436 15.423385 115.712343 15.426034 C 113.633396 15.414237 111.994281 15.893031 110.815105 16.828644 C 109.635929 17.764257 108.829546 18.903525 108.360895 20.243872 C 107.890956 21.601749 107.654071 22.906254 107.647665 24.192448 L 107.649793 60.853731 C 107.647796 63.039151 108.419461 64.770294 109.947257 66.045872 C 111.492584 67.322738 113.085585 67.950963 114.760034 67.950655 Z M 147.275528 67.520435 C 148.720788 67.520908 150.108029 67.111728 151.399613 66.325382 C 152.708727 65.540324 153.731922 64.328863 154.502971 62.711108 C 155.175786 60.751248 155.521449 58.925972 155.519853 57.269054 L 155.523954 56.493831 C 155.535279 55.860144 155.556403 55.332931 155.587327 54.912191 L 155.914479 54.777606 C 156.38371 55.587618 157.63515 57.265897 159.685041 59.831262 C 161.861005 62.599774 163.502769 64.482996 164.629153 65.464687 C 166.28353 66.696692 167.912881 67.309963 169.552269 67.307079 C 171.419557 67.320944 173.072846 66.64931 174.494604 65.290889 C 175.932605 63.951286 176.647196 62.382258 176.654619 60.602624 C 176.645564 59.526801 176.320953 58.427784 175.683365 57.270513 C 173.513063 54.185157 171.858142 52.001333 170.75624 50.686556 C 169.526977 49.186163 168.894034 48.205488 168.911293 47.730867 C 168.898136 47.430266 169.302361 46.966461 170.090197 46.319345 C 170.876743 45.689759 171.982439 44.554865 173.388463 42.930904 C 175.690322 39.909865 176.835653 36.557066 176.840699 32.891324 C 176.838523 29.084047 175.568464 25.500842 173.033099 22.106645 C 170.480204 18.711161 166.607377 16.487701 161.415909 15.418736 C 158.905642 15.040352 156.38249 14.837276 153.861406 14.845859 C 152.328493 14.838945 150.791713 14.884622 149.269888 14.96665 C 147.46628 15.045593 145.832319 15.454264 144.350473 16.191375 C 142.887446 16.912244 141.701827 17.935511 140.774798 19.277418 C 139.865299 20.620614 139.404651 22.331686 139.395431 24.375571 L 139.270512 45.499414 C 139.279059 46.821957 139.279603 47.773777 139.308495 48.339917 C 139.336097 48.923589 139.337658 49.381968 139.345661 49.752692 C 139.336133 50.122129 139.355225 50.581796 139.365297 51.164179 C 139.392899 51.747851 139.39504 54.356588 139.40678 58.992968 C 139.401118 59.309812 139.460425 59.701933 139.583413 60.186862 C 139.723931 60.67308 139.831965 61.121659 139.910092 61.497537 C 140.429374 63.545016 141.393098 65.061143 142.801263 66.04592 C 144.191897 67.029407 145.690022 67.509655 147.275528 67.520435 Z M 157.124148 39.03878 C 156.689743 38.953975 156.485271 37.899039 156.474383 35.888927 C 156.488213 32.823099 156.706786 31.288117 157.182696 31.287845 L 157.324231 31.280622 C 157.922857 31.289369 158.452919 31.751342 158.914419 32.666539 C 159.39345 33.583024 159.614672 34.410059 159.614436 35.132688 C 159.613692 36.102039 159.3902 36.984515 158.946539 37.745055 C 158.50159 38.523127 157.888282 38.953939 157.124148 39.03878 Z M 188.876914 68.410167 C 190.710429 68.403925 192.863364 68.368283 195.337009 68.285711 C 197.120509 68.240542 199.096848 68.209546 201.283557 68.194012 C 203.454023 68.159659 205.352744 67.506064 206.947234 66.195589 C 208.540435 64.902645 209.344477 63.075809 209.34054 60.731322 C 209.336603 58.386836 208.740754 56.421857 207.516645 54.851341 C 206.311355 53.264582 204.77532 52.340909 202.889721 52.096566 C 199.01232 52.093588 195.946493 52.079758 193.729876 52.022592 C 193.43314 51.983156 193.250609 51.828736 193.180994 51.576862 C 193.12891 51.326276 193.102087 50.971794 193.09795 50.548477 C 193.093812 50.12516 193.133248 49.828424 193.216256 49.65827 C 193.299264 49.488115 193.536185 49.38215 193.927017 49.340374 C 194.300319 49.297309 194.956691 49.239799 195.840964 49.199039 L 198.793095 49.081133 C 199.356659 49.087304 200.13317 49.073874 201.120051 49.075907 C 202.124463 49.079229 203.140471 48.924773 204.166787 48.63007 C 206.472583 47.953518 207.619746 45.535007 207.623232 41.410886 C 207.631944 39.613721 207.289022 38.284227 206.593179 37.439934 C 205.44255 36.068699 203.571633 35.384796 200.962895 35.386936 C 198.142499 35.391146 196.29403 35.361038 195.399957 35.295324 C 194.488354 35.228322 193.97016 35.084481 193.791494 34.877469 C 193.631648 34.654214 193.549656 34.330928 193.545518 33.90761 L 193.546026 33.66089 L 193.481802 32.616263 C 193.484887 32.334481 193.674369 32.154527 194.051536 32.058869 C 194.896881 32.068125 196.170698 32.00312 197.837925 31.861277 C 200.001168 31.685388 201.927492 31.615465 203.601941 31.615157 C 205.505579 31.614069 206.934325 31.119813 207.869357 30.14863 C 209.32282 28.598657 210.050805 26.607601 210.052021 24.192991 C 210.04293 21.918628 209.555624 20.155508 208.57515 18.867282 C 206.69877 16.579053 203.716695 15.425719 199.627636 15.42481 L 184.258282 15.423208 C 180.168715 15.669019 177.912191 17.353848 177.488709 20.477695 C 177.385865 21.157532 177.351383 23.305313 177.348914 26.935993 C 177.346137 28.892224 177.357025 30.902336 177.382866 32.948799 C 177.389889 35.011503 177.421393 36.741122 177.442317 38.135077 C 177.461953 39.546564 177.498067 40.25424 177.550659 40.258106 L 177.491238 53.296639 C 177.485956 57.68501 177.720915 60.963005 178.196116 63.130623 C 178.655075 65.279421 179.696653 66.695517 181.320851 67.378912 C 182.945048 68.062307 185.457892 68.405629 188.876914 68.410167 Z M 213.5783 67.581871 C 215.287811 67.58414 216.771725 67.058687 218.065106 66.008089 C 219.340956 64.956203 220.377036 63.569434 221.193455 61.81401 C 221.282906 61.556201 221.403553 61.353562 221.574215 61.18985 C 221.746166 61.008608 222.370054 60.913459 223.427058 60.920646 L 228.163469 60.98676 L 233.486129 60.99021 C 234.491829 60.976 235.195912 61.468388 235.582135 62.448555 C 236.396592 64.07709 237.471163 65.284105 238.787028 66.085842 C 240.10547 66.852517 241.450971 67.251045 242.826107 67.246363 C 244.09477 67.251481 245.280153 66.950844 246.345904 66.359405 C 247.411656 65.767967 248.251304 64.895527 248.829785 63.739508 C 249.266224 62.837432 249.473473 61.936136 249.485305 61.055729 C 249.478827 59.944844 249.06629 58.363475 248.265226 56.312911 C 247.156574 53.411339 245.286801 47.915748 242.6358 39.859909 C 240.754939 34.275375 239.108966 29.571756 237.696591 25.766584 C 236.285505 21.943881 235.032233 19.331314 233.938062 17.911352 C 232.339871 16.154711 230.518189 15.280545 228.420422 15.284991 C 226.623258 15.276279 225.003742 15.968021 223.563164 17.342685 C 223.298404 17.587608 223.06613 17.870171 222.850098 18.171552 C 222.419321 18.756784 221.639253 20.497255 220.494938 23.356614 C 219.924968 24.636637 215.430718 35.903919 206.973261 57.208476 C 206.556422 58.323499 206.333711 59.435164 206.341478 60.528519 C 206.328629 61.902367 206.651443 63.265634 207.309919 64.618322 C 207.862431 65.734089 208.532232 66.45309 209.319323 66.775323 C 210.106414 67.097557 210.867463 67.294498 211.58365 67.382388 L 212.106998 67.456105 C 212.612815 67.528534 213.10239 67.582143 213.5783 67.581871 Z M 228.16772 47.979423 C 227.44509 47.979186 227.080808 47.899535 227.074874 47.740469 C 227.282395 47.315083 227.587878 46.755893 227.972504 46.079141 C 228.358419 45.384859 228.667768 44.773076 228.866777 44.223686 C 228.990782 44.215175 229.094678 44.240436 229.197286 44.283229 C 229.528339 45.294592 229.872277 46.130646 230.212858 46.772572 C 230.477381 47.250278 230.595723 47.558611 230.600369 47.735208 C 230.611457 47.82415 230.556288 47.855346 230.484876 47.867723 Z M 255.167817 68.15347 C 264.861318 68.160914 272.050922 65.305241 276.73663 59.586451 C 280.781973 54.666621 282.839852 48.490304 282.895314 41.021151 C 282.889 36.790557 282.041986 32.727304 280.339319 28.795042 C 278.61912 24.861491 275.875455 21.663492 272.090791 19.199755 C 268.324946 16.719775 263.343067 15.437082 257.162685 15.352965 C 254.940914 15.365921 252.951454 16.294855 251.176774 18.138478 C 249.400805 19.999632 248.443123 22.238189 248.26609 24.886634 C 248.136767 28.084977 248.06784 33.57908 248.060596 41.351412 L 248.133547 49.71128 C 248.130878 55.26313 248.148244 58.384127 248.204466 59.05803 C 248.339595 60.337001 248.681228 61.684026 249.284535 63.06791 C 249.887842 64.451794 250.69945 65.639481 251.718072 66.648503 C 252.736693 67.657524 253.899154 68.148352 255.167817 68.15347 Z M 263.558 47.284607 C 263.435284 47.275588 263.366449 47.252903 263.369026 47.217841 C 263.406393 46.709447 263.41917 42.93852 263.426177 35.888819 C 263.470259 35.76868 263.563067 35.704999 263.687071 35.696488 C 263.986384 35.700862 264.395528 35.889563 264.930744 36.281412 C 265.465961 36.673261 265.949365 37.290434 266.380958 38.13293 C 266.811261 38.992958 267.024244 40.171898 267.021195 41.652219 C 267.0233 43.062417 266.781769 44.190325 266.315423 45.0197 C 265.849077 45.849076 265.311828 46.444108 264.740025 46.789843 C 264.16951 47.118047 263.769658 47.282539 263.558 47.284607 Z M 299.134777 67.313511 C 300.420971 67.319918 301.669254 66.8829 302.89458 66.038806 C 304.102375 65.193425 304.972439 64.146965 305.487239 62.898138 C 306.468114 60.344026 306.956565 57.295457 306.952592 53.752431 C 306.944045 52.429887 306.912813 51.176178 306.857607 50.008835 C 306.802402 48.841491 306.756996 47.780622 306.755164 46.846333 C 306.757433 45.136823 306.994317 43.832318 307.465817 42.932819 C 313.08625 34.568397 316.678096 29.104094 318.223823 26.538622 C 318.847166 25.491654 319.277162 24.677232 319.493703 24.12913 L 319.623369 23.803775 C 319.926784 23.032927 320.073709 22.232951 320.079099 21.440198 C 320.083945 19.695625 319.422111 18.14881 318.128659 16.802329 C 316.817676 15.454559 315.298664 14.778895 313.53656 14.77276 C 312.091301 14.772288 310.599655 15.402926 309.0642 16.629612 C 308.5535 17.103217 307.737318 18.136012 306.616941 19.710466 C 305.260424 21.620074 303.194706 24.305958 300.419787 27.768116 C 300.17127 28.031858 299.880469 28.151489 299.527275 28.160781 C 299.140308 28.149964 298.818818 27.967705 298.565384 27.578942 C 298.05258 26.642348 297.339714 25.550046 296.444317 24.303324 L 293.130337 19.512359 C 292.231074 18.318229 291.076072 17.246307 289.666618 16.279061 C 288.255876 15.329347 286.829164 14.836722 285.383904 14.83625 C 283.884763 14.849443 282.604776 15.478012 281.525123 16.7382 C 280.464289 17.982145 279.930669 19.247214 279.941793 20.534696 C 279.934878 22.06761 280.533303 23.997527 281.739645 26.289385 C 282.927168 28.597485 284.707926 31.707086 287.04557 35.633142 L 290.957975 42.354023 C 291.300624 43.207608 291.459218 44.646934 291.471395 46.639515 L 291.40969 52.275153 C 291.41027 54.425512 291.514747 56.601132 291.721831 58.819546 C 292.10063 61.579346 293.003014 63.690233 294.430271 65.134677 C 295.856239 66.596651 297.425267 67.311242 299.134777 67.313511 Z M 299.134777 67.313511 " stroke="#233d4d" stroke-width="3.2" stroke-opacity="1" stroke-miterlimit="4"/><g fill="#ff650e" fill-opacity="1"><g transform="translate(20.536899, 60.512954)"><g><path d="M 2.1875 -0.046875 C 2.507812 -0.0664062 2.804688 -0.175781 3.078125 -0.375 C 3.347656 -0.570312 3.554688 -0.859375 3.703125 -1.234375 C 3.816406 -1.679688 3.863281 -2.085938 3.84375 -2.453125 L 3.828125 -2.625 C 3.816406 -2.769531 3.8125 -2.890625 3.8125 -2.984375 L 3.875 -3.015625 C 3.988281 -2.847656 4.300781 -2.492188 4.8125 -1.953125 C 5.332031 -1.378906 5.722656 -0.988281 5.984375 -0.78125 C 6.367188 -0.53125 6.742188 -0.414062 7.109375 -0.4375 C 7.523438 -0.46875 7.878906 -0.644531 8.171875 -0.96875 C 8.460938 -1.300781 8.59375 -1.664062 8.5625 -2.0625 C 8.550781 -2.300781 8.46875 -2.539062 8.3125 -2.78125 C 7.78125 -3.414062 7.378906 -3.875 7.109375 -4.15625 C 6.816406 -4.46875 6.664062 -4.675781 6.65625 -4.78125 C 6.644531 -4.84375 6.71875 -4.953125 6.875 -5.109375 C 7.039062 -5.265625 7.273438 -5.53125 7.578125 -5.90625 C 8.023438 -6.625 8.21875 -7.390625 8.15625 -8.203125 C 8.101562 -9.035156 7.765625 -9.804688 7.140625 -10.515625 C 6.523438 -11.234375 5.628906 -11.664062 4.453125 -11.8125 C 3.898438 -11.863281 3.34375 -11.867188 2.78125 -11.828125 C 2.4375 -11.804688 2.097656 -11.769531 1.765625 -11.71875 C 1.367188 -11.664062 1.007812 -11.546875 0.6875 -11.359375 C 0.375 -11.179688 0.128906 -10.9375 -0.046875 -10.625 C -0.234375 -10.3125 -0.304688 -9.925781 -0.265625 -9.46875 L 0.046875 -4.796875 C 0.0664062 -4.503906 0.0820312 -4.289062 0.09375 -4.15625 C 0.101562 -4.03125 0.113281 -3.925781 0.125 -3.84375 C 0.132812 -3.769531 0.144531 -3.664062 0.15625 -3.53125 C 0.164062 -3.40625 0.210938 -2.832031 0.296875 -1.8125 C 0.296875 -1.738281 0.316406 -1.644531 0.359375 -1.53125 C 0.398438 -1.425781 0.429688 -1.335938 0.453125 -1.265625 C 0.597656 -0.816406 0.835938 -0.492188 1.171875 -0.296875 C 1.503906 -0.109375 1.84375 -0.0234375 2.1875 -0.046875 Z M 3.890625 -6.515625 C 3.796875 -6.523438 3.734375 -6.753906 3.703125 -7.203125 C 3.648438 -7.890625 3.675781 -8.238281 3.78125 -8.25 L 3.8125 -8.25 C 3.945312 -8.257812 4.070312 -8.164062 4.1875 -7.96875 C 4.3125 -7.769531 4.378906 -7.585938 4.390625 -7.421875 C 4.398438 -7.203125 4.363281 -7.003906 4.28125 -6.828125 C 4.195312 -6.648438 4.066406 -6.546875 3.890625 -6.515625 Z M 3.890625 -6.515625 "/></g></g></g><g fill="#ff650e" fill-opacity="1"><g transform="translate(28.891238, 59.898916)"><g><path d="M 3.6875 -0.046875 C 4.75 -0.160156 5.601562 -0.421875 6.25 -0.828125 C 6.90625 -1.242188 7.375 -1.753906 7.65625 -2.359375 C 7.9375 -2.960938 8.050781 -3.566406 8 -4.171875 C 7.945312 -4.890625 7.695312 -5.550781 7.25 -6.15625 C 6.707031 -6.875 5.929688 -7.328125 4.921875 -7.515625 C 4.566406 -7.566406 4.234375 -7.664062 3.921875 -7.8125 C 3.609375 -7.96875 3.421875 -8.242188 3.359375 -8.640625 C 3.359375 -8.734375 3.382812 -8.816406 3.4375 -8.890625 C 3.5 -8.972656 3.566406 -9.015625 3.640625 -9.015625 C 3.722656 -9.003906 3.789062 -8.929688 3.84375 -8.796875 C 3.90625 -8.671875 4.039062 -8.488281 4.25 -8.25 C 4.53125 -7.925781 4.898438 -7.78125 5.359375 -7.8125 C 5.609375 -7.832031 5.847656 -7.910156 6.078125 -8.046875 C 6.304688 -8.191406 6.46875 -8.382812 6.5625 -8.625 C 6.664062 -8.863281 6.710938 -9.109375 6.703125 -9.359375 C 6.671875 -9.742188 6.523438 -10.113281 6.265625 -10.46875 C 6.015625 -10.820312 5.679688 -11.117188 5.265625 -11.359375 C 4.640625 -11.660156 3.976562 -11.785156 3.28125 -11.734375 C 2.46875 -11.679688 1.710938 -11.382812 1.015625 -10.84375 C 0.328125 -10.3125 -0.117188 -9.539062 -0.328125 -8.53125 C -0.367188 -8.269531 -0.382812 -8.023438 -0.375 -7.796875 C -0.28125 -6.609375 0.609375 -5.664062 2.296875 -4.96875 C 2.472656 -4.882812 2.597656 -4.816406 2.671875 -4.765625 C 3.273438 -4.410156 3.585938 -4.097656 3.609375 -3.828125 C 3.617188 -3.734375 3.59375 -3.65625 3.53125 -3.59375 C 3.46875 -3.539062 3.390625 -3.515625 3.296875 -3.515625 C 3.148438 -3.503906 3.015625 -3.554688 2.890625 -3.671875 C 2.242188 -4.273438 1.664062 -4.554688 1.15625 -4.515625 C 0.757812 -4.484375 0.4375 -4.3125 0.1875 -4 C -0.0625 -3.695312 -0.164062 -3.316406 -0.125 -2.859375 C -0.0703125 -2.117188 0.347656 -1.398438 1.140625 -0.703125 C 1.609375 -0.335938 2.269531 -0.128906 3.125 -0.078125 C 3.4375 -0.0546875 3.625 -0.046875 3.6875 -0.046875 Z M 3.6875 -0.046875 "/></g></g></g><g fill="#ff650e" fill-opacity="1"><g transform="translate(36.664036, 59.327621)"><g><path d="M 4.09375 -0.3125 C 4.46875 -0.34375 4.785156 -0.476562 5.046875 -0.71875 C 5.304688 -0.957031 5.523438 -1.414062 5.703125 -2.09375 L 6.75 -6.046875 C 7.414062 -8.585938 7.789062 -10.050781 7.875 -10.4375 C 7.90625 -10.59375 7.914062 -10.742188 7.90625 -10.890625 C 7.882812 -11.179688 7.769531 -11.4375 7.5625 -11.65625 C 7.363281 -11.882812 7.085938 -12.039062 6.734375 -12.125 C 6.554688 -12.144531 6.394531 -12.148438 6.25 -12.140625 C 5.832031 -12.109375 5.492188 -11.925781 5.234375 -11.59375 C 4.972656 -11.257812 4.75 -10.828125 4.5625 -10.296875 C 4.382812 -9.773438 4.207031 -9.203125 4.03125 -8.578125 L 3.734375 -7.53125 C 3.703125 -7.476562 3.664062 -7.453125 3.625 -7.453125 C 3.570312 -7.441406 3.53125 -7.460938 3.5 -7.515625 C 3.269531 -7.984375 3.0625 -8.429688 2.875 -8.859375 C 2.632812 -9.398438 2.394531 -9.890625 2.15625 -10.328125 C 1.914062 -10.765625 1.644531 -11.109375 1.34375 -11.359375 C 1.050781 -11.609375 0.695312 -11.71875 0.28125 -11.6875 C -0.0625 -11.664062 -0.316406 -11.566406 -0.484375 -11.390625 C -0.648438 -11.210938 -0.753906 -11.003906 -0.796875 -10.765625 C -0.835938 -10.535156 -0.847656 -10.300781 -0.828125 -10.0625 C -0.804688 -9.675781 -0.75 -9.359375 -0.65625 -9.109375 L 0.53125 -5.953125 C 1.269531 -3.953125 1.785156 -2.601562 2.078125 -1.90625 C 2.566406 -0.78125 3.238281 -0.25 4.09375 -0.3125 Z M 4.09375 -0.3125 "/></g></g></g><g fill="#ff650e" fill-opacity="1"><g transform="translate(44.64959, 58.740688)"><g><path d="M 2.1875 0.046875 C 2.664062 0.00390625 3.070312 -0.210938 3.40625 -0.609375 C 3.75 -1.015625 3.9375 -1.476562 3.96875 -2 C 3.988281 -2.664062 3.992188 -3.082031 3.984375 -3.25 C 3.972656 -3.382812 3.972656 -3.457031 3.984375 -3.46875 C 4.003906 -3.488281 4.101562 -3.503906 4.28125 -3.515625 C 5.238281 -3.703125 6.003906 -4.03125 6.578125 -4.5 C 7.148438 -4.976562 7.550781 -5.53125 7.78125 -6.15625 C 8.007812 -6.78125 8.097656 -7.40625 8.046875 -8.03125 C 7.984375 -8.96875 7.648438 -9.769531 7.046875 -10.4375 C 6.597656 -10.90625 6.179688 -11.234375 5.796875 -11.421875 C 5.421875 -11.617188 4.976562 -11.722656 4.46875 -11.734375 C 3.96875 -11.753906 3.269531 -11.734375 2.375 -11.671875 L 1.15625 -11.578125 C 0.84375 -11.554688 0.53125 -11.382812 0.21875 -11.0625 C -0.09375 -10.75 -0.253906 -10.359375 -0.265625 -9.890625 C -0.273438 -9.484375 -0.25 -8.875 -0.1875 -8.0625 L -0.078125 -6.546875 C 0.00390625 -5.535156 0.125 -3.976562 0.28125 -1.875 L 0.296875 -1.765625 C 0.359375 -0.867188 0.8125 -0.289062 1.65625 -0.03125 C 1.84375 0.03125 2.019531 0.0546875 2.1875 0.046875 Z M 3.90625 -6.59375 C 3.882812 -6.582031 3.847656 -6.601562 3.796875 -6.65625 L 3.765625 -6.671875 C 3.753906 -6.691406 3.742188 -6.738281 3.734375 -6.8125 L 3.671875 -7.890625 C 3.671875 -8.046875 3.710938 -8.128906 3.796875 -8.140625 C 3.910156 -8.140625 4.035156 -8.054688 4.171875 -7.890625 C 4.316406 -7.734375 4.394531 -7.585938 4.40625 -7.453125 C 4.414062 -7.304688 4.382812 -7.171875 4.3125 -7.046875 C 4.25 -6.921875 4.175781 -6.8125 4.09375 -6.71875 C 4.019531 -6.632812 3.957031 -6.59375 3.90625 -6.59375 Z M 3.90625 -6.59375 "/></g></g></g><g fill="#ff650e" fill-opacity="1"><g transform="translate(52.706064, 58.148543)"><g><path d="M 2.0625 -4.140625 L 2.78125 -4.21875 L 2.78125 -4.234375 L 3.703125 -4.296875 C 4.003906 -4.316406 4.226562 -4.335938 4.375 -4.359375 C 4.53125 -4.390625 4.675781 -4.453125 4.8125 -4.546875 C 5.0625 -4.691406 5.242188 -4.878906 5.359375 -5.109375 C 5.472656 -5.335938 5.523438 -5.578125 5.515625 -5.828125 C 5.484375 -6.171875 5.328125 -6.476562 5.046875 -6.75 C 4.765625 -7.019531 4.363281 -7.132812 3.84375 -7.09375 L 3.3125 -7.0625 C 2.625 -7.007812 2.101562 -6.960938 1.75 -6.921875 C 1.40625 -6.890625 1.15625 -6.851562 1 -6.8125 C 0.84375 -6.78125 0.707031 -6.726562 0.59375 -6.65625 C 0.332031 -6.5 0.144531 -6.304688 0.03125 -6.078125 C -0.0820312 -5.847656 -0.128906 -5.613281 -0.109375 -5.375 C -0.0859375 -5.113281 0 -4.875 0.15625 -4.65625 C 0.320312 -4.445312 0.554688 -4.296875 0.859375 -4.203125 C 1.210938 -4.128906 1.613281 -4.109375 2.0625 -4.140625 Z M 2.0625 -4.140625 "/></g></g></g><g fill="#ff650e" fill-opacity="1"><g transform="translate(58.195249, 57.745091)"><g><path d="M 3.0625 0.09375 C 3.46875 0.0625 3.945312 0.015625 4.5 -0.046875 C 4.894531 -0.0859375 5.332031 -0.128906 5.8125 -0.171875 C 6.300781 -0.210938 6.710938 -0.390625 7.046875 -0.703125 C 7.378906 -1.015625 7.523438 -1.429688 7.484375 -1.953125 C 7.453125 -2.472656 7.285156 -2.894531 6.984375 -3.21875 C 6.691406 -3.550781 6.332031 -3.726562 5.90625 -3.75 C 5.039062 -3.6875 4.363281 -3.640625 3.875 -3.609375 C 3.800781 -3.617188 3.757812 -3.648438 3.75 -3.703125 C 3.738281 -3.765625 3.726562 -3.84375 3.71875 -3.9375 C 3.707031 -4.03125 3.707031 -4.09375 3.71875 -4.125 C 3.738281 -4.164062 3.789062 -4.191406 3.875 -4.203125 C 3.96875 -4.222656 4.109375 -4.25 4.296875 -4.28125 L 4.953125 -4.359375 C 5.078125 -4.367188 5.25 -4.378906 5.46875 -4.390625 C 5.6875 -4.410156 5.910156 -4.457031 6.140625 -4.53125 C 6.640625 -4.726562 6.851562 -5.285156 6.78125 -6.203125 C 6.757812 -6.597656 6.664062 -6.882812 6.5 -7.0625 C 6.21875 -7.351562 5.789062 -7.476562 5.21875 -7.4375 C 4.59375 -7.394531 4.175781 -7.367188 3.96875 -7.359375 C 3.769531 -7.359375 3.648438 -7.378906 3.609375 -7.421875 C 3.566406 -7.460938 3.546875 -7.53125 3.546875 -7.625 L 3.53125 -7.6875 L 3.5 -7.921875 C 3.5 -7.984375 3.539062 -8.03125 3.625 -8.0625 C 3.820312 -8.070312 4.097656 -8.109375 4.453125 -8.171875 C 4.929688 -8.234375 5.359375 -8.28125 5.734375 -8.3125 C 6.160156 -8.34375 6.472656 -8.472656 6.671875 -8.703125 C 6.960938 -9.054688 7.085938 -9.503906 7.046875 -10.046875 C 7.015625 -10.546875 6.878906 -10.929688 6.640625 -11.203125 C 6.179688 -11.679688 5.5 -11.890625 4.59375 -11.828125 L 1.1875 -11.578125 C 0.289062 -11.453125 -0.179688 -11.039062 -0.234375 -10.34375 C -0.234375 -10.1875 -0.207031 -9.707031 -0.15625 -8.90625 C -0.125 -8.476562 -0.0859375 -8.035156 -0.046875 -7.578125 C -0.00390625 -7.117188 0.0234375 -6.734375 0.046875 -6.421875 C 0.078125 -6.109375 0.0976562 -5.957031 0.109375 -5.96875 L 0.3125 -3.0625 C 0.382812 -2.09375 0.488281 -1.375 0.625 -0.90625 C 0.757812 -0.4375 1.007812 -0.140625 1.375 -0.015625 C 1.75 0.109375 2.3125 0.144531 3.0625 0.09375 Z M 3.0625 0.09375 "/></g></g></g><g fill="#ff650e" fill-opacity="1"><g transform="translate(65.514159, 57.207156)"><g><path d="M 2.09375 0.09375 C 4.226562 -0.0625 5.773438 -0.8125 6.734375 -2.15625 C 7.554688 -3.300781 7.910156 -4.703125 7.796875 -6.359375 C 7.722656 -7.304688 7.460938 -8.195312 7.015625 -9.03125 C 6.578125 -9.863281 5.914062 -10.523438 5.03125 -11.015625 C 4.15625 -11.503906 3.035156 -11.707031 1.671875 -11.625 C 1.179688 -11.582031 0.753906 -11.34375 0.390625 -10.90625 C 0.0234375 -10.46875 -0.148438 -9.957031 -0.140625 -9.375 C -0.117188 -8.664062 -0.046875 -7.445312 0.078125 -5.71875 L 0.234375 -3.859375 C 0.328125 -2.628906 0.382812 -1.941406 0.40625 -1.796875 C 0.445312 -1.523438 0.546875 -1.238281 0.703125 -0.9375 C 0.859375 -0.632812 1.054688 -0.378906 1.296875 -0.171875 C 1.546875 0.0234375 1.8125 0.113281 2.09375 0.09375 Z M 3.59375 -4.640625 C 3.5625 -4.640625 3.546875 -4.644531 3.546875 -4.65625 C 3.554688 -4.769531 3.503906 -5.609375 3.390625 -7.171875 C 3.390625 -7.203125 3.40625 -7.222656 3.4375 -7.234375 C 3.5 -7.234375 3.59375 -7.195312 3.71875 -7.125 C 3.851562 -7.050781 3.972656 -6.921875 4.078125 -6.734375 C 4.179688 -6.546875 4.25 -6.285156 4.28125 -5.953125 C 4.300781 -5.640625 4.265625 -5.390625 4.171875 -5.203125 C 4.078125 -5.015625 3.96875 -4.875 3.84375 -4.78125 C 3.726562 -4.695312 3.644531 -4.648438 3.59375 -4.640625 Z M 3.59375 -4.640625 "/></g></g></g><g fill="#ff650e" fill-opacity="1"><g transform="translate(73.301141, 56.634819)"><g><path d="M 1.78125 -3.46875 C 2.164062 -3.488281 2.507812 -3.640625 2.8125 -3.921875 C 3.125 -4.203125 3.332031 -4.546875 3.4375 -4.953125 C 3.507812 -5.253906 3.546875 -5.5625 3.546875 -5.875 C 3.546875 -6.195312 3.53125 -6.671875 3.5 -7.296875 L 3.46875 -8.1875 L 3.453125 -8.1875 L 3.390625 -9.015625 C 3.347656 -9.546875 3.273438 -10.066406 3.171875 -10.578125 C 3.078125 -11.097656 2.890625 -11.519531 2.609375 -11.84375 C 2.328125 -12.175781 1.914062 -12.320312 1.375 -12.28125 L 1.25 -12.265625 C 0.300781 -12.140625 -0.195312 -11.492188 -0.25 -10.328125 C -0.28125 -9.816406 -0.28125 -9.179688 -0.25 -8.421875 C -0.226562 -7.367188 -0.195312 -6.570312 -0.15625 -6.03125 C -0.113281 -5.488281 -0.046875 -5.0625 0.046875 -4.75 C 0.140625 -4.445312 0.304688 -4.179688 0.546875 -3.953125 C 0.910156 -3.585938 1.320312 -3.425781 1.78125 -3.46875 Z M 2.265625 1.578125 C 2.566406 1.554688 2.84375 1.46875 3.09375 1.3125 C 3.351562 1.15625 3.566406 0.9375 3.734375 0.65625 C 3.921875 0.289062 4 -0.0820312 3.96875 -0.46875 C 3.945312 -0.8125 3.832031 -1.128906 3.625 -1.421875 C 3.414062 -1.710938 3.125 -1.921875 2.75 -2.046875 C 2.457031 -2.148438 2.164062 -2.1875 1.875 -2.15625 C 1.65625 -2.144531 1.4375 -2.078125 1.21875 -1.953125 C 0.894531 -1.734375 0.648438 -1.457031 0.484375 -1.125 C 0.328125 -0.800781 0.257812 -0.46875 0.28125 -0.125 C 0.320312 0.3125 0.507812 0.710938 0.84375 1.078125 C 1.28125 1.453125 1.753906 1.617188 2.265625 1.578125 Z M 2.265625 1.578125 "/></g></g></g><path stroke-linecap="butt" transform="matrix(0.221624, -0.0162892, 0.0162892, 0.221624, 3.604044, 26.997331)" fill="none" stroke-linejoin="miter" d="M 74.726466 156.520028 C 76.189256 156.521789 77.558967 156.111321 78.868081 155.326263 C 80.159665 154.539916 81.200391 153.329744 81.97144 151.711989 C 82.644255 149.752129 82.989918 147.926853 82.988321 146.269935 L 82.992423 145.494712 C 82.986217 144.859737 83.007341 144.332523 83.038265 143.911783 L 83.382948 143.778487 C 83.852179 144.588499 85.103618 146.266778 87.135979 148.830854 C 89.311943 151.599366 90.971238 153.483877 92.080091 154.46428 C 93.734468 155.696284 95.38135 156.310844 97.003207 156.306671 C 98.870495 156.320537 100.523784 155.648903 101.945542 154.290481 C 103.383543 152.950879 104.115665 151.383139 104.105557 149.602217 C 104.114033 148.527682 103.789422 147.428665 103.134303 146.270105 C 100.964001 143.184749 99.32661 141.002214 98.224709 139.687437 C 96.977915 138.185755 96.362503 137.206369 96.362231 136.73046 C 96.366604 136.431147 96.753299 135.966053 97.541135 135.318937 C 98.345212 134.69064 99.433377 133.554457 100.839401 131.930496 C 103.14126 128.909458 104.304121 125.557947 104.291637 121.890917 C 104.289461 118.08364 103.019402 114.500434 100.484037 111.106238 C 97.948673 107.712042 94.075846 105.488582 88.866847 104.418328 C 86.35658 104.039944 83.833428 103.836869 81.329875 103.84674 C 79.779431 103.838537 78.242651 103.884215 76.720826 103.966242 C 74.934749 104.046474 73.283257 104.453856 71.818942 105.192256 C 70.338384 105.911837 69.152765 106.935104 68.243267 108.278299 C 67.316237 109.620207 66.855589 111.331278 66.8639 113.376452 L 66.738981 134.500294 C 66.729997 135.82155 66.748072 136.774658 66.759433 137.33951 C 66.787035 137.923182 66.788596 138.38156 66.796599 138.752285 C 66.804602 139.123009 66.806163 139.581388 66.833765 140.16506 C 66.843837 140.747443 66.863509 143.357469 66.857718 147.992561 C 66.852056 148.309404 66.928894 148.702814 67.051881 149.187743 C 67.174869 149.672672 67.282903 150.121251 67.378561 150.498418 C 67.880312 152.544608 68.844036 154.060736 70.252201 155.045512 C 71.660366 156.030288 73.15849 156.510536 74.726466 156.520028 Z M 84.575086 128.038372 C 84.158212 127.954855 83.95374 126.89992 83.960383 124.891097 C 83.956682 121.82398 84.192786 120.290286 84.651165 120.288726 L 84.775169 120.280214 C 85.373795 120.288962 85.903857 120.750934 86.382888 121.667419 C 86.844388 122.582616 87.083141 123.41094 87.082905 124.133569 C 87.08216 125.102919 86.858669 125.985396 86.415008 126.745936 C 85.952528 127.522719 85.356751 127.95482 84.575086 128.038372 Z M 119.21681 156.952325 C 123.984926 156.826889 127.909221 155.952036 130.93839 154.30637 C 134.002622 152.663282 136.256297 150.537605 137.699416 147.92934 C 139.158778 145.339894 139.885709 142.643739 139.877635 139.875935 C 139.884242 136.668572 138.996268 133.642216 137.19747 130.778046 C 135.016588 127.357028 131.69366 125.085858 127.212445 123.945717 C 125.620224 123.546681 124.146073 122.980068 122.792569 122.210815 C 121.421534 121.440275 120.686492 120.170087 120.553668 118.380145 C 120.603411 117.943163 120.772005 117.567792 121.062026 117.218972 C 121.352048 116.870152 121.664245 116.699218 121.963558 116.703591 C 122.345371 116.784531 122.637733 117.123279 122.856886 117.738655 C 123.077328 118.3365 123.611529 119.22179 124.45691 120.429585 C 125.613473 121.959886 127.214986 122.712115 129.258871 122.721335 C 130.422349 122.718722 131.5175 122.446704 132.563144 121.889039 C 133.591257 121.330085 134.3894 120.542722 134.941332 119.508131 C 135.513371 118.439766 135.787386 117.349497 135.784773 116.186019 C 135.789619 114.441447 135.263386 112.728342 134.206074 111.046706 C 133.166292 109.366359 131.772809 107.942023 130.025624 106.773699 C 127.341301 105.16636 124.422399 104.352554 121.26634 104.367344 C 117.635659 104.364874 114.171812 105.449825 110.857267 107.620908 C 107.542722 109.79199 105.254021 113.113629 103.972345 117.602068 C 103.673068 118.796234 103.521769 119.895522 103.517159 120.917465 C 103.529951 126.258944 107.20021 130.758836 114.544178 134.435959 C 115.356023 134.901016 115.912636 135.241561 116.196487 135.456305 C 118.850394 137.237664 120.167311 138.7445 120.167347 139.943039 C 120.171485 140.366356 120.005468 140.706665 119.689404 140.930192 C 119.372053 141.17125 118.993597 141.284438 118.57028 141.288576 C 117.919062 141.275963 117.339764 141.004253 116.833675 140.455915 C 114.104455 137.540986 111.585132 136.086778 109.293238 136.094581 C 107.548666 136.089735 106.055731 136.737904 104.831966 138.040375 C 103.625731 139.344136 103.024837 141.044899 103.029282 143.142665 C 103.032475 146.456502 104.687432 149.838865 108.014261 153.255982 C 109.963069 155.038394 112.875021 156.186574 116.715055 156.697946 C 118.112368 156.871149 118.952559 156.950528 119.21681 156.952325 Z M 156.199547 155.933916 C 157.909058 155.936185 159.390395 155.445794 160.608499 154.460166 C 161.844133 153.475826 162.977903 151.479343 163.993568 148.451899 L 169.956871 131.106026 C 173.760976 119.876146 175.909595 113.42449 176.422835 111.717285 C 176.649684 111.028936 176.75124 110.36663 176.745033 109.731654 C 176.754017 108.410399 176.330664 107.215997 175.510036 106.151025 C 174.671877 105.084765 173.459909 104.30829 171.872842 103.839131 C 171.113081 103.62466 170.415713 103.520527 169.764495 103.507914 C 167.895919 103.511579 166.310176 104.223429 165.024798 105.644751 C 163.75824 107.049831 162.617247 108.904778 161.61935 111.210881 C 160.60521 113.498165 159.623046 116.069808 158.624133 118.869352 L 156.967866 123.418386 C 156.843353 123.673618 156.673979 123.819799 156.463609 123.804337 C 156.251951 123.806405 156.066843 123.687047 155.945923 123.413776 C 155.044828 121.285358 154.22881 119.198444 153.5154 117.154323 C 152.625121 114.638937 151.699272 112.367695 150.755384 110.341885 C 149.811497 108.316075 148.732788 106.685743 147.485486 105.430781 C 146.254426 104.194639 144.714017 103.570279 142.827909 103.572656 C 141.293707 103.583272 140.104459 103.936502 139.29265 104.669984 C 138.498372 105.404754 137.956749 106.299099 137.66778 107.353018 C 137.395054 108.425756 137.246332 109.489983 137.255387 110.565807 C 137.250541 112.31038 137.427954 113.733463 137.768807 114.851299 L 142.068158 129.496863 C 144.704241 138.714891 146.556247 144.931824 147.625464 148.130131 C 149.46326 153.341364 152.322147 155.930938 156.199547 155.933916 Z M 183.537309 156.88569 C 185.652606 156.882533 187.546681 156.052342 189.220822 154.377585 C 190.896252 152.685297 191.891064 150.660975 192.240321 148.307197 C 192.579505 145.371036 192.752437 143.497814 192.759116 142.68753 C 192.750332 142.087616 192.791056 141.773349 192.848803 141.707091 C 192.907838 141.623303 193.351263 141.585392 194.161547 141.59207 C 198.499631 141.082516 202.026378 139.861184 204.740501 137.945605 C 207.454624 136.030027 209.42316 133.707137 210.664929 130.960694 C 211.890455 128.195431 212.518644 125.403891 212.513146 122.601025 C 212.510698 118.317839 211.268478 114.595675 208.754001 111.396895 C 206.904953 109.216428 205.17116 107.626076 203.552625 106.625838 C 201.93409 105.625599 200.005426 105.007954 197.73286 104.752794 C 195.479113 104.481392 192.333362 104.355935 188.331957 104.361469 L 182.762577 104.357511 C 181.352379 104.359615 179.893218 105.027892 178.386382 106.344809 C 176.862015 107.660438 175.996869 109.359405 175.789656 111.45924 C 175.655652 113.282447 175.592315 116.062627 175.600934 119.78225 L 175.591858 126.620293 C 175.64639 131.154065 175.659491 138.169994 175.664932 147.688186 L 175.663915 148.181627 C 175.665584 152.235624 177.489643 154.995897 181.154912 156.446203 C 181.978353 156.753483 182.760798 156.899119 183.537309 156.88569 Z M 193.453712 127.721621 C 193.366058 127.715178 193.214723 127.615927 193.002284 127.388807 L 192.883434 127.327195 C 192.835995 127.253206 192.817684 127.022728 192.807104 126.687065 L 192.882238 121.827938 C 192.918824 121.090354 193.138722 120.73638 193.526977 120.729665 C 194.037949 120.73197 194.555635 121.122531 195.113808 121.921454 C 195.671982 122.720378 195.938574 123.409743 195.948646 123.992126 C 195.936033 124.643344 195.787038 125.231662 195.464024 125.789563 C 195.14101 126.347465 194.789377 126.815135 194.375352 127.172466 C 193.978857 127.531086 193.665371 127.719552 193.453712 127.721621 Z M 220.716992 138.07996 L 224.035983 138.006643 L 224.039848 137.954051 L 228.128907 137.95496 C 229.504044 137.950278 230.528563 137.919826 231.205043 137.828543 C 231.881523 137.737259 232.567022 137.52326 233.261541 137.186544 C 234.398705 136.582729 235.285791 135.784278 235.868918 134.804856 C 236.469577 133.826722 236.774788 132.791623 236.78584 131.682026 C 236.777801 130.112762 236.179648 128.658755 234.988804 127.355066 C 233.79796 126.051378 232.047181 125.411556 229.739045 125.400539 L 227.306904 125.398034 C 224.187195 125.39787 221.84142 125.419338 220.269579 125.462438 C 218.680207 125.50425 217.545349 125.597095 216.812411 125.737105 C 216.080762 125.859585 215.467962 126.043676 214.955194 126.305623 C 213.7278 126.938057 212.821894 127.752751 212.238767 128.732173 C 211.655639 129.711595 211.367959 130.747983 211.378303 131.806276 C 211.364673 132.950934 211.706815 134.051239 212.353423 135.085795 C 213.01885 136.104108 214.002918 136.863833 215.269276 137.379922 C 216.891404 137.851658 218.708169 138.073317 220.716992 138.07996 Z M 248.625571 157.404252 C 250.459087 157.398009 252.612022 157.362368 255.068136 157.278507 C 256.869167 157.234626 258.845506 157.203631 261.032214 157.188097 C 263.201392 157.171274 265.083871 156.49886 266.677072 155.205916 C 268.289093 153.89673 269.093135 152.069893 269.089198 149.725407 C 269.08526 147.380921 268.489412 145.415942 267.265303 143.845425 C 266.060013 142.258666 264.505159 141.351236 262.638379 141.09065 C 258.760978 141.087673 255.695151 141.073843 253.477246 141.034207 C 253.181798 140.977241 252.999267 140.822821 252.929652 140.570947 C 252.877568 140.320361 252.850745 139.965879 252.846608 139.542562 C 252.84247 139.119244 252.881906 138.822509 252.964914 138.652354 C 253.047922 138.4822 253.283554 138.393766 253.674387 138.351989 C 254.048977 138.291394 254.70406 138.251414 255.588333 138.210654 L 258.541753 138.075218 C 259.105317 138.081388 259.880539 138.08549 260.868709 138.069992 C 261.87312 138.073313 262.889129 137.918857 263.915445 137.624155 C 266.221241 136.947603 267.367116 134.546623 267.37189 130.404971 C 267.380602 128.607806 267.036391 127.295843 266.341837 126.434018 C 265.18992 125.080314 263.319002 124.396411 260.710264 124.398552 C 257.891157 124.38523 256.042688 124.355122 255.131084 124.28812 C 254.237012 124.222406 253.718818 124.078566 253.540152 123.871553 C 253.380306 123.648298 253.298314 123.325012 253.294176 122.901695 L 253.294684 122.654975 L 253.229171 121.627878 C 253.233545 121.328566 253.423027 121.148611 253.798905 121.070485 C 254.645539 121.06221 255.901825 120.995916 257.569052 120.854073 C 259.748538 120.697004 261.67615 120.60955 263.333068 120.607954 C 265.254237 120.608154 266.682982 120.113897 267.618015 119.142715 C 269.071478 117.592742 269.798174 115.619217 269.800679 113.187076 C 269.790299 110.930244 269.304282 109.149593 268.322519 107.878898 C 266.447428 105.573138 263.465353 104.419804 259.376294 104.418895 L 244.00694 104.417293 C 239.917373 104.663104 237.660849 106.347933 237.237367 109.471779 C 237.134523 110.151617 237.098753 112.316929 237.097572 115.930078 C 237.093506 117.90384 237.105682 119.896421 237.130236 121.960414 C 237.138547 124.005588 237.170051 125.735207 237.189686 127.146693 C 237.21061 128.540649 237.246724 129.248325 237.299317 129.25219 L 237.239896 142.290724 C 237.233325 146.696626 237.468285 149.974621 237.927243 152.123419 C 238.403733 154.273505 239.445311 155.689602 241.051978 156.371708 C 242.693706 157.056391 245.20655 157.399714 248.625571 157.404252 Z M 277.231961 157.162605 C 286.909219 157.151229 294.098824 154.295556 298.784532 148.576766 C 302.846117 143.675755 304.887753 137.480619 304.943216 130.011466 C 304.935613 125.798403 304.089888 121.717619 302.385932 117.802888 C 300.665733 113.869338 297.922068 110.671338 294.154935 108.208889 C 290.371559 105.727621 285.38968 104.444928 279.209298 104.360811 C 276.988816 104.356237 274.999356 105.285171 273.223387 107.146324 C 271.448706 108.989947 270.489736 111.246035 270.312703 113.89448 C 270.18338 117.092823 270.115741 122.569395 270.108497 130.341727 L 270.18016 138.719126 C 270.177491 144.270976 270.194857 147.391973 270.251079 148.065876 C 270.386208 149.344847 270.74666 150.67563 271.332436 152.058225 C 271.935744 153.442109 272.746063 154.647327 273.764685 155.656349 C 274.784594 156.64784 275.945767 157.156198 277.231961 157.162605 Z M 285.623432 136.276211 C 285.481897 136.283434 285.413062 136.260749 285.415639 136.225687 C 285.454294 135.699762 285.467071 131.928836 285.47279 124.896665 C 285.51816 124.758995 285.610968 124.695314 285.733684 124.704334 C 286.032997 124.708708 286.442141 124.897409 286.977357 125.289258 C 287.513862 125.663576 287.997267 126.280749 288.427571 127.140776 C 288.857874 128.000804 289.072146 129.162213 289.067808 130.660065 C 289.069913 132.070263 288.829671 133.18064 288.363325 134.010016 C 287.89569 134.856922 287.37726 135.435712 286.787926 135.780158 C 286.217412 136.108362 285.81756 136.272854 285.623432 136.276211 Z M 312.170618 141.029872 C 313.880128 141.032141 315.474382 140.444296 316.968333 139.302687 C 318.463572 138.143547 319.506095 136.669124 320.113432 134.880707 C 320.545733 133.555314 320.805302 132.181974 320.908383 130.779507 C 321.011463 129.37704 321.113491 127.269474 321.196936 124.455521 L 321.316695 120.428074 L 321.246572 120.42292 L 321.260638 116.634462 C 321.259277 114.254914 321.097563 111.898831 320.794313 109.549971 C 320.509882 107.184869 319.788741 105.245932 318.652286 103.681858 C 317.533362 102.119072 315.703948 101.350092 313.184153 101.341145 L 312.673182 101.33884 C 308.370668 101.604251 305.896587 104.330622 305.24965 109.535484 C 304.995778 111.790519 304.784464 114.665577 304.614417 118.178187 C 304.410633 122.869228 304.289313 126.438296 304.305627 128.854194 C 304.301834 131.303866 304.460699 133.219101 304.763405 134.616142 C 305.082354 136.032002 305.747273 137.297036 306.740632 138.409954 C 308.2687 140.161441 310.072851 141.034318 312.170618 141.029872 Z M 312.682271 163.804427 C 314.003526 163.813411 315.277851 163.501685 316.522777 162.870539 C 317.748883 162.255635 318.783947 161.362307 319.595483 160.152916 C 320.536687 158.618169 321.009711 156.97851 320.997027 155.232649 C 321.003941 153.699735 320.601205 152.224839 319.786239 150.843024 C 318.971273 149.461209 317.70722 148.434149 315.995369 147.744311 C 314.696526 147.190583 313.395887 146.901106 312.108405 146.91223 C 311.121524 146.910198 310.135423 147.137354 309.148814 147.611231 C 307.585248 148.500966 306.389322 149.664479 305.579854 151.085529 C 304.771675 152.489049 304.364127 153.957265 304.357213 155.490179 C 304.368101 157.500291 305.059334 159.366527 306.463397 161.126526 C 308.305732 162.918737 310.372846 163.810941 312.682271 163.804427 Z M 312.682271 163.804427 " stroke="#233d4d" stroke-width="3.2" stroke-opacity="1" stroke-miterlimit="4"/></svg>