<svg xmlns="http://www.w3.org/2000/svg" xmlns:xlink="http://www.w3.org/1999/xlink" width="128" zoomAndPan="magnify" viewBox="0 0 96 95.999999" height="128" preserveAspectRatio="xMidYMid meet" version="1.0"><defs><g/></defs><g fill="#ffffff" fill-opacity="1"><g transform="translate(27.684196, 48.869165)"><g><path d="M 4.546875 -0.359375 C 5.140625 -0.410156 5.640625 -0.5 6.046875 -0.625 C 6.898438 -0.925781 7.515625 -1.414062 7.890625 -2.09375 C 8.273438 -2.78125 8.441406 -3.5 8.390625 -4.25 C 8.347656 -4.820312 8.1875 -5.363281 7.90625 -5.875 C 7.632812 -6.382812 7.242188 -6.8125 6.734375 -7.15625 C 6.648438 -7.195312 6.585938 -7.238281 6.546875 -7.28125 C 6.515625 -7.320312 6.5 -7.363281 6.5 -7.40625 C 6.488281 -7.46875 6.503906 -7.554688 6.546875 -7.671875 C 6.703125 -8.128906 6.765625 -8.578125 6.734375 -9.015625 C 6.679688 -9.679688 6.429688 -10.265625 5.984375 -10.765625 C 5.535156 -11.265625 4.929688 -11.59375 4.171875 -11.75 C 3.804688 -11.8125 3.441406 -11.828125 3.078125 -11.796875 C 2.828125 -11.785156 2.582031 -11.757812 2.34375 -11.71875 C 2.101562 -11.675781 1.847656 -11.640625 1.578125 -11.609375 C 1.109375 -11.566406 0.710938 -11.421875 0.390625 -11.171875 C 0.0664062 -10.921875 -0.117188 -10.554688 -0.171875 -10.078125 C -0.191406 -9.835938 -0.128906 -8.671875 0.015625 -6.578125 L 0.078125 -5.625 L 0.375 -1.640625 C 0.414062 -1.097656 0.585938 -0.710938 0.890625 -0.484375 C 1.191406 -0.253906 1.515625 -0.15625 1.859375 -0.1875 Z M 3.953125 -3.375 C 3.910156 -3.363281 3.882812 -3.382812 3.875 -3.4375 L 3.765625 -4.71875 C 3.753906 -4.84375 3.75 -4.9375 3.75 -5 C 3.757812 -5.0625 3.789062 -5.097656 3.84375 -5.109375 C 4.03125 -5.117188 4.1875 -5.046875 4.3125 -4.890625 C 4.4375 -4.742188 4.503906 -4.554688 4.515625 -4.328125 C 4.535156 -4.148438 4.503906 -3.972656 4.421875 -3.796875 C 4.347656 -3.617188 4.210938 -3.476562 4.015625 -3.375 Z M 3.578125 -7.6875 L 3.484375 -8.96875 C 3.785156 -9 3.953125 -8.800781 3.984375 -8.375 C 3.992188 -8.226562 3.972656 -8.082031 3.921875 -7.9375 C 3.878906 -7.789062 3.765625 -7.707031 3.578125 -7.6875 Z M 3.578125 -7.6875 "/></g></g></g><g fill="#ffffff" fill-opacity="1"><g transform="translate(35.821175, 48.271103)"><g><path d="M 1.21875 0.03125 C 1.601562 0.0078125 1.925781 -0.125 2.1875 -0.375 C 2.445312 -0.625 2.65625 -0.957031 2.8125 -1.375 C 2.8125 -1.425781 2.832031 -1.46875 2.875 -1.5 C 2.914062 -1.539062 3.050781 -1.570312 3.28125 -1.59375 L 4.34375 -1.671875 L 5.515625 -1.75 C 5.742188 -1.769531 5.90625 -1.675781 6 -1.46875 C 6.21875 -1.113281 6.476562 -0.859375 6.78125 -0.703125 C 7.082031 -0.546875 7.382812 -0.476562 7.6875 -0.5 C 7.976562 -0.519531 8.234375 -0.601562 8.453125 -0.75 C 8.671875 -0.90625 8.84375 -1.113281 8.96875 -1.375 C 9.039062 -1.59375 9.070312 -1.800781 9.0625 -2 C 9.039062 -2.238281 8.925781 -2.582031 8.71875 -3.03125 C 8.425781 -3.644531 7.921875 -4.828125 7.203125 -6.578125 C 6.691406 -7.785156 6.25 -8.800781 5.875 -9.625 C 5.5 -10.445312 5.179688 -11.003906 4.921875 -11.296875 C 4.535156 -11.648438 4.109375 -11.8125 3.640625 -11.78125 C 3.242188 -11.75 2.894531 -11.570312 2.59375 -11.25 C 2.550781 -11.195312 2.503906 -11.128906 2.453125 -11.046875 C 2.367188 -10.921875 2.226562 -10.53125 2.03125 -9.875 C 1.9375 -9.570312 1.125 -7 -0.40625 -2.15625 C -0.488281 -1.90625 -0.519531 -1.65625 -0.5 -1.40625 C -0.476562 -1.101562 -0.382812 -0.804688 -0.21875 -0.515625 C -0.0820312 -0.273438 0.0703125 -0.125 0.25 -0.0625 C 0.4375 0 0.609375 0.0234375 0.765625 0.015625 L 0.875 0.03125 C 1 0.0390625 1.113281 0.0390625 1.21875 0.03125 Z M 4.125 -4.53125 C 3.957031 -4.519531 3.875 -4.535156 3.875 -4.578125 C 3.914062 -4.671875 3.972656 -4.796875 4.046875 -4.953125 C 4.117188 -5.109375 4.175781 -5.253906 4.21875 -5.390625 C 4.25 -5.390625 4.269531 -5.382812 4.28125 -5.375 C 4.382812 -5.144531 4.476562 -4.96875 4.5625 -4.84375 C 4.625 -4.738281 4.65625 -4.664062 4.65625 -4.625 C 4.65625 -4.601562 4.648438 -4.59375 4.640625 -4.59375 Z M 4.125 -4.53125 "/></g></g></g><g fill="#ffffff" fill-opacity="1"><g transform="translate(44.170806, 47.657411)"><g><path d="M 3.625 -0.046875 C 3.957031 -0.0664062 4.265625 -0.210938 4.546875 -0.484375 C 4.835938 -0.753906 5.046875 -1.0625 5.171875 -1.40625 L 5.8125 -3.09375 C 5.84375 -3.164062 5.878906 -3.203125 5.921875 -3.203125 C 5.984375 -3.203125 6.03125 -3.164062 6.0625 -3.09375 C 6.101562 -3.03125 6.144531 -2.957031 6.1875 -2.875 C 6.488281 -2.144531 6.722656 -1.648438 6.890625 -1.390625 C 7.296875 -0.710938 7.785156 -0.394531 8.359375 -0.4375 C 8.816406 -0.476562 9.1875 -0.75 9.46875 -1.25 C 9.613281 -1.519531 10.007812 -3.109375 10.65625 -6.015625 C 11.25 -8.710938 11.570312 -10.242188 11.625 -10.609375 L 11.640625 -10.90625 C 11.609375 -11.332031 11.410156 -11.660156 11.046875 -11.890625 C 10.691406 -12.117188 10.332031 -12.222656 9.96875 -12.203125 C 9.550781 -12.171875 9.210938 -11.976562 8.953125 -11.625 C 8.703125 -11.28125 8.488281 -10.84375 8.3125 -10.3125 C 8.144531 -9.789062 7.988281 -9.242188 7.84375 -8.671875 C 7.707031 -8.097656 7.554688 -7.566406 7.390625 -7.078125 C 7.390625 -7.054688 7.378906 -7.046875 7.359375 -7.046875 C 7.335938 -7.046875 7.3125 -7.054688 7.28125 -7.078125 C 7.207031 -7.210938 7.101562 -7.410156 6.96875 -7.671875 C 6.539062 -8.335938 6.117188 -8.65625 5.703125 -8.625 C 5.453125 -8.601562 5.222656 -8.476562 5.015625 -8.25 C 4.804688 -8.019531 4.628906 -7.769531 4.484375 -7.5 C 4.335938 -7.238281 4.226562 -7.035156 4.15625 -6.890625 L 4.109375 -6.859375 C 4.078125 -6.847656 4.050781 -6.859375 4.03125 -6.890625 C 4.019531 -6.929688 3.804688 -7.539062 3.390625 -8.71875 C 2.835938 -10.226562 2.234375 -11.113281 1.578125 -11.375 C 1.296875 -11.5 1.039062 -11.554688 0.8125 -11.546875 C -0.332031 -11.460938 -0.867188 -10.953125 -0.796875 -10.015625 C -0.785156 -9.898438 -0.738281 -9.722656 -0.65625 -9.484375 C -0.582031 -9.242188 -0.367188 -8.644531 -0.015625 -7.6875 C 0.390625 -6.519531 1.132812 -4.410156 2.21875 -1.359375 C 2.394531 -0.859375 2.609375 -0.507812 2.859375 -0.3125 C 3.109375 -0.113281 3.363281 -0.0234375 3.625 -0.046875 Z M 3.625 -0.046875 "/></g></g></g><g fill="#ffffff" fill-opacity="1"><g transform="translate(55.894463, 46.79573)"><g><path d="M 7.59375 -0.484375 C 7.976562 -0.503906 8.304688 -0.65625 8.578125 -0.9375 C 8.859375 -1.21875 8.984375 -1.570312 8.953125 -2 C 8.910156 -2.507812 8.644531 -3.015625 8.15625 -3.515625 C 7.53125 -4.015625 7.023438 -4.441406 6.640625 -4.796875 L 6.0625 -5.265625 C 5.757812 -5.515625 5.601562 -5.675781 5.59375 -5.75 C 5.601562 -5.8125 5.625 -5.867188 5.65625 -5.921875 L 6.96875 -7.515625 C 7.75 -8.378906 8.242188 -9.113281 8.453125 -9.71875 C 8.535156 -9.976562 8.566406 -10.234375 8.546875 -10.484375 C 8.515625 -10.960938 8.332031 -11.359375 8 -11.671875 C 7.675781 -11.992188 7.320312 -12.144531 6.9375 -12.125 C 6.644531 -12.101562 6.375 -11.972656 6.125 -11.734375 C 5.882812 -11.503906 5.519531 -11.113281 5.03125 -10.5625 L 3.375 -8.625 C 3.363281 -8.800781 3.34375 -8.972656 3.3125 -9.140625 L 3.296875 -9.390625 C 3.273438 -9.660156 3.242188 -9.960938 3.203125 -10.296875 C 3.171875 -10.671875 2.972656 -11 2.609375 -11.28125 C 2.242188 -11.570312 1.84375 -11.710938 1.40625 -11.703125 C 1.0625 -11.671875 0.753906 -11.515625 0.484375 -11.234375 C 0.210938 -10.960938 0.0390625 -10.640625 -0.03125 -10.265625 C -0.132812 -9.640625 -0.109375 -8.28125 0.046875 -6.1875 C 0.109375 -5.28125 0.175781 -4.441406 0.25 -3.671875 L 0.375 -2.15625 C 0.570312 -0.695312 1.164062 -0.00390625 2.15625 -0.078125 L 2.390625 -0.09375 C 2.742188 -0.125 3.054688 -0.28125 3.328125 -0.5625 C 3.609375 -0.851562 3.726562 -1.242188 3.6875 -1.734375 C 3.675781 -1.847656 3.660156 -1.960938 3.640625 -2.078125 C 3.628906 -2.191406 3.617188 -2.304688 3.609375 -2.421875 L 3.609375 -2.703125 L 3.640625 -2.71875 L 6.46875 -0.78125 C 6.84375 -0.550781 7.21875 -0.453125 7.59375 -0.484375 Z M 7.59375 -0.484375 "/></g></g></g><g fill="#ffffff" fill-opacity="1"><g transform="translate(64.598511, 46.155988)"><g><path d="M 1.78125 -3.46875 C 2.164062 -3.488281 2.507812 -3.640625 2.8125 -3.921875 C 3.125 -4.203125 3.332031 -4.546875 3.4375 -4.953125 C 3.507812 -5.253906 3.546875 -5.5625 3.546875 -5.875 C 3.546875 -6.195312 3.53125 -6.671875 3.5 -7.296875 L 3.46875 -8.1875 L 3.453125 -8.1875 L 3.390625 -9.015625 C 3.347656 -9.546875 3.273438 -10.066406 3.171875 -10.578125 C 3.078125 -11.097656 2.890625 -11.519531 2.609375 -11.84375 C 2.328125 -12.175781 1.914062 -12.320312 1.375 -12.28125 L 1.25 -12.265625 C 0.300781 -12.140625 -0.195312 -11.492188 -0.25 -10.328125 C -0.28125 -9.816406 -0.28125 -9.179688 -0.25 -8.421875 C -0.226562 -7.367188 -0.195312 -6.570312 -0.15625 -6.03125 C -0.113281 -5.488281 -0.046875 -5.0625 0.046875 -4.75 C 0.140625 -4.445312 0.304688 -4.179688 0.546875 -3.953125 C 0.910156 -3.585938 1.320312 -3.425781 1.78125 -3.46875 Z M 2.265625 1.578125 C 2.566406 1.554688 2.84375 1.46875 3.09375 1.3125 C 3.351562 1.15625 3.566406 0.9375 3.734375 0.65625 C 3.921875 0.289062 4 -0.0820312 3.96875 -0.46875 C 3.945312 -0.8125 3.832031 -1.128906 3.625 -1.421875 C 3.414062 -1.710938 3.125 -1.921875 2.75 -2.046875 C 2.457031 -2.148438 2.164062 -2.1875 1.875 -2.15625 C 1.65625 -2.144531 1.4375 -2.078125 1.21875 -1.953125 C 0.894531 -1.734375 0.648438 -1.457031 0.484375 -1.125 C 0.328125 -0.800781 0.257812 -0.46875 0.28125 -0.125 C 0.320312 0.3125 0.507812 0.710938 0.84375 1.078125 C 1.28125 1.453125 1.753906 1.617188 2.265625 1.578125 Z M 2.265625 1.578125 "/></g></g></g><path stroke-linecap="butt" transform="matrix(0.747982, -0.0549762, 0.0549762, 0.747982, 4.328738, 36.297338)" fill="none" stroke-linejoin="miter" d="M 35.914027 18.964206 C 36.697375 18.964336 37.370648 18.898928 37.923074 18.772415 C 39.090028 18.456062 39.958835 17.861898 40.539884 16.990688 C 41.120933 16.119478 41.414918 15.174945 41.415881 14.167096 C 41.414102 13.409719 41.254202 12.672055 40.930605 11.958917 C 40.607009 11.245778 40.123996 10.641037 39.481567 10.144694 C 39.37745 10.069151 39.298158 10.011099 39.249651 9.960532 C 39.19595 9.909584 39.174178 9.850537 39.173946 9.782629 C 39.174097 9.709527 39.213662 9.597543 39.287447 9.446294 C 39.54027 8.848636 39.666902 8.262591 39.667725 7.682967 C 39.671059 6.784962 39.390695 5.980998 38.841834 5.277415 C 38.293736 4.563443 37.525498 4.07352 36.538265 3.792064 C 36.046101 3.667109 35.559743 3.605251 35.079193 3.606487 C 34.750424 3.603212 34.420509 3.615521 34.089449 3.643412 C 33.763965 3.66649 33.417703 3.688042 33.051047 3.702872 C 32.433153 3.725348 31.894019 3.884173 31.438457 4.184922 C 30.983276 4.480476 30.703637 4.945605 30.589534 5.574349 C 30.53508 5.888912 30.504037 7.448123 30.491975 10.241211 L 30.471923 11.508776 L 30.491333 16.857923 C 30.49059 17.578557 30.681344 18.109593 31.058782 18.445455 C 31.436602 18.776123 31.857804 18.942863 32.312001 18.944912 Z M 35.418842 14.901353 C 35.356128 14.901966 35.327253 14.86851 35.327785 14.790213 L 35.306804 13.086174 C 35.308633 12.919192 35.312601 12.794147 35.32948 12.706607 C 35.341546 12.613491 35.386537 12.569796 35.459639 12.569947 C 35.698578 12.587509 35.893903 12.70109 36.045232 12.915886 C 36.196561 13.130681 36.276927 13.387262 36.275561 13.69006 C 36.278777 13.930526 36.214848 14.160835 36.093781 14.386944 C 35.973478 14.602664 35.778315 14.771103 35.498284 14.886303 Z M 35.347629 9.120164 L 35.343758 7.396493 C 35.751206 7.395106 35.954327 7.686821 35.953123 8.27164 C 35.954198 8.470169 35.913719 8.665645 35.837643 8.848059 C 35.761567 9.030473 35.598102 9.122906 35.347629 9.120164 Z M 42.316938 19.173697 C 42.823842 19.169175 43.268333 19.019061 43.646363 18.707391 C 44.024392 18.395721 44.336955 17.980014 44.578475 17.465083 C 44.599785 17.388313 44.635532 17.328272 44.686099 17.279765 C 44.742241 17.226445 44.921903 17.197871 45.240283 17.200382 L 46.63847 17.21959 L 48.215937 17.215418 C 48.518734 17.216784 48.727351 17.362676 48.841788 17.653096 C 49.077914 18.135243 49.396306 18.492877 49.786573 18.725235 C 50.182035 18.957974 50.580702 19.076056 50.982956 19.074287 C 51.36405 19.076185 51.71008 18.986726 52.025859 18.811485 C 52.341637 18.636244 52.590421 18.377743 52.7674 18.030406 C 52.891139 17.767937 52.952546 17.500887 52.956433 17.234831 C 52.954132 16.910874 52.831899 16.44232 52.594547 15.834746 C 52.266057 14.975021 51.71205 13.346697 50.926568 10.959782 C 50.369276 9.305105 49.886775 7.911822 49.463099 6.783982 C 49.050194 5.651711 48.67366 4.877235 48.349461 4.456505 C 47.881117 3.936401 47.336165 3.677007 46.714605 3.678324 C 46.182111 3.675743 45.702255 3.880704 45.275417 4.288012 C 45.202164 4.360963 45.133342 4.444685 45.069332 4.533984 C 44.941313 4.71258 44.705369 5.222699 44.366313 6.069917 C 44.202627 6.449565 42.865803 9.787637 40.365466 16.095286 C 40.236764 16.425281 40.17597 16.755045 40.172695 17.083815 C 40.174464 17.486068 40.270112 17.889999 40.45964 18.295608 C 40.623348 18.626206 40.821807 18.839243 41.060214 18.935102 C 41.293808 19.025384 41.518922 19.088931 41.731125 19.114973 L 41.880997 19.136433 C 42.036063 19.158275 42.17631 19.168583 42.316938 19.173697 Z M 46.63973 13.365564 C 46.425617 13.365494 46.317682 13.341894 46.315924 13.294763 C 46.382987 13.16391 46.473119 13.003418 46.587082 12.802899 C 46.701427 12.597186 46.787892 12.415535 46.846858 12.252753 C 46.888794 12.250613 46.919578 12.258098 46.944786 12.270395 C 47.042876 12.570058 47.144784 12.817778 47.245697 13.007979 C 47.324074 13.149521 47.364333 13.241261 47.360515 13.293204 C 47.3638 13.319557 47.352648 13.329182 47.326676 13.327273 Z M 56.701975 19.280513 C 57.145783 19.281799 57.57026 19.119769 57.975025 18.79962 C 58.37979 18.47947 58.684486 18.099741 58.884301 17.654858 L 59.892236 15.451982 C 59.939518 15.377121 59.994515 15.339384 60.057229 15.338771 C 60.135525 15.339304 60.194803 15.385439 60.239874 15.482755 C 60.284946 15.580071 60.324441 15.682199 60.363172 15.794716 C 60.707707 16.791402 60.97088 17.473988 61.157887 17.842854 C 61.643582 18.766358 62.257518 19.22405 63.014512 19.227465 C 63.636073 19.226147 64.16107 18.90439 64.589887 18.256998 C 64.808038 17.91791 65.482473 15.847193 66.623961 12.040416 C 67.672495 8.503594 68.253663 6.493913 68.367465 6.011373 L 68.405724 5.632951 C 68.405783 5.063716 68.178136 4.608304 67.727596 4.272291 C 67.283014 3.926272 66.815063 3.756096 66.334512 3.757332 C 65.78086 3.758418 65.310629 3.974531 64.933825 4.411628 C 64.552209 4.843149 64.223762 5.403916 63.948866 6.088733 C 63.668775 6.773168 63.407553 7.485102 63.159242 8.234541 C 62.911312 8.978787 62.656812 9.670325 62.390164 10.313969 C 62.377867 10.339177 62.361138 10.353615 62.335167 10.351706 C 62.298425 10.354228 62.268404 10.336354 62.245105 10.298085 C 62.165351 10.104218 62.038999 9.833812 61.861236 9.481291 C 61.369964 8.5626 60.845096 8.10101 60.291825 8.096902 C 59.95748 8.098439 59.643992 8.242514 59.341356 8.523169 C 59.038337 8.809018 58.780541 9.11908 58.562772 9.452974 C 58.345002 9.786868 58.189334 10.057435 58.085759 10.258718 L 58.009985 10.294927 C 57.973243 10.297449 57.948798 10.274763 57.926644 10.220911 C 57.909303 10.172635 57.677597 9.346135 57.235574 7.757377 C 56.641298 5.682191 55.923224 4.43871 55.071345 4.020975 C 54.719577 3.833227 54.386909 3.740885 54.068528 3.738374 C 52.554158 3.736738 51.793286 4.354502 51.796302 5.592429 C 51.795619 5.743828 51.835195 5.986966 51.915411 6.31665 C 52.001203 6.641521 52.222139 7.472451 52.589371 8.799816 C 53.032157 10.378185 53.824069 13.246032 54.959533 17.408169 C 55.139215 18.089841 55.380536 18.57237 55.699078 18.856902 C 56.01762 19.141433 56.352046 19.280906 56.701975 19.280513 Z M 77.687215 19.115195 C 78.204126 19.116631 78.660532 18.946503 79.062012 18.6 C 79.457915 18.25831 79.658493 17.803038 79.658171 17.238997 C 79.656241 16.554723 79.347846 15.847924 78.733367 15.113405 C 77.961914 14.383017 77.328266 13.767204 76.83166 13.276357 L 76.129873 12.592867 C 75.739142 12.224694 75.547404 11.991261 75.544269 11.891806 C 75.560385 11.814654 75.591701 11.743843 75.638219 11.679371 L 77.538895 9.693559 C 78.662515 8.616776 79.399163 7.689111 79.754415 6.905752 C 79.879068 6.559792 79.945438 6.225215 79.943137 5.901259 C 79.943728 5.253727 79.738537 4.705962 79.327943 4.252771 C 78.917732 3.794385 78.45398 3.567071 77.93707 3.565636 C 77.555593 3.568932 77.190163 3.709189 76.840395 3.991602 C 76.495441 4.279591 75.974572 4.758323 75.276646 5.443382 L 72.873357 7.872711 C 72.870141 7.632245 72.866544 7.396974 72.852176 7.166133 L 72.85102 6.826593 C 72.85101 6.47147 72.83847 6.073647 72.813402 5.633125 C 72.814074 5.126603 72.581615 4.665615 72.121601 4.245348 C 71.661204 3.830275 71.134357 3.608769 70.540677 3.586023 C 70.08648 3.583974 69.666434 3.756774 69.280919 4.099228 C 68.895405 4.441682 68.630354 4.850437 68.490581 5.331067 C 68.299638 6.152615 68.203139 7.962911 68.205896 10.767534 C 68.206391 11.968718 68.212994 13.086793 68.225323 14.126954 L 68.247078 16.175727 C 68.375543 18.122673 69.097887 19.094904 70.424498 19.093184 L 70.725769 19.115327 C 71.221902 19.115236 71.66349 18.933574 72.044955 18.575155 C 72.431997 18.211924 72.625623 17.709139 72.625833 17.066802 C 72.626516 16.915403 72.622004 16.763622 72.607104 16.611078 C 72.597398 16.458916 72.588075 16.301559 72.589521 16.139771 L 72.605475 15.780599 L 72.643744 15.7573 L 76.206592 18.583357 C 76.702735 18.938389 77.196277 19.115668 77.687215 19.115195 Z M 81.891263 14.567373 C 82.397784 14.568046 82.870156 14.393869 83.31319 14.05042 C 83.756224 13.706972 84.065119 13.270105 84.245071 12.740204 C 84.37316 12.347495 84.449688 11.945774 84.48023 11.530228 C 84.510773 11.114682 84.541003 10.490218 84.565728 9.656454 L 84.601594 8.457942 L 84.580434 8.461609 L 84.579408 7.338722 C 84.584199 6.634052 84.536665 5.930759 84.446432 5.239995 C 84.362156 4.539224 84.148485 3.964724 83.811757 3.501295 C 83.480224 3.038247 82.938176 2.810401 82.19157 2.80775 L 82.040171 2.807067 C 80.765352 2.885707 80.032291 3.693521 79.840606 5.235702 C 79.765384 5.903861 79.702773 6.75573 79.65277 7.791309 C 79.592008 9.186442 79.561637 10.239131 79.560895 10.959765 C 79.560153 11.680399 79.606842 12.253071 79.696533 12.667009 C 79.796231 13.086905 79.988431 13.456153 80.28276 13.785907 C 80.735521 14.304866 81.270084 14.563496 81.891263 14.567373 Z M 82.042864 21.31539 C 82.434729 21.312857 82.812306 21.220494 83.180791 21.038682 C 83.544082 20.856489 83.85115 20.586604 84.091223 20.23346 C 84.370098 19.778721 84.510254 19.292896 84.506495 18.775604 C 84.508926 18.316213 84.389215 17.884401 84.147743 17.474974 C 83.906654 17.060353 83.532119 16.756039 83.024522 16.556837 C 82.640062 16.387575 82.254306 16.306998 81.873211 16.3051 C 81.580802 16.304498 81.288242 16.376998 81.00149 16.512593 C 80.532635 16.781031 80.178668 17.120581 79.938826 17.541633 C 79.699365 17.957491 79.57861 18.392518 79.576561 18.846715 C 79.579788 19.442303 79.784216 20.000457 80.200616 20.516743 C 80.746493 21.047769 81.358971 21.312126 82.042864 21.31539 Z M 82.042864 21.31539 " stroke="#233d4d" stroke-width="0.94815" stroke-opacity="1" stroke-miterlimit="4"/></svg>