<svg xmlns="http://www.w3.org/2000/svg" xmlns:xlink="http://www.w3.org/1999/xlink" width="128" zoomAndPan="magnify" viewBox="0 0 96 95.999999" height="128" preserveAspectRatio="xMidYMid meet" version="1.0"><defs><g/><clipPath id="bb78c8a8f0"><path d="M 1 11.101562 L 96 11.101562 L 96 84 L 1 84 Z M 1 11.101562 " clip-rule="nonzero"/></clipPath><clipPath id="06b3f81c10"><path d="M 0 11.101562 L 96 11.101562 L 96 84.601562 L 0 84.601562 Z M 0 11.101562 " clip-rule="nonzero"/></clipPath></defs><g clip-path="url(#bb78c8a8f0)"><path fill="#ffffff" d="M 93.582031 26.0625 C 92.9375 24.398438 92.050781 22.875 90.851562 21.597656 C 87.753906 18.300781 82.539062 16.101562 78.25 14.894531 C 71.609375 13.027344 64.570312 12.179688 57.6875 11.957031 C 49.113281 11.679688 40.492188 12.234375 32.035156 13.699219 C 23.617188 15.160156 14.707031 17.378906 8.261719 23.328125 C 0.0703125 30.882812 0.460938 43.261719 3.933594 53.140625 C 6.011719 59.042969 9.582031 64.242188 14.859375 67.71875 C 17.34375 69.355469 20.09375 70.484375 22.957031 71.273438 C 24.535156 74.972656 24.816406 78.898438 21.042969 80.976562 C 19.769531 81.675781 20.285156 83.890625 21.808594 83.78125 C 29.347656 83.246094 35.855469 78.921875 40.394531 73.019531 C 40.699219 72.625 44.246094 72.800781 44.863281 72.75 C 46.503906 72.609375 48.140625 72.421875 49.769531 72.203125 C 56.675781 71.277344 63.558594 70.777344 70.394531 69.304688 C 77.261719 67.820312 84.601562 65.679688 88.746094 59.574219 C 92.390625 54.203125 94.496094 47.304688 94.96875 40.898438 C 95.300781 36.363281 95.363281 30.671875 93.582031 26.0625 " fill-opacity="1" fill-rule="nonzero"/></g><g clip-path="url(#06b3f81c10)"><path fill="#231f20" d="M 93.582031 26.0625 L 94.328125 25.777344 C 93.65625 24.035156 92.71875 22.417969 91.4375 21.050781 C 89.792969 19.308594 87.640625 17.894531 85.355469 16.75 C 83.070312 15.609375 80.652344 14.742188 78.46875 14.128906 C 71.746094 12.234375 64.644531 11.382812 57.714844 11.160156 C 56.28125 11.113281 54.847656 11.089844 53.414062 11.089844 C 46.210938 11.089844 38.996094 11.679688 31.898438 12.914062 C 27.667969 13.648438 23.292969 14.574219 19.132812 16.082031 C 14.980469 17.585938 11.039062 19.675781 7.714844 22.742188 C 5.210938 25.050781 3.472656 27.804688 2.371094 30.78125 C 1.265625 33.753906 0.792969 36.949219 0.792969 40.171875 C 0.792969 44.6875 1.71875 49.261719 3.179688 53.40625 C 4.238281 56.421875 5.6875 59.265625 7.550781 61.808594 C 9.414062 64.351562 11.695312 66.589844 14.417969 68.382812 C 16.988281 70.078125 19.820312 71.234375 22.742188 72.042969 L 22.957031 71.273438 L 22.21875 71.585938 C 22.855469 73.074219 23.253906 74.578125 23.253906 75.90625 C 23.253906 76.820312 23.070312 77.644531 22.667969 78.367188 C 22.261719 79.089844 21.636719 79.734375 20.65625 80.277344 C 20.269531 80.488281 19.972656 80.804688 19.789062 81.15625 C 19.601562 81.503906 19.523438 81.886719 19.523438 82.253906 C 19.523438 82.8125 19.703125 83.363281 20.066406 83.8125 C 20.25 84.035156 20.484375 84.230469 20.761719 84.367188 C 21.039062 84.507812 21.363281 84.585938 21.699219 84.582031 C 21.753906 84.582031 21.804688 84.582031 21.855469 84.578125 L 21.863281 84.578125 C 25.773438 84.300781 29.40625 83.039062 32.640625 81.097656 C 35.871094 79.152344 38.707031 76.527344 41.03125 73.503906 L 40.542969 73.132812 L 40.882812 73.644531 C 40.917969 73.621094 40.96875 73.582031 41.03125 73.503906 L 40.542969 73.132812 L 40.882812 73.644531 L 40.671875 73.328125 L 40.824219 73.675781 C 40.832031 73.671875 40.851562 73.664062 40.882812 73.644531 L 40.671875 73.328125 L 40.824219 73.675781 L 40.785156 73.585938 L 40.820312 73.679688 L 40.824219 73.675781 L 40.785156 73.585938 L 40.820312 73.679688 C 40.824219 73.675781 40.933594 73.648438 41.074219 73.628906 C 41.292969 73.597656 41.609375 73.578125 41.953125 73.566406 C 42.296875 73.554688 42.675781 73.550781 43.042969 73.550781 C 43.53125 73.550781 44.003906 73.558594 44.363281 73.558594 C 44.476562 73.558594 44.582031 73.554688 44.675781 73.554688 C 44.769531 73.554688 44.847656 73.550781 44.929688 73.542969 L 44.933594 73.542969 C 46.585938 73.402344 48.234375 73.214844 49.878906 72.996094 C 56.75 72.070312 63.652344 71.570312 70.5625 70.082031 C 74.019531 69.335938 77.625 68.421875 80.929688 66.894531 C 82.578125 66.132812 84.15625 65.214844 85.589844 64.089844 C 87.027344 62.960938 88.324219 61.621094 89.410156 60.019531 C 93.152344 54.503906 95.28125 47.492188 95.765625 40.957031 C 95.875 39.492188 95.953125 37.90625 95.953125 36.265625 C 95.953125 32.777344 95.59375 29.054688 94.328125 25.777344 L 92.832031 26.347656 C 93.992188 29.339844 94.351562 32.890625 94.351562 36.265625 C 94.351562 37.855469 94.273438 39.402344 94.167969 40.839844 C 93.707031 47.117188 91.632812 53.902344 88.082031 59.125 C 87.097656 60.578125 85.921875 61.796875 84.597656 62.835938 C 82.621094 64.390625 80.3125 65.539062 77.851562 66.433594 C 75.390625 67.328125 72.785156 67.972656 70.222656 68.523438 C 63.460938 69.980469 56.601562 70.480469 49.664062 71.414062 C 48.042969 71.628906 46.421875 71.8125 44.792969 71.953125 L 44.800781 71.953125 C 44.777344 71.957031 44.722656 71.957031 44.644531 71.960938 C 44.570312 71.960938 44.472656 71.960938 44.363281 71.960938 C 44.019531 71.960938 43.546875 71.957031 43.042969 71.957031 C 42.449219 71.957031 41.820312 71.964844 41.285156 72.003906 C 41.019531 72.023438 40.773438 72.050781 40.546875 72.101562 C 40.433594 72.125 40.324219 72.15625 40.199219 72.207031 C 40.136719 72.234375 40.070312 72.265625 39.996094 72.3125 C 39.925781 72.363281 39.839844 72.429688 39.757812 72.535156 C 37.542969 75.414062 34.851562 77.902344 31.8125 79.730469 C 28.769531 81.558594 25.382812 82.726562 21.75 82.988281 L 21.808594 83.78125 L 21.757812 82.988281 C 21.734375 82.988281 21.714844 82.988281 21.699219 82.988281 C 21.601562 82.988281 21.535156 82.96875 21.476562 82.941406 C 21.386719 82.894531 21.300781 82.816406 21.234375 82.691406 C 21.164062 82.570312 21.125 82.40625 21.125 82.253906 C 21.125 82.121094 21.15625 81.996094 21.207031 81.902344 C 21.257812 81.804688 21.320312 81.734375 21.429688 81.671875 C 22.636719 81.011719 23.515625 80.140625 24.070312 79.140625 C 24.625 78.140625 24.855469 77.03125 24.855469 75.90625 C 24.855469 74.269531 24.382812 72.582031 23.691406 70.960938 C 23.597656 70.738281 23.402344 70.570312 23.171875 70.503906 C 20.371094 69.730469 17.699219 68.632812 15.300781 67.050781 C 12.746094 65.371094 10.605469 63.269531 8.84375 60.871094 C 7.085938 58.46875 5.707031 55.761719 4.691406 52.875 C 3.285156 48.878906 2.394531 44.46875 2.394531 40.171875 C 2.394531 37.101562 2.847656 34.097656 3.871094 31.332031 C 4.898438 28.566406 6.496094 26.042969 8.804688 23.914062 C 11.929688 21.03125 15.667969 19.035156 19.683594 17.582031 C 23.699219 16.125 27.984375 15.210938 32.171875 14.488281 C 39.175781 13.269531 46.300781 12.6875 53.414062 12.6875 C 54.832031 12.6875 56.246094 12.707031 57.660156 12.753906 C 64.496094 12.976562 71.476562 13.816406 78.03125 15.664062 C 80.132812 16.257812 82.46875 17.09375 84.636719 18.175781 C 86.808594 19.261719 88.8125 20.59375 90.265625 22.144531 C 91.382812 23.332031 92.21875 24.761719 92.832031 26.347656 L 93.582031 26.0625 " fill-opacity="1" fill-rule="nonzero"/></g><path fill="#ffffff" d="M 71.480469 17.214844 C 72.574219 17.132812 73.5 17.300781 74.507812 17.800781 " fill-opacity="1" fill-rule="nonzero"/><path fill="#231f20" d="M 71.542969 18.011719 C 71.703125 18 71.855469 17.992188 72 17.992188 C 72.761719 17.996094 73.394531 18.144531 74.148438 18.515625 C 74.542969 18.710938 75.023438 18.550781 75.222656 18.160156 C 75.421875 17.765625 75.261719 17.285156 74.863281 17.089844 C 73.929688 16.617188 72.988281 16.394531 72 16.394531 C 71.808594 16.394531 71.613281 16.40625 71.417969 16.417969 C 70.976562 16.453125 70.648438 16.835938 70.683594 17.277344 C 70.714844 17.714844 71.101562 18.046875 71.542969 18.011719 " fill-opacity="1" fill-rule="nonzero"/><path fill="#ffffff" d="M 75.851562 18.640625 C 82.238281 19.726562 87.785156 24.664062 89.800781 30.777344 " fill-opacity="1" fill-rule="nonzero"/><path fill="#231f20" d="M 75.714844 19.425781 C 78.746094 19.941406 81.601562 21.378906 83.9375 23.421875 C 86.269531 25.46875 88.082031 28.117188 89.039062 31.023438 C 89.179688 31.445312 89.632812 31.671875 90.050781 31.535156 C 90.472656 31.398438 90.703125 30.945312 90.5625 30.527344 C 89.507812 27.324219 87.535156 24.449219 84.996094 22.226562 C 82.453125 20 79.339844 18.421875 75.988281 17.851562 C 75.550781 17.777344 75.136719 18.070312 75.0625 18.503906 C 74.988281 18.9375 75.28125 19.351562 75.714844 19.425781 " fill-opacity="1" fill-rule="nonzero"/><path fill="#231f20" d="M 89.757812 32.703125 C 89.757812 33.035156 89.757812 33.289062 89.757812 33.539062 C 89.757812 33.980469 90.117188 34.335938 90.558594 34.335938 C 91 34.335938 91.359375 33.980469 91.359375 33.539062 C 91.359375 33.289062 91.359375 33.035156 91.359375 32.703125 C 91.359375 32.261719 91 31.902344 90.558594 31.902344 C 90.117188 31.902344 89.757812 32.261719 89.757812 32.703125 " fill-opacity="1" fill-rule="nonzero"/><path fill="#ffffff" d="M 49.125 68.863281 C 50.050781 68.863281 50.890625 68.695312 51.816406 68.613281 " fill-opacity="1" fill-rule="nonzero"/><path fill="#231f20" d="M 49.125 69.660156 C 49.636719 69.660156 50.113281 69.617188 50.566406 69.5625 C 51.019531 69.507812 51.453125 69.445312 51.886719 69.410156 C 52.328125 69.367188 52.652344 68.980469 52.613281 68.539062 C 52.574219 68.101562 52.183594 67.777344 51.742188 67.820312 C 51.253906 67.863281 50.804688 67.925781 50.375 67.976562 C 49.945312 68.027344 49.539062 68.066406 49.125 68.066406 C 48.683594 68.066406 48.324219 68.421875 48.324219 68.863281 C 48.324219 69.304688 48.683594 69.660156 49.125 69.660156 " fill-opacity="1" fill-rule="nonzero"/><path fill="#ffffff" d="M 55.34375 68.277344 C 57.195312 67.859375 59.125 67.941406 60.976562 67.691406 C 64.589844 67.355469 68.203125 66.605469 71.648438 65.265625 " fill-opacity="1" fill-rule="nonzero"/><path fill="#231f20" d="M 55.523438 69.054688 C 56.375 68.863281 57.28125 68.78125 58.214844 68.71875 C 59.148438 68.65625 60.109375 68.613281 61.085938 68.480469 L 60.976562 67.691406 L 61.050781 68.488281 C 64.722656 68.144531 68.414062 67.378906 71.941406 66.007812 C 72.351562 65.847656 72.554688 65.382812 72.394531 64.972656 C 72.234375 64.5625 71.769531 64.359375 71.355469 64.519531 C 67.992188 65.828125 64.453125 66.566406 60.902344 66.898438 L 60.867188 66.902344 C 59.992188 67.019531 59.066406 67.0625 58.105469 67.125 C 57.148438 67.191406 56.164062 67.273438 55.167969 67.5 C 54.734375 67.597656 54.464844 68.023438 54.5625 68.453125 C 54.660156 68.882812 55.089844 69.152344 55.523438 69.054688 " fill-opacity="1" fill-rule="nonzero"/><g fill="#ff650e" fill-opacity="1"><g transform="translate(21.38967, 32.817299)"><g/></g></g><g fill="#ff650e" fill-opacity="1"><g transform="translate(25.585383, 32.508917)"><g><path d="M 1.03125 0.03125 C 1.351562 0.0078125 1.625 -0.101562 1.84375 -0.3125 C 2.070312 -0.53125 2.25 -0.8125 2.375 -1.15625 C 2.382812 -1.207031 2.40625 -1.25 2.4375 -1.28125 C 2.46875 -1.3125 2.585938 -1.332031 2.796875 -1.34375 L 3.65625 -1.40625 L 4.65625 -1.46875 C 4.851562 -1.488281 4.988281 -1.410156 5.0625 -1.234375 C 5.238281 -0.929688 5.457031 -0.71875 5.71875 -0.59375 C 5.976562 -0.46875 6.234375 -0.410156 6.484375 -0.421875 C 6.722656 -0.441406 6.941406 -0.515625 7.140625 -0.640625 C 7.335938 -0.765625 7.476562 -0.941406 7.5625 -1.171875 C 7.632812 -1.335938 7.664062 -1.503906 7.65625 -1.671875 C 7.632812 -1.878906 7.539062 -2.171875 7.375 -2.546875 C 7.125 -3.078125 6.691406 -4.078125 6.078125 -5.546875 C 5.648438 -6.566406 5.273438 -7.421875 4.953125 -8.109375 C 4.640625 -8.804688 4.375 -9.28125 4.15625 -9.53125 C 3.820312 -9.84375 3.457031 -9.984375 3.0625 -9.953125 C 2.726562 -9.921875 2.441406 -9.769531 2.203125 -9.5 C 2.160156 -9.4375 2.125 -9.378906 2.09375 -9.328125 C 2.019531 -9.203125 1.894531 -8.875 1.71875 -8.34375 C 1.625 -8.09375 0.929688 -5.921875 -0.359375 -1.828125 C -0.421875 -1.609375 -0.445312 -1.394531 -0.4375 -1.1875 C -0.414062 -0.925781 -0.332031 -0.671875 -0.1875 -0.421875 C -0.0703125 -0.222656 0.0546875 -0.0976562 0.203125 -0.046875 C 0.359375 -0.00390625 0.503906 0.0195312 0.640625 0.03125 L 0.75 0.015625 C 0.851562 0.0351562 0.945312 0.0390625 1.03125 0.03125 Z M 3.46875 -3.828125 C 3.332031 -3.816406 3.265625 -3.828125 3.265625 -3.859375 C 3.296875 -3.941406 3.34375 -4.046875 3.40625 -4.171875 C 3.476562 -4.304688 3.53125 -4.425781 3.5625 -4.53125 C 3.582031 -4.53125 3.601562 -4.535156 3.625 -4.546875 C 3.695312 -4.347656 3.769531 -4.191406 3.84375 -4.078125 C 3.90625 -3.992188 3.9375 -3.9375 3.9375 -3.90625 C 3.9375 -3.894531 3.925781 -3.890625 3.90625 -3.890625 Z M 3.46875 -3.828125 "/></g></g></g><g fill="#ff650e" fill-opacity="1"><g transform="translate(32.634379, 31.990821)"><g><path d="M 4.015625 -0.109375 C 4.867188 -0.171875 5.46875 -0.285156 5.8125 -0.453125 C 6.15625 -0.617188 6.347656 -0.957031 6.390625 -1.46875 L 6.390625 -1.75 C 6.347656 -2.25 6.171875 -2.582031 5.859375 -2.75 C 5.554688 -2.925781 5.160156 -3.003906 4.671875 -2.984375 C 4.179688 -2.960938 3.816406 -2.953125 3.578125 -2.953125 C 3.453125 -2.941406 3.351562 -2.9375 3.28125 -2.9375 C 3.21875 -2.9375 3.175781 -2.941406 3.15625 -2.953125 C 3.132812 -2.960938 3.125 -2.976562 3.125 -3 C 3.132812 -3.144531 3.113281 -3.578125 3.0625 -4.296875 C 3.019531 -5.015625 2.976562 -5.613281 2.9375 -6.09375 C 2.90625 -6.570312 2.890625 -6.957031 2.890625 -7.25 L 2.859375 -7.625 C 2.867188 -7.738281 2.867188 -7.832031 2.859375 -7.90625 C 2.859375 -7.976562 2.851562 -8.035156 2.84375 -8.078125 L 2.828125 -8.25 L 2.84375 -8.25 C 2.820312 -8.476562 2.765625 -8.710938 2.671875 -8.953125 C 2.578125 -9.191406 2.421875 -9.394531 2.203125 -9.5625 C 1.992188 -9.738281 1.671875 -9.8125 1.234375 -9.78125 C 0.835938 -9.75 0.535156 -9.632812 0.328125 -9.4375 C 0.117188 -9.25 -0.015625 -9.03125 -0.078125 -8.78125 C -0.148438 -8.53125 -0.179688 -8.285156 -0.171875 -8.046875 L 0.34375 -1.1875 C 0.363281 -0.78125 0.523438 -0.460938 0.828125 -0.234375 C 1.140625 -0.015625 1.453125 0.0820312 1.765625 0.0625 Z M 4.015625 -0.109375 "/></g></g></g><g fill="#ff650e" fill-opacity="1"><g transform="translate(38.522505, 31.558048)"><g><path d="M 1.9375 -0.046875 C 2.21875 -0.0664062 2.46875 -0.15625 2.6875 -0.3125 C 2.914062 -0.476562 3.09375 -0.71875 3.21875 -1.03125 C 3.320312 -1.414062 3.359375 -1.765625 3.328125 -2.078125 L 3.328125 -2.21875 C 3.316406 -2.332031 3.3125 -2.429688 3.3125 -2.515625 L 3.375 -2.5625 C 3.476562 -2.40625 3.738281 -2.101562 4.15625 -1.65625 C 4.601562 -1.164062 4.941406 -0.832031 5.171875 -0.65625 C 5.484375 -0.457031 5.796875 -0.367188 6.109375 -0.390625 C 6.453125 -0.410156 6.75 -0.554688 7 -0.828125 C 7.257812 -1.109375 7.375 -1.414062 7.34375 -1.75 C 7.332031 -1.945312 7.253906 -2.148438 7.109375 -2.359375 C 6.660156 -2.898438 6.328125 -3.285156 6.109375 -3.515625 C 5.859375 -3.773438 5.726562 -3.945312 5.71875 -4.03125 C 5.71875 -4.09375 5.785156 -4.1875 5.921875 -4.3125 C 6.054688 -4.445312 6.25 -4.675781 6.5 -5 C 6.882812 -5.59375 7.050781 -6.234375 7 -6.921875 C 6.945312 -7.640625 6.660156 -8.296875 6.140625 -8.890625 C 5.617188 -9.484375 4.863281 -9.847656 3.875 -9.984375 C 3.394531 -10.015625 2.921875 -10.015625 2.453125 -9.984375 C 2.171875 -9.960938 1.882812 -9.929688 1.59375 -9.890625 C 1.257812 -9.859375 0.957031 -9.765625 0.6875 -9.609375 C 0.425781 -9.453125 0.21875 -9.238281 0.0625 -8.96875 C -0.0820312 -8.707031 -0.140625 -8.382812 -0.109375 -8 L 0.140625 -4.046875 C 0.160156 -3.796875 0.175781 -3.617188 0.1875 -3.515625 C 0.195312 -3.410156 0.203125 -3.320312 0.203125 -3.25 C 0.210938 -3.175781 0.222656 -3.085938 0.234375 -2.984375 C 0.253906 -2.890625 0.296875 -2.40625 0.359375 -1.53125 C 0.359375 -1.476562 0.375 -1.40625 0.40625 -1.3125 C 0.445312 -1.226562 0.472656 -1.148438 0.484375 -1.078125 C 0.609375 -0.691406 0.804688 -0.414062 1.078125 -0.25 C 1.359375 -0.09375 1.644531 -0.0234375 1.9375 -0.046875 Z M 3.390625 -5.515625 C 3.304688 -5.515625 3.253906 -5.703125 3.234375 -6.078125 C 3.191406 -6.660156 3.210938 -6.957031 3.296875 -6.96875 L 3.328125 -6.96875 C 3.441406 -6.976562 3.546875 -6.898438 3.640625 -6.734375 C 3.742188 -6.566406 3.800781 -6.410156 3.8125 -6.265625 C 3.820312 -6.085938 3.789062 -5.921875 3.71875 -5.765625 C 3.644531 -5.617188 3.535156 -5.535156 3.390625 -5.515625 Z M 3.390625 -5.515625 "/></g></g></g><g fill="#ff650e" fill-opacity="1"><g transform="translate(45.667246, 31.032914)"><g><path d="M 2.59375 0.078125 C 2.925781 0.046875 3.328125 0.00390625 3.796875 -0.046875 C 4.128906 -0.0664062 4.5 -0.09375 4.90625 -0.125 C 5.3125 -0.164062 5.65625 -0.316406 5.9375 -0.578125 C 6.226562 -0.847656 6.359375 -1.203125 6.328125 -1.640625 C 6.285156 -2.085938 6.140625 -2.445312 5.890625 -2.71875 C 5.640625 -3 5.335938 -3.148438 4.984375 -3.171875 C 4.253906 -3.117188 3.679688 -3.082031 3.265625 -3.0625 C 3.210938 -3.0625 3.175781 -3.082031 3.15625 -3.125 C 3.144531 -3.175781 3.140625 -3.238281 3.140625 -3.3125 C 3.128906 -3.394531 3.128906 -3.453125 3.140625 -3.484375 C 3.160156 -3.515625 3.203125 -3.535156 3.265625 -3.546875 C 3.335938 -3.566406 3.457031 -3.585938 3.625 -3.609375 L 4.171875 -3.671875 C 4.273438 -3.679688 4.421875 -3.691406 4.609375 -3.703125 C 4.796875 -3.710938 4.988281 -3.753906 5.1875 -3.828125 C 5.601562 -3.992188 5.785156 -4.460938 5.734375 -5.234375 C 5.703125 -5.566406 5.617188 -5.8125 5.484375 -5.96875 C 5.242188 -6.195312 4.878906 -6.296875 4.390625 -6.265625 C 3.867188 -6.222656 3.519531 -6.203125 3.34375 -6.203125 C 3.175781 -6.210938 3.070312 -6.234375 3.03125 -6.265625 C 3 -6.296875 2.984375 -6.351562 2.984375 -6.4375 L 2.984375 -6.484375 L 2.953125 -6.671875 C 2.941406 -6.734375 2.972656 -6.773438 3.046875 -6.796875 C 3.210938 -6.804688 3.453125 -6.835938 3.765625 -6.890625 C 4.171875 -6.953125 4.53125 -6.992188 4.84375 -7.015625 C 5.195312 -7.046875 5.457031 -7.15625 5.625 -7.34375 C 5.875 -7.65625 5.976562 -8.039062 5.9375 -8.5 C 5.90625 -8.914062 5.796875 -9.234375 5.609375 -9.453125 C 5.222656 -9.859375 4.644531 -10.035156 3.875 -9.984375 L 1.015625 -9.765625 C 0.242188 -9.660156 -0.160156 -9.3125 -0.203125 -8.71875 C -0.203125 -8.601562 -0.175781 -8.207031 -0.125 -7.53125 C -0.101562 -7.15625 -0.0703125 -6.773438 -0.03125 -6.390625 C 0 -6.015625 0.0195312 -5.691406 0.03125 -5.421875 C 0.0507812 -5.160156 0.0664062 -5.03125 0.078125 -5.03125 L 0.25 -2.59375 C 0.3125 -1.769531 0.398438 -1.160156 0.515625 -0.765625 C 0.628906 -0.367188 0.84375 -0.117188 1.15625 -0.015625 C 1.476562 0.0859375 1.957031 0.117188 2.59375 0.078125 Z M 2.59375 0.078125 "/></g></g></g><g fill="#ff650e" fill-opacity="1"><g transform="translate(51.8426, 30.57903)"><g><path d="M 1.03125 0.03125 C 1.351562 0.0078125 1.625 -0.101562 1.84375 -0.3125 C 2.070312 -0.53125 2.25 -0.8125 2.375 -1.15625 C 2.382812 -1.207031 2.40625 -1.25 2.4375 -1.28125 C 2.46875 -1.3125 2.585938 -1.332031 2.796875 -1.34375 L 3.65625 -1.40625 L 4.65625 -1.46875 C 4.851562 -1.488281 4.988281 -1.410156 5.0625 -1.234375 C 5.238281 -0.929688 5.457031 -0.71875 5.71875 -0.59375 C 5.976562 -0.46875 6.234375 -0.410156 6.484375 -0.421875 C 6.722656 -0.441406 6.941406 -0.515625 7.140625 -0.640625 C 7.335938 -0.765625 7.476562 -0.941406 7.5625 -1.171875 C 7.632812 -1.335938 7.664062 -1.503906 7.65625 -1.671875 C 7.632812 -1.878906 7.539062 -2.171875 7.375 -2.546875 C 7.125 -3.078125 6.691406 -4.078125 6.078125 -5.546875 C 5.648438 -6.566406 5.273438 -7.421875 4.953125 -8.109375 C 4.640625 -8.804688 4.375 -9.28125 4.15625 -9.53125 C 3.820312 -9.84375 3.457031 -9.984375 3.0625 -9.953125 C 2.726562 -9.921875 2.441406 -9.769531 2.203125 -9.5 C 2.160156 -9.4375 2.125 -9.378906 2.09375 -9.328125 C 2.019531 -9.203125 1.894531 -8.875 1.71875 -8.34375 C 1.625 -8.09375 0.929688 -5.921875 -0.359375 -1.828125 C -0.421875 -1.609375 -0.445312 -1.394531 -0.4375 -1.1875 C -0.414062 -0.925781 -0.332031 -0.671875 -0.1875 -0.421875 C -0.0703125 -0.222656 0.0546875 -0.0976562 0.203125 -0.046875 C 0.359375 -0.00390625 0.503906 0.0195312 0.640625 0.03125 L 0.75 0.015625 C 0.851562 0.0351562 0.945312 0.0390625 1.03125 0.03125 Z M 3.46875 -3.828125 C 3.332031 -3.816406 3.265625 -3.828125 3.265625 -3.859375 C 3.296875 -3.941406 3.34375 -4.046875 3.40625 -4.171875 C 3.476562 -4.304688 3.53125 -4.425781 3.5625 -4.53125 C 3.582031 -4.53125 3.601562 -4.535156 3.625 -4.546875 C 3.695312 -4.347656 3.769531 -4.191406 3.84375 -4.078125 C 3.90625 -3.992188 3.9375 -3.9375 3.9375 -3.90625 C 3.9375 -3.894531 3.925781 -3.890625 3.90625 -3.890625 Z M 3.46875 -3.828125 "/></g></g></g><g fill="#ff650e" fill-opacity="1"><g transform="translate(58.891596, 30.060933)"><g><path d="M 1.765625 0.09375 C 3.566406 -0.0390625 4.867188 -0.675781 5.671875 -1.8125 C 6.367188 -2.789062 6.671875 -3.976562 6.578125 -5.375 C 6.523438 -6.164062 6.304688 -6.914062 5.921875 -7.625 C 5.546875 -8.332031 4.988281 -8.890625 4.25 -9.296875 C 3.507812 -9.703125 2.566406 -9.875 1.421875 -9.8125 C 1.003906 -9.78125 0.640625 -9.578125 0.328125 -9.203125 C 0.015625 -8.835938 -0.132812 -8.40625 -0.125 -7.90625 C -0.101562 -7.3125 -0.0390625 -6.285156 0.0625 -4.828125 L 0.203125 -3.25 C 0.273438 -2.226562 0.316406 -1.648438 0.328125 -1.515625 C 0.378906 -1.273438 0.46875 -1.03125 0.59375 -0.78125 C 0.71875 -0.53125 0.882812 -0.316406 1.09375 -0.140625 C 1.300781 0.0234375 1.523438 0.101562 1.765625 0.09375 Z M 3.046875 -3.9375 C 3.015625 -3.925781 3 -3.921875 3 -3.921875 C 3 -4.023438 2.953125 -4.734375 2.859375 -6.046875 C 2.859375 -6.085938 2.867188 -6.109375 2.890625 -6.109375 C 2.953125 -6.109375 3.035156 -6.078125 3.140625 -6.015625 C 3.242188 -5.953125 3.34375 -5.84375 3.4375 -5.6875 C 3.53125 -5.53125 3.585938 -5.3125 3.609375 -5.03125 C 3.628906 -4.769531 3.597656 -4.554688 3.515625 -4.390625 C 3.441406 -4.222656 3.351562 -4.101562 3.25 -4.03125 C 3.15625 -3.96875 3.085938 -3.9375 3.046875 -3.9375 Z M 3.046875 -3.9375 "/></g></g></g><g fill="#ff650e" fill-opacity="1"><g transform="translate(65.461885, 29.578022)"><g><path d="M 3.390625 -0.1875 C 3.628906 -0.207031 3.859375 -0.304688 4.078125 -0.484375 C 4.296875 -0.660156 4.441406 -0.867188 4.515625 -1.109375 C 4.671875 -1.597656 4.722656 -2.175781 4.671875 -2.84375 C 4.660156 -3.09375 4.640625 -3.320312 4.609375 -3.53125 C 4.585938 -3.75 4.566406 -3.945312 4.546875 -4.125 C 4.523438 -4.445312 4.550781 -4.691406 4.625 -4.859375 C 5.5625 -6.503906 6.15625 -7.578125 6.40625 -8.078125 C 6.507812 -8.296875 6.578125 -8.457031 6.609375 -8.5625 L 6.640625 -8.609375 C 6.679688 -8.753906 6.695312 -8.90625 6.6875 -9.0625 C 6.664062 -9.375 6.519531 -9.648438 6.25 -9.890625 C 5.988281 -10.128906 5.695312 -10.238281 5.375 -10.21875 C 5.101562 -10.195312 4.832031 -10.054688 4.5625 -9.796875 C 4.46875 -9.703125 4.328125 -9.503906 4.140625 -9.203125 C 3.910156 -8.828125 3.554688 -8.296875 3.078125 -7.609375 C 3.046875 -7.554688 3 -7.523438 2.9375 -7.515625 C 2.863281 -7.515625 2.796875 -7.546875 2.734375 -7.609375 C 2.628906 -7.785156 2.484375 -7.984375 2.296875 -8.203125 L 1.625 -9.046875 C 1.445312 -9.253906 1.21875 -9.4375 0.9375 -9.59375 C 0.65625 -9.757812 0.378906 -9.832031 0.109375 -9.8125 C -0.171875 -9.789062 -0.398438 -9.65625 -0.578125 -9.40625 C -0.765625 -9.15625 -0.847656 -8.910156 -0.828125 -8.671875 C -0.804688 -8.390625 -0.664062 -8.039062 -0.40625 -7.625 C -0.15625 -7.207031 0.210938 -6.644531 0.703125 -5.9375 L 1.53125 -4.75 C 1.601562 -4.582031 1.65625 -4.3125 1.6875 -3.9375 L 1.75 -2.90625 C 1.78125 -2.5 1.832031 -2.085938 1.90625 -1.671875 C 2.007812 -1.160156 2.203125 -0.78125 2.484375 -0.53125 C 2.765625 -0.28125 3.066406 -0.164062 3.390625 -0.1875 Z M 3.390625 -0.1875 "/></g></g></g><path stroke-linecap="butt" transform="matrix(0.747982, -0.0549762, 0.0549762, 0.747982, 3.294771, 22.114893)" fill="none" stroke-linejoin="miter" d="M 29.983321 16.14536 C 30.411546 16.1455 30.786602 16.016395 31.103676 15.752469 C 31.425945 15.488924 31.686414 15.142502 31.891041 14.703194 C 31.911206 14.642008 31.941377 14.586779 31.985986 14.548279 C 32.030976 14.504584 32.184284 14.479296 32.450722 14.477989 L 33.634796 14.497127 L 34.961408 14.495406 C 35.217075 14.498531 35.390859 14.620974 35.487954 14.863117 C 35.693065 15.269872 35.958137 15.571363 36.288363 15.767973 C 36.61859 15.964583 36.95607 16.062501 37.29561 16.061345 C 37.619185 16.064238 37.912127 15.986544 38.173671 15.838651 C 38.445604 15.691521 38.654974 15.471903 38.801399 15.184989 C 38.906883 14.957735 38.959659 14.737051 38.960493 14.51255 C 38.95995 14.235724 38.858344 13.8418 38.656056 13.325583 C 38.380353 12.600297 37.911908 11.228937 37.250337 9.216696 C 36.7838 7.819364 36.368755 6.645156 36.015971 5.689643 C 35.663188 4.734129 35.350975 4.079274 35.074138 3.724694 C 34.677982 3.288231 34.218661 3.071687 33.696556 3.06987 C 33.247554 3.068203 32.84309 3.242148 32.478353 3.586129 C 32.416253 3.649456 32.358964 3.718358 32.306489 3.792837 C 32.196343 3.941413 32.002486 4.37629 31.714911 5.091509 C 31.576966 5.405158 30.450496 8.226008 28.335883 13.548865 C 28.231776 13.828444 28.1748 14.106265 28.175343 14.383092 C 28.176499 14.722632 28.255951 15.062704 28.418513 15.408884 C 28.554872 15.685248 28.724456 15.864829 28.922072 15.947244 C 29.120069 16.024466 29.309586 16.074952 29.490624 16.098703 L 29.614906 16.11306 C 29.744001 16.132993 29.868664 16.142155 29.983321 16.14536 Z M 33.633324 11.248696 C 33.450759 11.245723 33.358406 11.223268 33.361461 11.181713 C 33.416227 11.076068 33.488867 10.940403 33.584957 10.769904 C 33.681046 10.599406 33.755213 10.442963 33.807076 10.305771 C 33.838624 10.302867 33.869408 10.310352 33.889421 10.322268 C 33.975364 10.574037 34.059167 10.783869 34.146406 10.946953 C 34.211109 11.061378 34.241742 11.141966 34.243883 11.183902 C 34.242355 11.204679 34.231203 11.214304 34.210426 11.212777 Z M 43.406875 16.259844 C 44.540152 16.259581 45.341142 16.161782 45.814277 15.977217 C 46.292989 15.787839 46.585919 15.355022 46.70384 14.674335 L 46.721704 14.289192 C 46.723441 13.626077 46.522147 13.167379 46.128212 12.913863 C 45.734659 12.655152 45.207279 12.511942 44.550886 12.48981 C 43.894874 12.462483 43.421046 12.443324 43.119011 12.431569 C 42.951648 12.434935 42.821408 12.430585 42.72791 12.423713 C 42.639607 12.417223 42.577656 12.407447 42.552067 12.400344 C 42.526859 12.388047 42.512803 12.366124 42.515093 12.334958 C 42.535941 12.122373 42.552728 11.5387 42.560644 10.578363 C 42.568559 9.618026 42.575028 8.819477 42.574856 8.182334 C 42.574303 7.550385 42.585745 7.039432 42.608803 6.654671 L 42.609857 6.142955 C 42.615352 5.997132 42.624515 5.872468 42.620998 5.778207 C 42.623058 5.679133 42.628785 5.601218 42.644136 5.534455 L 42.644588 5.315148 L 42.660553 5.311099 C 42.645954 5.012351 42.590946 4.694965 42.490334 4.35856 C 42.389723 4.022155 42.19699 3.731202 41.917712 3.480891 C 41.643628 3.230961 41.214177 3.105394 40.624164 3.103807 C 40.101678 3.107184 39.696219 3.22361 39.402213 3.457897 C 39.108207 3.692185 38.89945 3.974517 38.785949 4.310852 C 38.667254 4.646805 38.60646 4.97657 38.609143 5.295332 L 38.608806 14.465812 C 38.605461 15.008694 38.798275 15.440656 39.182052 15.761317 C 39.566212 16.076783 39.967019 16.236802 40.384855 16.236178 Z M 48.513567 16.128611 C 48.879078 16.129364 49.220677 16.029135 49.548372 15.83388 C 49.871253 15.633049 50.128286 15.333375 50.319852 14.929665 C 50.491937 14.435742 50.577477 13.982459 50.576854 13.564623 L 50.575015 13.376482 C 50.576461 13.214694 50.580811 13.084454 50.594023 12.975755 L 50.67461 12.945122 C 50.790343 13.146856 51.104153 13.566822 51.61604 14.205019 C 52.160471 14.897832 52.569537 15.371801 52.849197 15.616918 C 53.265286 15.924287 53.676863 16.079875 54.079117 16.078106 C 54.549278 16.076106 54.963749 15.908118 55.317334 15.573762 C 55.681307 15.24017 55.856527 14.845702 55.858194 14.3967 C 55.856888 14.130262 55.778048 13.852904 55.616481 13.564242 C 55.072201 12.798327 54.663286 12.251256 54.38454 11.922648 C 54.078064 11.545 53.918637 11.298275 53.921842 11.183618 C 53.921993 11.110516 54.019459 10.992342 54.219053 10.834674 C 54.413835 10.671429 54.6905 10.388866 55.043854 9.986602 C 55.616886 9.224472 55.902853 8.38902 55.907715 7.470238 C 55.904478 6.519526 55.58905 5.624204 54.951423 4.778315 C 54.319372 3.927612 53.347179 3.370475 52.050426 3.108048 C 51.420537 3.009528 50.786829 2.962951 50.160456 2.958692 C 49.77898 2.961988 49.391928 2.970097 49.008925 2.99417 C 48.558395 3.01328 48.154082 3.114123 47.785597 3.295935 C 47.417112 3.477747 47.121579 3.732812 46.887845 4.070755 C 46.659687 4.403885 46.54489 4.828905 46.543454 5.345816 L 46.515884 10.623618 C 46.512227 10.957582 46.515824 11.192854 46.521099 11.334246 C 46.525992 11.480832 46.527982 11.595871 46.531499 11.690132 C 46.530203 11.778817 46.53181 11.89905 46.537085 12.040442 C 46.541979 12.187029 46.546199 12.840137 46.544554 13.999385 C 46.544021 14.077681 46.563121 14.173088 46.5907 14.29523 C 46.623474 14.417754 46.651817 14.529507 46.676111 14.625295 C 46.800484 15.135785 47.044246 15.514046 47.391432 15.764127 C 47.744576 16.0042 48.116508 16.130762 48.513567 16.128611 Z M 50.974388 9.008589 C 50.871646 8.98537 50.817633 8.725504 50.817924 8.224176 C 50.816908 7.456411 50.876707 7.069128 50.991364 7.072332 L 51.028106 7.069811 C 51.17431 7.070112 51.306922 7.184306 51.425557 7.417588 C 51.544575 7.645676 51.602406 7.8536 51.599814 8.03097 C 51.602648 8.27663 51.544677 8.496932 51.431477 8.687063 C 51.32309 8.882769 51.16925 8.986354 50.974388 9.008589 Z M 58.915945 16.350051 C 59.370142 16.3521 59.908975 16.33948 60.526486 16.322198 C 60.976634 16.308282 61.473149 16.302997 62.016794 16.295953 C 62.560058 16.294103 63.032048 16.125121 63.432 15.799395 C 63.831952 15.47367 64.032531 15.018398 64.033735 14.433579 C 64.030127 13.843185 63.878255 13.351563 63.572925 12.958332 C 63.272789 12.565483 62.887716 12.333508 62.416941 12.272794 C 61.445452 12.274504 60.683263 12.270707 60.130756 12.25621 C 60.053223 12.245289 60.009147 12.205493 59.992569 12.146828 C 59.976755 12.077775 59.967281 11.993521 59.969722 11.889252 C 59.96735 11.779408 59.97789 11.707069 60.002103 11.661848 C 60.02074 11.621438 60.080168 11.594472 60.174812 11.585761 C 60.275031 11.572237 60.432388 11.562914 60.657652 11.553358 L 61.396542 11.518886 C 61.532358 11.518423 61.725693 11.516966 61.976166 11.519709 C 62.227021 11.517257 62.480166 11.483639 62.736365 11.408467 C 63.313005 11.236732 63.60257 10.636551 63.600248 9.602348 C 63.601915 9.153346 63.516504 8.823281 63.344398 8.606958 C 63.056027 8.267197 62.588076 8.097021 61.940544 8.09643 C 61.230298 8.096451 60.766094 8.088444 60.542739 8.072028 C 60.319383 8.055611 60.186239 8.019713 60.142926 7.969528 C 60.10519 7.914531 60.07975 7.834325 60.082573 7.724863 L 60.08196 7.662149 L 60.064307 7.404955 C 60.064458 7.331853 60.114643 7.28854 60.205237 7.263864 C 60.41935 7.263934 60.733681 7.250481 61.15419 7.213497 C 61.694932 7.174905 62.177009 7.152891 62.594846 7.152268 C 63.075396 7.151031 63.428911 7.030788 63.666162 6.787106 C 64.028759 6.401189 64.20642 5.902453 64.209152 5.296857 C 64.208829 4.732816 64.084687 4.290234 63.84192 3.969493 C 63.372581 3.391869 62.625814 3.107197 61.602382 3.105089 L 57.763939 3.104975 C 56.74112 3.16558 56.172126 3.588552 56.067729 4.369458 C 56.044741 4.540107 56.03139 5.077031 56.032486 5.985807 C 56.033341 6.471551 56.033051 6.972879 56.036809 7.490171 C 56.046144 8.00265 56.051198 8.431257 56.056403 8.786762 C 56.06199 9.137072 56.070168 9.310012 56.080557 9.310775 L 56.065301 12.573643 C 56.067855 13.675754 56.127767 14.494849 56.245037 15.030929 C 56.361925 15.572203 56.617984 15.925256 57.023222 16.096045 C 57.42846 16.266834 58.059495 16.349771 58.915945 16.350051 Z M 65.088155 16.145684 C 65.51638 16.145824 65.891436 16.016719 66.20851 15.752793 C 66.530779 15.489248 66.791248 15.142826 66.995875 14.703518 C 67.01604 14.642332 67.046211 14.587103 67.09082 14.548603 C 67.130616 14.504526 67.289118 14.479619 67.555556 14.478313 L 68.734436 14.497069 L 70.066242 14.49573 C 70.322291 14.49366 70.496075 14.616103 70.592788 14.863441 C 70.797899 15.270195 71.062971 15.571687 71.393197 15.768297 C 71.723424 15.964907 72.060904 16.062825 72.400444 16.061669 C 72.718825 16.06418 73.011766 15.986486 73.278505 15.838975 C 73.550438 15.691845 73.754614 15.471845 73.906233 15.185313 C 74.011717 14.958059 74.064493 14.737375 74.065327 14.512874 C 74.064784 14.236048 73.963178 13.842123 73.76089 13.325907 C 73.485187 12.600621 73.016742 11.229261 72.355171 9.21702 C 71.88344 7.819306 71.473589 6.64548 71.120805 5.689967 C 70.768022 4.734453 70.455809 4.079597 70.178972 3.725018 C 69.782816 3.288555 69.323495 3.072011 68.80139 3.070194 C 68.352388 3.068527 67.947925 3.242472 67.583187 3.586453 C 67.521087 3.64978 67.463798 3.718682 67.411323 3.793161 C 67.301177 3.941737 67.107702 4.371419 66.819745 5.091833 C 66.676605 5.4051 65.550135 8.22595 63.440717 13.549189 C 63.331416 13.828387 63.279634 14.106589 63.280177 14.383416 C 63.281333 14.722955 63.360785 15.063028 63.523729 15.404014 C 63.659706 15.685572 63.82929 15.865153 64.026906 15.947568 C 64.224903 16.02479 64.41442 16.075276 64.590264 16.098645 L 64.71974 16.113384 C 64.848835 16.133317 64.973498 16.142479 65.088155 16.145684 Z M 68.73854 11.243826 C 68.555593 11.246047 68.463241 11.223592 68.4611 11.181655 C 68.515867 11.07601 68.593701 10.940727 68.689791 10.770228 C 68.78588 10.59973 68.860047 10.443287 68.91191 10.306095 C 68.943458 10.303191 68.969047 10.310294 68.994255 10.322592 C 69.080198 10.574361 69.164001 10.784193 69.246045 10.946895 C 69.315943 11.061702 69.346577 11.142289 69.348717 11.184226 C 69.347189 11.205003 69.336037 11.214628 69.31526 11.213101 Z M 75.491066 16.288827 C 77.909018 16.288984 79.705769 15.575018 80.881321 14.146929 C 81.890967 12.915542 82.406609 11.371059 82.418622 9.502329 C 82.417827 8.447349 82.20544 7.429041 81.776269 6.447024 C 81.352292 5.465388 80.664099 4.668006 79.717264 4.050064 C 78.775624 3.432504 77.530202 3.111181 75.985811 3.091673 C 75.43254 3.087564 74.929616 3.322163 74.488189 3.785845 C 74.046763 4.249527 73.801807 4.811208 73.76371 5.47165 C 73.730888 6.273485 73.713589 7.6457 73.711814 9.588296 L 73.72532 11.678242 C 73.727654 13.067567 73.7331 13.846102 73.746855 14.01423 C 73.780704 14.335283 73.865733 14.670543 74.017906 15.01596 C 74.164885 15.360995 74.372437 15.663481 74.625743 15.911884 C 74.878668 16.165481 75.167109 16.291129 75.491066 16.288827 Z M 77.587654 11.069093 C 77.550912 11.071615 77.535711 11.065275 77.536475 11.054887 C 77.546019 10.925029 77.552407 9.985469 77.551591 8.220244 C 77.56427 8.189841 77.586193 8.175786 77.617359 8.178076 C 77.690461 8.178227 77.791675 8.222223 77.925431 8.320834 C 78.05957 8.414251 78.183932 8.569619 78.28813 8.786173 C 78.397905 8.997914 78.449246 9.294141 78.448111 9.664847 C 78.448503 10.014775 78.391145 10.29779 78.2768 10.503504 C 78.156879 10.71403 78.025956 10.861078 77.878837 10.944268 C 77.736913 11.02784 77.639597 11.072911 77.587654 11.069093 Z M 86.478784 16.078052 C 86.802741 16.075751 87.113174 15.973231 87.416042 15.760484 C 87.724104 15.548119 87.936528 15.286946 88.063703 14.977728 C 88.309192 14.337751 88.433221 13.573954 88.435792 12.686338 C 88.433872 12.357187 88.425613 12.043237 88.410251 11.754876 C 88.39527 11.461322 88.388769 11.194503 88.385172 10.959231 C 88.38493 10.5362 88.445724 10.206436 88.561215 9.98514 C 89.968199 7.895151 90.862726 6.524743 91.249224 5.884685 C 91.409705 5.619694 91.51328 5.418412 91.570337 5.281601 L 91.602417 5.200401 C 91.674062 5.007216 91.714541 4.811741 91.713848 4.608017 C 91.714751 4.169403 91.549668 3.78648 91.224555 3.449242 C 90.899442 3.112003 90.520176 2.943123 90.08118 2.947414 C 89.720863 2.947043 89.34428 3.096925 88.961056 3.408213 C 88.832424 3.524096 88.63077 3.780839 88.3509 4.178059 C 88.007785 4.654189 87.493568 5.326639 86.798244 6.18945 C 86.735761 6.257971 86.665563 6.289368 86.576877 6.288072 C 86.482616 6.291588 86.402943 6.238731 86.336713 6.145083 C 86.207688 5.911037 86.034587 5.637195 85.806639 5.327988 L 84.975666 4.128432 C 84.752149 3.829995 84.46401 3.558143 84.110866 3.318069 C 83.762916 3.078377 83.405804 2.963349 83.040292 2.962597 C 82.669586 2.961462 82.344565 3.120356 82.075998 3.434849 C 81.813007 3.74453 81.679874 4.063755 81.677363 4.382136 C 81.680277 4.768806 81.827718 5.249657 82.130075 5.825453 C 82.427237 6.400867 82.871298 7.180306 83.457444 8.158194 L 84.435858 9.8386 C 84.519279 10.053627 84.560844 10.411804 84.560935 10.907937 L 84.545777 12.322089 C 84.54839 12.854964 84.571017 13.399755 84.624428 13.952031 C 84.719856 14.643177 84.947352 15.171691 85.301722 15.537192 C 85.661668 15.89788 86.050559 16.077912 86.478784 16.078052 Z M 86.478784 16.078052 " stroke="#233d4d" stroke-width="0.8" stroke-opacity="1" stroke-miterlimit="4"/><g fill="#ff650e" fill-opacity="1"><g transform="translate(15.388129, 49.802915)"><g><path d="M 1.9375 -0.046875 C 2.21875 -0.0664062 2.46875 -0.15625 2.6875 -0.3125 C 2.914062 -0.476562 3.09375 -0.71875 3.21875 -1.03125 C 3.320312 -1.414062 3.359375 -1.765625 3.328125 -2.078125 L 3.328125 -2.21875 C 3.316406 -2.332031 3.3125 -2.429688 3.3125 -2.515625 L 3.375 -2.5625 C 3.476562 -2.40625 3.738281 -2.101562 4.15625 -1.65625 C 4.601562 -1.164062 4.941406 -0.832031 5.171875 -0.65625 C 5.484375 -0.457031 5.796875 -0.367188 6.109375 -0.390625 C 6.453125 -0.410156 6.75 -0.554688 7 -0.828125 C 7.257812 -1.109375 7.375 -1.414062 7.34375 -1.75 C 7.332031 -1.945312 7.253906 -2.148438 7.109375 -2.359375 C 6.660156 -2.898438 6.328125 -3.285156 6.109375 -3.515625 C 5.859375 -3.773438 5.726562 -3.945312 5.71875 -4.03125 C 5.71875 -4.09375 5.785156 -4.1875 5.921875 -4.3125 C 6.054688 -4.445312 6.25 -4.675781 6.5 -5 C 6.882812 -5.59375 7.050781 -6.234375 7 -6.921875 C 6.945312 -7.640625 6.660156 -8.296875 6.140625 -8.890625 C 5.617188 -9.484375 4.863281 -9.847656 3.875 -9.984375 C 3.394531 -10.015625 2.921875 -10.015625 2.453125 -9.984375 C 2.171875 -9.960938 1.882812 -9.929688 1.59375 -9.890625 C 1.257812 -9.859375 0.957031 -9.765625 0.6875 -9.609375 C 0.425781 -9.453125 0.21875 -9.238281 0.0625 -8.96875 C -0.0820312 -8.707031 -0.140625 -8.382812 -0.109375 -8 L 0.140625 -4.046875 C 0.160156 -3.796875 0.175781 -3.617188 0.1875 -3.515625 C 0.195312 -3.410156 0.203125 -3.320312 0.203125 -3.25 C 0.210938 -3.175781 0.222656 -3.085938 0.234375 -2.984375 C 0.253906 -2.890625 0.296875 -2.40625 0.359375 -1.53125 C 0.359375 -1.476562 0.375 -1.40625 0.40625 -1.3125 C 0.445312 -1.226562 0.472656 -1.148438 0.484375 -1.078125 C 0.609375 -0.691406 0.804688 -0.414062 1.078125 -0.25 C 1.359375 -0.09375 1.644531 -0.0234375 1.9375 -0.046875 Z M 3.390625 -5.515625 C 3.304688 -5.515625 3.253906 -5.703125 3.234375 -6.078125 C 3.191406 -6.660156 3.210938 -6.957031 3.296875 -6.96875 L 3.328125 -6.96875 C 3.441406 -6.976562 3.546875 -6.898438 3.640625 -6.734375 C 3.742188 -6.566406 3.800781 -6.410156 3.8125 -6.265625 C 3.820312 -6.085938 3.789062 -5.921875 3.71875 -5.765625 C 3.644531 -5.617188 3.535156 -5.535156 3.390625 -5.515625 Z M 3.390625 -5.515625 "/></g></g></g><g fill="#ff650e" fill-opacity="1"><g transform="translate(22.532871, 49.277781)"><g><path d="M 3.1875 -0.046875 C 4.082031 -0.140625 4.800781 -0.359375 5.34375 -0.703125 C 5.882812 -1.054688 6.273438 -1.488281 6.515625 -2 C 6.753906 -2.507812 6.859375 -3.019531 6.828125 -3.53125 C 6.785156 -4.125 6.570312 -4.679688 6.1875 -5.203125 C 5.726562 -5.804688 5.078125 -6.1875 4.234375 -6.34375 C 3.921875 -6.394531 3.628906 -6.476562 3.359375 -6.59375 C 3.097656 -6.71875 2.945312 -6.953125 2.90625 -7.296875 C 2.894531 -7.367188 2.914062 -7.441406 2.96875 -7.515625 C 3.019531 -7.585938 3.078125 -7.625 3.140625 -7.625 C 3.210938 -7.613281 3.269531 -7.550781 3.3125 -7.4375 C 3.363281 -7.332031 3.476562 -7.171875 3.65625 -6.953125 C 3.894531 -6.679688 4.207031 -6.5625 4.59375 -6.59375 C 4.8125 -6.601562 5.007812 -6.664062 5.1875 -6.78125 C 5.375 -6.90625 5.515625 -7.066406 5.609375 -7.265625 C 5.703125 -7.472656 5.738281 -7.6875 5.71875 -7.90625 C 5.695312 -8.226562 5.578125 -8.539062 5.359375 -8.84375 C 5.140625 -9.144531 4.859375 -9.390625 4.515625 -9.578125 C 3.992188 -9.847656 3.4375 -9.960938 2.84375 -9.921875 C 2.175781 -9.867188 1.546875 -9.613281 0.953125 -9.15625 C 0.359375 -8.707031 -0.0234375 -8.0625 -0.203125 -7.21875 C -0.242188 -6.976562 -0.257812 -6.765625 -0.25 -6.578125 C -0.175781 -5.578125 0.570312 -4.785156 2 -4.203125 C 2.164062 -4.117188 2.273438 -4.0625 2.328125 -4.03125 C 2.835938 -3.726562 3.101562 -3.46875 3.125 -3.25 C 3.125 -3.175781 3.097656 -3.113281 3.046875 -3.0625 C 2.992188 -3.019531 2.925781 -2.992188 2.84375 -2.984375 C 2.726562 -2.972656 2.617188 -3.015625 2.515625 -3.109375 C 1.960938 -3.609375 1.46875 -3.84375 1.03125 -3.8125 C 0.707031 -3.789062 0.441406 -3.648438 0.234375 -3.390625 C 0.0234375 -3.128906 -0.0625 -2.804688 -0.03125 -2.421875 C 0.0078125 -1.796875 0.367188 -1.1875 1.046875 -0.59375 C 1.429688 -0.289062 1.992188 -0.117188 2.734375 -0.078125 C 2.984375 -0.0546875 3.132812 -0.046875 3.1875 -0.046875 Z M 3.1875 -0.046875 "/></g></g></g><g fill="#ff650e" fill-opacity="1"><g transform="translate(29.139065, 48.79223)"><g><path d="M 3.53125 -0.28125 C 3.84375 -0.300781 4.109375 -0.410156 4.328125 -0.609375 C 4.546875 -0.804688 4.726562 -1.195312 4.875 -1.78125 L 5.765625 -5.109375 C 6.316406 -7.265625 6.628906 -8.5 6.703125 -8.8125 C 6.734375 -8.957031 6.742188 -9.085938 6.734375 -9.203125 C 6.722656 -9.441406 6.628906 -9.648438 6.453125 -9.828125 C 6.285156 -10.015625 6.050781 -10.144531 5.75 -10.21875 C 5.601562 -10.25 5.46875 -10.265625 5.34375 -10.265625 C 5 -10.234375 4.71875 -10.078125 4.5 -9.796875 C 4.28125 -9.515625 4.085938 -9.148438 3.921875 -8.703125 C 3.765625 -8.265625 3.613281 -7.773438 3.46875 -7.234375 L 3.21875 -6.359375 C 3.195312 -6.304688 3.171875 -6.28125 3.140625 -6.28125 C 3.097656 -6.28125 3.054688 -6.300781 3.015625 -6.34375 C 2.828125 -6.726562 2.648438 -7.109375 2.484375 -7.484375 C 2.296875 -7.941406 2.097656 -8.351562 1.890625 -8.71875 C 1.679688 -9.082031 1.453125 -9.367188 1.203125 -9.578125 C 0.960938 -9.796875 0.664062 -9.894531 0.3125 -9.875 C 0.0195312 -9.851562 -0.191406 -9.769531 -0.328125 -9.625 C -0.472656 -9.476562 -0.5625 -9.300781 -0.59375 -9.09375 C -0.632812 -8.882812 -0.648438 -8.6875 -0.640625 -8.5 C -0.617188 -8.175781 -0.566406 -7.910156 -0.484375 -7.703125 L 0.53125 -5.015625 C 1.144531 -3.335938 1.578125 -2.203125 1.828125 -1.609375 C 2.242188 -0.671875 2.8125 -0.226562 3.53125 -0.28125 Z M 3.53125 -0.28125 "/></g></g></g><g fill="#ff650e" fill-opacity="1"><g transform="translate(35.924778, 48.293485)"><g><path d="M 1.90625 0.03125 C 2.3125 0 2.65625 -0.179688 2.9375 -0.515625 C 3.21875 -0.859375 3.375 -1.253906 3.40625 -1.703125 C 3.425781 -2.253906 3.429688 -2.609375 3.421875 -2.765625 C 3.421875 -2.867188 3.421875 -2.925781 3.421875 -2.9375 C 3.429688 -2.957031 3.515625 -2.972656 3.671875 -2.984375 C 4.484375 -3.140625 5.128906 -3.410156 5.609375 -3.796875 C 6.097656 -4.191406 6.4375 -4.65625 6.625 -5.1875 C 6.8125 -5.71875 6.890625 -6.25 6.859375 -6.78125 C 6.796875 -7.582031 6.507812 -8.265625 6 -8.828125 C 5.625 -9.203125 5.273438 -9.472656 4.953125 -9.640625 C 4.640625 -9.804688 4.269531 -9.894531 3.84375 -9.90625 C 3.414062 -9.925781 2.832031 -9.910156 2.09375 -9.859375 L 1.046875 -9.78125 C 0.785156 -9.757812 0.519531 -9.613281 0.25 -9.34375 C -0.0195312 -9.070312 -0.160156 -8.75 -0.171875 -8.375 C -0.171875 -8.03125 -0.144531 -7.507812 -0.09375 -6.8125 L 0 -5.53125 C 0.0703125 -4.675781 0.175781 -3.363281 0.3125 -1.59375 L 0.3125 -1.5 C 0.363281 -0.738281 0.742188 -0.25 1.453125 -0.03125 C 1.617188 0.0195312 1.769531 0.0390625 1.90625 0.03125 Z M 3.34375 -5.5625 C 3.332031 -5.5625 3.304688 -5.578125 3.265625 -5.609375 L 3.234375 -5.625 C 3.234375 -5.644531 3.226562 -5.6875 3.21875 -5.75 L 3.15625 -6.65625 C 3.15625 -6.789062 3.191406 -6.863281 3.265625 -6.875 C 3.359375 -6.875 3.460938 -6.804688 3.578125 -6.671875 C 3.691406 -6.535156 3.753906 -6.410156 3.765625 -6.296875 C 3.773438 -6.171875 3.753906 -6.054688 3.703125 -5.953125 C 3.648438 -5.847656 3.585938 -5.753906 3.515625 -5.671875 C 3.441406 -5.597656 3.382812 -5.5625 3.34375 -5.5625 Z M 3.34375 -5.5625 "/></g></g></g><g fill="#ff650e" fill-opacity="1"><g transform="translate(42.770333, 47.790342)"><g><path d="M 2.59375 0.078125 C 2.925781 0.046875 3.328125 0.00390625 3.796875 -0.046875 C 4.128906 -0.0664062 4.5 -0.09375 4.90625 -0.125 C 5.3125 -0.164062 5.65625 -0.316406 5.9375 -0.578125 C 6.226562 -0.847656 6.359375 -1.203125 6.328125 -1.640625 C 6.285156 -2.085938 6.140625 -2.445312 5.890625 -2.71875 C 5.640625 -3 5.335938 -3.148438 4.984375 -3.171875 C 4.253906 -3.117188 3.679688 -3.082031 3.265625 -3.0625 C 3.210938 -3.0625 3.175781 -3.082031 3.15625 -3.125 C 3.144531 -3.175781 3.140625 -3.238281 3.140625 -3.3125 C 3.128906 -3.394531 3.128906 -3.453125 3.140625 -3.484375 C 3.160156 -3.515625 3.203125 -3.535156 3.265625 -3.546875 C 3.335938 -3.566406 3.457031 -3.585938 3.625 -3.609375 L 4.171875 -3.671875 C 4.273438 -3.679688 4.421875 -3.691406 4.609375 -3.703125 C 4.796875 -3.710938 4.988281 -3.753906 5.1875 -3.828125 C 5.601562 -3.992188 5.785156 -4.460938 5.734375 -5.234375 C 5.703125 -5.566406 5.617188 -5.8125 5.484375 -5.96875 C 5.242188 -6.195312 4.878906 -6.296875 4.390625 -6.265625 C 3.867188 -6.222656 3.519531 -6.203125 3.34375 -6.203125 C 3.175781 -6.210938 3.070312 -6.234375 3.03125 -6.265625 C 3 -6.296875 2.984375 -6.351562 2.984375 -6.4375 L 2.984375 -6.484375 L 2.953125 -6.671875 C 2.941406 -6.734375 2.972656 -6.773438 3.046875 -6.796875 C 3.210938 -6.804688 3.453125 -6.835938 3.765625 -6.890625 C 4.171875 -6.953125 4.53125 -6.992188 4.84375 -7.015625 C 5.195312 -7.046875 5.457031 -7.15625 5.625 -7.34375 C 5.875 -7.65625 5.976562 -8.039062 5.9375 -8.5 C 5.90625 -8.914062 5.796875 -9.234375 5.609375 -9.453125 C 5.222656 -9.859375 4.644531 -10.035156 3.875 -9.984375 L 1.015625 -9.765625 C 0.242188 -9.660156 -0.160156 -9.3125 -0.203125 -8.71875 C -0.203125 -8.601562 -0.175781 -8.207031 -0.125 -7.53125 C -0.101562 -7.15625 -0.0703125 -6.773438 -0.03125 -6.390625 C 0 -6.015625 0.0195312 -5.691406 0.03125 -5.421875 C 0.0507812 -5.160156 0.0664062 -5.03125 0.078125 -5.03125 L 0.25 -2.59375 C 0.3125 -1.769531 0.398438 -1.160156 0.515625 -0.765625 C 0.628906 -0.367188 0.84375 -0.117188 1.15625 -0.015625 C 1.476562 0.0859375 1.957031 0.117188 2.59375 0.078125 Z M 2.59375 0.078125 "/></g></g></g><g fill="#ff650e" fill-opacity="1"><g transform="translate(48.945686, 47.336457)"><g><path d="M 1.765625 0.09375 C 3.566406 -0.0390625 4.867188 -0.675781 5.671875 -1.8125 C 6.367188 -2.789062 6.671875 -3.976562 6.578125 -5.375 C 6.523438 -6.164062 6.304688 -6.914062 5.921875 -7.625 C 5.546875 -8.332031 4.988281 -8.890625 4.25 -9.296875 C 3.507812 -9.703125 2.566406 -9.875 1.421875 -9.8125 C 1.003906 -9.78125 0.640625 -9.578125 0.328125 -9.203125 C 0.015625 -8.835938 -0.132812 -8.40625 -0.125 -7.90625 C -0.101562 -7.3125 -0.0390625 -6.285156 0.0625 -4.828125 L 0.203125 -3.25 C 0.273438 -2.226562 0.316406 -1.648438 0.328125 -1.515625 C 0.378906 -1.273438 0.46875 -1.03125 0.59375 -0.78125 C 0.71875 -0.53125 0.882812 -0.316406 1.09375 -0.140625 C 1.300781 0.0234375 1.523438 0.101562 1.765625 0.09375 Z M 3.046875 -3.9375 C 3.015625 -3.925781 3 -3.921875 3 -3.921875 C 3 -4.023438 2.953125 -4.734375 2.859375 -6.046875 C 2.859375 -6.085938 2.867188 -6.109375 2.890625 -6.109375 C 2.953125 -6.109375 3.035156 -6.078125 3.140625 -6.015625 C 3.242188 -5.953125 3.34375 -5.84375 3.4375 -5.6875 C 3.53125 -5.53125 3.585938 -5.3125 3.609375 -5.03125 C 3.628906 -4.769531 3.597656 -4.554688 3.515625 -4.390625 C 3.441406 -4.222656 3.351562 -4.101562 3.25 -4.03125 C 3.15625 -3.96875 3.085938 -3.9375 3.046875 -3.9375 Z M 3.046875 -3.9375 "/></g></g></g><g fill="#ff650e" fill-opacity="1"><g transform="translate(55.515975, 46.853546)"><g/></g></g><g fill="#ff650e" fill-opacity="1"><g transform="translate(59.704683, 46.545679)"><g><path d="M 3.390625 -0.1875 C 3.628906 -0.207031 3.859375 -0.304688 4.078125 -0.484375 C 4.296875 -0.660156 4.441406 -0.867188 4.515625 -1.109375 C 4.671875 -1.597656 4.722656 -2.175781 4.671875 -2.84375 C 4.660156 -3.09375 4.640625 -3.320312 4.609375 -3.53125 C 4.585938 -3.75 4.566406 -3.945312 4.546875 -4.125 C 4.523438 -4.445312 4.550781 -4.691406 4.625 -4.859375 C 5.5625 -6.503906 6.15625 -7.578125 6.40625 -8.078125 C 6.507812 -8.296875 6.578125 -8.457031 6.609375 -8.5625 L 6.640625 -8.609375 C 6.679688 -8.753906 6.695312 -8.90625 6.6875 -9.0625 C 6.664062 -9.375 6.519531 -9.648438 6.25 -9.890625 C 5.988281 -10.128906 5.695312 -10.238281 5.375 -10.21875 C 5.101562 -10.195312 4.832031 -10.054688 4.5625 -9.796875 C 4.46875 -9.703125 4.328125 -9.503906 4.140625 -9.203125 C 3.910156 -8.828125 3.554688 -8.296875 3.078125 -7.609375 C 3.046875 -7.554688 3 -7.523438 2.9375 -7.515625 C 2.863281 -7.515625 2.796875 -7.546875 2.734375 -7.609375 C 2.628906 -7.785156 2.484375 -7.984375 2.296875 -8.203125 L 1.625 -9.046875 C 1.445312 -9.253906 1.21875 -9.4375 0.9375 -9.59375 C 0.65625 -9.757812 0.378906 -9.832031 0.109375 -9.8125 C -0.171875 -9.789062 -0.398438 -9.65625 -0.578125 -9.40625 C -0.765625 -9.15625 -0.847656 -8.910156 -0.828125 -8.671875 C -0.804688 -8.390625 -0.664062 -8.039062 -0.40625 -7.625 C -0.15625 -7.207031 0.210938 -6.644531 0.703125 -5.9375 L 1.53125 -4.75 C 1.601562 -4.582031 1.65625 -4.3125 1.6875 -3.9375 L 1.75 -2.90625 C 1.78125 -2.5 1.832031 -2.085938 1.90625 -1.671875 C 2.007812 -1.160156 2.203125 -0.78125 2.484375 -0.53125 C 2.765625 -0.28125 3.066406 -0.164062 3.390625 -0.1875 Z M 3.390625 -0.1875 "/></g></g></g><g fill="#ff650e" fill-opacity="1"><g transform="translate(66.370714, 46.05573)"><g><path d="M 3.59375 -0.015625 C 2.945312 0.0351562 2.335938 -0.140625 1.765625 -0.546875 C 1.191406 -0.953125 0.710938 -1.515625 0.328125 -2.234375 C -0.046875 -2.953125 -0.265625 -3.765625 -0.328125 -4.671875 C -0.390625 -5.578125 -0.285156 -6.414062 -0.015625 -7.1875 C 0.242188 -7.96875 0.628906 -8.597656 1.140625 -9.078125 C 1.648438 -9.554688 2.226562 -9.820312 2.875 -9.875 C 3.53125 -9.914062 4.140625 -9.734375 4.703125 -9.328125 C 5.273438 -8.929688 5.75 -8.367188 6.125 -7.640625 C 6.507812 -6.921875 6.734375 -6.109375 6.796875 -5.203125 C 6.859375 -4.296875 6.753906 -3.457031 6.484375 -2.6875 C 6.222656 -1.914062 5.835938 -1.285156 5.328125 -0.796875 C 4.828125 -0.316406 4.25 -0.0546875 3.59375 -0.015625 Z M 3.328125 -3.90625 C 3.453125 -3.914062 3.546875 -4.015625 3.609375 -4.203125 C 3.671875 -4.398438 3.691406 -4.632812 3.671875 -4.90625 C 3.648438 -5.175781 3.59375 -5.40625 3.5 -5.59375 C 3.414062 -5.78125 3.3125 -5.867188 3.1875 -5.859375 C 3.070312 -5.847656 2.976562 -5.742188 2.90625 -5.546875 C 2.832031 -5.347656 2.804688 -5.113281 2.828125 -4.84375 C 2.847656 -4.570312 2.90625 -4.34375 3 -4.15625 C 3.101562 -3.976562 3.210938 -3.894531 3.328125 -3.90625 Z M 3.328125 -3.90625 "/></g></g></g><g fill="#ff650e" fill-opacity="1"><g transform="translate(73.168387, 45.556106)"><g><path d="M 3.890625 -0.046875 C 4.617188 -0.0976562 5.234375 -0.34375 5.734375 -0.78125 C 6.234375 -1.21875 6.601562 -1.738281 6.84375 -2.34375 C 7.082031 -2.957031 7.179688 -3.546875 7.140625 -4.109375 C 7.128906 -4.953125 7.101562 -5.695312 7.0625 -6.34375 C 7.019531 -6.832031 6.976562 -7.265625 6.9375 -7.640625 L 6.875 -8.421875 C 6.84375 -8.804688 6.726562 -9.113281 6.53125 -9.34375 C 6.332031 -9.582031 6.101562 -9.753906 5.84375 -9.859375 C 5.59375 -9.972656 5.367188 -10.023438 5.171875 -10.015625 C 4.796875 -9.984375 4.472656 -9.789062 4.203125 -9.4375 C 3.941406 -9.09375 3.816406 -8.695312 3.828125 -8.25 C 3.859375 -7.394531 3.898438 -6.585938 3.953125 -5.828125 C 4.015625 -5.023438 4.039062 -4.484375 4.03125 -4.203125 C 4.019531 -3.921875 3.925781 -3.773438 3.75 -3.765625 C 3.570312 -3.753906 3.445312 -3.875 3.375 -4.125 C 3.3125 -4.375 3.269531 -4.679688 3.25 -5.046875 L 3.1875 -5.859375 L 3.125 -6.453125 L 3.078125 -7.25 C 3.046875 -7.75 2.96875 -8.175781 2.84375 -8.53125 C 2.789062 -8.632812 2.71875 -8.753906 2.625 -8.890625 C 2.28125 -9.472656 1.851562 -9.75 1.34375 -9.71875 C 0.625 -9.664062 0.160156 -9.335938 -0.046875 -8.734375 C -0.222656 -8.242188 -0.257812 -7.320312 -0.15625 -5.96875 C -0.101562 -5.238281 -0.0195312 -4.484375 0.09375 -3.703125 C 0.144531 -3.296875 0.253906 -2.875 0.421875 -2.4375 C 0.597656 -2.007812 0.835938 -1.609375 1.140625 -1.234375 C 1.441406 -0.859375 1.816406 -0.554688 2.265625 -0.328125 C 2.722656 -0.0976562 3.265625 -0.00390625 3.890625 -0.046875 Z M 3.890625 -0.046875 "/></g></g></g><path stroke-linecap="butt" transform="matrix(0.747982, -0.0549762, 0.0549762, 0.747982, 3.294771, 22.114893)" fill="none" stroke-linejoin="miter" d="M 15.969499 38.130396 C 16.329816 38.130767 16.67661 38.030919 16.999492 37.830088 C 17.327186 37.634833 17.584219 37.335159 17.775785 36.931449 C 17.94787 36.437526 18.03341 35.984243 18.032786 35.566407 L 18.031329 35.373071 C 18.032394 35.216478 18.037126 35.081044 18.044761 34.977157 L 18.130543 34.946906 C 18.246657 35.143446 18.560085 35.568606 19.071973 36.206803 C 19.616403 36.899617 20.025851 37.368391 20.305129 37.618702 C 20.721218 37.926071 21.127983 38.076083 21.535049 38.07989 C 22.005211 38.07789 22.414487 37.909521 22.773266 37.575546 C 23.132427 37.236378 23.31246 36.847486 23.314127 36.398484 C 23.31282 36.132046 23.233981 35.854688 23.072414 35.566027 C 22.528134 34.800111 22.114406 34.247464 21.840472 33.924432 C 21.528802 33.546402 21.37457 33.300059 21.37258 33.185021 C 21.373113 33.106724 21.475773 32.988932 21.670173 32.830882 C 21.869768 32.673213 22.146433 32.39065 22.494974 31.982809 C 23.072818 31.226256 23.358786 30.390804 23.358453 29.47164 C 23.36041 28.52131 23.039788 27.625607 22.407737 26.774904 C 21.77011 25.929015 20.803111 25.372259 19.501546 25.104256 C 18.871275 25.01093 18.243144 24.959541 17.611195 24.960094 C 17.229718 24.963391 16.84786 24.971881 16.465239 24.99076 C 16.014328 25.015065 15.60482 25.115526 15.236335 25.297337 C 14.873426 25.474337 14.572317 25.734214 14.343777 26.072539 C 14.115619 26.405669 14.000823 26.830689 13.999769 27.342405 L 13.966622 32.625021 C 13.968541 32.954172 13.971757 33.194638 13.977032 33.33603 C 13.982307 33.477422 13.983915 33.597655 13.982619 33.68634 C 13.986135 33.780601 13.988125 33.89564 13.993018 34.042226 C 13.997911 34.188813 14.002514 34.836727 14.000486 36.001169 C 14.000335 36.074271 14.013859 36.17449 14.046633 36.297014 C 14.079406 36.419538 14.107749 36.531291 14.126849 36.626698 C 14.256416 37.13757 14.494984 37.515449 14.847746 37.760716 C 15.200508 38.005984 15.572822 38.127352 15.969499 38.130396 Z M 18.43032 31.010373 C 18.322385 30.986773 18.268371 30.726906 18.269044 30.220384 C 18.268028 29.452619 18.327445 29.07053 18.447678 29.068922 L 18.478844 29.071213 C 18.630243 29.071896 18.762854 29.18609 18.876296 29.418991 C 18.995313 29.647078 19.053526 29.849808 19.055747 30.032754 C 19.053386 30.278033 19.000991 30.493522 18.88741 30.688847 C 18.77421 30.878977 18.619988 30.987757 18.43032 31.010373 Z M 27.163625 38.23769 C 28.361905 38.205648 29.33904 37.985013 30.105418 37.576549 C 30.866601 37.167703 31.428029 36.634506 31.78932 35.982151 C 32.150229 35.33499 32.335676 34.659266 32.334128 33.969797 C 32.335402 33.170866 32.109122 32.412656 31.66048 31.695549 C 31.117496 30.840949 30.287077 30.273342 29.164791 29.98196 C 28.76941 29.890231 28.404199 29.743273 28.062821 29.556288 C 27.721824 29.364109 27.536576 29.042373 27.501501 28.595892 C 27.514712 28.487193 27.558326 28.391174 27.632725 28.302639 C 27.706741 28.219299 27.782898 28.177895 27.856 28.178045 C 27.948734 28.195306 28.025735 28.284524 28.077377 28.434546 C 28.129401 28.579374 28.264383 28.803413 28.47713 29.106281 C 28.767641 29.487977 29.166157 29.679162 29.683067 29.680598 C 29.965088 29.680437 30.241683 29.611986 30.502464 29.474481 C 30.763245 29.336977 30.965893 29.137754 31.105215 28.87643 C 31.239725 28.60953 31.311902 28.338049 31.312504 28.04564 C 31.307832 27.611838 31.177732 27.179263 30.921059 26.763497 C 30.659574 26.342154 30.310017 25.98223 29.871624 25.694111 C 29.201546 25.289739 28.469447 25.089704 27.680905 25.089192 C 26.77213 25.090289 25.906216 25.360878 25.077587 25.90577 C 24.249339 26.445469 23.676157 27.2807 23.359185 28.395883 C 23.284716 28.69853 23.248517 28.977878 23.245775 29.228351 C 23.246732 30.565351 24.161728 31.687524 25.994812 32.610834 C 26.200526 32.725179 26.34024 32.813784 26.415101 32.861065 C 27.076549 33.311805 27.409378 33.686167 27.408394 33.983771 C 27.405571 34.093233 27.368296 34.174052 27.285418 34.235851 C 27.208116 34.292838 27.111946 34.322326 27.007678 34.319885 C 26.84589 34.318439 26.704649 34.250611 26.573565 34.115639 C 25.890797 33.386547 25.264795 33.021971 24.690365 33.02153 C 24.25137 33.02582 23.879217 33.186473 23.573145 33.513877 C 23.272648 33.836468 23.115915 34.263628 23.119292 34.786115 C 23.120921 35.616593 23.534428 36.456455 24.369821 37.311658 C 24.859093 37.760187 25.584701 38.048526 26.546645 38.176675 C 26.89352 38.217837 27.100911 38.238302 27.163625 38.23769 Z M 36.478239 37.982278 C 36.906464 37.982418 37.275562 37.86332 37.58072 37.619407 C 37.891455 37.370682 38.173766 36.869194 38.432848 36.115323 L 39.921652 31.775279 C 40.869224 28.972614 41.405794 27.356557 41.536555 26.927487 C 41.590709 26.759129 41.613314 26.593674 41.614761 26.431887 C 41.612841 26.102735 41.509557 25.802691 41.304527 25.536947 C 41.094302 25.270821 40.795241 25.076502 40.401769 24.958801 C 40.207057 24.907933 40.031595 24.87937 39.869808 24.877923 C 39.399646 24.879923 39.005571 25.054632 38.686819 25.412438 C 38.368831 25.759855 38.083998 26.224602 37.827508 26.801102 C 37.581407 27.378365 37.330724 28.01796 37.085848 28.720651 L 36.668275 29.854551 C 36.63734 29.920168 36.598308 29.953856 36.545983 29.955233 C 36.488845 29.951033 36.444005 29.921625 36.417421 29.857003 C 36.190306 29.323294 35.9884 28.801883 35.806889 28.287193 C 35.581453 27.659605 35.351816 27.089154 35.117217 26.58623 C 34.883 26.078111 34.609981 25.671588 34.303736 25.361848 C 33.992297 25.051727 33.601879 24.892472 33.131717 24.894472 C 32.750623 24.892573 32.456536 24.985851 32.255033 25.169491 C 32.053912 25.347937 31.917262 25.5729 31.845466 25.839187 C 31.778865 26.105856 31.743429 26.374816 31.744736 26.641253 C 31.743832 27.079867 31.785779 27.43285 31.869813 27.71059 L 32.942472 31.377207 C 33.603441 33.681857 34.069295 35.230588 34.334076 36.033406 C 34.792283 37.330901 35.50675 37.983988 36.478239 37.982278 Z M 43.359409 38.221698 C 43.891903 38.224279 44.366947 38.013743 44.778965 37.594901 C 45.19656 37.171246 45.447705 36.667467 45.532782 36.078369 C 45.618161 35.343066 45.66291 34.87634 45.662216 34.672616 C 45.662899 34.521217 45.668626 34.443302 45.685736 34.42367 C 45.702464 34.409233 45.813072 34.396473 46.016414 34.400974 C 47.101716 34.271847 47.985885 33.966044 48.663347 33.488376 C 49.340808 33.010708 49.832951 32.425417 50.144589 31.738078 C 50.451033 31.050358 50.606842 30.351565 50.606438 29.646514 C 50.606407 28.581145 50.293651 27.649463 49.663358 26.845892 C 49.20693 26.305774 48.77136 25.908193 48.367036 25.653913 C 47.962331 25.404827 47.477651 25.249089 46.907803 25.186316 C 46.343149 25.123924 45.562473 25.087435 44.559437 25.092048 L 43.165299 25.088805 C 42.81537 25.089198 42.448031 25.255427 42.068474 25.587874 C 41.689299 25.915127 41.475428 26.338088 41.42648 26.861951 C 41.392502 27.324245 41.372891 28.017381 41.37246 28.946933 L 41.372282 30.65464 C 41.382934 31.788679 41.389709 33.543898 41.387412 35.919913 L 41.388638 36.045341 C 41.387293 37.058384 41.848233 37.750283 42.766644 38.115462 C 42.970217 38.18787 43.166074 38.223155 43.359409 38.221698 Z M 45.838023 30.930645 C 45.817246 30.929117 45.782794 30.900473 45.723899 30.849143 L 45.693878 30.831269 C 45.685016 30.809729 45.678446 30.757022 45.67936 30.673531 L 45.695594 29.457909 C 45.703762 29.275726 45.757383 29.185664 45.856838 29.182529 C 45.982266 29.181303 46.11564 29.285109 46.252913 29.477982 C 46.394999 29.676431 46.465509 29.853952 46.465208 30.000157 C 46.464144 30.15675 46.421524 30.310289 46.343308 30.450767 C 46.26028 30.585669 46.173584 30.699411 46.067638 30.79085 C 45.972081 30.883051 45.895542 30.92965 45.838023 30.930645 Z M 53.423925 38.350414 C 53.883316 38.352845 54.422149 38.340225 55.039661 38.322943 C 55.484614 38.308645 55.981129 38.30336 56.524775 38.296316 C 57.06842 38.289272 57.540028 38.125484 57.93998 37.799758 C 58.339932 37.474033 58.540511 37.018761 58.541716 36.433942 C 58.543302 35.84393 58.39143 35.352308 58.0861 34.959077 C 57.780769 34.565846 57.395696 34.333871 56.930116 34.273539 C 55.958627 34.275249 55.191626 34.265876 54.638737 34.256573 C 54.561204 34.245652 54.517127 34.205856 54.500931 34.141997 C 54.484735 34.078138 54.480455 33.994265 54.478084 33.884421 C 54.480525 33.780153 54.491064 33.707814 54.510083 33.662211 C 54.528721 33.621801 54.588149 33.594835 54.687986 33.586506 C 54.783011 33.5726 54.940368 33.563277 55.166015 33.548527 L 55.904522 33.519249 C 56.045533 33.519168 56.238868 33.517711 56.489341 33.520454 C 56.735001 33.51762 56.988146 33.484002 57.249922 33.404017 C 57.82618 33.237476 58.11055 32.636914 58.113422 31.603093 C 58.109895 31.153709 58.024485 30.823644 57.852378 30.607321 C 57.569202 30.267942 57.10125 30.097766 56.448524 30.096793 C 55.743473 30.097196 55.279269 30.089189 55.055913 30.072773 C 54.827363 30.055974 54.69422 30.020076 54.656101 29.970273 C 54.61317 29.914894 54.592925 29.83507 54.590554 29.725226 L 54.595135 29.662894 L 54.577482 29.4057 C 54.577633 29.332598 54.622623 29.288903 54.718412 29.264609 C 54.932524 29.264679 55.246856 29.251225 55.662171 29.21386 C 56.208107 29.17565 56.68499 29.153254 57.102826 29.152631 C 57.583376 29.151394 57.942086 29.031532 58.174142 28.787469 C 58.536739 28.401552 58.719594 27.903198 58.717132 27.29722 C 58.71681 26.733179 58.592668 26.290597 58.3499 25.969856 C 57.880562 25.392232 57.133795 25.10756 56.110362 25.105452 L 52.271919 25.105338 C 51.2491 25.165943 50.685301 25.589296 50.576091 26.364627 C 50.552722 26.54047 50.53937 27.077394 50.540467 27.98617 C 50.541322 28.471914 50.546225 28.973623 50.549984 29.490915 C 50.554124 30.003013 50.559178 30.43162 50.564383 30.787125 C 50.575165 31.137817 50.583343 31.310757 50.593732 31.31152 L 50.578476 34.574388 C 50.576217 35.670923 50.636129 36.490018 50.753017 37.031292 C 50.869905 37.572566 51.131159 37.926001 51.531584 38.091214 C 51.941635 38.267579 52.572669 38.350516 53.423925 38.350414 Z M 60.572518 38.290924 C 62.995664 38.291462 64.792797 37.572302 65.963155 36.143832 C 66.977613 34.91802 67.493255 33.373538 67.505268 31.504807 C 67.504473 30.449828 67.292087 29.43152 66.862915 28.449502 C 66.438939 27.467867 65.750745 26.670484 64.803911 26.052542 C 63.862652 25.429788 62.61723 25.108465 61.072839 25.088957 C 60.513992 25.089661 60.016644 25.319448 59.575217 25.783129 C 59.133791 26.246811 58.888835 26.808492 58.850356 27.474128 C 58.812721 28.270387 58.795422 29.642602 58.798842 31.58558 L 58.811966 33.68072 C 58.8143 35.070045 58.819746 35.848581 58.833501 36.016708 C 58.862156 36.33738 58.952761 36.667827 59.104934 37.013244 C 59.251531 37.363473 59.454271 37.660383 59.71239 37.914362 C 59.965696 38.162765 60.254137 38.288413 60.572518 38.290924 Z M 62.6743 33.071572 C 62.63794 33.068899 62.622739 33.062559 62.623121 33.057365 C 62.632665 32.927507 62.639435 31.982753 62.638237 30.222722 C 62.645722 30.191938 62.667644 30.177882 62.704387 30.17536 C 62.777489 30.175511 62.878321 30.224701 63.012459 30.318118 C 63.146216 30.41673 63.270578 30.572097 63.375158 30.783457 C 63.484551 31.000392 63.536274 31.291425 63.535139 31.662131 C 63.535149 32.017253 63.478173 32.295074 63.358252 32.5056 C 63.243907 32.711314 63.112984 32.858362 62.965484 32.946747 C 62.823559 33.030318 62.726625 33.070195 62.6743 33.071572 Z M 77.163904 38.079447 C 77.487861 38.077145 77.798295 37.974625 78.101162 37.761878 C 78.409225 37.549513 78.626843 37.288722 78.7544 36.974309 C 78.994694 36.33395 79.118342 35.575348 79.120912 34.687732 C 79.118993 34.358581 79.110734 34.044631 79.095371 33.756271 C 79.080772 33.457522 79.07389 33.195897 79.070292 32.960625 C 79.070432 32.5324 79.130845 32.20783 79.246335 31.986534 C 80.653702 29.891351 81.547846 28.526137 81.934345 27.886079 C 82.094826 27.621088 82.203595 27.420188 82.255457 27.282995 L 82.287537 27.201795 C 82.364377 27.008992 82.400043 26.80794 82.398968 26.609411 C 82.399872 26.170797 82.240364 25.783062 81.909675 25.450636 C 81.584562 25.113397 81.205296 24.944517 80.766682 24.943614 C 80.406365 24.943243 80.034595 25.098701 79.646558 25.404413 C 79.517544 25.52549 79.315891 25.782233 79.036403 26.174259 C 78.698099 26.655965 78.178688 27.328033 77.488558 28.191226 C 77.426458 28.254552 77.350683 28.290762 77.261998 28.289466 C 77.168118 28.287788 77.088063 28.240125 77.021833 28.146477 C 76.892808 27.912431 76.719707 27.638589 76.49176 27.329382 L 75.660787 26.129826 C 75.43727 25.831389 75.14913 25.559537 74.80118 25.319845 C 74.448036 25.079772 74.091306 24.959549 73.730989 24.959178 C 73.354707 24.962856 73.030067 25.116556 72.7615 25.431049 C 72.498127 25.745924 72.365376 26.059955 72.367677 26.383911 C 72.365397 26.7702 72.512839 27.251052 72.815195 27.826847 C 73.112739 28.397067 73.5568 29.176506 74.142564 30.159588 L 75.120978 31.839994 C 75.204399 32.055021 75.246346 32.408004 75.246056 32.909331 L 75.231279 34.318289 C 75.23351 34.856358 75.256519 35.395955 75.309548 35.953425 C 75.404976 36.644571 75.632472 37.173085 75.992418 37.533773 C 76.346788 37.899274 76.740874 38.079688 77.163904 38.079447 Z M 86.320871 38.334687 C 85.443262 38.338074 84.645315 38.039196 83.926267 37.448441 C 83.207219 36.857686 82.634064 36.058314 82.200844 35.060332 C 81.767242 34.067544 81.550958 32.960169 81.551609 31.743402 C 81.551496 30.537023 81.768249 29.435364 82.197056 28.432849 C 82.631056 27.430716 83.206761 26.632226 83.923787 26.042574 C 84.646389 25.44811 85.446304 25.151781 86.318338 25.153206 C 87.195947 25.149819 87.993894 25.448697 88.71256 26.044646 C 89.431608 26.635401 90.005144 27.429579 90.427594 28.431992 C 90.855238 29.434786 91.071905 30.536967 91.072017 31.743346 C 91.071366 32.960113 90.854231 34.066966 90.431001 35.064668 C 90.002577 36.061989 89.432448 36.855666 88.709846 37.450131 C 87.992819 38.039783 87.192904 38.336112 86.320871 38.334687 Z M 86.349055 33.119598 C 86.510842 33.121044 86.645432 32.995154 86.752443 32.747123 C 86.854641 32.493515 86.908714 32.184146 86.909085 31.823829 C 86.908692 31.473901 86.858115 31.167285 86.751395 30.913989 C 86.645057 30.655499 86.508396 30.52534 86.351421 30.52947 C 86.205217 30.529168 86.070627 30.655058 85.962853 30.913478 C 85.849884 31.171517 85.791381 31.470115 85.791391 31.825238 C 85.79102 32.185555 85.846792 32.492552 85.958706 32.74623 C 86.071002 32.994713 86.20285 33.119296 86.349055 33.119598 Z M 95.806828 38.305987 C 96.788705 38.305041 97.627884 38.042932 98.325128 37.509272 C 99.027185 36.981188 99.565846 36.331425 99.941875 35.549593 C 100.322717 34.773338 100.510224 33.99854 100.509208 33.230775 C 100.586478 32.108419 100.622656 31.118826 100.623317 30.257181 C 100.624291 29.604455 100.614343 29.029262 100.593857 28.526407 L 100.577478 27.470282 C 100.578532 26.958566 100.453245 26.531567 100.212005 26.190048 C 99.975959 25.848911 99.691487 25.598218 99.364164 25.433155 C 99.042035 25.268475 98.745346 25.184 98.478908 25.185306 C 97.977581 25.185016 97.532939 25.408232 97.144983 25.854954 C 96.757027 26.301676 96.541479 26.818517 96.508727 27.406239 C 96.47706 28.547613 96.465558 29.627801 96.464214 30.640844 C 96.464245 31.706213 96.442726 32.42532 96.394842 32.79259 C 96.357347 33.160623 96.213363 33.343269 95.967703 33.346102 C 95.732813 33.344505 95.583243 33.17684 95.524567 32.838295 C 95.470705 32.505326 95.438533 32.090394 95.43806 31.599455 L 95.43841 30.528892 L 95.424102 29.728816 L 95.439271 28.669787 C 95.44139 28.001478 95.374687 27.416891 95.248786 26.927178 C 95.195617 26.797933 95.113954 26.630037 95.00418 26.418295 C 94.593194 25.615175 94.037773 25.214008 93.34311 25.215175 C 92.392781 25.213217 91.747781 25.60449 91.408494 26.3838 C 91.127409 27.010716 90.990942 28.227945 90.989086 30.029531 C 90.990032 31.011409 91.02986 32.032701 91.103758 33.087831 C 91.132343 33.622615 91.242128 34.189479 91.432731 34.793618 C 91.618522 35.39218 91.895289 35.960872 92.263795 36.489306 C 92.632302 37.01774 93.107136 37.449541 93.687534 37.795098 C 94.268314 38.135461 94.976731 38.302421 95.806828 38.305987 Z M 95.806828 38.305987 " stroke="#233d4d" stroke-width="0.8" stroke-opacity="1" stroke-miterlimit="4"/><g fill="#ff650e" fill-opacity="1"><g transform="translate(27.384913, 65.465666)"><g><path d="M 1.9375 0.109375 C 2.34375 0.078125 2.664062 -0.0820312 2.90625 -0.375 C 3.15625 -0.675781 3.257812 -1.125 3.21875 -1.71875 C 3.207031 -2.269531 3.195312 -2.664062 3.1875 -2.90625 C 3.15625 -3.226562 3.160156 -3.398438 3.203125 -3.421875 C 3.242188 -3.453125 3.726562 -3.503906 4.65625 -3.578125 C 4.9375 -3.597656 5.148438 -3.75 5.296875 -4.03125 C 5.453125 -4.320312 5.515625 -4.675781 5.484375 -5.09375 C 5.441406 -5.707031 5.195312 -6.09375 4.75 -6.25 C 4.59375 -6.300781 4.398438 -6.320312 4.171875 -6.3125 L 4.03125 -6.296875 C 3.457031 -6.253906 3.140625 -6.265625 3.078125 -6.328125 C 3.035156 -6.335938 3.015625 -6.375 3.015625 -6.4375 C 2.992188 -6.71875 3.007812 -6.875 3.0625 -6.90625 C 3.113281 -6.9375 3.175781 -6.957031 3.25 -6.96875 C 3.738281 -7 4.175781 -7.046875 4.5625 -7.109375 C 4.863281 -7.148438 5.140625 -7.257812 5.390625 -7.4375 C 5.753906 -7.71875 5.914062 -8.148438 5.875 -8.734375 C 5.851562 -9.046875 5.773438 -9.300781 5.640625 -9.5 C 5.503906 -9.695312 5.347656 -9.832031 5.171875 -9.90625 C 4.992188 -9.988281 4.820312 -10.023438 4.65625 -10.015625 L 3.25 -9.90625 C 2.570312 -9.851562 1.816406 -9.796875 0.984375 -9.734375 C 0.671875 -9.710938 0.421875 -9.59375 0.234375 -9.375 C 0.046875 -9.164062 -0.0546875 -8.921875 -0.078125 -8.640625 C -0.078125 -8.585938 -0.0820312 -8.539062 -0.09375 -8.5 C -0.113281 -8.457031 -0.117188 -8.394531 -0.109375 -8.3125 L -0.09375 -8.0625 C -0.0703125 -7.507812 -0.0234375 -6.757812 0.046875 -5.8125 C 0.046875 -5.644531 0.0507812 -5.460938 0.0625 -5.265625 L 0.046875 -5.265625 C 0.179688 -3.460938 0.257812 -2.375 0.28125 -2 C 0.3125 -1.53125 0.332031 -1.28125 0.34375 -1.25 C 0.382812 -0.738281 0.539062 -0.375 0.8125 -0.15625 C 1.09375 0.0507812 1.46875 0.140625 1.9375 0.109375 Z M 1.9375 0.109375 "/></g></g></g><g fill="#ff650e" fill-opacity="1"><g transform="translate(33.320917, 65.029373)"><g><path d="M 1.03125 0.03125 C 1.351562 0.0078125 1.625 -0.101562 1.84375 -0.3125 C 2.070312 -0.53125 2.25 -0.8125 2.375 -1.15625 C 2.382812 -1.207031 2.40625 -1.25 2.4375 -1.28125 C 2.46875 -1.3125 2.585938 -1.332031 2.796875 -1.34375 L 3.65625 -1.40625 L 4.65625 -1.46875 C 4.851562 -1.488281 4.988281 -1.410156 5.0625 -1.234375 C 5.238281 -0.929688 5.457031 -0.71875 5.71875 -0.59375 C 5.976562 -0.46875 6.234375 -0.410156 6.484375 -0.421875 C 6.722656 -0.441406 6.941406 -0.515625 7.140625 -0.640625 C 7.335938 -0.765625 7.476562 -0.941406 7.5625 -1.171875 C 7.632812 -1.335938 7.664062 -1.503906 7.65625 -1.671875 C 7.632812 -1.878906 7.539062 -2.171875 7.375 -2.546875 C 7.125 -3.078125 6.691406 -4.078125 6.078125 -5.546875 C 5.648438 -6.566406 5.273438 -7.421875 4.953125 -8.109375 C 4.640625 -8.804688 4.375 -9.28125 4.15625 -9.53125 C 3.820312 -9.84375 3.457031 -9.984375 3.0625 -9.953125 C 2.726562 -9.921875 2.441406 -9.769531 2.203125 -9.5 C 2.160156 -9.4375 2.125 -9.378906 2.09375 -9.328125 C 2.019531 -9.203125 1.894531 -8.875 1.71875 -8.34375 C 1.625 -8.09375 0.929688 -5.921875 -0.359375 -1.828125 C -0.421875 -1.609375 -0.445312 -1.394531 -0.4375 -1.1875 C -0.414062 -0.925781 -0.332031 -0.671875 -0.1875 -0.421875 C -0.0703125 -0.222656 0.0546875 -0.0976562 0.203125 -0.046875 C 0.359375 -0.00390625 0.503906 0.0195312 0.640625 0.03125 L 0.75 0.015625 C 0.851562 0.0351562 0.945312 0.0390625 1.03125 0.03125 Z M 3.46875 -3.828125 C 3.332031 -3.816406 3.265625 -3.828125 3.265625 -3.859375 C 3.296875 -3.941406 3.34375 -4.046875 3.40625 -4.171875 C 3.476562 -4.304688 3.53125 -4.425781 3.5625 -4.53125 C 3.582031 -4.53125 3.601562 -4.535156 3.625 -4.546875 C 3.695312 -4.347656 3.769531 -4.191406 3.84375 -4.078125 C 3.90625 -3.992188 3.9375 -3.9375 3.9375 -3.90625 C 3.9375 -3.894531 3.925781 -3.890625 3.90625 -3.890625 Z M 3.46875 -3.828125 "/></g></g></g><g fill="#ff650e" fill-opacity="1"><g transform="translate(40.369913, 64.511277)"><g><path d="M 3.828125 -0.171875 C 4.265625 -0.203125 4.613281 -0.367188 4.875 -0.671875 C 5.132812 -0.984375 5.257812 -1.394531 5.25 -1.90625 L 5.125 -3.8125 L 4.984375 -5.578125 C 4.929688 -6.171875 4.910156 -6.550781 4.921875 -6.71875 C 4.929688 -6.820312 4.960938 -6.894531 5.015625 -6.9375 C 5.066406 -6.976562 5.109375 -7 5.140625 -7 C 5.367188 -7.019531 5.617188 -7.050781 5.890625 -7.09375 C 6.171875 -7.144531 6.410156 -7.234375 6.609375 -7.359375 C 7.066406 -7.671875 7.269531 -8.179688 7.21875 -8.890625 C 7.1875 -9.285156 7.054688 -9.582031 6.828125 -9.78125 C 6.597656 -9.976562 6.347656 -10.101562 6.078125 -10.15625 C 5.804688 -10.207031 5.59375 -10.226562 5.4375 -10.21875 L 1.265625 -9.90625 C 0.847656 -9.875 0.445312 -9.757812 0.0625 -9.5625 C -0.507812 -9.238281 -0.769531 -8.757812 -0.71875 -8.125 C -0.695312 -7.78125 -0.5625 -7.488281 -0.3125 -7.25 C -0.0703125 -7.019531 0.164062 -6.867188 0.40625 -6.796875 C 0.53125 -6.753906 0.664062 -6.726562 0.8125 -6.71875 C 0.957031 -6.707031 1.179688 -6.710938 1.484375 -6.734375 C 1.566406 -6.742188 1.648438 -6.738281 1.734375 -6.71875 C 1.816406 -6.707031 1.867188 -6.648438 1.890625 -6.546875 C 2.023438 -5.460938 2.160156 -3.976562 2.296875 -2.09375 L 2.328125 -1.5625 C 2.335938 -1.550781 2.363281 -1.46875 2.40625 -1.3125 C 2.445312 -1.164062 2.519531 -1 2.625 -0.8125 C 2.726562 -0.632812 2.878906 -0.476562 3.078125 -0.34375 C 3.273438 -0.207031 3.523438 -0.148438 3.828125 -0.171875 Z M 3.828125 -0.171875 "/></g></g></g><g fill="#ff650e" fill-opacity="1"><g transform="translate(47.634334, 63.977347)"><g><path d="M 1.03125 0.03125 C 1.351562 0.0078125 1.625 -0.101562 1.84375 -0.3125 C 2.070312 -0.53125 2.25 -0.8125 2.375 -1.15625 C 2.382812 -1.207031 2.40625 -1.25 2.4375 -1.28125 C 2.46875 -1.3125 2.585938 -1.332031 2.796875 -1.34375 L 3.65625 -1.40625 L 4.65625 -1.46875 C 4.851562 -1.488281 4.988281 -1.410156 5.0625 -1.234375 C 5.238281 -0.929688 5.457031 -0.71875 5.71875 -0.59375 C 5.976562 -0.46875 6.234375 -0.410156 6.484375 -0.421875 C 6.722656 -0.441406 6.941406 -0.515625 7.140625 -0.640625 C 7.335938 -0.765625 7.476562 -0.941406 7.5625 -1.171875 C 7.632812 -1.335938 7.664062 -1.503906 7.65625 -1.671875 C 7.632812 -1.878906 7.539062 -2.171875 7.375 -2.546875 C 7.125 -3.078125 6.691406 -4.078125 6.078125 -5.546875 C 5.648438 -6.566406 5.273438 -7.421875 4.953125 -8.109375 C 4.640625 -8.804688 4.375 -9.28125 4.15625 -9.53125 C 3.820312 -9.84375 3.457031 -9.984375 3.0625 -9.953125 C 2.726562 -9.921875 2.441406 -9.769531 2.203125 -9.5 C 2.160156 -9.4375 2.125 -9.378906 2.09375 -9.328125 C 2.019531 -9.203125 1.894531 -8.875 1.71875 -8.34375 C 1.625 -8.09375 0.929688 -5.921875 -0.359375 -1.828125 C -0.421875 -1.609375 -0.445312 -1.394531 -0.4375 -1.1875 C -0.414062 -0.925781 -0.332031 -0.671875 -0.1875 -0.421875 C -0.0703125 -0.222656 0.0546875 -0.0976562 0.203125 -0.046875 C 0.359375 -0.00390625 0.503906 0.0195312 0.640625 0.03125 L 0.75 0.015625 C 0.851562 0.0351562 0.945312 0.0390625 1.03125 0.03125 Z M 3.46875 -3.828125 C 3.332031 -3.816406 3.265625 -3.828125 3.265625 -3.859375 C 3.296875 -3.941406 3.34375 -4.046875 3.40625 -4.171875 C 3.476562 -4.304688 3.53125 -4.425781 3.5625 -4.53125 C 3.582031 -4.53125 3.601562 -4.535156 3.625 -4.546875 C 3.695312 -4.347656 3.769531 -4.191406 3.84375 -4.078125 C 3.90625 -3.992188 3.9375 -3.9375 3.9375 -3.90625 C 3.9375 -3.894531 3.925781 -3.890625 3.90625 -3.890625 Z M 3.46875 -3.828125 "/></g></g></g><g fill="#ff650e" fill-opacity="1"><g transform="translate(54.683331, 63.459251)"><g><path d="M 3.1875 -0.046875 C 4.082031 -0.140625 4.800781 -0.359375 5.34375 -0.703125 C 5.882812 -1.054688 6.273438 -1.488281 6.515625 -2 C 6.753906 -2.507812 6.859375 -3.019531 6.828125 -3.53125 C 6.785156 -4.125 6.570312 -4.679688 6.1875 -5.203125 C 5.726562 -5.804688 5.078125 -6.1875 4.234375 -6.34375 C 3.921875 -6.394531 3.628906 -6.476562 3.359375 -6.59375 C 3.097656 -6.71875 2.945312 -6.953125 2.90625 -7.296875 C 2.894531 -7.367188 2.914062 -7.441406 2.96875 -7.515625 C 3.019531 -7.585938 3.078125 -7.625 3.140625 -7.625 C 3.210938 -7.613281 3.269531 -7.550781 3.3125 -7.4375 C 3.363281 -7.332031 3.476562 -7.171875 3.65625 -6.953125 C 3.894531 -6.679688 4.207031 -6.5625 4.59375 -6.59375 C 4.8125 -6.601562 5.007812 -6.664062 5.1875 -6.78125 C 5.375 -6.90625 5.515625 -7.066406 5.609375 -7.265625 C 5.703125 -7.472656 5.738281 -7.6875 5.71875 -7.90625 C 5.695312 -8.226562 5.578125 -8.539062 5.359375 -8.84375 C 5.140625 -9.144531 4.859375 -9.390625 4.515625 -9.578125 C 3.992188 -9.847656 3.4375 -9.960938 2.84375 -9.921875 C 2.175781 -9.867188 1.546875 -9.613281 0.953125 -9.15625 C 0.359375 -8.707031 -0.0234375 -8.0625 -0.203125 -7.21875 C -0.242188 -6.976562 -0.257812 -6.765625 -0.25 -6.578125 C -0.175781 -5.578125 0.570312 -4.785156 2 -4.203125 C 2.164062 -4.117188 2.273438 -4.0625 2.328125 -4.03125 C 2.835938 -3.726562 3.101562 -3.46875 3.125 -3.25 C 3.125 -3.175781 3.097656 -3.113281 3.046875 -3.0625 C 2.992188 -3.019531 2.925781 -2.992188 2.84375 -2.984375 C 2.726562 -2.972656 2.617188 -3.015625 2.515625 -3.109375 C 1.960938 -3.609375 1.46875 -3.84375 1.03125 -3.8125 C 0.707031 -3.789062 0.441406 -3.648438 0.234375 -3.390625 C 0.0234375 -3.128906 -0.0625 -2.804688 -0.03125 -2.421875 C 0.0078125 -1.796875 0.367188 -1.1875 1.046875 -0.59375 C 1.429688 -0.289062 1.992188 -0.117188 2.734375 -0.078125 C 2.984375 -0.0546875 3.132812 -0.046875 3.1875 -0.046875 Z M 3.1875 -0.046875 "/></g></g></g><g fill="#ff650e" fill-opacity="1"><g transform="translate(61.289525, 62.9737)"><g><path d="M 3.1875 -0.046875 C 4.082031 -0.140625 4.800781 -0.359375 5.34375 -0.703125 C 5.882812 -1.054688 6.273438 -1.488281 6.515625 -2 C 6.753906 -2.507812 6.859375 -3.019531 6.828125 -3.53125 C 6.785156 -4.125 6.570312 -4.679688 6.1875 -5.203125 C 5.726562 -5.804688 5.078125 -6.1875 4.234375 -6.34375 C 3.921875 -6.394531 3.628906 -6.476562 3.359375 -6.59375 C 3.097656 -6.71875 2.945312 -6.953125 2.90625 -7.296875 C 2.894531 -7.367188 2.914062 -7.441406 2.96875 -7.515625 C 3.019531 -7.585938 3.078125 -7.625 3.140625 -7.625 C 3.210938 -7.613281 3.269531 -7.550781 3.3125 -7.4375 C 3.363281 -7.332031 3.476562 -7.171875 3.65625 -6.953125 C 3.894531 -6.679688 4.207031 -6.5625 4.59375 -6.59375 C 4.8125 -6.601562 5.007812 -6.664062 5.1875 -6.78125 C 5.375 -6.90625 5.515625 -7.066406 5.609375 -7.265625 C 5.703125 -7.472656 5.738281 -7.6875 5.71875 -7.90625 C 5.695312 -8.226562 5.578125 -8.539062 5.359375 -8.84375 C 5.140625 -9.144531 4.859375 -9.390625 4.515625 -9.578125 C 3.992188 -9.847656 3.4375 -9.960938 2.84375 -9.921875 C 2.175781 -9.867188 1.546875 -9.613281 0.953125 -9.15625 C 0.359375 -8.707031 -0.0234375 -8.0625 -0.203125 -7.21875 C -0.242188 -6.976562 -0.257812 -6.765625 -0.25 -6.578125 C -0.175781 -5.578125 0.570312 -4.785156 2 -4.203125 C 2.164062 -4.117188 2.273438 -4.0625 2.328125 -4.03125 C 2.835938 -3.726562 3.101562 -3.46875 3.125 -3.25 C 3.125 -3.175781 3.097656 -3.113281 3.046875 -3.0625 C 2.992188 -3.019531 2.925781 -2.992188 2.84375 -2.984375 C 2.726562 -2.972656 2.617188 -3.015625 2.515625 -3.109375 C 1.960938 -3.609375 1.46875 -3.84375 1.03125 -3.8125 C 0.707031 -3.789062 0.441406 -3.648438 0.234375 -3.390625 C 0.0234375 -3.128906 -0.0625 -2.804688 -0.03125 -2.421875 C 0.0078125 -1.796875 0.367188 -1.1875 1.046875 -0.59375 C 1.429688 -0.289062 1.992188 -0.117188 2.734375 -0.078125 C 2.984375 -0.0546875 3.132812 -0.046875 3.1875 -0.046875 Z M 3.1875 -0.046875 "/></g></g></g><g fill="#ff650e" fill-opacity="1"><g transform="translate(67.89572, 62.488149)"><g><path d="M 1.515625 -2.9375 C 1.835938 -2.957031 2.125 -3.082031 2.375 -3.3125 C 2.632812 -3.539062 2.804688 -3.828125 2.890625 -4.171875 C 2.960938 -4.429688 3 -4.691406 3 -4.953125 C 3 -5.222656 2.984375 -5.625 2.953125 -6.15625 L 2.9375 -6.90625 L 2.921875 -6.90625 L 2.859375 -7.609375 C 2.828125 -8.054688 2.765625 -8.492188 2.671875 -8.921875 C 2.585938 -9.359375 2.429688 -9.710938 2.203125 -9.984375 C 1.972656 -10.265625 1.625 -10.390625 1.15625 -10.359375 L 1.0625 -10.359375 C 0.25 -10.242188 -0.175781 -9.695312 -0.21875 -8.71875 C -0.238281 -8.300781 -0.238281 -7.757812 -0.21875 -7.09375 C -0.195312 -6.207031 -0.171875 -5.539062 -0.140625 -5.09375 C -0.109375 -4.632812 -0.0507812 -4.273438 0.03125 -4.015625 C 0.113281 -3.753906 0.257812 -3.523438 0.46875 -3.328125 C 0.769531 -3.035156 1.117188 -2.90625 1.515625 -2.9375 Z M 1.921875 1.328125 C 2.171875 1.316406 2.40625 1.242188 2.625 1.109375 C 2.84375 0.972656 3.019531 0.785156 3.15625 0.546875 C 3.3125 0.242188 3.375 -0.0664062 3.34375 -0.390625 C 3.320312 -0.679688 3.226562 -0.953125 3.0625 -1.203125 C 2.894531 -1.453125 2.648438 -1.625 2.328125 -1.71875 C 2.066406 -1.8125 1.816406 -1.847656 1.578125 -1.828125 C 1.390625 -1.816406 1.210938 -1.757812 1.046875 -1.65625 C 0.753906 -1.457031 0.539062 -1.222656 0.40625 -0.953125 C 0.28125 -0.679688 0.226562 -0.398438 0.25 -0.109375 C 0.269531 0.265625 0.421875 0.601562 0.703125 0.90625 C 1.078125 1.226562 1.484375 1.367188 1.921875 1.328125 Z M 1.921875 1.328125 "/></g></g></g><path stroke-linecap="butt" transform="matrix(0.747982, -0.0549762, 0.0549762, 0.747982, 3.294771, 22.114893)" fill="none" stroke-linejoin="miter" d="M 30.354281 60.338318 C 30.897544 60.336468 31.355097 60.150758 31.716167 59.785618 C 32.077618 59.415283 32.261388 58.833438 32.261899 58.044896 C 32.294953 57.310969 32.307922 56.77924 32.306003 56.450088 C 32.306906 56.011475 32.334857 55.773299 32.395049 55.735944 C 32.455241 55.698589 33.1043 55.678404 34.341844 55.680582 C 34.71255 55.681717 35.018321 55.500518 35.243576 55.13584 C 35.473642 54.776738 35.591112 54.315357 35.590026 53.761705 C 35.588778 52.926032 35.309721 52.388506 34.742846 52.143168 C 34.529648 52.059607 34.27184 52.014546 33.974237 52.013562 L 33.780902 52.015019 C 33.013137 52.016035 32.592778 51.979917 32.515014 51.901088 C 32.475368 51.872062 32.453596 51.813016 32.454892 51.72433 C 32.450833 51.353243 32.486499 51.152191 32.546691 51.114836 C 32.612459 51.072669 32.692283 51.052424 32.791357 51.054483 C 33.449277 51.055839 34.040817 51.036648 34.565212 51.007299 C 34.969757 50.974365 35.344049 50.855648 35.683659 50.64038 C 36.204989 50.297463 36.470723 49.73731 36.47047 48.959156 C 36.470992 48.525737 36.38749 48.1697 36.224015 47.90701 C 36.066115 47.639508 35.871704 47.442435 35.646359 47.31098 C 35.415437 47.184338 35.190323 47.12079 34.965822 47.119957 L 33.094801 47.13911 C 32.185644 47.145401 31.166643 47.154063 30.033366 47.154326 C 29.621106 47.150137 29.28241 47.281915 29.012085 47.549277 C 28.747718 47.806632 28.588231 48.129143 28.528814 48.511232 C 28.523087 48.589147 28.508117 48.650715 28.493911 48.701895 C 28.474892 48.747498 28.469165 48.825413 28.466724 48.929681 L 28.468261 49.264027 C 28.439639 50.008724 28.423093 51.015428 28.419388 52.27375 C 28.41336 52.497869 28.406186 52.737571 28.408257 52.99362 L 28.371896 52.990948 C 28.371358 55.414094 28.368346 56.87614 28.357667 57.376704 C 28.354172 57.992688 28.360522 58.33261 28.372669 58.380504 C 28.370168 59.054007 28.542817 59.547156 28.890235 59.865145 C 29.238034 60.177939 29.727908 60.334059 30.354281 60.338318 Z M 37.089768 60.144017 C 37.517994 60.144157 37.893049 60.015052 38.215318 59.751507 C 38.53201 59.492775 38.792861 59.141158 38.997489 58.701851 C 39.017653 58.640664 39.052637 58.591012 39.092433 58.546935 C 39.137424 58.503241 39.290731 58.477952 39.556787 58.48184 L 40.741243 58.495783 L 42.067855 58.494063 C 42.323522 58.497187 42.497306 58.61963 42.594401 58.861774 C 42.799512 59.268528 43.064584 59.570019 43.394429 59.771824 C 43.730231 59.963621 44.062517 60.061157 44.407251 60.060383 C 44.725632 60.062895 45.018192 59.990395 45.285313 59.837689 C 45.552051 59.690178 45.761421 59.470559 45.907846 59.183646 C 46.012948 58.961586 46.071301 58.73609 46.06694 58.511207 C 46.066397 58.234381 45.964791 57.840456 45.762121 57.329434 C 45.486801 56.598954 45.017973 55.232788 44.356784 53.215352 C 43.890247 51.81802 43.475202 50.643813 43.122037 49.693494 C 42.769253 48.73798 42.45704 48.083124 42.180203 47.728545 C 41.784429 47.286887 41.325108 47.070344 40.803004 47.068526 C 40.35362 47.072054 39.949538 47.240805 39.589995 47.585168 C 39.527894 47.648494 39.465412 47.717015 39.412936 47.791494 C 39.307985 47.940452 39.108934 48.374946 38.821358 49.090166 C 38.683031 49.409009 37.556561 52.229859 35.441948 57.552716 C 35.338223 57.827101 35.281247 58.104922 35.28179 58.381748 C 35.282564 58.726482 35.362017 59.066555 35.52496 59.407541 C 35.666513 59.684287 35.830903 59.863485 36.028519 59.945901 C 36.226516 60.023122 36.416034 60.073608 36.597071 60.097359 L 36.726548 60.112098 C 36.850448 60.131649 36.97473 60.146006 37.089768 60.144017 Z M 40.739771 55.247353 C 40.557206 55.244379 40.469666 55.2275 40.467526 55.185564 C 40.522674 55.074725 40.595314 54.93906 40.691404 54.768561 C 40.792688 54.598444 40.866855 54.442002 40.918717 54.304809 C 40.949883 54.3071 40.975855 54.309009 40.995869 54.320925 C 41.08143 54.577888 41.165614 54.782526 41.252853 54.945609 C 41.317556 55.060035 41.34819 55.140622 41.35033 55.182558 C 41.348803 55.203336 41.337651 55.212961 41.316491 55.216628 Z M 50.260479 60.145914 C 50.850873 60.142306 51.329203 59.958123 51.707001 59.578545 C 52.089994 59.199349 52.291104 58.66578 52.325534 57.984179 L 52.342721 55.405585 L 52.322331 53.054014 C 52.322842 52.265472 52.339098 51.760095 52.371479 51.53269 C 52.381405 51.397638 52.424638 51.306813 52.501176 51.260214 C 52.578096 51.208422 52.637524 51.181455 52.673884 51.184128 C 52.987071 51.186257 53.322562 51.169136 53.690364 51.138723 C 54.063742 51.103498 54.383801 51.01213 54.660928 50.865382 C 55.299588 50.48931 55.619324 49.833901 55.620518 48.893959 C 55.623863 48.351078 55.476653 47.938134 55.189277 47.655893 C 54.901901 47.373652 54.581681 47.183 54.228236 47.089131 C 53.874791 46.995262 53.591394 46.943098 53.377281 46.943028 L 47.815167 46.946785 C 47.245932 46.946726 46.704657 47.063614 46.180956 47.296686 C 45.392806 47.646103 44.998209 48.254231 44.997166 49.12107 C 44.994735 49.580461 45.14309 49.977822 45.44185 50.318346 C 45.740609 50.65887 46.047386 50.890313 46.357368 51.007099 C 46.519768 51.071259 46.693703 51.1206 46.885129 51.145115 C 47.076556 51.169629 47.373396 51.181002 47.780462 51.184809 C 47.890306 51.182438 47.998623 51.200844 48.110989 51.235214 C 48.223737 51.264391 48.285537 51.347269 48.291957 51.473078 C 48.368006 52.925267 48.404731 54.912472 48.401751 57.439887 L 48.402154 58.144938 C 48.40139 58.155327 48.424539 58.266698 48.466787 58.473476 C 48.509035 58.680254 48.596505 58.911246 48.724003 59.166069 C 48.8515 59.420892 49.04362 59.64913 49.28478 59.849638 C 49.531515 60.045334 49.858607 60.142489 50.260479 60.145914 Z M 56.229659 60.145965 C 56.657884 60.146105 57.027745 60.016618 57.350014 59.753073 C 57.672282 59.489529 57.932751 59.143106 58.132185 58.703417 C 58.157543 58.642612 58.187714 58.587384 58.227129 58.548501 C 58.272119 58.504807 58.425427 58.479518 58.691865 58.478212 L 59.875939 58.497349 L 61.202551 58.495629 C 61.4586 58.493559 61.637578 58.616384 61.734291 58.863722 C 61.934208 59.270094 62.204474 59.571967 62.534701 59.768577 C 62.864927 59.965187 63.197213 60.062723 63.541947 60.061949 C 63.860328 60.06446 64.15327 59.986766 64.420008 59.839255 C 64.686747 59.691744 64.896117 59.472125 65.042542 59.185212 C 65.15322 58.958339 65.205997 58.737656 65.20683 58.513154 C 65.206287 58.236328 65.104681 57.842404 64.902393 57.326187 C 64.626691 56.600902 64.153051 55.229159 63.49148 53.216918 C 63.024943 51.819586 62.615092 50.645761 62.257114 49.689865 C 61.909525 48.734734 61.592118 48.079496 61.320475 47.725298 C 60.92432 47.288835 60.464999 47.072292 59.9377 47.070092 C 59.493891 47.068807 59.084234 47.24237 58.724691 47.586733 C 58.66259 47.65006 58.605302 47.718963 58.547632 47.79306 C 58.442681 47.942018 58.244011 48.371318 57.956054 49.091732 C 57.818109 49.405381 56.691639 52.226231 54.58222 57.54947 C 54.472919 57.828667 54.421137 58.10687 54.42168 58.383696 C 54.417642 58.722854 54.502289 59.063308 54.660038 59.403913 C 54.801209 59.685853 54.965599 59.865051 55.163215 59.947467 C 55.361212 60.024688 55.550729 60.075174 55.731767 60.098925 L 55.861243 60.113664 C 55.990338 60.133597 56.109807 60.142378 56.229659 60.145965 Z M 59.874849 55.243724 C 59.691902 55.245945 59.604744 55.223872 59.602604 55.181936 C 59.65737 55.076291 59.735204 54.941007 59.831294 54.770509 C 59.927384 54.60001 60.001551 54.443568 60.053413 54.306375 C 60.084961 54.303472 60.110551 54.310575 60.135759 54.322872 C 60.216507 54.574259 60.30031 54.784092 60.387549 54.947175 C 60.452252 55.061601 60.48808 55.14257 60.485026 55.184124 C 60.483499 55.204902 60.477541 55.214909 60.456763 55.213381 Z M 68.531852 60.240698 C 69.724939 60.208274 70.707268 59.988021 71.468451 59.579176 C 72.230017 59.165136 72.796257 58.637514 73.157548 57.985159 C 73.518838 57.332804 73.69871 56.661892 73.697543 55.96723 C 73.698818 55.168299 73.477731 54.410471 73.029089 53.693364 C 72.486105 52.838763 71.655686 52.271156 70.533019 51.984968 C 70.138019 51.888045 69.772427 51.746282 69.43143 51.554103 C 69.090433 51.361923 68.899991 51.039805 68.864916 50.593325 C 68.878128 50.484626 68.921742 50.388606 68.995758 50.305266 C 69.070156 50.216731 69.146313 50.175327 69.224609 50.175859 C 69.316962 50.198314 69.38915 50.281956 69.440792 50.431978 C 69.497629 50.582383 69.632611 50.806421 69.845739 51.104095 C 70.130674 51.490604 70.534385 51.68217 71.046483 51.67803 C 71.333697 51.678251 71.605098 51.609418 71.865879 51.471914 C 72.131854 51.334791 72.329308 51.135186 72.46863 50.873862 C 72.607952 50.612539 72.675317 50.335481 72.675538 50.048266 C 72.676441 49.609653 72.54596 49.182272 72.284475 48.760929 C 72.02299 48.339587 71.678245 47.985238 71.239852 47.69712 C 70.564579 47.292366 69.838057 47.087518 69.049133 47.092201 C 68.140739 47.088103 67.269249 47.363504 66.44062 47.908397 C 65.617567 48.448477 65.044766 49.278515 64.727412 50.398891 C 64.653326 50.696344 64.611933 50.97531 64.614003 51.231359 C 64.615341 52.563165 65.529955 53.690533 67.363422 54.608649 C 67.568754 54.728188 67.703655 54.811216 67.783329 54.864074 C 68.445158 55.309619 68.772793 55.6836 68.771427 55.986397 C 68.77418 56.091047 68.73133 56.176678 68.654028 56.233665 C 68.571532 56.290271 68.475361 56.319759 68.370711 56.322512 C 68.214118 56.321447 68.067682 56.253238 67.942174 56.113454 C 67.259406 55.384361 66.627828 55.024597 66.053399 55.024156 C 65.614785 55.023253 65.247827 55.184287 64.941754 55.511691 C 64.635682 55.839094 64.484525 56.261442 64.482707 56.783547 C 64.484336 57.614026 64.902656 58.459464 65.732855 59.314285 C 66.222126 59.762814 66.948116 60.045959 67.910061 60.174107 C 68.262129 60.215651 68.46952 60.236117 68.531852 60.240698 Z M 77.363174 60.236996 C 78.55626 60.204572 79.538208 59.989514 80.299773 59.575474 C 81.066151 59.16701 81.627579 58.633812 81.988488 57.986652 C 82.349778 57.334296 82.529649 56.663385 82.533677 55.969104 C 82.529757 55.169791 82.308671 54.411963 81.860029 53.694856 C 81.317045 52.840255 80.486626 52.272649 79.363959 51.986461 C 78.968959 51.889538 78.603749 51.74258 78.26237 51.555595 C 77.921373 51.363416 77.730931 51.041298 77.70105 50.595199 C 77.714262 50.4865 77.752681 50.390099 77.826698 50.306758 C 77.901096 50.218224 77.977253 50.17682 78.055549 50.177352 C 78.148284 50.194613 78.22009 50.283449 78.271732 50.433471 C 78.328568 50.583875 78.463551 50.807914 78.676679 51.105587 C 78.96719 51.487284 79.365706 51.678469 79.877422 51.679523 C 80.164637 51.679743 80.441232 51.611292 80.696819 51.473406 C 80.962794 51.336284 81.160248 51.136679 81.29957 50.875355 C 81.438892 50.614031 81.506257 50.336974 81.506859 50.044565 C 81.507381 49.611145 81.377281 49.17857 81.115414 48.762422 C 80.859124 48.341461 80.509185 47.986731 80.071173 47.693418 C 79.400713 47.29424 78.668997 47.08901 77.880454 47.088499 C 76.971679 47.089596 76.100571 47.359802 75.271942 47.904695 C 74.448507 48.44997 73.875706 49.280007 73.558352 50.400384 C 73.484266 50.697837 73.442872 50.976803 73.444942 51.232852 C 73.446281 52.564658 74.360895 53.692025 76.194362 54.610141 C 76.400075 54.724486 76.53979 54.813091 76.614268 54.865566 C 77.276098 55.311111 77.603733 55.685092 77.607943 55.983077 C 77.60512 56.09254 77.562651 56.172977 77.484968 56.235158 C 77.402471 56.291763 77.311495 56.321633 77.202033 56.31881 C 77.045058 56.32294 76.899004 56.249536 76.773114 56.114946 C 76.090346 55.385853 75.464344 55.021277 74.884338 55.025649 C 74.450919 55.025127 74.078767 55.18578 73.772694 55.513183 C 73.467003 55.835393 73.315464 56.262935 73.318841 56.785421 C 73.315276 57.615518 73.733596 58.460956 74.564176 59.310583 C 75.053448 59.759112 75.779056 60.047451 76.741 60.1756 C 77.093069 60.217144 77.30046 60.237609 77.363174 60.236996 Z M 84.246357 56.256878 C 84.674582 56.257018 85.071561 56.113857 85.442869 55.822583 C 85.818989 55.536885 86.081367 55.16449 86.228857 54.720984 C 86.336782 54.389461 86.403916 54.044496 86.429495 53.696476 C 86.455456 53.343262 86.478433 52.81749 86.498807 52.113966 L 86.531318 51.103213 L 86.515353 51.107262 L 86.516929 50.162127 C 86.514084 49.561344 86.478929 48.973853 86.401837 48.388502 C 86.330321 47.798339 86.152096 47.310003 85.867161 46.923493 C 85.587802 46.532172 85.132148 46.336787 84.500199 46.337341 L 84.369578 46.338185 C 83.294433 46.400167 82.674803 47.085758 82.516645 48.384952 C 82.454254 48.949606 82.401568 49.666422 82.358207 50.540596 C 82.30309 51.716803 82.279361 52.608087 82.276629 53.213682 C 82.27871 53.824854 82.316688 54.302882 82.394996 54.658537 C 82.473685 55.008998 82.638537 55.324013 82.884358 55.6032 C 83.270125 56.038899 83.72387 56.260255 84.246357 56.256878 Z M 84.370809 61.953201 C 84.69996 61.951281 85.024068 61.875877 85.333125 61.721032 C 85.642181 61.566186 85.899064 61.339615 86.103772 61.041318 C 86.335747 60.656245 86.454593 60.247189 86.455497 59.808575 C 86.452583 59.421905 86.35388 59.059528 86.149763 58.710293 C 85.945265 58.366253 85.630009 58.108074 85.203994 57.935758 C 84.874762 57.796667 84.550956 57.725866 84.232193 57.728549 C 83.98172 57.725807 83.737055 57.78616 83.493384 57.904032 C 83.101067 58.125872 82.802861 58.417297 82.59953 58.767919 C 82.395817 59.123735 82.290796 59.486805 82.29371 59.873476 C 82.293419 60.374803 82.467977 60.841981 82.822197 61.280584 C 83.280302 61.726822 83.796379 61.952759 84.370809 61.953201 Z M 84.370809 61.953201 " stroke="#233d4d" stroke-width="0.8" stroke-opacity="1" stroke-miterlimit="4"/></svg>