<svg xmlns="http://www.w3.org/2000/svg" xmlns:xlink="http://www.w3.org/1999/xlink" width="500" zoomAndPan="magnify" viewBox="0 0 375 374.999991" height="500" preserveAspectRatio="xMidYMid meet" version="1.0"><defs><g/><clipPath id="1d4e413697"><path d="M 108 148 L 236 148 L 236 200.429688 L 108 200.429688 Z M 108 148 " clip-rule="nonzero"/></clipPath><clipPath id="001ce3fe89"><path d="M 107 57 L 268 57 L 268 200.429688 L 107 200.429688 Z M 107 57 " clip-rule="nonzero"/></clipPath></defs><path fill="#fa9712" d="M 243.835938 116.136719 C 244.347656 114.703125 245.523438 113.769531 245.523438 113.769531 C 245.523438 113.769531 233.152344 102.371094 231.992188 89.558594 C 230.832031 76.742188 242.460938 71.289062 249.421875 70.605469 C 256.386719 69.925781 264.167969 74.863281 266.378906 87.605469 C 268.589844 100.347656 260.023438 111.652344 260.046875 112.285156 C 260.046875 112.285156 264.8125 115.933594 262.320312 118.328125 C 260.539062 120.039062 258.675781 118.691406 257.761719 117.789062 C 257.398438 117.425781 257.183594 117.136719 257.183594 117.136719 C 257.183594 117.136719 257.171875 120.535156 254.152344 121.671875 C 251.890625 122.523438 250.621094 120.070312 250.128906 118.785156 C 249.960938 118.355469 249.882812 118.054688 249.882812 118.054688 C 249.882812 118.054688 247.277344 123.449219 244.597656 120.039062 C 243.445312 118.582031 243.453125 117.21875 243.835938 116.136719 Z M 243.835938 116.136719 " fill-opacity="1" fill-rule="nonzero"/><path fill="#fdefe3" d="M 261.605469 135.796875 C 265.328125 138.632812 265.621094 141.710938 263.695312 143.65625 C 261.769531 145.601562 258.148438 146.28125 256.140625 142.292969 C 255.566406 143.738281 253.976562 145.0625 252.320312 145.628906 L 252.320312 145.632812 C 250.695312 146.1875 249 146.019531 248.152344 144.523438 C 246.59375 141.769531 247.351562 139.527344 250.1875 135.425781 C 253.023438 131.320312 249.855469 118.886719 249.855469 118.886719 L 250.128906 118.785156 C 250.621094 120.070312 251.890625 122.523438 254.152344 121.671875 C 257.171875 120.535156 257.183594 117.136719 257.183594 117.136719 C 257.183594 117.136719 257.398438 117.425781 257.761719 117.789062 C 257.761719 117.789062 257.882812 132.960938 261.605469 135.796875 Z M 261.605469 135.796875 " fill-opacity="1" fill-rule="nonzero"/><path fill="#fdefe3" d="M 249.855469 118.886719 C 249.855469 118.886719 253.023438 131.320312 250.1875 135.425781 C 247.351562 139.527344 246.59375 141.769531 248.152344 144.523438 C 249 146.019531 250.695312 146.1875 252.320312 145.632812 C 247.800781 156.695312 240.269531 167.898438 231.65625 174.917969 C 233.96875 168.953125 235.09375 162.59375 235.042969 156.167969 C 235.046875 156.164062 235.046875 156.160156 235.046875 156.160156 C 235.28125 151.074219 233.742188 144.667969 233.46875 143.582031 C 233.457031 143.53125 233.445312 143.492188 233.4375 143.460938 C 233.4375 143.445312 233.433594 143.433594 233.429688 143.425781 C 233.429688 143.421875 233.429688 143.421875 233.429688 143.421875 C 232.359375 139.097656 230.761719 134.835938 228.636719 130.734375 L 228.636719 130.730469 C 228.636719 130.429688 236.421875 120.535156 243.835938 116.136719 C 243.453125 117.21875 243.445312 118.582031 244.597656 120.039062 C 247.277344 123.449219 249.882812 118.054688 249.882812 118.054688 C 249.882812 118.054688 249.960938 118.355469 250.128906 118.785156 Z M 249.855469 118.886719 " fill-opacity="1" fill-rule="nonzero"/><path fill="#fd551b" d="M 193.800781 89.5625 C 194.320312 89.402344 226.042969 79.683594 226.554688 97.753906 C 226.773438 105.5 223.851562 108.371094 219.03125 108.800781 C 212.523438 109.386719 202.558594 105.519531 192.226562 103.222656 C 174.25 99.226562 156.175781 103.65625 147.6875 102.730469 C 147.636719 102.722656 147.582031 102.71875 147.53125 102.710938 C 131.78125 100.769531 136.921875 66.480469 161.378906 59.714844 C 178.691406 54.925781 178.066406 64.503906 177.519531 85.0625 C 187.828125 56.839844 208.3125 64.800781 208.101562 73.578125 C 207.890625 82.246094 194.148438 89.382812 193.800781 89.5625 Z M 193.800781 89.5625 " fill-opacity="1" fill-rule="nonzero"/><path fill="#fa9712" d="M 203.570312 133.007812 C 210.613281 134.6875 215.59375 140.75 214.21875 145.335938 C 212.839844 149.917969 190.777344 151.351562 194.773438 143.941406 C 198.777344 136.527344 196.535156 131.332031 203.570312 133.007812 Z M 203.570312 133.007812 " fill-opacity="1" fill-rule="nonzero"/><g clip-path="url(#1d4e413697)"><path fill="#fdefe3" d="M 170.78125 204.394531 C 162.507812 209.578125 148.65625 201.730469 138.488281 193.136719 C 136.8125 191.71875 135.359375 190.050781 134.253906 188.296875 C 119.289062 187.835938 117.785156 177.304688 127.789062 171.320312 C 122.8125 173.148438 117.445312 173.003906 114.042969 172.023438 C 103.539062 169.011719 108.269531 153.199219 125.644531 151.007812 C 143.144531 148.800781 147.761719 158.382812 147.761719 158.382812 C 147.847656 155.300781 147.828125 151.964844 147.710938 148.398438 L 147.832031 148.394531 L 147.945312 152.296875 C 147.945312 152.296875 180.351562 171.707031 206.070312 172.015625 C 205.5 172.839844 204.984375 173.808594 204.582031 174.878906 C 203.117188 178.785156 203.613281 182.582031 205.691406 183.363281 C 207.773438 184.144531 210.648438 181.613281 212.109375 177.707031 C 212.941406 175.492188 213.144531 173.3125 212.78125 171.699219 C 213.101562 171.664062 213.417969 171.625 213.726562 171.582031 C 213.527344 173.214844 213.917969 175.339844 214.929688 177.449219 C 216.730469 181.207031 219.820312 183.476562 221.820312 182.519531 C 223.824219 181.558594 223.984375 177.730469 222.179688 173.972656 C 221.476562 172.5 220.578125 171.261719 219.621094 170.351562 C 233.210938 166.339844 234.996094 156.476562 235.042969 156.167969 C 235.09375 162.59375 233.96875 168.953125 231.65625 174.917969 C 230.695312 177.390625 229.53125 179.792969 228.164062 182.109375 C 224.460938 188.371094 217.398438 196.175781 207.835938 201.371094 C 204.457031 203.203125 200.769531 204.710938 196.800781 205.707031 C 193.601562 206.515625 190.226562 206.988281 186.691406 207.03125 C 181.800781 207.101562 176.605469 206.34375 171.15625 204.519531 C 171.035156 204.476562 170.90625 204.4375 170.78125 204.394531 Z M 170.78125 204.394531 " fill-opacity="1" fill-rule="nonzero"/></g><path fill="#fdefe3" d="M 147.710938 148.398438 C 147.460938 140.996094 146.78125 132.601562 145.722656 123.433594 C 144.96875 116.898438 144.804688 108.332031 147.480469 103.109375 L 147.53125 102.710938 C 147.582031 102.71875 147.636719 102.722656 147.6875 102.730469 C 156.175781 103.65625 174.25 99.226562 192.226562 103.222656 C 202.558594 105.519531 212.523438 109.386719 219.03125 108.800781 L 219.117188 109.726562 C 219.410156 110.347656 219.75 111.117188 220.085938 111.992188 C 222.535156 118.378906 225.4375 124.578125 228.59375 130.648438 C 228.605469 130.671875 228.621094 130.703125 228.636719 130.730469 L 228.636719 130.734375 C 230.761719 134.835938 232.359375 139.097656 233.429688 143.421875 C 233.429688 143.421875 233.429688 143.421875 233.429688 143.425781 C 233.398438 143.761719 231.570312 163.152344 205.980469 163.152344 C 180.171875 163.152344 147.6875 143.421875 147.6875 143.421875 L 147.832031 148.394531 Z M 214.21875 145.335938 C 215.59375 140.75 210.613281 134.6875 203.570312 133.007812 C 196.535156 131.332031 198.777344 136.527344 194.773438 143.941406 C 190.777344 151.351562 212.839844 149.917969 214.21875 145.335938 Z M 214.21875 145.335938 " fill-opacity="1" fill-rule="nonzero"/><path fill="#fd551b" d="M 147.832031 148.394531 L 147.6875 143.421875 C 147.6875 143.421875 180.171875 163.152344 205.980469 163.152344 C 231.570312 163.152344 233.398438 143.761719 233.429688 143.425781 C 233.433594 143.433594 233.4375 143.445312 233.4375 143.460938 C 233.449219 143.5 233.457031 143.542969 233.46875 143.582031 C 234.488281 147.75 235.015625 151.976562 235.042969 156.167969 C 234.996094 156.476562 233.210938 166.339844 219.621094 170.351562 C 220.578125 171.261719 221.476562 172.5 222.179688 173.972656 C 223.984375 177.730469 223.824219 181.558594 221.820312 182.519531 C 219.820312 183.476562 216.730469 181.207031 214.929688 177.449219 C 213.917969 175.339844 213.527344 173.214844 213.726562 171.582031 C 213.417969 171.625 213.101562 171.664062 212.78125 171.699219 C 213.144531 173.3125 212.941406 175.492188 212.109375 177.707031 C 210.648438 181.613281 207.773438 184.144531 205.691406 183.363281 C 203.613281 182.582031 203.117188 178.785156 204.582031 174.878906 C 204.984375 173.808594 205.5 172.839844 206.070312 172.015625 C 180.351562 171.707031 147.945312 152.296875 147.945312 152.296875 Z M 147.832031 148.394531 " fill-opacity="1" fill-rule="nonzero"/><path fill="#2c2a27" d="M 202.449219 150.285156 C 204.089844 150.285156 205.777344 150.136719 207.339844 149.878906 C 209.972656 149.445312 214.515625 148.316406 215.3125 145.664062 C 215.898438 143.710938 215.535156 141.4375 214.289062 139.273438 C 212.277344 135.78125 208.273438 132.957031 203.832031 131.894531 C 198.074219 130.523438 197.183594 133.589844 196.160156 137.140625 C 195.660156 138.878906 195.035156 141.042969 193.761719 143.398438 C 192.707031 145.355469 193.1875 146.753906 193.777344 147.578125 C 195.164062 149.523438 198.703125 150.285156 202.449219 150.285156 Z M 195.785156 144.488281 C 197.171875 141.917969 197.832031 139.625 198.367188 137.777344 C 199.421875 134.125 199.671875 133.261719 203.304688 134.125 C 207.152344 135.042969 210.601562 137.453125 212.308594 140.414062 C 213.238281 142.03125 213.527344 143.660156 213.121094 145.007812 C 212.917969 145.679688 211.113281 146.9375 206.96875 147.621094 C 201.867188 148.464844 196.789062 147.847656 195.644531 146.25 C 195.519531 146.070312 195.179688 145.601562 195.785156 144.488281 Z M 195.785156 144.488281 " fill-opacity="1" fill-rule="nonzero"/><g clip-path="url(#001ce3fe89)"><path fill="#2c2a27" d="M 262.300781 134.886719 C 260.203125 133.292969 259.207031 125.652344 258.96875 119.992188 C 260.4375 120.59375 261.894531 120.324219 263.113281 119.15625 C 263.871094 118.433594 264.242188 117.523438 264.183594 116.527344 C 264.082031 114.65625 262.46875 112.90625 261.480469 112 C 261.539062 111.894531 261.601562 111.789062 261.664062 111.683594 C 263.582031 108.402344 269.425781 98.421875 267.511719 87.410156 C 266.449219 81.277344 264.003906 76.371094 260.449219 73.214844 C 257.277344 70.402344 253.328125 69.074219 249.316406 69.464844 C 241.542969 70.222656 229.65625 76.378906 230.855469 89.660156 C 231.875 100.917969 241.019531 110.898438 243.902344 113.785156 C 243.566406 114.1875 243.207031 114.722656 242.929688 115.347656 C 239.027344 117.738281 235.191406 121.449219 232.625 124.179688 C 231.371094 125.511719 230.117188 126.945312 229.082031 128.210938 C 228.988281 128.328125 228.898438 128.441406 228.8125 128.546875 C 225.730469 122.503906 223.214844 116.933594 221.160156 111.574219 C 220.929688 110.976562 220.679688 110.378906 220.402344 109.757812 C 225.515625 108.789062 227.910156 104.835938 227.707031 97.710938 C 227.59375 93.757812 226.085938 90.710938 223.222656 88.664062 C 217.378906 84.476562 207.039062 85.5 200.210938 86.824219 C 204.332031 83.730469 209.121094 78.992188 209.25 73.59375 C 209.351562 69.394531 205.503906 65.484375 200.300781 64.5 C 193.726562 63.253906 185.046875 66.644531 178.824219 79.105469 C 179.03125 68.992188 178.691406 62.210938 174.722656 59.109375 C 171.964844 56.949219 167.628906 56.789062 161.078125 58.597656 C 151.523438 61.242188 145.847656 67.515625 142.765625 72.316406 C 138.941406 78.277344 137.007812 85.222656 137.457031 91.363281 C 137.941406 97.875 141.097656 102.332031 146.003906 103.574219 C 143.601562 109.230469 143.886719 117.46875 144.585938 123.550781 C 145.65625 132.84375 146.328125 141.210938 146.570312 148.425781 C 146.648438 150.757812 146.679688 152.984375 146.671875 155.078125 C 143.785156 152.199219 137.546875 148.339844 125.503906 149.859375 C 114.234375 151.28125 107.859375 158.253906 107.382812 164.40625 C 107.0625 168.5625 109.492188 171.898438 113.726562 173.113281 C 115.957031 173.753906 119.375 174.128906 123.09375 173.632812 C 120.746094 176.222656 119.78125 179.199219 120.507812 181.996094 C 121.628906 186.300781 126.511719 189.046875 133.625 189.40625 C 134.753906 191.078125 136.167969 192.65625 137.75 193.996094 C 141.929688 197.53125 154.304688 207.183594 164.578125 207.183594 C 166.523438 207.183594 168.390625 206.828125 170.117188 206.03125 C 170.679688 211.789062 173.40625 216.5625 177.730469 219.261719 C 180.050781 220.707031 182.632812 221.4375 185.253906 221.4375 C 187.292969 221.4375 189.355469 220.996094 191.332031 220.109375 C 193.742188 219.023438 195.015625 217.535156 195.136719 215.675781 C 195.316406 212.769531 192.402344 209.851562 190.054688 207.992188 C 192.160156 207.804688 194.25 207.472656 196.3125 206.988281 C 200.140625 209.1875 208.578125 213.660156 213.949219 213.660156 C 214.96875 213.660156 215.882812 213.496094 216.628906 213.125 C 217.5 212.695312 218.582031 211.777344 218.824219 209.867188 C 219.125 207.476562 218.570312 205.453125 217.171875 203.847656 C 215.59375 202.03125 213.230469 201.125 211.28125 200.671875 C 218.558594 196.085938 225.101562 189.539062 229.160156 182.679688 C 230.492188 180.425781 231.65625 178.046875 232.621094 175.597656 C 240.738281 168.902344 248.390625 158.078125 253.203125 146.507812 C 254.339844 146.027344 255.386719 145.265625 256.160156 144.382812 C 257.242188 145.660156 258.464844 146.125 259.402344 146.277344 C 261.164062 146.554688 263.125 145.855469 264.515625 144.449219 C 265.578125 143.378906 266.105469 142 266.003906 140.566406 C 265.898438 139.195312 265.175781 137.082031 262.300781 134.886719 Z M 233.132812 89.457031 C 231.945312 76.363281 244.570312 72.234375 249.535156 71.75 C 255.398438 71.175781 263.035156 75.035156 265.25 87.800781 C 267.019531 97.988281 261.496094 107.425781 259.679688 110.527344 C 259.050781 111.601562 258.882812 111.890625 258.898438 112.328125 C 258.914062 112.671875 259.078125 112.992188 259.347656 113.195312 C 260.152344 113.808594 261.828125 115.460938 261.894531 116.65625 C 261.90625 116.875 261.875 117.167969 261.527344 117.503906 C 261.1875 117.828125 260.296875 118.683594 258.574219 116.976562 C 258.285156 116.691406 258.105469 116.457031 258.105469 116.457031 C 257.816406 116.058594 257.300781 115.898438 256.835938 116.050781 C 256.367188 116.199219 256.050781 116.636719 256.042969 117.125 C 256.042969 117.234375 255.972656 119.761719 253.753906 120.601562 C 252.527344 121.0625 251.6875 119.644531 251.199219 118.371094 C 251.0625 118.015625 250.996094 117.765625 250.996094 117.765625 C 250.875 117.300781 250.480469 116.960938 250.003906 116.914062 C 249.964844 116.910156 249.925781 116.90625 249.886719 116.90625 C 249.453125 116.90625 249.050781 117.15625 248.855469 117.550781 C 248.398438 118.496094 247.347656 119.933594 246.550781 120.019531 C 246.238281 120.054688 245.890625 119.820312 245.503906 119.332031 C 244.773438 118.398438 244.582031 117.480469 244.921875 116.519531 C 245.3125 115.429688 246.238281 114.671875 246.242188 114.667969 C 246.503906 114.457031 246.664062 114.144531 246.675781 113.8125 C 246.6875 113.476562 246.554688 113.152344 246.304688 112.929688 C 246.175781 112.816406 234.238281 101.6875 233.132812 89.457031 Z M 139.742188 91.210938 C 138.894531 79.75 147.046875 64.867188 161.683594 60.820312 C 167.472656 59.21875 171.164062 59.253906 173.304688 60.925781 C 176.949219 63.773438 176.734375 71.722656 176.40625 83.753906 L 176.375 85.03125 C 176.359375 85.589844 176.753906 86.082031 177.304688 86.1875 C 177.859375 86.292969 178.402344 85.980469 178.59375 85.453125 C 184.316406 69.785156 193.335938 65.523438 199.863281 66.761719 C 203.976562 67.542969 207.027344 70.457031 206.949219 73.546875 C 206.765625 81.398438 193.8125 88.261719 193.289062 88.539062 C 192.910156 88.726562 192.644531 89.113281 192.644531 89.570312 C 192.644531 90.203125 193.15625 90.714844 193.789062 90.714844 C 193.917969 90.714844 194.042969 90.691406 194.164062 90.652344 C 195.046875 90.386719 213.894531 84.820312 221.878906 90.542969 C 224.160156 92.175781 225.316406 94.546875 225.40625 97.792969 C 225.640625 105.960938 222.257812 107.367188 218.925781 107.667969 C 214.730469 108.042969 208.707031 106.390625 202.328125 104.640625 C 199.140625 103.765625 195.84375 102.859375 192.472656 102.113281 C 186.574219 100.800781 180.730469 100.378906 175.1875 100.378906 C 169.628906 100.378906 164.378906 100.804688 159.703125 101.183594 C 154.867188 101.578125 150.691406 101.914062 147.824219 101.605469 L 147.664062 101.585938 C 143.074219 101.007812 140.183594 97.230469 139.742188 91.210938 Z M 148.351562 103.9375 C 151.371094 104.148438 155.34375 103.828125 159.890625 103.460938 C 169.070312 102.71875 180.496094 101.792969 191.976562 104.34375 C 195.292969 105.078125 198.5625 105.976562 201.722656 106.84375 C 207.863281 108.53125 213.253906 110.011719 217.621094 110.011719 C 217.75 110.011719 217.875 110.003906 218.003906 110.003906 C 218.019531 110.074219 218.046875 110.144531 218.078125 110.21875 C 218.429688 110.972656 218.734375 111.691406 219.011719 112.40625 C 221.273438 118.3125 224.074219 124.453125 227.566406 131.164062 L 227.605469 131.246094 C 227.605469 131.246094 227.605469 131.25 227.609375 131.25 C 227.613281 131.253906 227.613281 131.261719 227.617188 131.261719 C 229.644531 135.175781 231.207031 139.292969 232.265625 143.503906 C 232.152344 144.402344 231.460938 148.605469 228.375 152.730469 C 223.765625 158.886719 216.230469 162.007812 205.980469 162.007812 C 182.097656 162.007812 151.929688 144.601562 148.589844 142.628906 C 148.246094 136.769531 147.667969 130.296875 146.863281 123.304688 C 146.292969 118.375 145.75 109.386719 148.351562 103.9375 Z M 233.28125 148.535156 C 233.667969 151.046875 233.871094 153.566406 233.894531 156.070312 C 233.703125 156.996094 231.570312 165.632812 219.296875 169.257812 C 218.902344 169.371094 218.601562 169.6875 218.507812 170.085938 C 218.410156 170.484375 218.53125 170.902344 218.832031 171.1875 C 219.726562 172.039062 220.527344 173.175781 221.148438 174.472656 C 222.21875 176.695312 222.574219 179.078125 222.0625 180.53125 C 221.894531 181.015625 221.648438 181.335938 221.324219 181.488281 C 220.765625 181.753906 219.910156 181.515625 218.980469 180.832031 C 217.84375 179.996094 216.746094 178.582031 215.964844 176.953125 C 215.085938 175.117188 214.683594 173.207031 214.867188 171.722656 C 214.90625 171.367188 214.785156 171.015625 214.53125 170.765625 C 214.277344 170.515625 213.921875 170.398438 213.570312 170.449219 C 213.273438 170.492188 212.964844 170.527344 212.65625 170.5625 C 212.332031 170.597656 212.039062 170.773438 211.847656 171.039062 C 211.660156 171.300781 211.59375 171.632812 211.664062 171.949219 C 211.988281 173.421875 211.765625 175.375 211.039062 177.308594 C 209.75 180.742188 207.367188 182.765625 206.09375 182.292969 C 204.824219 181.8125 204.367188 178.714844 205.652344 175.285156 C 206.011719 174.339844 206.464844 173.460938 207.011719 172.671875 C 207.25 172.324219 207.28125 171.871094 207.085938 171.492188 C 206.894531 171.117188 206.507812 170.878906 206.082031 170.875 C 182.761719 170.59375 153.394531 154.128906 149.074219 151.632812 L 148.894531 145.460938 C 156.128906 149.617188 183.316406 164.300781 205.980469 164.300781 C 219.695312 164.300781 226.726562 158.757812 230.207031 154.105469 C 231.65625 152.164062 232.628906 150.21875 233.28125 148.535156 Z M 122.722656 181.429688 C 121.925781 178.363281 124.089844 174.867188 128.378906 172.300781 C 128.886719 171.996094 129.078125 171.359375 128.824219 170.824219 C 128.566406 170.289062 127.949219 170.039062 127.390625 170.242188 C 122.40625 172.074219 117.253906 171.753906 114.355469 170.917969 C 111.136719 169.996094 109.425781 167.691406 109.667969 164.59375 C 110.070312 159.367188 115.734375 153.414062 125.785156 152.144531 C 140.878906 150.238281 145.785156 157.265625 146.601562 158.660156 C 146.40625 164.800781 145.78125 169.804688 144.730469 173.550781 C 137.421875 172.726562 133.921875 174.601562 132.257812 176.730469 C 130.257812 179.289062 130.273438 183.035156 132.21875 187.015625 C 127 186.460938 123.5 184.4375 122.722656 181.429688 Z M 192.839844 215.546875 C 192.78125 216.488281 191.957031 217.328125 190.386719 218.03125 C 186.574219 219.75 182.398438 219.492188 178.9375 217.332031 C 175.304688 215.0625 172.984375 211.03125 172.429688 206.121094 C 176.996094 207.492188 181.578125 208.183594 186.085938 208.183594 C 186.179688 208.183594 186.265625 208.183594 186.359375 208.183594 C 189.046875 209.882812 192.984375 213.226562 192.839844 215.546875 Z M 215.433594 205.371094 C 216.398438 206.480469 216.757812 207.859375 216.539062 209.589844 C 216.414062 210.5625 215.972656 210.898438 215.59375 211.085938 C 212.894531 212.429688 205.628906 209.464844 199.472656 206.140625 C 202.40625 205.234375 205.292969 204.027344 208.089844 202.53125 C 209.195312 202.59375 213.375 202.996094 215.433594 205.371094 Z M 227.175781 181.527344 C 222.789062 188.941406 215.351562 195.984375 207.285156 200.367188 C 203.808594 202.25 200.1875 203.675781 196.515625 204.597656 C 193.285156 205.414062 189.972656 205.847656 186.671875 205.886719 C 182.238281 205.953125 177.71875 205.300781 173.195312 203.957031 C 174.992188 202.257812 176.382812 199.90625 177.339844 196.929688 C 180.382812 187.5 177.730469 180.949219 174.972656 177.117188 C 171.988281 172.96875 168.304688 171.078125 168.152344 171 C 167.585938 170.714844 166.898438 170.9375 166.613281 171.503906 C 166.328125 172.070312 166.554688 172.761719 167.121094 173.042969 C 167.152344 173.0625 170.457031 174.757812 173.117188 178.453125 C 176.679688 183.40625 177.367188 189.390625 175.164062 196.230469 C 174.074219 199.609375 172.394531 202.027344 170.171875 203.425781 C 162.660156 208.132812 149.261719 200.746094 139.226562 192.261719 C 137.660156 190.9375 136.277344 189.355469 135.222656 187.6875 C 132.84375 183.933594 132.402344 180.273438 134.070312 178.140625 C 136.765625 174.6875 144.75 174.847656 155.972656 178.574219 C 156.574219 178.773438 157.222656 178.449219 157.421875 177.84375 C 157.621094 177.246094 157.296875 176.59375 156.695312 176.398438 C 152.957031 175.15625 149.761719 174.355469 147.023438 173.882812 C 148.089844 169.925781 148.726562 164.730469 148.90625 158.421875 C 148.945312 157.082031 148.960938 155.671875 148.960938 154.210938 C 155.671875 158.03125 181.730469 172.058594 204.105469 173.105469 C 203.886719 173.550781 203.683594 174.007812 203.507812 174.480469 C 201.765625 179.121094 202.53125 183.402344 205.289062 184.441406 C 205.667969 184.582031 206.058594 184.648438 206.460938 184.648438 C 208.933594 184.648438 211.707031 182.042969 213.183594 178.113281 C 213.304688 177.78125 213.421875 177.441406 213.523438 177.105469 C 213.636719 177.386719 213.761719 177.667969 213.894531 177.945312 C 214.84375 179.929688 216.167969 181.613281 217.621094 182.679688 C 219.28125 183.902344 220.945312 184.210938 222.3125 183.554688 C 223.1875 183.132812 223.84375 182.351562 224.222656 181.289062 C 224.949219 179.226562 224.570312 176.304688 223.210938 173.476562 C 222.765625 172.542969 222.234375 171.675781 221.640625 170.902344 C 227.941406 168.675781 231.542969 165.210938 233.582031 162.21875 C 233.113281 166.453125 232.109375 170.566406 230.582031 174.503906 C 229.644531 176.933594 228.496094 179.292969 227.175781 181.527344 Z M 234.125 171.179688 C 235.527344 166.378906 236.222656 161.371094 236.191406 156.234375 C 236.191406 156.226562 236.191406 156.222656 236.191406 156.214844 C 236.433594 151 234.894531 144.546875 234.582031 143.308594 L 234.582031 143.304688 L 234.550781 143.183594 C 234.550781 143.179688 234.550781 143.179688 234.550781 143.175781 C 234.546875 143.15625 234.542969 143.144531 234.535156 143.125 C 233.484375 138.894531 231.941406 134.753906 229.953125 130.808594 C 231.328125 128.945312 236.84375 122.371094 242.550781 118.347656 C 242.695312 119.101562 243.039062 119.917969 243.699219 120.753906 C 244.828125 122.191406 246.007812 122.390625 246.796875 122.304688 C 247.71875 122.203125 248.523438 121.660156 249.171875 121.023438 C 250.027344 125.125 251.019531 132.214844 249.25 134.777344 C 246.359375 138.957031 245.242188 141.703125 247.15625 145.09375 C 247.851562 146.316406 249.042969 146.996094 250.472656 147.058594 C 246.402344 156.335938 240.515625 165.003906 234.125 171.179688 Z M 262.878906 142.847656 C 261.996094 143.738281 260.800781 144.191406 259.75 144.027344 C 258.699219 143.859375 257.832031 143.105469 257.164062 141.78125 C 256.960938 141.378906 256.539062 141.132812 256.089844 141.148438 C 255.636719 141.167969 255.242188 141.449219 255.074219 141.871094 C 254.644531 142.945312 253.328125 144.074219 251.949219 144.546875 C 251.921875 144.554688 251.898438 144.5625 251.875 144.574219 C 251.09375 144.832031 249.769531 145.054688 249.148438 143.960938 C 247.921875 141.792969 248.347656 140.101562 251.128906 136.082031 C 253.167969 133.125 252.550781 126.878906 251.820312 122.675781 C 252.269531 122.890625 252.738281 123 253.226562 123 C 253.65625 123 254.097656 122.917969 254.550781 122.75 C 255.496094 122.390625 256.203125 121.867188 256.734375 121.277344 C 257.011719 126.140625 257.921875 134.441406 260.90625 136.710938 C 262.625 138.019531 263.617188 139.449219 263.707031 140.738281 C 263.761719 141.527344 263.484375 142.238281 262.878906 142.847656 Z M 262.878906 142.847656 " fill-opacity="1" fill-rule="nonzero"/></g><path fill="#2c2a27" d="M 193.113281 123.671875 C 194.261719 127.84375 192.53125 131.953125 189.253906 132.855469 C 185.976562 133.753906 182.390625 131.101562 181.242188 126.929688 C 180.097656 122.757812 181.828125 118.648438 185.105469 117.75 C 188.386719 116.851562 191.972656 119.503906 193.113281 123.671875 Z M 193.113281 123.671875 " fill-opacity="1" fill-rule="nonzero"/><path fill="#2c2a27" d="M 215.433594 121.144531 C 215.800781 125.453125 213.359375 129.183594 209.972656 129.476562 C 206.585938 129.765625 203.539062 126.507812 203.167969 122.199219 C 202.796875 117.890625 205.242188 114.160156 208.628906 113.867188 C 212.011719 113.578125 215.058594 116.835938 215.433594 121.144531 Z M 215.433594 121.144531 " fill-opacity="1" fill-rule="nonzero"/><g fill="#ff650e" fill-opacity="1"><g transform="translate(77.374027, 234.805146)"><g><path d="M 17.359375 -0.765625 C 19.367188 -0.921875 20.984375 -1.695312 22.203125 -3.09375 C 23.421875 -4.488281 23.992188 -6.375 23.921875 -8.75 L 23.34375 -17.625 L 22.671875 -25.734375 C 22.472656 -28.453125 22.40625 -30.207031 22.46875 -31 C 22.457031 -31.476562 22.578125 -31.8125 22.828125 -32 C 23.078125 -32.1875 23.273438 -32.285156 23.421875 -32.296875 C 24.484375 -32.367188 25.644531 -32.503906 26.90625 -32.703125 C 28.164062 -32.910156 29.253906 -33.304688 30.171875 -33.890625 C 32.285156 -35.328125 33.222656 -37.664062 32.984375 -40.90625 C 32.847656 -42.78125 32.242188 -44.164062 31.171875 -45.0625 C 30.109375 -45.96875 28.957031 -46.539062 27.71875 -46.78125 C 26.488281 -47.03125 25.503906 -47.128906 24.765625 -47.078125 L 5.5625 -45.671875 C 3.613281 -45.523438 1.769531 -44.976562 0.03125 -44.03125 C -2.59375 -42.625 -3.796875 -40.425781 -3.578125 -37.4375 C -3.460938 -35.863281 -2.847656 -34.523438 -1.734375 -33.421875 C -0.617188 -32.328125 0.484375 -31.613281 1.578125 -31.28125 C 2.148438 -31.101562 2.769531 -30.992188 3.4375 -30.953125 C 4.101562 -30.910156 5.132812 -30.941406 6.53125 -31.046875 C 6.894531 -31.078125 7.273438 -31.046875 7.671875 -30.953125 C 8.078125 -30.867188 8.3125 -30.613281 8.375 -30.1875 C 9 -25.1875 9.632812 -18.328125 10.28125 -9.609375 L 10.453125 -7.203125 C 10.453125 -7.160156 10.550781 -6.785156 10.75 -6.078125 C 10.945312 -5.367188 11.300781 -4.59375 11.8125 -3.75 C 12.320312 -2.90625 13.019531 -2.171875 13.90625 -1.546875 C 14.800781 -0.929688 15.953125 -0.671875 17.359375 -0.765625 Z M 17.359375 -0.765625 "/></g></g></g><g fill="#ff650e" fill-opacity="1"><g transform="translate(110.628385, 232.360974)"><g><path d="M 8.453125 0.28125 C 10.210938 0.144531 11.859375 -0.457031 13.390625 -1.53125 C 14.921875 -2.601562 15.703125 -4.195312 15.734375 -6.3125 C 15.628906 -8.125 15.53125 -9.632812 15.4375 -10.84375 C 15.351562 -12.050781 15.316406 -12.960938 15.328125 -13.578125 C 15.335938 -14.191406 15.488281 -14.507812 15.78125 -14.53125 L 17.78125 -14.734375 C 18.101562 -14.765625 18.3125 -14.753906 18.40625 -14.703125 C 18.507812 -14.648438 18.566406 -14.550781 18.578125 -14.40625 L 18.71875 -12.53125 C 18.945312 -9.332031 19.210938 -7 19.515625 -5.53125 C 19.910156 -3.9375 20.785156 -2.769531 22.140625 -2.03125 C 23.492188 -1.300781 24.957031 -1 26.53125 -1.125 C 27.632812 -1.195312 28.707031 -1.515625 29.75 -2.078125 C 32.019531 -3.273438 33.054688 -5.210938 32.859375 -7.890625 C 32.410156 -14.035156 32.078125 -19.0625 31.859375 -22.96875 C 31.648438 -26.28125 31.304688 -31.226562 30.828125 -37.8125 C 30.648438 -40.164062 30.144531 -41.960938 29.3125 -43.203125 C 27.832031 -45.421875 25.707031 -46.425781 22.9375 -46.21875 C 21.84375 -46.132812 20.875 -45.898438 20.03125 -45.515625 C 19.1875 -45.140625 18.613281 -44.765625 18.3125 -44.390625 C 17.570312 -43.296875 17.15625 -41.976562 17.0625 -40.4375 C 16.976562 -38.894531 16.988281 -37.425781 17.09375 -36.03125 L 17.75 -28.703125 C 17.90625 -26.492188 17.800781 -25.375 17.4375 -25.34375 L 15.734375 -25.171875 C 15.222656 -25.140625 14.90625 -25.179688 14.78125 -25.296875 C 14.65625 -25.421875 14.578125 -25.6875 14.546875 -26.09375 L 13.96875 -35.46875 L 13.671875 -38.875 C 13.546875 -40.5 13.023438 -41.785156 12.109375 -42.734375 C 11.191406 -43.679688 10.082031 -44.335938 8.78125 -44.703125 C 7.476562 -45.066406 6.203125 -45.207031 4.953125 -45.125 C 3.191406 -44.988281 1.8125 -44.117188 0.8125 -42.515625 C -0.175781 -40.910156 -0.613281 -38.816406 -0.5 -36.234375 L 0.78125 -15.96875 C 0.96875 -13.726562 1.179688 -11.007812 1.421875 -7.8125 C 1.554688 -5.96875 1.753906 -4.539062 2.015625 -3.53125 C 2.273438 -2.519531 2.800781 -1.648438 3.59375 -0.921875 C 4.875 0.015625 6.492188 0.414062 8.453125 0.28125 Z M 8.453125 0.28125 "/></g></g></g><g fill="#ff650e" fill-opacity="1"><g transform="translate(144.103333, 229.900588)"><g><path d="M 4.71875 0.15625 C 6.1875 0.0507812 7.441406 -0.492188 8.484375 -1.484375 C 9.523438 -2.472656 10.335938 -3.742188 10.921875 -5.296875 C 10.972656 -5.515625 11.066406 -5.703125 11.203125 -5.859375 C 11.347656 -6.023438 11.878906 -6.140625 12.796875 -6.203125 L 16.890625 -6.453125 L 21.46875 -6.796875 C 22.351562 -6.859375 22.992188 -6.472656 23.390625 -5.640625 C 24.179688 -4.304688 25.171875 -3.335938 26.359375 -2.734375 C 27.546875 -2.140625 28.734375 -1.890625 29.921875 -1.984375 C 31.023438 -2.054688 32.015625 -2.382812 32.890625 -2.96875 C 33.773438 -3.550781 34.4375 -4.363281 34.875 -5.40625 C 35.1875 -6.195312 35.316406 -6.976562 35.265625 -7.75 C 35.191406 -8.707031 34.742188 -10.039062 33.921875 -11.75 C 32.773438 -14.1875 30.804688 -18.796875 28.015625 -25.578125 C 26.035156 -30.273438 24.320312 -34.222656 22.875 -37.421875 C 21.425781 -40.617188 20.175781 -42.796875 19.125 -43.953125 C 17.644531 -45.347656 16.003906 -45.976562 14.203125 -45.84375 C 12.648438 -45.726562 11.300781 -45.046875 10.15625 -43.796875 C 9.945312 -43.554688 9.757812 -43.300781 9.59375 -43.03125 C 9.269531 -42.476562 8.695312 -40.929688 7.875 -38.390625 C 7.476562 -37.265625 4.3125 -27.257812 -1.625 -8.375 C -1.914062 -7.394531 -2.023438 -6.425781 -1.953125 -5.46875 C -1.867188 -4.28125 -1.507812 -3.125 -0.875 -2 C -0.320312 -1.070312 0.300781 -0.492188 1 -0.265625 C 1.707031 -0.046875 2.375 0.078125 3 0.109375 L 3.4375 0.140625 C 3.882812 0.179688 4.3125 0.1875 4.71875 0.15625 Z M 16.0625 -17.640625 C 15.4375 -17.597656 15.117188 -17.65625 15.109375 -17.8125 C 15.265625 -18.1875 15.484375 -18.679688 15.765625 -19.296875 C 16.054688 -19.910156 16.28125 -20.460938 16.4375 -20.953125 C 16.550781 -20.960938 16.644531 -20.953125 16.71875 -20.921875 C 17.070312 -20.054688 17.414062 -19.359375 17.75 -18.828125 C 18.007812 -18.441406 18.144531 -18.175781 18.15625 -18.03125 C 18.15625 -17.945312 18.113281 -17.90625 18.03125 -17.90625 Z M 16.0625 -17.640625 "/></g></g></g><g fill="#ff650e" fill-opacity="1"><g transform="translate(176.585589, 227.513165)"><g><path d="M 34.34375 -1.296875 C 36.375 -1.441406 37.832031 -2.113281 38.71875 -3.3125 C 39.613281 -4.507812 40.125 -6.453125 40.25 -9.140625 C 40.382812 -11.828125 40.285156 -15.472656 39.953125 -20.078125 C 39.492188 -26.285156 39.171875 -30.476562 38.984375 -32.65625 L 38.421875 -40.859375 C 38.304688 -42.378906 37.507812 -43.773438 36.03125 -45.046875 C 34.5625 -46.316406 32.832031 -46.878906 30.84375 -46.734375 C 27.269531 -46.472656 25.085938 -44.488281 24.296875 -40.78125 C 23.847656 -38.664062 23.769531 -34.882812 24.0625 -29.4375 C 24.132812 -28.445312 23.898438 -27.878906 23.359375 -27.734375 C 23.109375 -27.710938 22.78125 -27.921875 22.375 -28.359375 L 20.734375 -30.296875 C 14.234375 -38.222656 10.164062 -42.753906 8.53125 -43.890625 C 7.332031 -44.609375 6.019531 -44.914062 4.59375 -44.8125 C 3.664062 -44.738281 2.789062 -44.441406 1.96875 -43.921875 C 1.15625 -43.410156 0.515625 -42.597656 0.046875 -41.484375 C -0.421875 -40.378906 -0.601562 -38.90625 -0.5 -37.0625 C -0.539062 -37.0625 -0.46875 -35.71875 -0.28125 -33.03125 C -0.101562 -30.34375 0.101562 -27.1875 0.34375 -23.5625 C 0.59375 -19.945312 0.828125 -16.707031 1.046875 -13.84375 C 1.335938 -9.800781 1.503906 -7.78125 1.546875 -7.78125 C 1.628906 -6.707031 1.882812 -5.476562 2.3125 -4.09375 C 3.363281 -0.738281 5.691406 0.804688 9.296875 0.546875 C 11.585938 0.378906 13.238281 -0.453125 14.25 -1.953125 C 15.269531 -3.453125 15.710938 -5.101562 15.578125 -6.90625 C 15.460938 -8.488281 15.378906 -10.875 15.328125 -14.0625 L 15.296875 -14.34375 C 15.285156 -14.519531 15.332031 -14.738281 15.4375 -15 C 15.550781 -15.269531 15.703125 -15.414062 15.890625 -15.4375 C 16.035156 -15.445312 16.1875 -15.382812 16.34375 -15.25 C 17.863281 -13.875 19.269531 -12.34375 20.5625 -10.65625 L 22.390625 -8.53125 C 23.648438 -6.988281 25.347656 -5.398438 27.484375 -3.765625 C 29.617188 -2.128906 31.90625 -1.304688 34.34375 -1.296875 Z M 34.34375 -1.296875 "/></g></g></g><g fill="#ff650e" fill-opacity="1"><g transform="translate(217.946915, 224.473135)"><g><path d="M 29.546875 -1.84375 C 31.046875 -1.945312 32.335938 -2.539062 33.421875 -3.625 C 34.515625 -4.707031 35 -6.070312 34.875 -7.71875 C 34.726562 -9.707031 33.675781 -11.703125 31.71875 -13.703125 C 29.320312 -15.660156 27.351562 -17.304688 25.8125 -18.640625 L 23.625 -20.5 C 22.40625 -21.457031 21.785156 -22.082031 21.765625 -22.375 C 21.773438 -22.613281 21.851562 -22.828125 22 -23.015625 L 27.09375 -29.21875 C 30.132812 -32.582031 32.082031 -35.445312 32.9375 -37.8125 C 33.226562 -38.832031 33.34375 -39.816406 33.28125 -40.765625 C 33.132812 -42.648438 32.414062 -44.207031 31.125 -45.4375 C 29.832031 -46.675781 28.4375 -47.238281 26.9375 -47.125 C 25.832031 -47.039062 24.804688 -46.546875 23.859375 -45.640625 C 22.910156 -44.742188 21.492188 -43.226562 19.609375 -41.09375 L 13.125 -33.515625 C 13.070312 -34.210938 13 -34.894531 12.90625 -35.5625 L 12.828125 -36.5625 C 12.753906 -37.59375 12.632812 -38.742188 12.46875 -40.015625 C 12.363281 -41.484375 11.597656 -42.773438 10.171875 -43.890625 C 8.742188 -45.003906 7.15625 -45.535156 5.40625 -45.484375 C 4.09375 -45.390625 2.910156 -44.804688 1.859375 -43.734375 C 0.804688 -42.660156 0.132812 -41.40625 -0.15625 -39.96875 C -0.53125 -37.539062 -0.421875 -32.242188 0.171875 -24.078125 C 0.429688 -20.585938 0.6875 -17.335938 0.9375 -14.328125 L 1.4375 -8.375 C 2.21875 -2.726562 4.539062 -0.046875 8.40625 -0.328125 L 9.296875 -0.359375 C 10.734375 -0.460938 11.972656 -1.082031 13.015625 -2.21875 C 14.054688 -3.351562 14.507812 -4.851562 14.375 -6.71875 C 14.332031 -7.164062 14.273438 -7.609375 14.203125 -8.046875 C 14.140625 -8.484375 14.09375 -8.941406 14.0625 -9.421875 L 14.03125 -10.453125 L 14.140625 -10.515625 L 25.125 -3.078125 C 26.632812 -2.148438 28.109375 -1.738281 29.546875 -1.84375 Z M 29.546875 -1.84375 "/></g></g></g><g fill="#ff650e" fill-opacity="1"><g transform="translate(251.807922, 221.984375)"><g><path d="M 14.671875 -0.25 C 18.785156 -0.664062 22.101562 -1.675781 24.625 -3.28125 C 27.15625 -4.882812 28.960938 -6.851562 30.046875 -9.1875 C 31.128906 -11.53125 31.585938 -13.898438 31.421875 -16.296875 C 31.210938 -19.054688 30.25 -21.609375 28.53125 -23.953125 C 26.425781 -26.742188 23.410156 -28.5 19.484375 -29.21875 C 18.109375 -29.445312 16.800781 -29.847656 15.5625 -30.421875 C 14.332031 -31.003906 13.601562 -32.0625 13.375 -33.59375 C 13.394531 -33.957031 13.523438 -34.296875 13.765625 -34.609375 C 14.003906 -34.929688 14.25 -35.101562 14.5 -35.125 C 14.832031 -35.0625 15.113281 -34.78125 15.34375 -34.28125 C 15.570312 -33.78125 16.085938 -33.046875 16.890625 -32.078125 C 17.972656 -30.828125 19.398438 -30.265625 21.171875 -30.390625 C 22.160156 -30.460938 23.085938 -30.769531 23.953125 -31.3125 C 24.816406 -31.863281 25.457031 -32.601562 25.875 -33.53125 C 26.289062 -34.46875 26.460938 -35.4375 26.390625 -36.4375 C 26.273438 -37.945312 25.707031 -39.394531 24.6875 -40.78125 C 23.675781 -42.164062 22.390625 -43.300781 20.828125 -44.1875 C 18.398438 -45.40625 15.828125 -45.914062 13.109375 -45.71875 C 9.984375 -45.488281 7.0625 -44.332031 4.34375 -42.25 C 1.632812 -40.164062 -0.125 -37.148438 -0.9375 -33.203125 C -1.113281 -32.160156 -1.171875 -31.195312 -1.109375 -30.3125 C -0.773438 -25.707031 2.671875 -22.0625 9.234375 -19.375 C 9.953125 -19.019531 10.453125 -18.757812 10.734375 -18.59375 C 13.117188 -17.21875 14.347656 -16.019531 14.421875 -15 C 14.441406 -14.625 14.320312 -14.320312 14.0625 -14.09375 C 13.800781 -13.875 13.492188 -13.75 13.140625 -13.71875 C 12.585938 -13.675781 12.070312 -13.878906 11.59375 -14.328125 C 9.050781 -16.660156 6.785156 -17.753906 4.796875 -17.609375 C 3.285156 -17.492188 2.046875 -16.835938 1.078125 -15.640625 C 0.117188 -14.441406 -0.289062 -12.941406 -0.15625 -11.140625 C 0.0507812 -8.265625 1.703125 -5.460938 4.796875 -2.734375 C 6.597656 -1.316406 9.171875 -0.507812 12.515625 -0.3125 C 13.742188 -0.25 14.460938 -0.226562 14.671875 -0.25 Z M 14.671875 -0.25 "/></g></g></g><g fill="#ff650e" fill-opacity="1"><g transform="translate(282.249643, 219.746929)"><g><path d="M 6.9375 -13.484375 C 8.40625 -13.585938 9.75 -14.1875 10.96875 -15.28125 C 12.1875 -16.375 12.988281 -17.707031 13.375 -19.28125 C 13.664062 -20.457031 13.8125 -21.65625 13.8125 -22.875 C 13.8125 -24.09375 13.757812 -25.914062 13.65625 -28.34375 L 13.515625 -31.828125 L 13.46875 -31.828125 L 13.21875 -35.078125 C 13.070312 -37.140625 12.789062 -39.171875 12.375 -41.171875 C 11.96875 -43.179688 11.226562 -44.820312 10.15625 -46.09375 C 9.09375 -47.363281 7.472656 -47.914062 5.296875 -47.75 L 4.875 -47.71875 C 1.175781 -47.226562 -0.78125 -44.71875 -1 -40.1875 C -1.082031 -38.226562 -1.085938 -35.726562 -1.015625 -32.6875 C -0.898438 -28.632812 -0.765625 -25.5625 -0.609375 -23.46875 C -0.453125 -21.363281 -0.191406 -19.71875 0.171875 -18.53125 C 0.535156 -17.34375 1.171875 -16.296875 2.078125 -15.390625 C 3.515625 -13.984375 5.132812 -13.347656 6.9375 -13.484375 Z M 8.84375 6.125 C 9.96875 6.039062 11.046875 5.691406 12.078125 5.078125 C 13.109375 4.460938 13.9375 3.613281 14.5625 2.53125 C 15.269531 1.15625 15.566406 -0.285156 15.453125 -1.796875 C 15.359375 -3.128906 14.914062 -4.363281 14.125 -5.5 C 13.34375 -6.644531 12.195312 -7.460938 10.6875 -7.953125 C 9.5 -8.347656 8.359375 -8.503906 7.265625 -8.421875 C 6.410156 -8.359375 5.578125 -8.09375 4.765625 -7.625 C 3.453125 -6.738281 2.492188 -5.664062 1.890625 -4.40625 C 1.285156 -3.144531 1.03125 -1.847656 1.125 -0.515625 C 1.25 1.210938 1.972656 2.78125 3.296875 4.1875 C 4.992188 5.625 6.84375 6.269531 8.84375 6.125 Z M 8.84375 6.125 "/></g></g></g><path stroke-linecap="butt" transform="matrix(0.924212, -0.067929, 0.067929, 0.924212, 62.437179, 177.36308)" fill="none" stroke-linejoin="miter" d="M 30.267069 63.539712 C 32.452207 63.539708 34.249581 62.834953 35.659189 61.425445 C 37.077824 60.008148 37.848924 58.027615 37.977004 55.479953 L 38.03285 45.864379 L 37.975835 37.094277 C 37.976489 34.152631 38.035039 32.26343 38.151485 31.426674 C 38.18949 30.909599 38.345764 30.566053 38.616413 30.391523 C 38.9006 30.205309 39.122722 30.11597 39.287599 30.115409 C 40.433026 30.115065 41.692696 30.055494 43.062098 29.940589 C 44.440216 29.822098 45.648505 29.484022 46.687582 28.917955 C 49.067786 27.529066 50.257589 25.084799 50.257608 21.576746 C 50.258783 19.548077 49.721077 18.008123 48.640284 16.956574 C 47.572721 15.897544 46.381897 15.19294 45.072015 14.84307 C 43.762751 14.484792 42.70659 14.305727 41.911938 14.306493 L 21.134208 14.305137 C 19.025048 14.306498 16.997877 14.744996 15.057207 15.616735 C 12.111952 16.93028 10.643515 19.197685 10.643179 22.422535 C 10.644466 24.130165 11.194289 25.620291 12.305257 26.893839 C 13.420429 28.167697 14.558091 29.020551 15.713422 29.460499 C 16.304256 29.702574 16.959506 29.873305 17.67948 29.968488 C 18.399146 30.067875 19.511438 30.115815 21.016046 30.116512 C 21.413372 30.116129 21.822879 30.18004 22.240671 30.303732 C 22.659082 30.419017 22.886408 30.718905 22.923577 31.190787 C 23.206139 36.604661 23.349725 44.024396 23.349512 53.45809 L 23.347118 56.078389 C 23.348541 56.116533 23.423975 56.527828 23.582447 57.304485 C 23.745122 58.081451 24.066186 58.946137 24.541436 59.898234 C 25.016685 60.85033 25.711397 61.69176 26.624954 62.430931 C 27.53851 63.170102 28.754053 63.538397 30.267069 63.539712 Z M 56.588767 63.961226 C 58.494905 63.961849 60.312005 63.448739 62.040376 62.417692 C 63.777773 61.378856 64.744919 59.721272 64.9373 57.448836 C 64.979466 55.495033 64.99784 53.864926 64.996935 52.554622 C 64.99634 51.240114 65.025984 50.261728 65.082284 49.610748 C 65.143715 48.947464 65.332693 48.619002 65.65404 48.617261 L 67.809564 48.560136 C 68.168747 48.561176 68.394828 48.590472 68.492013 48.648334 C 68.589198 48.706196 68.640637 48.811415 68.637612 48.967575 L 68.639713 51.009164 C 68.639199 54.466463 68.736705 56.992666 68.932541 58.583572 C 69.251777 60.335703 70.105878 61.653771 71.494228 62.546183 C 72.894879 63.443726 74.447227 63.887495 76.158752 63.89072 C 77.35073 63.889572 78.527925 63.629516 79.685515 63.118651 C 82.22702 62.007892 83.503323 59.996867 83.501814 57.084647 C 83.499884 50.440334 83.539597 45.012107 83.617056 40.795455 C 83.655959 37.218407 83.677189 31.869127 83.677161 24.738897 C 83.673993 22.194268 83.277721 20.225146 82.479319 18.83932 C 81.053457 16.3296 78.850477 15.077227 75.866483 15.077687 C 74.670302 15.078527 73.601106 15.24931 72.658897 15.590035 C 71.729608 15.927484 71.081051 16.298246 70.722252 16.694532 C 69.850542 17.801223 69.301115 19.180968 69.078174 20.834078 C 68.863951 22.483603 68.755873 24.069077 68.754558 25.582093 L 68.872442 33.524034 C 68.870844 35.903476 68.673484 37.093544 68.276158 37.093927 L 66.424857 37.15228 C 65.871061 37.153842 65.538151 37.082881 65.421305 36.947495 C 65.304458 36.81211 65.245286 36.524581 65.243481 36.089111 L 65.360204 25.932784 L 65.302662 22.230303 C 65.304155 20.484839 64.842183 19.064569 63.920332 17.978209 C 63.003612 16.879547 61.866137 16.081653 60.494986 15.587803 C 59.123835 15.093953 57.759986 14.845781 56.399236 14.842978 C 54.496992 14.846868 52.948639 15.671364 51.753867 17.32067 C 50.558785 18.97418 49.922648 21.188641 49.845145 23.968256 L 49.596722 45.864774 C 49.633764 48.29355 49.653821 51.240945 49.652379 54.710855 C 49.654911 56.689076 49.752326 58.238935 49.944933 59.356227 C 50.150152 60.474446 50.64908 61.449416 51.445611 62.28565 C 52.766829 63.401362 54.483811 63.962896 56.588767 63.961226 Z M 88.800903 63.539258 C 90.39441 63.538036 91.791002 63.053191 92.986784 62.08021 C 94.178671 61.102717 95.154111 59.792322 95.912178 58.161637 C 95.992539 57.930855 96.108262 57.736485 96.263553 57.578836 C 96.427869 57.413397 97.004351 57.333198 97.99782 57.330139 L 102.410013 57.392385 L 107.363822 57.388774 C 108.318838 57.391342 108.974406 57.845277 109.33411 58.759295 C 110.088994 60.277173 111.084043 61.402724 112.318947 62.140155 C 113.554469 62.869177 114.80426 63.231537 116.080624 63.232364 C 117.272602 63.231215 118.366338 62.956572 119.357936 62.403921 C 120.358251 61.847684 121.132354 61.033906 121.68927 59.954798 C 122.084716 59.117415 122.285549 58.282636 122.287564 57.450149 C 122.287286 56.418845 121.905309 54.945282 121.149733 53.034282 C 120.118904 50.325363 118.368959 45.209388 115.903792 37.69087 C 114.156132 32.486305 112.618503 28.104452 111.299005 24.550134 C 109.988842 20.983822 108.816017 18.539192 107.78863 17.221068 C 106.311112 15.586679 104.595854 14.771677 102.643164 14.771859 C 100.973678 14.771724 99.464143 15.413104 98.114559 16.696 C 97.881932 16.928269 97.660063 17.186689 97.457668 17.467674 C 97.057701 18.021543 96.326402 19.633063 95.25926 22.306127 C 94.732763 23.488909 90.531821 34.008621 82.652231 53.864954 C 82.254565 54.905049 82.056026 55.938646 82.056304 56.96995 C 82.055785 58.24211 82.359799 59.511294 82.959319 60.785291 C 83.474631 61.824864 84.10152 62.496472 84.840294 62.795913 C 85.579687 63.086946 86.284147 63.2782 86.953984 63.365472 L 87.431679 63.421715 C 87.90783 63.498977 88.365433 63.541064 88.800903 63.539258 Z M 102.413669 45.266617 C 101.733139 45.267318 101.39213 45.191535 101.390951 45.035065 C 101.597793 44.636064 101.876654 44.119785 102.235632 43.491051 C 102.595537 42.849705 102.874828 42.27006 103.068994 41.756009 C 103.183116 41.755944 103.287286 41.77628 103.373095 41.8164 C 103.683776 42.764854 103.998408 43.544535 104.321814 44.147346 C 104.564476 44.583612 104.686396 44.87998 104.683372 45.036141 C 104.686218 45.112428 104.645293 45.151686 104.569315 45.150328 Z M 155.946662 64.311252 C 158.1318 64.311248 159.748782 63.703125 160.797298 62.491085 C 161.85453 61.27546 162.563004 59.226926 162.923027 56.341279 C 163.28305 53.455632 163.462029 49.525395 163.463858 44.55508 C 163.463595 37.830584 163.446211 33.294195 163.403299 30.945293 L 163.464854 22.057109 C 163.462209 20.425458 162.714618 18.86585 161.217569 17.382182 C 159.734368 15.882626 157.912655 15.135878 155.756944 15.138045 C 151.898116 15.137604 149.39478 17.109162 148.238529 21.052102 C 147.605978 23.275279 147.227629 27.33034 147.099278 33.216974 C 147.100362 34.29483 146.80271 34.894259 146.210835 35.011366 C 145.931836 35.011993 145.591501 34.754517 145.194036 34.239248 L 143.590076 32.024978 C 137.21695 22.989295 133.194325 17.799265 131.527024 16.446787 C 130.2936 15.574215 128.901308 15.137983 127.358864 15.134505 C 126.356987 15.136946 125.400556 15.383642 124.489262 15.878797 C 123.573764 16.373643 122.81555 17.201268 122.214928 18.357469 C 121.622714 19.514288 121.308647 21.084623 121.267904 23.07657 C 121.229761 23.077993 121.199141 24.529683 121.180248 27.43195 C 121.161047 30.338421 121.142603 33.752135 121.120403 37.676989 C 121.103334 41.589541 121.094907 45.096977 121.091229 48.194784 C 121.094513 52.577981 121.111023 54.768559 121.153371 54.767444 C 121.152787 55.925482 121.329945 57.252967 121.692634 58.758925 C 122.565848 62.462185 124.948994 64.311067 128.845966 64.310085 C 131.310104 64.309454 133.153842 63.548935 134.364877 62.023394 C 135.580733 60.489755 136.186469 58.746436 136.186287 56.793746 C 136.189512 55.082222 136.284887 52.519476 136.48113 49.101923 L 136.478462 48.793187 C 136.480064 48.598882 136.548122 48.36297 136.682946 48.081246 C 136.830382 47.800449 136.997357 47.656338 137.191661 47.65794 C 137.356539 47.657378 137.519441 47.741203 137.672268 47.904592 C 139.190711 49.499724 140.583907 51.246259 141.855754 53.148712 L 143.649636 55.596723 C 144.88185 57.348333 146.58088 59.189199 148.746726 61.119321 C 150.912263 63.053647 153.31084 64.117521 155.946662 64.311252 Z M 195.555895 63.363643 C 197.187237 63.365201 198.630193 62.824592 199.884455 61.746019 C 201.134513 60.667137 201.763935 59.234098 201.759801 57.450181 C 201.761221 55.303187 200.792475 53.072206 198.849051 50.761134 C 196.418784 48.460772 194.426223 46.530706 192.875264 44.975451 L 190.6615 42.834705 C 189.436166 41.679547 188.822629 40.941295 188.825092 40.620256 C 188.864032 40.377977 188.960591 40.156839 189.114149 39.96525 L 195.090234 33.701145 C 198.622976 30.317494 200.951082 27.394757 202.066451 24.928113 C 202.466897 23.850183 202.666982 22.795566 202.666703 21.764262 C 202.663675 19.735285 202.021547 18.005913 200.727397 16.579424 C 199.434175 15.140323 197.973685 14.424351 196.342343 14.422793 C 195.146161 14.423632 194.001923 14.867853 192.904806 15.763554 C 191.803794 16.654742 190.161802 18.178193 187.979448 20.3255 L 180.401305 27.972289 C 180.401962 27.215781 180.384259 26.479056 180.344301 25.757602 L 180.343218 24.679746 C 180.344297 23.572464 180.305436 22.318542 180.226324 20.922185 C 180.225102 19.328677 179.499214 17.87633 178.040252 16.564524 C 176.593902 15.253645 174.933359 14.556782 173.058006 14.482344 C 171.629685 14.478801 170.309258 15.019963 169.097344 16.097422 C 167.881844 17.166165 167.055702 18.457947 166.618918 19.972769 C 166.014753 22.557291 165.713792 28.262176 165.715417 37.095832 C 165.716642 40.874478 165.732821 44.392175 165.771743 47.657949 L 165.84674 54.113211 C 166.242271 60.232773 168.532226 63.292059 172.708198 63.29045 L 173.653758 63.364175 C 175.209122 63.364375 176.595078 62.794217 177.807114 61.657595 C 179.023353 60.521282 179.629959 58.938637 179.631135 56.909968 C 179.628215 56.432151 179.60817 55.957302 179.571311 55.481216 C 179.534451 55.005131 179.511748 54.508953 179.511299 53.997505 L 179.569501 52.860608 L 179.687949 52.801689 L 190.907063 61.690586 C 192.460729 62.806477 194.008939 63.36406 195.555895 63.363643 Z M 216.079678 63.887335 C 220.534584 63.770978 224.187275 62.953219 227.034166 61.425342 C 229.881365 59.893262 231.979894 57.908856 233.329134 55.480534 C 234.678375 53.052212 235.352647 50.548921 235.35257 47.962253 C 235.356005 44.982772 234.520033 42.152924 232.848241 39.481425 C 230.829431 36.298365 227.723091 34.168094 223.53701 33.099637 C 222.071277 32.742539 220.703215 32.20665 219.428005 31.50007 C 218.157925 30.781187 217.455537 29.584161 217.333142 27.914122 C 217.379311 27.515991 217.541025 27.155939 217.813771 26.83786 C 218.095234 26.516195 218.373364 26.354894 218.656567 26.354577 C 219.005675 26.435181 219.278008 26.755284 219.473257 27.319089 C 219.67784 27.870901 220.178556 28.706525 220.975714 29.821759 C 222.049718 31.253201 223.54866 31.963545 225.463206 31.964786 C 226.528141 31.96698 227.548866 31.708103 228.520868 31.192051 C 229.501278 30.676617 230.2488 29.936964 230.764052 28.964684 C 231.279922 27.983996 231.537315 26.954724 231.536232 25.876868 C 231.5381 24.241322 231.050961 22.645913 230.079639 21.082541 C 229.109243 19.506558 227.807678 18.180961 226.175253 17.101547 C 223.669464 15.598683 220.943799 14.844667 218.002153 14.844014 C 214.612425 14.844239 211.371965 15.861359 208.281081 17.891171 C 205.203735 19.909298 203.069569 23.011125 201.887916 27.18466 C 201.602706 28.304871 201.46333 29.338591 201.465275 30.289713 C 201.463136 35.264231 204.882355 39.46316 211.722312 42.894907 C 212.480626 43.331034 212.998637 43.643834 213.27993 43.842025 C 215.748136 45.51119 216.981391 46.903618 216.979384 48.023512 C 216.979767 48.420838 216.830168 48.731062 216.530589 48.954184 C 216.227423 49.16859 215.877332 49.273882 215.480006 49.274265 C 214.888375 49.273046 214.353428 49.018173 213.879984 48.501546 C 211.331935 45.791002 208.988308 44.439534 206.841314 44.438114 C 205.209972 44.436556 203.825438 45.044857 202.688023 46.258816 C 201.550608 47.472774 200.981837 49.058201 200.982328 51.006686 C 200.982545 54.109006 202.535344 57.249362 205.644313 60.43647 C 207.470133 62.104912 210.17652 63.17873 213.759268 63.657615 C 215.07106 63.808976 215.843026 63.886848 216.079678 63.887335 Z M 241.74419 49.040659 C 243.337389 49.043641 244.8311 48.502536 246.220504 47.425442 C 247.605703 46.34804 248.581883 44.970074 249.148426 43.299953 C 249.543489 42.065244 249.793271 40.794499 249.889673 39.482894 C 249.986075 38.171288 250.075719 36.204068 250.154401 33.580923 L 250.269956 29.82354 L 250.210793 29.823418 L 250.212048 26.298549 C 250.21093 24.071064 250.068613 21.867012 249.78961 19.682501 C 249.515737 17.485687 248.85067 15.665871 247.790514 14.218541 C 246.743896 12.759526 245.043169 12.03435 242.693153 12.034915 L 242.211441 12.033322 C 238.19955 12.275226 235.895049 14.819306 235.289222 19.669149 C 235.058444 21.773926 234.856801 24.459885 234.69301 27.72344 C 234.497786 32.104726 234.401444 35.428184 234.40009 37.689301 C 234.402012 39.963338 234.549077 41.757761 234.83739 43.068056 C 235.138313 44.379279 235.753657 45.553001 236.674703 46.592809 C 238.101465 48.227694 239.7915 49.040842 241.74419 49.040659 Z M 242.211577 70.283952 C 243.445594 70.285893 244.642076 69.993443 245.796511 69.410494 C 246.950327 68.835954 247.908286 67.993423 248.666801 66.874187 C 249.540974 65.446458 249.978686 63.919024 249.97604 62.287373 C 249.975997 60.850335 249.598908 59.482796 248.83995 58.192854 C 248.085505 56.899017 246.909325 55.937668 245.315922 55.304912 C 244.090483 54.783733 242.879827 54.521461 241.688158 54.518405 C 240.762569 54.518 239.846135 54.73805 238.934963 55.174042 C 237.465865 56.012816 236.355462 57.089283 235.594728 58.411232 C 234.839125 59.720879 234.459397 61.091965 234.460058 62.520595 C 234.461907 64.393102 235.114793 66.148624 236.427742 67.779371 C 238.135237 69.447569 240.064274 70.286736 242.211577 70.283952 Z M 242.211577 70.283952 " stroke="#2c2a27" stroke-width="2.984445" stroke-opacity="1" stroke-miterlimit="4"/></svg>