<svg xmlns="http://www.w3.org/2000/svg" xmlns:xlink="http://www.w3.org/1999/xlink" width="128" zoomAndPan="magnify" viewBox="0 0 96 95.999999" height="128" preserveAspectRatio="xMidYMid meet" version="1.0"><defs><g/><clipPath id="aab847d1ca"><path d="M 1 11.101562 L 96 11.101562 L 96 84 L 1 84 Z M 1 11.101562 " clip-rule="nonzero"/></clipPath><clipPath id="030015b158"><path d="M 0 11.101562 L 96 11.101562 L 96 84.601562 L 0 84.601562 Z M 0 11.101562 " clip-rule="nonzero"/></clipPath></defs><g clip-path="url(#aab847d1ca)"><path fill="#ffffff" d="M 93.582031 26.0625 C 92.9375 24.398438 92.050781 22.875 90.851562 21.597656 C 87.753906 18.300781 82.539062 16.101562 78.25 14.894531 C 71.609375 13.027344 64.570312 12.179688 57.6875 11.957031 C 49.113281 11.679688 40.492188 12.234375 32.035156 13.699219 C 23.617188 15.160156 14.707031 17.378906 8.261719 23.328125 C 0.0703125 30.882812 0.460938 43.261719 3.933594 53.140625 C 6.011719 59.042969 9.582031 64.242188 14.859375 67.71875 C 17.34375 69.355469 20.09375 70.484375 22.957031 71.273438 C 24.535156 74.972656 24.816406 78.898438 21.042969 80.976562 C 19.769531 81.675781 20.285156 83.890625 21.808594 83.78125 C 29.347656 83.246094 35.855469 78.921875 40.394531 73.019531 C 40.699219 72.625 44.246094 72.800781 44.863281 72.75 C 46.503906 72.609375 48.140625 72.421875 49.769531 72.203125 C 56.675781 71.277344 63.558594 70.777344 70.394531 69.304688 C 77.261719 67.820312 84.601562 65.679688 88.746094 59.574219 C 92.390625 54.203125 94.496094 47.304688 94.96875 40.898438 C 95.300781 36.363281 95.363281 30.671875 93.582031 26.0625 " fill-opacity="1" fill-rule="nonzero"/></g><g clip-path="url(#030015b158)"><path fill="#231f20" d="M 93.582031 26.0625 L 94.328125 25.777344 C 93.65625 24.035156 92.71875 22.417969 91.4375 21.050781 C 89.792969 19.308594 87.640625 17.894531 85.355469 16.75 C 83.070312 15.609375 80.652344 14.742188 78.46875 14.128906 C 71.746094 12.234375 64.644531 11.382812 57.714844 11.160156 C 56.28125 11.113281 54.847656 11.089844 53.414062 11.089844 C 46.210938 11.089844 38.996094 11.679688 31.898438 12.914062 C 27.667969 13.648438 23.292969 14.574219 19.132812 16.082031 C 14.980469 17.585938 11.039062 19.675781 7.714844 22.742188 C 5.210938 25.050781 3.472656 27.804688 2.371094 30.78125 C 1.265625 33.753906 0.792969 36.949219 0.792969 40.171875 C 0.792969 44.6875 1.71875 49.261719 3.179688 53.40625 C 4.238281 56.421875 5.6875 59.265625 7.550781 61.808594 C 9.414062 64.351562 11.695312 66.589844 14.417969 68.382812 C 16.988281 70.078125 19.820312 71.234375 22.742188 72.042969 L 22.957031 71.273438 L 22.21875 71.585938 C 22.855469 73.074219 23.253906 74.578125 23.253906 75.90625 C 23.253906 76.820312 23.070312 77.644531 22.667969 78.367188 C 22.261719 79.089844 21.636719 79.734375 20.65625 80.277344 C 20.269531 80.488281 19.972656 80.804688 19.789062 81.15625 C 19.601562 81.503906 19.523438 81.886719 19.523438 82.253906 C 19.523438 82.8125 19.703125 83.363281 20.066406 83.8125 C 20.25 84.035156 20.484375 84.230469 20.761719 84.367188 C 21.039062 84.507812 21.363281 84.585938 21.699219 84.582031 C 21.753906 84.582031 21.804688 84.582031 21.855469 84.578125 L 21.863281 84.578125 C 25.773438 84.300781 29.40625 83.039062 32.640625 81.097656 C 35.871094 79.152344 38.707031 76.527344 41.03125 73.503906 L 40.542969 73.132812 L 40.882812 73.644531 C 40.917969 73.621094 40.96875 73.582031 41.03125 73.503906 L 40.542969 73.132812 L 40.882812 73.644531 L 40.671875 73.328125 L 40.824219 73.675781 C 40.832031 73.671875 40.851562 73.664062 40.882812 73.644531 L 40.671875 73.328125 L 40.824219 73.675781 L 40.785156 73.585938 L 40.820312 73.679688 L 40.824219 73.675781 L 40.785156 73.585938 L 40.820312 73.679688 C 40.824219 73.675781 40.933594 73.648438 41.074219 73.628906 C 41.292969 73.597656 41.609375 73.578125 41.953125 73.566406 C 42.296875 73.554688 42.675781 73.550781 43.042969 73.550781 C 43.53125 73.550781 44.003906 73.558594 44.363281 73.558594 C 44.476562 73.558594 44.582031 73.554688 44.675781 73.554688 C 44.769531 73.554688 44.847656 73.550781 44.929688 73.542969 L 44.933594 73.542969 C 46.585938 73.402344 48.234375 73.214844 49.878906 72.996094 C 56.75 72.070312 63.652344 71.570312 70.5625 70.082031 C 74.019531 69.335938 77.625 68.421875 80.929688 66.894531 C 82.578125 66.132812 84.15625 65.214844 85.589844 64.089844 C 87.027344 62.960938 88.324219 61.621094 89.410156 60.019531 C 93.152344 54.503906 95.28125 47.492188 95.765625 40.957031 C 95.875 39.492188 95.953125 37.90625 95.953125 36.265625 C 95.953125 32.777344 95.59375 29.054688 94.328125 25.777344 L 92.832031 26.347656 C 93.992188 29.339844 94.351562 32.890625 94.351562 36.265625 C 94.351562 37.855469 94.273438 39.402344 94.167969 40.839844 C 93.707031 47.117188 91.632812 53.902344 88.082031 59.125 C 87.097656 60.578125 85.921875 61.796875 84.597656 62.835938 C 82.621094 64.390625 80.3125 65.539062 77.851562 66.433594 C 75.390625 67.328125 72.785156 67.972656 70.222656 68.523438 C 63.460938 69.980469 56.601562 70.480469 49.664062 71.414062 C 48.042969 71.628906 46.421875 71.8125 44.792969 71.953125 L 44.800781 71.953125 C 44.777344 71.957031 44.722656 71.957031 44.644531 71.960938 C 44.570312 71.960938 44.472656 71.960938 44.363281 71.960938 C 44.019531 71.960938 43.546875 71.957031 43.042969 71.957031 C 42.449219 71.957031 41.820312 71.964844 41.285156 72.003906 C 41.019531 72.023438 40.773438 72.050781 40.546875 72.101562 C 40.433594 72.125 40.324219 72.15625 40.199219 72.207031 C 40.136719 72.234375 40.070312 72.265625 39.996094 72.3125 C 39.925781 72.363281 39.839844 72.429688 39.757812 72.535156 C 37.542969 75.414062 34.851562 77.902344 31.8125 79.730469 C 28.769531 81.558594 25.382812 82.726562 21.75 82.988281 L 21.808594 83.78125 L 21.757812 82.988281 C 21.734375 82.988281 21.714844 82.988281 21.699219 82.988281 C 21.601562 82.988281 21.535156 82.96875 21.476562 82.941406 C 21.386719 82.894531 21.300781 82.816406 21.234375 82.691406 C 21.164062 82.570312 21.125 82.40625 21.125 82.253906 C 21.125 82.121094 21.15625 81.996094 21.207031 81.902344 C 21.257812 81.804688 21.320312 81.734375 21.429688 81.671875 C 22.636719 81.011719 23.515625 80.140625 24.070312 79.140625 C 24.625 78.140625 24.855469 77.03125 24.855469 75.90625 C 24.855469 74.269531 24.382812 72.582031 23.691406 70.960938 C 23.597656 70.738281 23.402344 70.570312 23.171875 70.503906 C 20.371094 69.730469 17.699219 68.632812 15.300781 67.050781 C 12.746094 65.371094 10.605469 63.269531 8.84375 60.871094 C 7.085938 58.46875 5.707031 55.761719 4.691406 52.875 C 3.285156 48.878906 2.394531 44.46875 2.394531 40.171875 C 2.394531 37.101562 2.847656 34.097656 3.871094 31.332031 C 4.898438 28.566406 6.496094 26.042969 8.804688 23.914062 C 11.929688 21.03125 15.667969 19.035156 19.683594 17.582031 C 23.699219 16.125 27.984375 15.210938 32.171875 14.488281 C 39.175781 13.269531 46.300781 12.6875 53.414062 12.6875 C 54.832031 12.6875 56.246094 12.707031 57.660156 12.753906 C 64.496094 12.976562 71.476562 13.816406 78.03125 15.664062 C 80.132812 16.257812 82.46875 17.09375 84.636719 18.175781 C 86.808594 19.261719 88.8125 20.59375 90.265625 22.144531 C 91.382812 23.332031 92.21875 24.761719 92.832031 26.347656 L 93.582031 26.0625 " fill-opacity="1" fill-rule="nonzero"/></g><path fill="#ffffff" d="M 71.480469 17.214844 C 72.574219 17.132812 73.5 17.300781 74.507812 17.800781 " fill-opacity="1" fill-rule="nonzero"/><path fill="#231f20" d="M 71.542969 18.011719 C 71.703125 18 71.855469 17.992188 72 17.992188 C 72.761719 17.996094 73.394531 18.144531 74.148438 18.515625 C 74.542969 18.710938 75.023438 18.550781 75.222656 18.160156 C 75.421875 17.765625 75.261719 17.285156 74.863281 17.089844 C 73.929688 16.617188 72.988281 16.394531 72 16.394531 C 71.808594 16.394531 71.613281 16.40625 71.417969 16.417969 C 70.976562 16.453125 70.648438 16.835938 70.683594 17.277344 C 70.714844 17.714844 71.101562 18.046875 71.542969 18.011719 " fill-opacity="1" fill-rule="nonzero"/><path fill="#ffffff" d="M 75.851562 18.640625 C 82.238281 19.726562 87.785156 24.664062 89.800781 30.777344 " fill-opacity="1" fill-rule="nonzero"/><path fill="#231f20" d="M 75.714844 19.425781 C 78.746094 19.941406 81.601562 21.378906 83.9375 23.421875 C 86.269531 25.46875 88.082031 28.117188 89.039062 31.023438 C 89.179688 31.445312 89.632812 31.671875 90.050781 31.535156 C 90.472656 31.398438 90.703125 30.945312 90.5625 30.527344 C 89.507812 27.324219 87.535156 24.449219 84.996094 22.226562 C 82.453125 20 79.339844 18.421875 75.988281 17.851562 C 75.550781 17.777344 75.136719 18.070312 75.0625 18.503906 C 74.988281 18.9375 75.28125 19.351562 75.714844 19.425781 " fill-opacity="1" fill-rule="nonzero"/><path fill="#231f20" d="M 89.757812 32.703125 C 89.757812 33.035156 89.757812 33.289062 89.757812 33.539062 C 89.757812 33.980469 90.117188 34.335938 90.558594 34.335938 C 91 34.335938 91.359375 33.980469 91.359375 33.539062 C 91.359375 33.289062 91.359375 33.035156 91.359375 32.703125 C 91.359375 32.261719 91 31.902344 90.558594 31.902344 C 90.117188 31.902344 89.757812 32.261719 89.757812 32.703125 " fill-opacity="1" fill-rule="nonzero"/><path fill="#ffffff" d="M 49.125 68.863281 C 50.050781 68.863281 50.890625 68.695312 51.816406 68.613281 " fill-opacity="1" fill-rule="nonzero"/><path fill="#231f20" d="M 49.125 69.660156 C 49.636719 69.660156 50.113281 69.617188 50.566406 69.5625 C 51.019531 69.507812 51.453125 69.445312 51.886719 69.410156 C 52.328125 69.367188 52.652344 68.980469 52.613281 68.539062 C 52.574219 68.101562 52.183594 67.777344 51.742188 67.820312 C 51.253906 67.863281 50.804688 67.925781 50.375 67.976562 C 49.945312 68.027344 49.539062 68.066406 49.125 68.066406 C 48.683594 68.066406 48.324219 68.421875 48.324219 68.863281 C 48.324219 69.304688 48.683594 69.660156 49.125 69.660156 " fill-opacity="1" fill-rule="nonzero"/><path fill="#ffffff" d="M 55.34375 68.277344 C 57.195312 67.859375 59.125 67.941406 60.976562 67.691406 C 64.589844 67.355469 68.203125 66.605469 71.648438 65.265625 " fill-opacity="1" fill-rule="nonzero"/><path fill="#231f20" d="M 55.523438 69.054688 C 56.375 68.863281 57.28125 68.78125 58.214844 68.71875 C 59.148438 68.65625 60.109375 68.613281 61.085938 68.480469 L 60.976562 67.691406 L 61.050781 68.488281 C 64.722656 68.144531 68.414062 67.378906 71.941406 66.007812 C 72.351562 65.847656 72.554688 65.382812 72.394531 64.972656 C 72.234375 64.5625 71.769531 64.359375 71.355469 64.519531 C 67.992188 65.828125 64.453125 66.566406 60.902344 66.898438 L 60.867188 66.902344 C 59.992188 67.019531 59.066406 67.0625 58.105469 67.125 C 57.148438 67.191406 56.164062 67.273438 55.167969 67.5 C 54.734375 67.597656 54.464844 68.023438 54.5625 68.453125 C 54.660156 68.882812 55.089844 69.152344 55.523438 69.054688 " fill-opacity="1" fill-rule="nonzero"/><g fill="#ff650e" fill-opacity="1"><g transform="translate(19.846784, 50.085834)"><g><path d="M 4.46875 -0.203125 C 4.988281 -0.242188 5.398438 -0.441406 5.703125 -0.796875 C 6.015625 -1.148438 6.164062 -1.640625 6.15625 -2.265625 L 6 -4.53125 L 5.828125 -6.625 C 5.773438 -7.320312 5.757812 -7.769531 5.78125 -7.96875 C 5.78125 -8.09375 5.8125 -8.175781 5.875 -8.21875 C 5.9375 -8.269531 5.984375 -8.296875 6.015625 -8.296875 C 6.296875 -8.316406 6.597656 -8.351562 6.921875 -8.40625 C 7.242188 -8.46875 7.523438 -8.570312 7.765625 -8.71875 C 8.304688 -9.082031 8.546875 -9.679688 8.484375 -10.515625 C 8.441406 -10.992188 8.285156 -11.347656 8.015625 -11.578125 C 7.742188 -11.816406 7.445312 -11.96875 7.125 -12.03125 C 6.8125 -12.09375 6.5625 -12.117188 6.375 -12.109375 L 1.453125 -11.75 C 0.941406 -11.707031 0.460938 -11.566406 0.015625 -11.328125 C -0.671875 -10.960938 -0.984375 -10.394531 -0.921875 -9.625 C -0.898438 -9.21875 -0.742188 -8.875 -0.453125 -8.59375 C -0.160156 -8.3125 0.128906 -8.128906 0.421875 -8.046875 C 0.554688 -8.003906 0.707031 -7.972656 0.875 -7.953125 C 1.050781 -7.941406 1.320312 -7.953125 1.6875 -7.984375 C 1.78125 -7.984375 1.878906 -7.972656 1.984375 -7.953125 C 2.085938 -7.941406 2.144531 -7.878906 2.15625 -7.765625 C 2.320312 -6.472656 2.484375 -4.710938 2.640625 -2.484375 L 2.6875 -1.859375 C 2.6875 -1.847656 2.707031 -1.75 2.75 -1.5625 C 2.800781 -1.382812 2.890625 -1.179688 3.015625 -0.953125 C 3.148438 -0.734375 3.332031 -0.546875 3.5625 -0.390625 C 3.800781 -0.234375 4.101562 -0.171875 4.46875 -0.203125 Z M 4.46875 -0.203125 "/></g></g></g><g fill="#ff650e" fill-opacity="1"><g transform="translate(28.399697, 49.4572)"><g><path d="M 2.171875 0.078125 C 2.628906 0.046875 3.050781 -0.109375 3.4375 -0.390625 C 3.832031 -0.671875 4.035156 -1.082031 4.046875 -1.625 C 4.023438 -2.09375 4 -2.476562 3.96875 -2.78125 C 3.945312 -3.09375 3.9375 -3.328125 3.9375 -3.484375 C 3.9375 -3.640625 3.976562 -3.71875 4.0625 -3.71875 L 4.5625 -3.78125 C 4.65625 -3.78125 4.710938 -3.773438 4.734375 -3.765625 C 4.753906 -3.753906 4.765625 -3.734375 4.765625 -3.703125 L 4.8125 -3.234375 C 4.863281 -2.410156 4.929688 -1.804688 5.015625 -1.421875 C 5.117188 -1.003906 5.34375 -0.703125 5.6875 -0.515625 C 6.039062 -0.328125 6.421875 -0.25 6.828125 -0.28125 C 7.109375 -0.300781 7.378906 -0.382812 7.640625 -0.53125 C 8.234375 -0.84375 8.503906 -1.34375 8.453125 -2.03125 C 8.335938 -3.601562 8.253906 -4.894531 8.203125 -5.90625 C 8.140625 -6.75 8.046875 -8.015625 7.921875 -9.703125 C 7.878906 -10.316406 7.753906 -10.78125 7.546875 -11.09375 C 7.160156 -11.675781 6.609375 -11.941406 5.890625 -11.890625 C 5.609375 -11.867188 5.359375 -11.804688 5.140625 -11.703125 C 4.929688 -11.609375 4.785156 -11.507812 4.703125 -11.40625 C 4.515625 -11.125 4.410156 -10.785156 4.390625 -10.390625 C 4.367188 -9.992188 4.367188 -9.617188 4.390625 -9.265625 L 4.5625 -7.390625 C 4.601562 -6.816406 4.578125 -6.523438 4.484375 -6.515625 L 4.03125 -6.46875 C 3.90625 -6.457031 3.828125 -6.46875 3.796875 -6.5 C 3.765625 -6.53125 3.742188 -6.597656 3.734375 -6.703125 L 3.59375 -9.109375 L 3.5 -10 C 3.46875 -10.414062 3.332031 -10.742188 3.09375 -10.984375 C 2.863281 -11.234375 2.582031 -11.398438 2.25 -11.484375 C 1.925781 -11.578125 1.601562 -11.613281 1.28125 -11.59375 C 0.820312 -11.5625 0.460938 -11.335938 0.203125 -10.921875 C -0.046875 -10.515625 -0.160156 -9.976562 -0.140625 -9.3125 L 0.203125 -4.09375 C 0.253906 -3.519531 0.3125 -2.820312 0.375 -2 C 0.40625 -1.53125 0.453125 -1.164062 0.515625 -0.90625 C 0.585938 -0.644531 0.722656 -0.421875 0.921875 -0.234375 C 1.253906 0.00390625 1.671875 0.109375 2.171875 0.078125 Z M 2.171875 0.078125 "/></g></g></g><g fill="#ff650e" fill-opacity="1"><g transform="translate(37.009346, 48.824397)"><g><path d="M 1.21875 0.03125 C 1.601562 0.0078125 1.925781 -0.125 2.1875 -0.375 C 2.445312 -0.625 2.65625 -0.957031 2.8125 -1.375 C 2.8125 -1.425781 2.832031 -1.46875 2.875 -1.5 C 2.914062 -1.539062 3.050781 -1.570312 3.28125 -1.59375 L 4.34375 -1.671875 L 5.515625 -1.75 C 5.742188 -1.769531 5.90625 -1.675781 6 -1.46875 C 6.21875 -1.113281 6.476562 -0.859375 6.78125 -0.703125 C 7.082031 -0.546875 7.382812 -0.476562 7.6875 -0.5 C 7.976562 -0.519531 8.234375 -0.601562 8.453125 -0.75 C 8.671875 -0.90625 8.84375 -1.113281 8.96875 -1.375 C 9.039062 -1.59375 9.070312 -1.800781 9.0625 -2 C 9.039062 -2.238281 8.925781 -2.582031 8.71875 -3.03125 C 8.425781 -3.644531 7.921875 -4.828125 7.203125 -6.578125 C 6.691406 -7.785156 6.25 -8.800781 5.875 -9.625 C 5.5 -10.445312 5.179688 -11.003906 4.921875 -11.296875 C 4.535156 -11.648438 4.109375 -11.8125 3.640625 -11.78125 C 3.242188 -11.75 2.894531 -11.570312 2.59375 -11.25 C 2.550781 -11.195312 2.503906 -11.128906 2.453125 -11.046875 C 2.367188 -10.921875 2.226562 -10.53125 2.03125 -9.875 C 1.9375 -9.570312 1.125 -7 -0.40625 -2.15625 C -0.488281 -1.90625 -0.519531 -1.65625 -0.5 -1.40625 C -0.476562 -1.101562 -0.382812 -0.804688 -0.21875 -0.515625 C -0.0820312 -0.273438 0.0703125 -0.125 0.25 -0.0625 C 0.4375 0 0.609375 0.0234375 0.765625 0.015625 L 0.875 0.03125 C 1 0.0390625 1.113281 0.0390625 1.21875 0.03125 Z M 4.125 -4.53125 C 3.957031 -4.519531 3.875 -4.535156 3.875 -4.578125 C 3.914062 -4.671875 3.972656 -4.796875 4.046875 -4.953125 C 4.117188 -5.109375 4.175781 -5.253906 4.21875 -5.390625 C 4.25 -5.390625 4.269531 -5.382812 4.28125 -5.375 C 4.382812 -5.144531 4.476562 -4.96875 4.5625 -4.84375 C 4.625 -4.738281 4.65625 -4.664062 4.65625 -4.625 C 4.65625 -4.601562 4.648438 -4.59375 4.640625 -4.59375 Z M 4.125 -4.53125 "/></g></g></g><g fill="#ff650e" fill-opacity="1"><g transform="translate(45.363683, 48.210359)"><g><path d="M 8.8125 -0.328125 C 9.332031 -0.367188 9.707031 -0.539062 9.9375 -0.84375 C 10.164062 -1.15625 10.300781 -1.65625 10.34375 -2.34375 C 10.382812 -3.039062 10.359375 -3.976562 10.265625 -5.15625 C 10.148438 -6.757812 10.066406 -7.84375 10.015625 -8.40625 L 9.875 -10.5 C 9.84375 -10.894531 9.632812 -11.253906 9.25 -11.578125 C 8.875 -11.910156 8.425781 -12.054688 7.90625 -12.015625 C 7 -11.953125 6.445312 -11.441406 6.25 -10.484375 C 6.132812 -9.941406 6.113281 -8.972656 6.1875 -7.578125 C 6.195312 -7.328125 6.140625 -7.179688 6.015625 -7.140625 C 5.941406 -7.128906 5.851562 -7.179688 5.75 -7.296875 L 5.328125 -7.796875 C 3.648438 -9.828125 2.601562 -10.988281 2.1875 -11.28125 C 1.882812 -11.46875 1.546875 -11.546875 1.171875 -11.515625 C 0.929688 -11.503906 0.707031 -11.429688 0.5 -11.296875 C 0.300781 -11.160156 0.140625 -10.945312 0.015625 -10.65625 C -0.109375 -10.375 -0.160156 -10 -0.140625 -9.53125 C -0.148438 -9.53125 -0.128906 -9.1875 -0.078125 -8.5 C -0.0234375 -7.8125 0.03125 -7 0.09375 -6.0625 C 0.15625 -5.125 0.210938 -4.285156 0.265625 -3.546875 C 0.347656 -2.515625 0.394531 -2.003906 0.40625 -2.015625 C 0.425781 -1.734375 0.488281 -1.414062 0.59375 -1.0625 C 0.863281 -0.195312 1.460938 0.203125 2.390625 0.140625 C 2.960938 0.0976562 3.378906 -0.113281 3.640625 -0.5 C 3.910156 -0.882812 4.03125 -1.3125 4 -1.78125 C 3.96875 -2.1875 3.941406 -2.796875 3.921875 -3.609375 L 3.921875 -3.6875 C 3.921875 -3.726562 3.9375 -3.78125 3.96875 -3.84375 C 4 -3.914062 4.035156 -3.953125 4.078125 -3.953125 C 4.117188 -3.960938 4.160156 -3.945312 4.203125 -3.90625 C 4.585938 -3.5625 4.945312 -3.175781 5.28125 -2.75 L 5.765625 -2.203125 C 6.085938 -1.804688 6.519531 -1.394531 7.0625 -0.96875 C 7.613281 -0.550781 8.195312 -0.335938 8.8125 -0.328125 Z M 8.8125 -0.328125 "/></g></g></g><g fill="#ff650e" fill-opacity="1"><g transform="translate(56.001638, 47.428477)"><g><path d="M 7.59375 -0.484375 C 7.976562 -0.503906 8.304688 -0.65625 8.578125 -0.9375 C 8.859375 -1.21875 8.984375 -1.570312 8.953125 -2 C 8.910156 -2.507812 8.644531 -3.015625 8.15625 -3.515625 C 7.53125 -4.015625 7.023438 -4.441406 6.640625 -4.796875 L 6.0625 -5.265625 C 5.757812 -5.515625 5.601562 -5.675781 5.59375 -5.75 C 5.601562 -5.8125 5.625 -5.867188 5.65625 -5.921875 L 6.96875 -7.515625 C 7.75 -8.378906 8.242188 -9.113281 8.453125 -9.71875 C 8.535156 -9.976562 8.566406 -10.234375 8.546875 -10.484375 C 8.515625 -10.960938 8.332031 -11.359375 8 -11.671875 C 7.675781 -11.992188 7.320312 -12.144531 6.9375 -12.125 C 6.644531 -12.101562 6.375 -11.972656 6.125 -11.734375 C 5.882812 -11.503906 5.519531 -11.113281 5.03125 -10.5625 L 3.375 -8.625 C 3.363281 -8.800781 3.34375 -8.972656 3.3125 -9.140625 L 3.296875 -9.390625 C 3.273438 -9.660156 3.242188 -9.960938 3.203125 -10.296875 C 3.171875 -10.671875 2.972656 -11 2.609375 -11.28125 C 2.242188 -11.570312 1.84375 -11.710938 1.40625 -11.703125 C 1.0625 -11.671875 0.753906 -11.515625 0.484375 -11.234375 C 0.210938 -10.960938 0.0390625 -10.640625 -0.03125 -10.265625 C -0.132812 -9.640625 -0.109375 -8.28125 0.046875 -6.1875 C 0.109375 -5.28125 0.175781 -4.441406 0.25 -3.671875 L 0.375 -2.15625 C 0.570312 -0.695312 1.164062 -0.00390625 2.15625 -0.078125 L 2.390625 -0.09375 C 2.742188 -0.125 3.054688 -0.28125 3.328125 -0.5625 C 3.609375 -0.851562 3.726562 -1.242188 3.6875 -1.734375 C 3.675781 -1.847656 3.660156 -1.960938 3.640625 -2.078125 C 3.628906 -2.191406 3.617188 -2.304688 3.609375 -2.421875 L 3.609375 -2.703125 L 3.640625 -2.71875 L 6.46875 -0.78125 C 6.84375 -0.550781 7.21875 -0.453125 7.59375 -0.484375 Z M 7.59375 -0.484375 "/></g></g></g><g fill="#ff650e" fill-opacity="1"><g transform="translate(64.710574, 46.788376)"><g><path d="M 3.765625 -0.0625 C 4.828125 -0.164062 5.679688 -0.425781 6.328125 -0.84375 C 6.984375 -1.257812 7.453125 -1.765625 7.734375 -2.359375 C 8.015625 -2.960938 8.128906 -3.566406 8.078125 -4.171875 C 8.023438 -4.890625 7.78125 -5.550781 7.34375 -6.15625 C 6.789062 -6.875 6.015625 -7.328125 5.015625 -7.515625 C 4.648438 -7.578125 4.3125 -7.679688 4 -7.828125 C 3.6875 -7.972656 3.5 -8.242188 3.4375 -8.640625 C 3.4375 -8.734375 3.46875 -8.816406 3.53125 -8.890625 C 3.59375 -8.972656 3.65625 -9.019531 3.71875 -9.03125 C 3.800781 -9.007812 3.875 -8.9375 3.9375 -8.8125 C 4 -8.6875 4.132812 -8.5 4.34375 -8.25 C 4.613281 -7.925781 4.976562 -7.78125 5.4375 -7.8125 C 5.695312 -7.832031 5.9375 -7.910156 6.15625 -8.046875 C 6.382812 -8.191406 6.550781 -8.382812 6.65625 -8.625 C 6.757812 -8.863281 6.804688 -9.109375 6.796875 -9.359375 C 6.765625 -9.742188 6.617188 -10.113281 6.359375 -10.46875 C 6.097656 -10.832031 5.765625 -11.128906 5.359375 -11.359375 C 4.734375 -11.671875 4.066406 -11.800781 3.359375 -11.75 C 2.554688 -11.6875 1.804688 -11.390625 1.109375 -10.859375 C 0.421875 -10.328125 -0.0234375 -9.554688 -0.234375 -8.546875 C -0.285156 -8.273438 -0.304688 -8.023438 -0.296875 -7.796875 C -0.203125 -6.609375 0.691406 -5.671875 2.390625 -4.984375 C 2.554688 -4.890625 2.675781 -4.820312 2.75 -4.78125 C 3.363281 -4.425781 3.679688 -4.113281 3.703125 -3.84375 C 3.710938 -3.75 3.679688 -3.671875 3.609375 -3.609375 C 3.546875 -3.554688 3.46875 -3.523438 3.375 -3.515625 C 3.226562 -3.503906 3.09375 -3.554688 2.96875 -3.671875 C 2.320312 -4.273438 1.742188 -4.554688 1.234375 -4.515625 C 0.847656 -4.492188 0.53125 -4.328125 0.28125 -4.015625 C 0.03125 -3.710938 -0.0703125 -3.332031 -0.03125 -2.875 C 0.0195312 -2.132812 0.441406 -1.410156 1.234375 -0.703125 C 1.703125 -0.335938 2.363281 -0.128906 3.21875 -0.078125 C 3.53125 -0.0546875 3.710938 -0.0507812 3.765625 -0.0625 Z M 3.765625 -0.0625 "/></g></g></g><g fill="#ff650e" fill-opacity="1"><g transform="translate(72.540108, 46.21291)"><g><path d="M 1.78125 -3.46875 C 2.164062 -3.488281 2.507812 -3.640625 2.8125 -3.921875 C 3.125 -4.203125 3.332031 -4.546875 3.4375 -4.953125 C 3.507812 -5.253906 3.546875 -5.5625 3.546875 -5.875 C 3.546875 -6.195312 3.53125 -6.671875 3.5 -7.296875 L 3.46875 -8.1875 L 3.453125 -8.1875 L 3.390625 -9.015625 C 3.347656 -9.546875 3.273438 -10.066406 3.171875 -10.578125 C 3.078125 -11.097656 2.890625 -11.519531 2.609375 -11.84375 C 2.328125 -12.175781 1.914062 -12.320312 1.375 -12.28125 L 1.25 -12.265625 C 0.300781 -12.140625 -0.195312 -11.492188 -0.25 -10.328125 C -0.28125 -9.816406 -0.28125 -9.179688 -0.25 -8.421875 C -0.226562 -7.367188 -0.195312 -6.570312 -0.15625 -6.03125 C -0.113281 -5.488281 -0.046875 -5.0625 0.046875 -4.75 C 0.140625 -4.445312 0.304688 -4.179688 0.546875 -3.953125 C 0.910156 -3.585938 1.320312 -3.425781 1.78125 -3.46875 Z M 2.265625 1.578125 C 2.566406 1.554688 2.84375 1.46875 3.09375 1.3125 C 3.351562 1.15625 3.566406 0.9375 3.734375 0.65625 C 3.921875 0.289062 4 -0.0820312 3.96875 -0.46875 C 3.945312 -0.8125 3.832031 -1.128906 3.625 -1.421875 C 3.414062 -1.710938 3.125 -1.921875 2.75 -2.046875 C 2.457031 -2.148438 2.164062 -2.1875 1.875 -2.15625 C 1.65625 -2.144531 1.4375 -2.078125 1.21875 -1.953125 C 0.894531 -1.734375 0.648438 -1.457031 0.484375 -1.125 C 0.328125 -0.800781 0.257812 -0.46875 0.28125 -0.125 C 0.320312 0.3125 0.507812 0.710938 0.84375 1.078125 C 1.28125 1.453125 1.753906 1.617188 2.265625 1.578125 Z M 2.265625 1.578125 "/></g></g></g><path stroke-linecap="butt" transform="matrix(0.221624, -0.0162892, 0.0162892, 0.221624, 4.329042, 36.297327)" fill="none" stroke-linejoin="miter" d="M 85.18356 67.578154 C 87.528046 67.574216 89.452029 66.816725 90.973038 65.306969 C 92.494047 63.797212 93.319994 61.672351 93.450877 58.932387 L 93.520949 48.626595 L 93.453896 39.227253 C 93.457926 36.054952 93.51845 34.032463 93.636756 33.142256 C 93.677989 32.581269 93.845294 32.223429 94.141249 32.033675 C 94.438493 31.826391 94.674125 31.737956 94.850722 31.73331 C 96.084323 31.735851 97.445794 31.677289 98.900073 31.555045 C 100.390703 31.417848 101.686424 31.054818 102.788526 30.448426 C 105.34772 28.962099 106.633062 26.342237 106.628309 22.570022 C 106.629017 20.402132 106.045038 18.755286 104.893901 17.630771 C 103.744052 16.488725 102.459383 15.742158 101.060002 15.357296 C 99.66062 14.972434 98.528846 14.783496 97.66597 14.772952 L 75.387161 14.77465 C 73.130328 14.78503 70.963999 15.2427 68.868066 16.181434 C 65.7154 17.58889 64.143631 20.02907 64.136515 23.483153 C 64.142758 25.316668 64.730603 26.910922 65.916293 28.284734 C 67.120803 29.642304 68.339994 30.560314 69.573867 31.038765 C 70.207046 31.296809 70.916791 31.472354 71.684282 31.581641 C 72.453062 31.673397 73.647736 31.725953 75.268304 31.739311 C 75.691621 31.735173 76.127315 31.802447 76.575386 31.941133 C 77.024745 32.062289 77.265803 32.37964 77.316091 32.894477 C 77.612226 38.697421 77.767405 46.657945 77.765387 56.757232 L 77.769597 59.577629 C 77.76702 59.61269 77.857523 60.059981 78.008622 60.881861 C 78.193494 61.72385 78.530989 62.647558 79.054882 63.673094 C 79.561243 64.697342 80.305813 65.598093 81.287304 66.392879 C 82.268795 67.187665 83.561703 67.582327 85.18356 67.578154 Z M 113.421565 68.032078 C 115.466739 68.023767 117.410321 67.479223 119.271131 66.382203 C 121.133229 65.267653 122.162595 63.492628 122.378047 61.040888 C 122.408663 58.945699 122.43104 57.202415 122.428936 55.792217 C 122.444362 54.383308 122.467791 53.345123 122.536862 52.645178 C 122.589691 51.926413 122.792058 51.571151 123.143963 51.57939 L 125.457253 51.520283 C 125.845509 51.513569 126.089652 51.549138 126.190971 51.609462 C 126.292291 51.669786 126.337152 51.778836 126.341798 51.955433 L 126.339801 54.140853 C 126.349709 57.842945 126.449303 60.564599 126.658693 62.272041 C 126.996732 64.147568 127.915595 65.554645 129.39646 66.509514 C 130.912387 67.466959 132.568289 67.958803 134.401804 67.952561 C 135.687998 67.958968 136.942215 67.681016 138.181987 67.119993 C 140.912115 65.945863 142.28796 63.773292 142.288125 60.653583 C 142.282755 53.53247 142.323572 47.701416 142.407997 43.195482 C 142.44346 39.355721 142.460303 33.611032 142.476058 25.962705 C 142.464118 23.247494 142.037643 21.136334 141.177816 19.645469 C 139.647916 16.959693 137.297459 15.606025 134.088808 15.616949 C 132.802614 15.610542 131.661313 15.79104 130.647373 16.157155 C 129.650965 16.524558 128.970111 16.915155 128.568462 17.343898 C 127.635498 18.526739 127.050066 20.017132 126.814742 21.780016 C 126.578129 23.56043 126.471964 25.244679 126.474849 26.884066 L 126.590085 35.388047 C 126.596091 37.944192 126.379314 39.214924 125.955997 39.219061 L 123.95955 39.28383 C 123.378456 39.276371 123.012885 39.214251 122.882947 39.063696 C 122.770539 38.91443 122.704789 38.609963 122.704517 38.134054 L 122.834641 27.251033 L 122.756407 23.279536 C 122.770273 21.412248 122.266216 19.877029 121.276722 18.711518 C 120.304759 17.547296 119.081702 16.681879 117.604975 16.150327 C 116.145777 15.620064 114.667253 15.352764 113.221993 15.352291 C 111.176819 15.360602 109.508068 16.242606 108.231983 18.017122 C 106.955897 19.791638 106.270977 22.155996 106.192178 25.146547 L 105.91213 48.62081 C 105.966863 51.233413 105.981653 54.389472 105.990272 58.109095 C 105.97461 60.240634 106.082679 61.887753 106.293085 63.101754 C 106.50478 64.298225 107.044914 65.34258 107.895958 66.233532 C 109.323723 67.431255 111.166021 68.024927 113.421565 68.032078 Z M 147.965991 67.574727 C 149.675501 67.576996 151.176947 67.052832 152.451508 66.018477 C 153.744889 64.967879 154.782258 63.56358 155.598676 61.808155 C 155.686839 61.567877 155.808774 61.347707 155.979437 61.183996 C 156.151388 61.002753 156.773987 60.925135 157.832279 60.914791 L 162.568691 60.980905 L 167.87382 60.983067 C 168.895762 60.987676 169.599845 61.480065 169.986068 62.460231 C 170.801814 64.071235 171.857565 65.294493 173.19225 66.079987 C 174.509403 66.864193 175.856193 67.24519 177.21251 67.256751 C 178.499992 67.245626 179.666555 66.961232 180.733595 66.352262 C 181.816878 65.762112 182.638994 64.888383 183.235007 63.733653 C 183.671445 62.831577 183.877406 61.947813 183.872996 61.048586 C 183.884048 59.938989 183.471512 58.35762 182.652917 56.305768 C 181.561795 53.405485 179.673203 47.926135 177.041022 39.854055 C 175.160161 34.26952 173.512899 29.583432 172.101813 25.760729 C 170.690727 21.938026 169.437454 19.325459 168.325753 17.904209 C 166.745093 16.148856 164.905879 15.273402 162.808113 15.277848 C 161.027191 15.287955 159.408963 15.962166 157.950854 17.335542 C 157.702337 17.599285 157.471351 17.864316 157.255319 18.165697 C 156.823254 18.76846 156.044475 20.4914 154.898871 23.36829 C 154.330189 24.630783 149.81712 35.914307 141.378482 57.202621 C 140.944113 58.316356 140.738933 59.42931 140.72788 60.538906 C 140.73385 61.896512 141.056664 63.25978 141.713852 64.629998 C 142.248833 65.744477 142.936165 66.464766 143.723256 66.787 C 144.511635 67.091703 145.272684 67.288643 145.987583 67.394065 L 146.494689 67.448962 C 147.016748 67.54021 147.507612 67.576288 147.965991 67.574727 Z M 162.571653 47.991099 C 161.831493 47.989574 161.468499 47.892392 161.462565 47.733326 C 161.687617 47.309229 161.9931 46.750039 162.377726 46.073287 C 162.762352 45.396535 163.055458 44.765933 163.271999 44.217831 C 163.394715 44.226851 163.4999 44.234582 163.602508 44.277374 C 163.932272 45.306268 164.27621 46.142322 164.616791 46.784248 C 164.865072 47.243135 164.999656 47.570287 165.005591 47.729353 C 164.999148 47.817007 164.960221 47.867023 164.872567 47.86058 Z M 219.975576 68.40812 C 222.320063 68.404183 224.059717 67.756523 225.178298 66.44632 C 226.31312 65.154936 227.074097 62.954798 227.45994 59.863436 C 227.845783 56.772075 228.049839 52.556943 228.037047 47.215463 C 228.03812 40.006696 228.0256 35.141126 227.981955 32.617466 L 228.047926 23.086897 C 228.035241 21.341036 227.240891 19.678727 225.631104 18.079863 C 224.038847 16.482288 222.089294 15.669227 219.77987 15.675741 C 215.638218 15.670967 212.962514 17.78325 211.717697 22.010015 C 211.031489 24.391904 210.622997 28.75064 210.49351 35.068692 C 210.497411 36.214639 210.185485 36.861483 209.54149 36.990405 C 209.242177 36.986032 208.874538 36.712253 208.439861 36.151538 L 206.727701 33.787252 C 199.895813 24.102206 195.581523 18.532697 193.784831 17.078725 C 192.461743 16.135453 190.979861 15.674025 189.322943 15.675622 C 188.248408 15.667146 187.22338 15.944318 186.250436 16.472076 C 185.259962 16.998545 184.454087 17.891093 183.79904 19.129612 C 183.179054 20.370708 182.826168 22.054449 182.792975 24.1847 C 182.757913 24.182123 182.71336 25.747521 182.695664 28.865942 C 182.679258 31.966831 182.65668 35.631284 182.629221 39.841771 C 182.620581 44.036014 182.607804 47.806941 182.610997 51.120778 C 182.600052 55.825993 182.62152 58.171768 182.674113 58.175633 C 182.671572 59.409234 182.866515 60.833606 183.241414 62.447459 C 184.182524 66.429501 186.734603 68.397256 190.911316 68.404608 C 193.555115 68.405044 195.536845 67.581295 196.837684 65.949603 C 198.139812 64.30038 198.787365 62.444416 198.80045 60.347938 C 198.794208 58.514423 198.891318 55.754351 199.108023 52.08654 L 199.096154 51.768408 C 199.111617 51.558038 199.183537 51.298941 199.329446 50.992405 C 199.474066 50.703401 199.662259 50.540977 199.873918 50.538909 C 200.049226 50.551794 200.219381 50.634802 200.383093 50.805465 C 202.018922 52.529621 203.502909 54.401247 204.868825 56.440451 L 206.790847 59.06692 C 208.115767 60.94448 209.945217 62.912 212.260375 64.985721 C 214.575534 67.059442 217.153111 68.200671 219.975576 68.40812 Z M 262.45757 67.388515 C 264.219673 67.39465 265.760046 66.82047 267.097507 65.649734 C 268.451212 64.497816 269.128164 62.961273 269.128364 61.040104 C 269.120561 58.74821 268.079728 56.362764 265.988332 53.882476 C 263.385965 51.399883 261.263646 49.340336 259.588889 47.666195 L 257.219069 45.37695 C 255.900355 44.134365 255.253238 43.346529 255.243947 42.993336 C 255.280805 42.731662 255.38521 42.510203 255.559738 42.293899 L 261.958278 35.572966 C 265.749205 31.956352 268.254211 28.809241 269.453187 26.165406 C 269.872602 25.015321 270.096602 23.886125 270.090123 22.77524 C 270.090832 20.60735 269.39831 18.758645 268.013846 17.211593 C 266.628094 15.682073 265.062931 14.914889 263.300828 14.908755 C 262.032165 14.903637 260.798836 15.377005 259.617083 16.34768 C 258.436619 17.300823 256.6774 18.934076 254.340717 21.229907 L 246.210797 29.445135 C 246.218764 28.61732 246.187804 27.83952 246.156844 27.061721 L 246.154231 25.898243 C 246.152907 24.717234 246.110587 23.374583 246.02727 21.870288 C 246.029539 20.160777 245.244989 18.604942 243.691152 17.204072 C 242.137314 15.803201 240.341673 15.054329 238.339292 14.960032 C 236.80509 14.970648 235.387433 15.553847 234.086322 16.70963 C 232.786498 17.847882 231.909484 19.228716 231.43646 20.868376 C 230.793316 23.623566 230.466344 29.750848 230.45812 39.215159 C 230.459788 43.269157 230.482072 47.04266 230.523684 50.553202 L 230.597108 57.46781 C 231.030677 64.038753 233.486118 67.321322 237.963432 67.315516 L 238.980221 67.390249 C 240.65467 67.389941 242.127496 66.775546 243.432473 65.567171 C 244.738739 64.341265 245.392226 62.644367 245.392935 60.476478 C 245.377709 59.964218 245.362483 59.451958 245.329726 58.93841 C 245.279439 58.423573 245.265501 57.893782 245.252852 57.346461 L 245.325517 56.118014 L 245.453387 56.05691 L 257.477996 65.594851 C 259.152481 66.793083 260.800651 67.390112 262.45757 67.388515 Z M 284.483488 67.949873 C 289.251604 67.824436 293.175899 66.949583 296.222599 65.305206 C 299.28683 63.662118 301.522975 61.535153 302.982336 58.945707 C 304.425455 56.337442 305.152387 53.641286 305.144312 50.873483 C 305.149631 47.683651 304.262945 44.639763 302.464148 41.775594 C 300.299508 38.373395 296.960338 36.083405 292.479122 34.943264 C 290.904432 34.545517 289.430281 33.978904 288.075489 33.227182 C 286.705743 32.439111 285.953169 31.167635 285.820346 29.377693 C 285.870089 28.94071 286.038683 28.56534 286.346235 28.217808 C 286.636256 27.868988 286.948454 27.698054 287.247767 27.702427 C 287.612049 27.782078 287.903122 28.138357 288.123564 28.736203 C 288.344006 29.334048 288.878206 30.219337 289.723588 31.427132 C 290.880151 32.957433 292.481663 33.709663 294.543079 33.720171 C 295.689026 33.71627 296.784178 33.444252 297.829822 32.886586 C 298.874177 32.346452 299.673609 31.541558 300.22554 30.506967 C 300.77876 29.454844 301.054064 28.347044 301.051451 27.183566 C 301.056297 25.438994 300.530064 23.72589 299.490282 22.045542 C 298.450501 20.365195 297.057018 18.940859 295.308544 17.790066 C 292.62551 16.165196 289.706607 15.35139 286.533017 15.364891 C 282.902337 15.362422 279.43849 16.447373 276.123945 18.618455 C 272.8094 20.789537 270.53823 24.112465 269.256554 28.600904 C 268.957277 29.795069 268.805978 30.894358 268.801368 31.916301 C 268.81416 37.25778 272.466888 41.756383 279.810856 45.433506 C 280.622701 45.898564 281.179314 46.239108 281.480695 46.455141 C 284.115783 48.252742 285.45152 49.743336 285.451556 50.941875 C 285.455693 51.365192 285.289676 51.705501 284.954794 51.94527 C 284.63873 52.168798 284.260275 52.281986 283.836958 52.286123 C 283.203271 52.274799 282.623973 52.003089 282.117883 51.454751 C 279.388663 48.539822 276.869341 47.085614 274.577447 47.093417 C 272.815344 47.087282 271.33994 47.73674 270.116175 49.039211 C 268.892409 50.341683 268.291515 52.042447 268.29596 54.140213 C 268.297864 57.47158 269.95411 60.836413 273.29847 64.254818 C 275.247278 66.03723 278.15923 67.18541 281.999263 67.696782 C 283.396576 67.869985 284.236768 67.949364 284.483488 67.949873 Z M 312.003788 52.029794 C 313.713298 52.032063 315.325083 51.445507 316.801503 50.302609 C 318.296742 49.143469 319.339265 47.669046 319.946602 45.880629 C 320.378903 44.555236 320.638472 43.181896 320.741553 41.779429 C 320.844633 40.376962 320.946661 38.269396 321.030106 35.455443 L 321.149865 31.427996 L 321.079742 31.422842 L 321.093808 27.634384 C 321.092447 25.254836 320.930733 22.898753 320.627483 20.549893 C 320.343052 18.184791 319.621911 16.245854 318.502987 14.683069 C 317.366532 13.118995 315.537118 12.350015 313.017323 12.341067 L 312.506352 12.338762 C 308.203838 12.604173 305.729757 15.330544 305.08282 20.535406 C 304.846479 22.79173 304.617634 25.665499 304.447587 29.178109 C 304.243803 33.86915 304.140014 37.439507 304.138797 39.854117 C 304.135004 42.303788 304.293869 44.219023 304.596575 45.616064 C 304.933054 47.033213 305.580443 48.296958 306.573802 49.409876 C 308.10187 51.161363 309.923552 52.035528 312.003788 52.029794 Z M 312.515441 74.804349 C 313.836696 74.813333 315.111021 74.501607 316.355947 73.870461 C 317.599584 73.256846 318.617117 72.362229 319.428653 71.152838 C 320.369857 69.618091 320.842881 67.978432 320.830197 66.232571 C 320.837112 64.699657 320.434375 63.224762 319.619409 61.842947 C 318.804443 60.461132 317.54039 59.434071 315.84607 58.745522 C 314.529696 58.190506 313.229057 57.901028 311.941575 57.912153 C 310.954694 57.91012 309.968593 58.137276 308.999515 58.612441 C 307.418418 59.500888 306.222492 60.664401 305.413024 62.085452 C 304.604845 63.488971 304.197297 64.957188 304.190383 66.490101 C 304.201271 68.500213 304.892504 70.366449 306.314098 72.127737 C 308.138902 73.918659 310.206016 74.810863 312.515441 74.804349 Z M 312.515441 74.804349 " stroke="#233d4d" stroke-width="3.2" stroke-opacity="1" stroke-miterlimit="4"/></svg>