<svg xmlns="http://www.w3.org/2000/svg" xmlns:xlink="http://www.w3.org/1999/xlink" width="128" zoomAndPan="magnify" viewBox="0 0 96 95.999999" height="128" preserveAspectRatio="xMidYMid meet" version="1.0"><defs><g/></defs><g fill="#ffffff" fill-opacity="1"><g transform="translate(0.341199, 54.830893)"><g><path d="M 1.71875 0.09375 C 2.070312 0.0703125 2.359375 -0.0664062 2.578125 -0.328125 C 2.804688 -0.597656 2.898438 -0.992188 2.859375 -1.515625 C 2.835938 -2.003906 2.820312 -2.359375 2.8125 -2.578125 C 2.789062 -2.867188 2.796875 -3.03125 2.828125 -3.0625 C 2.867188 -3.09375 3.300781 -3.132812 4.125 -3.1875 C 4.375 -3.207031 4.5625 -3.335938 4.6875 -3.578125 C 4.820312 -3.828125 4.878906 -4.132812 4.859375 -4.5 C 4.816406 -5.050781 4.601562 -5.398438 4.21875 -5.546875 C 4.070312 -5.585938 3.894531 -5.597656 3.6875 -5.578125 L 3.5625 -5.578125 C 3.050781 -5.535156 2.773438 -5.539062 2.734375 -5.59375 C 2.703125 -5.613281 2.679688 -5.65625 2.671875 -5.71875 C 2.660156 -5.957031 2.671875 -6.085938 2.703125 -6.109375 C 2.742188 -6.140625 2.796875 -6.160156 2.859375 -6.171875 C 3.296875 -6.203125 3.691406 -6.238281 4.046875 -6.28125 C 4.304688 -6.320312 4.546875 -6.425781 4.765625 -6.59375 C 5.097656 -6.84375 5.25 -7.222656 5.21875 -7.734375 C 5.195312 -8.023438 5.125 -8.253906 5 -8.421875 C 4.875 -8.597656 4.734375 -8.71875 4.578125 -8.78125 C 4.421875 -8.851562 4.269531 -8.882812 4.125 -8.875 L 2.875 -8.78125 C 2.28125 -8.726562 1.609375 -8.675781 0.859375 -8.625 C 0.585938 -8.601562 0.367188 -8.5 0.203125 -8.3125 C 0.0351562 -8.132812 -0.0546875 -7.910156 -0.078125 -7.640625 C -0.0664062 -7.585938 -0.0664062 -7.546875 -0.078125 -7.515625 C -0.0859375 -7.484375 -0.09375 -7.4375 -0.09375 -7.375 L -0.0625 -7.140625 C -0.0507812 -6.648438 -0.015625 -5.984375 0.046875 -5.140625 C 0.046875 -4.992188 0.0507812 -4.835938 0.0625 -4.671875 L 0.03125 -4.671875 C 0.15625 -3.066406 0.226562 -2.101562 0.25 -1.78125 C 0.28125 -1.363281 0.296875 -1.140625 0.296875 -1.109375 C 0.328125 -0.660156 0.46875 -0.335938 0.71875 -0.140625 C 0.96875 0.046875 1.300781 0.125 1.71875 0.09375 Z M 1.71875 0.09375 "/></g></g></g><g fill="#ffffff" fill-opacity="1"><g transform="translate(5.595237, 54.444725)"><g><path d="M 1.71875 -0.046875 C 1.957031 -0.0664062 2.179688 -0.148438 2.390625 -0.296875 C 2.609375 -0.441406 2.765625 -0.65625 2.859375 -0.9375 C 2.941406 -1.269531 2.972656 -1.570312 2.953125 -1.84375 L 2.953125 -1.984375 C 2.941406 -2.085938 2.941406 -2.175781 2.953125 -2.25 L 2.984375 -2.265625 C 3.066406 -2.128906 3.296875 -1.863281 3.671875 -1.46875 C 4.078125 -1.03125 4.375 -0.738281 4.5625 -0.59375 C 4.851562 -0.414062 5.132812 -0.332031 5.40625 -0.34375 C 5.71875 -0.375 5.984375 -0.503906 6.203125 -0.734375 C 6.421875 -0.972656 6.519531 -1.242188 6.5 -1.546875 C 6.488281 -1.722656 6.421875 -1.898438 6.296875 -2.078125 C 5.898438 -2.566406 5.601562 -2.910156 5.40625 -3.109375 C 5.1875 -3.335938 5.070312 -3.492188 5.0625 -3.578125 C 5.0625 -3.617188 5.117188 -3.695312 5.234375 -3.8125 C 5.359375 -3.9375 5.53125 -4.140625 5.75 -4.421875 C 6.09375 -4.953125 6.238281 -5.519531 6.1875 -6.125 C 6.144531 -6.757812 5.890625 -7.34375 5.421875 -7.875 C 4.960938 -8.40625 4.296875 -8.726562 3.421875 -8.84375 C 2.992188 -8.875 2.578125 -8.875 2.171875 -8.84375 C 1.921875 -8.820312 1.664062 -8.800781 1.40625 -8.78125 C 1.125 -8.738281 0.863281 -8.644531 0.625 -8.5 C 0.382812 -8.363281 0.195312 -8.179688 0.0625 -7.953125 C -0.0703125 -7.722656 -0.125 -7.4375 -0.09375 -7.09375 L 0.125 -3.578125 C 0.144531 -3.359375 0.160156 -3.203125 0.171875 -3.109375 C 0.179688 -3.015625 0.1875 -2.9375 0.1875 -2.875 C 0.195312 -2.820312 0.207031 -2.75 0.21875 -2.65625 C 0.226562 -2.5625 0.265625 -2.128906 0.328125 -1.359375 C 0.328125 -1.304688 0.335938 -1.238281 0.359375 -1.15625 C 0.390625 -1.082031 0.414062 -1.007812 0.4375 -0.9375 C 0.539062 -0.613281 0.710938 -0.378906 0.953125 -0.234375 C 1.203125 -0.0859375 1.457031 -0.0234375 1.71875 -0.046875 Z M 3 -4.875 C 2.925781 -4.882812 2.878906 -5.050781 2.859375 -5.375 C 2.816406 -5.882812 2.835938 -6.144531 2.921875 -6.15625 L 2.9375 -6.15625 C 3.03125 -6.164062 3.117188 -6.097656 3.203125 -5.953125 C 3.296875 -5.804688 3.347656 -5.675781 3.359375 -5.5625 C 3.367188 -5.394531 3.34375 -5.242188 3.28125 -5.109375 C 3.21875 -4.984375 3.125 -4.90625 3 -4.875 Z M 3 -4.875 "/></g></g></g><g fill="#ffffff" fill-opacity="1"><g transform="translate(11.919144, 53.979922)"><g><path d="M 3.171875 -0.015625 C 2.609375 0.0234375 2.070312 -0.128906 1.5625 -0.484375 C 1.0625 -0.835938 0.640625 -1.332031 0.296875 -1.96875 C -0.0351562 -2.601562 -0.226562 -3.328125 -0.28125 -4.140625 C -0.34375 -4.941406 -0.253906 -5.6875 -0.015625 -6.375 C 0.210938 -7.0625 0.550781 -7.617188 1 -8.046875 C 1.457031 -8.472656 1.96875 -8.707031 2.53125 -8.75 C 3.113281 -8.789062 3.65625 -8.632812 4.15625 -8.28125 C 4.664062 -7.925781 5.085938 -7.425781 5.421875 -6.78125 C 5.753906 -6.132812 5.953125 -5.410156 6.015625 -4.609375 C 6.066406 -3.796875 5.976562 -3.050781 5.75 -2.375 C 5.519531 -1.695312 5.175781 -1.144531 4.71875 -0.71875 C 4.269531 -0.289062 3.753906 -0.0546875 3.171875 -0.015625 Z M 2.953125 -3.453125 C 3.054688 -3.460938 3.132812 -3.550781 3.1875 -3.71875 C 3.238281 -3.894531 3.257812 -4.101562 3.25 -4.34375 C 3.226562 -4.582031 3.175781 -4.785156 3.09375 -4.953125 C 3.019531 -5.117188 2.929688 -5.195312 2.828125 -5.1875 C 2.722656 -5.175781 2.640625 -5.082031 2.578125 -4.90625 C 2.523438 -4.726562 2.507812 -4.519531 2.53125 -4.28125 C 2.539062 -4.039062 2.585938 -3.835938 2.671875 -3.671875 C 2.753906 -3.515625 2.847656 -3.441406 2.953125 -3.453125 Z M 2.953125 -3.453125 "/></g></g></g><g fill="#ffffff" fill-opacity="1"><g transform="translate(17.935857, 53.537697)"><g><path d="M 1.71875 0.0625 C 2.164062 0.03125 2.503906 -0.125 2.734375 -0.40625 C 2.960938 -0.695312 3.070312 -1.085938 3.0625 -1.578125 L 3 -2.703125 C 3 -2.742188 3.019531 -2.765625 3.0625 -2.765625 L 3.125 -2.765625 C 3.195312 -2.710938 3.28125 -2.644531 3.375 -2.5625 C 3.507812 -2.4375 3.660156 -2.304688 3.828125 -2.171875 C 4.003906 -2.046875 4.1875 -1.988281 4.375 -2 C 4.519531 -2.03125 4.664062 -2.109375 4.8125 -2.234375 C 4.96875 -2.359375 5.109375 -2.492188 5.234375 -2.640625 C 5.367188 -2.785156 5.492188 -2.90625 5.609375 -3 L 5.671875 -3.03125 C 5.753906 -3.03125 5.800781 -2.992188 5.8125 -2.921875 L 5.8125 -2.75 C 5.8125 -2.65625 5.816406 -2.554688 5.828125 -2.453125 C 5.890625 -1.910156 5.957031 -1.519531 6.03125 -1.28125 C 6.101562 -1.039062 6.222656 -0.84375 6.390625 -0.6875 C 6.679688 -0.46875 6.992188 -0.367188 7.328125 -0.390625 C 7.566406 -0.410156 7.78125 -0.492188 7.96875 -0.640625 C 8.164062 -0.785156 8.289062 -1.003906 8.34375 -1.296875 L 8.359375 -1.34375 C 8.359375 -1.382812 8.363281 -1.453125 8.375 -1.546875 C 8.414062 -2.035156 8.335938 -3.816406 8.140625 -6.890625 C 8.097656 -7.328125 8.050781 -7.671875 8 -7.921875 C 7.957031 -8.171875 7.867188 -8.398438 7.734375 -8.609375 C 7.515625 -8.929688 7.21875 -9.078125 6.84375 -9.046875 C 6.644531 -9.035156 6.445312 -8.972656 6.25 -8.859375 C 6.0625 -8.742188 5.890625 -8.5625 5.734375 -8.3125 C 5.171875 -7.375 4.785156 -6.726562 4.578125 -6.375 C 4.335938 -5.976562 4.195312 -5.757812 4.15625 -5.71875 C 4.113281 -5.6875 4.085938 -5.671875 4.078125 -5.671875 C 4.066406 -5.671875 4.046875 -5.679688 4.015625 -5.703125 C 3.992188 -5.722656 3.96875 -5.742188 3.9375 -5.765625 L 1.984375 -8.1875 C 1.828125 -8.375 1.65625 -8.503906 1.46875 -8.578125 C 1.289062 -8.660156 1.113281 -8.691406 0.9375 -8.671875 C 0.65625 -8.648438 0.421875 -8.53125 0.234375 -8.3125 C 0.117188 -8.175781 0.0351562 -7.976562 -0.015625 -7.71875 C -0.078125 -7.457031 -0.09375 -7.019531 -0.0625 -6.40625 C 0.125 -3.914062 0.226562 -2.429688 0.25 -1.953125 L 0.28125 -1.421875 C 0.300781 -1.253906 0.316406 -1.148438 0.328125 -1.109375 C 0.429688 -0.703125 0.628906 -0.398438 0.921875 -0.203125 C 1.222656 -0.00390625 1.488281 0.0820312 1.71875 0.0625 Z M 1.71875 0.0625 "/></g></g></g><g fill="#ffffff" fill-opacity="1"><g transform="translate(26.516032, 52.907061)"><g/></g></g><g fill="#ffffff" fill-opacity="1"><g transform="translate(30.223514, 52.634563)"><g><path d="M 3.390625 -0.265625 C 3.828125 -0.296875 4.195312 -0.359375 4.5 -0.453125 C 5.144531 -0.679688 5.609375 -1.050781 5.890625 -1.5625 C 6.179688 -2.070312 6.304688 -2.609375 6.265625 -3.171875 C 6.234375 -3.585938 6.113281 -3.988281 5.90625 -4.375 C 5.707031 -4.769531 5.414062 -5.09375 5.03125 -5.34375 C 4.96875 -5.382812 4.921875 -5.414062 4.890625 -5.4375 C 4.859375 -5.46875 4.84375 -5.5 4.84375 -5.53125 C 4.832031 -5.582031 4.847656 -5.648438 4.890625 -5.734375 C 5.015625 -6.078125 5.0625 -6.410156 5.03125 -6.734375 C 5 -7.234375 4.8125 -7.671875 4.46875 -8.046875 C 4.132812 -8.421875 3.6875 -8.664062 3.125 -8.78125 C 2.84375 -8.832031 2.566406 -8.847656 2.296875 -8.828125 C 2.128906 -8.816406 1.953125 -8.796875 1.765625 -8.765625 C 1.578125 -8.734375 1.382812 -8.710938 1.1875 -8.703125 C 0.832031 -8.648438 0.53125 -8.53125 0.28125 -8.34375 C 0.0390625 -8.15625 -0.09375 -7.882812 -0.125 -7.53125 C -0.144531 -7.351562 -0.0976562 -6.484375 0.015625 -4.921875 L 0.046875 -4.21875 L 0.28125 -1.234375 C 0.3125 -0.828125 0.441406 -0.535156 0.671875 -0.359375 C 0.898438 -0.191406 1.140625 -0.117188 1.390625 -0.140625 Z M 2.953125 -2.53125 C 2.910156 -2.519531 2.890625 -2.535156 2.890625 -2.578125 L 2.8125 -3.515625 C 2.8125 -3.609375 2.8125 -3.679688 2.8125 -3.734375 C 2.8125 -3.796875 2.832031 -3.828125 2.875 -3.828125 C 3.007812 -3.828125 3.125 -3.769531 3.21875 -3.65625 C 3.3125 -3.539062 3.363281 -3.394531 3.375 -3.21875 C 3.382812 -3.09375 3.359375 -2.96875 3.296875 -2.84375 C 3.242188 -2.71875 3.140625 -2.617188 2.984375 -2.546875 Z M 2.671875 -5.75 L 2.609375 -6.71875 C 2.835938 -6.726562 2.960938 -6.570312 2.984375 -6.25 C 2.992188 -6.132812 2.976562 -6.019531 2.9375 -5.90625 C 2.894531 -5.800781 2.804688 -5.75 2.671875 -5.75 Z M 2.671875 -5.75 "/></g></g></g><g fill="#ffffff" fill-opacity="1"><g transform="translate(36.30379, 52.187667)"><g><path d="M 3.390625 -0.265625 C 3.828125 -0.296875 4.195312 -0.359375 4.5 -0.453125 C 5.144531 -0.679688 5.609375 -1.050781 5.890625 -1.5625 C 6.179688 -2.070312 6.304688 -2.609375 6.265625 -3.171875 C 6.234375 -3.585938 6.113281 -3.988281 5.90625 -4.375 C 5.707031 -4.769531 5.414062 -5.09375 5.03125 -5.34375 C 4.96875 -5.382812 4.921875 -5.414062 4.890625 -5.4375 C 4.859375 -5.46875 4.84375 -5.5 4.84375 -5.53125 C 4.832031 -5.582031 4.847656 -5.648438 4.890625 -5.734375 C 5.015625 -6.078125 5.0625 -6.410156 5.03125 -6.734375 C 5 -7.234375 4.8125 -7.671875 4.46875 -8.046875 C 4.132812 -8.421875 3.6875 -8.664062 3.125 -8.78125 C 2.84375 -8.832031 2.566406 -8.847656 2.296875 -8.828125 C 2.128906 -8.816406 1.953125 -8.796875 1.765625 -8.765625 C 1.578125 -8.734375 1.382812 -8.710938 1.1875 -8.703125 C 0.832031 -8.648438 0.53125 -8.53125 0.28125 -8.34375 C 0.0390625 -8.15625 -0.09375 -7.882812 -0.125 -7.53125 C -0.144531 -7.351562 -0.0976562 -6.484375 0.015625 -4.921875 L 0.046875 -4.21875 L 0.28125 -1.234375 C 0.3125 -0.828125 0.441406 -0.535156 0.671875 -0.359375 C 0.898438 -0.191406 1.140625 -0.117188 1.390625 -0.140625 Z M 2.953125 -2.53125 C 2.910156 -2.519531 2.890625 -2.535156 2.890625 -2.578125 L 2.8125 -3.515625 C 2.8125 -3.609375 2.8125 -3.679688 2.8125 -3.734375 C 2.8125 -3.796875 2.832031 -3.828125 2.875 -3.828125 C 3.007812 -3.828125 3.125 -3.769531 3.21875 -3.65625 C 3.3125 -3.539062 3.363281 -3.394531 3.375 -3.21875 C 3.382812 -3.09375 3.359375 -2.96875 3.296875 -2.84375 C 3.242188 -2.71875 3.140625 -2.617188 2.984375 -2.546875 Z M 2.671875 -5.75 L 2.609375 -6.71875 C 2.835938 -6.726562 2.960938 -6.570312 2.984375 -6.25 C 2.992188 -6.132812 2.976562 -6.019531 2.9375 -5.90625 C 2.894531 -5.800781 2.804688 -5.75 2.671875 -5.75 Z M 2.671875 -5.75 "/></g></g></g><g fill="#ffffff" fill-opacity="1"><g transform="translate(42.384066, 51.740771)"><g><path d="M 1.21875 1 C 1.488281 0.96875 1.703125 0.851562 1.859375 0.65625 C 2.023438 0.46875 2.101562 0.242188 2.09375 -0.015625 C 2.070312 -0.273438 1.960938 -0.484375 1.765625 -0.640625 C 1.578125 -0.804688 1.347656 -0.878906 1.078125 -0.859375 C 0.816406 -0.847656 0.601562 -0.742188 0.4375 -0.546875 C 0.28125 -0.359375 0.210938 -0.132812 0.234375 0.125 C 0.253906 0.394531 0.359375 0.609375 0.546875 0.765625 C 0.734375 0.921875 0.957031 1 1.21875 1 Z M 1.21875 1 "/></g></g></g><g fill="#ffffff" fill-opacity="1"><g transform="translate(44.142473, 51.611529)"><g><path d="M 5.921875 -0.21875 C 5.703125 -0.195312 5.492188 -0.226562 5.296875 -0.3125 C 5.109375 -0.40625 4.925781 -0.507812 4.75 -0.625 C 4.726562 -0.644531 4.707031 -0.65625 4.6875 -0.65625 L 4.640625 -0.640625 C 4.191406 -0.265625 3.703125 -0.0546875 3.171875 -0.015625 C 2.609375 0.0234375 2.070312 -0.128906 1.5625 -0.484375 C 1.050781 -0.835938 0.628906 -1.332031 0.296875 -1.96875 C -0.0351562 -2.601562 -0.226562 -3.328125 -0.28125 -4.140625 C -0.34375 -4.941406 -0.257812 -5.6875 -0.03125 -6.375 C 0.195312 -7.0625 0.539062 -7.617188 1 -8.046875 C 1.457031 -8.472656 1.96875 -8.707031 2.53125 -8.75 C 3.113281 -8.789062 3.65625 -8.632812 4.15625 -8.28125 C 4.664062 -7.925781 5.085938 -7.425781 5.421875 -6.78125 C 5.753906 -6.132812 5.953125 -5.410156 6.015625 -4.609375 C 6.035156 -4.242188 6.023438 -3.941406 5.984375 -3.703125 C 5.941406 -3.460938 5.878906 -3.195312 5.796875 -2.90625 L 5.8125 -2.875 C 5.8125 -2.84375 5.820312 -2.8125 5.84375 -2.78125 L 6.625 -1.984375 C 6.8125 -1.785156 6.910156 -1.578125 6.921875 -1.359375 C 6.929688 -1.179688 6.890625 -0.972656 6.796875 -0.734375 C 6.734375 -0.585938 6.617188 -0.46875 6.453125 -0.375 C 6.296875 -0.28125 6.117188 -0.226562 5.921875 -0.21875 Z M 2.953125 -3.453125 C 3.046875 -3.460938 3.117188 -3.550781 3.171875 -3.71875 C 3.234375 -3.894531 3.257812 -4.101562 3.25 -4.34375 C 3.226562 -4.582031 3.175781 -4.785156 3.09375 -4.953125 C 3.007812 -5.117188 2.921875 -5.195312 2.828125 -5.1875 C 2.710938 -5.175781 2.628906 -5.082031 2.578125 -4.90625 C 2.523438 -4.726562 2.507812 -4.519531 2.53125 -4.28125 C 2.539062 -4.039062 2.582031 -3.835938 2.65625 -3.671875 C 2.738281 -3.515625 2.835938 -3.441406 2.953125 -3.453125 Z M 2.953125 -3.453125 "/></g></g></g><g fill="#ffffff" fill-opacity="1"><g transform="translate(50.582896, 51.138163)"><g/></g></g><g fill="#ffffff" fill-opacity="1"><g transform="translate(54.290375, 50.865666)"><g><path d="M 3.296875 -0.0625 C 3.796875 -0.101562 4.265625 -0.257812 4.703125 -0.53125 C 5.148438 -0.8125 5.507812 -1.191406 5.78125 -1.671875 C 6.0625 -2.160156 6.1875 -2.617188 6.15625 -3.046875 C 6.113281 -3.523438 5.867188 -3.859375 5.421875 -4.046875 C 5.203125 -4.109375 5.019531 -4.132812 4.875 -4.125 C 4.65625 -4.113281 4.476562 -4.039062 4.34375 -3.90625 C 4.21875 -3.78125 4.109375 -3.644531 4.015625 -3.5 C 3.953125 -3.394531 3.890625 -3.3125 3.828125 -3.25 C 3.765625 -3.1875 3.691406 -3.144531 3.609375 -3.125 C 3.503906 -3.113281 3.363281 -3.144531 3.1875 -3.21875 C 3.007812 -3.289062 2.851562 -3.414062 2.71875 -3.59375 C 2.59375 -3.769531 2.519531 -4.015625 2.5 -4.328125 C 2.488281 -4.492188 2.503906 -4.675781 2.546875 -4.875 C 2.597656 -5.070312 2.675781 -5.25 2.78125 -5.40625 C 2.882812 -5.5625 3.007812 -5.644531 3.15625 -5.65625 C 3.25 -5.65625 3.34375 -5.628906 3.4375 -5.578125 C 3.644531 -5.472656 3.851562 -5.429688 4.0625 -5.453125 C 4.21875 -5.460938 4.40625 -5.515625 4.625 -5.609375 C 4.882812 -5.710938 5.066406 -5.867188 5.171875 -6.078125 C 5.285156 -6.296875 5.332031 -6.53125 5.3125 -6.78125 C 5.289062 -7.0625 5.191406 -7.328125 5.015625 -7.578125 C 4.691406 -8.003906 4.316406 -8.3125 3.890625 -8.5 C 3.472656 -8.6875 3.050781 -8.765625 2.625 -8.734375 C 2.164062 -8.703125 1.726562 -8.546875 1.3125 -8.265625 C 0.894531 -7.984375 0.554688 -7.582031 0.296875 -7.0625 C -0.171875 -6.113281 -0.363281 -5.097656 -0.28125 -4.015625 C -0.21875 -3.234375 -0.0078125 -2.484375 0.34375 -1.765625 C 0.65625 -1.148438 1.082031 -0.703125 1.625 -0.421875 C 2.175781 -0.140625 2.734375 -0.0195312 3.296875 -0.0625 Z M 3.296875 -0.0625 "/></g></g></g><g fill="#ffffff" fill-opacity="1"><g transform="translate(60.211754, 50.430448)"><g><path d="M 1.625 0.046875 C 1.96875 0.0234375 2.28125 -0.0820312 2.5625 -0.28125 C 2.851562 -0.488281 3.003906 -0.800781 3.015625 -1.21875 C 2.992188 -1.570312 2.972656 -1.863281 2.953125 -2.09375 C 2.941406 -2.320312 2.9375 -2.492188 2.9375 -2.609375 C 2.9375 -2.734375 2.96875 -2.796875 3.03125 -2.796875 L 3.40625 -2.84375 C 3.46875 -2.84375 3.507812 -2.835938 3.53125 -2.828125 C 3.550781 -2.828125 3.5625 -2.8125 3.5625 -2.78125 L 3.59375 -2.421875 C 3.632812 -1.804688 3.679688 -1.351562 3.734375 -1.0625 C 3.828125 -0.75 4 -0.523438 4.25 -0.390625 C 4.507812 -0.253906 4.789062 -0.195312 5.09375 -0.21875 C 5.3125 -0.226562 5.519531 -0.289062 5.71875 -0.40625 C 6.15625 -0.632812 6.351562 -1.003906 6.3125 -1.515625 C 6.226562 -2.703125 6.160156 -3.664062 6.109375 -4.40625 C 6.078125 -5.039062 6.015625 -5.992188 5.921875 -7.265625 C 5.890625 -7.710938 5.789062 -8.054688 5.625 -8.296875 C 5.34375 -8.722656 4.9375 -8.921875 4.40625 -8.890625 C 4.195312 -8.867188 4.007812 -8.820312 3.84375 -8.75 C 3.6875 -8.675781 3.578125 -8.601562 3.515625 -8.53125 C 3.378906 -8.320312 3.300781 -8.066406 3.28125 -7.765625 C 3.257812 -7.472656 3.257812 -7.191406 3.28125 -6.921875 L 3.390625 -5.515625 C 3.421875 -5.085938 3.40625 -4.867188 3.34375 -4.859375 L 3.015625 -4.828125 C 2.910156 -4.816406 2.847656 -4.820312 2.828125 -4.84375 C 2.804688 -4.875 2.796875 -4.929688 2.796875 -5.015625 L 2.671875 -6.8125 L 2.625 -7.46875 C 2.601562 -7.78125 2.503906 -8.03125 2.328125 -8.21875 C 2.148438 -8.40625 1.9375 -8.53125 1.6875 -8.59375 C 1.4375 -8.664062 1.191406 -8.691406 0.953125 -8.671875 C 0.617188 -8.648438 0.351562 -8.484375 0.15625 -8.171875 C -0.03125 -7.859375 -0.113281 -7.457031 -0.09375 -6.96875 L 0.15625 -3.0625 C 0.1875 -2.644531 0.222656 -2.128906 0.265625 -1.515625 C 0.296875 -1.160156 0.332031 -0.878906 0.375 -0.671875 C 0.425781 -0.472656 0.53125 -0.304688 0.6875 -0.171875 C 0.9375 0.00390625 1.25 0.078125 1.625 0.046875 Z M 1.625 0.046875 "/></g></g></g><g fill="#ffffff" fill-opacity="1"><g transform="translate(66.641589, 49.95786)"><g><path d="M 1.625 -0.03125 C 1.875 -0.0390625 2.101562 -0.0976562 2.3125 -0.203125 C 2.53125 -0.316406 2.695312 -0.503906 2.8125 -0.765625 C 2.9375 -1.035156 2.976562 -1.40625 2.9375 -1.875 C 2.90625 -2.625 2.859375 -3.429688 2.796875 -4.296875 C 2.679688 -5.878906 2.582031 -6.992188 2.5 -7.640625 C 2.445312 -7.984375 2.289062 -8.253906 2.03125 -8.453125 C 1.769531 -8.660156 1.453125 -8.75 1.078125 -8.71875 C 0.710938 -8.6875 0.421875 -8.546875 0.203125 -8.296875 C -0.015625 -8.054688 -0.128906 -7.75 -0.140625 -7.375 C -0.148438 -7.257812 -0.148438 -7.148438 -0.140625 -7.046875 C -0.140625 -6.953125 -0.132812 -6.828125 -0.125 -6.671875 C -0.125 -6.515625 -0.113281 -6.285156 -0.09375 -5.984375 L 0.234375 -1.921875 L 0.25 -1.640625 C 0.289062 -1.128906 0.410156 -0.722656 0.609375 -0.421875 C 0.804688 -0.117188 1.144531 0.0078125 1.625 -0.03125 Z M 1.625 -0.03125 "/></g></g></g><g fill="#ffffff" fill-opacity="1"><g transform="translate(69.77706, 49.727405)"><g><path d="M 3.296875 -0.0625 C 3.796875 -0.101562 4.265625 -0.257812 4.703125 -0.53125 C 5.148438 -0.8125 5.507812 -1.191406 5.78125 -1.671875 C 6.0625 -2.160156 6.1875 -2.617188 6.15625 -3.046875 C 6.113281 -3.523438 5.867188 -3.859375 5.421875 -4.046875 C 5.203125 -4.109375 5.019531 -4.132812 4.875 -4.125 C 4.65625 -4.113281 4.476562 -4.039062 4.34375 -3.90625 C 4.21875 -3.78125 4.109375 -3.644531 4.015625 -3.5 C 3.953125 -3.394531 3.890625 -3.3125 3.828125 -3.25 C 3.765625 -3.1875 3.691406 -3.144531 3.609375 -3.125 C 3.503906 -3.113281 3.363281 -3.144531 3.1875 -3.21875 C 3.007812 -3.289062 2.851562 -3.414062 2.71875 -3.59375 C 2.59375 -3.769531 2.519531 -4.015625 2.5 -4.328125 C 2.488281 -4.492188 2.503906 -4.675781 2.546875 -4.875 C 2.597656 -5.070312 2.675781 -5.25 2.78125 -5.40625 C 2.882812 -5.5625 3.007812 -5.644531 3.15625 -5.65625 C 3.25 -5.65625 3.34375 -5.628906 3.4375 -5.578125 C 3.644531 -5.472656 3.851562 -5.429688 4.0625 -5.453125 C 4.21875 -5.460938 4.40625 -5.515625 4.625 -5.609375 C 4.882812 -5.710938 5.066406 -5.867188 5.171875 -6.078125 C 5.285156 -6.296875 5.332031 -6.53125 5.3125 -6.78125 C 5.289062 -7.0625 5.191406 -7.328125 5.015625 -7.578125 C 4.691406 -8.003906 4.316406 -8.3125 3.890625 -8.5 C 3.472656 -8.6875 3.050781 -8.765625 2.625 -8.734375 C 2.164062 -8.703125 1.726562 -8.546875 1.3125 -8.265625 C 0.894531 -7.984375 0.554688 -7.582031 0.296875 -7.0625 C -0.171875 -6.113281 -0.363281 -5.097656 -0.28125 -4.015625 C -0.21875 -3.234375 -0.0078125 -2.484375 0.34375 -1.765625 C 0.65625 -1.148438 1.082031 -0.703125 1.625 -0.421875 C 2.175781 -0.140625 2.734375 -0.0195312 3.296875 -0.0625 Z M 3.296875 -0.0625 "/></g></g></g><g fill="#ffffff" fill-opacity="1"><g transform="translate(75.698438, 49.292188)"><g><path d="M 5.671875 -0.359375 C 5.960938 -0.378906 6.210938 -0.492188 6.421875 -0.703125 C 6.640625 -0.910156 6.734375 -1.171875 6.703125 -1.484375 C 6.679688 -1.867188 6.476562 -2.25 6.09375 -2.625 C 5.632812 -3.007812 5.253906 -3.320312 4.953125 -3.5625 L 4.53125 -3.9375 C 4.300781 -4.125 4.179688 -4.242188 4.171875 -4.296875 C 4.179688 -4.335938 4.195312 -4.375 4.21875 -4.40625 L 5.203125 -5.609375 C 5.785156 -6.265625 6.160156 -6.816406 6.328125 -7.265625 C 6.390625 -7.460938 6.414062 -7.65625 6.40625 -7.84375 C 6.375 -8.207031 6.234375 -8.503906 5.984375 -8.734375 C 5.734375 -8.972656 5.460938 -9.082031 5.171875 -9.0625 C 4.953125 -9.050781 4.753906 -8.957031 4.578125 -8.78125 C 4.398438 -8.601562 4.125 -8.304688 3.75 -7.890625 L 2.515625 -6.4375 C 2.503906 -6.570312 2.488281 -6.703125 2.46875 -6.828125 L 2.453125 -7.03125 C 2.441406 -7.226562 2.421875 -7.445312 2.390625 -7.6875 C 2.367188 -7.976562 2.222656 -8.226562 1.953125 -8.4375 C 1.679688 -8.644531 1.375 -8.75 1.03125 -8.75 C 0.78125 -8.726562 0.550781 -8.613281 0.34375 -8.40625 C 0.144531 -8.195312 0.0195312 -7.953125 -0.03125 -7.671875 C -0.101562 -7.210938 -0.0820312 -6.195312 0.03125 -4.625 C 0.0820312 -3.957031 0.128906 -3.335938 0.171875 -2.765625 L 0.28125 -1.609375 C 0.425781 -0.523438 0.867188 -0.015625 1.609375 -0.078125 L 1.78125 -0.0625 C 2.0625 -0.0820312 2.300781 -0.203125 2.5 -0.421875 C 2.695312 -0.640625 2.785156 -0.925781 2.765625 -1.28125 C 2.753906 -1.375 2.742188 -1.460938 2.734375 -1.546875 C 2.722656 -1.628906 2.710938 -1.71875 2.703125 -1.8125 L 2.703125 -2.015625 L 2.71875 -2.015625 L 4.828125 -0.59375 C 5.109375 -0.414062 5.390625 -0.335938 5.671875 -0.359375 Z M 5.671875 -0.359375 "/></g></g></g><g fill="#ffffff" fill-opacity="1"><g transform="translate(82.202423, 48.814149)"><g><path d="M 2.296875 0.0625 C 2.597656 0.0390625 2.953125 0.0078125 3.359375 -0.03125 C 3.648438 -0.0625 3.976562 -0.09375 4.34375 -0.125 C 4.707031 -0.15625 5.015625 -0.285156 5.265625 -0.515625 C 5.515625 -0.753906 5.625 -1.070312 5.59375 -1.46875 C 5.5625 -1.851562 5.4375 -2.164062 5.21875 -2.40625 C 5 -2.65625 4.726562 -2.789062 4.40625 -2.8125 C 3.757812 -2.757812 3.253906 -2.726562 2.890625 -2.71875 C 2.835938 -2.71875 2.804688 -2.738281 2.796875 -2.78125 C 2.785156 -2.820312 2.773438 -2.878906 2.765625 -2.953125 C 2.765625 -3.023438 2.769531 -3.070312 2.78125 -3.09375 C 2.789062 -3.113281 2.828125 -3.128906 2.890625 -3.140625 C 2.953125 -3.148438 3.054688 -3.164062 3.203125 -3.1875 L 3.703125 -3.234375 C 3.785156 -3.242188 3.910156 -3.253906 4.078125 -3.265625 C 4.242188 -3.273438 4.414062 -3.316406 4.59375 -3.390625 C 4.957031 -3.523438 5.113281 -3.9375 5.0625 -4.625 C 5.039062 -4.925781 4.972656 -5.144531 4.859375 -5.28125 C 4.640625 -5.488281 4.316406 -5.578125 3.890625 -5.546875 C 3.421875 -5.515625 3.109375 -5.5 2.953125 -5.5 C 2.804688 -5.5 2.71875 -5.515625 2.6875 -5.546875 C 2.664062 -5.578125 2.648438 -5.628906 2.640625 -5.703125 L 2.640625 -5.734375 L 2.609375 -5.90625 C 2.609375 -5.957031 2.640625 -5.992188 2.703125 -6.015625 C 2.847656 -6.023438 3.054688 -6.050781 3.328125 -6.09375 C 3.679688 -6.144531 4 -6.179688 4.28125 -6.203125 C 4.59375 -6.222656 4.820312 -6.328125 4.96875 -6.515625 C 5.195312 -6.773438 5.296875 -7.109375 5.265625 -7.515625 C 5.234375 -7.890625 5.132812 -8.175781 4.96875 -8.375 C 4.625 -8.738281 4.109375 -8.894531 3.421875 -8.84375 L 0.890625 -8.65625 C 0.210938 -8.5625 -0.140625 -8.253906 -0.171875 -7.734375 C -0.171875 -7.617188 -0.148438 -7.265625 -0.109375 -6.671875 C -0.0859375 -6.335938 -0.0625 -6 -0.03125 -5.65625 C -0.0078125 -5.320312 0.0078125 -5.035156 0.03125 -4.796875 C 0.0507812 -4.566406 0.0664062 -4.453125 0.078125 -4.453125 L 0.21875 -2.3125 C 0.28125 -1.570312 0.359375 -1.023438 0.453125 -0.671875 C 0.554688 -0.328125 0.75 -0.109375 1.03125 -0.015625 C 1.3125 0.078125 1.734375 0.101562 2.296875 0.0625 Z M 2.296875 0.0625 "/></g></g></g><g fill="#ffffff" fill-opacity="1"><g transform="translate(87.668314, 48.41241)"><g><path d="M 6.59375 -0.25 C 6.988281 -0.28125 7.269531 -0.410156 7.4375 -0.640625 C 7.613281 -0.867188 7.710938 -1.238281 7.734375 -1.75 C 7.765625 -2.269531 7.75 -2.96875 7.6875 -3.84375 C 7.59375 -5.039062 7.523438 -5.847656 7.484375 -6.265625 L 7.390625 -7.84375 C 7.367188 -8.132812 7.210938 -8.398438 6.921875 -8.640625 C 6.640625 -8.890625 6.304688 -9.003906 5.921875 -8.984375 C 5.234375 -8.929688 4.816406 -8.550781 4.671875 -7.84375 C 4.585938 -7.4375 4.570312 -6.707031 4.625 -5.65625 C 4.632812 -5.46875 4.585938 -5.359375 4.484375 -5.328125 C 4.441406 -5.316406 4.378906 -5.359375 4.296875 -5.453125 L 3.984375 -5.828125 C 2.742188 -7.347656 1.960938 -8.21875 1.640625 -8.4375 C 1.410156 -8.570312 1.160156 -8.628906 0.890625 -8.609375 C 0.710938 -8.597656 0.539062 -8.539062 0.375 -8.4375 C 0.21875 -8.34375 0.09375 -8.1875 0 -7.96875 C -0.0820312 -7.757812 -0.113281 -7.476562 -0.09375 -7.125 C -0.09375 -7.125 -0.078125 -6.863281 -0.046875 -6.34375 C -0.015625 -5.832031 0.0195312 -5.226562 0.0625 -4.53125 C 0.113281 -3.832031 0.160156 -3.210938 0.203125 -2.671875 C 0.253906 -1.890625 0.285156 -1.5 0.296875 -1.5 C 0.316406 -1.289062 0.363281 -1.050781 0.4375 -0.78125 C 0.644531 -0.132812 1.097656 0.160156 1.796875 0.109375 C 2.234375 0.078125 2.546875 -0.078125 2.734375 -0.359375 C 2.921875 -0.648438 3.003906 -0.972656 2.984375 -1.328125 C 2.960938 -1.628906 2.945312 -2.085938 2.9375 -2.703125 L 2.9375 -2.765625 C 2.9375 -2.796875 2.941406 -2.835938 2.953125 -2.890625 C 2.972656 -2.941406 3.003906 -2.96875 3.046875 -2.96875 C 3.066406 -2.96875 3.09375 -2.957031 3.125 -2.9375 C 3.414062 -2.675781 3.691406 -2.378906 3.953125 -2.046875 L 4.296875 -1.640625 C 4.535156 -1.335938 4.859375 -1.03125 5.265625 -0.71875 C 5.679688 -0.40625 6.125 -0.25 6.59375 -0.25 Z M 6.59375 -0.25 "/></g></g></g><path stroke-linecap="butt" transform="matrix(0.662049, -0.0486602, 0.0486602, 0.662049, -2.589023, 44.396251)" fill="none" stroke-linejoin="miter" d="M 5.807474 16.337198 C 6.350399 16.335801 6.806499 16.151015 7.169905 15.782409 C 7.533311 15.413803 7.717289 14.837301 7.716403 14.046604 C 7.746845 13.311311 7.762191 12.781418 7.762872 12.451054 C 7.759579 12.014194 7.789001 11.774447 7.844837 11.737249 C 7.906542 11.700483 8.557257 11.677507 9.790252 11.679627 C 10.167995 11.67789 10.470218 11.499495 10.697354 11.138574 C 10.93079 10.772216 11.041156 10.314208 11.040621 9.759546 C 11.042754 8.927769 10.757942 8.387615 10.19749 8.145814 C 9.979662 8.059 9.723172 8.016548 9.428019 8.018455 L 9.233495 8.015958 C 8.466272 8.01857 8.044599 7.975777 7.967616 7.899316 C 7.928262 7.872822 7.909101 7.812412 7.903834 7.723521 C 7.907533 7.352078 7.940236 7.147973 8.00194 7.111206 C 8.063645 7.07444 8.14753 7.057004 8.242289 7.052169 C 8.903016 7.05353 9.494184 7.037978 10.021659 7.005944 C 10.425033 6.976589 10.793798 6.856187 11.134252 6.6393 C 11.660683 6.300377 11.92009 5.74122 11.924209 4.962691 C 11.920916 4.525831 11.840731 4.171823 11.677354 3.906105 C 11.519845 3.640818 11.328249 3.437928 11.095403 3.314609 C 10.868857 3.185854 10.643434 3.122083 10.419136 3.123298 L 8.547594 3.139148 C 7.638232 3.149013 6.623236 3.151115 5.490438 3.150458 C 5.071184 3.155045 4.731331 3.283472 4.464148 3.547046 C 4.197397 3.804751 4.037835 4.129337 3.986324 4.509067 C 3.974848 4.584927 3.958366 4.648618 3.942747 4.700572 C 3.92756 4.746658 3.921952 4.822949 3.920057 4.929014 L 3.924813 5.265677 C 3.88764 6.012276 3.872998 7.01424 3.875021 8.27114 C 3.864499 8.494576 3.858551 8.736049 3.857609 8.98969 L 3.821967 8.992971 C 3.827045 11.412443 3.819839 12.875173 3.80665 13.375724 C 3.808308 13.995371 3.813065 14.332035 3.82722 14.380277 C 3.824996 15.052741 3.995026 15.549058 4.343608 15.86379 C 4.692191 16.178523 5.181959 16.338425 5.807474 16.337198 Z M 13.782363 16.126815 C 14.142069 16.129652 14.485634 16.030999 14.813057 15.830855 C 15.13418 15.636148 15.392645 15.330632 15.587158 14.931912 C 15.759229 14.437138 15.839821 13.982843 15.841103 13.56402 L 15.843169 13.375364 C 15.843078 13.216051 15.84713 13.080643 15.860762 12.97544 L 15.939641 12.945837 C 16.054946 13.143119 16.371859 13.567628 16.879506 14.206765 C 17.42435 14.901737 17.838441 15.36879 18.115046 15.61923 C 18.529045 15.92697 18.942522 16.081265 19.34417 16.075385 C 19.81581 16.080549 20.229536 15.910349 20.584485 15.576523 C 20.945735 15.23726 21.121779 14.848982 21.125218 14.400817 C 21.121153 14.135007 21.04123 13.857722 20.879578 13.568529 C 20.334472 12.796834 19.92642 12.247622 19.649554 11.92046 C 19.340496 11.54963 19.187562 11.30238 19.184452 11.184146 C 19.18419 11.107424 19.287145 10.991086 19.481578 10.83427 C 19.682312 10.672016 19.956657 10.391268 20.305045 9.986157 C 20.880138 9.225993 21.171554 8.391877 21.16842 7.471209 C 21.173311 6.521629 20.849824 5.624618 20.215998 4.775599 C 19.582172 3.92658 18.614021 3.371602 17.317846 3.105227 C 16.681626 3.011264 16.054124 2.959242 15.422739 2.960038 C 15.039128 2.961344 14.660953 2.96895 14.275616 2.99373 C 13.825725 3.013766 13.417175 3.113543 13.049535 3.29893 C 12.682326 3.478449 12.386232 3.733998 12.154953 4.071013 C 11.923674 4.408029 11.810027 4.830393 11.813581 5.343976 L 11.77965 10.622198 C 11.778538 10.95843 11.784759 11.194897 11.786144 11.336604 C 11.793398 11.478743 11.796508 11.596976 11.795907 11.685436 C 11.794874 11.779764 11.797984 11.897997 11.804807 12.046005 C 11.806192 12.187712 11.811562 12.837134 11.808749 13.999274 C 11.80901 14.075997 11.825583 14.171619 11.857604 14.297877 C 11.890057 14.418267 11.917505 14.526489 11.939946 14.622542 C 12.067602 15.133445 12.304943 15.516705 12.658702 15.761015 C 13.012461 16.005325 13.381146 16.126827 13.782363 16.126815 Z M 16.240803 9.00891 C 16.136032 8.989409 16.07872 8.725586 16.080172 8.224172 C 16.07756 7.456949 16.141239 7.072213 16.253604 7.068671 L 16.288815 7.071259 C 16.44226 7.070737 16.575341 7.186723 16.688058 7.419217 C 16.807075 7.646273 16.862832 7.850979 16.867066 8.034198 C 16.866987 8.276102 16.809517 8.496087 16.695086 8.688285 C 16.586524 8.880914 16.431184 8.987501 16.240803 9.00891 Z M 25.52037 16.334623 C 24.647081 16.33534 23.848608 16.040643 23.130818 15.450964 C 22.40759 14.854985 21.834867 14.057659 21.40048 13.063993 C 20.972393 12.064889 20.752895 10.957212 20.753721 9.741823 C 20.753685 8.538171 20.970184 7.438938 21.404079 6.432386 C 21.831675 5.431272 22.409356 4.635897 23.131253 4.04583 C 23.847713 3.449462 24.64824 3.154286 25.521528 3.15357 C 26.400685 3.153284 27.19329 3.44755 27.916518 4.043529 C 28.634308 4.633208 29.207031 5.430533 29.634686 6.435506 C 30.056905 7.434178 30.270535 8.541424 30.271002 9.739208 C 30.275613 10.960896 30.058683 12.065998 29.631519 13.061244 C 29.209792 14.062789 28.632111 14.858164 27.916082 15.448663 C 27.194185 16.03873 26.399527 16.334338 25.52037 16.334623 Z M 25.555425 11.121387 C 25.714738 11.121295 25.847898 10.995377 25.954905 10.743631 C 26.061911 10.491886 26.113683 10.188878 26.111083 9.822872 C 26.113058 9.474903 26.058765 9.17 25.953642 8.914464 C 25.848518 8.658927 25.710863 8.524905 25.557418 8.525427 C 25.403974 8.525949 25.276251 8.658168 25.162944 8.91535 C 25.050069 9.166665 24.997865 9.475541 24.995891 9.82351 C 24.998922 10.183647 25.052784 10.494419 25.164207 10.744518 C 25.27563 10.994618 25.407849 11.12234 25.555425 11.121387 Z M 32.398625 16.273747 C 33.059352 16.275108 33.587599 16.072024 33.977068 15.669932 C 34.366105 15.273709 34.578994 14.705232 34.609437 13.969939 L 34.656076 12.291799 C 34.655383 12.220945 34.692751 12.19419 34.757736 12.193066 L 34.833596 12.204542 C 34.928185 12.282297 35.049529 12.39742 35.186322 12.54318 C 35.377918 12.74607 35.598857 12.951116 35.84327 13.157888 C 36.087252 13.370529 36.345297 13.472098 36.628281 13.475197 C 36.848436 13.450076 37.079636 13.354965 37.322743 13.178125 C 37.559981 13.000854 37.786346 12.810983 38.001835 12.608512 C 38.217325 12.406042 38.40589 12.248794 38.579698 12.131764 L 38.676614 12.097585 C 38.788548 12.099912 38.861388 12.152468 38.882967 12.260258 L 38.864419 12.512605 C 38.842762 12.646719 38.831116 12.80517 38.836212 12.976651 C 38.876885 13.787974 38.933948 14.376292 39.018708 14.748336 C 39.09803 15.114081 39.258388 15.420879 39.488476 15.662 C 39.898162 16.028425 40.356862 16.209645 40.864575 16.20566 C 41.224281 16.208498 41.561978 16.109413 41.865495 15.913412 C 42.169013 15.717412 42.375092 15.402145 42.482871 14.979349 L 42.499784 14.909789 C 42.516265 14.846098 42.541204 14.747627 42.563293 14.607644 C 42.688063 13.873385 42.767812 11.182836 42.784502 6.540573 C 42.785863 5.879846 42.764704 5.36497 42.715587 4.989644 C 42.666038 4.620188 42.561948 4.270323 42.397446 3.939619 C 42.10504 3.422507 41.669554 3.16629 41.091417 3.165099 C 40.802134 3.167438 40.507243 3.246068 40.200876 3.400557 C 39.900377 3.555478 39.616452 3.806021 39.360405 4.158917 C 38.412678 5.493517 37.754223 6.424561 37.391339 6.946612 C 37.00783 7.508448 36.784577 7.816553 36.710272 7.864193 C 36.647705 7.912697 36.5986 7.938589 36.580994 7.937295 C 36.55752 7.93557 36.52904 7.921676 36.490117 7.889314 C 36.451194 7.856952 36.419002 7.813284 36.387241 7.763748 L 33.696062 3.919599 C 33.481162 3.632393 33.243049 3.420184 32.981291 3.28884 C 32.713665 3.157065 32.447163 3.090276 32.175917 3.08804 C 31.762962 3.087189 31.403347 3.243665 31.10924 3.552462 C 30.912218 3.744489 30.761112 4.034296 30.644185 4.421018 C 30.527689 4.801871 30.455905 5.457422 30.435134 6.382233 C 30.436196 10.140765 30.431171 12.376587 30.418766 13.107305 L 30.419221 13.903871 C 30.418279 14.157513 30.423808 14.323126 30.4371 14.383105 C 30.551554 14.993342 30.818069 15.461349 31.242511 15.787557 C 31.661085 16.113334 32.050656 16.271773 32.398625 16.273747 Z M 53.520389 15.967606 C 54.186984 15.969398 54.751397 15.916479 55.219495 15.809278 C 56.201084 15.53921 56.934117 15.038465 57.424462 14.307473 C 57.91567 13.564745 58.162556 12.774558 58.166414 11.919306 C 58.166049 11.282053 58.028983 10.658354 57.754353 10.059945 C 57.480154 9.455668 57.075383 8.942098 56.53374 8.524672 C 56.443725 8.464954 56.376754 8.41283 56.332825 8.368299 C 56.294764 8.3242 56.274741 8.275526 56.272754 8.222278 C 56.27163 8.157293 56.307874 8.065553 56.37018 7.940327 C 56.584194 7.436836 56.691711 6.937317 56.692301 6.447641 C 56.688826 5.692154 56.455445 5.014174 55.991728 4.419568 C 55.528441 3.819094 54.880734 3.399773 54.048173 3.167473 C 53.631245 3.060126 53.222173 3.006459 52.820956 3.006471 C 52.543409 3.009672 52.259562 3.018311 51.98659 3.039549 C 51.70775 3.060356 51.417603 3.074432 51.103551 3.092651 C 50.582807 3.113379 50.130589 3.245348 49.746467 3.494427 C 49.362345 3.743506 49.120884 4.138775 49.028385 4.674799 C 48.979632 4.936726 48.953867 6.250586 48.945653 8.610079 L 48.932135 9.677029 L 48.94254 14.191479 C 48.945061 14.799389 49.106804 15.247895 49.422332 15.530696 C 49.743729 15.813929 50.099383 15.952174 50.482995 15.950868 Z M 53.105261 12.544456 C 53.052444 12.540574 53.025258 12.509074 53.029571 12.450389 L 53.011577 11.009408 C 53.010192 10.8677 53.017956 10.762066 53.029432 10.686207 C 53.035039 10.609916 53.07327 10.571424 53.137824 10.576169 C 53.337785 10.584965 53.507372 10.685933 53.629839 10.866042 C 53.764044 11.047013 53.824807 11.263887 53.829734 11.51796 C 53.826374 11.724221 53.776929 11.915295 53.674667 12.102487 C 53.572405 12.289679 53.40274 12.430615 53.17154 12.525726 Z M 53.044876 7.666418 L 53.039913 6.208694 C 53.382445 6.204369 53.552985 6.452913 53.552395 6.94259 C 53.551624 7.11364 53.521941 7.276665 53.457478 7.431233 C 53.393015 7.585802 53.257437 7.664341 53.044876 7.666418 Z M 62.706875 15.970179 C 63.367602 15.97154 63.932446 15.912752 64.400544 15.805551 C 65.381702 15.541351 66.120603 15.041037 66.61138 14.304178 C 67.102156 13.567318 67.349473 12.771262 67.347032 11.921448 C 67.347099 11.278326 67.209601 10.660496 66.935402 10.056218 C 66.667072 9.452372 66.256001 8.944239 65.714358 8.526814 C 65.630212 8.467527 65.56324 8.415402 65.519311 8.370872 C 65.475382 8.326342 65.455359 8.277668 65.459241 8.224851 C 65.458117 8.159866 65.488492 8.067695 65.557098 7.937031 C 65.765243 7.433109 65.872329 6.939459 65.872918 6.449782 C 65.875744 5.688859 65.641932 5.016747 65.178646 4.416273 C 64.709059 3.821236 64.06722 3.402346 63.234659 3.170046 C 62.817732 3.062699 62.408659 3.009031 62.001574 3.008612 C 61.724458 3.005945 61.446049 3.020884 61.167208 3.041691 C 60.894236 3.062929 60.598221 3.076574 60.290469 3.089356 C 59.769724 3.110084 59.317075 3.247921 58.927085 3.496568 C 58.548831 3.746078 58.307802 4.13548 58.209434 4.671072 C 58.166118 4.939299 58.140785 6.247291 58.126702 8.606352 L 58.112753 9.679171 L 58.129027 14.194051 C 58.131548 14.801962 58.287422 15.250036 58.608819 15.533269 C 58.930647 15.810634 59.280001 15.954316 59.669481 15.953441 Z M 62.28631 12.540729 C 62.23893 12.543147 62.211744 12.511647 62.21062 12.446662 L 62.192626 11.005681 C 62.196678 10.870273 62.198574 10.764208 62.21005 10.688348 C 62.221526 10.612489 62.259756 10.573997 62.324742 10.572873 C 62.524272 10.587538 62.688421 10.682207 62.816326 10.868615 C 62.944662 11.049154 63.011293 11.26646 63.010352 11.520102 C 63.013292 11.720926 62.963415 11.917868 62.861153 12.10506 C 62.758891 12.292252 62.589226 12.433188 62.358026 12.528299 Z M 62.225925 7.662691 L 62.226831 6.205398 C 62.568931 6.206942 62.739471 6.455486 62.738882 6.945162 C 62.73811 7.116213 62.702559 7.278806 62.638096 7.433375 C 62.579501 7.588375 62.438055 7.666482 62.225925 7.662691 Z M 68.480259 17.615869 C 68.888207 17.604551 69.222623 17.469824 69.4785 17.199519 C 69.745683 16.935945 69.882202 16.603765 69.893496 16.209279 C 69.881315 15.813067 69.740288 15.484089 69.469983 15.228212 C 69.20641 14.96103 68.87423 14.82451 68.467575 14.818222 C 68.071795 14.824534 67.742817 14.965561 67.481503 15.229566 C 67.22062 15.487703 67.084532 15.814014 67.073238 16.2085 C 67.084987 16.61058 67.225583 16.945427 67.489588 17.206741 C 67.759462 17.468487 68.085773 17.604575 68.480259 17.615869 Z M 78.321738 16.333129 C 77.990943 16.338317 77.684224 16.256771 77.400718 16.100227 C 77.11678 15.949553 76.852605 15.77083 76.608192 15.564058 C 76.580143 15.544296 76.545363 15.535839 76.51602 15.533682 L 76.432136 15.551118 C 75.738889 16.072488 74.993766 16.336335 74.1972 16.33679 C 73.318043 16.337076 72.51957 16.042379 71.790043 15.451837 C 71.066815 14.855858 70.494092 14.058533 70.065574 13.065297 C 69.637487 12.066194 69.423857 10.958947 69.424683 9.743559 C 69.42551 8.52817 69.636571 7.422637 70.063735 6.427391 C 70.491331 5.426277 71.068581 4.63677 71.790909 4.040834 C 72.518675 3.451198 73.319633 3.150153 74.192922 3.149437 C 75.071647 3.15502 75.864252 3.449286 76.58748 4.045265 C 77.30527 4.634944 77.878424 5.426401 78.306511 6.425504 C 78.734598 7.424608 78.942791 8.525554 78.947833 9.741375 C 78.942499 10.295605 78.902986 10.75292 78.817558 11.112456 C 78.73213 11.471992 78.603466 11.857852 78.431134 12.275903 L 78.433983 12.317414 C 78.435969 12.370662 78.449693 12.424773 78.481022 12.480178 L 79.571744 13.775795 C 79.827292 14.071889 79.951145 14.393705 79.95547 14.736237 C 79.954529 14.989878 79.867114 15.296166 79.699526 15.649663 C 79.583802 15.859466 79.394375 16.028451 79.143412 16.151611 C 78.89245 16.274771 78.622327 16.337521 78.321738 16.333129 Z M 74.226387 11.123122 C 74.373963 11.122169 74.507123 10.99625 74.619998 10.744936 C 74.727005 10.49319 74.785077 10.184746 74.787914 9.825039 C 74.784451 9.470771 74.729727 9.171736 74.618735 8.915768 C 74.508175 8.653932 74.375956 8.526209 74.22838 8.527163 C 74.063199 8.526823 73.929607 8.658609 73.822169 8.916224 C 73.721031 9.168401 73.669259 9.471408 73.666853 9.825246 C 73.669884 10.185383 73.717877 10.495723 73.823432 10.745391 C 73.928987 10.995059 74.067074 11.123213 74.226387 11.123122 Z M 89.714874 16.255979 C 90.46406 16.257941 91.185107 16.080828 91.883882 15.725071 C 92.583089 15.363445 93.158965 14.833449 93.61738 14.135512 C 94.075794 13.437575 94.302317 12.763896 94.302815 12.114906 C 94.303915 11.377457 93.983029 10.846451 93.333857 10.527326 C 93.02472 10.398401 92.757786 10.33748 92.533488 10.338695 C 92.203124 10.338014 91.930845 10.430106 91.71708 10.609103 C 91.503316 10.788099 91.318032 10.980989 91.173396 11.182767 C 91.056979 11.321717 90.947724 11.443492 90.846064 11.542224 C 90.743972 11.646825 90.634025 11.697747 90.514929 11.712594 C 90.343878 11.711822 90.130193 11.648915 89.880173 11.518434 C 89.629721 11.393822 89.414651 11.189206 89.229093 10.904157 C 89.037236 10.624545 88.947039 10.2462 88.945903 9.779998 C 88.953145 9.520919 89.008629 9.247686 89.106918 8.953998 C 89.199338 8.659878 89.336119 8.404421 89.511823 8.181325 C 89.687095 7.964098 89.889815 7.855093 90.114114 7.853878 C 90.25539 7.858361 90.393647 7.903925 90.528022 8.002305 C 90.828271 8.171879 91.12869 8.258862 91.441448 8.258249 C 91.677484 8.257896 91.964781 8.202309 92.302908 8.097356 C 92.702741 7.955637 92.990378 7.734868 93.184289 7.424607 C 93.3782 7.114346 93.474071 6.773278 93.472334 6.395535 C 93.473184 5.982581 93.349502 5.578174 93.107154 5.182746 C 92.667512 4.501406 92.144076 3.996815 91.537278 3.663104 C 90.930049 3.335261 90.299005 3.170875 89.650015 3.170377 C 88.948208 3.165997 88.267378 3.357866 87.607957 3.740117 C 86.954836 4.11693 86.399846 4.683863 85.954724 5.44178 C 85.165016 6.793894 84.772042 8.287273 84.769934 9.921485 C 84.76997 11.125137 84.991886 12.280194 85.441121 13.392957 C 85.855053 14.343818 86.45772 15.054841 87.236522 15.5369 C 88.015325 16.018958 88.841586 16.256695 89.714874 16.255979 Z M 96.116314 16.260361 C 96.624027 16.256376 97.111887 16.121126 97.574889 15.842444 C 98.043758 15.564193 98.300407 15.122837 98.351134 14.512941 C 98.366048 13.988915 98.368624 13.552487 98.37103 13.198649 C 98.367136 12.850249 98.374809 12.585302 98.393618 12.409677 C 98.406558 12.233621 98.460407 12.143175 98.542998 12.143345 L 99.122428 12.12693 C 99.222625 12.128395 99.280879 12.138576 99.309359 12.15247 C 99.33197 12.165933 99.347419 12.196569 99.3444 12.237649 L 99.345366 12.786442 C 99.348069 13.712979 99.375188 14.3876 99.426291 14.816173 C 99.510018 15.282546 99.737348 15.641468 100.109143 15.881204 C 100.486808 16.121371 100.902872 16.240455 101.363206 16.238887 C 101.681833 16.238705 101.999767 16.167669 102.304839 16.030785 C 102.987564 15.732851 103.327837 15.197338 103.332387 14.41294 C 103.333542 12.631152 103.340316 11.174291 103.364016 10.049086 C 103.369769 9.08777 103.374818 7.654383 103.379594 5.743055 C 103.376811 5.058423 103.268055 4.531208 103.059194 4.161843 C 102.671937 3.490253 102.083176 3.151968 101.28661 3.152423 C 100.962115 3.152174 100.67568 3.196024 100.426875 3.289841 C 100.172632 3.377359 100.000118 3.476784 99.903463 3.587685 C 99.669335 3.883189 99.524359 4.250149 99.462235 4.694001 C 99.40598 5.138285 99.374924 5.560819 99.380373 5.968337 L 99.406586 8.10025 C 99.40695 8.737503 99.354316 9.052248 99.247819 9.056221 L 98.75098 9.072806 C 98.603835 9.067891 98.51667 9.049684 98.483615 9.017753 C 98.450992 8.979954 98.438994 8.902369 98.435883 8.784135 L 98.464972 6.060362 L 98.449408 5.067977 C 98.45414 4.602206 98.328732 4.221274 98.078621 3.931479 C 97.834809 3.636248 97.532142 3.419294 97.163889 3.291924 C 96.796066 3.158685 96.429368 3.090431 96.063793 3.087162 C 95.556079 3.091148 95.138903 3.308296 94.816837 3.756643 C 94.501072 4.199554 94.327968 4.788655 94.3084 5.536548 L 94.242641 11.408355 C 94.25388 12.058207 94.254767 12.848905 94.25747 13.775441 C 94.253861 14.306198 94.282353 14.721309 94.336646 15.026212 C 94.391371 15.325246 94.525837 15.582939 94.739182 15.811029 C 95.089058 16.108155 95.549915 16.260033 96.116314 16.260361 Z M 105.842614 16.143303 C 106.214058 16.147003 106.567634 16.072687 106.896613 15.93166 C 107.226022 15.784764 107.499073 15.521622 107.70446 15.135501 C 107.915716 14.749812 108.020384 14.208782 108.018895 13.506544 C 108.059338 12.394371 108.083639 11.180708 108.080923 9.852954 C 108.084563 7.475424 108.054911 5.791676 108.003705 4.802572 C 107.959071 4.28597 107.748223 3.863357 107.365723 3.528431 C 106.989092 3.193936 106.523661 3.024022 105.968999 3.024556 C 105.414337 3.02509 104.9591 3.198139 104.608725 3.550002 C 104.25835 3.901865 104.053225 4.364708 104.005948 4.927657 C 103.982134 5.091113 103.964619 5.249132 103.953404 5.401714 C 103.94219 5.554296 103.933824 5.748389 103.928308 5.983994 C 103.922792 6.219598 103.921248 6.561698 103.923678 7.010295 L 103.968049 13.149807 L 103.953736 13.585373 C 103.950479 14.352165 104.087976 14.969996 104.348191 15.44344 C 104.620573 15.911879 105.116902 16.143066 105.842614 16.143303 Z M 113.109147 16.258471 C 113.852465 16.260003 114.579811 16.077452 115.272718 15.721264 C 115.971494 15.365507 116.553239 14.835941 117.011653 14.138005 C 117.470068 13.440068 117.69659 12.766389 117.69752 12.11153 C 117.698619 11.374081 117.371433 10.848513 116.722261 10.529388 C 116.413124 10.400462 116.146622 10.333672 115.922324 10.334887 C 115.59196 10.334207 115.319681 10.426299 115.105485 10.611164 C 114.891721 10.79016 114.712736 10.977613 114.5618 11.184829 C 114.445383 11.323778 114.33656 11.439685 114.234468 11.544286 C 114.132808 11.643018 114.022429 11.699808 113.909633 11.709218 C 113.738583 11.708447 113.524898 11.645539 113.274446 11.520927 C 113.024426 11.390446 112.803487 11.185399 112.617498 10.906218 C 112.43194 10.621169 112.335444 10.248261 112.334739 9.77619 C 112.347849 9.517543 112.403333 9.24431 112.495754 8.950191 C 112.594043 8.656502 112.730823 8.401045 112.906096 8.183818 C 113.081369 7.966591 113.27822 7.857154 113.502518 7.855939 C 113.644226 7.854554 113.782051 7.905986 113.922726 7.998929 C 114.222544 8.174372 114.523395 8.255486 114.835721 8.260741 C 115.065888 8.259958 115.353185 8.204371 115.697181 8.099849 C 116.091145 7.957698 116.385082 7.731492 116.572694 7.426668 C 116.766605 7.116407 116.862476 6.77534 116.866607 6.398028 C 116.867458 5.985073 116.743775 5.580667 116.495559 5.184808 C 116.061785 4.503899 115.538781 3.993439 114.925683 3.665165 C 114.318885 3.331454 113.693709 3.167499 113.038851 3.16657 C 112.336613 3.168058 111.655783 3.359927 111.002662 3.736741 C 110.343672 4.113123 109.794119 4.686356 109.343129 5.443841 C 108.553421 6.795956 108.160447 8.289335 108.164207 9.923978 C 108.158374 11.127198 108.386159 12.282687 108.835825 13.389581 C 109.249757 14.340442 109.846125 15.056902 110.624927 15.538961 C 111.403729 16.02102 112.22999 16.258757 113.109147 16.258471 Z M 125.635251 16.099387 C 126.072111 16.096095 126.454338 15.953081 126.794099 15.665341 C 127.127993 15.377169 127.298168 14.98846 127.297895 14.510521 C 127.298655 13.938253 127.035761 13.340707 126.515084 12.718314 C 125.864004 12.104036 125.329694 11.586845 124.912153 11.166741 L 124.323039 10.592419 C 123.991631 10.28485 123.829378 10.084116 123.829548 10.001525 C 123.840161 9.937403 123.862511 9.874143 123.907473 9.824345 L 125.506164 8.142275 C 126.457615 7.238666 127.081813 6.45261 127.377895 5.795844 C 127.487921 5.503018 127.537968 5.223485 127.540635 4.94637 C 127.539238 4.403445 127.367051 3.936471 127.017345 3.556753 C 126.673938 3.171598 126.281087 2.977517 125.844658 2.974941 C 125.526032 2.975124 125.216384 3.09397 124.921153 3.337782 C 124.626353 3.575725 124.189074 3.986103 123.60431 4.556749 L 121.571358 6.608118 C 121.568418 6.407294 121.565478 6.20647 121.555806 6.016951 L 121.553467 5.727667 C 121.551991 5.426646 121.546803 5.095852 121.521592 4.716383 C 121.523305 4.291692 121.327906 3.899715 120.934532 3.552189 C 120.547457 3.199226 120.106795 3.013431 119.600806 2.993942 C 119.217626 2.98938 118.864742 3.13455 118.536717 3.423153 C 118.214561 3.712188 117.994588 4.055934 117.875935 4.466131 C 117.713104 5.156291 117.629869 6.690137 117.632961 9.056361 C 117.635494 10.065488 117.636903 11.00963 117.648925 11.88965 L 117.669258 13.619915 C 117.773214 15.256022 118.385291 16.079841 119.506352 16.079635 L 119.764568 16.098614 C 120.177522 16.099464 120.548875 15.943851 120.871893 15.643079 C 121.201212 15.336871 121.362239 14.912088 121.360842 14.369163 C 121.364462 14.239624 121.356346 14.109222 121.347799 13.984689 C 121.339682 13.854287 121.331566 13.723885 121.32975 13.588046 L 121.34631 13.282451 L 121.376947 13.267002 L 124.38809 15.647807 C 124.80252 15.949679 125.216428 16.098105 125.635251 16.099387 Z M 130.336983 16.350557 C 130.797317 16.34899 131.334805 16.341293 131.955746 16.322029 C 132.399337 16.307431 132.895314 16.302583 133.43867 16.295318 C 133.987464 16.294352 134.454006 16.128034 134.855473 15.803527 C 135.257371 15.473152 135.455765 15.021615 135.457819 14.431742 C 135.459441 13.847737 135.307017 13.352714 134.999684 12.95841 C 134.69822 12.564538 134.313825 12.335677 133.846498 12.271827 C 132.873014 12.27108 132.11209 12.268254 131.552422 12.25662 C 131.476563 12.245145 131.432202 12.206483 131.41891 12.146503 C 131.400181 12.080224 131.394914 11.991333 131.396809 11.885268 C 131.392836 11.778772 131.404312 11.702912 131.424937 11.663126 C 131.445562 11.623341 131.506404 11.598311 131.601594 11.587607 C 131.697216 11.571034 131.857392 11.559206 132.082122 11.552123 L 132.822159 11.518011 C 132.957567 11.522063 133.152523 11.518692 133.400295 11.519202 C 133.653937 11.520144 133.904728 11.479574 134.163977 11.404225 C 134.737016 11.233934 135.028785 10.635854 135.027977 9.603252 C 135.025547 9.154655 134.943637 8.824122 134.770509 8.610789 C 134.482768 8.271027 134.0119 8.094813 133.362479 8.100183 C 132.654804 8.095371 132.194901 8.09107 131.966028 8.074248 C 131.743024 8.057857 131.610204 8.018594 131.572575 7.968626 C 131.529509 7.912359 131.505773 7.833911 131.507669 7.727846 L 131.506545 7.662861 L 131.489881 7.407926 C 131.48962 7.331203 131.540019 7.287706 131.630203 7.264833 C 131.848633 7.263187 132.162254 7.250836 132.577796 7.216476 C 133.12374 7.173999 133.603405 7.150251 134.022228 7.151533 C 134.500168 7.15126 134.857195 7.029995 135.087441 6.787308 C 135.452141 6.401096 135.630512 5.900885 135.633428 5.299275 C 135.633757 4.732876 135.513093 4.287389 135.265138 3.968252 C 134.794258 3.390821 134.04817 3.105875 133.027306 3.107545 L 129.186615 3.102568 C 128.161005 3.168792 127.599193 3.587718 127.494877 4.364783 C 127.4702 4.539977 127.454423 5.075739 127.45842 5.98467 C 127.457831 6.474347 127.462247 6.976192 127.465801 7.489774 C 127.469355 8.003356 127.473078 8.434347 127.482841 8.783179 C 127.486304 9.137448 127.496838 9.31523 127.509006 9.310224 L 127.493483 12.571916 C 127.489115 13.67494 127.55283 14.493857 127.666592 15.03324 C 127.786223 15.573054 128.043758 15.922396 128.450072 16.093866 C 128.856386 16.265336 129.487169 16.352999 130.336983 16.350557 Z M 145.093564 16.349512 C 145.677568 16.351134 146.108468 16.188097 146.392133 15.860832 C 146.675366 15.539435 146.869356 14.98727 146.961503 14.215211 C 147.059519 13.443583 147.107385 12.390958 147.105101 11.057336 C 147.107981 9.252074 147.102939 8.036253 147.090407 7.404006 L 147.106215 5.021471 C 147.108791 4.585042 146.909249 4.16916 146.508019 3.767954 C 146.10679 3.366749 145.620042 3.165767 145.041474 3.170444 C 144.009304 3.165383 143.333231 3.693916 143.025424 4.751037 C 142.857326 5.352307 142.754055 6.436261 142.720617 8.015068 C 142.722956 8.304352 142.640456 8.463495 142.484855 8.49336 C 142.408133 8.493621 142.318549 8.428034 142.210668 8.2903 L 141.776293 7.697851 C 140.072449 5.271525 138.994498 3.882443 138.543301 3.518867 C 138.212585 3.282151 137.843468 3.166517 137.430514 3.165667 C 137.158836 3.1693 136.90045 3.232912 136.660362 3.368672 C 136.414838 3.498132 136.209791 3.719071 136.051091 4.03192 C 135.892823 4.3389 135.80265 4.76299 135.792742 5.299184 C 135.786873 5.298752 135.776011 5.68737 135.771891 6.465899 C 135.767772 7.244428 135.759601 8.158365 135.753246 9.208141 C 135.75276 10.258348 135.7483 11.202059 135.746168 12.033836 C 135.74836 13.208145 135.752607 13.792581 135.764344 13.793444 C 135.765388 14.100333 135.809931 14.457622 135.909708 14.866171 C 136.143702 15.85691 136.779934 16.352091 137.824273 16.352146 C 138.485 16.353507 138.983905 16.148266 139.30925 15.735561 C 139.634164 15.328724 139.792773 14.856562 139.795519 14.337543 C 139.793952 13.877209 139.820944 13.188864 139.870626 12.272078 L 139.870796 12.189487 C 139.874678 12.136671 139.89116 12.072979 139.92611 11.998845 C 139.966929 11.925142 140.011028 11.887082 140.064276 11.885095 C 140.111224 11.888546 140.15101 11.909171 140.194939 11.953701 C 140.600312 12.378812 140.972891 12.848714 141.313108 13.35754 L 141.795555 14.018425 C 142.127054 14.485308 142.580499 14.978855 143.162189 15.493628 C 143.743447 16.014269 144.38347 16.29732 145.093564 16.349512 Z M 145.093564 16.349512 " stroke="#233d4d" stroke-width="0.8" stroke-opacity="1" stroke-miterlimit="4"/></svg>