<svg xmlns="http://www.w3.org/2000/svg" xmlns:xlink="http://www.w3.org/1999/xlink" width="128" zoomAndPan="magnify" viewBox="0 0 96 95.999999" height="128" preserveAspectRatio="xMidYMid meet" version="1.0"><defs><g/></defs><g fill="#ffffff" fill-opacity="1"><g transform="translate(28.756777, 49.430948)"><g><path d="M 3.625 -0.046875 C 3.957031 -0.0664062 4.265625 -0.210938 4.546875 -0.484375 C 4.835938 -0.753906 5.046875 -1.0625 5.171875 -1.40625 L 5.8125 -3.09375 C 5.84375 -3.164062 5.878906 -3.203125 5.921875 -3.203125 C 5.984375 -3.203125 6.03125 -3.164062 6.0625 -3.09375 C 6.101562 -3.03125 6.144531 -2.957031 6.1875 -2.875 C 6.488281 -2.144531 6.722656 -1.648438 6.890625 -1.390625 C 7.296875 -0.710938 7.785156 -0.394531 8.359375 -0.4375 C 8.816406 -0.476562 9.1875 -0.75 9.46875 -1.25 C 9.613281 -1.519531 10.007812 -3.109375 10.65625 -6.015625 C 11.25 -8.710938 11.570312 -10.242188 11.625 -10.609375 L 11.640625 -10.90625 C 11.609375 -11.332031 11.410156 -11.660156 11.046875 -11.890625 C 10.691406 -12.117188 10.332031 -12.222656 9.96875 -12.203125 C 9.550781 -12.171875 9.210938 -11.976562 8.953125 -11.625 C 8.703125 -11.28125 8.488281 -10.84375 8.3125 -10.3125 C 8.144531 -9.789062 7.988281 -9.242188 7.84375 -8.671875 C 7.707031 -8.097656 7.554688 -7.566406 7.390625 -7.078125 C 7.390625 -7.054688 7.378906 -7.046875 7.359375 -7.046875 C 7.335938 -7.046875 7.3125 -7.054688 7.28125 -7.078125 C 7.207031 -7.210938 7.101562 -7.410156 6.96875 -7.671875 C 6.539062 -8.335938 6.117188 -8.65625 5.703125 -8.625 C 5.453125 -8.601562 5.222656 -8.476562 5.015625 -8.25 C 4.804688 -8.019531 4.628906 -7.769531 4.484375 -7.5 C 4.335938 -7.238281 4.226562 -7.035156 4.15625 -6.890625 L 4.109375 -6.859375 C 4.078125 -6.847656 4.050781 -6.859375 4.03125 -6.890625 C 4.019531 -6.929688 3.804688 -7.539062 3.390625 -8.71875 C 2.835938 -10.226562 2.234375 -11.113281 1.578125 -11.375 C 1.296875 -11.5 1.039062 -11.554688 0.8125 -11.546875 C -0.332031 -11.460938 -0.867188 -10.953125 -0.796875 -10.015625 C -0.785156 -9.898438 -0.738281 -9.722656 -0.65625 -9.484375 C -0.582031 -9.242188 -0.367188 -8.644531 -0.015625 -7.6875 C 0.390625 -6.519531 1.132812 -4.410156 2.21875 -1.359375 C 2.394531 -0.859375 2.609375 -0.507812 2.859375 -0.3125 C 3.109375 -0.113281 3.363281 -0.0234375 3.625 -0.046875 Z M 3.625 -0.046875 "/></g></g></g><g fill="#ffffff" fill-opacity="1"><g transform="translate(40.486891, 48.568793)"><g><path d="M 4.25 -0.015625 C 3.46875 0.046875 2.742188 -0.160156 2.078125 -0.640625 C 1.410156 -1.117188 0.851562 -1.785156 0.40625 -2.640625 C -0.0390625 -3.492188 -0.304688 -4.460938 -0.390625 -5.546875 C -0.472656 -6.617188 -0.351562 -7.609375 -0.03125 -8.515625 C 0.289062 -9.429688 0.742188 -10.175781 1.328125 -10.75 C 1.921875 -11.320312 2.609375 -11.640625 3.390625 -11.703125 C 4.171875 -11.753906 4.898438 -11.539062 5.578125 -11.0625 C 6.265625 -10.582031 6.828125 -9.914062 7.265625 -9.0625 C 7.703125 -8.207031 7.960938 -7.242188 8.046875 -6.171875 C 8.128906 -5.085938 8.015625 -4.085938 7.703125 -3.171875 C 7.390625 -2.265625 6.929688 -1.523438 6.328125 -0.953125 C 5.722656 -0.378906 5.03125 -0.0664062 4.25 -0.015625 Z M 3.953125 -4.640625 C 4.097656 -4.648438 4.207031 -4.765625 4.28125 -4.984375 C 4.363281 -5.210938 4.390625 -5.488281 4.359375 -5.8125 C 4.335938 -6.125 4.269531 -6.390625 4.15625 -6.609375 C 4.050781 -6.835938 3.925781 -6.945312 3.78125 -6.9375 C 3.644531 -6.925781 3.535156 -6.800781 3.453125 -6.5625 C 3.367188 -6.332031 3.335938 -6.0625 3.359375 -5.75 C 3.390625 -5.425781 3.460938 -5.15625 3.578125 -4.9375 C 3.691406 -4.726562 3.816406 -4.628906 3.953125 -4.640625 Z M 3.953125 -4.640625 "/></g></g></g><g fill="#ffffff" fill-opacity="1"><g transform="translate(48.543364, 47.976647)"><g><path d="M 4.25 -0.015625 C 3.46875 0.046875 2.742188 -0.160156 2.078125 -0.640625 C 1.410156 -1.117188 0.851562 -1.785156 0.40625 -2.640625 C -0.0390625 -3.492188 -0.304688 -4.460938 -0.390625 -5.546875 C -0.472656 -6.617188 -0.351562 -7.609375 -0.03125 -8.515625 C 0.289062 -9.429688 0.742188 -10.175781 1.328125 -10.75 C 1.921875 -11.320312 2.609375 -11.640625 3.390625 -11.703125 C 4.171875 -11.753906 4.898438 -11.539062 5.578125 -11.0625 C 6.265625 -10.582031 6.828125 -9.914062 7.265625 -9.0625 C 7.703125 -8.207031 7.960938 -7.242188 8.046875 -6.171875 C 8.128906 -5.085938 8.015625 -4.085938 7.703125 -3.171875 C 7.390625 -2.265625 6.929688 -1.523438 6.328125 -0.953125 C 5.722656 -0.378906 5.03125 -0.0664062 4.25 -0.015625 Z M 3.953125 -4.640625 C 4.097656 -4.648438 4.207031 -4.765625 4.28125 -4.984375 C 4.363281 -5.210938 4.390625 -5.488281 4.359375 -5.8125 C 4.335938 -6.125 4.269531 -6.390625 4.15625 -6.609375 C 4.050781 -6.835938 3.925781 -6.945312 3.78125 -6.9375 C 3.644531 -6.925781 3.535156 -6.800781 3.453125 -6.5625 C 3.367188 -6.332031 3.335938 -6.0625 3.359375 -5.75 C 3.390625 -5.425781 3.460938 -5.15625 3.578125 -4.9375 C 3.691406 -4.726562 3.816406 -4.628906 3.953125 -4.640625 Z M 3.953125 -4.640625 "/></g></g></g><g fill="#ffffff" fill-opacity="1"><g transform="translate(56.599837, 47.384502)"><g><path d="M 2.296875 0.125 C 2.765625 0.09375 3.148438 -0.0976562 3.453125 -0.453125 C 3.753906 -0.804688 3.878906 -1.332031 3.828125 -2.03125 C 3.804688 -2.6875 3.785156 -3.15625 3.765625 -3.4375 C 3.734375 -3.820312 3.742188 -4.035156 3.796875 -4.078125 C 3.847656 -4.117188 4.421875 -4.175781 5.515625 -4.25 C 5.847656 -4.28125 6.101562 -4.460938 6.28125 -4.796875 C 6.457031 -5.128906 6.53125 -5.539062 6.5 -6.03125 C 6.445312 -6.769531 6.160156 -7.234375 5.640625 -7.421875 C 5.453125 -7.484375 5.222656 -7.503906 4.953125 -7.484375 L 4.78125 -7.46875 C 4.101562 -7.414062 3.722656 -7.421875 3.640625 -7.484375 C 3.609375 -7.503906 3.59375 -7.550781 3.59375 -7.625 C 3.5625 -7.957031 3.570312 -8.144531 3.625 -8.1875 C 3.6875 -8.226562 3.757812 -8.253906 3.84375 -8.265625 C 4.425781 -8.304688 4.953125 -8.351562 5.421875 -8.40625 C 5.773438 -8.46875 6.097656 -8.601562 6.390625 -8.8125 C 6.828125 -9.132812 7.019531 -9.644531 6.96875 -10.34375 C 6.9375 -10.726562 6.84375 -11.035156 6.6875 -11.265625 C 6.53125 -11.492188 6.34375 -11.65625 6.125 -11.75 C 5.914062 -11.851562 5.710938 -11.898438 5.515625 -11.890625 L 3.84375 -11.75 C 3.039062 -11.675781 2.140625 -11.601562 1.140625 -11.53125 C 0.773438 -11.507812 0.484375 -11.367188 0.265625 -11.109375 C 0.046875 -10.859375 -0.0703125 -10.5625 -0.09375 -10.21875 C -0.09375 -10.15625 -0.0976562 -10.101562 -0.109375 -10.0625 C -0.128906 -10.019531 -0.132812 -9.953125 -0.125 -9.859375 L -0.109375 -9.5625 C -0.0859375 -8.90625 -0.0351562 -8.019531 0.046875 -6.90625 C 0.0546875 -6.695312 0.0703125 -6.484375 0.09375 -6.265625 L 0.0625 -6.25 C 0.21875 -4.09375 0.304688 -2.796875 0.328125 -2.359375 C 0.367188 -1.804688 0.394531 -1.507812 0.40625 -1.46875 C 0.445312 -0.875 0.628906 -0.445312 0.953125 -0.1875 C 1.285156 0.0625 1.734375 0.164062 2.296875 0.125 Z M 2.296875 0.125 "/></g></g></g><g fill="#ffffff" fill-opacity="1"><g transform="translate(63.635069, 46.867418)"><g><path d="M 1.78125 -3.46875 C 2.164062 -3.488281 2.507812 -3.640625 2.8125 -3.921875 C 3.125 -4.203125 3.332031 -4.546875 3.4375 -4.953125 C 3.507812 -5.253906 3.546875 -5.5625 3.546875 -5.875 C 3.546875 -6.195312 3.53125 -6.671875 3.5 -7.296875 L 3.46875 -8.1875 L 3.453125 -8.1875 L 3.390625 -9.015625 C 3.347656 -9.546875 3.273438 -10.066406 3.171875 -10.578125 C 3.078125 -11.097656 2.890625 -11.519531 2.609375 -11.84375 C 2.328125 -12.175781 1.914062 -12.320312 1.375 -12.28125 L 1.25 -12.265625 C 0.300781 -12.140625 -0.195312 -11.492188 -0.25 -10.328125 C -0.28125 -9.816406 -0.28125 -9.179688 -0.25 -8.421875 C -0.226562 -7.367188 -0.195312 -6.570312 -0.15625 -6.03125 C -0.113281 -5.488281 -0.046875 -5.0625 0.046875 -4.75 C 0.140625 -4.445312 0.304688 -4.179688 0.546875 -3.953125 C 0.910156 -3.585938 1.320312 -3.425781 1.78125 -3.46875 Z M 2.265625 1.578125 C 2.566406 1.554688 2.84375 1.46875 3.09375 1.3125 C 3.351562 1.15625 3.566406 0.9375 3.734375 0.65625 C 3.921875 0.289062 4 -0.0820312 3.96875 -0.46875 C 3.945312 -0.8125 3.832031 -1.128906 3.625 -1.421875 C 3.414062 -1.710938 3.125 -1.921875 2.75 -2.046875 C 2.457031 -2.148438 2.164062 -2.1875 1.875 -2.15625 C 1.65625 -2.144531 1.4375 -2.078125 1.21875 -1.953125 C 0.894531 -1.734375 0.648438 -1.457031 0.484375 -1.125 C 0.328125 -0.800781 0.257812 -0.46875 0.28125 -0.125 C 0.320312 0.3125 0.507812 0.710938 0.84375 1.078125 C 1.28125 1.453125 1.753906 1.617188 2.265625 1.578125 Z M 2.265625 1.578125 "/></g></g></g><path stroke-linecap="butt" transform="matrix(0.221624, -0.0162892, 0.0162892, 0.221624, 4.329042, 36.29732)" fill="none" stroke-linejoin="miter" d="M 121.606123 67.946274 C 123.103975 67.950612 124.536586 67.403762 125.902667 66.323257 C 127.268748 65.242752 128.297097 63.961168 128.989003 62.460975 L 132.373256 55.024979 C 132.53283 54.772325 132.735977 54.646251 132.930105 54.642894 C 133.194356 54.644691 133.394418 54.8004 133.546534 55.12884 C 133.699937 55.439749 133.849476 55.803251 133.962664 56.181706 C 135.125469 59.545523 136.013679 61.849249 136.662356 63.095463 C 138.284048 66.210999 140.372322 67.774529 142.928467 67.768523 C 145.008703 67.762789 146.78057 66.676857 148.227827 64.491909 C 148.964086 63.347487 151.257833 56.360106 155.092826 43.510947 C 158.631628 31.574172 160.594358 24.773968 160.977152 23.162927 L 161.107563 21.868222 C 161.106475 19.964584 160.355698 18.428857 158.836413 17.277283 C 157.317129 16.12571 155.755324 15.552654 154.117225 15.538009 C 152.248648 15.541674 150.677859 16.289873 149.389905 17.746257 C 148.100662 19.220172 146.992153 21.112758 146.064379 23.424015 C 145.120363 25.716453 144.23745 28.136761 143.400688 30.648589 C 142.581456 33.161705 141.703697 35.51189 140.821293 37.685477 C 140.762258 37.769266 140.7058 37.817993 140.618146 37.81155 C 140.494141 37.820062 140.39411 37.742207 140.314187 37.63058 C 140.045018 36.976277 139.61858 36.063657 139.036161 34.875189 C 137.361876 31.755788 135.590445 30.19792 133.721869 30.201585 C 132.610983 30.208064 131.53672 30.675498 130.514033 31.640238 C 129.491346 32.604978 128.621283 33.651438 127.886312 34.77833 C 127.168872 35.90651 126.62596 36.818385 126.276396 37.497714 L 126.038187 37.621211 C 125.914183 37.629722 125.81544 37.534337 125.756913 37.371405 C 125.682144 37.189654 124.898847 34.417749 123.407022 29.055689 C 121.40134 22.051938 118.979128 17.837658 116.102746 16.445334 C 114.91682 15.794152 113.794066 15.482498 112.718242 15.491554 C 107.607241 15.486035 105.039299 17.570988 105.049479 21.74899 C 105.047174 22.259961 105.180742 23.080553 105.451471 24.193235 C 105.74102 25.289675 106.487967 28.076534 107.727374 32.556389 C 109.220488 37.900918 111.893193 47.579901 115.742913 61.628401 C 116.33181 63.927754 117.163799 65.557578 118.221347 66.516584 C 119.296426 67.476878 120.425114 67.947598 121.606123 67.946274 Z M 177.361809 68.342914 C 173.871376 68.350753 170.680219 67.164426 167.787051 64.801464 C 164.912702 62.42226 162.608596 59.238942 160.874732 55.251511 C 159.158399 51.265368 158.285851 46.830102 158.290862 41.965821 C 158.292007 37.154132 159.145212 32.739954 160.884251 28.743396 C 162.607047 24.728018 164.90426 21.530383 167.79213 19.16931 C 170.681289 16.790707 173.869797 15.615017 177.36023 15.607178 C 180.866906 15.618159 184.058063 16.804486 186.9337 19.166159 C 189.809337 21.527833 192.112155 24.728681 193.809669 28.731067 C 195.505894 32.750983 196.363488 37.149898 196.362343 41.961587 C 196.357332 46.825868 195.502839 51.257577 193.798862 55.256712 C 192.113704 59.239606 189.81778 62.41971 186.928621 64.798313 C 184.058281 67.160674 180.869773 68.336364 177.361809 68.342914 Z M 177.484932 47.483323 C 178.119907 47.477116 178.649426 46.987269 179.076064 45.97872 C 179.502703 44.970171 179.715614 43.752032 179.717375 42.289241 C 179.731513 40.897862 179.503576 39.682572 179.084869 38.664767 C 178.649919 37.628143 178.123722 37.113578 177.490035 37.102254 C 176.890121 37.111037 176.376844 37.619703 175.930098 38.662026 C 175.485929 39.669287 175.255487 40.886137 175.257591 42.296335 C 175.257119 43.741595 175.483767 44.974416 175.921294 45.975979 C 176.376351 46.97883 176.902548 47.493395 177.484932 47.483323 Z M 213.723779 68.336412 C 210.215815 68.342962 207.024659 67.156635 204.131491 64.793673 C 201.257142 62.414469 198.970566 59.23244 197.236702 55.245008 C 195.502839 51.257577 194.646533 46.84113 194.634013 41.97556 C 194.635158 37.163872 195.505894 32.750983 197.22869 28.735605 C 198.969017 24.721515 201.264941 21.541411 204.135281 19.17905 C 207.02444 16.800447 210.214236 15.607226 213.720912 15.618206 C 217.211346 15.610368 220.402502 16.796695 223.276851 19.175899 C 226.170019 21.538861 228.456594 24.72089 230.15282 28.740806 C 231.867864 32.74448 232.72417 37.160927 232.723025 41.972615 C 232.718014 46.836897 231.86352 51.268605 230.160832 55.25021 C 228.458143 59.231815 226.160931 62.429449 223.27306 64.790522 C 220.402721 67.152883 217.212924 68.346104 213.723779 68.336412 Z M 213.846902 47.47682 C 214.480589 47.488145 215.011396 46.980767 215.436746 45.989748 C 215.863385 44.981199 216.077584 43.745529 216.078057 42.300269 C 216.075952 40.890071 215.865546 39.67607 215.429308 38.656976 C 215.011889 37.62164 214.485692 37.107076 213.850716 37.113282 C 213.252091 37.104535 212.719995 37.629443 212.274537 38.654235 C 211.82908 39.679027 211.616168 40.897166 211.602031 42.288544 C 211.60027 43.751335 211.828207 44.966625 212.281976 45.987007 C 212.719502 46.98857 213.246988 47.485603 213.846902 47.47682 Z M 241.166183 68.344098 C 243.334072 68.344806 245.150293 67.614646 246.598602 66.134797 C 248.064442 64.656236 248.780557 62.347048 248.783299 59.192277 C 248.910825 56.258185 248.980368 54.11298 248.971821 52.790436 C 248.976667 51.045864 249.081308 50.101776 249.320805 49.960749 C 249.561591 49.802191 252.15924 49.711108 257.093645 49.721272 C 258.591497 49.72561 259.809092 48.986702 260.726322 47.538321 C 261.642263 46.107471 262.0944 44.272396 262.098974 42.051914 C 262.09707 38.720546 260.969362 36.557847 258.714563 35.581345 C 257.858637 35.236427 256.832049 35.05522 255.633509 35.055256 L 254.856998 35.068685 C 251.791171 35.054855 250.109499 34.913628 249.797029 34.608653 C 249.629451 34.490583 249.558548 34.25624 249.549256 33.903046 C 249.552306 32.422725 249.682989 31.603929 249.923775 31.445371 C 250.182091 31.288102 250.504089 31.223641 250.892344 31.216926 C 253.536144 31.217363 255.919557 31.16341 258.008812 31.03496 C 259.622157 30.906782 261.103495 30.416391 262.470356 29.565075 C 264.562152 28.203024 265.608777 25.953379 265.607653 22.851201 C 265.613787 21.089098 265.293551 19.690768 264.649519 18.621151 C 264.005488 17.551534 263.235656 16.754679 262.321204 16.246829 C 261.406751 15.738979 260.49179 15.477849 259.592563 15.482258 L 252.114391 15.549512 C 248.498664 15.583393 244.407029 15.617545 239.87841 15.601955 C 238.221492 15.603551 236.860293 16.138024 235.796102 17.187841 C 234.731911 18.237658 234.091817 19.512527 233.873244 21.04751 C 233.816277 21.342957 233.779419 21.604631 233.712653 21.793605 C 233.645887 21.982579 233.622694 22.298134 233.6093 22.720162 L 233.616559 24.060237 C 233.485168 27.046922 233.420578 31.043173 233.436456 36.10287 C 233.388273 36.998231 233.371286 37.948762 233.366676 38.970705 L 233.226429 38.960397 C 233.218985 48.653897 233.211942 54.505059 233.171526 56.493775 C 233.165155 58.978508 233.189945 60.319871 233.227075 60.534107 C 233.224062 63.212968 233.925095 65.185677 235.295113 66.449658 C 236.700193 67.716217 238.646388 68.33515 241.166183 68.344098 Z M 271.834538 52.038506 C 273.545337 52.023244 275.138303 51.45293 276.633542 50.29379 C 278.111251 49.133361 279.171304 47.660227 279.76111 45.870521 C 280.193411 44.545128 280.451692 43.189319 280.554772 41.786852 C 280.659141 40.366854 280.761169 38.259288 280.844614 35.445335 L 280.964373 31.417888 L 280.911781 31.414023 L 280.907027 27.641807 C 280.905667 25.262259 280.762772 22.889934 280.459522 20.541074 C 280.156272 18.192214 279.45395 16.237035 278.316206 14.690492 C 277.179751 13.126417 275.369157 12.341195 272.848074 12.349778 L 272.337102 12.347473 C 268.034588 12.612884 265.560507 15.339255 264.914859 20.526586 C 264.659699 22.799153 264.448384 25.67421 264.262095 29.168001 C 264.057023 33.876573 263.954522 37.429399 263.952017 39.861539 C 263.949512 42.29368 264.107089 44.226446 264.427326 45.624775 C 264.747563 47.023105 265.394951 48.28685 266.38831 49.399768 C 267.916378 51.151255 269.73806 52.02542 271.834538 52.038506 Z M 272.32866 74.811772 C 273.649916 74.820756 274.925529 74.491499 276.169166 73.877884 C 277.412803 73.264269 278.431625 72.352121 279.241873 71.160261 C 280.183076 69.625514 280.656101 67.985855 280.660947 66.241282 C 280.65162 64.689549 280.247594 63.232184 279.432629 61.850369 C 278.618951 60.451024 277.372429 59.425251 275.659289 58.752945 C 274.344204 58.180397 273.042277 57.908451 271.773614 57.903333 C 270.769202 57.900012 269.799344 58.145988 268.814023 58.602333 C 267.231638 59.508311 266.054531 60.655582 265.227532 62.075344 C 264.419353 63.478863 264.011806 64.94708 264.022422 66.481282 C 264.015779 68.490105 264.723255 70.375161 266.128606 72.117628 C 267.95341 73.908551 270.019236 74.818286 272.32866 74.811772 Z M 272.32866 74.811772 " stroke="#233d4d" stroke-width="3.2" stroke-opacity="1" stroke-miterlimit="4"/></svg>