<svg xmlns="http://www.w3.org/2000/svg" xmlns:xlink="http://www.w3.org/1999/xlink" width="128" zoomAndPan="magnify" viewBox="0 0 96 95.999999" height="128" preserveAspectRatio="xMidYMid meet" version="1.0"><defs><g/></defs><g fill="#ffffff" fill-opacity="1"><g transform="translate(10.097754, 46.79194)"><g><path d="M 1.65625 0.09375 C 2.007812 0.0703125 2.296875 -0.0664062 2.515625 -0.328125 C 2.742188 -0.597656 2.835938 -0.992188 2.796875 -1.515625 C 2.773438 -2.003906 2.757812 -2.359375 2.75 -2.578125 C 2.726562 -2.867188 2.734375 -3.023438 2.765625 -3.046875 C 2.804688 -3.078125 3.238281 -3.125 4.0625 -3.1875 C 4.3125 -3.207031 4.5 -3.335938 4.625 -3.578125 C 4.757812 -3.828125 4.816406 -4.132812 4.796875 -4.5 C 4.753906 -5.050781 4.539062 -5.394531 4.15625 -5.53125 C 4 -5.570312 3.820312 -5.585938 3.625 -5.578125 L 3.5 -5.5625 C 2.988281 -5.53125 2.710938 -5.535156 2.671875 -5.578125 C 2.640625 -5.597656 2.617188 -5.640625 2.609375 -5.703125 C 2.597656 -5.941406 2.609375 -6.078125 2.640625 -6.109375 C 2.679688 -6.140625 2.734375 -6.15625 2.796875 -6.15625 C 3.234375 -6.1875 3.628906 -6.226562 3.984375 -6.28125 C 4.242188 -6.320312 4.484375 -6.421875 4.703125 -6.578125 C 5.023438 -6.835938 5.171875 -7.222656 5.140625 -7.734375 C 5.117188 -8.023438 5.046875 -8.253906 4.921875 -8.421875 C 4.804688 -8.585938 4.671875 -8.707031 4.515625 -8.78125 C 4.359375 -8.851562 4.207031 -8.882812 4.0625 -8.875 L 2.8125 -8.78125 C 2.21875 -8.726562 1.546875 -8.675781 0.796875 -8.625 C 0.523438 -8.601562 0.304688 -8.5 0.140625 -8.3125 C -0.0234375 -8.125 -0.117188 -7.898438 -0.140625 -7.640625 C -0.128906 -7.585938 -0.128906 -7.546875 -0.140625 -7.515625 C -0.160156 -7.484375 -0.171875 -7.4375 -0.171875 -7.375 L -0.140625 -7.140625 C -0.128906 -6.648438 -0.09375 -5.984375 -0.03125 -5.140625 C -0.0195312 -4.992188 -0.0078125 -4.835938 0 -4.671875 L -0.03125 -4.65625 C 0.09375 -3.050781 0.164062 -2.085938 0.1875 -1.765625 C 0.21875 -1.347656 0.234375 -1.125 0.234375 -1.09375 C 0.265625 -0.644531 0.40625 -0.328125 0.65625 -0.140625 C 0.90625 0.046875 1.238281 0.125 1.65625 0.09375 Z M 1.65625 0.09375 "/></g></g></g><g fill="#ffffff" fill-opacity="1"><g transform="translate(15.298826, 46.409665)"><g><path d="M 1.71875 -0.046875 C 1.957031 -0.0664062 2.179688 -0.148438 2.390625 -0.296875 C 2.609375 -0.441406 2.765625 -0.65625 2.859375 -0.9375 C 2.941406 -1.269531 2.972656 -1.570312 2.953125 -1.84375 L 2.953125 -1.984375 C 2.941406 -2.085938 2.941406 -2.175781 2.953125 -2.25 L 2.984375 -2.265625 C 3.066406 -2.128906 3.296875 -1.863281 3.671875 -1.46875 C 4.078125 -1.03125 4.375 -0.738281 4.5625 -0.59375 C 4.851562 -0.414062 5.132812 -0.332031 5.40625 -0.34375 C 5.71875 -0.375 5.984375 -0.503906 6.203125 -0.734375 C 6.421875 -0.972656 6.519531 -1.242188 6.5 -1.546875 C 6.488281 -1.722656 6.421875 -1.898438 6.296875 -2.078125 C 5.898438 -2.566406 5.601562 -2.910156 5.40625 -3.109375 C 5.1875 -3.335938 5.070312 -3.492188 5.0625 -3.578125 C 5.0625 -3.617188 5.117188 -3.695312 5.234375 -3.8125 C 5.359375 -3.9375 5.53125 -4.140625 5.75 -4.421875 C 6.09375 -4.953125 6.238281 -5.519531 6.1875 -6.125 C 6.144531 -6.757812 5.890625 -7.34375 5.421875 -7.875 C 4.960938 -8.40625 4.296875 -8.726562 3.421875 -8.84375 C 2.992188 -8.875 2.578125 -8.875 2.171875 -8.84375 C 1.921875 -8.820312 1.664062 -8.800781 1.40625 -8.78125 C 1.125 -8.738281 0.863281 -8.644531 0.625 -8.5 C 0.382812 -8.363281 0.195312 -8.179688 0.0625 -7.953125 C -0.0703125 -7.722656 -0.125 -7.4375 -0.09375 -7.09375 L 0.125 -3.578125 C 0.144531 -3.359375 0.160156 -3.203125 0.171875 -3.109375 C 0.179688 -3.015625 0.1875 -2.9375 0.1875 -2.875 C 0.195312 -2.820312 0.207031 -2.75 0.21875 -2.65625 C 0.226562 -2.5625 0.265625 -2.128906 0.328125 -1.359375 C 0.328125 -1.304688 0.335938 -1.238281 0.359375 -1.15625 C 0.390625 -1.082031 0.414062 -1.007812 0.4375 -0.9375 C 0.539062 -0.613281 0.710938 -0.378906 0.953125 -0.234375 C 1.203125 -0.0859375 1.457031 -0.0234375 1.71875 -0.046875 Z M 3 -4.875 C 2.925781 -4.882812 2.878906 -5.050781 2.859375 -5.375 C 2.816406 -5.882812 2.835938 -6.144531 2.921875 -6.15625 L 2.9375 -6.15625 C 3.03125 -6.164062 3.117188 -6.097656 3.203125 -5.953125 C 3.296875 -5.804688 3.347656 -5.675781 3.359375 -5.5625 C 3.367188 -5.394531 3.34375 -5.242188 3.28125 -5.109375 C 3.21875 -4.984375 3.125 -4.90625 3 -4.875 Z M 3 -4.875 "/></g></g></g><g fill="#ffffff" fill-opacity="1"><g transform="translate(21.622733, 45.944862)"><g><path d="M 1.625 -0.03125 C 1.875 -0.0390625 2.101562 -0.0976562 2.3125 -0.203125 C 2.53125 -0.316406 2.695312 -0.503906 2.8125 -0.765625 C 2.9375 -1.035156 2.976562 -1.40625 2.9375 -1.875 C 2.90625 -2.625 2.859375 -3.429688 2.796875 -4.296875 C 2.679688 -5.878906 2.582031 -6.992188 2.5 -7.640625 C 2.445312 -7.984375 2.289062 -8.253906 2.03125 -8.453125 C 1.769531 -8.660156 1.453125 -8.75 1.078125 -8.71875 C 0.710938 -8.6875 0.421875 -8.546875 0.203125 -8.296875 C -0.015625 -8.054688 -0.128906 -7.75 -0.140625 -7.375 C -0.148438 -7.257812 -0.148438 -7.148438 -0.140625 -7.046875 C -0.140625 -6.953125 -0.132812 -6.828125 -0.125 -6.671875 C -0.125 -6.515625 -0.113281 -6.285156 -0.09375 -5.984375 L 0.234375 -1.921875 L 0.25 -1.640625 C 0.289062 -1.128906 0.410156 -0.722656 0.609375 -0.421875 C 0.804688 -0.117188 1.144531 0.0078125 1.625 -0.03125 Z M 1.625 -0.03125 "/></g></g></g><g fill="#ffffff" fill-opacity="1"><g transform="translate(24.758205, 45.714407)"><g><path d="M 2.296875 0.0625 C 2.597656 0.0390625 2.953125 0.0078125 3.359375 -0.03125 C 3.648438 -0.0625 3.976562 -0.09375 4.34375 -0.125 C 4.707031 -0.15625 5.015625 -0.285156 5.265625 -0.515625 C 5.515625 -0.753906 5.625 -1.070312 5.59375 -1.46875 C 5.5625 -1.851562 5.4375 -2.164062 5.21875 -2.40625 C 5 -2.65625 4.726562 -2.789062 4.40625 -2.8125 C 3.757812 -2.757812 3.253906 -2.726562 2.890625 -2.71875 C 2.835938 -2.71875 2.804688 -2.738281 2.796875 -2.78125 C 2.785156 -2.820312 2.773438 -2.878906 2.765625 -2.953125 C 2.765625 -3.023438 2.769531 -3.070312 2.78125 -3.09375 C 2.789062 -3.113281 2.828125 -3.128906 2.890625 -3.140625 C 2.953125 -3.148438 3.054688 -3.164062 3.203125 -3.1875 L 3.703125 -3.234375 C 3.785156 -3.242188 3.910156 -3.253906 4.078125 -3.265625 C 4.242188 -3.273438 4.414062 -3.316406 4.59375 -3.390625 C 4.957031 -3.523438 5.113281 -3.9375 5.0625 -4.625 C 5.039062 -4.925781 4.972656 -5.144531 4.859375 -5.28125 C 4.640625 -5.488281 4.316406 -5.578125 3.890625 -5.546875 C 3.421875 -5.515625 3.109375 -5.5 2.953125 -5.5 C 2.804688 -5.5 2.71875 -5.515625 2.6875 -5.546875 C 2.664062 -5.578125 2.648438 -5.628906 2.640625 -5.703125 L 2.640625 -5.734375 L 2.609375 -5.90625 C 2.609375 -5.957031 2.640625 -5.992188 2.703125 -6.015625 C 2.847656 -6.023438 3.054688 -6.050781 3.328125 -6.09375 C 3.679688 -6.144531 4 -6.179688 4.28125 -6.203125 C 4.59375 -6.222656 4.820312 -6.328125 4.96875 -6.515625 C 5.195312 -6.773438 5.296875 -7.109375 5.265625 -7.515625 C 5.234375 -7.890625 5.132812 -8.175781 4.96875 -8.375 C 4.625 -8.738281 4.109375 -8.894531 3.421875 -8.84375 L 0.890625 -8.65625 C 0.210938 -8.5625 -0.140625 -8.253906 -0.171875 -7.734375 C -0.171875 -7.617188 -0.148438 -7.265625 -0.109375 -6.671875 C -0.0859375 -6.335938 -0.0625 -6 -0.03125 -5.65625 C -0.0078125 -5.320312 0.0078125 -5.035156 0.03125 -4.796875 C 0.0507812 -4.566406 0.0664062 -4.453125 0.078125 -4.453125 L 0.21875 -2.3125 C 0.28125 -1.570312 0.359375 -1.023438 0.453125 -0.671875 C 0.554688 -0.328125 0.75 -0.109375 1.03125 -0.015625 C 1.3125 0.078125 1.734375 0.101562 2.296875 0.0625 Z M 2.296875 0.0625 "/></g></g></g><g fill="#ffffff" fill-opacity="1"><g transform="translate(30.224093, 45.312668)"><g><path d="M 1.5625 0.078125 C 3.164062 -0.046875 4.316406 -0.609375 5.015625 -1.609375 C 5.628906 -2.472656 5.898438 -3.519531 5.828125 -4.75 C 5.773438 -5.445312 5.582031 -6.113281 5.25 -6.75 C 4.914062 -7.382812 4.421875 -7.878906 3.765625 -8.234375 C 3.109375 -8.597656 2.269531 -8.753906 1.25 -8.703125 C 0.882812 -8.671875 0.566406 -8.488281 0.296875 -8.15625 C 0.0234375 -7.832031 -0.109375 -7.445312 -0.109375 -7 C -0.0859375 -6.46875 -0.03125 -5.5625 0.0625 -4.28125 L 0.171875 -2.90625 C 0.234375 -1.976562 0.273438 -1.457031 0.296875 -1.34375 C 0.328125 -1.132812 0.398438 -0.914062 0.515625 -0.6875 C 0.640625 -0.46875 0.789062 -0.28125 0.96875 -0.125 C 1.15625 0.0195312 1.351562 0.0859375 1.5625 0.078125 Z M 2.6875 -3.46875 C 2.664062 -3.46875 2.65625 -3.472656 2.65625 -3.484375 C 2.65625 -3.566406 2.613281 -4.191406 2.53125 -5.359375 C 2.539062 -5.390625 2.554688 -5.40625 2.578125 -5.40625 C 2.617188 -5.40625 2.6875 -5.375 2.78125 -5.3125 C 2.875 -5.25 2.960938 -5.148438 3.046875 -5.015625 C 3.128906 -4.878906 3.175781 -4.6875 3.1875 -4.4375 C 3.207031 -4.207031 3.179688 -4.019531 3.109375 -3.875 C 3.046875 -3.726562 2.96875 -3.625 2.875 -3.5625 C 2.789062 -3.5 2.726562 -3.46875 2.6875 -3.46875 Z M 2.6875 -3.46875 "/></g></g></g><g fill="#ffffff" fill-opacity="1"><g transform="translate(36.039544, 44.885237)"><g/></g></g><g fill="#ffffff" fill-opacity="1"><g transform="translate(39.747026, 44.612739)"><g><path d="M 3.296875 -0.0625 C 3.796875 -0.101562 4.265625 -0.257812 4.703125 -0.53125 C 5.148438 -0.8125 5.507812 -1.191406 5.78125 -1.671875 C 6.0625 -2.160156 6.1875 -2.617188 6.15625 -3.046875 C 6.113281 -3.523438 5.867188 -3.859375 5.421875 -4.046875 C 5.203125 -4.109375 5.019531 -4.132812 4.875 -4.125 C 4.65625 -4.113281 4.476562 -4.039062 4.34375 -3.90625 C 4.21875 -3.78125 4.109375 -3.644531 4.015625 -3.5 C 3.953125 -3.394531 3.890625 -3.3125 3.828125 -3.25 C 3.765625 -3.1875 3.691406 -3.144531 3.609375 -3.125 C 3.503906 -3.113281 3.363281 -3.144531 3.1875 -3.21875 C 3.007812 -3.289062 2.851562 -3.414062 2.71875 -3.59375 C 2.59375 -3.769531 2.519531 -4.015625 2.5 -4.328125 C 2.488281 -4.492188 2.503906 -4.675781 2.546875 -4.875 C 2.597656 -5.070312 2.675781 -5.25 2.78125 -5.40625 C 2.882812 -5.5625 3.007812 -5.644531 3.15625 -5.65625 C 3.25 -5.65625 3.34375 -5.628906 3.4375 -5.578125 C 3.644531 -5.472656 3.851562 -5.429688 4.0625 -5.453125 C 4.21875 -5.460938 4.40625 -5.515625 4.625 -5.609375 C 4.882812 -5.710938 5.066406 -5.867188 5.171875 -6.078125 C 5.285156 -6.296875 5.332031 -6.53125 5.3125 -6.78125 C 5.289062 -7.0625 5.191406 -7.328125 5.015625 -7.578125 C 4.691406 -8.003906 4.316406 -8.3125 3.890625 -8.5 C 3.472656 -8.6875 3.050781 -8.765625 2.625 -8.734375 C 2.164062 -8.703125 1.726562 -8.546875 1.3125 -8.265625 C 0.894531 -7.984375 0.554688 -7.582031 0.296875 -7.0625 C -0.171875 -6.113281 -0.363281 -5.097656 -0.28125 -4.015625 C -0.21875 -3.234375 -0.0078125 -2.484375 0.34375 -1.765625 C 0.65625 -1.148438 1.082031 -0.703125 1.625 -0.421875 C 2.175781 -0.140625 2.734375 -0.0195312 3.296875 -0.0625 Z M 3.296875 -0.0625 "/></g></g></g><g fill="#ffffff" fill-opacity="1"><g transform="translate(45.668407, 44.177522)"><g><path d="M 1.625 0.046875 C 1.96875 0.0234375 2.28125 -0.0820312 2.5625 -0.28125 C 2.851562 -0.488281 3.003906 -0.800781 3.015625 -1.21875 C 2.992188 -1.570312 2.972656 -1.863281 2.953125 -2.09375 C 2.941406 -2.320312 2.9375 -2.492188 2.9375 -2.609375 C 2.9375 -2.734375 2.96875 -2.796875 3.03125 -2.796875 L 3.40625 -2.84375 C 3.46875 -2.84375 3.507812 -2.835938 3.53125 -2.828125 C 3.550781 -2.828125 3.5625 -2.8125 3.5625 -2.78125 L 3.59375 -2.421875 C 3.632812 -1.804688 3.679688 -1.351562 3.734375 -1.0625 C 3.828125 -0.75 4 -0.523438 4.25 -0.390625 C 4.507812 -0.253906 4.789062 -0.195312 5.09375 -0.21875 C 5.3125 -0.226562 5.519531 -0.289062 5.71875 -0.40625 C 6.15625 -0.632812 6.351562 -1.003906 6.3125 -1.515625 C 6.226562 -2.703125 6.160156 -3.664062 6.109375 -4.40625 C 6.078125 -5.039062 6.015625 -5.992188 5.921875 -7.265625 C 5.890625 -7.710938 5.789062 -8.054688 5.625 -8.296875 C 5.34375 -8.722656 4.9375 -8.921875 4.40625 -8.890625 C 4.195312 -8.867188 4.007812 -8.820312 3.84375 -8.75 C 3.6875 -8.675781 3.578125 -8.601562 3.515625 -8.53125 C 3.378906 -8.320312 3.300781 -8.066406 3.28125 -7.765625 C 3.257812 -7.472656 3.257812 -7.191406 3.28125 -6.921875 L 3.390625 -5.515625 C 3.421875 -5.085938 3.40625 -4.867188 3.34375 -4.859375 L 3.015625 -4.828125 C 2.910156 -4.816406 2.847656 -4.820312 2.828125 -4.84375 C 2.804688 -4.875 2.796875 -4.929688 2.796875 -5.015625 L 2.671875 -6.8125 L 2.625 -7.46875 C 2.601562 -7.78125 2.503906 -8.03125 2.328125 -8.21875 C 2.148438 -8.40625 1.9375 -8.53125 1.6875 -8.59375 C 1.4375 -8.664062 1.191406 -8.691406 0.953125 -8.671875 C 0.617188 -8.648438 0.351562 -8.484375 0.15625 -8.171875 C -0.03125 -7.859375 -0.113281 -7.457031 -0.09375 -6.96875 L 0.15625 -3.0625 C 0.1875 -2.644531 0.222656 -2.128906 0.265625 -1.515625 C 0.296875 -1.160156 0.332031 -0.878906 0.375 -0.671875 C 0.425781 -0.472656 0.53125 -0.304688 0.6875 -0.171875 C 0.9375 0.00390625 1.25 0.078125 1.625 0.046875 Z M 1.625 0.046875 "/></g></g></g><g fill="#ffffff" fill-opacity="1"><g transform="translate(52.098245, 43.704933)"><g><path d="M 1.625 -0.03125 C 1.875 -0.0390625 2.101562 -0.0976562 2.3125 -0.203125 C 2.53125 -0.316406 2.695312 -0.503906 2.8125 -0.765625 C 2.9375 -1.035156 2.976562 -1.40625 2.9375 -1.875 C 2.90625 -2.625 2.859375 -3.429688 2.796875 -4.296875 C 2.679688 -5.878906 2.582031 -6.992188 2.5 -7.640625 C 2.445312 -7.984375 2.289062 -8.253906 2.03125 -8.453125 C 1.769531 -8.660156 1.453125 -8.75 1.078125 -8.71875 C 0.710938 -8.6875 0.421875 -8.546875 0.203125 -8.296875 C -0.015625 -8.054688 -0.128906 -7.75 -0.140625 -7.375 C -0.148438 -7.257812 -0.148438 -7.148438 -0.140625 -7.046875 C -0.140625 -6.953125 -0.132812 -6.828125 -0.125 -6.671875 C -0.125 -6.515625 -0.113281 -6.285156 -0.09375 -5.984375 L 0.234375 -1.921875 L 0.25 -1.640625 C 0.289062 -1.128906 0.410156 -0.722656 0.609375 -0.421875 C 0.804688 -0.117188 1.144531 0.0078125 1.625 -0.03125 Z M 1.625 -0.03125 "/></g></g></g><g fill="#ffffff" fill-opacity="1"><g transform="translate(55.233718, 43.474478)"><g><path d="M 3.296875 -0.0625 C 3.796875 -0.101562 4.265625 -0.257812 4.703125 -0.53125 C 5.148438 -0.8125 5.507812 -1.191406 5.78125 -1.671875 C 6.0625 -2.160156 6.1875 -2.617188 6.15625 -3.046875 C 6.113281 -3.523438 5.867188 -3.859375 5.421875 -4.046875 C 5.203125 -4.109375 5.019531 -4.132812 4.875 -4.125 C 4.65625 -4.113281 4.476562 -4.039062 4.34375 -3.90625 C 4.21875 -3.78125 4.109375 -3.644531 4.015625 -3.5 C 3.953125 -3.394531 3.890625 -3.3125 3.828125 -3.25 C 3.765625 -3.1875 3.691406 -3.144531 3.609375 -3.125 C 3.503906 -3.113281 3.363281 -3.144531 3.1875 -3.21875 C 3.007812 -3.289062 2.851562 -3.414062 2.71875 -3.59375 C 2.59375 -3.769531 2.519531 -4.015625 2.5 -4.328125 C 2.488281 -4.492188 2.503906 -4.675781 2.546875 -4.875 C 2.597656 -5.070312 2.675781 -5.25 2.78125 -5.40625 C 2.882812 -5.5625 3.007812 -5.644531 3.15625 -5.65625 C 3.25 -5.65625 3.34375 -5.628906 3.4375 -5.578125 C 3.644531 -5.472656 3.851562 -5.429688 4.0625 -5.453125 C 4.21875 -5.460938 4.40625 -5.515625 4.625 -5.609375 C 4.882812 -5.710938 5.066406 -5.867188 5.171875 -6.078125 C 5.285156 -6.296875 5.332031 -6.53125 5.3125 -6.78125 C 5.289062 -7.0625 5.191406 -7.328125 5.015625 -7.578125 C 4.691406 -8.003906 4.316406 -8.3125 3.890625 -8.5 C 3.472656 -8.6875 3.050781 -8.765625 2.625 -8.734375 C 2.164062 -8.703125 1.726562 -8.546875 1.3125 -8.265625 C 0.894531 -7.984375 0.554688 -7.582031 0.296875 -7.0625 C -0.171875 -6.113281 -0.363281 -5.097656 -0.28125 -4.015625 C -0.21875 -3.234375 -0.0078125 -2.484375 0.34375 -1.765625 C 0.65625 -1.148438 1.082031 -0.703125 1.625 -0.421875 C 2.175781 -0.140625 2.734375 -0.0195312 3.296875 -0.0625 Z M 3.296875 -0.0625 "/></g></g></g><g fill="#ffffff" fill-opacity="1"><g transform="translate(61.155096, 43.039261)"><g><path d="M 5.671875 -0.359375 C 5.960938 -0.378906 6.210938 -0.492188 6.421875 -0.703125 C 6.640625 -0.910156 6.734375 -1.171875 6.703125 -1.484375 C 6.679688 -1.867188 6.476562 -2.25 6.09375 -2.625 C 5.632812 -3.007812 5.253906 -3.320312 4.953125 -3.5625 L 4.53125 -3.9375 C 4.300781 -4.125 4.179688 -4.242188 4.171875 -4.296875 C 4.179688 -4.335938 4.195312 -4.375 4.21875 -4.40625 L 5.203125 -5.609375 C 5.785156 -6.265625 6.160156 -6.816406 6.328125 -7.265625 C 6.390625 -7.460938 6.414062 -7.65625 6.40625 -7.84375 C 6.375 -8.207031 6.234375 -8.503906 5.984375 -8.734375 C 5.734375 -8.972656 5.460938 -9.082031 5.171875 -9.0625 C 4.953125 -9.050781 4.753906 -8.957031 4.578125 -8.78125 C 4.398438 -8.601562 4.125 -8.304688 3.75 -7.890625 L 2.515625 -6.4375 C 2.503906 -6.570312 2.488281 -6.703125 2.46875 -6.828125 L 2.453125 -7.03125 C 2.441406 -7.226562 2.421875 -7.445312 2.390625 -7.6875 C 2.367188 -7.976562 2.222656 -8.226562 1.953125 -8.4375 C 1.679688 -8.644531 1.375 -8.75 1.03125 -8.75 C 0.78125 -8.726562 0.550781 -8.613281 0.34375 -8.40625 C 0.144531 -8.195312 0.0195312 -7.953125 -0.03125 -7.671875 C -0.101562 -7.210938 -0.0820312 -6.195312 0.03125 -4.625 C 0.0820312 -3.957031 0.128906 -3.335938 0.171875 -2.765625 L 0.28125 -1.609375 C 0.425781 -0.523438 0.867188 -0.015625 1.609375 -0.078125 L 1.78125 -0.0625 C 2.0625 -0.0820312 2.300781 -0.203125 2.5 -0.421875 C 2.695312 -0.640625 2.785156 -0.925781 2.765625 -1.28125 C 2.753906 -1.375 2.742188 -1.460938 2.734375 -1.546875 C 2.722656 -1.628906 2.710938 -1.71875 2.703125 -1.8125 L 2.703125 -2.015625 L 2.71875 -2.015625 L 4.828125 -0.59375 C 5.109375 -0.414062 5.390625 -0.335938 5.671875 -0.359375 Z M 5.671875 -0.359375 "/></g></g></g><g fill="#ffffff" fill-opacity="1"><g transform="translate(67.659081, 42.561222)"><g><path d="M 2.296875 0.0625 C 2.597656 0.0390625 2.953125 0.0078125 3.359375 -0.03125 C 3.648438 -0.0625 3.976562 -0.09375 4.34375 -0.125 C 4.707031 -0.15625 5.015625 -0.285156 5.265625 -0.515625 C 5.515625 -0.753906 5.625 -1.070312 5.59375 -1.46875 C 5.5625 -1.851562 5.4375 -2.164062 5.21875 -2.40625 C 5 -2.65625 4.726562 -2.789062 4.40625 -2.8125 C 3.757812 -2.757812 3.253906 -2.726562 2.890625 -2.71875 C 2.835938 -2.71875 2.804688 -2.738281 2.796875 -2.78125 C 2.785156 -2.820312 2.773438 -2.878906 2.765625 -2.953125 C 2.765625 -3.023438 2.769531 -3.070312 2.78125 -3.09375 C 2.789062 -3.113281 2.828125 -3.128906 2.890625 -3.140625 C 2.953125 -3.148438 3.054688 -3.164062 3.203125 -3.1875 L 3.703125 -3.234375 C 3.785156 -3.242188 3.910156 -3.253906 4.078125 -3.265625 C 4.242188 -3.273438 4.414062 -3.316406 4.59375 -3.390625 C 4.957031 -3.523438 5.113281 -3.9375 5.0625 -4.625 C 5.039062 -4.925781 4.972656 -5.144531 4.859375 -5.28125 C 4.640625 -5.488281 4.316406 -5.578125 3.890625 -5.546875 C 3.421875 -5.515625 3.109375 -5.5 2.953125 -5.5 C 2.804688 -5.5 2.71875 -5.515625 2.6875 -5.546875 C 2.664062 -5.578125 2.648438 -5.628906 2.640625 -5.703125 L 2.640625 -5.734375 L 2.609375 -5.90625 C 2.609375 -5.957031 2.640625 -5.992188 2.703125 -6.015625 C 2.847656 -6.023438 3.054688 -6.050781 3.328125 -6.09375 C 3.679688 -6.144531 4 -6.179688 4.28125 -6.203125 C 4.59375 -6.222656 4.820312 -6.328125 4.96875 -6.515625 C 5.195312 -6.773438 5.296875 -7.109375 5.265625 -7.515625 C 5.234375 -7.890625 5.132812 -8.175781 4.96875 -8.375 C 4.625 -8.738281 4.109375 -8.894531 3.421875 -8.84375 L 0.890625 -8.65625 C 0.210938 -8.5625 -0.140625 -8.253906 -0.171875 -7.734375 C -0.171875 -7.617188 -0.148438 -7.265625 -0.109375 -6.671875 C -0.0859375 -6.335938 -0.0625 -6 -0.03125 -5.65625 C -0.0078125 -5.320312 0.0078125 -5.035156 0.03125 -4.796875 C 0.0507812 -4.566406 0.0664062 -4.453125 0.078125 -4.453125 L 0.21875 -2.3125 C 0.28125 -1.570312 0.359375 -1.023438 0.453125 -0.671875 C 0.554688 -0.328125 0.75 -0.109375 1.03125 -0.015625 C 1.3125 0.078125 1.734375 0.101562 2.296875 0.0625 Z M 2.296875 0.0625 "/></g></g></g><g fill="#ffffff" fill-opacity="1"><g transform="translate(73.124967, 42.159484)"><g><path d="M 6.59375 -0.25 C 6.988281 -0.28125 7.269531 -0.410156 7.4375 -0.640625 C 7.613281 -0.867188 7.710938 -1.238281 7.734375 -1.75 C 7.765625 -2.269531 7.75 -2.96875 7.6875 -3.84375 C 7.59375 -5.039062 7.523438 -5.847656 7.484375 -6.265625 L 7.390625 -7.84375 C 7.367188 -8.132812 7.210938 -8.398438 6.921875 -8.640625 C 6.640625 -8.890625 6.304688 -9.003906 5.921875 -8.984375 C 5.234375 -8.929688 4.816406 -8.550781 4.671875 -7.84375 C 4.585938 -7.4375 4.570312 -6.707031 4.625 -5.65625 C 4.632812 -5.46875 4.585938 -5.359375 4.484375 -5.328125 C 4.441406 -5.316406 4.378906 -5.359375 4.296875 -5.453125 L 3.984375 -5.828125 C 2.742188 -7.347656 1.960938 -8.21875 1.640625 -8.4375 C 1.410156 -8.570312 1.160156 -8.628906 0.890625 -8.609375 C 0.710938 -8.597656 0.539062 -8.539062 0.375 -8.4375 C 0.21875 -8.34375 0.09375 -8.1875 0 -7.96875 C -0.0820312 -7.757812 -0.113281 -7.476562 -0.09375 -7.125 C -0.09375 -7.125 -0.078125 -6.863281 -0.046875 -6.34375 C -0.015625 -5.832031 0.0195312 -5.226562 0.0625 -4.53125 C 0.113281 -3.832031 0.160156 -3.210938 0.203125 -2.671875 C 0.253906 -1.890625 0.285156 -1.5 0.296875 -1.5 C 0.316406 -1.289062 0.363281 -1.050781 0.4375 -0.78125 C 0.644531 -0.132812 1.097656 0.160156 1.796875 0.109375 C 2.234375 0.078125 2.546875 -0.078125 2.734375 -0.359375 C 2.921875 -0.648438 3.003906 -0.972656 2.984375 -1.328125 C 2.960938 -1.628906 2.945312 -2.085938 2.9375 -2.703125 L 2.9375 -2.765625 C 2.9375 -2.796875 2.941406 -2.835938 2.953125 -2.890625 C 2.972656 -2.941406 3.003906 -2.96875 3.046875 -2.96875 C 3.066406 -2.96875 3.09375 -2.957031 3.125 -2.9375 C 3.414062 -2.675781 3.691406 -2.378906 3.953125 -2.046875 L 4.296875 -1.640625 C 4.535156 -1.335938 4.859375 -1.03125 5.265625 -0.71875 C 5.679688 -0.40625 6.125 -0.25 6.59375 -0.25 Z M 6.59375 -0.25 "/></g></g></g><path stroke-linecap="butt" transform="matrix(0.662049, -0.0486602, 0.0486602, 0.662049, -0.342589, 36.909287)" fill="none" stroke-linejoin="miter" d="M 17.058799 16.336139 C 17.601724 16.334742 18.057823 16.149956 18.414929 15.786787 C 18.778335 15.418181 18.962745 14.835811 18.961858 14.045113 C 18.992301 13.309821 19.007647 12.779927 19.008327 12.449563 C 19.005035 12.012704 19.040325 11.773388 19.096161 11.73619 C 19.157866 11.699423 19.80815 11.682316 21.041576 11.678568 C 21.413019 11.682268 21.715674 11.498005 21.94281 11.137083 C 22.175814 10.776594 22.28618 10.318586 22.291514 9.764356 C 22.28821 8.926279 22.008835 8.392424 21.442946 8.144323 C 21.225118 8.05751 20.968627 8.015057 20.673475 8.016964 L 20.478951 8.014468 C 19.711727 8.01708 19.289624 7.980155 19.218509 7.904125 C 19.173717 7.871332 19.154556 7.810921 19.154726 7.72833 C 19.152558 7.356456 19.18526 7.152351 19.246965 7.115584 C 19.314969 7.073381 19.392986 7.055514 19.487314 7.056547 C 20.148472 7.052039 20.739639 7.036487 21.266684 7.010322 C 21.670489 6.975099 22.045122 6.855128 22.385576 6.638241 C 22.906139 6.298887 23.165545 5.739729 23.169664 4.9612 C 23.166372 4.52434 23.086187 4.170333 22.928678 3.905045 C 22.771169 3.639758 22.573273 3.442306 22.340858 3.313119 C 22.114312 3.184363 21.88889 3.120593 21.664591 3.121808 L 19.79305 3.137657 C 18.889556 3.147954 17.868692 3.149624 16.735462 3.154836 C 16.322508 3.153986 15.976787 3.281982 15.709604 3.545556 C 15.442421 3.809129 15.289159 4.128278 15.231348 4.513445 C 15.225741 4.589736 15.209691 4.647559 15.194071 4.699513 C 15.173015 4.745167 15.167408 4.821458 15.165512 4.927523 L 15.170269 5.264187 C 15.138964 6.011216 15.118454 7.01275 15.120045 8.275518 C 15.109523 8.498954 15.104007 8.734558 15.102634 8.994068 L 15.073291 8.991911 C 15.072069 11.416821 15.071163 12.874114 15.057974 13.374665 C 15.059633 13.994312 15.064389 14.330976 15.072244 14.384655 C 15.075889 15.05755 15.24635 15.547999 15.594933 15.862731 C 15.937647 16.177032 16.427414 16.336935 17.058799 16.336139 Z M 25.045424 16.126618 C 25.40513 16.129455 25.748695 16.030802 26.076118 15.830658 C 26.397242 15.635952 26.655707 15.330435 26.850219 14.931715 C 27.02229 14.436941 27.108751 13.983077 27.104164 13.563823 L 27.10623 13.375167 C 27.106139 13.215854 27.110191 13.080446 27.123824 12.975244 L 27.202703 12.94564 C 27.323876 13.143354 27.634921 13.567432 28.142567 14.206568 C 28.687412 14.901541 29.101502 15.368594 29.378107 15.619033 C 29.792106 15.926773 30.205583 16.081069 30.607231 16.075188 C 31.078871 16.080352 31.492597 15.910153 31.847547 15.576326 C 32.208796 15.237063 32.38484 14.848786 32.388279 14.40062 C 32.384215 14.134811 32.304291 13.857525 32.142639 13.568333 C 31.603402 12.797069 31.189482 12.247425 30.912616 11.920263 C 30.603558 11.549433 30.450623 11.302183 30.447513 11.18395 C 30.447252 11.107227 30.550206 10.990889 30.74464 10.834073 C 30.945373 10.67182 31.219718 10.391071 31.568106 9.98596 C 32.149068 9.226228 32.434616 8.39168 32.431481 7.471012 C 32.436372 6.521433 32.118754 5.624852 31.47906 4.775402 C 30.845233 3.926384 29.877083 3.371406 28.580907 3.105031 C 27.950556 3.011498 27.317185 2.959046 26.685801 2.959841 C 26.308058 2.961579 25.924015 2.968753 25.538678 2.993533 C 25.088787 3.013569 24.680237 3.113346 24.312596 3.298734 C 23.945387 3.478252 23.649293 3.733801 23.418014 4.070817 C 23.186736 4.407832 23.073089 4.830197 23.076643 5.343779 L 23.042711 10.622001 C 23.041599 10.958233 23.04782 11.1947 23.049205 11.336408 C 23.056459 11.478546 23.059569 11.59678 23.058968 11.685239 C 23.057935 11.779567 23.061046 11.897801 23.067868 12.045808 C 23.069253 12.187516 23.074623 12.836937 23.077678 13.999509 C 23.072071 14.0758 23.088644 14.171422 23.120666 14.297681 C 23.153119 14.418071 23.180566 14.526292 23.203007 14.622346 C 23.330663 15.133249 23.568005 15.516508 23.921763 15.760818 C 24.275522 16.005128 24.650075 16.127061 25.045424 16.126618 Z M 27.503864 9.008713 C 27.399093 8.989212 27.341781 8.725389 27.343233 8.223975 C 27.34649 7.457183 27.4043 7.072017 27.522534 7.068906 L 27.557745 7.071494 C 27.705321 7.07054 27.838402 7.186526 27.951119 7.41902 C 28.070136 7.646077 28.131762 7.851214 28.130128 8.034002 C 28.130049 8.275906 28.072578 8.495891 27.964016 8.68852 C 27.849586 8.880717 27.694246 8.987305 27.503864 9.008713 Z M 34.449047 16.14515 C 34.820921 16.142982 35.174066 16.074534 35.503476 15.927638 C 35.838754 15.781174 36.105937 15.5176 36.316761 15.137779 C 36.522148 14.751659 36.627247 14.204761 36.625759 13.502523 C 36.66577 12.396218 36.690502 11.176686 36.687356 9.854801 C 36.690995 7.477271 36.661343 5.793523 36.610568 4.79855 C 36.565503 4.287817 36.354655 3.865203 35.972587 3.524409 C 35.595955 3.189914 35.130093 3.025868 34.575862 3.020534 C 34.021201 3.021069 33.565532 3.199986 33.215157 3.551849 C 32.864782 3.903712 32.665956 4.361118 32.61238 4.929504 C 32.588997 5.087091 32.571482 5.245111 32.559836 5.403561 C 32.548622 5.556143 32.540256 5.750236 32.53474 5.985841 C 32.529224 6.221445 32.528112 6.557677 32.530542 7.006274 L 32.574481 13.151654 L 32.560168 13.58722 C 32.56278 14.354443 32.694409 14.971843 32.960923 15.43985 C 33.227437 15.907857 33.723334 16.144913 34.449047 16.14515 Z M 40.180531 16.354002 C 40.634997 16.352003 41.172916 16.338438 41.793857 16.319174 C 42.242885 16.310875 42.739293 16.300159 43.282218 16.298762 C 43.825574 16.291496 44.297985 16.12561 44.693583 15.800672 C 45.09505 15.476165 45.293875 15.018759 45.295498 14.434754 C 45.297551 13.844881 45.144696 13.355727 44.837363 12.961423 C 44.535899 12.56755 44.151504 12.338689 43.684178 12.27484 C 42.710693 12.274093 41.950201 12.265399 41.39597 12.260065 C 41.320542 12.24272 41.269881 12.209496 41.257021 12.143648 C 41.24416 12.0778 41.232593 11.994346 41.234488 11.888281 C 41.236384 11.782216 41.241991 11.705925 41.262616 11.666139 C 41.283672 11.620485 41.344514 11.595456 41.439705 11.584751 C 41.534895 11.574047 41.695071 11.562219 41.920232 11.549267 L 42.659838 11.521024 C 42.795677 11.519208 42.990202 11.521705 43.244274 11.516778 C 43.492047 11.517288 43.748276 11.483019 44.001656 11.407238 C 44.580564 11.237379 44.866895 10.632998 44.866088 9.600397 C 44.869526 9.152231 44.781747 8.821266 44.608619 8.607933 C 44.320879 8.268171 43.855448 8.098257 43.20059 8.097327 C 42.498351 8.098816 42.033012 8.088214 41.810007 8.071824 C 41.587003 8.055433 41.453752 8.022038 41.410254 7.971639 C 41.367188 7.915372 41.349752 7.831487 41.345779 7.72499 L 41.344224 7.665874 L 41.33386 7.405501 C 41.333167 7.334648 41.378129 7.28485 41.473751 7.268277 C 41.686312 7.2662 42.000364 7.247981 42.415907 7.21362 C 42.961851 7.171143 43.441085 7.153264 43.859907 7.154546 C 44.337847 7.154273 44.695305 7.02714 44.93142 6.784883 C 45.290252 6.39824 45.47406 5.904329 45.471539 5.296419 C 45.471867 4.73002 45.350772 4.290402 45.102818 3.971265 C 44.637806 3.394265 43.892149 3.10345 42.865416 3.104689 L 39.024294 3.105581 C 38.004984 3.166368 37.436872 3.590731 37.332556 4.367796 C 37.308311 4.537121 37.297971 5.079183 37.296531 5.981814 C 37.295941 6.471491 37.300358 6.973336 37.303911 7.486918 C 37.307465 8.000501 37.317057 8.431923 37.32052 8.786192 C 37.330283 9.135024 37.334948 9.312374 37.346685 9.313237 L 37.331162 12.574929 C 37.333094 13.672516 37.390941 14.491001 37.504703 15.030384 C 37.624333 15.570199 37.887306 15.925841 38.288183 16.09101 C 38.694065 16.268349 39.32528 16.350144 40.180531 16.354002 Z M 47.330465 16.289493 C 49.749505 16.290283 51.548705 15.572889 52.721763 14.142746 C 53.732148 12.918955 54.247238 11.369649 54.2603 9.506133 C 54.261217 8.450057 54.046986 7.43127 53.617605 6.449772 C 53.194092 5.468705 52.503567 4.668622 51.557767 4.050384 C 50.617835 3.432577 49.372921 3.110967 47.828463 3.091854 C 47.273801 3.092389 46.77317 3.321104 46.332009 3.784299 C 45.88498 4.247063 45.642747 4.813383 45.606175 5.471522 C 45.570988 6.271368 45.552647 7.644776 45.551583 9.585878 L 45.568647 11.681717 C 45.567049 13.068157 45.574667 13.847548 45.586063 14.013593 C 45.621457 14.334807 45.708804 14.671641 45.854837 15.012787 C 46.006307 15.360234 46.208608 15.658315 46.467176 15.913329 C 46.720307 16.162043 47.011838 16.289675 47.330465 16.289493 Z M 49.425286 11.068341 C 49.395511 11.072053 49.378337 11.06489 49.3792 11.053153 C 49.388258 10.929914 49.393149 9.980335 49.392578 8.222021 C 49.400603 8.193109 49.425372 8.177229 49.461014 8.173949 C 49.531868 8.173256 49.634482 8.2221 49.768857 8.32048 C 49.903232 8.41886 50.021988 8.569194 50.130131 8.783651 C 50.238273 8.998108 50.293429 9.291274 50.289729 9.662717 C 50.293192 10.016986 50.231408 10.295656 50.115683 10.50546 C 49.999959 10.715263 49.865505 10.858787 49.717759 10.942332 C 49.575881 11.026307 49.478102 11.072223 49.425286 11.068341 Z M 64.354797 16.260417 C 65.104415 16.256511 65.825462 16.079398 66.524237 15.723641 C 67.217575 15.361584 67.79932 14.832018 68.257735 14.134082 C 68.716149 13.436145 68.942671 12.762466 68.94317 12.113476 C 68.94427 11.376027 68.617515 10.84459 67.974211 10.525896 C 67.658775 10.402408 67.392272 10.335618 67.167974 10.336833 C 66.83761 10.336153 66.565331 10.428245 66.357435 10.607673 C 66.143671 10.786669 65.958387 10.979559 65.813751 11.181337 C 65.691465 11.319855 65.582211 11.44163 65.48055 11.540363 C 65.384327 11.645395 65.273948 11.702185 65.155283 11.711164 C 64.984233 11.710392 64.770548 11.647485 64.520528 11.517004 C 64.270076 11.392391 64.055006 11.187776 63.863148 10.908164 C 63.677591 10.623115 63.587394 10.24477 63.586258 9.778567 C 63.5935 9.519489 63.648983 9.246256 63.747273 8.952568 C 63.839693 8.658448 63.976474 8.402991 64.151746 8.185764 C 64.32745 7.962668 64.53017 7.853663 64.754037 7.858316 C 64.895745 7.856931 65.034002 7.902494 65.168377 8.000875 C 65.468626 8.170449 65.769045 8.257432 66.081803 8.256818 C 66.317838 8.256466 66.604704 8.206748 66.943263 8.095926 C 67.342664 7.960075 67.630733 7.733438 67.824644 7.423177 C 68.018123 7.118784 68.114426 6.771848 68.112257 6.399973 C 68.113108 5.987019 67.989857 5.576744 67.747509 5.181316 C 67.307867 4.499976 66.784431 3.995385 66.177633 3.661674 C 65.570403 3.333831 64.939359 3.169445 64.290369 3.168947 C 63.582263 3.170004 62.907733 3.356436 62.248312 3.738686 C 61.595191 4.1155 61.040201 4.682433 60.595079 5.440349 C 59.80494 6.798333 59.406097 8.29128 59.410288 9.920055 C 59.410325 11.123707 59.632241 12.278764 60.081476 13.391527 C 60.495408 14.342388 61.097643 15.059279 61.876446 15.541338 C 62.649811 16.017097 63.48194 16.255265 64.354797 16.260417 Z M 70.756668 16.258931 C 71.264382 16.254946 71.752242 16.119696 72.215243 15.841014 C 72.684113 15.562763 72.940761 15.121407 72.991489 14.511511 C 73.006403 13.987485 73.008979 13.551057 73.011385 13.197219 C 73.007491 12.848819 73.015164 12.583872 73.033972 12.408247 C 73.046912 12.232191 73.100762 12.141745 73.183353 12.141915 L 73.762352 12.131369 C 73.857111 12.126533 73.921234 12.137146 73.949714 12.15104 C 73.971894 12.170371 73.987774 12.195139 73.984755 12.236219 L 73.985721 12.785012 C 73.988424 13.711549 74.009243 14.391607 74.066646 14.814743 C 74.149942 15.286984 74.377703 15.640038 74.749498 15.879774 C 75.127162 16.11994 75.543227 16.239024 76.003561 16.237457 C 76.322187 16.237275 76.63969 16.172108 76.945194 16.029355 C 77.627919 15.731421 77.968191 15.195908 77.972742 14.41151 C 77.967597 12.635159 77.98024 11.178729 78.00437 10.047656 C 78.010124 9.08634 78.015173 7.652952 78.019948 5.741625 C 78.017166 5.056993 77.90841 4.529778 77.699549 4.160412 C 77.312292 3.488823 76.723531 3.150537 75.921096 3.150561 C 75.60247 3.150744 75.315604 3.200462 75.061361 3.28798 C 74.812556 3.381797 74.640041 3.481222 74.543818 3.586254 C 74.30969 3.881759 74.164283 4.254587 74.10259 4.692571 C 74.046334 5.136855 74.014847 5.565258 74.014859 5.966475 L 74.046941 8.09882 C 74.047305 8.736073 73.994239 9.056686 73.888174 9.054791 L 73.391335 9.071375 C 73.243759 9.072329 73.156593 9.054122 73.12397 9.016323 C 73.091347 8.978524 73.07348 8.900507 73.076238 8.782705 L 73.104895 6.0648 L 73.089331 5.072416 C 73.088627 4.600345 72.969087 4.219843 72.718976 3.930049 C 72.475164 3.634818 72.172066 3.423733 71.804243 3.290494 C 71.436421 3.157255 71.069722 3.089001 70.703716 3.091601 C 70.196434 3.089717 69.778826 3.312734 69.457192 3.755213 C 69.135559 4.197692 68.967892 4.793094 68.948755 5.535118 L 68.882996 11.406925 C 68.888366 12.056346 68.895122 12.847475 68.897393 13.77988 C 68.893785 14.310636 68.922277 14.725747 68.977001 15.024782 C 69.031725 15.323816 69.159891 15.586946 69.373668 15.809167 C 69.729413 16.106725 70.190269 16.258603 70.756668 16.258931 Z M 80.482969 16.141873 C 80.854413 16.145573 81.207989 16.071257 81.536967 15.93023 C 81.866377 15.783334 82.139428 15.520192 82.344815 15.134071 C 82.555639 14.75425 82.660738 14.207352 82.65925 13.505114 C 82.699693 12.392941 82.723993 11.179277 82.720847 9.857392 C 82.718618 7.479431 82.695266 5.790246 82.644059 4.801142 C 82.598995 4.290409 82.388578 3.861926 82.006078 3.527 C 81.629447 3.192506 81.164016 3.022591 80.609354 3.023126 C 80.054692 3.02366 79.599455 3.196709 79.24908 3.548572 C 78.898705 3.900435 78.693579 4.363278 78.645871 4.932095 C 78.622488 5.089683 78.604974 5.247702 78.593759 5.400284 C 78.582113 5.558735 78.573748 5.752828 78.568663 5.982564 C 78.563146 6.218168 78.561603 6.560268 78.564033 7.008865 L 78.607972 13.154246 L 78.59409 13.583943 C 78.590834 14.350735 78.728331 14.968566 78.988546 15.44201 C 79.260928 15.910448 79.757257 16.141636 80.482969 16.141873 Z M 87.743633 16.25661 C 88.49282 16.258572 89.213866 16.08146 89.913073 15.719834 C 90.611849 15.364077 91.187725 14.83408 91.646139 14.136143 C 92.104554 13.438206 92.336945 12.764959 92.337443 12.115969 C 92.338543 11.378519 92.011788 10.847082 91.362616 10.527958 C 91.053479 10.399032 90.786546 10.338111 90.562678 10.333457 C 90.231884 10.338645 89.960035 10.424869 89.74584 10.609734 C 89.532075 10.78873 89.35266 10.982052 89.202155 11.183399 C 89.085738 11.322348 88.976484 11.444123 88.874823 11.542856 C 88.773163 11.641588 88.662784 11.698378 88.549557 11.713657 C 88.372638 11.712454 88.164821 11.649977 87.914801 11.519496 C 87.66478 11.389016 87.44341 11.189838 87.257853 10.904788 C 87.072295 10.619739 86.975798 10.246831 86.975094 9.77476 C 86.987773 9.521982 87.043688 9.24288 87.135677 8.954629 C 87.233966 8.660941 87.371178 8.399615 87.540582 8.181956 C 87.721723 7.965161 87.918575 7.855724 88.142873 7.854509 C 88.284581 7.853124 88.422406 7.904556 88.563081 7.997499 C 88.85703 8.17251 89.163318 8.259925 89.470208 8.25888 C 89.706243 8.258528 89.99354 8.202941 90.337536 8.098419 C 90.7315 7.956268 91.025006 7.73593 91.213048 7.425238 C 91.406959 7.114977 91.50283 6.773909 91.506962 6.396598 C 91.501944 5.983212 91.38413 5.579237 91.135914 5.183377 C 90.70214 4.502469 90.178704 3.997878 89.566038 3.663735 C 88.958808 3.335893 88.334064 3.166069 87.679205 3.16514 C 86.976967 3.166628 86.296138 3.358497 85.642585 3.741179 C 84.983596 4.117561 84.434474 4.684926 83.983483 5.442411 C 83.193776 6.794525 82.800802 8.287904 82.798693 9.922116 C 82.798729 11.125768 83.026514 12.281257 83.470312 13.387719 C 83.890112 14.339012 84.486479 15.055472 85.265282 15.537531 C 86.044084 16.01959 86.870345 16.257327 87.743633 16.25661 Z M 100.269738 16.097526 C 100.712035 16.100533 101.094693 15.951651 101.434454 15.66391 C 101.768347 15.375739 101.938092 14.992899 101.93825 14.50909 C 101.939009 13.936823 101.676116 13.339277 101.155438 12.716883 C 100.504359 12.102606 99.970049 11.585415 99.552508 11.16531 L 98.957094 10.596427 C 98.631986 10.283419 98.469301 10.088555 98.469903 10.000095 C 98.480516 9.935973 98.502435 9.878581 98.547828 9.822915 L 100.146088 8.146713 C 101.09797 7.237236 101.721736 6.457048 102.01825 5.794414 C 102.128276 5.501588 102.178322 5.222055 102.180989 4.94494 C 102.179592 4.402015 102.007406 3.935041 101.6577 3.555323 C 101.314293 3.170168 100.921441 2.976087 100.484582 2.97938 C 100.160087 2.979131 99.856308 3.098409 99.561508 3.336352 C 99.266708 3.574295 98.829429 3.984673 98.238364 4.560756 L 96.211713 6.606688 C 96.208773 6.405864 96.205401 6.210908 96.196161 6.015521 L 96.193822 5.726237 C 96.191915 5.431085 96.18129 5.09399 96.161515 4.720822 C 96.16366 4.290262 95.967829 3.904153 95.574887 3.550759 C 95.187812 3.197796 94.741281 3.01157 94.241161 2.992512 C 93.857549 2.993818 93.504666 3.138988 93.176641 3.427591 C 92.854916 3.710757 92.634512 4.060373 92.51629 4.464701 C 92.353459 5.154861 92.270224 6.688707 92.273315 9.05493 C 92.269548 10.069495 92.276826 11.014069 92.28928 11.88822 L 92.309612 13.618485 C 92.413138 15.260461 93.025646 16.078411 94.146707 16.078205 L 94.399054 16.096752 C 94.817877 16.098034 95.189229 15.942421 95.512248 15.641649 C 95.841567 15.33544 96.002593 14.910658 96.001196 14.367733 C 96.004817 14.238194 95.99627 14.113661 95.988153 13.983259 C 95.979606 13.858725 95.971921 13.722455 95.970104 13.586616 L 95.986665 13.281021 L 96.017302 13.265572 L 99.028445 15.646377 C 99.442875 15.948248 99.856783 16.096675 100.269738 16.097526 Z M 104.977338 16.349127 C 105.437241 16.353429 105.97516 16.339863 106.590233 16.320168 C 107.039261 16.31187 107.535669 16.301153 108.079025 16.293888 C 108.627818 16.292922 109.094361 16.126604 109.495828 15.802097 C 109.897294 15.47759 110.09612 15.020185 110.097742 14.43618 C 110.093927 13.845875 109.941072 13.356721 109.639608 12.962848 C 109.338575 12.563107 108.95418 12.334246 108.480553 12.275834 C 107.512937 12.275518 106.746576 12.266393 106.192777 12.25519 C 106.116917 12.243714 106.072557 12.205052 106.059265 12.145073 C 106.040535 12.078794 106.034837 11.995772 106.036732 11.889707 C 106.033191 11.777342 106.044235 11.707351 106.065292 11.661696 C 106.085916 11.621911 106.146759 11.596881 106.241949 11.586177 C 106.33714 11.575473 106.497316 11.563644 106.722477 11.550692 L 107.462083 11.52245 C 107.597922 11.520633 107.792878 11.517262 108.04065 11.517772 C 108.294291 11.518714 108.544652 11.484013 108.8039 11.408664 C 109.37694 11.238373 109.66914 10.634424 109.668332 9.601822 C 109.665902 9.153225 109.578123 8.82226 109.410864 8.609359 C 109.123123 8.269597 108.651824 8.099251 108.002834 8.098753 C 107.294727 8.09981 106.829387 8.089208 106.606383 8.072818 C 106.383378 8.056427 106.250127 8.023032 106.207061 7.966765 C 106.169432 7.916797 106.146128 7.832481 106.148023 7.726416 L 106.1469 7.661431 L 106.130236 7.406495 C 106.129543 7.335642 106.180373 7.286276 106.270558 7.263403 C 106.488557 7.267625 106.802609 7.249406 107.218151 7.215045 C 107.764095 7.172569 108.243329 7.15469 108.656715 7.149672 C 109.140523 7.14983 109.49755 7.028565 109.727796 6.785877 C 110.092496 6.399666 110.270436 5.905323 110.273783 5.297845 C 110.274111 4.731446 110.147148 4.291396 109.905493 3.966822 C 109.434182 3.395259 108.688525 3.104444 107.667661 3.106115 L 103.826538 3.107006 C 102.80136 3.167362 102.239548 3.586288 102.128932 4.36879 C 102.110555 4.538547 102.094346 5.080177 102.098775 5.98324 C 102.098185 6.472917 102.096733 6.97433 102.106156 7.488344 C 102.109709 8.001926 102.113433 8.432917 102.116896 8.787186 C 102.126659 9.136018 102.137193 9.3138 102.14893 9.314662 L 102.133407 12.576355 C 102.12947 13.67351 102.193185 14.492426 102.306947 15.03181 C 102.426578 15.571624 102.683681 15.926835 103.090427 16.092436 C 103.496741 16.263905 104.127524 16.351569 104.977338 16.349127 Z M 119.733487 16.35395 C 120.317923 16.349704 120.748823 16.186667 121.032056 15.86527 C 121.315721 15.538005 121.503842 14.985409 121.601858 14.213781 C 121.699874 13.442153 121.74774 12.389528 121.745456 11.055906 C 121.748336 9.250644 121.743294 8.034823 121.73033 7.408445 L 121.746138 5.025909 C 121.749146 4.583612 121.543735 4.167298 121.147943 3.772393 C 120.746713 3.371188 120.259965 3.170205 119.681829 3.169014 C 118.649227 3.169822 117.973154 3.698355 117.665347 4.755475 C 117.497681 5.350877 117.39441 6.434831 117.360972 8.013638 C 117.363311 8.302922 117.280811 8.462065 117.124778 8.497798 C 117.048056 8.49806 116.953036 8.426173 116.851023 8.28887 L 116.416648 7.696421 C 114.712373 5.275964 113.634852 3.881013 113.183655 3.517437 C 112.852508 3.286589 112.483392 3.170956 112.064569 3.169674 C 111.799191 3.167869 111.540805 3.231482 111.300717 3.367242 C 111.054761 3.50257 110.849715 3.723509 110.691446 4.03049 C 110.526878 4.342907 110.443005 4.76156 110.433096 5.297754 C 110.421359 5.296891 110.416365 5.68594 110.412246 6.464469 C 110.408127 7.242998 110.399956 8.156935 110.393169 9.212579 C 110.392683 10.262786 110.388655 11.200629 110.386522 12.032406 C 110.388715 13.206715 110.392961 13.791151 110.404698 13.792014 C 110.405312 14.104772 110.449854 14.46206 110.550063 14.864741 C 110.784057 15.85548 111.420289 16.35066 112.464628 16.350716 C 113.125355 16.352077 113.618391 16.146404 113.943305 15.739568 C 114.274519 15.327294 114.432697 14.861 114.435874 14.336112 C 114.434307 13.875778 114.461299 13.187434 114.510981 12.270648 L 114.51072 12.193926 C 114.514602 12.141109 114.531084 12.077418 114.566465 11.997415 C 114.607284 11.923712 114.651383 11.885651 114.704199 11.889533 C 114.745711 11.886684 114.791365 11.90774 114.835294 11.952271 C 115.240666 12.377382 115.613246 12.847284 115.953031 13.361978 L 116.43591 14.016995 C 116.767409 14.483878 117.220854 14.977424 117.802112 15.498066 C 118.383802 16.012839 119.023394 16.301759 119.733487 16.35395 Z M 119.733487 16.35395 " stroke="#233d4d" stroke-width="0.8" stroke-opacity="1" stroke-miterlimit="4"/><g fill="#ffffff" fill-opacity="1"><g transform="translate(81.071497, 41.575419)"><g/></g></g><g fill="#ffffff" fill-opacity="1"><g transform="translate(25.009243, 60.339721)"><g><path d="M 0.90625 0.03125 C 1.1875 0.0078125 1.425781 -0.09375 1.625 -0.28125 C 1.832031 -0.46875 1.992188 -0.710938 2.109375 -1.015625 C 2.117188 -1.054688 2.132812 -1.09375 2.15625 -1.125 C 2.1875 -1.164062 2.289062 -1.191406 2.46875 -1.203125 L 3.234375 -1.25 L 4.109375 -1.3125 C 4.285156 -1.320312 4.410156 -1.242188 4.484375 -1.078125 C 4.640625 -0.816406 4.832031 -0.628906 5.0625 -0.515625 C 5.289062 -0.398438 5.519531 -0.351562 5.75 -0.375 C 5.957031 -0.394531 6.144531 -0.457031 6.3125 -0.5625 C 6.488281 -0.675781 6.613281 -0.835938 6.6875 -1.046875 C 6.75 -1.191406 6.773438 -1.335938 6.765625 -1.484375 C 6.753906 -1.671875 6.671875 -1.929688 6.515625 -2.265625 C 6.296875 -2.734375 5.921875 -3.613281 5.390625 -4.90625 C 5.003906 -5.8125 4.671875 -6.570312 4.390625 -7.1875 C 4.109375 -7.800781 3.867188 -8.222656 3.671875 -8.453125 C 3.390625 -8.710938 3.078125 -8.832031 2.734375 -8.8125 C 2.429688 -8.789062 2.171875 -8.660156 1.953125 -8.421875 C 1.921875 -8.378906 1.882812 -8.328125 1.84375 -8.265625 C 1.789062 -8.160156 1.679688 -7.867188 1.515625 -7.390625 C 1.441406 -7.160156 0.832031 -5.234375 -0.3125 -1.609375 C -0.363281 -1.421875 -0.382812 -1.238281 -0.375 -1.0625 C -0.351562 -0.832031 -0.285156 -0.601562 -0.171875 -0.375 C -0.0664062 -0.195312 0.0507812 -0.0859375 0.1875 -0.046875 C 0.320312 -0.00390625 0.453125 0.015625 0.578125 0.015625 L 0.65625 0.03125 C 0.738281 0.03125 0.820312 0.03125 0.90625 0.03125 Z M 3.078125 -3.390625 C 2.953125 -3.378906 2.890625 -3.390625 2.890625 -3.421875 C 2.929688 -3.484375 2.976562 -3.570312 3.03125 -3.6875 C 3.082031 -3.8125 3.117188 -3.921875 3.140625 -4.015625 C 3.160156 -4.015625 3.179688 -4.007812 3.203125 -4 C 3.273438 -3.84375 3.34375 -3.710938 3.40625 -3.609375 C 3.457031 -3.535156 3.484375 -3.488281 3.484375 -3.46875 C 3.484375 -3.445312 3.472656 -3.429688 3.453125 -3.421875 Z M 3.078125 -3.390625 "/></g></g></g><g fill="#ffffff" fill-opacity="1"><g transform="translate(31.248404, 59.881147)"><g><path d="M 6.59375 -0.25 C 6.988281 -0.28125 7.269531 -0.410156 7.4375 -0.640625 C 7.613281 -0.867188 7.710938 -1.238281 7.734375 -1.75 C 7.765625 -2.269531 7.75 -2.96875 7.6875 -3.84375 C 7.59375 -5.039062 7.523438 -5.847656 7.484375 -6.265625 L 7.390625 -7.84375 C 7.367188 -8.132812 7.210938 -8.398438 6.921875 -8.640625 C 6.640625 -8.890625 6.304688 -9.003906 5.921875 -8.984375 C 5.234375 -8.929688 4.816406 -8.550781 4.671875 -7.84375 C 4.585938 -7.4375 4.570312 -6.707031 4.625 -5.65625 C 4.632812 -5.46875 4.585938 -5.359375 4.484375 -5.328125 C 4.441406 -5.316406 4.378906 -5.359375 4.296875 -5.453125 L 3.984375 -5.828125 C 2.742188 -7.347656 1.960938 -8.21875 1.640625 -8.4375 C 1.410156 -8.570312 1.160156 -8.628906 0.890625 -8.609375 C 0.710938 -8.597656 0.539062 -8.539062 0.375 -8.4375 C 0.21875 -8.34375 0.09375 -8.1875 0 -7.96875 C -0.0820312 -7.757812 -0.113281 -7.476562 -0.09375 -7.125 C -0.09375 -7.125 -0.078125 -6.863281 -0.046875 -6.34375 C -0.015625 -5.832031 0.0195312 -5.226562 0.0625 -4.53125 C 0.113281 -3.832031 0.160156 -3.210938 0.203125 -2.671875 C 0.253906 -1.890625 0.285156 -1.5 0.296875 -1.5 C 0.316406 -1.289062 0.363281 -1.050781 0.4375 -0.78125 C 0.644531 -0.132812 1.097656 0.160156 1.796875 0.109375 C 2.234375 0.078125 2.546875 -0.078125 2.734375 -0.359375 C 2.921875 -0.648438 3.003906 -0.972656 2.984375 -1.328125 C 2.960938 -1.628906 2.945312 -2.085938 2.9375 -2.703125 L 2.9375 -2.765625 C 2.9375 -2.796875 2.941406 -2.835938 2.953125 -2.890625 C 2.972656 -2.941406 3.003906 -2.96875 3.046875 -2.96875 C 3.066406 -2.96875 3.09375 -2.957031 3.125 -2.9375 C 3.414062 -2.675781 3.691406 -2.378906 3.953125 -2.046875 L 4.296875 -1.640625 C 4.535156 -1.335938 4.859375 -1.03125 5.265625 -0.71875 C 5.679688 -0.40625 6.125 -0.25 6.59375 -0.25 Z M 6.59375 -0.25 "/></g></g></g><g fill="#ffffff" fill-opacity="1"><g transform="translate(39.193017, 59.297224)"><g><path d="M 1.5625 0.078125 C 3.164062 -0.046875 4.316406 -0.609375 5.015625 -1.609375 C 5.628906 -2.472656 5.898438 -3.519531 5.828125 -4.75 C 5.773438 -5.445312 5.582031 -6.113281 5.25 -6.75 C 4.914062 -7.382812 4.421875 -7.878906 3.765625 -8.234375 C 3.109375 -8.597656 2.269531 -8.753906 1.25 -8.703125 C 0.882812 -8.671875 0.566406 -8.488281 0.296875 -8.15625 C 0.0234375 -7.832031 -0.109375 -7.445312 -0.109375 -7 C -0.0859375 -6.46875 -0.03125 -5.5625 0.0625 -4.28125 L 0.171875 -2.90625 C 0.234375 -1.976562 0.273438 -1.457031 0.296875 -1.34375 C 0.328125 -1.132812 0.398438 -0.914062 0.515625 -0.6875 C 0.640625 -0.46875 0.789062 -0.28125 0.96875 -0.125 C 1.15625 0.0195312 1.351562 0.0859375 1.5625 0.078125 Z M 2.6875 -3.46875 C 2.664062 -3.46875 2.65625 -3.472656 2.65625 -3.484375 C 2.65625 -3.566406 2.613281 -4.191406 2.53125 -5.359375 C 2.539062 -5.390625 2.554688 -5.40625 2.578125 -5.40625 C 2.617188 -5.40625 2.6875 -5.375 2.78125 -5.3125 C 2.875 -5.25 2.960938 -5.148438 3.046875 -5.015625 C 3.128906 -4.878906 3.175781 -4.6875 3.1875 -4.4375 C 3.207031 -4.207031 3.179688 -4.019531 3.109375 -3.875 C 3.046875 -3.726562 2.96875 -3.625 2.875 -3.5625 C 2.789062 -3.5 2.726562 -3.46875 2.6875 -3.46875 Z M 2.6875 -3.46875 "/></g></g></g><g fill="#ffffff" fill-opacity="1"><g transform="translate(45.008466, 58.869792)"><g/></g></g><g fill="#ffffff" fill-opacity="1"><g transform="translate(48.715948, 58.597295)"><g><path d="M 3.328125 -0.265625 C 3.765625 -0.296875 4.132812 -0.359375 4.4375 -0.453125 C 5.082031 -0.679688 5.546875 -1.050781 5.828125 -1.5625 C 6.117188 -2.070312 6.242188 -2.609375 6.203125 -3.171875 C 6.171875 -3.585938 6.050781 -3.988281 5.84375 -4.375 C 5.644531 -4.769531 5.351562 -5.09375 4.96875 -5.34375 C 4.90625 -5.382812 4.859375 -5.414062 4.828125 -5.4375 C 4.796875 -5.457031 4.78125 -5.484375 4.78125 -5.515625 C 4.769531 -5.566406 4.785156 -5.640625 4.828125 -5.734375 C 4.953125 -6.078125 5 -6.410156 4.96875 -6.734375 C 4.9375 -7.234375 4.75 -7.664062 4.40625 -8.03125 C 4.070312 -8.40625 3.625 -8.648438 3.0625 -8.765625 C 2.78125 -8.816406 2.507812 -8.832031 2.25 -8.8125 C 2.070312 -8.800781 1.890625 -8.78125 1.703125 -8.75 C 1.515625 -8.726562 1.320312 -8.707031 1.125 -8.6875 C 0.769531 -8.644531 0.46875 -8.53125 0.21875 -8.34375 C -0.0195312 -8.15625 -0.15625 -7.882812 -0.1875 -7.53125 C -0.207031 -7.34375 -0.160156 -6.46875 -0.046875 -4.90625 L -0.015625 -4.203125 L 0.21875 -1.21875 C 0.25 -0.8125 0.378906 -0.519531 0.609375 -0.34375 C 0.835938 -0.175781 1.078125 -0.101562 1.328125 -0.125 Z M 2.890625 -2.515625 C 2.847656 -2.515625 2.828125 -2.535156 2.828125 -2.578125 L 2.734375 -3.515625 C 2.734375 -3.609375 2.734375 -3.679688 2.734375 -3.734375 C 2.742188 -3.785156 2.769531 -3.816406 2.8125 -3.828125 C 2.945312 -3.816406 3.0625 -3.753906 3.15625 -3.640625 C 3.25 -3.535156 3.300781 -3.394531 3.3125 -3.21875 C 3.320312 -3.09375 3.296875 -2.96875 3.234375 -2.84375 C 3.179688 -2.71875 3.078125 -2.617188 2.921875 -2.546875 Z M 2.609375 -5.734375 L 2.546875 -6.703125 C 2.773438 -6.722656 2.898438 -6.570312 2.921875 -6.25 C 2.929688 -6.132812 2.914062 -6.019531 2.875 -5.90625 C 2.832031 -5.800781 2.742188 -5.742188 2.609375 -5.734375 Z M 2.609375 -5.734375 "/></g></g></g><g fill="#ffffff" fill-opacity="1"><g transform="translate(54.74326, 58.154292)"><g><path d="M 2.296875 0.0625 C 2.597656 0.0390625 2.953125 0.0078125 3.359375 -0.03125 C 3.648438 -0.0625 3.976562 -0.09375 4.34375 -0.125 C 4.707031 -0.15625 5.015625 -0.285156 5.265625 -0.515625 C 5.515625 -0.753906 5.625 -1.070312 5.59375 -1.46875 C 5.5625 -1.851562 5.4375 -2.164062 5.21875 -2.40625 C 5 -2.65625 4.726562 -2.789062 4.40625 -2.8125 C 3.757812 -2.757812 3.253906 -2.726562 2.890625 -2.71875 C 2.835938 -2.71875 2.804688 -2.738281 2.796875 -2.78125 C 2.785156 -2.820312 2.773438 -2.878906 2.765625 -2.953125 C 2.765625 -3.023438 2.769531 -3.070312 2.78125 -3.09375 C 2.789062 -3.113281 2.828125 -3.128906 2.890625 -3.140625 C 2.953125 -3.148438 3.054688 -3.164062 3.203125 -3.1875 L 3.703125 -3.234375 C 3.785156 -3.242188 3.910156 -3.253906 4.078125 -3.265625 C 4.242188 -3.273438 4.414062 -3.316406 4.59375 -3.390625 C 4.957031 -3.523438 5.113281 -3.9375 5.0625 -4.625 C 5.039062 -4.925781 4.972656 -5.144531 4.859375 -5.28125 C 4.640625 -5.488281 4.316406 -5.578125 3.890625 -5.546875 C 3.421875 -5.515625 3.109375 -5.5 2.953125 -5.5 C 2.804688 -5.5 2.71875 -5.515625 2.6875 -5.546875 C 2.664062 -5.578125 2.648438 -5.628906 2.640625 -5.703125 L 2.640625 -5.734375 L 2.609375 -5.90625 C 2.609375 -5.957031 2.640625 -5.992188 2.703125 -6.015625 C 2.847656 -6.023438 3.054688 -6.050781 3.328125 -6.09375 C 3.679688 -6.144531 4 -6.179688 4.28125 -6.203125 C 4.59375 -6.222656 4.820312 -6.328125 4.96875 -6.515625 C 5.195312 -6.773438 5.296875 -7.109375 5.265625 -7.515625 C 5.234375 -7.890625 5.132812 -8.175781 4.96875 -8.375 C 4.625 -8.738281 4.109375 -8.894531 3.421875 -8.84375 L 0.890625 -8.65625 C 0.210938 -8.5625 -0.140625 -8.253906 -0.171875 -7.734375 C -0.171875 -7.617188 -0.148438 -7.265625 -0.109375 -6.671875 C -0.0859375 -6.335938 -0.0625 -6 -0.03125 -5.65625 C -0.0078125 -5.320312 0.0078125 -5.035156 0.03125 -4.796875 C 0.0507812 -4.566406 0.0664062 -4.453125 0.078125 -4.453125 L 0.21875 -2.3125 C 0.28125 -1.570312 0.359375 -1.023438 0.453125 -0.671875 C 0.554688 -0.328125 0.75 -0.109375 1.03125 -0.015625 C 1.3125 0.078125 1.734375 0.101562 2.296875 0.0625 Z M 2.296875 0.0625 "/></g></g></g><g fill="#ffffff" fill-opacity="1"><g transform="translate(60.209148, 57.752553)"><g><path d="M 2.296875 0.0625 C 2.597656 0.0390625 2.953125 0.0078125 3.359375 -0.03125 C 3.648438 -0.0625 3.976562 -0.09375 4.34375 -0.125 C 4.707031 -0.15625 5.015625 -0.285156 5.265625 -0.515625 C 5.515625 -0.753906 5.625 -1.070312 5.59375 -1.46875 C 5.5625 -1.851562 5.4375 -2.164062 5.21875 -2.40625 C 5 -2.65625 4.726562 -2.789062 4.40625 -2.8125 C 3.757812 -2.757812 3.253906 -2.726562 2.890625 -2.71875 C 2.835938 -2.71875 2.804688 -2.738281 2.796875 -2.78125 C 2.785156 -2.820312 2.773438 -2.878906 2.765625 -2.953125 C 2.765625 -3.023438 2.769531 -3.070312 2.78125 -3.09375 C 2.789062 -3.113281 2.828125 -3.128906 2.890625 -3.140625 C 2.953125 -3.148438 3.054688 -3.164062 3.203125 -3.1875 L 3.703125 -3.234375 C 3.785156 -3.242188 3.910156 -3.253906 4.078125 -3.265625 C 4.242188 -3.273438 4.414062 -3.316406 4.59375 -3.390625 C 4.957031 -3.523438 5.113281 -3.9375 5.0625 -4.625 C 5.039062 -4.925781 4.972656 -5.144531 4.859375 -5.28125 C 4.640625 -5.488281 4.316406 -5.578125 3.890625 -5.546875 C 3.421875 -5.515625 3.109375 -5.5 2.953125 -5.5 C 2.804688 -5.5 2.71875 -5.515625 2.6875 -5.546875 C 2.664062 -5.578125 2.648438 -5.628906 2.640625 -5.703125 L 2.640625 -5.734375 L 2.609375 -5.90625 C 2.609375 -5.957031 2.640625 -5.992188 2.703125 -6.015625 C 2.847656 -6.023438 3.054688 -6.050781 3.328125 -6.09375 C 3.679688 -6.144531 4 -6.179688 4.28125 -6.203125 C 4.59375 -6.222656 4.820312 -6.328125 4.96875 -6.515625 C 5.195312 -6.773438 5.296875 -7.109375 5.265625 -7.515625 C 5.234375 -7.890625 5.132812 -8.175781 4.96875 -8.375 C 4.625 -8.738281 4.109375 -8.894531 3.421875 -8.84375 L 0.890625 -8.65625 C 0.210938 -8.5625 -0.140625 -8.253906 -0.171875 -7.734375 C -0.171875 -7.617188 -0.148438 -7.265625 -0.109375 -6.671875 C -0.0859375 -6.335938 -0.0625 -6 -0.03125 -5.65625 C -0.0078125 -5.320312 0.0078125 -5.035156 0.03125 -4.796875 C 0.0507812 -4.566406 0.0664062 -4.453125 0.078125 -4.453125 L 0.21875 -2.3125 C 0.28125 -1.570312 0.359375 -1.023438 0.453125 -0.671875 C 0.554688 -0.328125 0.75 -0.109375 1.03125 -0.015625 C 1.3125 0.078125 1.734375 0.101562 2.296875 0.0625 Z M 2.296875 0.0625 "/></g></g></g><g fill="#ffffff" fill-opacity="1"><g transform="translate(65.675037, 57.350814)"><g><path d="M 1.71875 -0.046875 C 1.957031 -0.0664062 2.179688 -0.148438 2.390625 -0.296875 C 2.609375 -0.441406 2.765625 -0.65625 2.859375 -0.9375 C 2.941406 -1.269531 2.972656 -1.570312 2.953125 -1.84375 L 2.953125 -1.984375 C 2.941406 -2.085938 2.941406 -2.175781 2.953125 -2.25 L 2.984375 -2.265625 C 3.066406 -2.128906 3.296875 -1.863281 3.671875 -1.46875 C 4.078125 -1.03125 4.375 -0.738281 4.5625 -0.59375 C 4.851562 -0.414062 5.132812 -0.332031 5.40625 -0.34375 C 5.71875 -0.375 5.984375 -0.503906 6.203125 -0.734375 C 6.421875 -0.972656 6.519531 -1.242188 6.5 -1.546875 C 6.488281 -1.722656 6.421875 -1.898438 6.296875 -2.078125 C 5.898438 -2.566406 5.601562 -2.910156 5.40625 -3.109375 C 5.1875 -3.335938 5.070312 -3.492188 5.0625 -3.578125 C 5.0625 -3.617188 5.117188 -3.695312 5.234375 -3.8125 C 5.359375 -3.9375 5.53125 -4.140625 5.75 -4.421875 C 6.09375 -4.953125 6.238281 -5.519531 6.1875 -6.125 C 6.144531 -6.757812 5.890625 -7.34375 5.421875 -7.875 C 4.960938 -8.40625 4.296875 -8.726562 3.421875 -8.84375 C 2.992188 -8.875 2.578125 -8.875 2.171875 -8.84375 C 1.921875 -8.820312 1.664062 -8.800781 1.40625 -8.78125 C 1.125 -8.738281 0.863281 -8.644531 0.625 -8.5 C 0.382812 -8.363281 0.195312 -8.179688 0.0625 -7.953125 C -0.0703125 -7.722656 -0.125 -7.4375 -0.09375 -7.09375 L 0.125 -3.578125 C 0.144531 -3.359375 0.160156 -3.203125 0.171875 -3.109375 C 0.179688 -3.015625 0.1875 -2.9375 0.1875 -2.875 C 0.195312 -2.820312 0.207031 -2.75 0.21875 -2.65625 C 0.226562 -2.5625 0.265625 -2.128906 0.328125 -1.359375 C 0.328125 -1.304688 0.335938 -1.238281 0.359375 -1.15625 C 0.390625 -1.082031 0.414062 -1.007812 0.4375 -0.9375 C 0.539062 -0.613281 0.710938 -0.378906 0.953125 -0.234375 C 1.203125 -0.0859375 1.457031 -0.0234375 1.71875 -0.046875 Z M 3 -4.875 C 2.925781 -4.882812 2.878906 -5.050781 2.859375 -5.375 C 2.816406 -5.882812 2.835938 -6.144531 2.921875 -6.15625 L 2.9375 -6.15625 C 3.03125 -6.164062 3.117188 -6.097656 3.203125 -5.953125 C 3.296875 -5.804688 3.347656 -5.675781 3.359375 -5.5625 C 3.367188 -5.394531 3.34375 -5.242188 3.28125 -5.109375 C 3.21875 -4.984375 3.125 -4.90625 3 -4.875 Z M 3 -4.875 "/></g></g></g><path stroke-linecap="butt" transform="matrix(0.662049, -0.0486602, 0.0486602, 0.662049, -0.342589, 36.909287)" fill="none" stroke-linejoin="miter" d="M 36.861756 38.147475 C 37.286878 38.14332 37.662374 38.011612 37.982373 37.75192 C 38.302373 37.492228 38.564288 37.139764 38.767689 36.700395 C 38.783739 36.642572 38.817395 36.586043 38.861494 36.547983 C 38.906025 36.504054 39.061195 36.480057 39.326573 36.481862 L 40.505457 36.497706 L 41.83321 36.494991 C 42.09272 36.496364 42.266449 36.621238 42.360698 36.864174 C 42.566972 37.268751 42.833826 37.571577 43.161693 37.766781 C 43.495428 37.962418 43.830196 38.063726 44.172296 38.065269 C 44.490923 38.065087 44.785814 37.986457 45.050238 37.840686 C 45.320963 37.689477 45.525578 37.474406 45.676684 37.1846 C 45.781534 36.962197 45.833567 36.735912 45.838221 36.512045 C 45.835019 36.234498 45.733948 35.843554 45.530001 35.327044 C 45.253123 34.598664 44.787225 33.230967 44.126869 31.217651 C 43.657259 29.820179 43.242112 28.645019 42.893165 27.693034 C 42.538781 26.734749 42.226953 26.080504 41.952243 25.723999 C 41.553602 25.287583 41.091622 25.07072 40.572602 25.067974 C 40.124005 25.070404 39.716148 25.241035 39.354467 25.586167 C 39.291037 25.646407 39.232613 25.718816 39.180057 25.791656 C 39.074515 25.943206 38.877846 26.371269 38.589187 27.087583 C 38.447662 27.407594 37.325822 30.228058 35.211932 35.548113 C 35.102768 35.829201 35.052722 36.108734 35.050486 36.379981 C 35.048943 36.722082 35.12999 37.064352 35.293629 37.406793 C 35.432669 37.682523 35.596217 37.865651 35.796871 37.945302 C 35.997525 38.024952 36.182731 38.073966 36.363793 38.099075 L 36.492469 38.114432 C 36.620714 38.135659 36.743954 38.144717 36.861756 38.147475 Z M 40.50838 33.246888 C 40.325592 33.245254 40.232558 33.226615 40.235578 33.185536 C 40.290721 33.077484 40.365627 32.941384 40.460727 32.771366 C 40.556258 32.59548 40.632458 32.441774 40.683889 32.303949 C 40.713232 32.306105 40.742575 32.308262 40.765186 32.321725 C 40.846836 32.575536 40.931935 32.782399 41.020054 32.948182 C 41.082282 33.06486 41.117754 33.144171 41.114735 33.18525 C 41.119309 33.203287 41.106709 33.214162 41.083235 33.212436 Z M 54.860357 38.349314 C 55.45023 38.351367 55.88113 38.18833 56.164795 37.861065 C 56.448028 37.539669 56.636149 36.987072 56.734165 36.215445 C 56.826312 35.443386 56.87461 34.384892 56.877763 33.057569 C 56.874775 31.251876 56.869733 30.036056 56.863069 29.40424 L 56.878877 27.021705 C 56.875584 26.584845 56.676042 26.168962 56.274813 25.767757 C 55.879452 25.366983 55.386835 25.165569 54.808268 25.170247 C 53.776097 25.165186 53.105893 25.69415 52.798086 26.75127 C 52.62412 27.352109 52.526717 28.436495 52.493279 30.015302 C 52.48975 30.304154 52.413118 30.463729 52.251648 30.493162 C 52.174926 30.493423 52.085343 30.427837 51.977461 30.290102 L 51.548955 29.698084 C 49.839243 27.271328 48.761291 25.882245 48.315963 25.519101 C 47.985247 25.282385 47.610262 25.16632 47.197308 25.165469 C 46.931498 25.169533 46.673112 25.233145 46.427156 25.368474 C 46.181631 25.497934 45.982453 25.719304 45.817885 26.031722 C 45.659616 26.338702 45.575312 26.763224 45.565404 27.299417 C 45.553667 27.298555 45.548673 27.687604 45.538685 28.465701 C 45.534566 29.24423 45.532263 30.158599 45.525908 31.208374 C 45.519553 32.25815 45.515094 33.201861 45.51883 34.03407 C 45.515154 35.207948 45.525269 35.792815 45.531137 35.793246 C 45.532182 36.100136 45.582593 36.457855 45.676502 36.865974 C 45.910496 37.856712 46.552596 38.352324 47.596935 38.352379 C 48.257662 38.35374 48.750698 38.148068 49.076044 37.735363 C 49.400958 37.328527 49.565435 36.856796 49.562313 36.337345 C 49.566614 35.877442 49.593606 35.189098 49.643288 34.272312 L 49.643458 34.189721 C 49.641472 34.136473 49.663822 34.073213 49.698772 33.999079 C 49.733722 33.924944 49.78369 33.887315 49.836938 33.885329 C 49.878018 33.888348 49.923672 33.909404 49.961733 33.953503 C 50.367105 34.378614 50.745553 34.848948 51.08577 35.357773 L 51.562348 36.018227 C 51.893848 36.48511 52.353161 36.979088 52.934851 37.493861 C 53.510241 38.014072 54.156132 38.297554 54.860357 38.349314 Z M 59.260455 38.289202 C 61.679496 38.289993 63.478695 37.572598 64.651753 36.142455 C 65.662139 34.918665 66.177228 33.369358 66.19029 31.505842 C 66.191208 30.449767 65.976976 29.43098 65.547595 28.449482 C 65.124082 27.468415 64.433557 26.668331 63.487757 26.050093 C 62.547825 25.432286 61.302911 25.110677 59.758453 25.091564 C 59.203791 25.092098 58.703161 25.320813 58.262 25.784008 C 57.81497 26.246772 57.572738 26.813092 57.536165 27.471231 C 57.500978 28.271078 57.482637 29.644486 57.481573 31.585587 L 57.498637 33.681427 C 57.497039 35.067866 57.504657 35.847258 57.516054 36.013302 C 57.551447 36.334517 57.638795 36.67135 57.784828 37.012497 C 57.936298 37.359944 58.144035 37.664324 58.397166 37.913038 C 58.650297 38.161753 58.941828 38.289384 59.260455 38.289202 Z M 61.355276 33.068051 C 61.325502 33.071762 61.308328 33.0646 61.30919 33.052863 C 61.318248 32.929623 61.322708 31.985913 61.322569 30.22173 C 61.330594 30.192819 61.355362 30.176939 61.391004 30.173658 C 61.461858 30.172966 61.564473 30.221809 61.698848 30.320189 C 61.833222 30.41857 61.951978 30.568904 62.060121 30.783361 C 62.168264 30.997817 62.223419 31.290983 62.219719 31.662426 C 62.223182 32.016695 62.161398 32.295366 62.045674 32.505169 C 61.929949 32.714972 61.795495 32.858496 61.653186 32.948341 C 61.505871 33.026017 61.408093 33.071933 61.355276 33.068051 Z M 76.347434 37.969719 C 77.008161 37.97108 77.572574 37.91816 78.040672 37.810959 C 79.022261 37.540891 79.761162 37.040578 80.251939 36.303718 C 80.742715 35.566858 80.990033 34.770802 80.987591 33.920988 C 80.987226 33.283735 80.85016 32.660036 80.575961 32.055758 C 80.307631 31.451912 79.89656 30.943779 79.354917 30.526354 C 79.270771 30.467067 79.209668 30.415374 79.165739 30.370843 C 79.12181 30.326313 79.101786 30.277639 79.0998 30.224391 C 79.098676 30.159406 79.13492 30.067666 79.197657 29.936572 C 79.405802 29.432649 79.512888 28.938999 79.513478 28.449322 C 79.515871 27.694267 79.282491 27.016287 78.819205 26.415813 C 78.355487 25.821207 77.707779 25.401886 76.875218 25.169586 C 76.458291 25.062239 76.049218 25.008571 75.642133 25.008152 C 75.370886 25.005916 75.092477 25.020855 74.813636 25.041662 C 74.534795 25.062469 74.244649 25.076545 73.931028 25.088896 C 73.410284 25.109624 72.957635 25.247461 72.567644 25.496109 C 72.18939 25.745619 71.94793 26.140888 71.849993 26.670612 C 71.806677 26.938839 71.780913 28.252699 71.772698 30.612192 L 71.759181 31.679142 L 71.775454 36.194023 C 71.772107 36.801502 71.93385 37.250008 72.255247 37.533241 C 72.571206 37.810174 72.926429 37.954287 73.31004 37.952981 Z M 75.932737 34.5407 C 75.879489 34.542687 75.852303 34.511187 75.850748 34.452071 L 75.833185 33.005221 C 75.837238 32.869813 75.839133 32.763748 75.850609 32.687888 C 75.862085 32.612029 75.900315 32.573537 75.965301 32.572413 C 76.164831 32.587078 76.334848 32.682178 76.462753 32.868586 C 76.585221 33.048694 76.651853 33.266 76.650911 33.519642 C 76.653851 33.720466 76.603975 33.917408 76.501713 34.1046 C 76.39945 34.291792 76.229785 34.432728 75.992717 34.527408 Z M 75.866484 29.662231 L 75.86739 28.204938 C 76.20949 28.206482 76.38003 28.455026 76.379441 28.944703 C 76.378669 29.115753 76.343118 29.278347 76.278655 29.432915 C 76.220061 29.587915 76.078614 29.666022 75.866484 29.662231 Z M 83.854067 38.350344 C 84.313969 38.354646 84.851888 38.34108 85.466961 38.321385 C 85.91642 38.307218 86.412397 38.30237 86.955753 38.295105 C 87.498678 38.293708 87.971089 38.127821 88.366687 37.802883 C 88.768585 37.472507 88.972848 37.021402 88.969033 36.431097 C 88.970655 35.847092 88.818232 35.35207 88.516336 34.964066 C 88.209435 34.563893 87.82504 34.335032 87.357713 34.271183 C 86.384228 34.270435 85.623305 34.26761 85.069505 34.256407 C 84.993646 34.244931 84.949286 34.20627 84.930125 34.145859 C 84.917264 34.080011 84.906128 33.990689 84.908024 33.884624 C 84.909919 33.778559 84.920964 33.708568 84.94202 33.662913 C 84.962645 33.623128 85.017618 33.597667 85.112809 33.586963 C 85.214299 33.570821 85.374475 33.558993 85.593337 33.551478 L 86.333374 33.517367 C 86.47465 33.52185 86.663737 33.518047 86.917379 33.518989 C 87.165151 33.519499 87.421812 33.479361 87.675192 33.403581 C 88.253668 33.23959 88.539999 32.635209 88.539192 31.602608 C 88.54263 31.154442 88.454852 30.823477 88.281724 30.610144 C 87.993983 30.270383 87.528552 30.100468 86.879562 30.09997 C 86.171887 30.095158 85.706116 30.090425 85.483111 30.074035 C 85.260107 30.057644 85.127287 30.018381 85.083789 29.967982 C 85.040723 29.911714 85.022856 29.833698 85.018883 29.727202 L 85.023628 29.662648 L 85.006964 29.407713 C 85.006703 29.33099 85.051233 29.287061 85.147287 29.26462 C 85.359417 29.268411 85.673469 29.250192 86.089011 29.215831 C 86.634955 29.173354 87.11462 29.149607 87.533443 29.150889 C 88.011383 29.150616 88.36841 29.029351 88.604524 28.787095 C 88.963356 28.400452 89.147164 27.906541 89.144643 27.29863 C 89.144971 26.732231 89.024308 26.286745 88.782222 25.968039 C 88.311341 25.390608 87.565254 25.105661 86.53852 25.1069 L 82.703266 25.108223 C 81.678089 25.168579 81.110408 25.587074 81.005661 26.370007 C 80.981415 26.539332 80.971506 27.075526 80.969635 27.984026 C 80.969045 28.473702 80.973462 28.975547 80.977015 29.48913 C 80.986438 30.003143 80.990162 30.434134 80.994056 30.782535 C 81.003387 31.137235 81.008052 31.314585 81.020221 31.309579 L 81.004698 34.571272 C 81.006198 35.674727 81.064045 36.493212 81.183675 37.033027 C 81.297437 37.57241 81.560841 37.922183 81.961287 38.093222 C 82.367601 38.264691 82.998384 38.352355 83.854067 38.350344 Z M 92.108579 38.349321 C 92.568482 38.353622 93.106401 38.340056 93.721474 38.320361 C 94.170502 38.312063 94.66691 38.301346 95.210266 38.294081 C 95.753191 38.292684 96.225602 38.126797 96.627069 37.80229 C 97.028535 37.477783 97.227361 37.020378 97.228983 36.436373 C 97.225168 35.846069 97.072313 35.356914 96.770849 34.963042 C 96.469816 34.563301 96.079552 34.334008 95.611794 34.276027 C 94.644178 34.275711 93.877817 34.266586 93.324018 34.255383 C 93.248159 34.243908 93.203798 34.205246 93.190506 34.145266 C 93.171776 34.078987 93.166078 33.995965 93.162105 33.889468 C 93.164432 33.777535 93.175476 33.707544 93.196533 33.661889 C 93.217158 33.622104 93.272131 33.596643 93.37319 33.58637 C 93.468381 33.575666 93.628557 33.563838 93.853718 33.550886 L 94.587455 33.522211 C 94.729163 33.520826 94.924119 33.517455 95.171891 33.517965 C 95.419664 33.518476 95.675893 33.484206 95.935142 33.408857 C 96.508181 33.238566 96.794512 32.634186 96.799573 31.602015 C 96.797143 31.153418 96.709364 30.822453 96.542105 30.609552 C 96.254364 30.26979 95.783065 30.099444 95.134075 30.098946 C 94.425968 30.100003 93.960628 30.089402 93.737624 30.073011 C 93.51462 30.05662 93.381368 30.023225 93.338302 29.966958 C 93.300673 29.91699 93.277369 29.832674 93.279265 29.726609 L 93.278141 29.661624 L 93.261477 29.406689 C 93.260784 29.335835 93.311615 29.286469 93.401799 29.263596 C 93.613929 29.267387 93.93385 29.249599 94.349392 29.215239 C 94.889468 29.17233 95.37457 29.154883 95.787956 29.149865 C 96.265895 29.149592 96.622922 29.028327 96.859037 28.786071 C 97.223737 28.399859 97.401677 27.905517 97.405024 27.298038 C 97.405352 26.731639 97.278389 26.29159 97.036734 25.967016 C 96.565423 25.395452 95.819766 25.104638 94.798902 25.106308 L 90.957779 25.1072 C 89.932601 25.167555 89.370789 25.586481 89.260173 26.368983 C 89.235928 26.538308 89.225588 27.080371 89.224147 27.983002 C 89.229427 28.47311 89.227974 28.974523 89.237397 29.488537 C 89.24095 30.002119 89.244674 30.43311 89.248137 30.787379 C 89.2579 31.136211 89.268434 31.313993 89.280171 31.314855 L 89.258779 34.576117 C 89.260711 35.673703 89.318558 36.492188 89.438188 37.032003 C 89.55195 37.571386 89.814922 37.927028 90.221668 38.092629 C 90.627982 38.264099 91.252897 38.351331 92.108579 38.349321 Z M 99.517931 38.126871 C 99.877638 38.129709 100.221202 38.031055 100.548625 37.830912 C 100.875617 37.636636 101.134082 37.33112 101.322726 36.931968 C 101.494797 36.437195 101.581258 35.983331 101.58254 35.564508 L 101.578737 35.375421 C 101.578646 35.216107 101.588567 35.081131 101.596331 34.975497 L 101.67521 34.945893 C 101.796383 35.143607 102.107428 35.567685 102.620943 36.207253 C 103.165787 36.902225 103.574009 37.368847 103.856483 37.619718 C 104.270482 37.927458 104.678521 38.075454 105.085607 38.075873 C 105.551378 38.080606 105.965104 37.910406 106.320054 37.57658 C 106.681303 37.237316 106.863647 36.843602 106.860786 36.400874 C 106.86259 36.135495 106.782667 35.85821 106.621015 35.569017 C 106.075909 34.797322 105.667857 34.24811 105.390991 33.920948 C 105.076496 33.543818 104.92313 33.302436 104.925889 33.184634 C 104.925627 33.107912 105.022713 32.991143 105.223015 32.834758 C 105.41788 32.672073 105.692225 32.391325 106.046482 31.986645 C 106.621575 31.226481 106.907123 30.391933 106.909857 29.471697 C 106.908879 28.521686 106.591261 27.625106 105.957435 26.776087 C 105.317741 25.926637 104.34959 25.371659 103.053414 25.105284 C 102.423063 25.011752 101.795561 24.95973 101.164176 24.960526 C 100.780565 24.961832 100.396522 24.969007 100.011185 24.993787 C 99.561294 25.013822 99.152744 25.113599 98.785103 25.298987 C 98.417894 25.478506 98.121801 25.734054 97.890522 26.07107 C 97.665111 26.408517 97.551464 26.830882 97.54915 27.344032 L 97.515218 32.622254 C 97.520406 32.953049 97.520327 33.194953 97.527581 33.337092 C 97.528966 33.4788 97.532077 33.597033 97.531475 33.685493 C 97.536311 33.780252 97.533553 33.898054 97.540806 34.040193 C 97.547629 34.1882 97.54713 34.83719 97.550186 35.999762 C 97.550447 36.076485 97.56702 36.172107 97.593173 36.297934 C 97.625626 36.418324 97.653073 36.526546 97.675514 36.622599 C 97.80317 37.133502 98.04638 37.517193 98.39427 37.761072 C 98.748029 38.005381 99.122583 38.127315 99.517931 38.126871 Z M 101.976372 31.008967 C 101.8716 30.989466 101.820157 30.726074 101.81574 30.224229 C 101.819428 29.451568 101.876807 29.07227 101.995041 29.06916 L 102.030252 29.071748 C 102.177828 29.070794 102.310909 29.186779 102.429495 29.419705 C 102.542643 29.64633 102.604269 29.851468 102.603066 30.028386 C 102.602556 30.276159 102.545085 30.496144 102.436523 30.688773 C 102.322093 30.880971 102.172621 30.987989 101.976372 31.008967 Z M 101.976372 31.008967 " stroke="#233d4d" stroke-width="0.8" stroke-opacity="1" stroke-miterlimit="4"/></svg>