<svg xmlns="http://www.w3.org/2000/svg" xmlns:xlink="http://www.w3.org/1999/xlink" width="128" zoomAndPan="magnify" viewBox="0 0 96 95.999999" height="128" preserveAspectRatio="xMidYMid meet" version="1.0"><defs><g/><clipPath id="1f01f029d0"><path d="M 1 11.101562 L 96 11.101562 L 96 84 L 1 84 Z M 1 11.101562 " clip-rule="nonzero"/></clipPath><clipPath id="5345059ec2"><path d="M 0 11.101562 L 96 11.101562 L 96 84.601562 L 0 84.601562 Z M 0 11.101562 " clip-rule="nonzero"/></clipPath></defs><g clip-path="url(#1f01f029d0)"><path fill="#ffffff" d="M 93.582031 26.0625 C 92.9375 24.398438 92.050781 22.875 90.851562 21.597656 C 87.753906 18.300781 82.539062 16.101562 78.25 14.894531 C 71.609375 13.027344 64.570312 12.179688 57.6875 11.957031 C 49.113281 11.679688 40.492188 12.234375 32.035156 13.699219 C 23.617188 15.160156 14.707031 17.378906 8.261719 23.328125 C 0.0703125 30.882812 0.460938 43.261719 3.933594 53.140625 C 6.011719 59.042969 9.582031 64.242188 14.859375 67.71875 C 17.34375 69.355469 20.09375 70.484375 22.957031 71.273438 C 24.535156 74.972656 24.816406 78.898438 21.042969 80.976562 C 19.769531 81.675781 20.285156 83.890625 21.808594 83.78125 C 29.347656 83.246094 35.855469 78.921875 40.394531 73.019531 C 40.699219 72.625 44.246094 72.800781 44.863281 72.75 C 46.503906 72.609375 48.140625 72.421875 49.769531 72.203125 C 56.675781 71.277344 63.558594 70.777344 70.394531 69.304688 C 77.261719 67.820312 84.601562 65.679688 88.746094 59.574219 C 92.390625 54.203125 94.496094 47.304688 94.96875 40.898438 C 95.300781 36.363281 95.363281 30.671875 93.582031 26.0625 " fill-opacity="1" fill-rule="nonzero"/></g><g clip-path="url(#5345059ec2)"><path fill="#231f20" d="M 93.582031 26.0625 L 94.328125 25.777344 C 93.65625 24.035156 92.71875 22.417969 91.4375 21.050781 C 89.792969 19.308594 87.640625 17.894531 85.355469 16.75 C 83.070312 15.609375 80.652344 14.742188 78.46875 14.128906 C 71.746094 12.234375 64.644531 11.382812 57.714844 11.160156 C 56.28125 11.113281 54.847656 11.089844 53.414062 11.089844 C 46.210938 11.089844 38.996094 11.679688 31.898438 12.914062 C 27.667969 13.648438 23.292969 14.574219 19.132812 16.082031 C 14.980469 17.585938 11.039062 19.675781 7.714844 22.742188 C 5.210938 25.050781 3.472656 27.804688 2.371094 30.78125 C 1.265625 33.753906 0.792969 36.949219 0.792969 40.171875 C 0.792969 44.6875 1.71875 49.261719 3.179688 53.40625 C 4.238281 56.421875 5.6875 59.265625 7.550781 61.808594 C 9.414062 64.351562 11.695312 66.589844 14.417969 68.382812 C 16.988281 70.078125 19.820312 71.234375 22.742188 72.042969 L 22.957031 71.273438 L 22.21875 71.585938 C 22.855469 73.074219 23.253906 74.578125 23.253906 75.90625 C 23.253906 76.820312 23.070312 77.644531 22.667969 78.367188 C 22.261719 79.089844 21.636719 79.734375 20.65625 80.277344 C 20.269531 80.488281 19.972656 80.804688 19.789062 81.15625 C 19.601562 81.503906 19.523438 81.886719 19.523438 82.253906 C 19.523438 82.8125 19.703125 83.363281 20.066406 83.8125 C 20.25 84.035156 20.484375 84.230469 20.761719 84.367188 C 21.039062 84.507812 21.363281 84.585938 21.699219 84.582031 C 21.753906 84.582031 21.804688 84.582031 21.855469 84.578125 L 21.863281 84.578125 C 25.773438 84.300781 29.40625 83.039062 32.640625 81.097656 C 35.871094 79.152344 38.707031 76.527344 41.03125 73.503906 L 40.542969 73.132812 L 40.882812 73.644531 C 40.917969 73.621094 40.96875 73.582031 41.03125 73.503906 L 40.542969 73.132812 L 40.882812 73.644531 L 40.671875 73.328125 L 40.824219 73.675781 C 40.832031 73.671875 40.851562 73.664062 40.882812 73.644531 L 40.671875 73.328125 L 40.824219 73.675781 L 40.785156 73.585938 L 40.820312 73.679688 L 40.824219 73.675781 L 40.785156 73.585938 L 40.820312 73.679688 C 40.824219 73.675781 40.933594 73.648438 41.074219 73.628906 C 41.292969 73.597656 41.609375 73.578125 41.953125 73.566406 C 42.296875 73.554688 42.675781 73.550781 43.042969 73.550781 C 43.53125 73.550781 44.003906 73.558594 44.363281 73.558594 C 44.476562 73.558594 44.582031 73.554688 44.675781 73.554688 C 44.769531 73.554688 44.847656 73.550781 44.929688 73.542969 L 44.933594 73.542969 C 46.585938 73.402344 48.234375 73.214844 49.878906 72.996094 C 56.75 72.070312 63.652344 71.570312 70.5625 70.082031 C 74.019531 69.335938 77.625 68.421875 80.929688 66.894531 C 82.578125 66.132812 84.15625 65.214844 85.589844 64.089844 C 87.027344 62.960938 88.324219 61.621094 89.410156 60.019531 C 93.152344 54.503906 95.28125 47.492188 95.765625 40.957031 C 95.875 39.492188 95.953125 37.90625 95.953125 36.265625 C 95.953125 32.777344 95.59375 29.054688 94.328125 25.777344 L 92.832031 26.347656 C 93.992188 29.339844 94.351562 32.890625 94.351562 36.265625 C 94.351562 37.855469 94.273438 39.402344 94.167969 40.839844 C 93.707031 47.117188 91.632812 53.902344 88.082031 59.125 C 87.097656 60.578125 85.921875 61.796875 84.597656 62.835938 C 82.621094 64.390625 80.3125 65.539062 77.851562 66.433594 C 75.390625 67.328125 72.785156 67.972656 70.222656 68.523438 C 63.460938 69.980469 56.601562 70.480469 49.664062 71.414062 C 48.042969 71.628906 46.421875 71.8125 44.792969 71.953125 L 44.800781 71.953125 C 44.777344 71.957031 44.722656 71.957031 44.644531 71.960938 C 44.570312 71.960938 44.472656 71.960938 44.363281 71.960938 C 44.019531 71.960938 43.546875 71.957031 43.042969 71.957031 C 42.449219 71.957031 41.820312 71.964844 41.285156 72.003906 C 41.019531 72.023438 40.773438 72.050781 40.546875 72.101562 C 40.433594 72.125 40.324219 72.15625 40.199219 72.207031 C 40.136719 72.234375 40.070312 72.265625 39.996094 72.3125 C 39.925781 72.363281 39.839844 72.429688 39.757812 72.535156 C 37.542969 75.414062 34.851562 77.902344 31.8125 79.730469 C 28.769531 81.558594 25.382812 82.726562 21.75 82.988281 L 21.808594 83.78125 L 21.757812 82.988281 C 21.734375 82.988281 21.714844 82.988281 21.699219 82.988281 C 21.601562 82.988281 21.535156 82.96875 21.476562 82.941406 C 21.386719 82.894531 21.300781 82.816406 21.234375 82.691406 C 21.164062 82.570312 21.125 82.40625 21.125 82.253906 C 21.125 82.121094 21.15625 81.996094 21.207031 81.902344 C 21.257812 81.804688 21.320312 81.734375 21.429688 81.671875 C 22.636719 81.011719 23.515625 80.140625 24.070312 79.140625 C 24.625 78.140625 24.855469 77.03125 24.855469 75.90625 C 24.855469 74.269531 24.382812 72.582031 23.691406 70.960938 C 23.597656 70.738281 23.402344 70.570312 23.171875 70.503906 C 20.371094 69.730469 17.699219 68.632812 15.300781 67.050781 C 12.746094 65.371094 10.605469 63.269531 8.84375 60.871094 C 7.085938 58.46875 5.707031 55.761719 4.691406 52.875 C 3.285156 48.878906 2.394531 44.46875 2.394531 40.171875 C 2.394531 37.101562 2.847656 34.097656 3.871094 31.332031 C 4.898438 28.566406 6.496094 26.042969 8.804688 23.914062 C 11.929688 21.03125 15.667969 19.035156 19.683594 17.582031 C 23.699219 16.125 27.984375 15.210938 32.171875 14.488281 C 39.175781 13.269531 46.300781 12.6875 53.414062 12.6875 C 54.832031 12.6875 56.246094 12.707031 57.660156 12.753906 C 64.496094 12.976562 71.476562 13.816406 78.03125 15.664062 C 80.132812 16.257812 82.46875 17.09375 84.636719 18.175781 C 86.808594 19.261719 88.8125 20.59375 90.265625 22.144531 C 91.382812 23.332031 92.21875 24.761719 92.832031 26.347656 L 93.582031 26.0625 " fill-opacity="1" fill-rule="nonzero"/></g><path fill="#ffffff" d="M 71.480469 17.214844 C 72.574219 17.132812 73.5 17.300781 74.507812 17.800781 " fill-opacity="1" fill-rule="nonzero"/><path fill="#231f20" d="M 71.542969 18.011719 C 71.703125 18 71.855469 17.992188 72 17.992188 C 72.761719 17.996094 73.394531 18.144531 74.148438 18.515625 C 74.542969 18.710938 75.023438 18.550781 75.222656 18.160156 C 75.421875 17.765625 75.261719 17.285156 74.863281 17.089844 C 73.929688 16.617188 72.988281 16.394531 72 16.394531 C 71.808594 16.394531 71.613281 16.40625 71.417969 16.417969 C 70.976562 16.453125 70.648438 16.835938 70.683594 17.277344 C 70.714844 17.714844 71.101562 18.046875 71.542969 18.011719 " fill-opacity="1" fill-rule="nonzero"/><path fill="#ffffff" d="M 75.851562 18.640625 C 82.238281 19.726562 87.785156 24.664062 89.800781 30.777344 " fill-opacity="1" fill-rule="nonzero"/><path fill="#231f20" d="M 75.714844 19.425781 C 78.746094 19.941406 81.601562 21.378906 83.9375 23.421875 C 86.269531 25.46875 88.082031 28.117188 89.039062 31.023438 C 89.179688 31.445312 89.632812 31.671875 90.050781 31.535156 C 90.472656 31.398438 90.703125 30.945312 90.5625 30.527344 C 89.507812 27.324219 87.535156 24.449219 84.996094 22.226562 C 82.453125 20 79.339844 18.421875 75.988281 17.851562 C 75.550781 17.777344 75.136719 18.070312 75.0625 18.503906 C 74.988281 18.9375 75.28125 19.351562 75.714844 19.425781 " fill-opacity="1" fill-rule="nonzero"/><path fill="#231f20" d="M 89.757812 32.703125 C 89.757812 33.035156 89.757812 33.289062 89.757812 33.539062 C 89.757812 33.980469 90.117188 34.335938 90.558594 34.335938 C 91 34.335938 91.359375 33.980469 91.359375 33.539062 C 91.359375 33.289062 91.359375 33.035156 91.359375 32.703125 C 91.359375 32.261719 91 31.902344 90.558594 31.902344 C 90.117188 31.902344 89.757812 32.261719 89.757812 32.703125 " fill-opacity="1" fill-rule="nonzero"/><path fill="#ffffff" d="M 49.125 68.863281 C 50.050781 68.863281 50.890625 68.695312 51.816406 68.613281 " fill-opacity="1" fill-rule="nonzero"/><path fill="#231f20" d="M 49.125 69.660156 C 49.636719 69.660156 50.113281 69.617188 50.566406 69.5625 C 51.019531 69.507812 51.453125 69.445312 51.886719 69.410156 C 52.328125 69.367188 52.652344 68.980469 52.613281 68.539062 C 52.574219 68.101562 52.183594 67.777344 51.742188 67.820312 C 51.253906 67.863281 50.804688 67.925781 50.375 67.976562 C 49.945312 68.027344 49.539062 68.066406 49.125 68.066406 C 48.683594 68.066406 48.324219 68.421875 48.324219 68.863281 C 48.324219 69.304688 48.683594 69.660156 49.125 69.660156 " fill-opacity="1" fill-rule="nonzero"/><path fill="#ffffff" d="M 55.34375 68.277344 C 57.195312 67.859375 59.125 67.941406 60.976562 67.691406 C 64.589844 67.355469 68.203125 66.605469 71.648438 65.265625 " fill-opacity="1" fill-rule="nonzero"/><path fill="#231f20" d="M 55.523438 69.054688 C 56.375 68.863281 57.28125 68.78125 58.214844 68.71875 C 59.148438 68.65625 60.109375 68.613281 61.085938 68.480469 L 60.976562 67.691406 L 61.050781 68.488281 C 64.722656 68.144531 68.414062 67.378906 71.941406 66.007812 C 72.351562 65.847656 72.554688 65.382812 72.394531 64.972656 C 72.234375 64.5625 71.769531 64.359375 71.355469 64.519531 C 67.992188 65.828125 64.453125 66.566406 60.902344 66.898438 L 60.867188 66.902344 C 59.992188 67.019531 59.066406 67.0625 58.105469 67.125 C 57.148438 67.191406 56.164062 67.273438 55.167969 67.5 C 54.734375 67.597656 54.464844 68.023438 54.5625 68.453125 C 54.660156 68.882812 55.089844 69.152344 55.523438 69.054688 " fill-opacity="1" fill-rule="nonzero"/><g fill="#ff650e" fill-opacity="1"><g transform="translate(11.582966, 40.676746)"><g><path d="M 3.671875 -0.203125 C 3.929688 -0.222656 4.179688 -0.328125 4.421875 -0.515625 C 4.660156 -0.710938 4.820312 -0.9375 4.90625 -1.1875 C 5.0625 -1.726562 5.113281 -2.359375 5.0625 -3.078125 C 5.039062 -3.335938 5.015625 -3.585938 4.984375 -3.828125 C 4.953125 -4.066406 4.929688 -4.28125 4.921875 -4.46875 C 4.890625 -4.8125 4.914062 -5.078125 5 -5.265625 C 6.019531 -7.046875 6.664062 -8.207031 6.9375 -8.75 C 7.0625 -8.976562 7.140625 -9.144531 7.171875 -9.25 L 7.203125 -9.328125 C 7.242188 -9.484375 7.257812 -9.640625 7.25 -9.796875 C 7.21875 -10.148438 7.0625 -10.457031 6.78125 -10.71875 C 6.5 -10.976562 6.175781 -11.09375 5.8125 -11.0625 C 5.519531 -11.039062 5.226562 -10.894531 4.9375 -10.625 C 4.84375 -10.519531 4.695312 -10.296875 4.5 -9.953125 C 4.25 -9.535156 3.867188 -8.96875 3.359375 -8.25 C 3.304688 -8.1875 3.242188 -8.15625 3.171875 -8.15625 C 3.097656 -8.144531 3.03125 -8.179688 2.96875 -8.265625 C 2.851562 -8.441406 2.691406 -8.648438 2.484375 -8.890625 L 1.765625 -9.796875 C 1.566406 -10.023438 1.316406 -10.222656 1.015625 -10.390625 C 0.710938 -10.566406 0.410156 -10.644531 0.109375 -10.625 C -0.191406 -10.601562 -0.4375 -10.457031 -0.625 -10.1875 C -0.820312 -9.914062 -0.910156 -9.648438 -0.890625 -9.390625 C -0.867188 -9.078125 -0.71875 -8.695312 -0.4375 -8.25 C -0.164062 -7.800781 0.234375 -7.203125 0.765625 -6.453125 L 1.671875 -5.140625 C 1.742188 -4.972656 1.796875 -4.6875 1.828125 -4.28125 L 1.90625 -3.125 C 1.9375 -2.707031 1.988281 -2.269531 2.0625 -1.8125 C 2.175781 -1.257812 2.382812 -0.847656 2.6875 -0.578125 C 3 -0.304688 3.328125 -0.179688 3.671875 -0.203125 Z M 3.671875 -0.203125 "/></g></g></g><g fill="#ff650e" fill-opacity="1"><g transform="translate(18.802078, 40.146146)"><g><path d="M 3.890625 -0.015625 C 3.191406 0.0351562 2.53125 -0.15625 1.90625 -0.59375 C 1.289062 -1.03125 0.773438 -1.632812 0.359375 -2.40625 C -0.046875 -3.1875 -0.285156 -4.070312 -0.359375 -5.0625 C -0.429688 -6.039062 -0.320312 -6.945312 -0.03125 -7.78125 C 0.257812 -8.625 0.679688 -9.304688 1.234375 -9.828125 C 1.785156 -10.347656 2.410156 -10.632812 3.109375 -10.6875 C 3.816406 -10.738281 4.476562 -10.546875 5.09375 -10.109375 C 5.71875 -9.671875 6.234375 -9.054688 6.640625 -8.265625 C 7.046875 -7.484375 7.285156 -6.601562 7.359375 -5.625 C 7.429688 -4.632812 7.320312 -3.722656 7.03125 -2.890625 C 6.75 -2.066406 6.332031 -1.394531 5.78125 -0.875 C 5.226562 -0.351562 4.597656 -0.0664062 3.890625 -0.015625 Z M 3.59375 -4.234375 C 3.726562 -4.242188 3.832031 -4.351562 3.90625 -4.5625 C 3.988281 -4.78125 4.015625 -5.035156 3.984375 -5.328125 C 3.960938 -5.617188 3.898438 -5.863281 3.796875 -6.0625 C 3.691406 -6.257812 3.570312 -6.351562 3.4375 -6.34375 C 3.320312 -6.34375 3.222656 -6.234375 3.140625 -6.015625 C 3.066406 -5.796875 3.039062 -5.539062 3.0625 -5.25 C 3.09375 -4.957031 3.160156 -4.710938 3.265625 -4.515625 C 3.367188 -4.328125 3.476562 -4.234375 3.59375 -4.234375 Z M 3.59375 -4.234375 "/></g></g></g><g fill="#ff650e" fill-opacity="1"><g transform="translate(26.163764, 39.605067)"><g><path d="M 4.21875 -0.0625 C 5.007812 -0.113281 5.671875 -0.375 6.203125 -0.84375 C 6.742188 -1.320312 7.144531 -1.882812 7.40625 -2.53125 C 7.664062 -3.1875 7.773438 -3.828125 7.734375 -4.453125 C 7.722656 -5.359375 7.691406 -6.164062 7.640625 -6.875 C 7.609375 -7.394531 7.566406 -7.863281 7.515625 -8.28125 L 7.453125 -9.125 C 7.421875 -9.53125 7.296875 -9.863281 7.078125 -10.125 C 6.859375 -10.394531 6.609375 -10.582031 6.328125 -10.6875 C 6.054688 -10.800781 5.816406 -10.851562 5.609375 -10.84375 C 5.191406 -10.8125 4.835938 -10.601562 4.546875 -10.21875 C 4.265625 -9.84375 4.128906 -9.414062 4.140625 -8.9375 C 4.179688 -8.007812 4.234375 -7.132812 4.296875 -6.3125 C 4.359375 -5.445312 4.378906 -4.863281 4.359375 -4.5625 C 4.347656 -4.257812 4.242188 -4.097656 4.046875 -4.078125 C 3.859375 -4.066406 3.726562 -4.195312 3.65625 -4.46875 C 3.582031 -4.738281 3.535156 -5.070312 3.515625 -5.46875 L 3.4375 -6.34375 L 3.390625 -6.984375 L 3.328125 -7.84375 C 3.296875 -8.382812 3.210938 -8.851562 3.078125 -9.25 C 3.023438 -9.34375 2.953125 -9.472656 2.859375 -9.640625 C 2.472656 -10.265625 2 -10.554688 1.4375 -10.515625 C 0.664062 -10.460938 0.171875 -10.109375 -0.046875 -9.453125 C -0.242188 -8.929688 -0.285156 -7.9375 -0.171875 -6.46875 C -0.117188 -5.675781 -0.03125 -4.851562 0.09375 -4 C 0.144531 -3.570312 0.265625 -3.117188 0.453125 -2.640625 C 0.648438 -2.171875 0.910156 -1.726562 1.234375 -1.3125 C 1.566406 -0.90625 1.976562 -0.582031 2.46875 -0.34375 C 2.957031 -0.101562 3.539062 -0.0078125 4.21875 -0.0625 Z M 4.21875 -0.0625 "/></g></g></g><g fill="#ff650e" fill-opacity="1"><g transform="translate(34.147579, 39.018262)"><g/></g></g><g fill="#ff650e" fill-opacity="1"><g transform="translate(38.683754, 38.684857)"><g><path d="M 4.15625 -0.34375 C 4.695312 -0.375 5.148438 -0.445312 5.515625 -0.5625 C 6.304688 -0.84375 6.875 -1.296875 7.21875 -1.921875 C 7.570312 -2.546875 7.722656 -3.195312 7.671875 -3.875 C 7.640625 -4.394531 7.492188 -4.890625 7.234375 -5.359375 C 6.984375 -5.835938 6.617188 -6.234375 6.140625 -6.546875 C 6.078125 -6.597656 6.023438 -6.632812 5.984375 -6.65625 C 5.953125 -6.6875 5.929688 -6.722656 5.921875 -6.765625 C 5.921875 -6.816406 5.941406 -6.894531 5.984375 -7 C 6.128906 -7.425781 6.191406 -7.84375 6.171875 -8.25 C 6.117188 -8.851562 5.882812 -9.378906 5.46875 -9.828125 C 5.050781 -10.285156 4.503906 -10.585938 3.828125 -10.734375 C 3.472656 -10.796875 3.128906 -10.816406 2.796875 -10.796875 C 2.578125 -10.773438 2.359375 -10.742188 2.140625 -10.703125 C 1.929688 -10.671875 1.695312 -10.640625 1.4375 -10.609375 C 1.019531 -10.566406 0.660156 -10.429688 0.359375 -10.203125 C 0.0664062 -9.984375 -0.101562 -9.648438 -0.15625 -9.203125 C -0.175781 -8.984375 -0.117188 -7.921875 0.015625 -6.015625 L 0.0625 -5.15625 L 0.34375 -1.5 C 0.382812 -1.007812 0.539062 -0.65625 0.8125 -0.4375 C 1.09375 -0.226562 1.390625 -0.132812 1.703125 -0.15625 Z M 3.609375 -3.09375 C 3.566406 -3.09375 3.539062 -3.117188 3.53125 -3.171875 L 3.4375 -4.328125 C 3.425781 -4.429688 3.421875 -4.515625 3.421875 -4.578125 C 3.429688 -4.640625 3.460938 -4.671875 3.515625 -4.671875 C 3.679688 -4.671875 3.820312 -4.601562 3.9375 -4.46875 C 4.050781 -4.332031 4.117188 -4.160156 4.140625 -3.953125 C 4.148438 -3.785156 4.117188 -3.625 4.046875 -3.46875 C 3.972656 -3.3125 3.847656 -3.191406 3.671875 -3.109375 Z M 3.265625 -7.03125 L 3.1875 -8.21875 C 3.46875 -8.238281 3.617188 -8.050781 3.640625 -7.65625 C 3.648438 -7.519531 3.632812 -7.382812 3.59375 -7.25 C 3.550781 -7.113281 3.441406 -7.039062 3.265625 -7.03125 Z M 3.265625 -7.03125 "/></g></g></g><g fill="#ff650e" fill-opacity="1"><g transform="translate(46.1232, 38.138062)"><g><path d="M 2.8125 0.078125 C 3.175781 0.046875 3.609375 0.0078125 4.109375 -0.03125 C 4.472656 -0.0703125 4.875 -0.109375 5.3125 -0.140625 C 5.757812 -0.179688 6.132812 -0.347656 6.4375 -0.640625 C 6.738281 -0.929688 6.875 -1.316406 6.84375 -1.796875 C 6.8125 -2.265625 6.660156 -2.644531 6.390625 -2.9375 C 6.117188 -3.238281 5.789062 -3.398438 5.40625 -3.421875 C 4.613281 -3.367188 3.992188 -3.332031 3.546875 -3.3125 C 3.484375 -3.3125 3.441406 -3.335938 3.421875 -3.390625 C 3.410156 -3.441406 3.398438 -3.507812 3.390625 -3.59375 C 3.390625 -3.675781 3.394531 -3.734375 3.40625 -3.765625 C 3.414062 -3.804688 3.457031 -3.832031 3.53125 -3.84375 C 3.613281 -3.851562 3.75 -3.875 3.9375 -3.90625 L 4.53125 -3.984375 C 4.644531 -3.984375 4.800781 -3.988281 5 -4 C 5.207031 -4.019531 5.410156 -4.070312 5.609375 -4.15625 C 6.078125 -4.320312 6.28125 -4.828125 6.21875 -5.671875 C 6.1875 -6.035156 6.09375 -6.296875 5.9375 -6.453125 C 5.6875 -6.710938 5.296875 -6.828125 4.765625 -6.796875 C 4.191406 -6.753906 3.8125 -6.734375 3.625 -6.734375 C 3.445312 -6.734375 3.335938 -6.753906 3.296875 -6.796875 C 3.265625 -6.835938 3.242188 -6.898438 3.234375 -6.984375 L 3.234375 -7.03125 L 3.203125 -7.25 C 3.203125 -7.3125 3.238281 -7.347656 3.3125 -7.359375 C 3.488281 -7.367188 3.742188 -7.40625 4.078125 -7.46875 C 4.515625 -7.53125 4.898438 -7.570312 5.234375 -7.59375 C 5.628906 -7.625 5.914062 -7.742188 6.09375 -7.953125 C 6.363281 -8.285156 6.476562 -8.695312 6.4375 -9.1875 C 6.40625 -9.644531 6.28125 -10 6.0625 -10.25 C 5.65625 -10.6875 5.035156 -10.875 4.203125 -10.8125 L 1.09375 -10.59375 C 0.257812 -10.476562 -0.171875 -10.097656 -0.203125 -9.453125 C -0.210938 -9.316406 -0.191406 -8.882812 -0.140625 -8.15625 C -0.109375 -7.757812 -0.078125 -7.351562 -0.046875 -6.9375 C -0.015625 -6.519531 0.0078125 -6.164062 0.03125 -5.875 C 0.0625 -5.59375 0.0820312 -5.453125 0.09375 -5.453125 L 0.28125 -2.8125 C 0.34375 -1.914062 0.4375 -1.253906 0.5625 -0.828125 C 0.6875 -0.398438 0.914062 -0.128906 1.25 -0.015625 C 1.59375 0.0976562 2.113281 0.128906 2.8125 0.078125 Z M 2.8125 0.078125 "/></g></g></g><g fill="#ff650e" fill-opacity="1"><g transform="translate(52.810908, 37.646521)"><g><path d="M 4.140625 -0.1875 C 4.617188 -0.226562 5 -0.410156 5.28125 -0.734375 C 5.5625 -1.066406 5.695312 -1.507812 5.6875 -2.0625 L 5.546875 -4.140625 L 5.40625 -6.046875 C 5.351562 -6.691406 5.332031 -7.101562 5.34375 -7.28125 C 5.34375 -7.40625 5.367188 -7.484375 5.421875 -7.515625 C 5.484375 -7.554688 5.53125 -7.582031 5.5625 -7.59375 C 5.8125 -7.601562 6.085938 -7.632812 6.390625 -7.6875 C 6.691406 -7.738281 6.945312 -7.832031 7.15625 -7.96875 C 7.65625 -8.3125 7.878906 -8.859375 7.828125 -9.609375 C 7.796875 -10.054688 7.648438 -10.382812 7.390625 -10.59375 C 7.140625 -10.8125 6.867188 -10.945312 6.578125 -11 C 6.285156 -11.0625 6.054688 -11.082031 5.890625 -11.0625 L 1.375 -10.734375 C 0.914062 -10.703125 0.484375 -10.578125 0.078125 -10.359375 C -0.535156 -10.015625 -0.816406 -9.492188 -0.765625 -8.796875 C -0.742188 -8.429688 -0.601562 -8.117188 -0.34375 -7.859375 C -0.0820312 -7.609375 0.175781 -7.445312 0.4375 -7.375 C 0.570312 -7.320312 0.71875 -7.289062 0.875 -7.28125 C 1.03125 -7.269531 1.269531 -7.273438 1.59375 -7.296875 C 1.6875 -7.304688 1.78125 -7.300781 1.875 -7.28125 C 1.96875 -7.257812 2.023438 -7.195312 2.046875 -7.09375 C 2.191406 -5.914062 2.335938 -4.304688 2.484375 -2.265625 L 2.53125 -1.703125 C 2.53125 -1.691406 2.550781 -1.601562 2.59375 -1.4375 C 2.644531 -1.269531 2.726562 -1.082031 2.84375 -0.875 C 2.957031 -0.675781 3.117188 -0.503906 3.328125 -0.359375 C 3.546875 -0.222656 3.816406 -0.164062 4.140625 -0.1875 Z M 4.140625 -0.1875 "/></g></g></g><g fill="#ff650e" fill-opacity="1"><g transform="translate(60.67807, 37.06829)"><g><path d="M 4.140625 -0.1875 C 4.617188 -0.226562 5 -0.410156 5.28125 -0.734375 C 5.5625 -1.066406 5.695312 -1.507812 5.6875 -2.0625 L 5.546875 -4.140625 L 5.40625 -6.046875 C 5.351562 -6.691406 5.332031 -7.101562 5.34375 -7.28125 C 5.34375 -7.40625 5.367188 -7.484375 5.421875 -7.515625 C 5.484375 -7.554688 5.53125 -7.582031 5.5625 -7.59375 C 5.8125 -7.601562 6.085938 -7.632812 6.390625 -7.6875 C 6.691406 -7.738281 6.945312 -7.832031 7.15625 -7.96875 C 7.65625 -8.3125 7.878906 -8.859375 7.828125 -9.609375 C 7.796875 -10.054688 7.648438 -10.382812 7.390625 -10.59375 C 7.140625 -10.8125 6.867188 -10.945312 6.578125 -11 C 6.285156 -11.0625 6.054688 -11.082031 5.890625 -11.0625 L 1.375 -10.734375 C 0.914062 -10.703125 0.484375 -10.578125 0.078125 -10.359375 C -0.535156 -10.015625 -0.816406 -9.492188 -0.765625 -8.796875 C -0.742188 -8.429688 -0.601562 -8.117188 -0.34375 -7.859375 C -0.0820312 -7.609375 0.175781 -7.445312 0.4375 -7.375 C 0.570312 -7.320312 0.71875 -7.289062 0.875 -7.28125 C 1.03125 -7.269531 1.269531 -7.273438 1.59375 -7.296875 C 1.6875 -7.304688 1.78125 -7.300781 1.875 -7.28125 C 1.96875 -7.257812 2.023438 -7.195312 2.046875 -7.09375 C 2.191406 -5.914062 2.335938 -4.304688 2.484375 -2.265625 L 2.53125 -1.703125 C 2.53125 -1.691406 2.550781 -1.601562 2.59375 -1.4375 C 2.644531 -1.269531 2.726562 -1.082031 2.84375 -0.875 C 2.957031 -0.675781 3.117188 -0.503906 3.328125 -0.359375 C 3.546875 -0.222656 3.816406 -0.164062 4.140625 -0.1875 Z M 4.140625 -0.1875 "/></g></g></g><g fill="#ff650e" fill-opacity="1"><g transform="translate(68.545226, 36.490059)"><g><path d="M 2.8125 0.078125 C 3.175781 0.046875 3.609375 0.0078125 4.109375 -0.03125 C 4.472656 -0.0703125 4.875 -0.109375 5.3125 -0.140625 C 5.757812 -0.179688 6.132812 -0.347656 6.4375 -0.640625 C 6.738281 -0.929688 6.875 -1.316406 6.84375 -1.796875 C 6.8125 -2.265625 6.660156 -2.644531 6.390625 -2.9375 C 6.117188 -3.238281 5.789062 -3.398438 5.40625 -3.421875 C 4.613281 -3.367188 3.992188 -3.332031 3.546875 -3.3125 C 3.484375 -3.3125 3.441406 -3.335938 3.421875 -3.390625 C 3.410156 -3.441406 3.398438 -3.507812 3.390625 -3.59375 C 3.390625 -3.675781 3.394531 -3.734375 3.40625 -3.765625 C 3.414062 -3.804688 3.457031 -3.832031 3.53125 -3.84375 C 3.613281 -3.851562 3.75 -3.875 3.9375 -3.90625 L 4.53125 -3.984375 C 4.644531 -3.984375 4.800781 -3.988281 5 -4 C 5.207031 -4.019531 5.410156 -4.070312 5.609375 -4.15625 C 6.078125 -4.320312 6.28125 -4.828125 6.21875 -5.671875 C 6.1875 -6.035156 6.09375 -6.296875 5.9375 -6.453125 C 5.6875 -6.710938 5.296875 -6.828125 4.765625 -6.796875 C 4.191406 -6.753906 3.8125 -6.734375 3.625 -6.734375 C 3.445312 -6.734375 3.335938 -6.753906 3.296875 -6.796875 C 3.265625 -6.835938 3.242188 -6.898438 3.234375 -6.984375 L 3.234375 -7.03125 L 3.203125 -7.25 C 3.203125 -7.3125 3.238281 -7.347656 3.3125 -7.359375 C 3.488281 -7.367188 3.742188 -7.40625 4.078125 -7.46875 C 4.515625 -7.53125 4.898438 -7.570312 5.234375 -7.59375 C 5.628906 -7.625 5.914062 -7.742188 6.09375 -7.953125 C 6.363281 -8.285156 6.476562 -8.695312 6.4375 -9.1875 C 6.40625 -9.644531 6.28125 -10 6.0625 -10.25 C 5.65625 -10.6875 5.035156 -10.875 4.203125 -10.8125 L 1.09375 -10.59375 C 0.257812 -10.476562 -0.171875 -10.097656 -0.203125 -9.453125 C -0.210938 -9.316406 -0.191406 -8.882812 -0.140625 -8.15625 C -0.109375 -7.757812 -0.078125 -7.351562 -0.046875 -6.9375 C -0.015625 -6.519531 0.0078125 -6.164062 0.03125 -5.875 C 0.0625 -5.59375 0.0820312 -5.453125 0.09375 -5.453125 L 0.28125 -2.8125 C 0.34375 -1.914062 0.4375 -1.253906 0.5625 -0.828125 C 0.6875 -0.398438 0.914062 -0.128906 1.25 -0.015625 C 1.59375 0.0976562 2.113281 0.128906 2.8125 0.078125 Z M 2.8125 0.078125 "/></g></g></g><g fill="#ff650e" fill-opacity="1"><g transform="translate(75.232932, 35.998517)"><g><path d="M 2.125 -0.046875 C 2.414062 -0.0664062 2.679688 -0.164062 2.921875 -0.34375 C 3.171875 -0.53125 3.363281 -0.796875 3.5 -1.140625 C 3.601562 -1.546875 3.644531 -1.914062 3.625 -2.25 L 3.609375 -2.40625 C 3.597656 -2.539062 3.59375 -2.648438 3.59375 -2.734375 L 3.65625 -2.765625 C 3.769531 -2.609375 4.050781 -2.285156 4.5 -1.796875 C 4.988281 -1.265625 5.351562 -0.90625 5.59375 -0.71875 C 5.945312 -0.5 6.285156 -0.398438 6.609375 -0.421875 C 6.992188 -0.453125 7.320312 -0.613281 7.59375 -0.90625 C 7.863281 -1.195312 7.988281 -1.523438 7.96875 -1.890625 C 7.945312 -2.109375 7.863281 -2.328125 7.71875 -2.546875 C 7.226562 -3.128906 6.859375 -3.546875 6.609375 -3.796875 C 6.335938 -4.078125 6.203125 -4.265625 6.203125 -4.359375 C 6.191406 -4.421875 6.257812 -4.523438 6.40625 -4.671875 C 6.5625 -4.816406 6.769531 -5.066406 7.03125 -5.421875 C 7.457031 -6.066406 7.644531 -6.757812 7.59375 -7.5 C 7.53125 -8.28125 7.210938 -8.992188 6.640625 -9.640625 C 6.078125 -10.285156 5.265625 -10.675781 4.203125 -10.8125 C 3.679688 -10.851562 3.160156 -10.851562 2.640625 -10.8125 C 2.335938 -10.789062 2.035156 -10.757812 1.734375 -10.71875 C 1.378906 -10.675781 1.054688 -10.566406 0.765625 -10.390625 C 0.472656 -10.222656 0.238281 -9.992188 0.0625 -9.703125 C -0.101562 -9.421875 -0.171875 -9.078125 -0.140625 -8.671875 L 0.15625 -4.390625 C 0.175781 -4.117188 0.191406 -3.921875 0.203125 -3.796875 C 0.222656 -3.679688 0.234375 -3.585938 0.234375 -3.515625 C 0.242188 -3.441406 0.253906 -3.347656 0.265625 -3.234375 C 0.273438 -3.117188 0.3125 -2.59375 0.375 -1.65625 C 0.382812 -1.59375 0.40625 -1.515625 0.4375 -1.421875 C 0.46875 -1.328125 0.5 -1.242188 0.53125 -1.171875 C 0.664062 -0.765625 0.882812 -0.46875 1.1875 -0.28125 C 1.488281 -0.101562 1.800781 -0.0234375 2.125 -0.046875 Z M 3.671875 -5.96875 C 3.585938 -5.976562 3.53125 -6.1875 3.5 -6.59375 C 3.457031 -7.21875 3.484375 -7.53125 3.578125 -7.53125 L 3.59375 -7.53125 C 3.71875 -7.539062 3.832031 -7.457031 3.9375 -7.28125 C 4.050781 -7.101562 4.113281 -6.941406 4.125 -6.796875 C 4.132812 -6.597656 4.097656 -6.414062 4.015625 -6.25 C 3.941406 -6.082031 3.828125 -5.988281 3.671875 -5.96875 Z M 3.671875 -5.96875 "/></g></g></g><path stroke-linecap="butt" transform="matrix(0.747982, -0.0549762, 0.0549762, 0.747982, 3.764596, 28.466999)" fill="none" stroke-linejoin="miter" d="M 14.125651 17.083726 C 14.470385 17.082952 14.807554 16.971952 15.13792 16.740337 C 15.468287 16.508722 15.703016 16.228298 15.842488 15.893872 C 16.107759 15.197903 16.241564 14.372156 16.239091 13.411056 C 16.23908 13.055933 16.23273 12.716012 16.214082 12.401298 C 16.195816 12.08139 16.190842 11.793794 16.188391 11.542939 C 16.186009 11.077972 16.253524 10.727812 16.38093 10.486502 C 17.900351 8.216772 18.870421 6.742246 19.287091 6.04696 C 19.459869 5.756761 19.574978 5.540658 19.638375 5.388647 L 19.670836 5.302252 C 19.754016 5.094248 19.790828 4.877613 19.790898 4.663501 C 19.794474 4.188527 19.616479 3.768099 19.261728 3.407792 C 18.912552 3.042673 18.497689 2.860732 18.022334 2.86235 C 17.63085 2.859688 17.226769 3.028439 16.810852 3.358214 C 16.670686 3.488916 16.451922 3.765291 16.148984 4.19215 C 15.781655 4.713502 15.221684 5.440034 14.46869 6.376943 C 14.401013 6.445082 14.320044 6.48091 14.231359 6.479614 C 14.126709 6.482367 14.036647 6.428746 13.965986 6.324327 C 13.827718 6.073935 13.640561 5.77817 13.393745 5.441464 L 12.496924 4.143066 C 12.254538 3.81713 11.941572 3.527786 11.558789 3.264644 C 11.180819 3.007079 10.793305 2.879372 10.401821 2.87671 C 9.994374 2.878097 9.647811 3.045853 9.356176 3.389985 C 9.070117 3.729304 8.925069 4.068543 8.925461 4.418471 C 8.926085 4.836308 9.086436 5.354665 9.411329 5.979118 C 9.736221 6.603572 10.212442 7.44282 10.849617 8.508017 L 11.906409 10.329966 C 11.999073 10.56134 12.043924 10.94587 12.045773 11.489134 L 12.027791 13.012748 C 12.026969 13.592372 12.056548 14.184675 12.111717 14.784082 C 12.218529 15.533511 12.463748 16.105107 12.852569 16.499252 C 13.236578 16.887821 13.660684 17.086108 14.125651 17.083726 Z M 24.038085 17.363159 C 23.087756 17.361201 22.223428 17.041777 21.445102 16.404886 C 20.667159 15.762801 20.041448 14.896897 19.572399 13.817946 C 19.103351 12.738995 18.87278 11.541789 18.870678 10.220372 C 18.872243 8.920114 19.106257 7.725721 19.572719 6.637193 C 20.043994 5.554241 20.666216 4.69128 21.44458 4.048689 C 22.222943 3.406099 23.087481 3.083186 24.037811 3.085144 C 24.982946 3.086719 25.847274 3.406144 26.625217 4.048229 C 27.408355 4.690696 28.029254 5.551023 28.48715 6.6396 C 28.950622 7.723363 29.181193 8.920569 29.184823 10.221209 C 29.182112 11.53705 28.952911 12.737019 28.48683 13.820352 C 28.026326 14.898873 27.409298 15.762217 26.62574 16.404425 C 25.847758 17.041821 24.983221 17.364734 24.038085 17.363159 Z M 24.071985 11.715032 C 24.244161 11.717242 24.384709 11.581345 24.504017 11.308106 C 24.618131 11.034484 24.673731 10.704338 24.676393 10.312855 C 24.678291 9.931761 24.618852 9.603604 24.503652 9.323573 C 24.388452 9.043542 24.241785 8.907425 24.069609 8.905215 C 23.913016 8.90415 23.772086 9.045241 23.647202 9.323294 C 23.527512 9.601727 23.466718 9.931492 23.46482 10.312586 C 23.467352 10.704451 23.526409 11.037802 23.647567 11.307826 C 23.768725 11.57785 23.910197 11.713585 24.071985 11.715032 Z M 34.312966 17.329775 C 35.37314 17.329362 36.282136 17.04105 37.039572 16.470035 C 37.797007 15.89902 38.381804 15.189979 38.793581 14.348107 C 39.200164 13.505852 39.403022 12.664291 39.406587 11.834195 C 39.485153 10.623154 39.52744 9.550451 39.528252 8.615704 C 39.527849 7.910653 39.516525 7.283135 39.493898 6.738344 L 39.478434 5.598728 C 39.477729 5.039881 39.344344 4.580952 39.084235 4.211935 C 38.824127 3.842917 38.520786 3.564725 38.163061 3.386984 C 37.815724 3.210006 37.493445 3.118427 37.20623 3.118207 C 36.662966 3.120056 36.180437 3.361377 35.758261 3.847363 C 35.336085 4.33335 35.107094 4.890981 35.070906 5.525452 C 35.03718 6.7659 35.019569 7.929197 35.022123 9.031308 C 35.021241 10.180167 35.000334 10.961988 34.95016 11.360424 C 34.90518 11.759241 34.749662 11.956706 34.483225 11.958012 C 34.232752 11.95527 34.073556 11.776453 34.006401 11.411173 C 33.94444 11.046274 33.91456 10.600176 33.911946 10.0673 L 33.913592 8.908052 L 33.893858 8.039686 L 33.915136 6.897548 C 33.911448 6.166144 33.842604 5.53962 33.704175 5.007207 C 33.646575 4.867192 33.560864 4.683331 33.441846 4.455243 C 32.993887 3.586737 32.394008 3.150968 31.641826 3.153129 C 30.613199 3.150639 29.918778 3.574837 29.548556 4.419764 C 29.242876 5.097096 29.093579 6.41783 29.096235 8.371196 C 29.096648 9.431371 29.135562 10.536154 29.218553 11.680733 C 29.249278 12.257453 29.37121 12.872211 29.57396 13.524244 C 29.776711 14.176277 30.076395 14.788433 30.473013 15.360712 C 30.869631 15.932991 31.383347 16.404206 32.014161 16.774358 C 32.644976 17.144511 33.409385 17.331254 34.312966 17.329775 Z M 50.998915 16.968577 C 51.714737 16.963743 52.324532 16.909337 52.834641 16.790158 C 53.90023 16.502912 54.697311 15.960922 55.225885 15.164191 C 55.759653 14.367841 56.026752 13.50489 56.026801 12.580532 C 56.025252 11.891064 55.876354 11.216877 55.579724 10.563167 C 55.288288 9.909838 54.848589 9.355282 54.255049 8.904311 C 54.16575 8.840302 54.091653 8.782632 54.042764 8.73726 C 53.999451 8.687075 53.977298 8.633223 53.976303 8.575703 C 53.976072 8.507795 54.014873 8.406199 54.082701 8.264958 C 54.315741 7.723291 54.428548 7.183232 54.430748 6.655933 C 54.428355 5.835843 54.179388 5.102078 53.673458 4.453874 C 53.172722 3.806051 52.469338 3.357452 51.568881 3.103263 C 51.11789 2.986557 50.673087 2.927753 50.239667 2.927231 C 49.936869 2.925865 49.632926 2.940082 49.333796 2.959875 C 49.034283 2.984863 48.714375 3.003129 48.379266 3.015055 C 47.813316 3.041349 47.322076 3.188027 46.905547 3.455088 C 46.493829 3.727725 46.232828 4.152445 46.127737 4.729627 C 46.080385 5.018601 46.049262 6.436801 46.038797 8.995 L 46.021568 10.153102 L 46.038214 15.042476 C 46.042053 15.700779 46.215466 16.183539 46.558453 16.490757 C 46.906634 16.798356 47.287045 16.951654 47.704882 16.95103 Z M 50.546059 13.253512 C 50.48854 13.254507 50.459664 13.22105 50.459433 13.153142 L 50.443727 11.590495 C 50.444028 11.444291 50.452427 11.330016 50.46373 11.247288 C 50.475033 11.164561 50.514447 11.125679 50.582355 11.125448 C 50.800899 11.136288 50.981022 11.24353 51.117914 11.441597 C 51.260381 11.634852 51.326692 11.86951 51.327235 12.146337 C 51.326783 12.365644 51.274388 12.581133 51.165619 12.782033 C 51.051656 12.982553 50.873221 13.136554 50.620307 13.23808 Z M 50.480132 7.968837 L 50.475959 6.391371 C 50.846665 6.392506 51.030537 6.661917 51.03315 7.194792 C 51.030176 7.377357 50.996418 7.552437 50.926682 7.71965 C 50.856946 7.886863 50.709827 7.970053 50.480132 7.968837 Z M 59.110226 17.381969 C 59.606359 17.381878 60.187129 17.367118 60.856965 17.348459 C 61.343473 17.337216 61.87673 17.329408 62.467506 17.320606 C 63.057901 17.316998 63.567396 17.135106 64.000423 16.785699 C 64.433832 16.431098 64.652666 15.940611 64.652494 15.303468 C 64.652322 14.666324 64.487921 14.132003 64.153334 13.71051 C 63.829899 13.279392 63.409611 13.029161 62.902476 12.965775 C 61.853072 12.961757 61.022975 12.958192 60.423338 12.945453 C 60.34061 12.934151 60.291339 12.893973 60.275525 12.824919 C 60.259711 12.755866 60.251 12.661223 60.249011 12.546184 C 60.252215 12.431527 60.263518 12.3488 60.282537 12.303196 C 60.306751 12.257975 60.371373 12.23139 60.476787 12.218248 C 60.577006 12.204725 60.755522 12.191734 60.996369 12.183324 L 61.792778 12.147857 C 61.944177 12.14854 62.153096 12.148228 62.424727 12.147303 C 62.696359 12.146378 62.971045 12.103899 63.248404 12.025059 C 63.872938 11.841177 64.187098 11.19058 64.186071 10.067693 C 64.185217 9.581948 64.091326 9.225148 63.904401 8.997291 C 63.597543 8.624838 63.088801 8.441219 62.38375 8.441622 C 61.621179 8.443019 61.115421 8.431958 60.871288 8.414015 C 60.632349 8.396453 60.483622 8.35941 60.441073 8.298836 C 60.398142 8.243457 60.373466 8.152863 60.371477 8.037824 L 60.371245 7.969916 L 60.355119 7.691945 C 60.355652 7.613648 60.4066 7.559947 60.507201 7.541229 C 60.742473 7.537631 61.083158 7.520893 61.534833 7.486199 C 62.123087 7.440655 62.641907 7.416119 63.096103 7.418168 C 63.613396 7.41441 63.99884 7.286068 64.253582 7.017561 C 64.644442 6.602386 64.84074 6.063241 64.842095 5.40532 C 64.840015 4.794149 64.708157 4.314443 64.440945 3.971015 C 63.938682 3.34397 63.125916 3.033558 62.018611 3.03573 L 57.861787 3.033104 C 56.749519 3.102803 56.141493 3.559462 56.022125 4.401937 C 55.997993 4.588169 55.986399 5.172224 55.987345 6.154101 C 55.985146 6.6814 55.986996 7.224664 55.993276 7.778698 C 55.999174 8.337927 56.006751 8.803275 56.010047 9.184752 C 56.018537 9.56661 56.030765 9.755514 56.041153 9.756278 L 56.021628 13.290396 C 56.022885 14.481192 56.088223 15.368577 56.212445 15.952169 C 56.341862 16.536143 56.621985 16.917076 57.062819 17.100926 C 57.498077 17.289589 58.180674 17.381539 59.110226 17.381969 Z M 69.85343 17.158445 C 70.485379 17.157891 71.007172 16.950791 71.418427 16.542337 C 71.829682 16.133884 72.049811 15.554712 72.088441 14.815973 L 72.100503 12.022884 L 72.083851 9.47836 C 72.084131 8.62191 72.10344 8.074979 72.136967 7.831991 C 72.148038 7.681356 72.192034 7.580142 72.274149 7.528731 C 72.356263 7.47732 72.420886 7.450735 72.468016 7.448977 C 72.80198 7.452634 73.169019 7.432609 73.568368 7.399293 C 73.967718 7.365976 74.314512 7.266128 74.613562 7.105325 C 75.31165 6.702286 75.656363 5.991266 75.658089 4.973029 C 75.654481 4.382634 75.499555 3.932567 75.187735 3.62764 C 74.875914 3.322712 74.530486 3.119763 74.146257 3.018409 C 73.767604 2.912242 73.458235 2.85817 73.228158 2.862149 L 67.196646 2.857517 C 66.585474 2.859598 65.996306 2.988633 65.429522 3.239428 C 64.576368 3.620624 64.146788 4.278405 64.150788 5.218728 C 64.150879 5.714861 64.307333 6.144151 64.629773 6.51775 C 64.952595 6.886154 65.284198 7.135089 65.61977 7.258979 C 65.797372 7.329479 65.986889 7.379965 66.193517 7.410819 C 66.400526 7.436479 66.723337 7.44976 67.167146 7.451046 C 67.282184 7.449056 67.40089 7.468226 67.518451 7.502978 C 67.641205 7.538112 67.707817 7.626566 67.718669 7.763146 C 67.796325 9.335569 67.836416 11.490137 67.838942 14.226851 L 67.84034 14.989422 C 67.839577 14.999811 67.861962 15.121571 67.908259 15.344314 C 67.954174 15.572251 68.045311 15.824401 68.186864 16.101147 C 68.323223 16.377511 68.529781 16.622477 68.796149 16.835283 C 69.057322 17.047708 69.409622 17.15716 69.85343 17.158445 Z M 80.371298 17.158588 C 81.003247 17.158035 81.52504 16.950934 81.936295 16.542481 C 82.347932 16.128833 82.56768 15.554855 82.60631 14.816116 L 82.618372 12.023028 L 82.601719 9.478504 C 82.601999 8.622053 82.621309 8.075122 82.654835 7.832135 C 82.665907 7.681499 82.709903 7.580285 82.792017 7.528874 C 82.874132 7.477463 82.938754 7.450879 82.985885 7.449121 C 83.319849 7.452777 83.686887 7.432753 84.086237 7.399436 C 84.485587 7.366119 84.832381 7.266271 85.131431 7.105468 C 85.829519 6.70243 86.174232 5.99141 86.175958 4.973172 C 86.17235 4.382778 86.017424 3.93271 85.705603 3.627783 C 85.393783 3.322856 85.048355 3.119906 84.664126 3.018552 C 84.285473 2.912386 83.976104 2.858313 83.746027 2.862292 L 77.714515 2.85766 C 77.103343 2.859741 76.514175 2.988776 75.947391 3.239571 C 75.094237 3.620768 74.664657 4.278548 74.668657 5.218871 C 74.668748 5.715004 74.825201 6.144294 75.147642 6.517893 C 75.470464 6.886298 75.802067 7.135233 76.137638 7.259122 C 76.31524 7.329622 76.504758 7.380108 76.711385 7.410962 C 76.918395 7.436622 77.241206 7.449904 77.685014 7.451189 C 77.800053 7.449199 77.918759 7.468369 78.036319 7.503122 C 78.159074 7.538256 78.225686 7.62671 78.236537 7.763289 C 78.314193 9.335712 78.354285 11.49028 78.356811 14.226995 L 78.358209 14.989565 C 78.357445 14.999954 78.37983 15.121714 78.426127 15.344457 C 78.472043 15.572394 78.56318 15.824545 78.704733 16.10129 C 78.841474 16.37246 79.04765 16.622621 79.314017 16.835427 C 79.57519 17.047851 79.92749 17.157303 80.371298 17.158588 Z M 89.086748 17.381377 C 89.582881 17.381286 90.163268 17.37172 90.833487 17.347867 C 91.319995 17.336624 91.853251 17.328816 92.444028 17.320014 C 93.034422 17.316406 93.543917 17.134514 93.976944 16.785107 C 94.410353 16.430506 94.629187 15.940019 94.629015 15.302876 C 94.628843 14.665732 94.464061 14.136605 94.13505 13.710299 C 93.80642 13.2788 93.38575 13.033763 92.878997 12.965183 C 91.829593 12.961165 90.999497 12.9576 90.399859 12.944862 C 90.317132 12.933559 90.267861 12.893381 90.252047 12.824327 C 90.236232 12.755274 90.227521 12.660631 90.225532 12.545592 C 90.228737 12.430935 90.24004 12.348208 90.259059 12.302604 C 90.283272 12.257383 90.347894 12.230798 90.453308 12.217656 C 90.558722 12.204515 90.732043 12.191142 90.972891 12.182732 L 91.7693 12.147265 C 91.920699 12.147948 92.129617 12.147636 92.401249 12.146711 C 92.672881 12.145786 92.947185 12.108501 93.224925 12.024467 C 93.849459 11.840585 94.163619 11.189988 94.162211 10.072295 C 94.161356 9.58655 94.067848 9.224556 93.880922 8.996699 C 93.574065 8.624246 93.065322 8.440627 92.360271 8.44103 C 91.5977 8.442427 91.091942 8.431366 90.847809 8.413423 C 90.60887 8.395861 90.465338 8.3592 90.417213 8.303439 C 90.374663 8.242865 90.349988 8.152271 90.347998 8.037232 L 90.347767 7.969324 L 90.331641 7.691353 C 90.332173 7.613056 90.38274 7.564549 90.483723 7.540637 C 90.718613 7.542234 91.05968 7.520301 91.511354 7.485607 C 92.099609 7.440063 92.618428 7.415527 93.072625 7.417576 C 93.589535 7.419012 93.975361 7.285476 94.230104 7.016969 C 94.620963 6.601794 94.817262 6.062649 94.818617 5.404729 C 94.816536 4.793557 94.684678 4.313851 94.42266 3.970805 C 93.915203 3.343378 93.102437 3.032966 91.995132 3.035138 L 87.838308 3.032512 C 86.726041 3.102211 86.118014 3.55887 85.998647 4.401345 C 85.974514 4.587577 85.962921 5.171632 85.963867 6.153509 C 85.961667 6.680808 85.963517 7.224072 85.969797 7.778106 C 85.975696 8.337335 85.983272 8.802684 85.986568 9.18416 C 85.995058 9.566018 86.007286 9.754922 86.017675 9.755686 L 85.998149 13.289804 C 85.999407 14.4806 86.064744 15.367985 86.188967 15.951577 C 86.318384 16.535551 86.598506 16.916484 87.039341 17.100335 C 87.479793 17.289379 88.16239 17.381328 89.086748 17.381377 Z M 97.110347 17.140747 C 97.502212 17.138215 97.870164 17.034699 98.225357 16.820576 C 98.575356 16.606071 98.855457 16.276759 99.064897 15.843028 C 99.250424 15.308314 99.344213 14.813858 99.340686 14.364474 L 99.340374 14.155556 C 99.342584 13.98338 99.347698 13.842751 99.356478 13.723282 L 99.447454 13.693412 C 99.572812 13.906298 99.915115 14.364915 100.469934 15.058492 C 101.057296 15.806684 101.50005 16.319685 101.804154 16.587489 C 102.255076 16.918307 102.697056 17.086574 103.136051 17.082284 C 103.642573 17.082956 104.094549 16.902058 104.476396 16.538445 C 104.868632 16.175595 105.061726 15.751107 105.060871 15.265363 C 105.061092 14.978148 104.973391 14.679249 104.798149 14.36347 C 104.211702 13.531787 103.764286 12.940107 103.466672 12.584 C 103.130939 12.17809 102.962651 11.909824 102.961425 11.784397 C 102.962339 11.700906 103.070957 11.573108 103.28728 11.401001 C 103.498408 11.228513 103.797378 10.9267 104.179758 10.48479 C 104.798925 9.663383 105.111015 8.756737 105.110833 7.764471 C 105.113323 6.735844 104.767261 5.759935 104.082654 4.842702 C 103.392852 3.925086 102.345798 3.320668 100.935916 3.034259 C 100.254465 2.926727 99.574009 2.876714 98.889735 2.878644 C 98.471899 2.879267 98.058493 2.890661 97.644324 2.912444 C 97.157052 2.934076 96.715615 3.042635 96.314437 3.242934 C 95.919217 3.433225 95.595803 3.712353 95.34939 4.080698 C 95.098164 4.443467 94.975501 4.904466 94.976587 5.458118 L 94.942537 11.179347 C 94.942547 11.53447 94.944617 11.790519 94.948747 11.947494 C 94.958071 12.104851 94.959297 12.230278 94.957237 12.329352 C 94.960372 12.428808 94.961598 12.554235 94.965346 12.716404 C 94.975052 12.868567 94.975455 13.573618 94.976944 14.832322 C 94.976029 14.915813 94.994366 15.021608 95.026376 15.15452 C 95.058386 15.287433 95.091541 15.404762 95.115072 15.510939 C 95.251973 16.064129 95.514222 16.475083 95.891429 16.743037 C 96.274211 17.006178 96.676927 17.140225 97.110347 17.140747 Z M 99.771665 9.424442 C 99.658154 9.405654 99.600855 9.119434 99.599006 8.576171 C 99.597377 7.745692 99.664661 7.327624 99.790088 7.326398 L 99.826449 7.329071 C 99.988236 7.330517 100.130472 7.455864 100.258351 7.705493 C 100.386231 7.955121 100.448493 8.173815 100.44995 8.36715 C 100.451256 8.633588 100.39214 8.869473 100.267024 9.079617 C 100.147103 9.290143 99.982111 9.403353 99.771665 9.424442 Z M 99.771665 9.424442 " stroke="#233d4d" stroke-width="0.866665" stroke-opacity="1" stroke-miterlimit="4"/><g fill="#ff650e" fill-opacity="1"><g transform="translate(20.428966, 58.075123)"><g><path d="M 3.4375 -0.0625 C 4.414062 -0.15625 5.203125 -0.390625 5.796875 -0.765625 C 6.390625 -1.148438 6.8125 -1.617188 7.0625 -2.171875 C 7.320312 -2.722656 7.429688 -3.273438 7.390625 -3.828125 C 7.335938 -4.472656 7.109375 -5.070312 6.703125 -5.625 C 6.210938 -6.28125 5.5 -6.695312 4.5625 -6.875 C 4.25 -6.925781 3.945312 -7.019531 3.65625 -7.15625 C 3.363281 -7.289062 3.191406 -7.535156 3.140625 -7.890625 C 3.148438 -7.992188 3.179688 -8.078125 3.234375 -8.140625 C 3.285156 -8.210938 3.34375 -8.253906 3.40625 -8.265625 C 3.488281 -8.242188 3.550781 -8.175781 3.59375 -8.0625 C 3.644531 -7.945312 3.769531 -7.773438 3.96875 -7.546875 C 4.21875 -7.253906 4.550781 -7.125 4.96875 -7.15625 C 5.207031 -7.164062 5.425781 -7.234375 5.625 -7.359375 C 5.832031 -7.484375 5.984375 -7.65625 6.078125 -7.875 C 6.179688 -8.101562 6.222656 -8.335938 6.203125 -8.578125 C 6.179688 -8.929688 6.050781 -9.265625 5.8125 -9.578125 C 5.570312 -9.898438 5.265625 -10.164062 4.890625 -10.375 C 4.328125 -10.664062 3.722656 -10.785156 3.078125 -10.734375 C 2.347656 -10.679688 1.660156 -10.410156 1.015625 -9.921875 C 0.378906 -9.429688 -0.0351562 -8.726562 -0.234375 -7.8125 C -0.265625 -7.5625 -0.269531 -7.332031 -0.25 -7.125 C -0.175781 -6.039062 0.628906 -5.179688 2.171875 -4.546875 C 2.347656 -4.460938 2.460938 -4.398438 2.515625 -4.359375 C 3.078125 -4.035156 3.367188 -3.753906 3.390625 -3.515625 C 3.390625 -3.429688 3.359375 -3.359375 3.296875 -3.296875 C 3.234375 -3.242188 3.160156 -3.21875 3.078125 -3.21875 C 2.953125 -3.207031 2.832031 -3.253906 2.71875 -3.359375 C 2.125 -3.910156 1.597656 -4.171875 1.140625 -4.140625 C 0.773438 -4.109375 0.476562 -3.953125 0.25 -3.671875 C 0.03125 -3.390625 -0.0625 -3.039062 -0.03125 -2.625 C 0.0195312 -1.945312 0.40625 -1.285156 1.125 -0.640625 C 1.550781 -0.304688 2.15625 -0.117188 2.9375 -0.078125 C 3.21875 -0.0664062 3.382812 -0.0625 3.4375 -0.0625 Z M 3.4375 -0.0625 "/></g></g></g><g fill="#ff650e" fill-opacity="1"><g transform="translate(27.583273, 57.549287)"><g><path d="M 1.984375 0.0625 C 2.398438 0.03125 2.785156 -0.109375 3.140625 -0.359375 C 3.503906 -0.617188 3.6875 -0.992188 3.6875 -1.484375 C 3.664062 -1.910156 3.644531 -2.265625 3.625 -2.546875 C 3.601562 -2.835938 3.59375 -3.050781 3.59375 -3.1875 C 3.59375 -3.332031 3.628906 -3.410156 3.703125 -3.421875 L 4.171875 -3.453125 C 4.242188 -3.453125 4.289062 -3.445312 4.3125 -3.4375 C 4.34375 -3.4375 4.363281 -3.421875 4.375 -3.390625 L 4.40625 -2.953125 C 4.457031 -2.203125 4.515625 -1.65625 4.578125 -1.3125 C 4.671875 -0.925781 4.878906 -0.648438 5.203125 -0.484375 C 5.523438 -0.316406 5.867188 -0.242188 6.234375 -0.265625 C 6.492188 -0.285156 6.742188 -0.359375 6.984375 -0.484375 C 7.523438 -0.773438 7.773438 -1.234375 7.734375 -1.859375 C 7.628906 -3.296875 7.546875 -4.476562 7.484375 -5.40625 C 7.441406 -6.175781 7.363281 -7.335938 7.25 -8.890625 C 7.207031 -9.441406 7.09375 -9.863281 6.90625 -10.15625 C 6.550781 -10.675781 6.046875 -10.910156 5.390625 -10.859375 C 5.128906 -10.835938 4.898438 -10.78125 4.703125 -10.6875 C 4.503906 -10.601562 4.375 -10.519531 4.3125 -10.4375 C 4.125 -10.164062 4.019531 -9.851562 4 -9.5 C 3.976562 -9.144531 3.984375 -8.804688 4.015625 -8.484375 L 4.171875 -6.75 C 4.210938 -6.226562 4.191406 -5.960938 4.109375 -5.953125 L 3.703125 -5.90625 C 3.578125 -5.894531 3.5 -5.90625 3.46875 -5.9375 C 3.4375 -5.96875 3.421875 -6.03125 3.421875 -6.125 L 3.28125 -8.34375 L 3.203125 -9.125 C 3.179688 -9.507812 3.0625 -9.8125 2.84375 -10.03125 C 2.625 -10.257812 2.363281 -10.414062 2.0625 -10.5 C 1.757812 -10.582031 1.460938 -10.613281 1.171875 -10.59375 C 0.753906 -10.5625 0.425781 -10.351562 0.1875 -9.96875 C -0.0390625 -9.59375 -0.144531 -9.109375 -0.125 -8.515625 L 0.171875 -3.75 C 0.222656 -3.21875 0.273438 -2.582031 0.328125 -1.84375 C 0.367188 -1.40625 0.414062 -1.066406 0.46875 -0.828125 C 0.53125 -0.585938 0.65625 -0.382812 0.84375 -0.21875 C 1.144531 0 1.523438 0.09375 1.984375 0.0625 Z M 1.984375 0.0625 "/></g></g></g><g fill="#ff650e" fill-opacity="1"><g transform="translate(35.450432, 56.971056)"><g><path d="M 3.890625 -0.015625 C 3.191406 0.0351562 2.53125 -0.15625 1.90625 -0.59375 C 1.289062 -1.03125 0.773438 -1.632812 0.359375 -2.40625 C -0.046875 -3.1875 -0.285156 -4.070312 -0.359375 -5.0625 C -0.429688 -6.039062 -0.320312 -6.945312 -0.03125 -7.78125 C 0.257812 -8.625 0.679688 -9.304688 1.234375 -9.828125 C 1.785156 -10.347656 2.410156 -10.632812 3.109375 -10.6875 C 3.816406 -10.738281 4.476562 -10.546875 5.09375 -10.109375 C 5.71875 -9.671875 6.234375 -9.054688 6.640625 -8.265625 C 7.046875 -7.484375 7.285156 -6.601562 7.359375 -5.625 C 7.429688 -4.632812 7.320312 -3.722656 7.03125 -2.890625 C 6.75 -2.066406 6.332031 -1.394531 5.78125 -0.875 C 5.226562 -0.351562 4.597656 -0.0664062 3.890625 -0.015625 Z M 3.59375 -4.234375 C 3.726562 -4.242188 3.832031 -4.351562 3.90625 -4.5625 C 3.988281 -4.78125 4.015625 -5.035156 3.984375 -5.328125 C 3.960938 -5.617188 3.898438 -5.863281 3.796875 -6.0625 C 3.691406 -6.257812 3.570312 -6.351562 3.4375 -6.34375 C 3.320312 -6.34375 3.222656 -6.234375 3.140625 -6.015625 C 3.066406 -5.796875 3.039062 -5.539062 3.0625 -5.25 C 3.09375 -4.957031 3.160156 -4.710938 3.265625 -4.515625 C 3.367188 -4.328125 3.476562 -4.234375 3.59375 -4.234375 Z M 3.59375 -4.234375 "/></g></g></g><g fill="#ff650e" fill-opacity="1"><g transform="translate(42.812119, 56.429977)"><g><path d="M 3.3125 -0.0625 C 3.613281 -0.0820312 3.894531 -0.210938 4.15625 -0.453125 C 4.425781 -0.691406 4.617188 -0.96875 4.734375 -1.28125 L 5.3125 -2.84375 C 5.332031 -2.894531 5.363281 -2.921875 5.40625 -2.921875 C 5.457031 -2.929688 5.5 -2.898438 5.53125 -2.828125 C 5.570312 -2.765625 5.613281 -2.695312 5.65625 -2.625 C 5.9375 -1.957031 6.148438 -1.503906 6.296875 -1.265625 C 6.671875 -0.648438 7.117188 -0.363281 7.640625 -0.40625 C 8.066406 -0.4375 8.40625 -0.679688 8.65625 -1.140625 C 8.78125 -1.390625 9.140625 -2.835938 9.734375 -5.484375 C 10.273438 -7.960938 10.570312 -9.367188 10.625 -9.703125 L 10.640625 -9.96875 C 10.609375 -10.351562 10.425781 -10.648438 10.09375 -10.859375 C 9.769531 -11.078125 9.445312 -11.175781 9.125 -11.15625 C 8.738281 -11.125 8.425781 -10.945312 8.1875 -10.625 C 7.957031 -10.3125 7.765625 -9.914062 7.609375 -9.4375 C 7.460938 -8.96875 7.320312 -8.46875 7.1875 -7.9375 C 7.050781 -7.40625 6.910156 -6.914062 6.765625 -6.46875 C 6.753906 -6.445312 6.738281 -6.4375 6.71875 -6.4375 C 6.695312 -6.425781 6.675781 -6.4375 6.65625 -6.46875 C 6.59375 -6.59375 6.488281 -6.773438 6.34375 -7.015625 C 5.96875 -7.617188 5.585938 -7.90625 5.203125 -7.875 C 4.984375 -7.863281 4.773438 -7.753906 4.578125 -7.546875 C 4.390625 -7.335938 4.226562 -7.113281 4.09375 -6.875 C 3.96875 -6.632812 3.875 -6.441406 3.8125 -6.296875 L 3.765625 -6.265625 C 3.734375 -6.265625 3.707031 -6.28125 3.6875 -6.3125 C 3.675781 -6.34375 3.476562 -6.890625 3.09375 -7.953125 C 2.582031 -9.335938 2.035156 -10.148438 1.453125 -10.390625 C 1.191406 -10.515625 0.957031 -10.566406 0.75 -10.546875 C -0.289062 -10.472656 -0.78125 -10.007812 -0.71875 -9.15625 C -0.707031 -9.050781 -0.664062 -8.890625 -0.59375 -8.671875 C -0.53125 -8.460938 -0.335938 -7.910156 -0.015625 -7.015625 C 0.367188 -5.953125 1.054688 -4.03125 2.046875 -1.25 C 2.191406 -0.789062 2.378906 -0.472656 2.609375 -0.296875 C 2.835938 -0.117188 3.070312 -0.0390625 3.3125 -0.0625 Z M 3.3125 -0.0625 "/></g></g></g><g fill="#ff650e" fill-opacity="1"><g transform="translate(53.53071, 55.642168)"><g/></g></g><g fill="#ff650e" fill-opacity="1"><g transform="translate(58.066885, 55.308762)"><g><path d="M 4.21875 -0.0625 C 5.007812 -0.113281 5.671875 -0.375 6.203125 -0.84375 C 6.742188 -1.320312 7.144531 -1.882812 7.40625 -2.53125 C 7.664062 -3.1875 7.773438 -3.828125 7.734375 -4.453125 C 7.722656 -5.359375 7.691406 -6.164062 7.640625 -6.875 C 7.609375 -7.394531 7.566406 -7.863281 7.515625 -8.28125 L 7.453125 -9.125 C 7.421875 -9.53125 7.296875 -9.863281 7.078125 -10.125 C 6.859375 -10.394531 6.609375 -10.582031 6.328125 -10.6875 C 6.054688 -10.800781 5.816406 -10.851562 5.609375 -10.84375 C 5.191406 -10.8125 4.835938 -10.601562 4.546875 -10.21875 C 4.265625 -9.84375 4.128906 -9.414062 4.140625 -8.9375 C 4.179688 -8.007812 4.234375 -7.132812 4.296875 -6.3125 C 4.359375 -5.445312 4.378906 -4.863281 4.359375 -4.5625 C 4.347656 -4.257812 4.242188 -4.097656 4.046875 -4.078125 C 3.859375 -4.066406 3.726562 -4.195312 3.65625 -4.46875 C 3.582031 -4.738281 3.535156 -5.070312 3.515625 -5.46875 L 3.4375 -6.34375 L 3.390625 -6.984375 L 3.328125 -7.84375 C 3.296875 -8.382812 3.210938 -8.851562 3.078125 -9.25 C 3.023438 -9.34375 2.953125 -9.472656 2.859375 -9.640625 C 2.472656 -10.265625 2 -10.554688 1.4375 -10.515625 C 0.664062 -10.460938 0.171875 -10.109375 -0.046875 -9.453125 C -0.242188 -8.929688 -0.285156 -7.9375 -0.171875 -6.46875 C -0.117188 -5.675781 -0.03125 -4.851562 0.09375 -4 C 0.144531 -3.570312 0.265625 -3.117188 0.453125 -2.640625 C 0.648438 -2.171875 0.910156 -1.726562 1.234375 -1.3125 C 1.566406 -0.90625 1.976562 -0.582031 2.46875 -0.34375 C 2.957031 -0.101562 3.539062 -0.0078125 4.21875 -0.0625 Z M 4.21875 -0.0625 "/></g></g></g><g fill="#ff650e" fill-opacity="1"><g transform="translate(66.050699, 54.721957)"><g><path d="M 2.0625 0.03125 C 2.5 0 2.867188 -0.195312 3.171875 -0.5625 C 3.484375 -0.925781 3.660156 -1.351562 3.703125 -1.84375 C 3.710938 -2.4375 3.710938 -2.816406 3.703125 -2.984375 C 3.691406 -3.109375 3.691406 -3.175781 3.703125 -3.1875 C 3.722656 -3.195312 3.816406 -3.207031 3.984375 -3.21875 C 4.859375 -3.382812 5.554688 -3.679688 6.078125 -4.109375 C 6.597656 -4.546875 6.960938 -5.050781 7.171875 -5.625 C 7.378906 -6.195312 7.460938 -6.769531 7.421875 -7.34375 C 7.359375 -8.21875 7.046875 -8.957031 6.484375 -9.5625 C 6.078125 -9.96875 5.703125 -10.257812 5.359375 -10.4375 C 5.023438 -10.613281 4.625 -10.710938 4.15625 -10.734375 C 3.695312 -10.753906 3.0625 -10.734375 2.25 -10.671875 L 1.125 -10.59375 C 0.84375 -10.570312 0.554688 -10.414062 0.265625 -10.125 C -0.015625 -9.84375 -0.160156 -9.484375 -0.171875 -9.046875 C -0.179688 -8.679688 -0.160156 -8.125 -0.109375 -7.375 L 0 -5.984375 C 0.0703125 -5.066406 0.179688 -3.644531 0.328125 -1.71875 L 0.34375 -1.625 C 0.394531 -0.789062 0.804688 -0.253906 1.578125 -0.015625 C 1.742188 0.0234375 1.90625 0.0390625 2.0625 0.03125 Z M 3.625 -6.03125 C 3.613281 -6.03125 3.585938 -6.050781 3.546875 -6.09375 L 3.515625 -6.109375 C 3.503906 -6.109375 3.492188 -6.144531 3.484375 -6.21875 L 3.421875 -7.21875 C 3.421875 -7.363281 3.457031 -7.4375 3.53125 -7.4375 C 3.632812 -7.445312 3.75 -7.375 3.875 -7.21875 C 4.007812 -7.070312 4.082031 -6.9375 4.09375 -6.8125 C 4.09375 -6.6875 4.0625 -6.566406 4 -6.453125 C 3.945312 -6.335938 3.882812 -6.238281 3.8125 -6.15625 C 3.738281 -6.070312 3.675781 -6.03125 3.625 -6.03125 Z M 3.625 -6.03125 "/></g></g></g><g fill="#ff650e" fill-opacity="1"><g transform="translate(73.464228, 54.177068)"><g><path d="M 1.640625 -3.171875 C 1.984375 -3.191406 2.289062 -3.328125 2.5625 -3.578125 C 2.84375 -3.835938 3.035156 -4.15625 3.140625 -4.53125 C 3.203125 -4.800781 3.234375 -5.078125 3.234375 -5.359375 C 3.242188 -5.648438 3.234375 -6.082031 3.203125 -6.65625 L 3.171875 -7.484375 L 3.15625 -7.484375 L 3.09375 -8.25 C 3.0625 -8.71875 2.992188 -9.1875 2.890625 -9.65625 C 2.796875 -10.132812 2.625 -10.523438 2.375 -10.828125 C 2.132812 -11.128906 1.757812 -11.265625 1.25 -11.234375 L 1.15625 -11.21875 C 0.28125 -11.101562 -0.179688 -10.507812 -0.234375 -9.4375 C -0.253906 -8.976562 -0.253906 -8.398438 -0.234375 -7.703125 C -0.203125 -6.734375 -0.171875 -6.003906 -0.140625 -5.515625 C -0.0976562 -5.015625 -0.0351562 -4.625 0.046875 -4.34375 C 0.128906 -4.0625 0.273438 -3.820312 0.484375 -3.625 C 0.828125 -3.289062 1.210938 -3.140625 1.640625 -3.171875 Z M 2.078125 1.453125 C 2.335938 1.429688 2.585938 1.34375 2.828125 1.1875 C 3.078125 1.039062 3.269531 0.84375 3.40625 0.59375 C 3.582031 0.269531 3.65625 -0.0664062 3.625 -0.421875 C 3.601562 -0.734375 3.5 -1.023438 3.3125 -1.296875 C 3.125 -1.566406 2.859375 -1.753906 2.515625 -1.859375 C 2.234375 -1.953125 1.960938 -1.992188 1.703125 -1.984375 C 1.503906 -1.960938 1.3125 -1.898438 1.125 -1.796875 C 0.8125 -1.597656 0.582031 -1.347656 0.4375 -1.046875 C 0.289062 -0.742188 0.226562 -0.4375 0.25 -0.125 C 0.28125 0.28125 0.457031 0.65625 0.78125 1 C 1.175781 1.332031 1.609375 1.484375 2.078125 1.453125 Z M 2.078125 1.453125 "/></g></g></g><path stroke-linecap="butt" transform="matrix(0.747982, -0.0549762, 0.0549762, 0.747982, 3.764596, 28.466999)" fill="none" stroke-linejoin="miter" d="M 23.853792 41.257682 C 25.151528 41.222505 26.213299 40.987202 27.039869 40.541383 C 27.866438 40.095564 28.472475 39.523866 28.863937 38.816282 C 29.255017 38.113893 29.455052 37.381794 29.452509 36.634807 C 29.453553 35.767968 29.211076 34.945899 28.725079 34.1686 C 28.139928 33.248232 27.240224 32.628532 26.02001 32.319507 C 25.594226 32.215098 25.198232 32.060656 24.827214 31.850603 C 24.461009 31.646126 24.256893 31.296891 24.219296 30.813669 C 24.233271 30.694581 24.282461 30.593749 24.357241 30.50002 C 24.44241 30.407054 24.524143 30.360838 24.602439 30.36137 C 24.705562 30.379394 24.787375 30.474188 24.843066 30.640175 C 24.899139 30.800968 25.048559 31.041735 25.275362 31.366526 C 25.589554 31.781297 26.023667 31.985543 26.582132 31.990033 C 26.890505 31.986586 27.18826 31.914468 27.470963 31.762908 C 27.753285 31.616542 27.973043 31.397687 28.119087 31.115968 C 28.270706 30.829436 28.344793 30.531983 28.346922 30.218796 C 28.345304 29.743441 28.20153 29.283748 27.921558 28.829713 C 27.641968 28.370483 27.262772 27.98749 26.789927 27.670728 C 26.059426 27.235803 25.271336 27.015985 24.414885 27.015705 C 23.427814 27.016269 22.492083 27.31306 21.592491 27.899739 C 20.698094 28.486799 20.078394 29.386503 19.733391 30.59885 C 19.651819 30.927087 19.614093 31.227213 19.614636 31.504039 C 19.613152 32.945307 20.604385 34.167087 22.5891 35.158988 C 22.809251 35.290061 22.964548 35.379811 23.04384 35.437863 C 23.760134 35.923968 24.117026 36.326211 24.119327 36.650167 C 24.116123 36.764824 24.07289 36.85565 23.989631 36.922644 C 23.901558 36.984061 23.800194 37.013168 23.685155 37.015157 C 23.512979 37.012947 23.356536 36.93878 23.215827 36.792656 C 22.480121 36.002226 21.798891 35.607479 21.172136 35.608414 C 20.701974 35.610415 20.297511 35.78436 19.968752 36.136208 C 19.639611 36.49325 19.475393 36.951195 19.475334 37.52043 C 19.472 38.418435 19.922099 39.328877 20.825249 40.256951 C 21.358979 40.740083 22.140198 41.053398 23.184869 41.19285 C 23.56291 41.236302 23.791078 41.258295 23.853792 41.257682 Z M 31.466437 41.279301 C 32.020089 41.278215 32.548071 41.129015 33.050383 40.831702 C 33.553076 40.529195 33.83386 40.048484 33.892735 39.389568 C 33.903183 38.821097 33.906759 38.346122 33.908657 37.965028 C 33.905361 37.583552 33.915588 37.302295 33.934908 37.110487 C 33.949034 36.918297 34.003037 36.823041 34.096917 36.824718 L 34.724817 36.8082 C 34.829467 36.805447 34.896611 36.815604 34.921437 36.833096 C 34.951458 36.85097 34.965132 36.878087 34.96689 36.925218 L 34.964922 37.520425 C 34.964341 38.523079 34.994001 39.256393 35.048708 39.719984 C 35.141915 40.228183 35.390872 40.606826 35.794813 40.8663 C 36.198755 41.125774 36.653796 41.258445 37.149929 41.258353 C 37.494663 41.257579 37.834354 41.183321 38.174195 41.03596 C 38.913305 40.714273 39.280021 40.130207 39.279538 39.284146 C 39.280549 37.351939 39.29196 35.775618 39.314152 34.549989 C 39.327794 33.511737 39.332102 31.961006 39.333033 29.887788 C 39.329726 29.151189 39.215128 28.578749 38.983664 28.17528 C 38.572146 27.450457 37.930561 27.084736 37.063722 27.083692 C 36.718988 27.084467 36.407178 27.134662 36.133487 27.234661 C 35.860177 27.329465 35.674789 27.435954 35.572129 27.553746 C 35.318763 27.874578 35.158744 28.275385 35.092073 28.756167 C 35.030596 29.23733 34.996999 29.69443 35.00129 30.133426 L 35.035504 32.439011 C 35.031476 33.133292 34.974731 33.479021 34.860074 33.475816 L 34.32086 33.493631 C 34.159072 33.492184 34.066338 33.474923 34.03265 33.435891 C 33.993768 33.396476 33.979099 33.31184 33.977873 33.186413 L 34.011777 30.238258 L 33.996926 29.161356 C 33.997598 28.654834 33.860777 28.242654 33.59685 27.92558 C 33.32773 27.608124 33.000176 27.375154 32.598223 27.230718 C 32.201465 27.086664 31.804557 27.015713 31.412692 27.018245 C 30.859039 27.019331 30.408058 27.257748 30.059748 27.733496 C 29.71625 28.214821 29.5279 28.858997 29.505084 29.66679 L 29.434846 36.02249 C 29.445637 36.728305 29.450552 37.585137 29.454783 38.593367 C 29.454342 39.167797 29.478647 39.618708 29.538467 39.941671 C 29.598288 40.264633 29.739078 40.551767 29.971989 40.793448 C 30.355384 41.119303 30.855265 41.281381 31.466437 41.279301 Z M 44.531965 41.362248 C 43.581253 41.365484 42.716926 41.04606 41.938982 40.403975 C 41.161038 39.76189 40.535327 38.895986 40.066279 37.817035 C 39.597231 36.738084 39.366659 35.540878 39.364557 34.219461 C 39.366123 32.919203 39.600136 31.72481 40.066599 30.636282 C 40.537874 29.55333 41.160096 28.690369 41.938459 28.047779 C 42.716823 27.405188 43.58136 27.082275 44.53169 27.084233 C 45.476826 27.085808 46.341153 27.405233 47.119097 28.047318 C 47.902235 28.689785 48.523134 29.550112 48.981029 30.638689 C 49.444501 31.722452 49.675073 32.919658 49.678702 34.220298 C 49.67561 35.541334 49.44679 36.736108 48.98071 37.819442 C 48.520205 38.897962 47.903177 39.761306 47.11962 40.403514 C 46.341256 41.046104 45.4771 41.363824 44.531965 41.362248 Z M 44.565864 35.714121 C 44.73804 35.716331 44.878588 35.580434 44.997897 35.307195 C 45.11201 35.033573 45.16761 34.703428 45.170272 34.311944 C 45.17217 33.93085 45.112731 33.602694 44.997532 33.322663 C 44.88195 33.047826 44.735665 32.906514 44.563489 32.904304 C 44.406513 32.908434 44.260771 33.043949 44.141081 33.322383 C 44.021391 33.600817 43.960597 33.930581 43.958699 34.311675 C 43.961231 34.70354 44.020289 35.036891 44.141446 35.306915 C 44.262222 35.582133 44.403695 35.717869 44.565864 35.714121 Z M 53.605812 41.256257 C 54.012878 41.260064 54.39985 41.110945 54.771158 40.81967 C 55.142848 40.523202 55.419281 40.17273 55.605653 39.768638 L 56.521167 37.757419 C 56.568066 37.687753 56.617488 37.654828 56.675007 37.653834 C 56.742915 37.653602 56.802193 37.699738 56.837639 37.785902 C 56.883473 37.872829 56.918156 37.969381 56.952457 38.071127 C 57.26674 38.982032 57.508141 39.605571 57.681855 39.942127 C 58.121334 40.783897 58.685617 41.206606 59.38028 41.205439 C 59.944321 41.205117 60.425473 40.911471 60.818543 40.32412 C 61.013626 40.014671 61.633525 38.117507 62.672284 34.642634 C 63.630766 31.407314 64.162975 29.566373 64.268147 29.1302 L 64.304115 28.782944 C 64.305932 28.26084 64.096009 27.848509 63.685496 27.536328 C 63.274983 27.224147 62.853017 27.067796 62.414404 27.066892 C 61.902688 27.065838 61.475538 27.264228 61.12776 27.661679 C 60.785177 28.059513 60.480943 28.575057 60.231406 29.199069 C 59.976674 29.8227 59.735234 30.478642 59.507851 31.156506 C 59.28528 31.839946 59.050562 32.475493 58.808891 33.063527 C 58.796975 33.08354 58.780247 33.097978 58.754275 33.096069 C 58.722728 33.098973 58.692707 33.081099 58.674221 33.048406 C 58.60371 32.870885 58.48622 32.62202 58.326943 32.302192 C 57.871881 31.459276 57.396283 31.037864 56.884567 31.03681 C 56.586964 31.035826 56.295399 31.165845 56.020261 31.427631 C 55.740311 31.683841 55.5052 31.969459 55.310499 32.273714 C 55.110222 32.582782 54.966851 32.828141 54.87481 33.014604 L 54.804612 33.046001 C 54.773446 33.04371 54.743807 33.020642 54.731278 32.977942 C 54.713937 32.929666 54.497663 32.177414 54.092845 30.72195 C 53.553115 28.828334 52.895313 27.688508 52.119057 27.307666 C 51.797311 27.137792 51.490233 27.052553 51.197823 27.051951 C 49.814074 27.049471 49.124928 27.615061 49.119997 28.747955 C 49.120459 28.883771 49.161562 29.106132 49.233299 29.409081 C 49.310611 29.707217 49.516115 30.463899 49.850191 31.673935 C 50.255772 33.11901 50.976943 35.741428 52.018517 39.546765 C 52.176427 40.16939 52.400025 40.608837 52.688928 40.870301 C 52.978213 41.12657 53.287049 41.25894 53.605812 41.256257 Z M 75.200245 41.328941 C 76.260419 41.328528 77.174228 41.045792 77.926851 40.469201 C 78.689481 39.898568 79.269083 39.189145 79.68086 38.347273 C 80.087443 37.505018 80.295495 36.663839 80.293866 35.833361 C 80.377627 34.622702 80.414719 33.549617 80.415531 32.61487 C 80.415128 31.909819 80.403804 31.282301 80.381177 30.73751 L 80.365713 29.597894 C 80.364627 29.044241 80.231623 28.580118 79.971515 28.211101 C 79.711406 27.842083 79.407683 27.569086 79.055534 27.386531 C 78.703003 27.209172 78.385918 27.117975 78.093509 27.117373 C 77.550245 27.119222 77.067716 27.360543 76.64554 27.846529 C 76.223364 28.332516 75.999567 28.890529 75.963379 29.525 C 75.924459 30.765066 75.911661 31.933939 75.909402 33.030474 C 75.908138 34.184527 75.887613 34.961154 75.837439 35.35959 C 75.792459 35.758407 75.636941 35.955872 75.370504 35.957179 C 75.120031 35.954436 74.960835 35.775619 74.89368 35.410339 C 74.831719 35.04544 74.801839 34.599342 74.804038 34.072043 L 74.800871 32.907218 L 74.786332 32.039234 L 74.802415 30.896714 C 74.803539 30.170886 74.735078 29.539168 74.596267 29.01195 C 74.533854 28.866358 74.448143 28.682497 74.334319 28.454791 C 73.881166 27.585903 73.281287 27.150134 72.529105 27.152295 C 71.500478 27.149805 70.806057 27.574003 70.435835 28.41893 C 70.134968 29.101838 69.980858 30.416996 69.983514 32.370363 C 69.983927 33.430537 70.022841 34.53532 70.105832 35.679899 C 70.141751 36.257001 70.258489 36.871378 70.460857 37.528605 C 70.66399 38.175443 70.963674 38.787599 71.35991 39.365072 C 71.761722 39.937733 72.270244 40.408567 72.90144 40.773525 C 73.532255 41.143677 74.301859 41.330802 75.200245 41.328941 Z M 82.99866 41.238877 C 83.57309 41.239318 84.085639 41.015871 84.537072 40.558147 C 84.988124 40.105617 85.258288 39.556234 85.351996 38.920769 C 85.44715 38.123516 85.494953 37.615236 85.49021 37.395547 C 85.491657 37.233759 85.503341 37.145838 85.52007 37.1314 C 85.532367 37.106192 85.652982 37.09939 85.872289 37.099842 C 87.052233 36.962004 88.00622 36.629998 88.743873 36.114975 C 89.476714 35.594377 90.009035 34.959814 90.34565 34.216865 C 90.682647 33.468721 90.847849 32.713173 90.846069 31.955797 C 90.847715 30.796549 90.50952 29.784662 89.826289 28.919753 C 89.326549 28.32945 88.861721 27.903607 88.422183 27.631071 C 87.982644 27.358536 87.457174 27.189354 86.840576 27.123145 C 86.229555 27.052124 85.380972 27.015865 84.294826 27.01437 L 82.790462 27.018693 C 82.409368 27.016795 82.009716 27.196316 81.602279 27.552826 C 81.189648 27.908954 80.95714 28.372324 80.899943 28.93736 C 80.863292 29.436015 80.844676 30.18667 80.848908 31.194901 L 80.84881 33.043617 C 80.857784 34.271537 80.864258 36.17296 80.863036 38.747505 L 80.863499 38.883321 C 80.866434 39.980237 81.359916 40.726752 82.359527 41.12401 C 82.573107 41.202377 82.789742 41.239189 82.99866 41.238877 Z M 85.68373 33.341534 C 85.662952 33.340007 85.618112 33.310599 85.559598 33.254075 L 85.524383 33.235819 C 85.515522 33.214279 85.509333 33.156377 85.51101 33.062498 L 85.52411 31.74742 C 85.538617 31.550036 85.593002 31.449585 85.69727 31.452027 C 85.83828 31.451946 85.982044 31.556516 86.133372 31.771311 C 86.284701 31.986107 86.359643 32.174398 86.358196 32.336186 C 86.36118 32.508744 86.318179 32.667477 86.228429 32.822774 C 86.139061 32.972877 86.041213 33.096245 85.934885 33.192878 C 85.822982 33.294323 85.741249 33.340539 85.68373 33.341534 Z M 92.651853 36.945337 C 93.111244 36.947768 93.545728 36.791696 93.950111 36.476741 C 94.3493 36.161404 94.634364 35.764565 94.800491 35.280649 C 94.915519 34.923537 94.984562 34.5526 95.012432 34.173414 C 95.040683 33.789034 95.066714 33.221708 95.09167 32.455852 L 95.124713 31.366802 L 95.10913 31.365657 L 95.106044 30.341843 C 95.106635 29.694311 95.064909 29.054113 94.986059 28.421632 C 94.90759 27.783956 94.711642 27.252538 94.403026 26.832954 C 94.099605 26.413752 93.608736 26.200112 92.924462 26.202042 L 92.783452 26.202123 C 91.61924 26.268003 90.948662 27.007296 90.777292 28.415189 C 90.705888 29.031404 90.648621 29.810553 90.599915 30.757446 C 90.543121 32.027534 90.519241 32.991919 90.517886 33.64984 C 90.516148 34.312955 90.561462 34.833301 90.643436 35.210115 C 90.730223 35.592506 90.908749 35.934637 91.179015 36.23651 C 91.593276 36.710861 92.082618 36.945278 92.651853 36.945337 Z M 92.783118 43.117397 C 93.143435 43.117768 93.489465 43.028308 93.825639 42.859789 C 94.161431 42.696464 94.440618 42.450642 94.657623 42.127137 C 94.912667 41.712425 95.039379 41.267391 95.037761 40.792035 C 95.042332 40.37458 94.930337 39.979892 94.707352 39.603159 C 94.489562 39.226807 94.149479 38.951137 93.687867 38.765759 C 93.328233 38.613989 92.978837 38.536085 92.634102 38.536859 C 92.362471 38.537784 92.096646 38.601804 91.831434 38.728538 C 91.406425 38.968864 91.085533 39.284734 90.864328 39.665376 C 90.643122 40.046019 90.535429 40.445449 90.536434 40.858092 C 90.532708 41.406168 90.724989 41.916427 91.102889 42.388105 C 91.599877 42.873758 92.161939 43.11352 92.783118 43.117397 Z M 92.783118 43.117397 " stroke="#233d4d" stroke-width="0.866665" stroke-opacity="1" stroke-miterlimit="4"/></svg>