<svg xmlns="http://www.w3.org/2000/svg" xmlns:xlink="http://www.w3.org/1999/xlink" width="128" zoomAndPan="magnify" viewBox="0 0 96 95.999999" height="128" preserveAspectRatio="xMidYMid meet" version="1.0"><defs><g/></defs><g fill="#ffffff" fill-opacity="1"><g transform="translate(26.89721, 49.567639)"><g><path d="M 2.3125 0.0625 C 2.882812 0.0195312 3.328125 -0.1875 3.640625 -0.5625 C 3.960938 -0.945312 4.113281 -1.46875 4.09375 -2.125 L 4.046875 -3.59375 C 4.035156 -3.65625 4.054688 -3.691406 4.109375 -3.703125 L 4.1875 -3.6875 C 4.28125 -3.613281 4.394531 -3.519531 4.53125 -3.40625 C 4.707031 -3.25 4.910156 -3.085938 5.140625 -2.921875 C 5.367188 -2.753906 5.609375 -2.675781 5.859375 -2.6875 C 6.054688 -2.726562 6.253906 -2.832031 6.453125 -3 C 6.660156 -3.175781 6.851562 -3.351562 7.03125 -3.53125 C 7.207031 -3.71875 7.367188 -3.867188 7.515625 -3.984375 L 7.59375 -4.03125 C 7.695312 -4.039062 7.757812 -4 7.78125 -3.90625 L 7.78125 -3.671875 C 7.769531 -3.554688 7.769531 -3.425781 7.78125 -3.28125 C 7.875 -2.5625 7.96875 -2.039062 8.0625 -1.71875 C 8.164062 -1.394531 8.332031 -1.128906 8.5625 -0.921875 C 8.925781 -0.628906 9.335938 -0.5 9.796875 -0.53125 C 10.117188 -0.550781 10.40625 -0.660156 10.65625 -0.859375 C 10.914062 -1.054688 11.082031 -1.347656 11.15625 -1.734375 L 11.15625 -1.796875 C 11.175781 -1.847656 11.1875 -1.9375 11.1875 -2.0625 C 11.257812 -2.726562 11.15625 -5.117188 10.875 -9.234375 C 10.820312 -9.804688 10.765625 -10.253906 10.703125 -10.578125 C 10.640625 -10.910156 10.523438 -11.21875 10.359375 -11.5 C 10.054688 -11.945312 9.648438 -12.148438 9.140625 -12.109375 C 8.878906 -12.085938 8.617188 -11.992188 8.359375 -11.828125 C 8.097656 -11.671875 7.875 -11.429688 7.6875 -11.109375 C 6.925781 -9.867188 6.398438 -9.007812 6.109375 -8.53125 C 5.816406 -8 5.640625 -7.707031 5.578125 -7.65625 C 5.515625 -7.613281 5.472656 -7.59375 5.453125 -7.59375 C 5.429688 -7.59375 5.40625 -7.601562 5.375 -7.625 C 5.34375 -7.65625 5.3125 -7.691406 5.28125 -7.734375 L 2.640625 -10.953125 C 2.429688 -11.203125 2.207031 -11.375 1.96875 -11.46875 C 1.726562 -11.570312 1.488281 -11.613281 1.25 -11.59375 C 0.875 -11.5625 0.566406 -11.398438 0.328125 -11.109375 C 0.160156 -10.929688 0.0390625 -10.664062 -0.03125 -10.3125 C -0.113281 -9.96875 -0.128906 -9.390625 -0.078125 -8.578125 C 0.160156 -5.242188 0.300781 -3.253906 0.34375 -2.609375 L 0.390625 -1.890625 C 0.410156 -1.660156 0.425781 -1.523438 0.4375 -1.484375 C 0.582031 -0.941406 0.847656 -0.539062 1.234375 -0.28125 C 1.628906 -0.03125 1.988281 0.0820312 2.3125 0.0625 Z M 2.3125 0.0625 "/></g></g></g><g fill="#ffffff" fill-opacity="1"><g transform="translate(38.386197, 48.723207)"><g><path d="M 3.0625 0.09375 C 3.46875 0.0625 3.945312 0.015625 4.5 -0.046875 C 4.894531 -0.0859375 5.332031 -0.128906 5.8125 -0.171875 C 6.300781 -0.210938 6.710938 -0.390625 7.046875 -0.703125 C 7.378906 -1.015625 7.523438 -1.429688 7.484375 -1.953125 C 7.453125 -2.472656 7.285156 -2.894531 6.984375 -3.21875 C 6.691406 -3.550781 6.332031 -3.726562 5.90625 -3.75 C 5.039062 -3.6875 4.363281 -3.640625 3.875 -3.609375 C 3.800781 -3.617188 3.757812 -3.648438 3.75 -3.703125 C 3.738281 -3.765625 3.726562 -3.84375 3.71875 -3.9375 C 3.707031 -4.03125 3.707031 -4.09375 3.71875 -4.125 C 3.738281 -4.164062 3.789062 -4.191406 3.875 -4.203125 C 3.96875 -4.222656 4.109375 -4.25 4.296875 -4.28125 L 4.953125 -4.359375 C 5.078125 -4.367188 5.25 -4.378906 5.46875 -4.390625 C 5.6875 -4.410156 5.910156 -4.457031 6.140625 -4.53125 C 6.640625 -4.726562 6.851562 -5.285156 6.78125 -6.203125 C 6.757812 -6.597656 6.664062 -6.882812 6.5 -7.0625 C 6.21875 -7.351562 5.789062 -7.476562 5.21875 -7.4375 C 4.59375 -7.394531 4.175781 -7.367188 3.96875 -7.359375 C 3.769531 -7.359375 3.648438 -7.378906 3.609375 -7.421875 C 3.566406 -7.460938 3.546875 -7.53125 3.546875 -7.625 L 3.53125 -7.6875 L 3.5 -7.921875 C 3.5 -7.984375 3.539062 -8.03125 3.625 -8.0625 C 3.820312 -8.070312 4.097656 -8.109375 4.453125 -8.171875 C 4.929688 -8.234375 5.359375 -8.28125 5.734375 -8.3125 C 6.160156 -8.34375 6.472656 -8.472656 6.671875 -8.703125 C 6.960938 -9.054688 7.085938 -9.503906 7.046875 -10.046875 C 7.015625 -10.546875 6.878906 -10.929688 6.640625 -11.203125 C 6.179688 -11.679688 5.5 -11.890625 4.59375 -11.828125 L 1.1875 -11.578125 C 0.289062 -11.453125 -0.179688 -11.039062 -0.234375 -10.34375 C -0.234375 -10.1875 -0.207031 -9.707031 -0.15625 -8.90625 C -0.125 -8.476562 -0.0859375 -8.035156 -0.046875 -7.578125 C -0.00390625 -7.117188 0.0234375 -6.734375 0.046875 -6.421875 C 0.078125 -6.109375 0.0976562 -5.957031 0.109375 -5.96875 L 0.3125 -3.0625 C 0.382812 -2.09375 0.488281 -1.375 0.625 -0.90625 C 0.757812 -0.4375 1.007812 -0.140625 1.375 -0.015625 C 1.75 0.109375 2.3125 0.144531 3.0625 0.09375 Z M 3.0625 0.09375 "/></g></g></g><g fill="#ffffff" fill-opacity="1"><g transform="translate(45.705107, 48.185272)"><g><path d="M 4.25 -0.015625 C 3.46875 0.046875 2.742188 -0.160156 2.078125 -0.640625 C 1.410156 -1.117188 0.851562 -1.785156 0.40625 -2.640625 C -0.0390625 -3.492188 -0.304688 -4.460938 -0.390625 -5.546875 C -0.472656 -6.617188 -0.351562 -7.609375 -0.03125 -8.515625 C 0.289062 -9.429688 0.742188 -10.175781 1.328125 -10.75 C 1.921875 -11.320312 2.609375 -11.640625 3.390625 -11.703125 C 4.171875 -11.753906 4.898438 -11.539062 5.578125 -11.0625 C 6.265625 -10.582031 6.828125 -9.914062 7.265625 -9.0625 C 7.703125 -8.207031 7.960938 -7.242188 8.046875 -6.171875 C 8.128906 -5.085938 8.015625 -4.085938 7.703125 -3.171875 C 7.390625 -2.265625 6.929688 -1.523438 6.328125 -0.953125 C 5.722656 -0.378906 5.03125 -0.0664062 4.25 -0.015625 Z M 3.953125 -4.640625 C 4.097656 -4.648438 4.207031 -4.765625 4.28125 -4.984375 C 4.363281 -5.210938 4.390625 -5.488281 4.359375 -5.8125 C 4.335938 -6.125 4.269531 -6.390625 4.15625 -6.609375 C 4.050781 -6.835938 3.925781 -6.945312 3.78125 -6.9375 C 3.644531 -6.925781 3.535156 -6.800781 3.453125 -6.5625 C 3.367188 -6.332031 3.335938 -6.0625 3.359375 -5.75 C 3.390625 -5.425781 3.460938 -5.15625 3.578125 -4.9375 C 3.691406 -4.726562 3.816406 -4.628906 3.953125 -4.640625 Z M 3.953125 -4.640625 "/></g></g></g><g fill="#ffffff" fill-opacity="1"><g transform="translate(53.76158, 47.593127)"><g><path d="M 3.625 -0.046875 C 3.957031 -0.0664062 4.265625 -0.210938 4.546875 -0.484375 C 4.835938 -0.753906 5.046875 -1.0625 5.171875 -1.40625 L 5.8125 -3.09375 C 5.84375 -3.164062 5.878906 -3.203125 5.921875 -3.203125 C 5.984375 -3.203125 6.03125 -3.164062 6.0625 -3.09375 C 6.101562 -3.03125 6.144531 -2.957031 6.1875 -2.875 C 6.488281 -2.144531 6.722656 -1.648438 6.890625 -1.390625 C 7.296875 -0.710938 7.785156 -0.394531 8.359375 -0.4375 C 8.816406 -0.476562 9.1875 -0.75 9.46875 -1.25 C 9.613281 -1.519531 10.007812 -3.109375 10.65625 -6.015625 C 11.25 -8.710938 11.570312 -10.242188 11.625 -10.609375 L 11.640625 -10.90625 C 11.609375 -11.332031 11.410156 -11.660156 11.046875 -11.890625 C 10.691406 -12.117188 10.332031 -12.222656 9.96875 -12.203125 C 9.550781 -12.171875 9.210938 -11.976562 8.953125 -11.625 C 8.703125 -11.28125 8.488281 -10.84375 8.3125 -10.3125 C 8.144531 -9.789062 7.988281 -9.242188 7.84375 -8.671875 C 7.707031 -8.097656 7.554688 -7.566406 7.390625 -7.078125 C 7.390625 -7.054688 7.378906 -7.046875 7.359375 -7.046875 C 7.335938 -7.046875 7.3125 -7.054688 7.28125 -7.078125 C 7.207031 -7.210938 7.101562 -7.410156 6.96875 -7.671875 C 6.539062 -8.335938 6.117188 -8.65625 5.703125 -8.625 C 5.453125 -8.601562 5.222656 -8.476562 5.015625 -8.25 C 4.804688 -8.019531 4.628906 -7.769531 4.484375 -7.5 C 4.335938 -7.238281 4.226562 -7.035156 4.15625 -6.890625 L 4.109375 -6.859375 C 4.078125 -6.847656 4.050781 -6.859375 4.03125 -6.890625 C 4.019531 -6.929688 3.804688 -7.539062 3.390625 -8.71875 C 2.835938 -10.226562 2.234375 -11.113281 1.578125 -11.375 C 1.296875 -11.5 1.039062 -11.554688 0.8125 -11.546875 C -0.332031 -11.460938 -0.867188 -10.953125 -0.796875 -10.015625 C -0.785156 -9.898438 -0.738281 -9.722656 -0.65625 -9.484375 C -0.582031 -9.242188 -0.367188 -8.644531 -0.015625 -7.6875 C 0.390625 -6.519531 1.132812 -4.410156 2.21875 -1.359375 C 2.394531 -0.859375 2.609375 -0.507812 2.859375 -0.3125 C 3.109375 -0.113281 3.363281 -0.0234375 3.625 -0.046875 Z M 3.625 -0.046875 "/></g></g></g><g fill="#ffffff" fill-opacity="1"><g transform="translate(65.491694, 46.730972)"><g><path d="M 1.78125 -3.46875 C 2.164062 -3.488281 2.507812 -3.640625 2.8125 -3.921875 C 3.125 -4.203125 3.332031 -4.546875 3.4375 -4.953125 C 3.507812 -5.253906 3.546875 -5.5625 3.546875 -5.875 C 3.546875 -6.195312 3.53125 -6.671875 3.5 -7.296875 L 3.46875 -8.1875 L 3.453125 -8.1875 L 3.390625 -9.015625 C 3.347656 -9.546875 3.273438 -10.066406 3.171875 -10.578125 C 3.078125 -11.097656 2.890625 -11.519531 2.609375 -11.84375 C 2.328125 -12.175781 1.914062 -12.320312 1.375 -12.28125 L 1.25 -12.265625 C 0.300781 -12.140625 -0.195312 -11.492188 -0.25 -10.328125 C -0.28125 -9.816406 -0.28125 -9.179688 -0.25 -8.421875 C -0.226562 -7.367188 -0.195312 -6.570312 -0.15625 -6.03125 C -0.113281 -5.488281 -0.046875 -5.0625 0.046875 -4.75 C 0.140625 -4.445312 0.304688 -4.179688 0.546875 -3.953125 C 0.910156 -3.585938 1.320312 -3.425781 1.78125 -3.46875 Z M 2.265625 1.578125 C 2.566406 1.554688 2.84375 1.46875 3.09375 1.3125 C 3.351562 1.15625 3.566406 0.9375 3.734375 0.65625 C 3.921875 0.289062 4 -0.0820312 3.96875 -0.46875 C 3.945312 -0.8125 3.832031 -1.128906 3.625 -1.421875 C 3.414062 -1.710938 3.125 -1.921875 2.75 -2.046875 C 2.457031 -2.148438 2.164062 -2.1875 1.875 -2.15625 C 1.65625 -2.144531 1.4375 -2.078125 1.21875 -1.953125 C 0.894531 -1.734375 0.648438 -1.457031 0.484375 -1.125 C 0.328125 -0.800781 0.257812 -0.46875 0.28125 -0.125 C 0.320312 0.3125 0.507812 0.710938 0.84375 1.078125 C 1.28125 1.453125 1.753906 1.617188 2.265625 1.578125 Z M 2.265625 1.578125 "/></g></g></g><path stroke-linecap="butt" transform="matrix(0.221624, -0.0162892, 0.0162892, 0.221624, 4.329042, 36.297334)" fill="none" stroke-linejoin="miter" d="M 107.195815 68.085597 C 109.857145 68.087322 111.942771 67.288834 113.505285 65.694001 C 115.069087 64.081636 115.905341 61.816529 116.050398 58.883725 L 116.227052 52.163752 C 116.228848 51.899501 116.361872 51.768274 116.626123 51.77007 L 116.939101 51.828325 C 117.321695 52.138454 117.782922 52.577741 118.339027 53.165007 C 119.107571 53.979392 119.9813 54.801509 120.977744 55.632645 C 121.955369 56.480024 123.000269 56.891709 124.111154 56.88523 C 124.998004 56.809409 125.925578 56.419321 126.895164 55.697435 C 127.845931 54.991792 128.746682 54.247222 129.617526 53.429951 C 130.469551 52.628923 131.239855 51.980518 131.925863 51.519798 L 132.305607 51.389079 C 132.763986 51.387519 133.047836 51.602263 133.122097 52.030734 L 133.064895 53.048811 C 132.97107 53.605932 132.943503 54.2208 132.945844 54.908368 C 133.095726 58.144858 133.345095 60.507384 133.677709 61.977125 C 133.992791 63.445578 134.625226 64.672973 135.557482 65.658021 C 137.196397 67.100396 139.028387 67.834314 141.05603 67.824715 C 142.51882 67.826476 143.85218 67.430961 145.054822 66.655703 C 146.276282 65.864203 147.107927 64.621038 147.533513 62.90739 L 147.587902 62.647004 C 147.677353 62.389195 147.759581 61.989852 147.835875 61.431442 C 148.369187 58.491923 148.666889 47.726973 148.743933 29.17294 C 148.744369 26.529141 148.649692 24.459994 148.459903 22.965499 C 148.270113 21.471004 147.844691 20.064944 147.201168 18.748606 C 146.011848 16.704757 144.271886 15.677968 141.96375 15.666952 C 140.817803 15.670853 139.631132 15.989021 138.405026 16.603925 C 137.19645 17.220117 136.082243 18.231007 135.044875 19.635307 C 131.25039 24.978963 128.634029 28.681907 127.175684 30.777912 C 125.634331 33.044072 124.733851 34.264551 124.454138 34.473125 C 124.175714 34.664167 124.010205 34.757756 123.922551 34.751313 C 123.834897 34.744871 123.716046 34.683259 123.566 34.566477 C 123.417242 34.432165 123.271061 34.262791 123.146276 34.042113 L 112.394797 18.693189 C 111.528019 17.536698 110.585455 16.691896 109.514513 16.154919 C 108.461103 15.619229 107.387076 15.364034 106.312541 15.355558 C 104.638092 15.355866 103.217858 15.974127 102.034308 17.209053 C 101.254984 17.980174 100.64144 19.133615 100.176147 20.66809 C 99.710853 22.202564 99.429923 24.825747 99.350888 28.538928 C 99.339994 43.555088 99.316544 52.50714 99.277961 55.430144 L 99.273931 58.602445 C 99.285563 59.643207 99.3093 60.279471 99.343854 60.528768 C 99.817258 62.960637 100.877928 64.836401 102.562212 66.141106 C 104.246497 67.445811 105.803148 68.08899 107.195815 68.085597 Z M 162.515808 68.414963 C 164.349323 68.408721 166.502259 68.373079 168.958373 68.289219 C 170.759403 68.245338 172.735742 68.214342 174.923739 68.181277 C 177.092917 68.164455 178.974107 67.509572 180.568597 66.199097 C 182.179329 64.907441 182.983371 63.080605 182.979434 60.736119 C 182.976785 58.374101 182.363406 56.407834 181.156828 54.838606 C 179.950249 53.269378 178.396683 52.344417 176.528615 52.101362 C 172.633684 52.097096 169.586675 52.067024 167.36877 52.027388 C 167.072035 51.987953 166.889503 51.833533 166.819888 51.581658 C 166.769093 51.313542 166.723451 50.975302 166.736844 50.553273 C 166.733995 50.112425 166.77343 49.815689 166.85515 49.663066 C 166.938159 49.492912 167.175079 49.386946 167.565912 49.34517 C 167.940502 49.284574 168.578054 49.243306 169.479858 49.203835 L 172.431989 49.085929 C 172.979311 49.073281 173.754533 49.077382 174.758945 49.080704 C 175.763357 49.084025 176.779365 48.929569 177.80697 48.617335 C 180.112765 47.940784 181.25864 45.539803 181.263415 41.398152 C 181.253307 39.617229 180.910385 38.287735 180.232073 37.44473 C 179.081444 36.073495 177.210527 35.389592 174.601789 35.391733 C 171.781393 35.395942 169.915393 35.364545 169.021321 35.298832 C 168.128537 35.215587 167.591523 35.087989 167.430388 34.882265 C 167.270542 34.65901 167.18855 34.335724 167.184412 33.912407 L 167.186209 33.648156 L 167.120696 32.621059 C 167.123781 32.339277 167.314551 32.141792 167.69043 32.063666 C 168.537064 32.055391 169.79335 31.989097 171.459288 31.864785 C 173.640063 31.690185 175.567674 31.602731 177.224593 31.601134 C 179.145762 31.601335 180.573219 31.124609 181.50954 30.135895 C 182.961715 28.603454 183.689699 26.612397 183.692204 24.180257 C 183.681824 21.923425 183.194518 20.160305 182.214044 18.872078 C 180.338953 16.566319 177.355589 15.430515 173.266531 15.429607 L 157.897176 15.428004 C 153.807609 15.673816 151.551085 17.358645 151.128892 20.46496 C 151.024759 21.162328 150.972747 23.308821 150.987808 26.94079 C 150.985031 28.897021 150.995919 30.907133 151.00423 32.952307 C 151.030072 34.998769 151.061576 36.728387 151.081211 38.139874 C 151.100847 39.55136 151.138249 40.241506 151.190842 40.245371 L 151.112602 53.300147 C 151.12485 57.689807 151.359809 60.967801 151.818768 63.1166 C 152.293969 65.284217 153.335547 66.700314 154.942214 67.38242 C 156.566411 68.065814 159.096786 68.410425 162.515808 68.414963 Z M 200.909286 68.346269 C 197.402611 68.335288 194.210166 67.166492 191.334528 64.804818 C 188.460179 62.425614 186.156073 59.242296 184.422209 55.254865 C 182.688345 51.267433 181.833328 46.833456 181.838339 41.969175 C 181.839484 37.157486 182.692689 32.743309 184.433016 28.729219 C 186.154524 24.731372 188.451737 21.533737 191.339607 19.172665 C 194.211236 16.792773 197.417274 15.618371 200.907707 15.610532 C 204.415672 15.603982 207.606828 16.790309 210.481177 19.169513 C 213.356814 21.531187 215.642101 24.730747 217.339615 28.733132 C 219.054659 32.736806 219.910965 37.153253 219.90982 41.964941 C 219.904809 46.829223 219.050316 51.260931 217.347627 55.242536 C 215.64365 59.241671 213.365257 62.423064 210.476098 64.801667 C 207.605758 67.164028 204.41725 68.339719 200.909286 68.346269 Z M 201.032409 47.486677 C 201.667384 47.480471 202.196903 46.990624 202.623541 45.982074 C 203.05018 44.973525 203.26438 43.737855 203.264852 42.292595 C 203.262747 40.882397 203.052341 39.668396 202.633634 38.650591 C 202.197396 37.631497 201.671199 37.116932 201.037512 37.105608 C 200.437598 37.114391 199.924322 37.623058 199.477575 38.66538 C 199.033406 39.672641 198.802964 40.889492 198.805068 42.29969 C 198.804596 43.744949 199.031244 44.97777 199.468771 45.979333 C 199.923828 46.982184 200.433783 47.477929 201.032409 47.486677 Z M 234.426615 67.954432 C 235.941998 67.960058 237.374609 67.413209 238.723159 66.331415 C 240.08924 65.25091 241.118878 63.951795 241.810784 62.451602 L 245.193748 55.033137 C 245.372142 54.76424 245.557758 54.636879 245.769417 54.63481 C 246.016137 54.635318 246.232441 54.809846 246.368314 55.119467 C 246.520429 55.447907 246.671256 55.793878 246.800687 56.191153 C 247.945961 59.553681 248.851702 61.858696 249.484136 63.08609 C 251.105829 66.201626 253.194103 67.765156 255.750248 67.75915 C 257.846726 67.772235 259.618593 66.686304 261.065849 64.501356 C 261.784578 63.355645 264.078325 56.368264 267.913319 43.519105 C 271.453409 31.564799 273.432381 24.783414 273.816463 23.154843 L 273.928055 21.87638 C 273.928255 19.955211 273.177478 18.419484 271.656905 17.285441 C 270.13891 16.116337 268.577104 15.543281 266.955248 15.547455 C 265.06914 15.549832 263.49964 16.2805 262.210397 17.754415 C 260.939973 19.212088 259.831465 21.104674 258.88616 23.414642 C 257.958386 25.7259 257.059231 28.127388 256.23871 30.658035 C 255.401948 33.169863 254.525478 35.502517 253.641785 37.693635 C 253.600281 37.778712 253.52758 37.80862 253.456168 37.820997 C 253.333453 37.811977 253.214602 37.750365 253.135968 37.621207 C 252.883041 36.985723 252.457891 36.055572 251.856653 34.883347 C 250.182368 31.763946 248.410937 30.206078 246.542361 30.209743 C 245.432764 30.198691 244.357212 30.683656 243.334525 31.648396 C 242.313127 32.595605 241.443063 33.642066 240.706804 34.786488 C 239.989364 35.914668 239.447741 36.809013 239.114419 37.507161 L 238.858679 37.629368 C 238.735963 37.620349 238.635932 37.542494 238.577405 37.379563 C 238.520167 37.199101 237.73687 34.427195 236.228802 29.046316 C 234.223121 22.042565 231.79962 17.845815 228.942058 16.43725 C 227.754843 15.803599 226.614558 15.490656 225.540023 15.482181 C 220.429021 15.476662 217.877322 17.580434 217.869971 21.757147 C 217.867666 22.268119 218.002522 23.07118 218.273252 24.183862 C 218.561512 25.297833 219.32599 28.08598 220.565397 32.565835 C 222.042268 37.891545 224.713685 47.588059 228.564693 61.619028 C 229.153591 63.918381 229.984291 65.565735 231.043128 66.507211 C 232.118207 67.467505 233.245606 67.955756 234.426615 67.954432 Z M 280.206788 52.0369 C 281.916299 52.039169 283.510553 51.451324 285.005792 50.292184 C 286.501032 49.133044 287.543554 47.658621 288.150891 45.870204 C 288.565661 44.543523 288.841473 43.189002 288.944553 41.786535 C 289.048922 40.366537 289.13342 38.257683 289.215576 35.46126 L 289.354154 31.417571 L 289.282743 31.429948 L 289.279278 27.640202 C 289.277917 25.260654 289.135022 22.888329 288.831772 20.539468 C 288.546053 18.191897 287.8262 16.23543 286.688457 14.688886 C 285.569532 13.126101 283.741407 12.33959 281.220324 12.348173 L 280.709353 12.345868 C 276.406839 12.611279 273.932757 15.33765 273.287109 20.524981 C 273.031949 22.797547 272.820634 25.672605 272.651876 29.167684 C 272.429273 33.874968 272.326773 37.427793 272.324267 39.859934 C 272.339293 42.293363 272.479339 44.224841 272.799576 45.62317 C 273.118524 47.03903 273.784732 48.286533 274.76056 49.398163 C 276.306159 51.150938 278.110311 52.023815 280.206788 52.0369 Z M 280.700911 74.810167 C 282.022166 74.81915 283.314022 74.508713 284.541417 73.876279 C 285.785054 73.262664 286.821406 72.351804 287.631654 71.159944 C 288.572857 69.625197 289.028351 67.984249 289.033197 66.239677 C 289.041401 64.689232 288.619844 63.230579 287.82241 61.850053 C 287.008732 60.450707 285.744679 59.423646 284.031539 58.75134 C 282.716455 58.178792 281.432058 57.908134 280.145864 57.901728 C 279.158983 57.899695 278.171594 58.144382 277.186274 58.600728 C 275.621419 59.507994 274.426781 60.653977 273.617313 62.075027 C 272.809134 63.478546 272.401587 64.946763 272.394672 66.479677 C 272.388029 68.4885 273.095505 70.373555 274.499568 72.133554 C 276.341903 73.925765 278.409017 74.817969 280.700911 74.810167 Z M 280.700911 74.810167 " stroke="#233d4d" stroke-width="3.2" stroke-opacity="1" stroke-miterlimit="4"/></svg>