<svg xmlns="http://www.w3.org/2000/svg" xmlns:xlink="http://www.w3.org/1999/xlink" width="128" zoomAndPan="magnify" viewBox="0 0 96 95.999999" height="128" preserveAspectRatio="xMidYMid meet" version="1.0"><defs><g/></defs><g fill="#ffffff" fill-opacity="1"><g transform="translate(14.349351, 46.479451)"><g><path d="M 4.421875 1.734375 C 5.535156 1.648438 6.226562 1.410156 6.5 1.015625 C 6.644531 0.796875 6.710938 0.578125 6.703125 0.359375 C 6.679688 0.140625 6.59375 -0.0507812 6.4375 -0.21875 C 6.289062 -0.382812 6.078125 -0.488281 5.796875 -0.53125 L 5.53125 -0.53125 C 5.320312 -0.519531 5.09375 -0.488281 4.84375 -0.4375 C 4.59375 -0.382812 4.375 -0.351562 4.1875 -0.34375 C 4.050781 -0.332031 3.941406 -0.332031 3.859375 -0.34375 C 3.316406 -0.457031 2.898438 -0.757812 2.609375 -1.25 C 2.265625 -1.863281 2.066406 -2.460938 2.015625 -3.046875 C 1.960938 -3.765625 2.09375 -4.425781 2.40625 -5.03125 C 2.726562 -5.644531 3.164062 -6.140625 3.71875 -6.515625 C 4.269531 -6.890625 4.867188 -7.097656 5.515625 -7.140625 C 6.003906 -7.179688 6.503906 -7.109375 7.015625 -6.921875 C 7.328125 -6.785156 7.5625 -6.554688 7.71875 -6.234375 C 7.882812 -5.921875 7.976562 -5.582031 8 -5.21875 C 8.039062 -4.65625 7.941406 -4.144531 7.703125 -3.6875 C 7.648438 -3.582031 7.597656 -3.523438 7.546875 -3.515625 C 7.484375 -3.515625 7.441406 -3.601562 7.421875 -3.78125 C 7.398438 -3.957031 7.378906 -4.144531 7.359375 -4.34375 L 7.34375 -4.546875 L 7.34375 -4.625 C 7.34375 -4.6875 7.34375 -4.757812 7.34375 -4.84375 C 7.34375 -4.925781 7.34375 -5.007812 7.34375 -5.09375 L 7.3125 -5.3125 C 7.257812 -5.59375 7.132812 -5.800781 6.9375 -5.9375 C 6.75 -6.082031 6.539062 -6.148438 6.3125 -6.140625 C 6.007812 -6.117188 5.757812 -5.957031 5.5625 -5.65625 C 5.539062 -5.613281 5.515625 -5.59375 5.484375 -5.59375 C 5.441406 -5.582031 5.390625 -5.597656 5.328125 -5.640625 C 5.273438 -5.679688 5.195312 -5.710938 5.09375 -5.734375 C 5 -5.765625 4.875 -5.773438 4.71875 -5.765625 L 4.65625 -5.765625 C 3.945312 -5.660156 3.421875 -5.328125 3.078125 -4.765625 C 2.734375 -4.203125 2.585938 -3.617188 2.640625 -3.015625 C 2.671875 -2.585938 2.789062 -2.191406 3 -1.828125 C 3.21875 -1.472656 3.539062 -1.21875 3.96875 -1.0625 C 4.25 -0.96875 4.492188 -0.925781 4.703125 -0.9375 C 5.035156 -0.96875 5.304688 -1.078125 5.515625 -1.265625 C 5.734375 -1.453125 5.914062 -1.648438 6.0625 -1.859375 C 6.113281 -1.910156 6.148438 -1.941406 6.171875 -1.953125 C 6.191406 -1.953125 6.210938 -1.9375 6.234375 -1.90625 C 6.703125 -1.5625 7.175781 -1.40625 7.65625 -1.4375 C 8.039062 -1.46875 8.394531 -1.597656 8.71875 -1.828125 C 9.039062 -2.054688 9.304688 -2.363281 9.515625 -2.75 C 10.054688 -3.738281 10.289062 -4.726562 10.21875 -5.71875 C 10.175781 -6.257812 10.03125 -6.769531 9.78125 -7.25 C 9.289062 -7.96875 8.660156 -8.492188 7.890625 -8.828125 C 7.128906 -9.160156 6.316406 -9.296875 5.453125 -9.234375 C 4.523438 -9.160156 3.628906 -8.859375 2.765625 -8.328125 C 1.910156 -7.796875 1.222656 -7.015625 0.703125 -5.984375 C 0.171875 -4.890625 -0.0546875 -3.796875 0.015625 -2.703125 C 0.0859375 -1.785156 0.34375 -0.972656 0.78125 -0.265625 C 1.226562 0.441406 1.773438 0.957031 2.421875 1.28125 C 2.722656 1.445312 3.023438 1.570312 3.328125 1.65625 C 3.628906 1.738281 3.992188 1.765625 4.421875 1.734375 Z M 4.78125 -3 C 4.75 -3 4.710938 -3.019531 4.671875 -3.0625 C 4.628906 -3.101562 4.609375 -3.15625 4.609375 -3.21875 L 4.59375 -3.28125 L 4.5625 -3.265625 L 4.75 -3.875 C 4.789062 -3.96875 4.832031 -4.015625 4.875 -4.015625 C 4.96875 -4.003906 5.03125 -3.953125 5.0625 -3.859375 L 5.0625 -3.75 C 5.070312 -3.601562 5.050781 -3.441406 5 -3.265625 C 4.945312 -3.097656 4.875 -3.007812 4.78125 -3 Z M 4.78125 -3 "/></g></g></g><g fill="#ffffff" fill-opacity="1"><g transform="translate(24.603195, 45.7258)"><g/></g></g><g fill="#ffffff" fill-opacity="1"><g transform="translate(28.310677, 45.453303)"><g><path d="M 3.328125 -0.265625 C 3.765625 -0.296875 4.132812 -0.359375 4.4375 -0.453125 C 5.082031 -0.679688 5.546875 -1.050781 5.828125 -1.5625 C 6.117188 -2.070312 6.242188 -2.609375 6.203125 -3.171875 C 6.171875 -3.585938 6.050781 -3.988281 5.84375 -4.375 C 5.644531 -4.769531 5.351562 -5.09375 4.96875 -5.34375 C 4.90625 -5.382812 4.859375 -5.414062 4.828125 -5.4375 C 4.796875 -5.457031 4.78125 -5.484375 4.78125 -5.515625 C 4.769531 -5.566406 4.785156 -5.640625 4.828125 -5.734375 C 4.953125 -6.078125 5 -6.410156 4.96875 -6.734375 C 4.9375 -7.234375 4.75 -7.664062 4.40625 -8.03125 C 4.070312 -8.40625 3.625 -8.648438 3.0625 -8.765625 C 2.78125 -8.816406 2.507812 -8.832031 2.25 -8.8125 C 2.070312 -8.800781 1.890625 -8.78125 1.703125 -8.75 C 1.515625 -8.726562 1.320312 -8.707031 1.125 -8.6875 C 0.769531 -8.644531 0.46875 -8.53125 0.21875 -8.34375 C -0.0195312 -8.15625 -0.15625 -7.882812 -0.1875 -7.53125 C -0.207031 -7.34375 -0.160156 -6.46875 -0.046875 -4.90625 L -0.015625 -4.203125 L 0.21875 -1.21875 C 0.25 -0.8125 0.378906 -0.519531 0.609375 -0.34375 C 0.835938 -0.175781 1.078125 -0.101562 1.328125 -0.125 Z M 2.890625 -2.515625 C 2.847656 -2.515625 2.828125 -2.535156 2.828125 -2.578125 L 2.734375 -3.515625 C 2.734375 -3.609375 2.734375 -3.679688 2.734375 -3.734375 C 2.742188 -3.785156 2.769531 -3.816406 2.8125 -3.828125 C 2.945312 -3.816406 3.0625 -3.753906 3.15625 -3.640625 C 3.25 -3.535156 3.300781 -3.394531 3.3125 -3.21875 C 3.320312 -3.09375 3.296875 -2.96875 3.234375 -2.84375 C 3.179688 -2.71875 3.078125 -2.617188 2.921875 -2.546875 Z M 2.609375 -5.734375 L 2.546875 -6.703125 C 2.773438 -6.722656 2.898438 -6.570312 2.921875 -6.25 C 2.929688 -6.132812 2.914062 -6.019531 2.875 -5.90625 C 2.832031 -5.800781 2.742188 -5.742188 2.609375 -5.734375 Z M 2.609375 -5.734375 "/></g></g></g><g fill="#ffffff" fill-opacity="1"><g transform="translate(34.337987, 45.0103)"><g><path d="M 3.234375 -0.0625 C 3.734375 -0.101562 4.203125 -0.257812 4.640625 -0.53125 C 5.085938 -0.800781 5.445312 -1.179688 5.71875 -1.671875 C 6 -2.160156 6.125 -2.617188 6.09375 -3.046875 C 6.050781 -3.523438 5.804688 -3.851562 5.359375 -4.03125 C 5.140625 -4.101562 4.957031 -4.132812 4.8125 -4.125 C 4.59375 -4.101562 4.414062 -4.023438 4.28125 -3.890625 C 4.15625 -3.765625 4.046875 -3.632812 3.953125 -3.5 C 3.890625 -3.394531 3.828125 -3.304688 3.765625 -3.234375 C 3.703125 -3.171875 3.628906 -3.132812 3.546875 -3.125 C 3.441406 -3.113281 3.300781 -3.144531 3.125 -3.21875 C 2.945312 -3.289062 2.789062 -3.414062 2.65625 -3.59375 C 2.53125 -3.769531 2.457031 -4.015625 2.4375 -4.328125 C 2.414062 -4.492188 2.429688 -4.675781 2.484375 -4.875 C 2.535156 -5.070312 2.613281 -5.242188 2.71875 -5.390625 C 2.820312 -5.546875 2.945312 -5.628906 3.09375 -5.640625 C 3.1875 -5.648438 3.28125 -5.628906 3.375 -5.578125 C 3.582031 -5.472656 3.789062 -5.429688 4 -5.453125 C 4.15625 -5.460938 4.34375 -5.507812 4.5625 -5.59375 C 4.820312 -5.707031 5.003906 -5.867188 5.109375 -6.078125 C 5.222656 -6.296875 5.269531 -6.53125 5.25 -6.78125 C 5.226562 -7.0625 5.128906 -7.328125 4.953125 -7.578125 C 4.628906 -8.003906 4.253906 -8.3125 3.828125 -8.5 C 3.410156 -8.6875 2.988281 -8.765625 2.5625 -8.734375 C 2.101562 -8.703125 1.664062 -8.546875 1.25 -8.265625 C 0.832031 -7.984375 0.492188 -7.582031 0.234375 -7.0625 C -0.234375 -6.113281 -0.425781 -5.097656 -0.34375 -4.015625 C -0.28125 -3.234375 -0.0703125 -2.484375 0.28125 -1.765625 C 0.59375 -1.148438 1.019531 -0.703125 1.5625 -0.421875 C 2.113281 -0.140625 2.671875 -0.0195312 3.234375 -0.0625 Z M 3.234375 -0.0625 "/></g></g></g><g fill="#ffffff" fill-opacity="1"><g transform="translate(40.206403, 44.578975)"><g/></g></g><g fill="#ffffff" fill-opacity="1"><g transform="translate(43.913885, 44.306478)"><g><path d="M 1.6875 0.03125 C 2.039062 0.0078125 2.34375 -0.148438 2.59375 -0.453125 C 2.84375 -0.753906 2.984375 -1.109375 3.015625 -1.515625 C 3.035156 -2.003906 3.039062 -2.3125 3.03125 -2.4375 C 3.019531 -2.539062 3.019531 -2.597656 3.03125 -2.609375 C 3.039062 -2.617188 3.113281 -2.628906 3.25 -2.640625 C 3.96875 -2.773438 4.539062 -3.015625 4.96875 -3.359375 C 5.394531 -3.710938 5.691406 -4.125 5.859375 -4.59375 C 6.023438 -5.0625 6.09375 -5.53125 6.0625 -6 C 6.007812 -6.707031 5.753906 -7.3125 5.296875 -7.8125 C 4.972656 -8.15625 4.664062 -8.398438 4.375 -8.546875 C 4.09375 -8.703125 3.765625 -8.785156 3.390625 -8.796875 C 3.015625 -8.804688 2.5 -8.789062 1.84375 -8.75 L 0.921875 -8.671875 C 0.691406 -8.660156 0.457031 -8.535156 0.21875 -8.296875 C -0.0078125 -8.054688 -0.132812 -7.757812 -0.15625 -7.40625 C -0.15625 -7.101562 -0.128906 -6.644531 -0.078125 -6.03125 L 0 -4.890625 C 0.0625 -4.140625 0.15625 -2.976562 0.28125 -1.40625 L 0.28125 -1.328125 C 0.332031 -0.648438 0.664062 -0.210938 1.28125 -0.015625 C 1.425781 0.0234375 1.5625 0.0390625 1.6875 0.03125 Z M 2.96875 -4.9375 C 2.945312 -4.925781 2.921875 -4.9375 2.890625 -4.96875 L 2.875 -4.984375 C 2.863281 -4.992188 2.851562 -5.023438 2.84375 -5.078125 L 2.796875 -5.890625 C 2.796875 -6.015625 2.832031 -6.082031 2.90625 -6.09375 C 2.988281 -6.09375 3.078125 -6.03125 3.171875 -5.90625 C 3.265625 -5.789062 3.316406 -5.679688 3.328125 -5.578125 C 3.335938 -5.472656 3.316406 -5.367188 3.265625 -5.265625 C 3.222656 -5.171875 3.171875 -5.09375 3.109375 -5.03125 C 3.046875 -4.96875 3 -4.9375 2.96875 -4.9375 Z M 2.96875 -4.9375 "/></g></g></g><g fill="#ffffff" fill-opacity="1"><g transform="translate(49.972977, 43.861139)"><g><path d="M 3.171875 -0.015625 C 2.609375 0.0234375 2.070312 -0.128906 1.5625 -0.484375 C 1.0625 -0.835938 0.640625 -1.332031 0.296875 -1.96875 C -0.0351562 -2.601562 -0.226562 -3.328125 -0.28125 -4.140625 C -0.34375 -4.941406 -0.253906 -5.6875 -0.015625 -6.375 C 0.210938 -7.0625 0.550781 -7.617188 1 -8.046875 C 1.457031 -8.472656 1.96875 -8.707031 2.53125 -8.75 C 3.113281 -8.789062 3.65625 -8.632812 4.15625 -8.28125 C 4.664062 -7.925781 5.085938 -7.425781 5.421875 -6.78125 C 5.753906 -6.132812 5.953125 -5.410156 6.015625 -4.609375 C 6.066406 -3.796875 5.976562 -3.050781 5.75 -2.375 C 5.519531 -1.695312 5.175781 -1.144531 4.71875 -0.71875 C 4.269531 -0.289062 3.753906 -0.0546875 3.171875 -0.015625 Z M 2.953125 -3.453125 C 3.054688 -3.460938 3.132812 -3.550781 3.1875 -3.71875 C 3.238281 -3.894531 3.257812 -4.101562 3.25 -4.34375 C 3.226562 -4.582031 3.175781 -4.785156 3.09375 -4.953125 C 3.019531 -5.117188 2.929688 -5.195312 2.828125 -5.1875 C 2.722656 -5.175781 2.640625 -5.082031 2.578125 -4.90625 C 2.523438 -4.726562 2.507812 -4.519531 2.53125 -4.28125 C 2.539062 -4.039062 2.585938 -3.835938 2.671875 -3.671875 C 2.753906 -3.515625 2.847656 -3.441406 2.953125 -3.453125 Z M 2.953125 -3.453125 "/></g></g></g><g fill="#ffffff" fill-opacity="1"><g transform="translate(55.989691, 43.418915)"><g><path d="M 1.71875 -0.046875 C 1.957031 -0.0664062 2.179688 -0.148438 2.390625 -0.296875 C 2.609375 -0.441406 2.765625 -0.65625 2.859375 -0.9375 C 2.941406 -1.269531 2.972656 -1.570312 2.953125 -1.84375 L 2.953125 -1.984375 C 2.941406 -2.085938 2.941406 -2.175781 2.953125 -2.25 L 2.984375 -2.265625 C 3.066406 -2.128906 3.296875 -1.863281 3.671875 -1.46875 C 4.078125 -1.03125 4.375 -0.738281 4.5625 -0.59375 C 4.851562 -0.414062 5.132812 -0.332031 5.40625 -0.34375 C 5.71875 -0.375 5.984375 -0.503906 6.203125 -0.734375 C 6.421875 -0.972656 6.519531 -1.242188 6.5 -1.546875 C 6.488281 -1.722656 6.421875 -1.898438 6.296875 -2.078125 C 5.898438 -2.566406 5.601562 -2.910156 5.40625 -3.109375 C 5.1875 -3.335938 5.070312 -3.492188 5.0625 -3.578125 C 5.0625 -3.617188 5.117188 -3.695312 5.234375 -3.8125 C 5.359375 -3.9375 5.53125 -4.140625 5.75 -4.421875 C 6.09375 -4.953125 6.238281 -5.519531 6.1875 -6.125 C 6.144531 -6.757812 5.890625 -7.34375 5.421875 -7.875 C 4.960938 -8.40625 4.296875 -8.726562 3.421875 -8.84375 C 2.992188 -8.875 2.578125 -8.875 2.171875 -8.84375 C 1.921875 -8.820312 1.664062 -8.800781 1.40625 -8.78125 C 1.125 -8.738281 0.863281 -8.644531 0.625 -8.5 C 0.382812 -8.363281 0.195312 -8.179688 0.0625 -7.953125 C -0.0703125 -7.722656 -0.125 -7.4375 -0.09375 -7.09375 L 0.125 -3.578125 C 0.144531 -3.359375 0.160156 -3.203125 0.171875 -3.109375 C 0.179688 -3.015625 0.1875 -2.9375 0.1875 -2.875 C 0.195312 -2.820312 0.207031 -2.75 0.21875 -2.65625 C 0.226562 -2.5625 0.265625 -2.128906 0.328125 -1.359375 C 0.328125 -1.304688 0.335938 -1.238281 0.359375 -1.15625 C 0.390625 -1.082031 0.414062 -1.007812 0.4375 -0.9375 C 0.539062 -0.613281 0.710938 -0.378906 0.953125 -0.234375 C 1.203125 -0.0859375 1.457031 -0.0234375 1.71875 -0.046875 Z M 3 -4.875 C 2.925781 -4.882812 2.878906 -5.050781 2.859375 -5.375 C 2.816406 -5.882812 2.835938 -6.144531 2.921875 -6.15625 L 2.9375 -6.15625 C 3.03125 -6.164062 3.117188 -6.097656 3.203125 -5.953125 C 3.296875 -5.804688 3.347656 -5.675781 3.359375 -5.5625 C 3.367188 -5.394531 3.34375 -5.242188 3.28125 -5.109375 C 3.21875 -4.984375 3.125 -4.90625 3 -4.875 Z M 3 -4.875 "/></g></g></g><g fill="#ffffff" fill-opacity="1"><g transform="translate(62.313596, 42.954112)"><g><path d="M 3.375 -0.15625 C 3.757812 -0.1875 4.070312 -0.332031 4.3125 -0.59375 C 4.550781 -0.863281 4.664062 -1.226562 4.65625 -1.6875 L 4.53125 -3.375 L 4.40625 -4.9375 C 4.375 -5.457031 4.363281 -5.796875 4.375 -5.953125 C 4.363281 -6.046875 4.382812 -6.109375 4.4375 -6.140625 C 4.488281 -6.179688 4.53125 -6.203125 4.5625 -6.203125 C 4.757812 -6.222656 4.976562 -6.25 5.21875 -6.28125 C 5.457031 -6.320312 5.671875 -6.398438 5.859375 -6.515625 C 6.265625 -6.796875 6.441406 -7.25 6.390625 -7.875 C 6.367188 -8.238281 6.253906 -8.503906 6.046875 -8.671875 C 5.835938 -8.847656 5.613281 -8.957031 5.375 -9 C 5.132812 -9.050781 4.945312 -9.070312 4.8125 -9.0625 L 1.125 -8.78125 C 0.75 -8.757812 0.394531 -8.65625 0.0625 -8.46875 C -0.445312 -8.1875 -0.679688 -7.757812 -0.640625 -7.1875 C -0.617188 -6.882812 -0.5 -6.628906 -0.28125 -6.421875 C -0.0703125 -6.210938 0.140625 -6.078125 0.359375 -6.015625 C 0.460938 -5.972656 0.582031 -5.945312 0.71875 -5.9375 C 0.851562 -5.9375 1.054688 -5.945312 1.328125 -5.96875 C 1.390625 -5.976562 1.457031 -5.972656 1.53125 -5.953125 C 1.613281 -5.941406 1.65625 -5.890625 1.65625 -5.796875 C 1.78125 -4.835938 1.90625 -3.523438 2.03125 -1.859375 L 2.0625 -1.390625 C 2.0625 -1.378906 2.078125 -1.304688 2.109375 -1.171875 C 2.148438 -1.035156 2.222656 -0.882812 2.328125 -0.71875 C 2.429688 -0.5625 2.5625 -0.421875 2.71875 -0.296875 C 2.882812 -0.179688 3.101562 -0.132812 3.375 -0.15625 Z M 3.375 -0.15625 "/></g></g></g><g fill="#ffffff" fill-opacity="1"><g transform="translate(68.743432, 42.481523)"><g><path d="M 2.296875 0.0625 C 2.597656 0.0390625 2.953125 0.0078125 3.359375 -0.03125 C 3.648438 -0.0625 3.976562 -0.09375 4.34375 -0.125 C 4.707031 -0.15625 5.015625 -0.285156 5.265625 -0.515625 C 5.515625 -0.753906 5.625 -1.070312 5.59375 -1.46875 C 5.5625 -1.851562 5.4375 -2.164062 5.21875 -2.40625 C 5 -2.65625 4.726562 -2.789062 4.40625 -2.8125 C 3.757812 -2.757812 3.253906 -2.726562 2.890625 -2.71875 C 2.835938 -2.71875 2.804688 -2.738281 2.796875 -2.78125 C 2.785156 -2.820312 2.773438 -2.878906 2.765625 -2.953125 C 2.765625 -3.023438 2.769531 -3.070312 2.78125 -3.09375 C 2.789062 -3.113281 2.828125 -3.128906 2.890625 -3.140625 C 2.953125 -3.148438 3.054688 -3.164062 3.203125 -3.1875 L 3.703125 -3.234375 C 3.785156 -3.242188 3.910156 -3.253906 4.078125 -3.265625 C 4.242188 -3.273438 4.414062 -3.316406 4.59375 -3.390625 C 4.957031 -3.523438 5.113281 -3.9375 5.0625 -4.625 C 5.039062 -4.925781 4.972656 -5.144531 4.859375 -5.28125 C 4.640625 -5.488281 4.316406 -5.578125 3.890625 -5.546875 C 3.421875 -5.515625 3.109375 -5.5 2.953125 -5.5 C 2.804688 -5.5 2.71875 -5.515625 2.6875 -5.546875 C 2.664062 -5.578125 2.648438 -5.628906 2.640625 -5.703125 L 2.640625 -5.734375 L 2.609375 -5.90625 C 2.609375 -5.957031 2.640625 -5.992188 2.703125 -6.015625 C 2.847656 -6.023438 3.054688 -6.050781 3.328125 -6.09375 C 3.679688 -6.144531 4 -6.179688 4.28125 -6.203125 C 4.59375 -6.222656 4.820312 -6.328125 4.96875 -6.515625 C 5.195312 -6.773438 5.296875 -7.109375 5.265625 -7.515625 C 5.234375 -7.890625 5.132812 -8.175781 4.96875 -8.375 C 4.625 -8.738281 4.109375 -8.894531 3.421875 -8.84375 L 0.890625 -8.65625 C 0.210938 -8.5625 -0.140625 -8.253906 -0.171875 -7.734375 C -0.171875 -7.617188 -0.148438 -7.265625 -0.109375 -6.671875 C -0.0859375 -6.335938 -0.0625 -6 -0.03125 -5.65625 C -0.0078125 -5.320312 0.0078125 -5.035156 0.03125 -4.796875 C 0.0507812 -4.566406 0.0664062 -4.453125 0.078125 -4.453125 L 0.21875 -2.3125 C 0.28125 -1.570312 0.359375 -1.023438 0.453125 -0.671875 C 0.554688 -0.328125 0.75 -0.109375 1.03125 -0.015625 C 1.3125 0.078125 1.734375 0.101562 2.296875 0.0625 Z M 2.296875 0.0625 "/></g></g></g><g fill="#ffffff" fill-opacity="1"><g transform="translate(74.209318, 42.079785)"><g><path d="M 1.71875 -0.046875 C 1.957031 -0.0664062 2.179688 -0.148438 2.390625 -0.296875 C 2.609375 -0.441406 2.765625 -0.65625 2.859375 -0.9375 C 2.941406 -1.269531 2.972656 -1.570312 2.953125 -1.84375 L 2.953125 -1.984375 C 2.941406 -2.085938 2.941406 -2.175781 2.953125 -2.25 L 2.984375 -2.265625 C 3.066406 -2.128906 3.296875 -1.863281 3.671875 -1.46875 C 4.078125 -1.03125 4.375 -0.738281 4.5625 -0.59375 C 4.851562 -0.414062 5.132812 -0.332031 5.40625 -0.34375 C 5.71875 -0.375 5.984375 -0.503906 6.203125 -0.734375 C 6.421875 -0.972656 6.519531 -1.242188 6.5 -1.546875 C 6.488281 -1.722656 6.421875 -1.898438 6.296875 -2.078125 C 5.898438 -2.566406 5.601562 -2.910156 5.40625 -3.109375 C 5.1875 -3.335938 5.070312 -3.492188 5.0625 -3.578125 C 5.0625 -3.617188 5.117188 -3.695312 5.234375 -3.8125 C 5.359375 -3.9375 5.53125 -4.140625 5.75 -4.421875 C 6.09375 -4.953125 6.238281 -5.519531 6.1875 -6.125 C 6.144531 -6.757812 5.890625 -7.34375 5.421875 -7.875 C 4.960938 -8.40625 4.296875 -8.726562 3.421875 -8.84375 C 2.992188 -8.875 2.578125 -8.875 2.171875 -8.84375 C 1.921875 -8.820312 1.664062 -8.800781 1.40625 -8.78125 C 1.125 -8.738281 0.863281 -8.644531 0.625 -8.5 C 0.382812 -8.363281 0.195312 -8.179688 0.0625 -7.953125 C -0.0703125 -7.722656 -0.125 -7.4375 -0.09375 -7.09375 L 0.125 -3.578125 C 0.144531 -3.359375 0.160156 -3.203125 0.171875 -3.109375 C 0.179688 -3.015625 0.1875 -2.9375 0.1875 -2.875 C 0.195312 -2.820312 0.207031 -2.75 0.21875 -2.65625 C 0.226562 -2.5625 0.265625 -2.128906 0.328125 -1.359375 C 0.328125 -1.304688 0.335938 -1.238281 0.359375 -1.15625 C 0.390625 -1.082031 0.414062 -1.007812 0.4375 -0.9375 C 0.539062 -0.613281 0.710938 -0.378906 0.953125 -0.234375 C 1.203125 -0.0859375 1.457031 -0.0234375 1.71875 -0.046875 Z M 3 -4.875 C 2.925781 -4.882812 2.878906 -5.050781 2.859375 -5.375 C 2.816406 -5.882812 2.835938 -6.144531 2.921875 -6.15625 L 2.9375 -6.15625 C 3.03125 -6.164062 3.117188 -6.097656 3.203125 -5.953125 C 3.296875 -5.804688 3.347656 -5.675781 3.359375 -5.5625 C 3.367188 -5.394531 3.34375 -5.242188 3.28125 -5.109375 C 3.21875 -4.984375 3.125 -4.90625 3 -4.875 Z M 3 -4.875 "/></g></g></g><path stroke-linecap="butt" transform="matrix(0.662049, -0.0486602, 0.0486602, 0.662049, -0.34259, 36.909287)" fill="none" stroke-linejoin="miter" d="M 27.466366 19.071769 C 29.142089 19.071028 30.2067 18.795262 30.666499 18.239033 C 30.919096 17.933085 31.049315 17.606342 31.04499 17.26381 C 31.045671 16.933447 30.937698 16.636399 30.727372 16.36723 C 30.510747 16.103498 30.205061 15.927624 29.798576 15.838745 L 29.399516 15.809415 C 29.080889 15.809597 28.725326 15.830665 28.343701 15.885219 C 27.962939 15.928036 27.624981 15.950399 27.335698 15.952738 C 27.141173 15.950241 26.982723 15.938595 26.855771 15.899763 C 26.058422 15.670051 25.457401 15.177458 25.063583 14.434584 C 24.615734 13.463529 24.389595 12.52647 24.390173 11.635576 C 24.38781 10.543858 24.660235 9.56674 25.208312 8.692486 C 25.750089 7.823669 26.455414 7.13798 27.330154 6.635849 C 28.199457 6.127419 29.121067 5.870644 30.106289 5.872254 C 30.83787 5.872922 31.574979 6.039204 32.312179 6.364799 C 32.760697 6.604273 33.088223 6.96466 33.299332 7.463996 C 33.505005 7.957032 33.607892 8.483815 33.608427 9.038477 C 33.6113 9.882423 33.408513 10.63455 33.000066 11.294857 C 32.894523 11.446407 32.806757 11.516659 32.741771 11.517783 C 32.647443 11.51675 32.586079 11.388335 32.564409 11.121231 C 32.542739 10.854127 32.534101 10.570281 32.532193 10.275129 L 32.535723 9.986276 L 32.551081 9.8576 C 32.563419 9.770003 32.571183 9.664369 32.574804 9.53483 C 32.578425 9.405291 32.581614 9.28162 32.579367 9.15165 L 32.568741 8.814555 C 32.522644 8.39815 32.369448 8.074178 32.091549 7.841344 C 31.825819 7.603504 31.515819 7.486315 31.173287 7.49064 C 30.719253 7.48677 30.326413 7.693907 30.006505 8.112912 C 29.954812 8.174015 29.905276 8.205775 29.863765 8.208625 C 29.798779 8.209748 29.730082 8.181098 29.645936 8.121811 C 29.567659 8.062956 29.45417 8.001512 29.310907 7.943781 C 29.167644 7.886049 28.969408 7.853778 28.727504 7.853699 L 28.650781 7.85396 C 27.571061 7.933908 26.742577 8.368635 26.158596 9.169448 C 25.580915 9.964823 25.286911 10.83415 25.28832 11.778292 C 25.288684 12.415545 25.433344 13.016202 25.7286 13.574825 C 26.017986 14.133016 26.482476 14.556572 27.116199 14.84506 C 27.516213 15.021967 27.881618 15.107826 28.200244 15.107644 C 28.689921 15.108233 29.106927 14.973676 29.450401 14.71571 C 29.788437 14.451444 30.085825 14.178289 30.325391 13.889085 C 30.401852 13.812101 30.457688 13.774903 30.487031 13.77706 C 30.522242 13.779648 30.550291 13.79941 30.582914 13.837209 C 31.244175 14.393232 31.937446 14.674297 32.663159 14.674534 C 33.241726 14.669856 33.789566 14.521315 34.306678 14.228908 C 34.830521 13.925197 35.269094 13.497213 35.622397 12.944956 C 36.530508 11.50714 36.986742 10.036112 36.984367 8.543176 C 36.984775 7.734873 36.830012 6.950567 36.520079 6.190257 C 35.871314 5.062829 34.978841 4.2007 33.853534 3.61647 C 32.728658 3.026372 31.516799 2.736693 30.212951 2.735265 C 28.820643 2.733235 27.443103 3.092206 26.092501 3.807171 C 24.741898 4.522136 23.623632 5.608192 22.725532 7.070344 C 21.800338 8.660311 21.338326 10.290222 21.334061 11.953776 C 21.338331 13.340647 21.6305 14.583471 22.221442 15.694848 C 22.818253 16.806657 23.571607 17.63496 24.486509 18.191924 C 24.937876 18.47291 25.382251 18.688478 25.83137 18.839493 C 26.280058 18.996376 26.823244 19.071702 27.466366 19.071769 Z M 28.521885 12.015957 C 28.468637 12.017944 28.412108 11.984288 28.357305 11.927157 C 28.30837 11.870459 28.278766 11.79158 28.279799 11.697252 L 28.282125 11.585318 L 28.246483 11.588599 L 28.565255 10.703391 C 28.640161 10.567291 28.710323 10.495744 28.775308 10.49462 C 28.926164 10.529309 29.008585 10.61207 29.033444 10.755503 L 29.045704 10.909811 C 29.046919 11.134109 28.994023 11.372131 28.886154 11.635614 C 28.779147 11.88736 28.657724 12.014141 28.521885 12.015957 Z M 47.141627 15.968801 C 47.802354 15.970162 48.366766 15.917242 48.840733 15.810472 C 49.822322 15.540404 50.555355 15.039659 51.046131 14.302799 C 51.536908 13.565939 51.783794 12.775752 51.781783 11.92007 C 51.781419 11.282817 51.644353 10.659117 51.375591 10.06114 C 51.101392 9.456863 50.696621 8.943293 50.149109 8.525435 C 50.064963 8.466149 50.00386 8.414456 49.959931 8.369925 C 49.916002 8.325395 49.895979 8.276721 49.893992 8.223473 C 49.898737 8.158919 49.929112 8.066748 49.99185 7.935653 C 50.205863 7.432162 50.312949 6.938512 50.313539 6.448835 C 50.310064 5.693349 50.076683 5.015369 49.613397 4.414894 C 49.149679 3.820289 48.501971 3.400967 47.669411 3.168668 C 47.258352 3.061752 46.843411 3.007653 46.442194 3.007665 C 46.165078 3.004998 45.886669 3.019937 45.607828 3.040744 C 45.328988 3.061551 45.038841 3.075627 44.731089 3.088409 C 44.204476 3.108705 43.751827 3.246543 43.367705 3.495622 C 42.983583 3.7447 42.742122 4.13997 42.644185 4.669694 C 42.606738 4.938352 42.580973 6.252212 42.566891 8.611274 L 42.553373 9.678224 L 42.569647 14.193105 C 42.566299 14.800583 42.728042 15.249089 43.049439 15.532322 C 43.370835 15.815555 43.720621 15.953369 44.104233 15.952063 Z M 46.726499 12.54565 C 46.673682 12.541768 46.646496 12.510269 46.64494 12.451152 L 46.632815 11.010602 C 46.63143 10.868895 46.633325 10.76283 46.644801 10.68697 C 46.656277 10.61111 46.694508 10.572619 46.759493 10.571495 C 46.964892 10.586591 47.128609 10.687128 47.256946 10.867668 C 47.385282 11.048207 47.446045 11.265082 47.445103 11.518723 C 47.447612 11.725416 47.398167 11.91649 47.295905 12.103682 C 47.193643 12.290873 47.023978 12.431809 46.792778 12.526921 Z M 46.660677 7.661313 L 46.661151 6.209889 C 47.003683 6.205563 47.174223 6.454108 47.173633 6.943784 C 47.172862 7.114835 47.143179 7.27786 47.078716 7.432428 C 47.014253 7.586997 46.872807 7.665104 46.660677 7.661313 Z M 56.088548 16.260578 C 56.832297 16.256241 57.559212 16.079559 58.252119 15.723371 C 58.957194 15.362177 59.533071 14.83218 59.991485 14.134243 C 60.4499 13.436306 60.68229 12.763058 60.682789 12.114069 C 60.67802 11.376188 60.357134 10.845182 59.702093 10.525626 C 59.392525 10.402569 59.126023 10.335779 58.901724 10.336994 C 58.571361 10.336314 58.299081 10.428406 58.085317 10.607402 C 57.871553 10.786399 57.692137 10.97972 57.541632 11.181067 C 57.425215 11.320017 57.315961 11.441792 57.2143 11.540524 C 57.112208 11.645125 57.00183 11.701915 56.889034 11.711325 C 56.717984 11.710554 56.504298 11.647646 56.254278 11.517165 C 56.003826 11.392553 55.782887 11.187506 55.596898 10.908325 C 55.411341 10.623276 55.321144 10.244931 55.320008 9.778729 C 55.333118 9.520082 55.382734 9.246417 55.475154 8.952297 C 55.573443 8.658609 55.710224 8.403152 55.885497 8.185925 C 56.067069 7.963261 56.26392 7.853824 56.488219 7.852609 C 56.629495 7.857092 56.767752 7.902656 56.902127 8.001036 C 57.202376 8.17061 57.508664 8.258025 57.815553 8.25698 C 58.051589 8.256627 58.338455 8.206909 58.682882 8.096519 C 59.070977 7.953936 59.364483 7.733599 59.558394 7.423338 C 59.752305 7.113077 59.848176 6.772009 59.846008 6.400135 C 59.846858 5.98718 59.723607 5.576905 59.481259 5.181477 C 59.041617 4.500137 58.518182 3.995546 57.911383 3.661835 C 57.304154 3.333992 56.67311 3.169606 56.02412 3.169108 C 55.321882 3.170596 54.641484 3.356597 53.982063 3.738848 C 53.328941 4.115661 52.773951 4.682594 52.328829 5.440511 C 51.539121 6.792625 51.145716 8.291873 51.144039 9.920216 C 51.144075 11.123868 51.37186 12.279357 51.815226 13.391688 C 52.229158 14.342549 52.825525 15.059009 53.604328 15.541068 C 54.383561 16.017258 55.209822 16.254995 56.088548 16.260578 Z M 68.198508 16.224314 C 68.735564 16.222486 69.205127 16.015088 69.619794 15.591248 C 70.039899 15.173707 70.289555 14.666935 70.3742 14.077232 C 70.463328 13.346252 70.503703 12.877201 70.501194 12.670508 C 70.506109 12.523363 70.512147 12.441203 70.525178 12.424461 C 70.544078 12.408149 70.651006 12.398307 70.857699 12.395798 C 71.946738 12.269334 72.824419 11.968028 73.502909 11.486874 C 74.180969 11.01159 74.672268 10.428175 74.982675 9.73706 C 75.293082 9.045946 75.450475 8.349485 75.448987 7.647247 C 75.450768 6.579434 75.135738 5.647643 74.50433 4.846004 C 74.042599 4.304646 73.611595 3.907153 73.20502 3.658961 C 72.804744 3.405331 72.314545 3.251297 71.747022 3.185984 C 71.185368 3.121102 70.403127 3.087208 69.399868 3.090173 L 68.00756 3.088143 C 67.653291 3.091606 67.293245 3.25395 66.908953 3.58562 C 66.53096 3.911852 66.316686 4.338621 66.266129 4.865927 C 66.232485 5.323673 66.21723 6.01288 66.213633 6.944854 L 66.211786 8.655788 C 66.223297 9.78358 66.229736 11.542325 66.231965 13.920286 L 66.228776 14.043957 C 66.230877 15.058953 66.687694 15.747455 67.61053 16.116196 C 67.812047 16.184109 68.003984 16.221817 68.198508 16.224314 Z M 70.681625 8.931216 C 70.658151 8.929491 70.618797 8.902997 70.563993 8.845867 L 70.535513 8.831973 C 70.52507 8.813505 70.517215 8.759825 70.517817 8.671366 L 70.536249 7.457271 C 70.543752 7.274915 70.597601 7.184469 70.697798 7.185933 C 70.8219 7.183254 70.956275 7.281634 71.095054 7.480642 C 71.233833 7.67965 71.303916 7.850008 71.304869 7.997584 C 71.30496 8.156897 71.264403 8.307323 71.183197 8.44886 C 71.102423 8.584529 71.011205 8.70173 70.909976 8.794593 C 70.809178 8.881589 70.734874 8.929229 70.681625 8.931216 Z M 79.607184 16.337114 C 78.733896 16.337831 77.935422 16.043134 77.212195 15.447155 C 76.494405 14.857476 75.921682 14.06015 75.487726 13.060615 C 75.053339 12.066949 74.839709 10.959703 74.840536 9.744314 C 74.8405 8.540662 75.057429 7.43556 75.485025 6.434446 C 75.918489 5.433763 76.496601 4.63252 77.21263 4.042021 C 77.934527 3.451953 78.735486 3.150909 79.608774 3.150192 C 80.482063 3.149476 81.280105 3.450041 81.997464 4.045589 C 82.721122 4.635699 83.293845 5.433025 83.716064 6.431697 C 84.143719 7.436669 84.357781 8.538047 84.357817 9.741699 C 84.35699 10.957088 84.145929 12.062621 83.718333 13.063735 C 83.291169 14.05898 82.719357 14.854787 81.997028 15.450723 C 81.281 16.041221 80.486341 16.336829 79.607184 16.337114 Z M 79.642239 11.123878 C 79.801552 11.123787 79.928844 10.997437 80.035851 10.745691 C 80.142857 10.493945 80.200929 10.185501 80.197898 9.825363 C 80.200304 9.471526 80.146011 9.166623 80.040456 8.916955 C 79.929896 8.655118 79.797677 8.527396 79.638364 8.527487 C 79.490788 8.52844 79.363497 8.65479 79.25019 8.911973 C 79.136883 9.169156 79.079243 9.471732 79.082705 9.826001 C 79.079868 10.185707 79.14003 10.491041 79.251022 10.747009 C 79.362445 10.997109 79.489226 11.118531 79.642239 11.123878 Z M 86.50796 16.130387 C 86.868097 16.127356 87.211662 16.028703 87.538654 15.834427 C 87.860209 15.633852 88.118242 15.334205 88.307317 14.929184 C 88.479388 14.434411 88.565849 13.980547 88.5667 13.567592 L 88.569197 13.373068 C 88.569106 13.213755 88.572727 13.084216 88.586359 12.979013 L 88.66567 12.943541 C 88.780543 13.146692 89.097888 13.565333 89.605534 14.204469 C 90.150379 14.899441 90.564038 15.372363 90.841074 15.616934 C 91.255073 15.924674 91.66855 16.07897 92.069767 16.078958 C 92.541838 16.078253 92.955564 15.908053 93.310514 15.574227 C 93.671332 15.240832 93.847807 14.846687 93.851246 14.398521 C 93.847182 14.132711 93.767258 13.855426 93.605606 13.566233 C 93.060069 12.800407 92.652017 12.251194 92.375151 11.924032 C 92.066525 11.547334 91.91359 11.300084 91.91048 11.18185 C 91.910219 11.105128 92.013173 10.98879 92.207607 10.831974 C 92.407909 10.675589 92.682685 10.388972 93.031074 9.983861 C 93.606166 9.223697 93.897583 8.389581 93.894017 7.474781 C 93.893039 6.524771 93.575853 5.622322 92.941595 4.779172 C 92.307769 3.930153 91.34005 3.369306 90.038006 3.1025 C 89.407654 3.008968 88.779721 2.962815 88.148336 2.963611 C 87.765156 2.959048 87.38655 2.972523 87.001645 2.991434 C 86.551754 3.01147 86.142772 3.117115 85.775563 3.296634 C 85.408354 3.476153 85.11226 3.731702 84.880982 4.068717 C 84.649703 4.405733 84.536056 4.828098 84.53961 5.34168 L 84.505247 10.62577 C 84.504566 10.956134 84.510787 11.192601 84.512172 11.334308 C 84.519426 11.476447 84.522536 11.594681 84.521504 11.689009 C 84.520902 11.777468 84.524013 11.895701 84.530835 12.043709 C 84.53222 12.185417 84.537159 12.840706 84.534777 13.996979 C 84.535038 14.073701 84.55118 14.175191 84.583633 14.295581 C 84.615654 14.42184 84.643102 14.530062 84.665543 14.626115 C 84.793199 15.137018 85.030972 15.514409 85.384299 15.764587 C 85.738057 16.008897 86.106743 16.130399 86.50796 16.130387 Z M 88.966831 9.006614 C 88.86206 8.987113 88.804748 8.72329 88.8062 8.221876 C 88.803588 7.454653 88.867267 7.069917 88.979201 7.072244 L 89.014843 7.068964 C 89.168288 7.068441 89.301369 7.184427 89.414086 7.416921 C 89.532672 7.649846 89.58886 7.848684 89.593095 8.031902 C 89.593016 8.273806 89.535545 8.493792 89.421115 8.685989 C 89.312553 8.878618 89.157213 8.985206 88.966831 9.006614 Z M 98.56709 16.143489 C 99.156963 16.145543 99.636968 15.956614 100.012974 15.577133 C 100.394848 15.198084 100.599281 14.664387 100.631711 13.982343 L 100.650016 11.405283 L 100.633893 9.055802 C 100.633007 8.265105 100.646627 7.758685 100.680623 7.536974 C 100.690975 7.39613 100.733088 7.304821 100.807392 7.25718 C 100.881697 7.209539 100.942539 7.18451 100.98405 7.181661 C 101.290939 7.180616 101.633903 7.170422 101.996197 7.138048 C 102.370228 7.106537 102.689887 7.012026 102.96648 6.861249 C 103.607433 6.489441 103.926989 5.834401 103.931017 4.896558 C 103.930051 4.347765 103.783326 3.935764 103.49714 3.655119 C 103.210955 3.374474 102.888526 3.185569 102.535721 3.088835 C 102.182916 2.992102 101.897083 2.947492 101.684953 2.943701 L 96.120728 2.947751 C 95.554329 2.947423 95.009077 3.060754 94.48411 3.29948 C 93.697307 3.648768 93.304479 4.257121 93.306058 5.118672 C 93.301757 5.578575 93.449345 5.978839 93.748823 6.319463 C 94.0483 6.660087 94.355973 6.88921 94.665973 7.006398 C 94.82641 7.071292 94.999878 7.119444 95.192677 7.145415 C 95.385476 7.171386 95.679766 7.181215 96.086852 7.181635 C 96.192917 7.18353 96.303988 7.197594 96.419202 7.235563 C 96.528979 7.267233 96.588357 7.3424 96.602341 7.473233 C 96.672721 8.923965 96.709286 10.915034 96.712469 13.440571 L 96.708088 14.142378 C 96.707226 14.154115 96.728804 14.261905 96.772393 14.471617 C 96.815982 14.68133 96.905225 14.912098 97.027954 15.168929 C 97.162851 15.420753 97.346422 15.652555 97.591698 15.84759 C 97.836973 16.042624 98.165873 16.143501 98.56709 16.143489 Z M 106.617419 16.351667 C 107.077753 16.3501 107.61524 16.342403 108.230313 16.322708 C 108.679773 16.308541 109.175749 16.303693 109.719105 16.296428 C 110.262462 16.289162 110.734442 16.129144 111.130471 15.798337 C 111.531937 15.47383 111.736632 15.016856 111.732385 14.43242 C 111.734439 13.842547 111.581584 13.353393 111.28012 12.95952 C 110.972787 12.565216 110.588392 12.336355 110.121065 12.272506 C 109.14758 12.271758 108.386657 12.268933 107.832858 12.25773 C 107.756998 12.246254 107.712638 12.207592 107.693477 12.147182 C 107.680616 12.081334 107.66948 11.992012 107.671376 11.885947 C 107.673271 11.779882 107.684747 11.704022 107.705372 11.664236 C 107.725997 11.62445 107.78097 11.59899 107.876161 11.588285 C 107.977652 11.572144 108.137827 11.560316 108.356689 11.552801 L 109.096726 11.51869 C 109.238434 11.517305 109.42709 11.51937 109.680731 11.520312 C 109.928503 11.520822 110.185164 11.480684 110.444412 11.405335 C 111.017451 11.235044 111.303352 10.636532 111.302544 9.603931 C 111.305983 9.155765 111.218204 8.8248 111.045076 8.611467 C 110.757767 8.265837 110.292336 8.095923 109.643346 8.095424 C 108.935239 8.096481 108.469468 8.091748 108.246463 8.075358 C 108.023459 8.058967 107.890639 8.019704 107.847142 7.969305 C 107.804075 7.913037 107.786208 7.835021 107.782235 7.728525 L 107.78698 7.663971 L 107.770316 7.409035 C 107.770055 7.332313 107.814585 7.288384 107.910639 7.265943 C 108.1232 7.263865 108.437252 7.245646 108.858232 7.217585 C 109.398307 7.174677 109.877972 7.15093 110.296795 7.152212 C 110.774735 7.151939 111.131762 7.030674 111.368308 6.782549 C 111.726708 6.401774 111.910947 5.901995 111.908426 5.294085 C 111.908323 4.733554 111.78766 4.288068 111.545574 3.969362 C 111.074694 3.391931 110.328606 3.106984 109.302304 3.102355 L 105.46705 3.103678 C 104.441441 3.169902 103.87376 3.588397 103.769444 4.365462 C 103.744767 4.540655 103.734858 5.076849 103.732987 5.985348 C 103.732397 6.475025 103.736814 6.97687 103.740368 7.490452 C 103.750221 7.998597 103.753514 8.435457 103.757408 8.783858 C 103.766739 9.138558 103.777705 9.310471 103.783573 9.310902 L 103.76805 12.572595 C 103.76955 13.67605 103.827397 14.494535 103.947459 15.028481 C 104.061221 15.567864 104.324193 15.923506 104.724639 16.094544 C 105.130953 16.266014 105.761736 16.353678 106.617419 16.351667 Z M 114.026771 16.129218 C 114.386908 16.126187 114.730473 16.027534 115.057465 15.833258 C 115.384888 15.633115 115.642922 15.333467 115.831997 14.928447 C 116.003637 14.439541 116.090097 13.985677 116.085511 13.566423 L 116.087576 13.377767 C 116.087485 13.218454 116.091538 13.083046 116.10517 12.977844 L 116.18448 12.942372 C 116.305223 13.145954 116.616699 13.564163 117.129782 14.2096 C 117.66919 14.898272 118.082849 15.371194 118.359885 15.615765 C 118.773884 15.923505 119.187361 16.0778 119.594447 16.07822 C 120.060649 16.077084 120.473944 15.912753 120.829325 15.573058 C 121.190143 15.239663 121.366618 14.845517 121.370057 14.397352 C 121.371861 14.131974 121.286069 13.854257 121.124417 13.565064 C 120.584748 12.799669 120.170828 12.250025 119.893962 11.922863 C 119.585335 11.546165 119.432401 11.298915 119.429291 11.180681 C 119.434467 11.110259 119.531553 10.993489 119.726418 10.830805 C 119.926719 10.67442 120.201496 10.387803 120.555753 9.983123 C 121.130414 9.228828 121.416394 8.388412 121.418696 7.474044 C 121.417719 6.524033 121.100532 5.621584 120.460406 4.778003 C 119.82658 3.928984 118.858861 3.368137 117.562254 3.107631 C 116.932334 3.00823 116.298532 2.961646 115.667147 2.962442 C 115.289835 2.95831 114.905361 2.971353 114.520455 2.990265 C 114.070565 3.010301 113.661583 3.115946 113.294374 3.295465 C 112.927165 3.474984 112.63064 3.736401 112.399792 4.067548 C 112.174382 4.404995 112.054435 4.832797 112.057989 5.346379 L 112.024058 10.624601 C 112.023377 10.954965 112.029598 11.191432 112.030983 11.333139 C 112.037806 11.481147 112.041347 11.593511 112.040314 11.687839 C 112.039713 11.776299 112.042823 11.894532 112.049646 12.04254 C 112.056899 12.184679 112.05597 12.839537 112.059025 14.002109 C 112.059718 14.072963 112.06999 14.174022 112.102444 14.294412 C 112.134465 14.420671 112.161913 14.528893 112.184354 14.624946 C 112.31201 15.135849 112.555651 15.513671 112.90311 15.763418 C 113.256868 16.007728 113.631422 16.129662 114.026771 16.129218 Z M 116.485642 9.005445 C 116.380871 8.985944 116.329427 8.722552 116.325011 8.220707 C 116.328268 7.453915 116.386078 7.068748 116.50388 7.071506 L 116.539523 7.068226 C 116.686668 7.073141 116.819749 7.189126 116.938766 7.416183 C 117.051483 7.648677 117.113109 7.853814 117.111906 8.030733 C 117.111395 8.278506 117.054356 8.492622 116.945794 8.685251 C 116.831364 8.877449 116.681892 8.984468 116.485642 9.005445 Z M 116.485642 9.005445 " stroke="#233d4d" stroke-width="0.8" stroke-opacity="1" stroke-miterlimit="4"/><g fill="#ffffff" fill-opacity="1"><g transform="translate(6.999436, 61.66343)"><g><path d="M 2.828125 -0.046875 C 3.609375 -0.128906 4.242188 -0.320312 4.734375 -0.625 C 5.222656 -0.9375 5.570312 -1.316406 5.78125 -1.765625 C 5.988281 -2.210938 6.070312 -2.664062 6.03125 -3.125 C 6 -3.644531 5.8125 -4.132812 5.46875 -4.59375 C 5.070312 -5.132812 4.492188 -5.472656 3.734375 -5.609375 C 3.472656 -5.660156 3.222656 -5.738281 2.984375 -5.84375 C 2.753906 -5.945312 2.613281 -6.148438 2.5625 -6.453125 C 2.5625 -6.523438 2.582031 -6.59375 2.625 -6.65625 C 2.675781 -6.71875 2.722656 -6.75 2.765625 -6.75 C 2.847656 -6.738281 2.90625 -6.679688 2.9375 -6.578125 C 2.976562 -6.484375 3.078125 -6.34375 3.234375 -6.15625 C 3.441406 -5.925781 3.71875 -5.820312 4.0625 -5.84375 C 4.25 -5.851562 4.425781 -5.910156 4.59375 -6.015625 C 4.769531 -6.117188 4.894531 -6.257812 4.96875 -6.4375 C 5.039062 -6.625 5.070312 -6.8125 5.0625 -7 C 5.039062 -7.289062 4.929688 -7.570312 4.734375 -7.84375 C 4.546875 -8.113281 4.300781 -8.332031 4 -8.5 C 3.53125 -8.726562 3.035156 -8.828125 2.515625 -8.796875 C 1.921875 -8.753906 1.363281 -8.53125 0.84375 -8.125 C 0.320312 -7.71875 -0.0195312 -7.132812 -0.1875 -6.375 C -0.21875 -6.175781 -0.222656 -5.992188 -0.203125 -5.828125 C -0.140625 -4.941406 0.519531 -4.238281 1.78125 -3.71875 C 1.914062 -3.644531 2.007812 -3.59375 2.0625 -3.5625 C 2.507812 -3.300781 2.738281 -3.078125 2.75 -2.890625 C 2.757812 -2.816406 2.742188 -2.753906 2.703125 -2.703125 C 2.660156 -2.660156 2.601562 -2.640625 2.53125 -2.640625 C 2.425781 -2.628906 2.328125 -2.664062 2.234375 -2.75 C 1.753906 -3.1875 1.320312 -3.390625 0.9375 -3.359375 C 0.644531 -3.335938 0.40625 -3.21875 0.21875 -3 C 0.03125 -2.78125 -0.0507812 -2.5 -0.03125 -2.15625 C 0.0078125 -1.601562 0.328125 -1.054688 0.921875 -0.515625 C 1.265625 -0.253906 1.765625 -0.101562 2.421875 -0.0625 C 2.648438 -0.0507812 2.785156 -0.046875 2.828125 -0.046875 Z M 2.828125 -0.046875 "/></g></g></g><g fill="#ffffff" fill-opacity="1"><g transform="translate(12.846667, 61.233662)"><g><path d="M 0.90625 0.03125 C 1.1875 0.0078125 1.425781 -0.09375 1.625 -0.28125 C 1.832031 -0.46875 1.992188 -0.710938 2.109375 -1.015625 C 2.117188 -1.054688 2.132812 -1.09375 2.15625 -1.125 C 2.1875 -1.164062 2.289062 -1.191406 2.46875 -1.203125 L 3.234375 -1.25 L 4.109375 -1.3125 C 4.285156 -1.320312 4.410156 -1.242188 4.484375 -1.078125 C 4.640625 -0.816406 4.832031 -0.628906 5.0625 -0.515625 C 5.289062 -0.398438 5.519531 -0.351562 5.75 -0.375 C 5.957031 -0.394531 6.144531 -0.457031 6.3125 -0.5625 C 6.488281 -0.675781 6.613281 -0.835938 6.6875 -1.046875 C 6.75 -1.191406 6.773438 -1.335938 6.765625 -1.484375 C 6.753906 -1.671875 6.671875 -1.929688 6.515625 -2.265625 C 6.296875 -2.734375 5.921875 -3.613281 5.390625 -4.90625 C 5.003906 -5.8125 4.671875 -6.570312 4.390625 -7.1875 C 4.109375 -7.800781 3.867188 -8.222656 3.671875 -8.453125 C 3.390625 -8.710938 3.078125 -8.832031 2.734375 -8.8125 C 2.429688 -8.789062 2.171875 -8.660156 1.953125 -8.421875 C 1.921875 -8.378906 1.882812 -8.328125 1.84375 -8.265625 C 1.789062 -8.160156 1.679688 -7.867188 1.515625 -7.390625 C 1.441406 -7.160156 0.832031 -5.234375 -0.3125 -1.609375 C -0.363281 -1.421875 -0.382812 -1.238281 -0.375 -1.0625 C -0.351562 -0.832031 -0.285156 -0.601562 -0.171875 -0.375 C -0.0664062 -0.195312 0.0507812 -0.0859375 0.1875 -0.046875 C 0.320312 -0.00390625 0.453125 0.015625 0.578125 0.015625 L 0.65625 0.03125 C 0.738281 0.03125 0.820312 0.03125 0.90625 0.03125 Z M 3.078125 -3.390625 C 2.953125 -3.378906 2.890625 -3.390625 2.890625 -3.421875 C 2.929688 -3.484375 2.976562 -3.570312 3.03125 -3.6875 C 3.082031 -3.8125 3.117188 -3.921875 3.140625 -4.015625 C 3.160156 -4.015625 3.179688 -4.007812 3.203125 -4 C 3.273438 -3.84375 3.34375 -3.710938 3.40625 -3.609375 C 3.457031 -3.535156 3.484375 -3.488281 3.484375 -3.46875 C 3.484375 -3.445312 3.472656 -3.429688 3.453125 -3.421875 Z M 3.078125 -3.390625 "/></g></g></g><g fill="#ffffff" fill-opacity="1"><g transform="translate(19.085828, 60.775088)"><g><path d="M 3.375 -0.15625 C 3.757812 -0.1875 4.070312 -0.332031 4.3125 -0.59375 C 4.550781 -0.863281 4.664062 -1.226562 4.65625 -1.6875 L 4.53125 -3.375 L 4.40625 -4.9375 C 4.375 -5.457031 4.363281 -5.796875 4.375 -5.953125 C 4.363281 -6.046875 4.382812 -6.109375 4.4375 -6.140625 C 4.488281 -6.179688 4.53125 -6.203125 4.5625 -6.203125 C 4.757812 -6.222656 4.976562 -6.25 5.21875 -6.28125 C 5.457031 -6.320312 5.671875 -6.398438 5.859375 -6.515625 C 6.265625 -6.796875 6.441406 -7.25 6.390625 -7.875 C 6.367188 -8.238281 6.253906 -8.503906 6.046875 -8.671875 C 5.835938 -8.847656 5.613281 -8.957031 5.375 -9 C 5.132812 -9.050781 4.945312 -9.070312 4.8125 -9.0625 L 1.125 -8.78125 C 0.75 -8.757812 0.394531 -8.65625 0.0625 -8.46875 C -0.445312 -8.1875 -0.679688 -7.757812 -0.640625 -7.1875 C -0.617188 -6.882812 -0.5 -6.628906 -0.28125 -6.421875 C -0.0703125 -6.210938 0.140625 -6.078125 0.359375 -6.015625 C 0.460938 -5.972656 0.582031 -5.945312 0.71875 -5.9375 C 0.851562 -5.9375 1.054688 -5.945312 1.328125 -5.96875 C 1.390625 -5.976562 1.457031 -5.972656 1.53125 -5.953125 C 1.613281 -5.941406 1.65625 -5.890625 1.65625 -5.796875 C 1.78125 -4.835938 1.90625 -3.523438 2.03125 -1.859375 L 2.0625 -1.390625 C 2.0625 -1.378906 2.078125 -1.304688 2.109375 -1.171875 C 2.148438 -1.035156 2.222656 -0.882812 2.328125 -0.71875 C 2.429688 -0.5625 2.5625 -0.421875 2.71875 -0.296875 C 2.882812 -0.179688 3.101562 -0.132812 3.375 -0.15625 Z M 3.375 -0.15625 "/></g></g></g><g fill="#ffffff" fill-opacity="1"><g transform="translate(25.515665, 60.3025)"><g/></g></g><g fill="#ffffff" fill-opacity="1"><g transform="translate(29.223147, 60.030002)"><g><path d="M 3.375 -0.09375 C 3.945312 -0.132812 4.453125 -0.3125 4.890625 -0.625 C 5.335938 -0.9375 5.6875 -1.414062 5.9375 -2.0625 C 6.101562 -2.488281 6.171875 -2.878906 6.140625 -3.234375 C 6.109375 -3.628906 5.976562 -3.972656 5.75 -4.265625 C 5.53125 -4.566406 5.242188 -4.800781 4.890625 -4.96875 C 4.546875 -5.144531 4.175781 -5.25 3.78125 -5.28125 C 3.445312 -5.320312 3.273438 -5.4375 3.265625 -5.625 C 3.253906 -5.707031 3.269531 -5.789062 3.3125 -5.875 L 3.328125 -6 C 3.421875 -6 3.539062 -6.003906 3.6875 -6.015625 C 3.84375 -6.035156 4.023438 -6.0625 4.234375 -6.09375 C 4.835938 -6.132812 5.253906 -6.28125 5.484375 -6.53125 C 5.722656 -6.78125 5.835938 -7.09375 5.828125 -7.46875 C 5.804688 -7.832031 5.6875 -8.148438 5.46875 -8.421875 C 5.25 -8.691406 4.988281 -8.835938 4.6875 -8.859375 C 4.25 -8.867188 3.023438 -8.800781 1.015625 -8.65625 C 0.429688 -8.582031 0.0976562 -8.265625 0.015625 -7.703125 C -0.00390625 -7.578125 -0.0195312 -7.328125 -0.03125 -6.953125 C -0.0390625 -6.578125 -0.03125 -6.175781 0 -5.75 C 0.0078125 -5.550781 0.0351562 -5.328125 0.078125 -5.078125 C 0.109375 -4.703125 0.160156 -4.398438 0.234375 -4.171875 C 0.316406 -3.941406 0.492188 -3.757812 0.765625 -3.625 C 0.847656 -3.59375 0.992188 -3.585938 1.203125 -3.609375 L 2.171875 -3.6875 C 2.367188 -3.707031 2.523438 -3.710938 2.640625 -3.703125 C 2.929688 -3.597656 3.085938 -3.410156 3.109375 -3.140625 C 3.117188 -3.023438 3.101562 -2.914062 3.0625 -2.8125 C 3.019531 -2.71875 2.96875 -2.65625 2.90625 -2.625 C 2.851562 -2.601562 2.800781 -2.59375 2.75 -2.59375 C 2.644531 -2.582031 2.523438 -2.601562 2.390625 -2.65625 C 2.265625 -2.707031 2.132812 -2.769531 2 -2.84375 C 1.863281 -2.914062 1.726562 -2.976562 1.59375 -3.03125 C 1.457031 -3.082031 1.328125 -3.101562 1.203125 -3.09375 L 1.125 -3.078125 C 0.757812 -2.992188 0.5 -2.820312 0.34375 -2.5625 C 0.195312 -2.3125 0.132812 -2.050781 0.15625 -1.78125 C 0.175781 -1.457031 0.3125 -1.1875 0.5625 -0.96875 C 1.226562 -0.488281 1.984375 -0.195312 2.828125 -0.09375 C 3.015625 -0.0820312 3.195312 -0.0820312 3.375 -0.09375 Z M 3.375 -0.09375 "/></g></g></g><g fill="#ffffff" fill-opacity="1"><g transform="translate(35.123344, 59.596342)"><g><path d="M 1.421875 0.171875 C 1.691406 0.148438 1.910156 0.0234375 2.078125 -0.203125 C 2.253906 -0.429688 2.410156 -0.691406 2.546875 -0.984375 L 3.21875 -2.546875 C 3.882812 -3.992188 4.546875 -5.53125 5.203125 -7.15625 C 5.359375 -7.488281 5.425781 -7.828125 5.40625 -8.171875 C 5.375 -8.609375 5.15625 -8.910156 4.75 -9.078125 C 4.488281 -9.179688 4.269531 -9.222656 4.09375 -9.203125 C 3.894531 -9.191406 3.734375 -9.132812 3.609375 -9.03125 C 3.390625 -8.851562 3.203125 -8.570312 3.046875 -8.1875 C 2.984375 -8.082031 2.519531 -7.015625 1.65625 -4.984375 L 0.28125 -1.84375 C 0.175781 -1.5 0.132812 -1.203125 0.15625 -0.953125 C 0.1875 -0.472656 0.476562 -0.113281 1.03125 0.125 C 1.175781 0.164062 1.304688 0.179688 1.421875 0.171875 Z M 1.421875 0.171875 "/></g></g></g><g fill="#ffffff" fill-opacity="1"><g transform="translate(40.769312, 59.181367)"><g><path d="M 2.375 0.046875 C 2.71875 0.0234375 3.09375 -0.00390625 3.5 -0.046875 L 4.4375 -0.140625 C 4.976562 -0.203125 5.394531 -0.351562 5.6875 -0.59375 C 5.988281 -0.84375 6.125 -1.144531 6.09375 -1.5 C 6.0625 -1.875 5.96875 -2.140625 5.8125 -2.296875 C 5.664062 -2.460938 5.488281 -2.5625 5.28125 -2.59375 C 5.082031 -2.632812 4.882812 -2.648438 4.6875 -2.640625 L 4.296875 -2.609375 C 4.054688 -2.585938 3.9375 -2.617188 3.9375 -2.703125 C 3.925781 -2.773438 3.960938 -2.859375 4.046875 -2.953125 C 4.140625 -3.054688 4.222656 -3.140625 4.296875 -3.203125 C 4.378906 -3.273438 4.4375 -3.328125 4.46875 -3.359375 C 4.945312 -3.796875 5.296875 -4.242188 5.515625 -4.703125 C 5.734375 -5.171875 5.820312 -5.632812 5.78125 -6.09375 C 5.726562 -6.894531 5.3125 -7.617188 4.53125 -8.265625 C 4.0625 -8.628906 3.519531 -8.789062 2.90625 -8.75 C 2.394531 -8.707031 1.90625 -8.539062 1.4375 -8.25 C 0.976562 -7.96875 0.597656 -7.632812 0.296875 -7.25 C -0.00390625 -6.863281 -0.164062 -6.476562 -0.1875 -6.09375 L -0.1875 -5.953125 C -0.15625 -5.597656 0 -5.273438 0.28125 -4.984375 C 0.570312 -4.691406 0.90625 -4.5625 1.28125 -4.59375 C 1.65625 -4.613281 2.003906 -4.820312 2.328125 -5.21875 L 2.53125 -5.4375 C 2.820312 -5.71875 3.007812 -5.859375 3.09375 -5.859375 C 3.101562 -5.867188 3.113281 -5.863281 3.125 -5.84375 L 3.125 -5.828125 C 3.195312 -5.773438 3.238281 -5.703125 3.25 -5.609375 C 3.257812 -5.378906 3.09375 -5.066406 2.75 -4.671875 C 2.40625 -4.273438 2.023438 -3.875 1.609375 -3.46875 C 1.296875 -3.15625 1.035156 -2.882812 0.828125 -2.65625 C 0.253906 -2.21875 -0.0078125 -1.675781 0.03125 -1.03125 C 0.0390625 -0.9375 0.0546875 -0.847656 0.078125 -0.765625 C 0.160156 -0.367188 0.394531 -0.117188 0.78125 -0.015625 C 1.164062 0.078125 1.695312 0.0976562 2.375 0.046875 Z M 2.375 0.046875 "/></g></g></g><g fill="#ffffff" fill-opacity="1"><g transform="translate(46.542395, 58.75705)"><g><path d="M 3.375 -0.09375 C 3.945312 -0.132812 4.453125 -0.3125 4.890625 -0.625 C 5.335938 -0.9375 5.6875 -1.414062 5.9375 -2.0625 C 6.101562 -2.488281 6.171875 -2.878906 6.140625 -3.234375 C 6.109375 -3.628906 5.976562 -3.972656 5.75 -4.265625 C 5.53125 -4.566406 5.242188 -4.800781 4.890625 -4.96875 C 4.546875 -5.144531 4.175781 -5.25 3.78125 -5.28125 C 3.445312 -5.320312 3.273438 -5.4375 3.265625 -5.625 C 3.253906 -5.707031 3.269531 -5.789062 3.3125 -5.875 L 3.328125 -6 C 3.421875 -6 3.539062 -6.003906 3.6875 -6.015625 C 3.84375 -6.035156 4.023438 -6.0625 4.234375 -6.09375 C 4.835938 -6.132812 5.253906 -6.28125 5.484375 -6.53125 C 5.722656 -6.78125 5.835938 -7.09375 5.828125 -7.46875 C 5.804688 -7.832031 5.6875 -8.148438 5.46875 -8.421875 C 5.25 -8.691406 4.988281 -8.835938 4.6875 -8.859375 C 4.25 -8.867188 3.023438 -8.800781 1.015625 -8.65625 C 0.429688 -8.582031 0.0976562 -8.265625 0.015625 -7.703125 C -0.00390625 -7.578125 -0.0195312 -7.328125 -0.03125 -6.953125 C -0.0390625 -6.578125 -0.03125 -6.175781 0 -5.75 C 0.0078125 -5.550781 0.0351562 -5.328125 0.078125 -5.078125 C 0.109375 -4.703125 0.160156 -4.398438 0.234375 -4.171875 C 0.316406 -3.941406 0.492188 -3.757812 0.765625 -3.625 C 0.847656 -3.59375 0.992188 -3.585938 1.203125 -3.609375 L 2.171875 -3.6875 C 2.367188 -3.707031 2.523438 -3.710938 2.640625 -3.703125 C 2.929688 -3.597656 3.085938 -3.410156 3.109375 -3.140625 C 3.117188 -3.023438 3.101562 -2.914062 3.0625 -2.8125 C 3.019531 -2.71875 2.96875 -2.65625 2.90625 -2.625 C 2.851562 -2.601562 2.800781 -2.59375 2.75 -2.59375 C 2.644531 -2.582031 2.523438 -2.601562 2.390625 -2.65625 C 2.265625 -2.707031 2.132812 -2.769531 2 -2.84375 C 1.863281 -2.914062 1.726562 -2.976562 1.59375 -3.03125 C 1.457031 -3.082031 1.328125 -3.101562 1.203125 -3.09375 L 1.125 -3.078125 C 0.757812 -2.992188 0.5 -2.820312 0.34375 -2.5625 C 0.195312 -2.3125 0.132812 -2.050781 0.15625 -1.78125 C 0.175781 -1.457031 0.3125 -1.1875 0.5625 -0.96875 C 1.226562 -0.488281 1.984375 -0.195312 2.828125 -0.09375 C 3.015625 -0.0820312 3.195312 -0.0820312 3.375 -0.09375 Z M 3.375 -0.09375 "/></g></g></g><g fill="#ffffff" fill-opacity="1"><g transform="translate(52.442589, 58.323389)"><g/></g></g><g fill="#ffffff" fill-opacity="1"><g transform="translate(56.150069, 58.050892)"><g><path d="M 2.375 0.046875 C 2.71875 0.0234375 3.09375 -0.00390625 3.5 -0.046875 L 4.4375 -0.140625 C 4.976562 -0.203125 5.394531 -0.351562 5.6875 -0.59375 C 5.988281 -0.84375 6.125 -1.144531 6.09375 -1.5 C 6.0625 -1.875 5.96875 -2.140625 5.8125 -2.296875 C 5.664062 -2.460938 5.488281 -2.5625 5.28125 -2.59375 C 5.082031 -2.632812 4.882812 -2.648438 4.6875 -2.640625 L 4.296875 -2.609375 C 4.054688 -2.585938 3.9375 -2.617188 3.9375 -2.703125 C 3.925781 -2.773438 3.960938 -2.859375 4.046875 -2.953125 C 4.140625 -3.054688 4.222656 -3.140625 4.296875 -3.203125 C 4.378906 -3.273438 4.4375 -3.328125 4.46875 -3.359375 C 4.945312 -3.796875 5.296875 -4.242188 5.515625 -4.703125 C 5.734375 -5.171875 5.820312 -5.632812 5.78125 -6.09375 C 5.726562 -6.894531 5.3125 -7.617188 4.53125 -8.265625 C 4.0625 -8.628906 3.519531 -8.789062 2.90625 -8.75 C 2.394531 -8.707031 1.90625 -8.539062 1.4375 -8.25 C 0.976562 -7.96875 0.597656 -7.632812 0.296875 -7.25 C -0.00390625 -6.863281 -0.164062 -6.476562 -0.1875 -6.09375 L -0.1875 -5.953125 C -0.15625 -5.597656 0 -5.273438 0.28125 -4.984375 C 0.570312 -4.691406 0.90625 -4.5625 1.28125 -4.59375 C 1.65625 -4.613281 2.003906 -4.820312 2.328125 -5.21875 L 2.53125 -5.4375 C 2.820312 -5.71875 3.007812 -5.859375 3.09375 -5.859375 C 3.101562 -5.867188 3.113281 -5.863281 3.125 -5.84375 L 3.125 -5.828125 C 3.195312 -5.773438 3.238281 -5.703125 3.25 -5.609375 C 3.257812 -5.378906 3.09375 -5.066406 2.75 -4.671875 C 2.40625 -4.273438 2.023438 -3.875 1.609375 -3.46875 C 1.296875 -3.15625 1.035156 -2.882812 0.828125 -2.65625 C 0.253906 -2.21875 -0.0078125 -1.675781 0.03125 -1.03125 C 0.0390625 -0.9375 0.0546875 -0.847656 0.078125 -0.765625 C 0.160156 -0.367188 0.394531 -0.117188 0.78125 -0.015625 C 1.164062 0.078125 1.695312 0.0976562 2.375 0.046875 Z M 2.375 0.046875 "/></g></g></g><g fill="#ffffff" fill-opacity="1"><g transform="translate(61.923149, 57.626575)"><g><path d="M 0.90625 -4.359375 C 1.195312 -4.390625 1.429688 -4.503906 1.609375 -4.703125 C 1.785156 -4.898438 1.867188 -5.148438 1.859375 -5.453125 C 1.828125 -5.734375 1.707031 -5.960938 1.5 -6.140625 C 1.300781 -6.316406 1.0625 -6.394531 0.78125 -6.375 C 0.488281 -6.351562 0.253906 -6.238281 0.078125 -6.03125 C -0.0859375 -5.832031 -0.164062 -5.585938 -0.15625 -5.296875 C -0.125 -5.003906 -0.0078125 -4.769531 0.1875 -4.59375 C 0.394531 -4.425781 0.632812 -4.347656 0.90625 -4.359375 Z M 1.046875 -1.71875 C 1.335938 -1.757812 1.566406 -1.875 1.734375 -2.0625 C 1.910156 -2.257812 1.992188 -2.5 1.984375 -2.78125 C 1.953125 -3.039062 1.835938 -3.257812 1.640625 -3.4375 C 1.441406 -3.613281 1.203125 -3.695312 0.921875 -3.6875 C 0.648438 -3.65625 0.429688 -3.535156 0.265625 -3.328125 C 0.0976562 -3.128906 0.0195312 -2.898438 0.03125 -2.640625 C 0.0507812 -2.359375 0.15625 -2.132812 0.34375 -1.96875 C 0.539062 -1.800781 0.773438 -1.71875 1.046875 -1.71875 Z M 1.046875 -1.71875 "/></g></g></g><g fill="#ffffff" fill-opacity="1"><g transform="translate(63.851038, 57.484876)"><g><path d="M 3.078125 0.046875 C 3.578125 0.00390625 4.019531 -0.113281 4.40625 -0.3125 C 4.800781 -0.519531 5.109375 -0.796875 5.328125 -1.140625 C 5.546875 -1.484375 5.640625 -1.890625 5.609375 -2.359375 C 5.597656 -2.492188 5.578125 -2.640625 5.546875 -2.796875 C 5.359375 -3.421875 4.992188 -3.929688 4.453125 -4.328125 C 4.421875 -4.347656 4.40625 -4.367188 4.40625 -4.390625 C 4.40625 -4.410156 4.425781 -4.445312 4.46875 -4.5 C 4.988281 -5.1875 5.222656 -5.898438 5.171875 -6.640625 C 5.140625 -7.066406 4.976562 -7.457031 4.6875 -7.8125 C 4.394531 -8.175781 3.957031 -8.429688 3.375 -8.578125 C 3.09375 -8.640625 2.8125 -8.660156 2.53125 -8.640625 C 2.007812 -8.597656 1.519531 -8.425781 1.0625 -8.125 C 0.601562 -7.820312 0.238281 -7.445312 -0.03125 -7 C -0.207031 -6.695312 -0.285156 -6.425781 -0.265625 -6.1875 C -0.234375 -5.726562 0.015625 -5.441406 0.484375 -5.328125 C 0.742188 -5.273438 0.945312 -5.253906 1.09375 -5.265625 C 1.226562 -5.273438 1.347656 -5.3125 1.453125 -5.375 C 1.554688 -5.445312 1.6875 -5.550781 1.84375 -5.6875 C 1.894531 -5.726562 1.941406 -5.765625 1.984375 -5.796875 C 2.023438 -5.828125 2.066406 -5.84375 2.109375 -5.84375 C 2.160156 -5.84375 2.207031 -5.828125 2.25 -5.796875 C 2.300781 -5.765625 2.328125 -5.71875 2.328125 -5.65625 C 2.335938 -5.601562 2.300781 -5.539062 2.21875 -5.46875 C 2.132812 -5.40625 1.984375 -5.300781 1.765625 -5.15625 C 1.671875 -5.082031 1.554688 -5.007812 1.421875 -4.9375 C 1.296875 -4.863281 1.1875 -4.796875 1.09375 -4.734375 C 0.894531 -4.523438 0.804688 -4.28125 0.828125 -4 C 0.835938 -3.75 0.925781 -3.515625 1.09375 -3.296875 C 1.257812 -3.078125 1.460938 -2.941406 1.703125 -2.890625 C 1.816406 -2.867188 1.921875 -2.859375 2.015625 -2.859375 C 2.117188 -2.859375 2.207031 -2.851562 2.28125 -2.84375 C 2.351562 -2.832031 2.390625 -2.8125 2.390625 -2.78125 C 2.398438 -2.75 2.40625 -2.722656 2.40625 -2.703125 C 2.40625 -2.679688 2.40625 -2.65625 2.40625 -2.625 C 2.382812 -2.570312 2.300781 -2.539062 2.15625 -2.53125 L 2.015625 -2.53125 C 1.640625 -2.613281 1.304688 -2.644531 1.015625 -2.625 C 0.535156 -2.582031 0.242188 -2.34375 0.140625 -1.90625 C 0.128906 -1.820312 0.128906 -1.71875 0.140625 -1.59375 C 0.148438 -1.363281 0.226562 -1.113281 0.375 -0.84375 C 0.53125 -0.582031 0.773438 -0.378906 1.109375 -0.234375 C 1.804688 -0.00390625 2.460938 0.0859375 3.078125 0.046875 Z M 3.078125 0.046875 "/></g></g></g><g fill="#ffffff" fill-opacity="1"><g transform="translate(69.200407, 57.091701)"><g><path d="M 3.453125 0.078125 C 2.878906 0.117188 2.335938 -0.0351562 1.828125 -0.390625 C 1.316406 -0.753906 0.894531 -1.253906 0.5625 -1.890625 C 0.238281 -2.535156 0.046875 -3.253906 -0.015625 -4.046875 C -0.078125 -4.859375 0.00390625 -5.601562 0.234375 -6.28125 C 0.472656 -6.96875 0.816406 -7.523438 1.265625 -7.953125 C 1.710938 -8.390625 2.222656 -8.628906 2.796875 -8.671875 C 3.378906 -8.710938 3.925781 -8.550781 4.4375 -8.1875 C 4.945312 -7.832031 5.363281 -7.332031 5.6875 -6.6875 C 6.019531 -6.050781 6.21875 -5.328125 6.28125 -4.515625 C 6.34375 -3.722656 6.253906 -2.984375 6.015625 -2.296875 C 5.785156 -1.617188 5.445312 -1.0625 5 -0.625 C 4.550781 -0.195312 4.035156 0.0351562 3.453125 0.078125 Z M 3.21875 -3.375 C 3.3125 -3.382812 3.382812 -3.492188 3.4375 -3.703125 C 3.5 -3.921875 3.519531 -4.1875 3.5 -4.5 C 3.476562 -4.789062 3.421875 -5.039062 3.328125 -5.25 C 3.242188 -5.457031 3.15625 -5.554688 3.0625 -5.546875 C 2.945312 -5.535156 2.859375 -5.421875 2.796875 -5.203125 C 2.742188 -4.984375 2.726562 -4.726562 2.75 -4.4375 C 2.769531 -4.125 2.820312 -3.863281 2.90625 -3.65625 C 3 -3.457031 3.101562 -3.363281 3.21875 -3.375 Z M 3.21875 -3.375 "/></g></g></g><g fill="#ffffff" fill-opacity="1"><g transform="translate(75.376014, 56.637799)"><g><path d="M 1.6875 0.03125 C 2.039062 0.0078125 2.34375 -0.148438 2.59375 -0.453125 C 2.84375 -0.753906 2.984375 -1.109375 3.015625 -1.515625 C 3.035156 -2.003906 3.039062 -2.3125 3.03125 -2.4375 C 3.019531 -2.539062 3.019531 -2.597656 3.03125 -2.609375 C 3.039062 -2.617188 3.113281 -2.628906 3.25 -2.640625 C 3.96875 -2.773438 4.539062 -3.015625 4.96875 -3.359375 C 5.394531 -3.710938 5.691406 -4.125 5.859375 -4.59375 C 6.023438 -5.0625 6.09375 -5.53125 6.0625 -6 C 6.007812 -6.707031 5.753906 -7.3125 5.296875 -7.8125 C 4.972656 -8.15625 4.664062 -8.398438 4.375 -8.546875 C 4.09375 -8.703125 3.765625 -8.785156 3.390625 -8.796875 C 3.015625 -8.804688 2.5 -8.789062 1.84375 -8.75 L 0.921875 -8.671875 C 0.691406 -8.660156 0.457031 -8.535156 0.21875 -8.296875 C -0.0078125 -8.054688 -0.132812 -7.757812 -0.15625 -7.40625 C -0.15625 -7.101562 -0.128906 -6.644531 -0.078125 -6.03125 L 0 -4.890625 C 0.0625 -4.140625 0.15625 -2.976562 0.28125 -1.40625 L 0.28125 -1.328125 C 0.332031 -0.648438 0.664062 -0.210938 1.28125 -0.015625 C 1.425781 0.0234375 1.5625 0.0390625 1.6875 0.03125 Z M 2.96875 -4.9375 C 2.945312 -4.925781 2.921875 -4.9375 2.890625 -4.96875 L 2.875 -4.984375 C 2.863281 -4.992188 2.851562 -5.023438 2.84375 -5.078125 L 2.796875 -5.890625 C 2.796875 -6.015625 2.832031 -6.082031 2.90625 -6.09375 C 2.988281 -6.09375 3.078125 -6.03125 3.171875 -5.90625 C 3.265625 -5.789062 3.316406 -5.679688 3.328125 -5.578125 C 3.335938 -5.472656 3.316406 -5.367188 3.265625 -5.265625 C 3.222656 -5.171875 3.171875 -5.09375 3.109375 -5.03125 C 3.046875 -4.96875 3 -4.9375 2.96875 -4.9375 Z M 2.96875 -4.9375 "/></g></g></g><g fill="#ffffff" fill-opacity="1"><g transform="translate(81.435103, 56.19246)"><g><path d="M 1.71875 0.0625 C 2.164062 0.03125 2.503906 -0.125 2.734375 -0.40625 C 2.960938 -0.695312 3.070312 -1.085938 3.0625 -1.578125 L 3 -2.703125 C 3 -2.742188 3.019531 -2.765625 3.0625 -2.765625 L 3.125 -2.765625 C 3.195312 -2.710938 3.28125 -2.644531 3.375 -2.5625 C 3.507812 -2.4375 3.660156 -2.304688 3.828125 -2.171875 C 4.003906 -2.046875 4.1875 -1.988281 4.375 -2 C 4.519531 -2.03125 4.664062 -2.109375 4.8125 -2.234375 C 4.96875 -2.359375 5.109375 -2.492188 5.234375 -2.640625 C 5.367188 -2.785156 5.492188 -2.90625 5.609375 -3 L 5.671875 -3.03125 C 5.753906 -3.03125 5.800781 -2.992188 5.8125 -2.921875 L 5.8125 -2.75 C 5.8125 -2.65625 5.816406 -2.554688 5.828125 -2.453125 C 5.890625 -1.910156 5.957031 -1.519531 6.03125 -1.28125 C 6.101562 -1.039062 6.222656 -0.84375 6.390625 -0.6875 C 6.679688 -0.46875 6.992188 -0.367188 7.328125 -0.390625 C 7.566406 -0.410156 7.78125 -0.492188 7.96875 -0.640625 C 8.164062 -0.785156 8.289062 -1.003906 8.34375 -1.296875 L 8.359375 -1.34375 C 8.359375 -1.382812 8.363281 -1.453125 8.375 -1.546875 C 8.414062 -2.035156 8.335938 -3.816406 8.140625 -6.890625 C 8.097656 -7.328125 8.050781 -7.671875 8 -7.921875 C 7.957031 -8.171875 7.867188 -8.398438 7.734375 -8.609375 C 7.515625 -8.929688 7.21875 -9.078125 6.84375 -9.046875 C 6.644531 -9.035156 6.445312 -8.972656 6.25 -8.859375 C 6.0625 -8.742188 5.890625 -8.5625 5.734375 -8.3125 C 5.171875 -7.375 4.785156 -6.726562 4.578125 -6.375 C 4.335938 -5.976562 4.195312 -5.757812 4.15625 -5.71875 C 4.113281 -5.6875 4.085938 -5.671875 4.078125 -5.671875 C 4.066406 -5.671875 4.046875 -5.679688 4.015625 -5.703125 C 3.992188 -5.722656 3.96875 -5.742188 3.9375 -5.765625 L 1.984375 -8.1875 C 1.828125 -8.375 1.65625 -8.503906 1.46875 -8.578125 C 1.289062 -8.660156 1.113281 -8.691406 0.9375 -8.671875 C 0.65625 -8.648438 0.421875 -8.53125 0.234375 -8.3125 C 0.117188 -8.175781 0.0351562 -7.976562 -0.015625 -7.71875 C -0.078125 -7.457031 -0.09375 -7.019531 -0.0625 -6.40625 C 0.125 -3.914062 0.226562 -2.429688 0.25 -1.953125 L 0.28125 -1.421875 C 0.300781 -1.253906 0.316406 -1.148438 0.328125 -1.109375 C 0.429688 -0.703125 0.628906 -0.398438 0.921875 -0.203125 C 1.222656 -0.00390625 1.488281 0.0820312 1.71875 0.0625 Z M 1.71875 0.0625 "/></g></g></g><path stroke-linecap="butt" transform="matrix(0.662049, -0.0486602, 0.0486602, 0.662049, -0.34259, 36.909287)" fill="none" stroke-linejoin="miter" d="M 12.534476 38.235713 C 13.728548 38.205472 14.712123 37.988652 15.473897 37.578523 C 16.235671 37.168394 16.799811 36.637534 17.160447 35.985513 C 17.521082 35.333492 17.700225 34.662231 17.704174 33.966293 C 17.703719 33.169727 17.476377 32.409587 17.033454 31.692604 C 16.488519 30.838319 15.65707 30.269787 14.533239 29.986578 C 14.139354 29.886825 13.772394 29.741849 13.432359 29.55165 C 13.092324 29.36145 12.903486 29.040758 12.871282 28.595873 C 12.885346 28.484803 12.927459 28.393494 12.998914 28.304342 C 13.075807 28.22149 13.150111 28.173849 13.226833 28.173588 C 13.319436 28.198095 13.395988 28.280424 13.44389 28.431451 C 13.497661 28.582909 13.634715 28.805391 13.848752 29.104335 C 14.139342 29.485607 14.538062 29.68012 15.051213 29.682435 C 15.334629 29.679665 15.611051 29.611478 15.869176 29.471143 C 16.132738 29.337109 16.33649 29.133775 16.473702 28.872449 C 16.610915 28.611123 16.678136 28.338753 16.681665 28.0499 C 16.678804 27.607172 16.550978 27.17886 16.286451 26.764101 C 16.028654 26.338036 15.677222 25.981793 15.243892 25.696233 C 14.571416 25.292792 13.836895 25.091299 13.052066 25.092617 C 12.143567 25.090746 11.273911 25.36314 10.443531 25.903933 C 9.619019 26.445156 9.050488 27.276605 8.732067 28.397848 C 8.656821 28.69913 8.618943 28.973658 8.61757 29.233167 C 8.619854 30.56679 9.534428 31.690153 11.36673 32.609558 C 11.570665 32.724852 11.711771 32.811926 11.784611 32.864482 C 12.448199 33.308571 12.774432 33.686563 12.776339 33.981716 C 12.779881 34.09408 12.738631 34.173652 12.657595 34.232599 C 12.57656 34.291545 12.480075 34.319855 12.37401 34.31796 C 12.214697 34.318051 12.072297 34.248582 11.946378 34.115422 C 11.262414 33.386623 10.634299 33.021844 10.056162 33.020653 C 9.619303 33.023946 9.247519 33.185428 8.946249 33.511399 C 8.639111 33.836939 8.489821 34.262584 8.486644 34.787472 C 8.490811 35.613812 8.906638 36.458608 9.740858 37.310555 C 10.227096 37.75931 10.955147 38.048831 11.913274 38.178255 C 12.264523 38.215872 12.475359 38.237269 12.534476 38.235713 Z M 18.488783 38.142329 C 18.913474 38.144043 19.28897 38.012335 19.608969 37.752643 C 19.928969 37.492951 20.190884 37.140486 20.394285 36.701118 C 20.416635 36.637858 20.443991 36.586766 20.48809 36.548706 C 20.532621 36.504777 20.687791 36.48078 20.953169 36.482585 L 22.137921 36.49886 L 23.465675 36.496145 C 23.719316 36.497087 23.893477 36.616092 23.993163 36.865329 C 24.193568 37.269474 24.460422 37.572299 24.794157 37.767936 C 25.122024 37.963141 25.456792 38.064449 25.799324 38.060124 C 26.123819 38.060373 26.41241 37.98718 26.676834 37.841408 C 26.947559 37.690199 27.158042 37.47556 27.30328 37.185323 C 27.41443 36.957483 27.466032 36.737066 27.464817 36.512768 C 27.467484 36.235653 27.360975 35.838408 27.162466 35.328198 C 26.885588 34.599818 26.413821 33.231689 25.753896 31.212505 C 25.283855 29.820902 24.874576 28.646173 24.519761 27.693757 C 24.165377 26.735472 23.853549 26.081227 23.578839 25.724722 C 23.180198 25.288305 22.724086 25.071874 22.199198 25.068697 C 21.750601 25.071126 21.348612 25.242189 20.986932 25.587321 C 20.923502 25.647561 20.865078 25.71997 20.806653 25.792379 C 20.701111 25.943928 20.504442 26.371991 20.221652 27.088737 C 20.080126 27.408748 18.952418 30.228781 16.838528 35.548836 C 16.735233 35.830355 16.679318 36.109457 16.677082 36.380704 C 16.681407 36.723236 16.762455 37.065506 16.920225 37.407516 C 17.059265 37.683246 17.228681 37.866805 17.423467 37.946024 C 17.624121 38.025675 17.815195 38.07512 17.990388 38.099797 L 18.119065 38.115155 C 18.24731 38.136382 18.370549 38.14544 18.488783 38.142329 Z M 22.134976 33.247611 C 21.952188 33.245977 21.865023 33.227769 21.862174 33.186258 C 21.917317 33.078207 21.992655 32.936238 22.087323 32.772089 C 22.188722 32.596634 22.259054 32.442497 22.310485 32.304672 C 22.345697 32.30726 22.369171 32.308985 22.391782 32.322447 C 22.4793 32.57669 22.5644 32.783553 22.647082 32.943036 C 22.715177 33.060146 22.744781 33.139025 22.747199 33.186404 C 22.745905 33.20401 22.733305 33.214884 22.7157 33.21359 Z M 31.6581 38.142625 C 32.242104 38.144248 32.727978 37.95575 33.103984 37.576269 C 33.485858 37.19722 33.68986 36.669392 33.722289 35.987347 L 33.735157 33.403988 L 33.719034 31.054507 C 33.718148 30.263809 33.737637 29.757821 33.765764 29.535679 C 33.776116 29.394834 33.824098 29.303957 33.898402 29.256316 C 33.972706 29.208675 34.033548 29.183646 34.074628 29.186665 C 34.381518 29.18562 34.719044 29.169127 35.087206 29.137184 C 35.455369 29.105241 35.780465 29.017031 36.05749 28.860385 C 36.698442 28.488577 37.017999 27.833537 37.016158 26.895263 C 37.014761 26.352338 36.874335 25.9349 36.582282 25.653824 C 36.296096 25.373179 35.979535 25.184705 35.620862 25.08754 C 35.273926 24.991238 34.988093 24.946628 34.775963 24.942837 L 29.211737 24.946887 C 28.645338 24.946559 28.100087 25.05989 27.57512 25.298616 C 26.788316 25.647903 26.395488 26.256257 26.390768 27.123245 C 26.392766 27.577711 26.540355 27.977974 26.839832 28.318599 C 27.13931 28.659223 27.441114 28.887914 27.751114 29.005103 C 27.911551 29.069997 28.090888 29.118579 28.277818 29.144119 C 28.470617 29.17009 28.770344 29.18622 29.177861 29.180771 C 29.283926 29.182666 29.394566 29.202598 29.504343 29.234268 C 29.619988 29.266369 29.678935 29.347404 29.687482 29.471938 C 29.76373 30.923101 29.800296 32.91417 29.79761 35.439276 L 29.798666 36.147382 C 29.798235 36.153251 29.819382 36.26691 29.863403 36.470753 C 29.906991 36.680466 29.990366 36.910803 30.118963 37.168065 C 30.247561 37.425327 30.437431 37.651691 30.682707 37.846725 C 30.927552 38.047629 31.251014 38.142206 31.6581 38.142625 Z M 46.95614 38.240379 C 47.805955 38.237937 48.582406 38.029495 49.285926 37.609184 C 49.995315 37.189304 50.570237 36.511731 51.0157 35.588633 C 51.304188 34.95491 51.447518 34.36952 51.446121 33.826595 C 51.4499 33.213248 51.294627 32.676714 50.981164 32.205256 C 50.673139 31.740099 50.270616 31.356499 49.767294 31.059895 C 49.270273 30.757853 48.718108 30.563863 48.123399 30.46705 C 47.640192 30.378433 47.400354 30.189698 47.398015 29.900414 C 47.400773 29.782612 47.427005 29.666535 47.48258 29.552615 L 47.531163 29.373278 C 47.667433 29.365593 47.851083 29.355491 48.08755 29.34927 C 48.323586 29.348917 48.596127 29.333548 48.90431 29.314897 C 49.813241 29.3109 50.451265 29.139485 50.830552 28.795648 C 51.210269 28.445941 51.414964 27.988967 51.444634 27.424724 C 51.449106 26.882231 51.302119 26.393508 51.003674 25.958555 C 50.716535 25.530334 50.345603 25.278862 49.895882 25.216306 C 49.2273 25.161266 47.376383 25.137329 44.343564 25.138628 C 43.461388 25.179993 42.921755 25.61825 42.730967 26.447962 C 42.689115 26.615993 42.638467 26.983986 42.584891 27.552371 C 42.531746 28.114888 42.504493 28.72651 42.503994 29.3755 C 42.506333 29.664784 42.516958 30.001878 42.536301 30.380916 C 42.536836 30.935578 42.585782 31.393494 42.683573 31.748795 C 42.775927 32.097797 43.019738 32.393029 43.41587 32.622752 C 43.535659 32.678759 43.746064 32.706024 44.058822 32.70541 L 45.53044 32.671967 C 45.831461 32.670491 46.059902 32.693182 46.233802 32.735464 C 46.680764 32.915822 46.90697 33.209759 46.906551 33.616845 C 46.904485 33.805501 46.862634 33.973532 46.780997 34.120938 C 46.70566 34.262907 46.622467 34.351196 46.537288 34.386237 C 46.452541 34.41541 46.362787 34.432414 46.280197 34.432244 C 46.109146 34.431472 45.92981 34.38289 45.742187 34.286496 C 45.560432 34.190534 45.367803 34.081972 45.170168 33.961241 C 44.972533 33.840511 44.774467 33.725649 44.581407 33.622956 C 44.394215 33.520694 44.203141 33.471249 44.008185 33.47462 L 43.894958 33.489899 C 43.339263 33.584761 42.932961 33.814509 42.670183 34.178711 C 42.407836 34.537044 42.27874 34.928772 42.277889 35.341726 C 42.2773 35.831403 42.458374 36.257728 42.810237 36.608103 C 43.761134 37.397823 44.855544 37.92078 46.105202 38.177835 C 46.391467 38.216576 46.679025 38.237712 46.95614 38.240379 Z M 52.889312 38.434553 C 53.302266 38.435403 53.651007 38.266328 53.935534 37.927326 C 54.21963 37.594192 54.477402 37.217822 54.71472 36.798647 L 55.912953 34.54432 C 57.077792 32.423245 58.233652 30.183505 59.385539 27.837268 C 59.651506 27.349396 59.782498 26.851603 59.784812 26.338452 C 59.786605 25.671857 59.497479 25.190387 58.91873 24.876438 C 58.548058 24.701688 58.224596 24.607111 57.947049 24.610313 C 57.646028 24.611789 57.39308 24.681701 57.193209 24.832217 C 56.850598 25.078447 56.537852 25.480277 56.24824 26.049015 C 56.154866 26.195559 55.338756 27.746341 53.800773 30.689625 L 51.415872 35.281732 C 51.20229 35.779354 51.099086 36.220187 51.095386 36.591631 C 51.096012 37.305606 51.502338 37.878293 52.314797 38.303823 C 52.526756 38.390205 52.718262 38.433781 52.889312 38.434553 Z M 62.856223 38.33518 C 63.381111 38.338357 63.948372 38.326949 64.569745 38.301816 L 65.975946 38.275366 C 66.798143 38.247293 67.442468 38.070441 67.910213 37.727205 C 68.383828 37.3844 68.616571 36.947187 68.620179 36.416431 C 68.614639 35.849601 68.514862 35.441051 68.303674 35.183619 C 68.098354 34.926618 67.845053 34.760494 67.543771 34.685248 C 67.248357 34.610433 66.949925 34.576698 66.649335 34.572306 L 66.059031 34.576121 C 65.693456 34.572852 65.509545 34.506233 65.514028 34.364956 C 65.510055 34.25846 65.583667 34.139965 65.717258 34.008179 C 65.856718 33.876823 65.995315 33.757204 66.120882 33.654329 C 66.246016 33.557322 66.334215 33.481201 66.372445 33.442709 C 67.15389 32.845218 67.732094 32.203288 68.11206 31.529086 C 68.492459 30.849016 68.678332 30.166449 68.682281 29.470511 C 68.682245 28.266859 68.127809 27.140464 67.030277 26.098057 C 66.360298 25.500092 65.568124 25.199958 64.647887 25.197224 C 63.868927 25.198973 63.111806 25.385235 62.376094 25.761878 C 61.640814 26.132653 61.028602 26.595077 60.534023 27.142849 C 60.045312 27.691053 59.7683 28.248917 59.702986 28.81644 L 59.686595 29.039444 C 59.689287 29.564763 59.88279 30.062805 60.278844 30.534433 C 60.674465 31.011929 61.152757 31.247692 61.719156 31.24802 C 62.285555 31.248348 62.836585 30.976136 63.366375 30.430951 L 63.720031 30.114731 C 64.179059 29.729552 64.476708 29.53312 64.600379 29.536309 C 64.623853 29.538035 64.640596 29.551066 64.649745 29.587139 L 64.648882 29.598877 C 64.754777 29.683363 64.811567 29.793741 64.807946 29.92328 C 64.81184 30.271681 64.524555 30.728485 63.95239 31.288256 C 63.380226 31.848027 62.766982 32.404779 62.106789 32.958079 C 61.603231 33.387187 61.179845 33.769086 60.841639 34.115943 C 59.936523 34.710245 59.483375 35.497072 59.481765 36.482294 C 59.478576 36.605965 59.49256 36.736798 59.512845 36.862194 C 59.585789 37.47528 59.910727 37.870878 60.48136 38.054425 C 61.051562 38.24384 61.841227 38.337282 62.856223 38.33518 Z M 73.111986 38.239337 C 73.967669 38.237326 74.74412 38.028884 75.44764 37.608573 C 76.151161 37.188262 76.731952 36.51112 77.177414 35.588022 C 77.465902 34.954299 77.609232 34.368909 77.607835 33.825985 C 77.605745 33.212206 77.450472 32.675672 77.142878 32.204646 C 76.834853 31.739488 76.43233 31.355888 75.929009 31.059284 C 75.426119 30.756811 74.879822 30.563252 74.285113 30.466439 C 73.801907 30.377822 73.562068 30.189087 73.559729 29.899803 C 73.562056 29.78787 73.58872 29.665924 73.644295 29.552004 L 73.687009 29.372236 C 73.829148 29.364983 74.012798 29.35488 74.248833 29.354528 C 74.479432 29.347875 74.751972 29.332505 75.066024 29.314286 C 75.969087 29.309858 76.61298 29.138875 76.992266 28.795037 C 77.371984 28.44533 77.576678 27.988356 77.606349 27.424114 C 77.604952 26.881189 77.457965 26.392466 77.164957 25.963813 C 76.872381 25.529292 76.501448 25.27782 76.057596 25.215696 C 75.383145 25.160224 73.532229 25.136287 70.505278 25.138018 C 69.617233 25.178951 69.08347 25.61764 68.886813 26.44692 C 68.84453 26.620819 68.800182 26.983375 68.746605 27.55176 C 68.69346 28.114277 68.666207 28.725899 68.665709 29.374889 C 68.668047 29.664173 68.678673 30.001268 68.698016 30.380305 C 68.69855 30.934967 68.747497 31.392883 68.839419 31.747753 C 68.937641 32.097187 69.181452 32.392418 69.577153 32.62801 C 69.691505 32.677717 69.907778 32.705413 70.214667 32.704368 L 71.686286 32.670925 C 71.987306 32.669449 72.221617 32.692571 72.389648 32.734422 C 72.842479 32.915211 73.062816 33.208717 73.062397 33.615803 C 73.0662 33.80489 73.024348 33.972921 72.942711 34.120327 C 72.867374 34.262296 72.784182 34.350585 72.699003 34.385626 C 72.607955 34.420236 72.524502 34.431803 72.441911 34.431633 C 72.270861 34.430861 72.091093 34.388147 71.90347 34.291754 C 71.721715 34.195792 71.529517 34.081361 71.331883 33.960631 C 71.134248 33.8399 70.936181 33.725039 70.743121 33.622345 C 70.555498 33.525952 70.364856 33.470638 70.1699 33.474009 L 70.056672 33.489288 C 69.500978 33.584151 69.094675 33.813898 68.831897 34.1781 C 68.56955 34.536433 68.440454 34.928161 68.439604 35.341115 C 68.439014 35.830792 68.61422 36.256686 68.971951 36.607493 C 69.91698 37.396781 71.017258 37.920169 72.261048 38.176793 C 72.553181 38.215966 72.834871 38.23667 73.111986 38.239337 Z M 86.085314 38.337332 C 86.610633 38.334641 87.183764 38.323664 87.804705 38.3044 L 89.211338 38.272081 C 90.027235 38.249445 90.67199 38.066725 91.145605 37.72392 C 91.612919 37.386552 91.851531 36.949771 91.849702 36.412715 C 91.85003 35.846316 91.744385 35.437335 91.538634 35.186202 C 91.327445 34.92877 91.074144 34.762647 90.772862 34.687401 C 90.477449 34.612586 90.179447 34.572982 89.878427 34.574458 L 89.288553 34.572405 C 88.928416 34.575436 88.744936 34.502948 88.74312 34.367109 C 88.745015 34.261044 88.812758 34.142118 88.952218 34.010762 C 89.09211 33.873538 89.224407 33.759357 89.355841 33.656913 C 89.481408 33.554037 89.563306 33.483353 89.607836 33.439424 C 90.383413 32.841502 90.961185 32.20544 91.341583 31.52537 C 91.72155 30.851169 91.913724 30.163165 91.911373 29.472664 C 91.911337 28.269012 91.362768 27.143048 90.265237 26.100641 C 89.58982 25.496376 88.797215 25.20211 87.882847 25.199807 C 87.103887 25.201557 86.346766 25.387819 85.605186 25.764031 C 84.875774 26.135237 84.257694 26.597229 83.768983 27.145433 C 83.280272 27.693637 83.00326 28.2515 82.937946 28.819023 L 82.921555 29.042028 C 82.918809 29.561047 83.118181 30.059521 83.507935 30.536586 C 83.903988 31.008213 84.388149 31.244407 84.948679 31.244304 C 85.520947 31.245063 86.066107 30.97242 86.601335 30.433535 L 86.949554 30.111014 C 87.41445 29.726267 87.705799 29.535272 87.83577 29.533024 C 87.853375 29.534318 87.869687 29.553218 87.879268 29.583423 L 87.877974 29.601029 C 87.989737 29.685947 88.04109 29.790025 88.043337 29.919996 C 88.040932 30.273833 87.753646 30.730638 87.18735 31.29084 C 86.615186 31.850611 86.001942 32.407362 85.335881 32.960232 C 84.832322 33.38934 84.414805 33.771669 84.071162 34.112227 C 83.165614 34.712397 82.712467 35.499224 82.711288 36.478578 C 82.713536 36.608548 82.722083 36.733082 82.741937 36.864346 C 82.82118 37.471995 83.14025 37.867162 83.710452 38.056577 C 84.281085 38.240124 85.076618 38.333997 86.085314 38.337332 Z M 93.098172 31.548274 C 93.535463 31.539113 93.894215 31.394374 94.18116 31.102751 C 94.473542 30.817429 94.624387 30.4509 94.650437 30.016197 C 94.634545 29.590212 94.489374 29.237328 94.197752 28.950383 C 93.911567 28.669738 93.556775 28.519756 93.126647 28.511743 C 92.701093 28.521766 92.34234 28.666505 92.055826 28.952259 C 91.769744 29.232145 91.619331 29.592805 91.610886 30.028802 C 91.620479 30.460224 91.765649 30.813108 92.045535 31.099191 C 92.33172 31.379836 92.680643 31.529386 93.098172 31.548274 Z M 93.036326 35.520491 C 93.456011 35.510036 93.808464 35.370734 94.082378 35.095854 C 94.36216 34.821406 94.511711 34.472483 94.525161 34.048655 C 94.508406 33.634406 94.362805 33.287391 94.087925 33.013477 C 93.807608 32.733263 93.464123 32.590012 93.052462 32.571556 C 92.632345 32.58788 92.28533 32.733481 92.016853 33.014661 C 91.74294 33.289541 91.599689 33.633026 91.575364 34.044255 C 91.585819 34.463941 91.725552 34.810525 92 35.090307 C 92.27488 35.364221 92.618366 35.507472 93.036326 35.520491 Z M 98.795852 38.398312 C 99.550907 38.400706 100.233292 38.267954 100.841712 38.01766 C 101.450564 37.761498 101.938503 37.384344 102.29923 36.891636 C 102.660389 36.39306 102.840224 35.792652 102.838736 35.090414 C 102.842527 34.878284 102.823706 34.652692 102.794011 34.414499 C 102.593072 33.455692 102.103802 32.646799 101.338371 31.982816 C 101.293148 31.955891 101.272262 31.918954 101.274419 31.889612 C 101.277007 31.854401 101.310663 31.797872 101.382118 31.70872 C 102.237686 30.744962 102.662432 29.702336 102.667232 28.593444 C 102.66773 27.944454 102.470254 27.339915 102.08067 26.780259 C 101.691518 26.214735 101.067716 25.791271 100.197957 25.503135 C 99.782324 25.378182 99.368246 25.312346 98.955291 25.311496 C 98.152857 25.31152 97.394442 25.515387 96.662873 25.915936 C 95.937604 26.311048 95.344554 26.833882 94.890453 27.473133 C 94.60403 27.918201 94.456035 28.32624 94.459066 28.686378 C 94.45598 29.370579 94.806379 29.82115 95.497663 30.048966 C 95.861774 30.152431 96.152613 30.209209 96.376911 30.207994 C 96.577736 30.205054 96.763542 30.165609 96.929757 30.071621 C 97.09554 29.983502 97.306285 29.845585 97.56156 29.663739 C 97.636296 29.61023 97.704732 29.562158 97.772305 29.525823 C 97.84661 29.478182 97.912889 29.459452 97.977874 29.458329 C 98.054597 29.458067 98.123294 29.486717 98.184397 29.53841 C 98.251369 29.590535 98.287273 29.663977 98.297977 29.759167 C 98.297375 29.847627 98.23222 29.931341 98.09578 30.021617 C 97.959339 30.111893 97.730557 30.254384 97.397697 30.448228 C 97.243219 30.543078 97.058968 30.641641 96.845805 30.732178 C 96.638942 30.817278 96.466859 30.910834 96.329987 31.006978 C 95.996094 31.29515 95.833943 31.654947 95.83223 32.079639 C 95.834399 32.451513 95.943495 32.813546 96.159519 33.165738 C 96.381412 33.51836 96.677348 33.74662 97.046895 33.856385 C 97.209058 33.897805 97.366214 33.927056 97.518796 33.938271 C 97.677247 33.949917 97.805923 33.965275 97.904826 33.984345 C 98.003728 34.003415 98.059826 34.042939 98.062244 34.090319 C 98.07053 34.13813 98.073811 34.173772 98.071223 34.208983 C 98.069066 34.238326 98.060178 34.278975 98.039553 34.31876 C 98.009609 34.405063 97.888356 34.449253 97.669926 34.4509 L 97.464527 34.435803 C 96.921943 34.272018 96.426136 34.194275 95.977971 34.190836 C 95.252259 34.190599 94.792107 34.510793 94.603384 35.151849 C 94.558683 35.278369 94.5353 35.435956 94.533666 35.618744 C 94.53756 35.967144 94.633194 36.351789 94.832736 36.767671 C 95.032278 37.183554 95.373267 37.521329 95.862002 37.77556 C 96.887453 38.193144 97.863447 38.400584 98.795852 38.398312 Z M 107.414907 38.494885 C 106.541618 38.495602 105.743576 38.195036 105.020349 37.599057 C 104.30299 37.00351 103.730267 36.206184 103.30218 35.20708 C 102.874093 34.207977 102.6659 33.10703 102.665864 31.903378 C 102.660822 30.687558 102.877752 29.582456 103.304916 28.587211 C 103.732512 27.586097 104.304324 26.79029 105.020784 26.193923 C 105.743113 25.597987 106.544071 25.296942 107.417359 25.296226 C 108.302385 25.296372 109.106296 25.597369 109.823654 26.192916 C 110.546882 26.788895 111.119605 27.586221 111.547692 28.585324 C 111.970342 29.578128 112.183972 30.685374 112.189014 31.901195 C 112.188618 33.110715 111.97212 34.209948 111.544956 35.205194 C 111.11736 36.206308 110.545548 37.002114 109.822788 37.603919 C 109.106328 38.200286 108.299932 38.495031 107.414907 38.494885 Z M 107.462993 33.264905 C 107.616437 33.264383 107.745886 33.10869 107.857637 32.792391 C 107.969388 32.476091 108.027199 32.090924 108.025632 31.63059 C 108.029071 31.182425 107.968648 30.800368 107.856532 30.479415 C 107.744416 30.158462 107.614355 30.001396 107.46091 30.001919 C 107.307465 30.002441 107.172149 30.157702 107.059966 30.47987 C 106.947783 30.802039 106.889973 31.187205 106.892403 31.635802 C 106.888533 32.089837 106.948524 32.477762 107.055202 32.792415 C 107.167749 33.1075 107.30368 33.264996 107.462993 33.264905 Z M 114.101997 38.22525 C 114.639054 38.223422 115.114916 38.010587 115.529152 37.592615 C 115.943388 37.174643 116.193044 36.667871 116.277689 36.078168 C 116.367248 35.34132 116.407623 34.872268 116.410551 34.671875 C 116.409598 34.524299 116.415636 34.44214 116.434536 34.425828 C 116.447567 34.409085 116.560363 34.399675 116.761188 34.396735 C 117.850227 34.27027 118.733776 33.969395 119.406398 33.487811 C 120.084889 33.006657 120.582057 32.423674 120.892032 31.738428 C 121.202439 31.047313 121.353964 30.350421 121.352476 29.648183 C 121.354257 28.58037 121.039227 27.648579 120.407819 26.84694 C 119.951956 26.306013 119.520953 25.90852 119.114809 25.65446 C 118.708233 25.406268 118.223903 25.252665 117.65638 25.187351 C 117.088857 25.122038 116.306616 25.088145 115.303357 25.091109 L 113.911049 25.089079 C 113.56308 25.087105 113.196734 25.254887 112.812442 25.586556 C 112.440318 25.91322 112.220175 26.339557 112.170049 26.860995 C 112.136405 27.318741 112.120719 28.013816 112.117122 28.94579 L 112.121143 30.657156 C 112.132655 31.784948 112.133226 33.543262 112.135454 35.921223 L 112.138133 36.045325 C 112.134366 37.059889 112.597051 37.748823 113.514451 38.111263 C 113.715536 38.185045 113.913341 38.223185 114.101997 38.22525 Z M 116.585114 30.932152 C 116.56164 30.930427 116.528154 30.904365 116.473351 30.847234 L 116.439002 30.832909 C 116.428991 30.808573 116.427004 30.755324 116.427174 30.672734 L 116.439738 29.458207 C 116.453109 29.276283 116.50109 29.185405 116.601718 29.181001 C 116.725389 29.18419 116.859764 29.28257 116.998543 29.481578 C 117.137322 29.680586 117.207405 29.850944 117.208358 29.99852 C 117.208449 30.157833 117.167892 30.308259 117.086686 30.449796 C 117.005912 30.585465 116.914694 30.702666 116.813465 30.795529 C 116.718536 30.882956 116.638363 30.930166 116.585114 30.932152 Z M 123.302639 38.276066 C 123.963797 38.271558 124.491613 38.074343 124.875213 37.671819 C 125.270549 37.270159 125.483439 36.701682 125.513882 35.966389 L 125.560521 34.288249 C 125.559397 34.223263 125.591327 34.190209 125.656313 34.189085 L 125.73761 34.206861 C 125.832199 34.284616 125.948105 34.393439 126.090335 34.545498 C 126.281932 34.748388 126.497002 34.953004 126.747283 35.160207 C 126.991696 35.366979 127.249311 35.474417 127.532726 35.471647 C 127.75245 35.452395 127.984081 35.351415 128.227188 35.174575 C 128.464426 34.997304 128.69079 34.807433 128.905849 34.610831 C 129.11547 34.407929 129.310335 34.245244 129.484143 34.128214 L 129.574759 34.099472 C 129.692993 34.096362 129.765833 34.148918 129.781543 34.256277 L 129.768864 34.509055 C 129.746775 34.649037 129.735129 34.807488 129.734358 34.978538 C 129.78133 35.784424 129.837962 36.37861 129.923153 36.744786 C 130.002475 37.110531 130.156964 37.416898 130.39249 37.664318 C 130.796738 38.024444 131.255438 38.205664 131.768589 38.207979 C 132.128726 38.204947 132.465991 38.111731 132.769509 37.915731 C 133.073458 37.713862 133.279106 37.404463 133.387316 36.975799 L 133.397929 36.911676 C 133.420279 36.848416 133.445217 36.749945 133.461438 36.609532 C 133.592508 35.869835 133.671826 33.185154 133.688515 28.542891 C 133.689877 27.882164 133.662849 27.366857 133.613732 26.991531 C 133.570052 26.622506 133.466393 26.266773 133.301891 25.936069 C 133.009054 25.424826 132.567699 25.168177 131.995431 25.167418 C 131.706147 25.169757 131.411256 25.248386 131.104889 25.402876 C 130.804391 25.557797 130.520465 25.808339 130.264418 26.161235 C 129.316691 27.495836 128.658668 28.421011 128.295784 28.943062 C 127.911844 29.510767 127.68859 29.818871 127.614286 29.866512 C 127.54585 29.914584 127.503045 29.935039 127.485008 29.939613 C 127.461534 29.937888 127.427185 29.923563 127.394131 29.891632 C 127.355208 29.85927 127.323016 29.815603 127.285818 29.759766 L 124.600076 25.921917 C 124.385176 25.634711 124.147062 25.422502 123.879437 25.290727 C 123.61811 25.153515 123.351177 25.092594 123.07993 25.090358 C 122.666976 25.089508 122.307361 25.245984 122.007816 25.548481 C 121.816663 25.740939 121.665557 26.030746 121.542761 26.417036 C 121.426265 26.79789 121.36035 27.453872 121.339148 28.384552 C 121.340641 32.137215 121.335185 34.378906 121.323211 35.103755 L 121.323666 35.900321 C 121.322293 36.159831 121.328253 36.319576 121.341114 36.385423 C 121.455999 36.989792 121.722514 37.457799 122.141087 37.783576 C 122.56553 38.109784 122.948801 38.27366 123.302639 38.276066 Z M 123.302639 38.276066 " stroke="#233d4d" stroke-width="0.8" stroke-opacity="1" stroke-miterlimit="4"/></svg>