<svg xmlns="http://www.w3.org/2000/svg" xmlns:xlink="http://www.w3.org/1999/xlink" width="1080" zoomAndPan="magnify" viewBox="0 0 810 809.999993" height="1080" preserveAspectRatio="xMidYMid meet" version="1.0"><defs><g/><clipPath id="191a491646"><path d="M 234 320 L 508 320 L 508 433.648438 L 234 433.648438 Z M 234 320 " clip-rule="nonzero"/></clipPath><clipPath id="1fd0db7940"><path d="M 231 123 L 579 123 L 579 433.648438 L 231 433.648438 Z M 231 123 " clip-rule="nonzero"/></clipPath><clipPath id="3bd20d420c"><path d="M 186 544 L 638 544 L 638 643 L 186 643 Z M 186 544 " clip-rule="nonzero"/></clipPath><clipPath id="8bd55b04a9"><path d="M 184.171875 573.886719 L 634.800781 542.578125 L 639.726562 613.4375 L 189.09375 644.75 Z M 184.171875 573.886719 " clip-rule="nonzero"/></clipPath><clipPath id="e20147e5b3"><path d="M 219.601562 571.425781 L 599.351562 545.039062 C 608.746094 544.386719 618.019531 547.496094 625.125 553.675781 C 632.230469 559.859375 636.589844 568.613281 637.242188 578.007812 C 637.894531 587.40625 634.789062 596.675781 628.605469 603.785156 C 622.421875 610.890625 613.671875 615.25 604.273438 615.902344 L 224.527344 642.289062 C 215.128906 642.941406 205.859375 639.832031 198.75 633.652344 C 191.644531 627.46875 187.285156 618.714844 186.632812 609.320312 C 185.980469 599.921875 189.085938 590.652344 195.269531 583.542969 C 201.453125 576.4375 210.207031 572.078125 219.601562 571.425781 Z M 219.601562 571.425781 " clip-rule="nonzero"/></clipPath><clipPath id="0361e6f86b"><path d="M 186 544 L 638 544 L 638 643 L 186 643 Z M 186 544 " clip-rule="nonzero"/></clipPath><clipPath id="df3a80273c"><path d="M 184.171875 573.886719 L 634.585938 542.59375 L 639.523438 613.671875 L 189.109375 644.96875 Z M 184.171875 573.886719 " clip-rule="nonzero"/></clipPath><clipPath id="51ebe542e6"><path d="M 184.179688 573.886719 L 636.265625 542.476562 L 641.246094 614.148438 L 189.160156 645.558594 Z M 184.179688 573.886719 " clip-rule="nonzero"/></clipPath><clipPath id="18328fb282"><path d="M 219.609375 571.425781 L 599.335938 545.042969 C 608.730469 544.390625 618 547.496094 625.105469 553.675781 C 632.214844 559.859375 636.570312 568.613281 637.226562 578.007812 C 637.878906 587.40625 634.769531 596.675781 628.589844 603.78125 C 622.40625 610.886719 613.65625 615.246094 604.257812 615.898438 L 224.53125 642.28125 C 215.136719 642.9375 205.867188 639.828125 198.761719 633.648438 C 191.65625 627.464844 187.296875 618.710938 186.644531 609.316406 C 185.988281 599.921875 189.097656 590.648438 195.277344 583.542969 C 201.460938 576.4375 210.214844 572.078125 219.609375 571.425781 Z M 219.609375 571.425781 " clip-rule="nonzero"/></clipPath></defs><path fill="#fa9712" d="M 526.695312 250.859375 C 527.796875 247.761719 530.335938 245.746094 530.335938 245.746094 C 530.335938 245.746094 503.613281 221.121094 501.109375 193.445312 C 498.605469 165.765625 523.722656 153.980469 538.761719 152.511719 C 553.800781 151.039062 570.613281 161.707031 575.386719 189.230469 C 580.164062 216.75 561.660156 241.167969 561.707031 242.542969 C 561.707031 242.542969 572.007812 250.421875 566.617188 255.59375 C 562.769531 259.285156 558.75 256.378906 556.777344 254.425781 C 555.992188 253.648438 555.527344 253.015625 555.527344 253.015625 C 555.527344 253.015625 555.496094 260.359375 548.976562 262.8125 C 544.09375 264.652344 541.351562 259.355469 540.28125 256.574219 C 539.921875 255.648438 539.753906 254.996094 539.753906 254.996094 C 539.753906 254.996094 534.128906 266.65625 528.335938 259.292969 C 525.851562 256.136719 525.867188 253.195312 526.695312 250.859375 Z M 526.695312 250.859375 " fill-opacity="1" fill-rule="nonzero"/><path fill="#fdefe3" d="M 565.074219 293.328125 C 573.117188 299.453125 573.746094 306.097656 569.589844 310.296875 C 565.429688 314.5 557.605469 315.972656 553.277344 307.355469 C 552.03125 310.480469 548.59375 313.339844 545.023438 314.5625 L 545.023438 314.570312 C 541.507812 315.773438 537.851562 315.40625 536.019531 312.171875 C 532.652344 306.222656 534.292969 301.386719 540.417969 292.523438 C 546.542969 283.660156 539.695312 256.800781 539.695312 256.800781 L 540.28125 256.574219 C 541.351562 259.355469 544.09375 264.652344 548.976562 262.8125 C 555.496094 260.359375 555.527344 253.015625 555.527344 253.015625 C 555.527344 253.015625 555.992188 253.648438 556.777344 254.425781 C 556.777344 254.425781 557.03125 287.203125 565.074219 293.328125 Z M 565.074219 293.328125 " fill-opacity="1" fill-rule="nonzero"/><path fill="#fdefe3" d="M 539.695312 256.800781 C 539.695312 256.800781 546.542969 283.660156 540.417969 292.523438 C 534.292969 301.386719 532.652344 306.222656 536.019531 312.171875 C 537.851562 315.40625 541.507812 315.773438 545.023438 314.570312 C 535.261719 338.464844 518.992188 362.671875 500.382812 377.828125 C 505.382812 364.941406 507.808594 351.210938 507.703125 337.324219 C 507.710938 337.320312 507.710938 337.3125 507.710938 337.3125 C 508.210938 326.328125 504.886719 312.484375 504.300781 310.140625 C 504.273438 310.03125 504.25 309.945312 504.238281 309.878906 C 504.230469 309.84375 504.222656 309.816406 504.214844 309.804688 C 504.214844 309.796875 504.214844 309.796875 504.214844 309.796875 C 501.902344 300.457031 498.449219 291.25 493.859375 282.386719 L 493.859375 282.378906 C 493.859375 281.734375 510.679688 260.359375 526.695312 250.859375 C 525.867188 253.195312 525.851562 256.136719 528.335938 259.292969 C 534.128906 266.65625 539.753906 254.996094 539.753906 254.996094 C 539.753906 254.996094 539.921875 255.648438 540.28125 256.574219 Z M 539.695312 256.800781 " fill-opacity="1" fill-rule="nonzero"/><path fill="#fd551b" d="M 418.613281 193.457031 C 419.738281 193.113281 488.257812 172.117188 489.367188 211.148438 C 489.84375 227.886719 483.527344 234.082031 473.113281 235.015625 C 459.058594 236.273438 437.535156 227.921875 415.21875 222.960938 C 376.382812 214.332031 337.34375 223.894531 319.011719 221.902344 C 318.898438 221.886719 318.785156 221.871094 318.671875 221.859375 C 284.648438 217.664062 295.753906 143.597656 348.585938 128.984375 C 385.984375 118.636719 384.632812 139.324219 383.449219 183.734375 C 405.710938 122.773438 449.960938 139.96875 449.503906 158.925781 C 449.050781 177.648438 419.371094 193.070312 418.613281 193.457031 Z M 418.613281 193.457031 " fill-opacity="1" fill-rule="nonzero"/><path fill="#fa9712" d="M 439.71875 287.300781 C 454.925781 290.929688 465.691406 304.023438 462.714844 313.925781 C 459.738281 323.828125 412.082031 326.929688 420.71875 310.921875 C 429.363281 294.90625 424.519531 283.679688 439.71875 287.300781 Z M 439.71875 287.300781 " fill-opacity="1" fill-rule="nonzero"/><g clip-path="url(#191a491646)"><path fill="#fdefe3" d="M 368.894531 441.496094 C 351.027344 452.695312 321.097656 435.746094 299.132812 417.179688 C 295.519531 414.121094 292.378906 410.515625 289.988281 406.730469 C 257.667969 405.734375 254.417969 382.984375 276.027344 370.054688 C 265.273438 374.007812 253.679688 373.691406 246.332031 371.574219 C 223.648438 365.066406 233.867188 330.917969 271.390625 326.183594 C 309.191406 321.410156 319.167969 342.113281 319.167969 342.113281 C 319.359375 335.453125 319.316406 328.25 319.058594 320.546875 L 319.320312 320.539062 L 319.570312 328.964844 C 319.570312 328.964844 389.570312 370.890625 445.117188 371.5625 C 443.886719 373.34375 442.773438 375.429688 441.90625 377.742188 C 438.734375 386.183594 439.8125 394.378906 444.304688 396.070312 C 448.792969 397.753906 455.003906 392.285156 458.167969 383.855469 C 459.964844 379.066406 460.394531 374.363281 459.617188 370.875 C 460.304688 370.796875 460.988281 370.710938 461.65625 370.621094 C 461.222656 374.148438 462.070312 378.742188 464.257812 383.296875 C 468.148438 391.417969 474.816406 396.320312 479.140625 394.246094 C 483.46875 392.171875 483.816406 383.90625 479.917969 375.785156 C 478.398438 372.609375 476.453125 369.933594 474.386719 367.96875 C 503.742188 359.304688 507.597656 337.992188 507.703125 337.324219 C 507.808594 351.210938 505.382812 364.941406 500.382812 377.828125 C 498.308594 383.167969 495.796875 388.359375 492.839844 393.363281 C 484.839844 406.886719 469.589844 423.75 448.929688 434.96875 C 441.636719 438.929688 433.664062 442.183594 425.097656 444.332031 C 418.1875 446.082031 410.894531 447.105469 403.253906 447.199219 C 392.695312 447.347656 381.476562 445.710938 369.707031 441.765625 C 369.4375 441.679688 369.160156 441.589844 368.894531 441.496094 Z M 368.894531 441.496094 " fill-opacity="1" fill-rule="nonzero"/></g><path fill="#fdefe3" d="M 319.058594 320.546875 C 318.523438 304.554688 317.050781 286.425781 314.765625 266.621094 C 313.140625 252.5 312.777344 234.003906 318.566406 222.722656 L 318.671875 221.859375 C 318.785156 221.871094 318.898438 221.886719 319.011719 221.902344 C 337.34375 223.894531 376.382812 214.332031 415.21875 222.960938 C 437.535156 227.921875 459.058594 236.273438 473.113281 235.015625 L 473.304688 237.011719 C 473.933594 238.355469 474.667969 240.015625 475.390625 241.90625 C 480.683594 255.707031 486.957031 269.09375 493.769531 282.203125 C 493.796875 282.257812 493.832031 282.324219 493.859375 282.378906 L 493.859375 282.386719 C 498.449219 291.25 501.902344 300.457031 504.214844 309.796875 C 504.214844 309.796875 504.214844 309.796875 504.214844 309.804688 C 504.152344 310.53125 500.199219 352.414062 444.925781 352.414062 C 389.171875 352.414062 319.011719 309.796875 319.011719 309.796875 L 319.320312 320.539062 Z M 462.714844 313.925781 C 465.691406 304.023438 454.925781 290.929688 439.71875 287.300781 C 424.519531 283.679688 429.363281 294.90625 420.71875 310.921875 C 412.082031 326.929688 459.738281 323.828125 462.714844 313.925781 Z M 462.714844 313.925781 " fill-opacity="1" fill-rule="nonzero"/><path fill="#fd551b" d="M 319.320312 320.539062 L 319.011719 309.796875 C 319.011719 309.796875 389.171875 352.414062 444.925781 352.414062 C 500.199219 352.414062 504.152344 310.53125 504.214844 309.804688 C 504.222656 309.816406 504.230469 309.84375 504.238281 309.878906 C 504.257812 309.964844 504.277344 310.058594 504.300781 310.140625 C 506.5 319.148438 507.640625 328.273438 507.703125 337.324219 C 507.597656 337.992188 503.742188 359.304688 474.386719 367.96875 C 476.453125 369.933594 478.398438 372.609375 479.917969 375.785156 C 483.816406 383.90625 483.46875 392.171875 479.140625 394.246094 C 474.816406 396.320312 468.148438 391.417969 464.257812 383.296875 C 462.070312 378.742188 461.222656 374.148438 461.65625 370.621094 C 460.988281 370.710938 460.304688 370.796875 459.617188 370.875 C 460.394531 374.363281 459.964844 379.066406 458.167969 383.855469 C 455.003906 392.285156 448.792969 397.753906 444.304688 396.070312 C 439.8125 394.378906 438.734375 386.183594 441.90625 377.742188 C 442.773438 375.429688 443.886719 373.34375 445.117188 371.5625 C 389.570312 370.890625 319.570312 328.964844 319.570312 328.964844 Z M 319.320312 320.539062 " fill-opacity="1" fill-rule="nonzero"/><path fill="#233d4d" d="M 437.300781 324.621094 C 440.84375 324.621094 444.488281 324.304688 447.859375 323.746094 C 453.546875 322.804688 463.359375 320.371094 465.078125 314.640625 C 466.351562 310.417969 465.566406 305.507812 462.871094 300.832031 C 458.527344 293.292969 449.878906 287.1875 440.285156 284.898438 C 427.84375 281.933594 425.925781 288.554688 423.710938 296.230469 C 422.628906 299.984375 421.277344 304.660156 418.535156 309.746094 C 416.25 313.976562 417.289062 316.988281 418.5625 318.773438 C 421.5625 322.972656 429.203125 324.621094 437.300781 324.621094 Z M 422.898438 312.101562 C 425.898438 306.550781 427.328125 301.589844 428.480469 297.601562 C 430.757812 289.714844 431.296875 287.847656 439.148438 289.714844 C 447.457031 291.695312 454.90625 296.902344 458.589844 303.300781 C 460.601562 306.789062 461.222656 310.3125 460.347656 313.21875 C 459.90625 314.675781 456.007812 317.386719 447.0625 318.863281 C 436.042969 320.6875 425.070312 319.359375 422.601562 315.898438 C 422.324219 315.519531 421.597656 314.5 422.898438 312.101562 Z M 422.898438 312.101562 " fill-opacity="1" fill-rule="nonzero"/><g clip-path="url(#1fd0db7940)"><path fill="#233d4d" d="M 566.574219 291.363281 C 562.046875 287.917969 559.898438 271.414062 559.382812 259.183594 C 562.550781 260.488281 565.703125 259.90625 568.335938 257.382812 C 569.96875 255.816406 570.769531 253.851562 570.648438 251.703125 C 570.421875 247.664062 566.941406 243.878906 564.804688 241.917969 C 564.933594 241.691406 565.066406 241.464844 565.203125 241.238281 C 569.347656 234.152344 581.96875 212.59375 577.835938 188.804688 C 575.535156 175.5625 570.261719 164.960938 562.578125 158.140625 C 555.730469 152.070312 547.195312 149.199219 538.535156 150.042969 C 521.742188 151.683594 496.066406 164.980469 498.65625 193.664062 C 500.855469 217.980469 520.613281 239.542969 526.835938 245.78125 C 526.113281 246.652344 525.335938 247.804688 524.734375 249.15625 C 516.3125 254.320312 508.019531 262.332031 502.476562 268.230469 C 499.773438 271.109375 497.058594 274.203125 494.828125 276.941406 C 494.625 277.195312 494.425781 277.433594 494.242188 277.660156 C 487.585938 264.609375 482.152344 252.578125 477.710938 241.007812 C 477.214844 239.710938 476.679688 238.417969 476.078125 237.082031 C 487.117188 234.988281 492.289062 226.449219 491.851562 211.058594 C 491.609375 202.519531 488.347656 195.941406 482.167969 191.511719 C 469.546875 182.472656 447.210938 184.679688 432.460938 187.539062 C 441.359375 180.859375 451.710938 170.625 451.984375 158.960938 C 452.203125 149.894531 443.894531 141.449219 432.652344 139.320312 C 418.457031 136.628906 399.703125 143.953125 386.265625 170.867188 C 386.710938 149.023438 385.976562 134.375 377.410156 127.675781 C 371.445312 123.007812 362.082031 122.660156 347.933594 126.570312 C 327.292969 132.28125 315.035156 145.832031 308.378906 156.203125 C 300.117188 169.082031 295.9375 184.078125 296.914062 197.347656 C 297.953125 211.410156 304.773438 221.039062 315.367188 223.71875 C 310.183594 235.941406 310.796875 253.730469 312.3125 266.875 C 314.625 286.949219 316.070312 305.019531 316.59375 320.605469 C 316.761719 325.640625 316.832031 330.449219 316.8125 334.976562 C 310.578125 328.753906 297.105469 320.421875 271.089844 323.703125 C 246.75 326.773438 232.976562 341.832031 231.949219 355.121094 C 231.257812 364.097656 236.507812 371.308594 245.652344 373.929688 C 250.46875 375.316406 257.855469 376.125 265.882812 375.046875 C 260.816406 380.652344 258.730469 387.074219 260.300781 393.113281 C 262.71875 402.414062 273.265625 408.351562 288.628906 409.121094 C 291.070312 412.734375 294.125 416.144531 297.542969 419.039062 C 306.570312 426.671875 333.300781 447.523438 355.496094 447.523438 C 359.699219 447.523438 363.730469 446.757812 367.457031 445.035156 C 368.671875 457.476562 374.558594 467.78125 383.902344 473.609375 C 388.910156 476.738281 394.492188 478.3125 400.15625 478.3125 C 404.558594 478.3125 409.011719 477.359375 413.285156 475.441406 C 418.484375 473.101562 421.242188 469.882812 421.5 465.863281 C 421.886719 459.589844 415.59375 453.289062 410.527344 449.269531 C 415.070312 448.867188 419.589844 448.144531 424.042969 447.097656 C 432.304688 451.851562 450.535156 461.515625 462.136719 461.515625 C 464.34375 461.515625 466.316406 461.160156 467.929688 460.363281 C 469.804688 459.429688 472.144531 457.449219 472.667969 453.316406 C 473.320312 448.160156 472.117188 443.789062 469.09375 440.316406 C 465.6875 436.398438 460.585938 434.4375 456.371094 433.453125 C 472.09375 423.550781 486.226562 409.410156 494.992188 394.59375 C 497.871094 389.726562 500.382812 384.582031 502.46875 379.300781 C 520.003906 364.835938 536.535156 341.457031 546.925781 316.460938 C 549.386719 315.417969 551.644531 313.777344 553.3125 311.867188 C 555.652344 314.632812 558.292969 315.636719 560.316406 315.964844 C 564.121094 316.566406 568.359375 315.050781 571.363281 312.015625 C 573.65625 309.703125 574.792969 306.726562 574.574219 303.628906 C 574.347656 300.664062 572.792969 296.101562 566.574219 291.363281 Z M 503.570312 193.226562 C 501.011719 164.945312 528.277344 156.027344 539.003906 154.980469 C 551.671875 153.742188 568.167969 162.082031 572.949219 189.652344 C 576.769531 211.660156 564.84375 232.042969 560.917969 238.742188 C 559.558594 241.0625 559.199219 241.6875 559.234375 242.632812 C 559.261719 243.375 559.613281 244.0625 560.203125 244.507812 C 561.933594 245.832031 565.554688 249.402344 565.699219 251.976562 C 565.726562 252.453125 565.65625 253.089844 564.90625 253.808594 C 564.175781 254.507812 562.253906 256.355469 558.523438 252.671875 C 557.902344 252.054688 557.519531 251.546875 557.519531 251.546875 C 556.890625 250.691406 555.78125 250.34375 554.777344 250.667969 C 553.765625 250.996094 553.078125 251.933594 553.058594 252.996094 C 553.058594 253.230469 552.910156 258.691406 548.113281 260.5 C 545.46875 261.5 543.65625 258.433594 542.601562 255.683594 C 542.304688 254.921875 542.164062 254.375 542.164062 254.375 C 541.902344 253.371094 541.046875 252.640625 540.015625 252.535156 C 539.929688 252.527344 539.851562 252.523438 539.765625 252.523438 C 538.824219 252.523438 537.957031 253.058594 537.539062 253.914062 C 536.546875 255.953125 534.277344 259.058594 532.558594 259.242188 C 531.886719 259.320312 531.128906 258.816406 530.296875 257.757812 C 528.71875 255.746094 528.308594 253.761719 529.042969 251.6875 C 529.886719 249.332031 531.878906 247.691406 531.894531 247.683594 C 532.460938 247.230469 532.800781 246.558594 532.828125 245.835938 C 532.855469 245.117188 532.566406 244.414062 532.027344 243.929688 C 531.753906 243.6875 505.960938 219.644531 503.570312 193.226562 Z M 301.84375 197.015625 C 300.019531 172.257812 317.625 140.117188 349.242188 131.375 C 361.75 127.914062 369.71875 127.988281 374.347656 131.601562 C 382.210938 137.753906 381.753906 154.921875 381.046875 180.910156 L 380.972656 183.667969 C 380.9375 184.878906 381.796875 185.941406 382.984375 186.164062 C 384.179688 186.390625 385.351562 185.71875 385.769531 184.582031 C 398.128906 150.734375 417.609375 141.53125 431.710938 144.207031 C 440.597656 145.890625 447.183594 152.191406 447.019531 158.863281 C 446.617188 175.824219 418.640625 190.652344 417.507812 191.246094 C 416.6875 191.648438 416.117188 192.488281 416.117188 193.472656 C 416.117188 194.839844 417.226562 195.949219 418.589844 195.949219 C 418.867188 195.949219 419.144531 195.898438 419.398438 195.8125 C 421.308594 195.242188 462.015625 183.214844 479.265625 195.574219 C 484.191406 199.101562 486.6875 204.222656 486.886719 211.234375 C 487.386719 228.875 480.085938 231.917969 472.886719 232.566406 C 463.824219 233.375 450.8125 229.808594 437.039062 226.023438 C 430.148438 224.136719 423.027344 222.175781 415.746094 220.5625 C 403.007812 217.734375 390.382812 216.824219 378.414062 216.824219 C 366.402344 216.824219 355.0625 217.742188 344.964844 218.5625 C 334.515625 219.410156 325.496094 220.140625 319.308594 219.46875 L 318.960938 219.425781 C 309.042969 218.179688 302.796875 210.019531 301.84375 197.015625 Z M 320.445312 224.511719 C 326.960938 224.964844 335.546875 224.269531 345.367188 223.476562 C 365.199219 221.871094 389.878906 219.871094 414.679688 225.382812 C 421.835938 226.972656 428.898438 228.910156 435.730469 230.785156 C 448.992188 234.429688 460.636719 237.625 470.066406 237.625 C 470.347656 237.625 470.617188 237.609375 470.890625 237.609375 C 470.925781 237.765625 470.984375 237.914062 471.054688 238.070312 C 471.820312 239.703125 472.476562 241.253906 473.070312 242.804688 C 477.957031 255.554688 484.007812 268.820312 491.546875 283.320312 L 491.640625 283.496094 C 491.640625 283.496094 491.640625 283.503906 491.644531 283.503906 C 491.652344 283.511719 491.652344 283.523438 491.660156 283.53125 C 496.039062 291.984375 499.414062 300.875 501.703125 309.972656 C 501.457031 311.910156 499.964844 320.992188 493.292969 329.90625 C 483.339844 343.203125 467.066406 349.945312 444.925781 349.945312 C 393.339844 349.945312 328.171875 312.34375 320.957031 308.085938 C 320.214844 295.421875 318.96875 281.445312 317.226562 266.34375 C 315.996094 255.691406 314.824219 236.28125 320.445312 224.511719 Z M 503.898438 320.835938 C 504.730469 326.261719 505.171875 331.710938 505.21875 337.121094 C 504.800781 339.117188 500.199219 357.773438 473.6875 365.597656 C 472.835938 365.847656 472.1875 366.53125 471.980469 367.394531 C 471.777344 368.25 472.039062 369.15625 472.683594 369.773438 C 474.621094 371.609375 476.347656 374.066406 477.691406 376.867188 C 479.996094 381.667969 480.765625 386.8125 479.664062 389.953125 C 479.296875 391 478.765625 391.691406 478.070312 392.019531 C 476.863281 392.597656 475.015625 392.082031 473.007812 390.601562 C 470.550781 388.800781 468.175781 385.742188 466.492188 382.226562 C 464.589844 378.261719 463.71875 374.136719 464.117188 370.925781 C 464.207031 370.160156 463.9375 369.398438 463.394531 368.859375 C 462.851562 368.320312 462.078125 368.066406 461.320312 368.171875 C 460.679688 368.265625 460.011719 368.34375 459.339844 368.421875 C 458.640625 368.5 458.011719 368.875 457.601562 369.445312 C 457.191406 370.019531 457.050781 370.734375 457.199219 371.417969 C 457.90625 374.597656 457.417969 378.8125 455.847656 382.992188 C 453.066406 390.40625 447.917969 394.785156 445.171875 393.757812 C 442.429688 392.726562 441.4375 386.035156 444.21875 378.621094 C 444.988281 376.578125 445.972656 374.679688 447.152344 372.976562 C 447.671875 372.226562 447.734375 371.242188 447.316406 370.429688 C 446.898438 369.617188 446.0625 369.101562 445.144531 369.09375 C 394.773438 368.484375 331.332031 332.917969 322.003906 327.527344 L 321.613281 314.203125 C 337.246094 323.179688 395.96875 354.894531 444.925781 354.894531 C 474.550781 354.894531 489.734375 342.921875 497.253906 332.871094 C 500.386719 328.683594 502.488281 324.480469 503.898438 320.835938 Z M 265.082031 391.898438 C 263.363281 385.269531 268.039062 377.714844 277.296875 372.175781 C 278.394531 371.519531 278.8125 370.140625 278.261719 368.988281 C 277.707031 367.832031 276.371094 367.289062 275.167969 367.726562 C 264.398438 371.6875 253.269531 370.996094 247.011719 369.191406 C 240.058594 367.195312 236.363281 362.21875 236.882812 355.527344 C 237.75 344.238281 249.988281 331.378906 271.695312 328.640625 C 304.296875 324.523438 314.902344 339.695312 316.664062 342.707031 C 316.246094 355.972656 314.886719 366.78125 312.625 374.878906 C 296.835938 373.097656 289.273438 377.140625 285.679688 381.738281 C 281.359375 387.273438 281.394531 395.363281 285.597656 403.957031 C 274.320312 402.761719 266.765625 398.390625 265.082031 391.898438 Z M 416.539062 465.589844 C 416.414062 467.625 414.628906 469.4375 411.242188 470.957031 C 403.007812 474.664062 393.988281 474.113281 386.511719 469.445312 C 378.660156 464.542969 373.652344 455.835938 372.449219 445.230469 C 382.320312 448.1875 392.214844 449.6875 401.953125 449.6875 C 402.152344 449.6875 402.34375 449.6875 402.542969 449.679688 C 408.347656 453.351562 416.851562 460.574219 416.539062 465.589844 Z M 465.347656 443.605469 C 467.425781 446.003906 468.203125 448.980469 467.730469 452.722656 C 467.460938 454.824219 466.507812 455.550781 465.691406 455.953125 C 459.859375 458.855469 444.167969 452.453125 430.863281 445.273438 C 437.203125 443.316406 443.441406 440.703125 449.480469 437.472656 C 451.871094 437.613281 460.898438 438.476562 465.347656 443.605469 Z M 490.703125 392.101562 C 481.234375 408.117188 465.167969 423.332031 447.742188 432.796875 C 440.234375 436.871094 432.414062 439.949219 424.484375 441.933594 C 417.5 443.703125 410.351562 444.636719 403.214844 444.722656 C 393.644531 444.863281 383.875 443.457031 374.105469 440.554688 C 377.988281 436.886719 380.988281 431.804688 383.0625 425.375 C 389.632812 405.003906 383.902344 390.859375 377.945312 382.574219 C 371.503906 373.621094 363.546875 369.53125 363.214844 369.363281 C 361.988281 368.746094 360.503906 369.234375 359.886719 370.457031 C 359.273438 371.679688 359.761719 373.167969 360.984375 373.78125 C 361.054688 373.816406 368.191406 377.480469 373.9375 385.46875 C 381.632812 396.164062 383.117188 409.085938 378.355469 423.863281 C 376.007812 431.164062 372.378906 436.390625 367.578125 439.402344 C 351.351562 449.574219 322.40625 433.617188 300.734375 415.289062 C 297.351562 412.433594 294.359375 409.015625 292.082031 405.414062 C 292.082031 405.414062 292.082031 405.414062 292.082031 405.40625 C 286.945312 397.300781 285.992188 389.402344 289.59375 384.789062 C 295.421875 377.332031 312.667969 377.671875 336.90625 385.722656 C 338.203125 386.152344 339.601562 385.453125 340.035156 384.152344 C 340.464844 382.859375 339.765625 381.449219 338.464844 381.027344 C 330.390625 378.34375 323.488281 376.613281 317.574219 375.59375 C 319.882812 367.042969 321.253906 355.824219 321.640625 342.191406 C 321.726562 339.300781 321.761719 336.257812 321.753906 333.101562 C 336.257812 341.351562 392.546875 371.652344 440.871094 373.917969 C 440.398438 374.871094 439.96875 375.863281 439.585938 376.878906 C 435.820312 386.902344 437.46875 396.15625 443.433594 398.398438 C 444.246094 398.703125 445.09375 398.851562 445.957031 398.851562 C 451.304688 398.851562 457.296875 393.21875 460.480469 384.730469 C 460.75 384.011719 460.996094 383.28125 461.214844 382.554688 C 461.464844 383.160156 461.730469 383.769531 462.023438 384.371094 C 464.074219 388.65625 466.929688 392.285156 470.066406 394.59375 C 473.652344 397.230469 477.25 397.902344 480.199219 396.480469 C 482.089844 395.574219 483.511719 393.886719 484.324219 391.59375 C 485.894531 387.136719 485.082031 380.828125 482.144531 374.714844 C 481.175781 372.699219 480.03125 370.824219 478.75 369.15625 C 492.359375 364.347656 500.140625 356.863281 504.546875 350.398438 C 503.527344 359.542969 501.363281 368.429688 498.0625 376.9375 C 496.039062 382.179688 493.5625 387.277344 490.703125 392.101562 Z M 505.722656 369.757812 C 508.75 359.386719 510.25 348.566406 510.179688 337.46875 C 510.179688 337.453125 510.183594 337.445312 510.183594 337.433594 C 510.703125 326.164062 507.378906 312.230469 506.707031 309.546875 L 506.707031 309.542969 L 506.640625 309.28125 C 506.640625 309.273438 506.632812 309.273438 506.632812 309.265625 C 506.628906 309.222656 506.621094 309.195312 506.605469 309.152344 C 504.335938 300.011719 501.003906 291.074219 496.710938 282.550781 C 499.675781 278.523438 511.59375 264.320312 523.914062 255.632812 C 524.226562 257.261719 524.96875 259.023438 526.398438 260.832031 C 528.839844 263.9375 531.382812 264.371094 533.089844 264.179688 C 535.082031 263.960938 536.816406 262.792969 538.21875 261.414062 C 540.0625 270.277344 542.214844 285.589844 538.386719 291.121094 C 532.140625 300.15625 529.730469 306.082031 533.867188 313.402344 C 535.367188 316.050781 537.941406 317.511719 541.03125 317.65625 C 532.242188 337.6875 519.523438 356.410156 505.722656 369.757812 Z M 567.828125 308.558594 C 565.917969 310.480469 563.335938 311.457031 561.070312 311.105469 C 558.800781 310.742188 556.925781 309.109375 555.484375 306.253906 C 555.046875 305.382812 554.132812 304.851562 553.164062 304.886719 C 552.1875 304.929688 551.332031 305.539062 550.972656 306.441406 C 550.042969 308.769531 547.199219 311.203125 544.214844 312.222656 C 544.160156 312.242188 544.109375 312.257812 544.058594 312.285156 C 542.371094 312.835938 539.511719 313.320312 538.167969 310.957031 C 535.523438 306.28125 536.441406 302.625 542.449219 293.9375 C 546.855469 287.558594 545.515625 274.0625 543.941406 264.984375 C 544.910156 265.445312 545.925781 265.6875 546.980469 265.6875 C 547.90625 265.6875 548.863281 265.507812 549.839844 265.140625 C 551.882812 264.371094 553.410156 263.238281 554.558594 261.957031 C 555.160156 272.46875 557.117188 290.394531 563.570312 295.300781 C 567.273438 298.125 569.425781 301.214844 569.617188 303.996094 C 569.738281 305.699219 569.136719 307.234375 567.828125 308.558594 Z M 567.828125 308.558594 " fill-opacity="1" fill-rule="nonzero"/></g><path fill="#233d4d" d="M 417.132812 267.136719 C 419.609375 276.148438 415.875 285.023438 408.792969 286.96875 C 401.714844 288.914062 393.96875 283.183594 391.492188 274.175781 C 389.015625 265.164062 392.75 256.285156 399.832031 254.339844 C 406.917969 252.402344 414.664062 258.132812 417.132812 267.136719 Z M 417.132812 267.136719 " fill-opacity="1" fill-rule="nonzero"/><path fill="#233d4d" d="M 465.339844 261.675781 C 466.140625 270.984375 460.863281 279.039062 453.546875 279.671875 C 446.234375 280.300781 439.648438 273.261719 438.847656 263.953125 C 438.050781 254.644531 443.328125 246.585938 450.640625 245.957031 C 457.953125 245.328125 464.535156 252.367188 465.339844 261.675781 Z M 465.339844 261.675781 " fill-opacity="1" fill-rule="nonzero"/><g fill="#ff650e" fill-opacity="1"><g transform="translate(246.698717, 501.331099)"><g><path d="M 37.203125 -0.8125 C 42.753906 -1.21875 48.03125 -2.941406 53.03125 -5.984375 C 58.03125 -9.035156 62.050781 -13.285156 65.09375 -18.734375 C 68.132812 -24.179688 69.476562 -29.332031 69.125 -34.1875 C 68.71875 -39.664062 66 -43.421875 60.96875 -45.453125 C 58.613281 -46.234375 56.597656 -46.5625 54.921875 -46.4375 C 52.460938 -46.25 50.484375 -45.421875 48.984375 -43.953125 C 47.492188 -42.484375 46.25 -40.957031 45.25 -39.375 C 44.457031 -38.28125 43.707031 -37.328125 43 -36.515625 C 42.300781 -35.703125 41.523438 -35.222656 40.671875 -35.078125 C 39.398438 -34.984375 37.789062 -35.34375 35.84375 -36.15625 C 33.90625 -36.976562 32.164062 -38.390625 30.625 -40.390625 C 29.09375 -42.398438 28.195312 -45.148438 27.9375 -48.640625 C 27.875 -50.546875 28.117188 -52.617188 28.671875 -54.859375 C 29.222656 -57.097656 30.09375 -59.078125 31.28125 -60.796875 C 32.46875 -62.515625 33.898438 -63.4375 35.578125 -63.5625 C 36.609375 -63.644531 37.664062 -63.375 38.75 -62.75 C 41.070312 -61.632812 43.378906 -61.160156 45.671875 -61.328125 C 47.421875 -61.453125 49.535156 -62.007812 52.015625 -63 C 54.878906 -64.25 56.941406 -66.070312 58.203125 -68.46875 C 59.460938 -70.875 59.992188 -73.472656 59.796875 -76.265625 C 59.566406 -79.359375 58.425781 -82.304688 56.375 -85.109375 C 52.75 -89.953125 48.582031 -93.4375 43.875 -95.5625 C 39.164062 -97.6875 34.394531 -98.570312 29.5625 -98.21875 C 24.3125 -97.832031 19.347656 -96.050781 14.671875 -92.875 C 9.992188 -89.695312 6.191406 -85.171875 3.265625 -79.296875 C -1.867188 -68.773438 -3.988281 -57.4375 -3.09375 -45.28125 C -2.4375 -36.300781 -0.132812 -27.8125 3.8125 -19.8125 C 7.4375 -12.96875 12.273438 -7.96875 18.328125 -4.8125 C 24.390625 -1.664062 30.679688 -0.332031 37.203125 -0.8125 Z M 37.203125 -0.8125 "/></g></g></g><g fill="#ff650e" fill-opacity="1"><g transform="translate(313.286724, 496.436926)"><g><path d="M 18.25 0.578125 C 22.0625 0.296875 25.617188 -1 28.921875 -3.3125 C 32.222656 -5.632812 33.90625 -9.078125 33.96875 -13.640625 C 33.757812 -17.535156 33.554688 -20.789062 33.359375 -23.40625 C 33.171875 -26.03125 33.085938 -28 33.109375 -29.3125 C 33.140625 -30.632812 33.472656 -31.316406 34.109375 -31.359375 L 38.375 -31.796875 C 39.09375 -31.859375 39.554688 -31.832031 39.765625 -31.71875 C 39.972656 -31.613281 40.085938 -31.40625 40.109375 -31.09375 L 40.40625 -27.046875 C 40.914062 -20.140625 41.492188 -15.109375 42.140625 -11.953125 C 43.015625 -8.503906 44.90625 -5.988281 47.8125 -4.40625 C 50.726562 -2.820312 53.894531 -2.15625 57.3125 -2.40625 C 59.6875 -2.582031 61.992188 -3.273438 64.234375 -4.484375 C 69.148438 -7.078125 71.398438 -11.273438 70.984375 -17.078125 C 70.003906 -30.347656 69.285156 -41.191406 68.828125 -49.609375 C 68.367188 -56.765625 67.617188 -67.453125 66.578125 -81.671875 C 66.203125 -86.753906 65.117188 -90.625 63.328125 -93.28125 C 60.109375 -98.070312 55.515625 -100.25 49.546875 -99.8125 C 47.171875 -99.632812 45.078125 -99.140625 43.265625 -98.328125 C 41.453125 -97.523438 40.210938 -96.703125 39.546875 -95.859375 C 37.960938 -93.503906 37.070312 -90.660156 36.875 -87.328125 C 36.6875 -83.992188 36.707031 -80.816406 36.9375 -77.796875 L 38.328125 -62 C 38.679688 -57.226562 38.457031 -54.8125 37.65625 -54.75 L 33.953125 -54.359375 C 32.847656 -54.273438 32.164062 -54.363281 31.90625 -54.625 C 31.65625 -54.882812 31.5 -55.453125 31.4375 -56.328125 L 30.1875 -76.609375 L 29.515625 -83.984375 C 29.265625 -87.472656 28.144531 -90.238281 26.15625 -92.28125 C 24.175781 -94.332031 21.773438 -95.753906 18.953125 -96.546875 C 16.140625 -97.347656 13.382812 -97.644531 10.6875 -97.4375 C 6.875 -97.164062 3.894531 -95.289062 1.75 -91.8125 C -0.394531 -88.34375 -1.335938 -83.820312 -1.078125 -78.25 L 1.65625 -34.5 C 2.082031 -29.65625 2.550781 -23.78125 3.0625 -16.875 C 3.351562 -12.894531 3.78125 -9.804688 4.34375 -7.609375 C 4.914062 -5.421875 6.054688 -3.554688 7.765625 -2.015625 C 10.546875 0.0234375 14.039062 0.890625 18.25 0.578125 Z M 18.25 0.578125 "/></g></g></g><g fill="#ff650e" fill-opacity="1"><g transform="translate(385.592614, 491.122493)"><g><path d="M 18.3125 -0.265625 C 21.082031 -0.460938 23.660156 -1.191406 26.046875 -2.453125 C 28.429688 -3.710938 30.289062 -5.828125 31.625 -8.796875 C 32.96875 -11.765625 33.445312 -15.875 33.0625 -21.125 C 32.769531 -29.40625 32.265625 -38.46875 31.546875 -48.3125 C 30.242188 -66.019531 29.125 -78.554688 28.1875 -85.921875 C 27.582031 -89.703125 25.78125 -92.738281 22.78125 -95.03125 C 19.78125 -97.320312 16.21875 -98.316406 12.09375 -98.015625 C 7.957031 -97.710938 4.675781 -96.15625 2.25 -93.34375 C -0.175781 -90.539062 -1.4375 -87.015625 -1.53125 -82.765625 C -1.601562 -81.566406 -1.632812 -80.390625 -1.625 -79.234375 C -1.625 -78.078125 -1.578125 -76.625 -1.484375 -74.875 C -1.398438 -73.125 -1.238281 -70.570312 -1 -67.21875 L 2.71875 -21.515625 L 2.84375 -18.296875 C 3.269531 -12.578125 4.601562 -8.039062 6.84375 -4.6875 C 9.082031 -1.34375 12.90625 0.128906 18.3125 -0.265625 Z M 18.3125 -0.265625 "/></g></g></g><g fill="#ff650e" fill-opacity="1"><g transform="translate(420.85129, 488.531005)"><g><path d="M 37.203125 -0.8125 C 42.753906 -1.21875 48.03125 -2.941406 53.03125 -5.984375 C 58.03125 -9.035156 62.050781 -13.285156 65.09375 -18.734375 C 68.132812 -24.179688 69.476562 -29.332031 69.125 -34.1875 C 68.71875 -39.664062 66 -43.421875 60.96875 -45.453125 C 58.613281 -46.234375 56.597656 -46.5625 54.921875 -46.4375 C 52.460938 -46.25 50.484375 -45.421875 48.984375 -43.953125 C 47.492188 -42.484375 46.25 -40.957031 45.25 -39.375 C 44.457031 -38.28125 43.707031 -37.328125 43 -36.515625 C 42.300781 -35.703125 41.523438 -35.222656 40.671875 -35.078125 C 39.398438 -34.984375 37.789062 -35.34375 35.84375 -36.15625 C 33.90625 -36.976562 32.164062 -38.390625 30.625 -40.390625 C 29.09375 -42.398438 28.195312 -45.148438 27.9375 -48.640625 C 27.875 -50.546875 28.117188 -52.617188 28.671875 -54.859375 C 29.222656 -57.097656 30.09375 -59.078125 31.28125 -60.796875 C 32.46875 -62.515625 33.898438 -63.4375 35.578125 -63.5625 C 36.609375 -63.644531 37.664062 -63.375 38.75 -62.75 C 41.070312 -61.632812 43.378906 -61.160156 45.671875 -61.328125 C 47.421875 -61.453125 49.535156 -62.007812 52.015625 -63 C 54.878906 -64.25 56.941406 -66.070312 58.203125 -68.46875 C 59.460938 -70.875 59.992188 -73.472656 59.796875 -76.265625 C 59.566406 -79.359375 58.425781 -82.304688 56.375 -85.109375 C 52.75 -89.953125 48.582031 -93.4375 43.875 -95.5625 C 39.164062 -97.6875 34.394531 -98.570312 29.5625 -98.21875 C 24.3125 -97.832031 19.347656 -96.050781 14.671875 -92.875 C 9.992188 -89.695312 6.191406 -85.171875 3.265625 -79.296875 C -1.867188 -68.773438 -3.988281 -57.4375 -3.09375 -45.28125 C -2.4375 -36.300781 -0.132812 -27.8125 3.8125 -19.8125 C 7.4375 -12.96875 12.273438 -7.96875 18.328125 -4.8125 C 24.390625 -1.664062 30.679688 -0.332031 37.203125 -0.8125 Z M 37.203125 -0.8125 "/></g></g></g><g fill="#ff650e" fill-opacity="1"><g transform="translate(487.439297, 483.636832)"><g><path d="M 63.78125 -3.96875 C 67.039062 -4.207031 69.84375 -5.488281 72.1875 -7.8125 C 74.53125 -10.144531 75.570312 -13.097656 75.3125 -16.671875 C 75 -20.960938 72.726562 -25.269531 68.5 -29.59375 C 63.3125 -33.84375 59.054688 -37.40625 55.734375 -40.28125 L 51.015625 -44.234375 C 48.367188 -46.347656 47.023438 -47.722656 46.984375 -48.359375 C 47.035156 -48.847656 47.203125 -49.300781 47.484375 -49.71875 L 58.484375 -63.109375 C 65.046875 -70.378906 69.265625 -76.5625 71.140625 -81.65625 C 71.765625 -83.84375 72.003906 -85.972656 71.859375 -88.046875 C 71.554688 -92.097656 70.007812 -95.457031 67.21875 -98.125 C 64.4375 -100.789062 61.414062 -102.003906 58.15625 -101.765625 C 55.769531 -101.585938 53.550781 -100.523438 51.5 -98.578125 C 49.445312 -96.628906 46.394531 -93.351562 42.34375 -88.75 L 28.328125 -72.390625 C 28.210938 -73.890625 28.066406 -75.351562 27.890625 -76.78125 L 27.734375 -78.9375 C 27.578125 -81.15625 27.3125 -83.648438 26.9375 -86.421875 C 26.707031 -89.609375 25.046875 -92.398438 21.953125 -94.796875 C 18.867188 -97.203125 15.457031 -98.347656 11.71875 -98.234375 C 8.851562 -98.015625 6.285156 -96.742188 4.015625 -94.421875 C 1.753906 -92.109375 0.296875 -89.410156 -0.359375 -86.328125 C -1.171875 -81.078125 -0.925781 -69.640625 0.375 -52.015625 C 0.925781 -44.472656 1.476562 -37.445312 2.03125 -30.9375 L 3.109375 -18.078125 C 4.796875 -5.898438 9.8125 -0.117188 18.15625 -0.734375 L 20.0625 -0.75 C 23.164062 -0.976562 25.84375 -2.3125 28.09375 -4.75 C 30.34375 -7.195312 31.320312 -10.445312 31.03125 -14.5 C 30.957031 -15.457031 30.847656 -16.40625 30.703125 -17.34375 C 30.566406 -18.289062 30.457031 -19.28125 30.375 -20.3125 L 30.3125 -22.59375 L 30.546875 -22.71875 L 54.265625 -6.625 C 57.515625 -4.625 60.6875 -3.738281 63.78125 -3.96875 Z M 63.78125 -3.96875 "/></g></g></g><path stroke-linecap="butt" transform="matrix(1.996299, -0.146727, 0.146727, 1.996299, 134.863912, 383.104659)" fill="none" stroke-linejoin="miter" d="M 69.952335 63.96165 C 72.740736 63.961138 75.437073 63.296391 78.039541 61.965322 C 80.642724 60.624522 82.799086 58.654073 84.508912 56.050083 C 86.218739 53.446093 87.072743 50.931826 87.0733 48.501588 C 87.073676 45.754344 85.864637 43.781134 83.445754 42.587796 C 82.289108 42.111434 81.292975 41.873852 80.4575 41.873105 C 79.224793 41.872512 78.209674 42.212732 77.414087 42.893907 C 76.617413 43.563261 75.940777 44.27666 75.38807 45.034389 C 74.950986 45.550153 74.542549 45.995622 74.16442 46.374833 C 73.784344 46.753901 73.377646 46.962732 72.940432 47.00104 C 72.298635 47.00083 71.511894 46.762985 70.580209 46.287503 C 69.646577 45.811879 68.831858 45.049526 68.132157 44.000157 C 67.433172 42.941058 67.082351 41.537723 67.083586 39.79044 C 67.121022 38.828515 67.321682 37.802275 67.679441 36.715181 C 68.039861 35.618499 68.544592 34.661569 69.195581 33.844535 C 69.856301 33.028215 70.604328 32.621403 71.439946 32.620204 C 71.964255 32.621562 72.483331 32.8006 72.998977 33.159406 C 74.106343 33.800426 75.237169 34.122264 76.393686 34.12117 C 77.268373 34.120886 78.341597 33.92191 79.613359 33.52424 C 81.090188 32.9988 82.182655 32.165295 82.891191 31.017886 C 83.610173 29.861462 83.97013 28.584725 83.969258 27.185588 C 83.96924 25.641713 83.512833 24.130824 82.599893 22.654866 C 80.969078 20.110594 79.016296 18.219691 76.743208 16.986194 C 74.479851 15.753412 72.134026 15.136814 69.705734 15.1364 C 67.083621 15.137395 64.54848 15.845297 62.100024 17.263999 C 59.652283 18.672969 57.592808 20.789468 55.921454 23.615442 C 52.979023 28.666736 51.506954 34.238975 51.50748 40.328409 C 51.506298 44.817098 52.341931 49.12857 54.014094 53.266716 C 55.567348 56.813012 57.797433 59.483514 60.700315 61.279882 C 63.605715 63.068607 66.688424 63.962435 69.952335 63.96165 Z M 93.824685 63.96105 C 95.726579 63.961909 97.543196 63.445789 99.272303 62.41644 C 101.011857 61.378076 101.97894 59.721348 102.173409 57.448205 C 102.211216 55.496194 102.231402 53.863795 102.229932 52.552667 C 102.230408 51.241682 102.2594 50.261526 102.318998 49.610396 C 102.377365 48.949392 102.566025 48.618871 102.886923 48.618976 L 105.043657 48.560296 C 105.401678 48.561172 105.630475 48.589729 105.72796 48.64777 C 105.825445 48.70581 105.874304 48.813109 105.872591 48.969523 L 105.873396 51.008512 C 105.873643 54.466101 105.969799 56.991501 106.163812 58.584855 C 106.485278 60.334333 107.339168 61.655281 108.729374 62.547986 C 110.127365 63.441262 111.681442 63.888133 113.391604 63.888597 C 114.587189 63.888418 115.762446 63.632368 116.91766 63.116554 C 119.462521 62.01019 120.735523 59.998296 120.734434 57.084621 C 120.735608 50.439596 120.774599 45.010534 120.85155 40.795488 C 120.891312 37.219521 120.909011 31.867164 120.910486 24.738845 C 120.909752 22.193064 120.512261 20.22667 119.714266 18.837431 C 118.288035 16.331676 116.082978 15.077741 113.100899 15.077716 C 111.905313 15.077895 110.836181 15.247821 109.895447 15.587638 C 108.962499 15.928027 108.31702 16.297371 107.957066 16.695529 C 107.083157 17.803388 106.53376 19.181649 106.310538 20.834347 C 106.097189 22.485814 105.990623 24.068816 105.99084 25.583354 L 106.105733 33.524449 C 106.10695 35.903942 105.907897 37.094667 105.50872 37.094679 L 103.659261 37.152463 C 103.105474 37.152852 102.769976 37.085144 102.652912 36.947395 C 102.537651 36.811735 102.478455 36.525613 102.479214 36.089314 L 102.595655 25.932575 L 102.536957 22.231967 C 102.536247 20.48454 102.075063 19.065267 101.153119 17.97804 C 100.239818 16.879707 99.098847 16.083591 97.728401 15.587601 C 96.359758 15.093701 94.994644 14.844653 93.634717 14.844494 C 91.730733 14.845438 90.180988 15.670771 88.985337 17.322439 C 87.791633 18.97425 87.155426 21.187531 87.078376 23.966318 L 86.830687 45.86563 C 86.869484 48.29289 86.887603 51.241082 86.888938 54.710491 C 86.888196 56.690664 86.985668 58.239744 87.179408 59.357589 C 87.383023 60.474203 87.884607 61.450307 88.680267 62.285616 C 90.001188 63.402168 91.715203 63.962544 93.824685 63.96105 Z M 130.102425 63.539693 C 131.491688 63.540052 132.802808 63.272464 134.035785 62.736928 C 135.269334 62.193607 136.275218 61.206982 137.051206 59.780803 C 137.828051 58.342946 138.217923 56.313105 138.217071 53.689045 C 138.372417 49.552161 138.451418 45.016359 138.450183 40.081354 C 138.450518 31.211447 138.35279 24.927021 138.159087 21.226274 C 137.994373 19.314167 137.202897 17.729732 135.784374 16.476861 C 134.375582 15.224706 132.637095 14.597958 130.568913 14.596618 C 128.498641 14.59708 126.808676 15.253611 125.497215 16.56412 C 124.185611 17.876575 123.433502 19.590195 123.2388 21.706781 C 123.152067 22.301127 123.089405 22.887459 123.050383 23.471615 C 123.010274 24.04395 122.982505 24.767862 122.963326 25.641118 C 122.942058 26.516178 122.932623 27.789326 122.933217 29.458474 L 123.107489 52.378913 L 123.04938 53.994828 C 123.050724 56.851777 123.544563 59.157899 124.536591 60.915571 C 125.537119 62.664084 127.392302 63.540089 130.102425 63.539693 Z M 157.189985 63.9613 C 159.978386 63.960787 162.674722 63.29604 165.277191 61.964971 C 167.880374 60.624171 170.036736 58.653722 171.746562 56.049732 C 173.456246 53.447688 174.310393 50.931476 174.310807 48.503184 C 174.311326 45.753993 173.102144 43.782729 170.683404 42.587445 C 169.526758 42.111083 168.530625 41.873502 167.697096 41.872897 C 166.462443 41.872161 165.447323 42.212381 164.651737 42.893556 C 163.855063 43.56291 163.178427 44.276309 162.62572 45.034038 C 162.188636 45.549802 161.780056 45.997218 161.402069 46.374482 C 161.02394 46.753693 160.615296 46.962381 160.177939 47.002636 C 159.536142 47.002426 158.749401 46.76458 157.817859 46.287153 C 156.884227 45.811528 156.069507 45.049175 155.369807 43.999807 C 154.670822 42.940707 154.320001 41.537373 154.321236 39.790089 C 154.358672 38.828165 154.559189 37.80387 154.917091 36.71483 C 155.277511 35.618148 155.782242 34.661219 156.433231 33.844184 C 157.093808 33.029811 157.841978 32.621052 158.677453 32.6218 C 159.201905 32.621211 159.72098 32.800249 160.236484 33.161001 C 161.34385 33.802021 162.474819 34.121913 163.631336 34.120819 C 164.505879 34.122482 165.579104 33.923505 166.851009 33.523889 C 168.327694 33.000395 169.420305 32.164944 170.128841 31.017536 C 170.84768 29.863057 171.20778 28.584375 171.206908 27.185237 C 171.20689 25.641363 170.750483 24.130473 169.837543 22.654516 C 168.206728 20.110243 166.253803 18.221287 163.980715 16.987789 C 161.717501 15.753061 159.371676 15.136463 156.943384 15.136049 C 154.321271 15.137044 151.78613 15.844946 149.337674 17.263648 C 146.889933 18.672619 144.830458 20.789118 143.158961 23.617037 C 140.21653 28.668332 138.744604 34.238624 138.74513 40.328058 C 138.743948 44.816747 139.579581 49.128219 141.251744 53.266365 C 142.804997 56.812661 145.035083 59.483163 147.937822 61.281477 C 150.843365 63.068257 153.928021 63.962227 157.189985 63.9613 Z M 203.908146 63.364155 C 205.54003 63.364735 206.982684 62.825043 208.235966 61.747024 C 209.487301 60.668862 210.115088 59.235704 210.115292 57.449209 C 210.11457 55.302605 209.143536 53.072944 207.200243 50.760081 C 204.772798 48.458596 202.781577 46.531604 201.226724 44.977157 L 199.012653 42.834197 C 197.788441 41.679749 197.175557 40.940057 197.175662 40.619159 C 197.214951 40.377453 197.311197 40.159501 197.468435 39.963643 L 203.441051 33.698813 C 206.976788 30.319139 209.303073 27.394546 210.419762 24.926982 C 210.817962 23.848731 211.018679 22.7951 211.018018 21.765803 C 211.018444 19.736688 210.372702 18.006424 209.080507 16.578905 C 207.789027 15.141654 206.325471 14.421622 204.69539 14.42313 C 203.499805 14.423309 202.353633 14.869345 201.256731 15.763183 C 200.157883 16.656878 198.516056 18.175958 196.330964 20.324316 L 188.753925 27.972047 C 188.75479 27.214849 188.734618 26.47763 188.695501 25.758586 L 188.69647 24.68049 C 188.695693 23.572914 188.656702 22.319687 188.579498 20.92081 C 188.579164 19.327993 187.850401 17.875356 186.395012 16.564987 C 184.947552 15.253244 183.286511 14.557832 181.411747 14.480697 C 179.983273 14.48137 178.662 15.0202 177.44793 16.097187 C 176.234431 17.16639 175.407695 18.457737 174.97147 19.973461 C 174.368703 22.557069 174.068583 28.264363 174.067359 37.093113 C 174.0675 40.871601 174.086524 44.393186 174.126377 47.658011 L 174.197893 54.112704 C 174.597397 60.231462 176.884936 63.291665 181.060655 63.291369 L 182.008184 63.364925 C 183.561932 63.363676 184.94597 62.796195 186.160583 61.658588 C 187.375052 60.522927 187.982572 58.939567 187.982997 56.910452 C 187.982869 56.432996 187.962991 55.958003 187.923652 55.481579 C 187.884312 55.005155 187.865866 54.510699 187.866509 53.996122 L 187.924604 52.859608 L 188.040403 52.80159 L 199.258843 61.687933 C 200.814457 62.80608 202.362326 63.364029 203.908146 63.364155 Z M 203.908146 63.364155 " stroke="#233d4d" stroke-width="2.984445" stroke-opacity="1" stroke-miterlimit="4"/><g fill="#ff650e" fill-opacity="1"><g transform="translate(248.850976, 575.092327)"><g><path d="M 37.5 -2.984375 C 42.425781 -3.347656 46.609375 -4.0625 50.046875 -5.125 C 57.203125 -7.632812 62.40625 -11.765625 65.65625 -17.515625 C 68.914062 -23.265625 70.3125 -29.316406 69.84375 -35.671875 C 69.5 -40.429688 68.144531 -44.976562 65.78125 -49.3125 C 63.425781 -53.65625 60.109375 -57.226562 55.828125 -60.03125 C 55.160156 -60.457031 54.65625 -60.816406 54.3125 -61.109375 C 53.976562 -61.410156 53.796875 -61.757812 53.765625 -62.15625 C 53.722656 -62.632812 53.910156 -63.367188 54.328125 -64.359375 C 55.628906 -68.203125 56.148438 -71.953125 55.890625 -75.609375 C 55.472656 -81.242188 53.375 -86.160156 49.59375 -90.359375 C 45.8125 -94.554688 40.757812 -97.296875 34.4375 -98.578125 C 31.28125 -99.148438 28.191406 -99.328125 25.171875 -99.109375 C 23.109375 -98.953125 21.046875 -98.71875 18.984375 -98.40625 C 16.929688 -98.09375 14.765625 -97.816406 12.484375 -97.578125 C 8.597656 -97.117188 5.289062 -95.851562 2.5625 -93.78125 C -0.15625 -91.707031 -1.726562 -88.660156 -2.15625 -84.640625 C -2.332031 -82.640625 -1.8125 -72.851562 -0.59375 -55.28125 L -0.125 -47.3125 L 2.46875 -13.71875 C 2.800781 -9.1875 4.234375 -5.957031 6.765625 -4.03125 C 9.296875 -2.101562 11.992188 -1.242188 14.859375 -1.453125 Z M 32.53125 -28.265625 C 32.132812 -28.234375 31.921875 -28.453125 31.890625 -28.921875 L 30.984375 -39.65625 C 30.910156 -40.6875 30.890625 -41.484375 30.921875 -42.046875 C 30.960938 -42.609375 31.222656 -42.90625 31.703125 -42.9375 C 33.222656 -42.96875 34.503906 -42.34375 35.546875 -41.0625 C 36.597656 -39.78125 37.191406 -38.1875 37.328125 -36.28125 C 37.441406 -34.769531 37.171875 -33.289062 36.515625 -31.84375 C 35.859375 -30.394531 34.6875 -29.253906 33 -28.421875 Z M 29.390625 -64.5625 L 28.59375 -75.40625 C 31.125 -75.59375 32.523438 -73.859375 32.796875 -70.203125 C 32.890625 -68.941406 32.742188 -67.710938 32.359375 -66.515625 C 31.972656 -65.328125 30.984375 -64.675781 29.390625 -64.5625 Z M 29.390625 -64.5625 "/></g></g></g><g fill="#ff650e" fill-opacity="1"><g transform="translate(316.630195, 570.110601)"><g><path d="M 10.203125 0.328125 C 13.378906 0.0976562 16.085938 -1.078125 18.328125 -3.203125 C 20.566406 -5.328125 22.328125 -8.066406 23.609375 -11.421875 C 23.722656 -11.910156 23.925781 -12.328125 24.21875 -12.671875 C 24.519531 -13.015625 25.660156 -13.257812 27.640625 -13.40625 L 36.46875 -13.9375 L 46.34375 -14.671875 C 48.25 -14.804688 49.628906 -13.988281 50.484375 -12.21875 C 52.222656 -9.300781 54.375 -7.195312 56.9375 -5.90625 C 59.5 -4.625 62.054688 -4.078125 64.609375 -4.265625 C 66.984375 -4.429688 69.125 -5.144531 71.03125 -6.40625 C 72.9375 -7.664062 74.363281 -9.410156 75.3125 -11.640625 C 76 -13.367188 76.28125 -15.066406 76.15625 -16.734375 C 76 -18.804688 75.019531 -21.691406 73.21875 -25.390625 C 70.769531 -30.640625 66.53125 -40.582031 60.5 -55.21875 C 56.238281 -65.375 52.535156 -73.90625 49.390625 -80.8125 C 46.253906 -87.726562 43.554688 -92.425781 41.296875 -94.90625 C 38.109375 -97.9375 34.566406 -99.3125 30.671875 -99.03125 C 27.335938 -98.78125 24.414062 -97.289062 21.90625 -94.5625 C 21.476562 -94.050781 21.082031 -93.5 20.71875 -92.90625 C 20 -91.738281 18.765625 -88.414062 17.015625 -82.9375 C 16.160156 -80.488281 9.320312 -58.867188 -3.5 -18.078125 C -4.125 -15.941406 -4.363281 -13.84375 -4.21875 -11.78125 C -4.03125 -9.25 -3.25 -6.753906 -1.875 -4.296875 C -0.6875 -2.304688 0.660156 -1.066406 2.171875 -0.578125 C 3.679688 -0.0859375 5.117188 0.1875 6.484375 0.25 L 7.453125 0.296875 C 8.410156 0.390625 9.328125 0.398438 10.203125 0.328125 Z M 34.703125 -38.125 C 33.347656 -38.03125 32.65625 -38.140625 32.625 -38.453125 C 32.96875 -39.285156 33.445312 -40.359375 34.0625 -41.671875 C 34.6875 -42.992188 35.160156 -44.191406 35.484375 -45.265625 C 35.722656 -45.273438 35.921875 -45.242188 36.078125 -45.171875 C 36.859375 -43.304688 37.613281 -41.800781 38.34375 -40.65625 C 38.875 -39.832031 39.148438 -39.257812 39.171875 -38.9375 C 39.179688 -38.78125 39.109375 -38.695312 38.953125 -38.6875 Z M 34.703125 -38.125 "/></g></g></g><g fill="#ff650e" fill-opacity="1"><g transform="translate(386.791869, 564.953766)"><g><path d="M 30.5 -0.4375 C 33.28125 -0.632812 35.867188 -1.835938 38.265625 -4.046875 C 40.660156 -6.265625 42.390625 -8.816406 43.453125 -11.703125 L 48.75 -25.984375 C 49.03125 -26.472656 49.375 -26.734375 49.78125 -26.765625 C 50.257812 -26.796875 50.65625 -26.523438 50.96875 -25.953125 C 51.289062 -25.378906 51.597656 -24.75 51.890625 -24.0625 C 54.492188 -17.9375 56.476562 -13.769531 57.84375 -11.5625 C 61.289062 -5.976562 65.394531 -3.359375 70.15625 -3.703125 C 74.050781 -3.992188 77.195312 -6.265625 79.59375 -10.515625 C 80.789062 -12.765625 84.082031 -26.101562 89.46875 -50.53125 C 94.425781 -73.25 97.148438 -86.144531 97.640625 -89.21875 L 97.703125 -91.625 C 97.441406 -95.207031 95.820312 -97.960938 92.84375 -99.890625 C 89.863281 -101.828125 86.863281 -102.679688 83.84375 -102.453125 C 80.351562 -102.203125 77.515625 -100.617188 75.328125 -97.703125 C 73.148438 -94.785156 71.347656 -91.117188 69.921875 -86.703125 C 68.492188 -82.285156 67.175781 -77.675781 65.96875 -72.875 C 64.769531 -68.070312 63.484375 -63.585938 62.109375 -59.421875 C 62.046875 -59.253906 61.9375 -59.164062 61.78125 -59.15625 C 61.539062 -59.144531 61.332031 -59.25 61.15625 -59.46875 C 60.582031 -60.625 59.660156 -62.273438 58.390625 -64.421875 C 54.867188 -69.984375 51.359375 -72.640625 47.859375 -72.390625 C 45.796875 -72.234375 43.875 -71.191406 42.09375 -69.265625 C 40.320312 -67.335938 38.835938 -65.269531 37.640625 -63.0625 C 36.453125 -60.863281 35.585938 -59.101562 35.046875 -57.78125 L 34.578125 -57.53125 C 34.335938 -57.507812 34.144531 -57.648438 34 -57.953125 C 33.851562 -58.253906 32.03125 -63.3125 28.53125 -73.125 C 23.832031 -85.863281 18.726562 -93.359375 13.21875 -95.609375 C 10.90625 -96.617188 8.757812 -97.050781 6.78125 -96.90625 C -2.757812 -96.207031 -7.242188 -91.96875 -6.671875 -84.1875 C -6.597656 -83.238281 -6.222656 -81.75 -5.546875 -79.71875 C -4.878906 -77.695312 -3.085938 -72.597656 -0.171875 -64.421875 C 3.328125 -54.691406 9.613281 -37.023438 18.6875 -11.421875 C 20.101562 -7.210938 21.867188 -4.285156 23.984375 -2.640625 C 26.097656 -1.003906 28.269531 -0.269531 30.5 -0.4375 Z M 30.5 -0.4375 "/></g></g></g><g fill="#ff650e" fill-opacity="1"><g transform="translate(485.304813, 557.713133)"><g><path d="M 63.78125 -3.96875 C 67.039062 -4.207031 69.84375 -5.488281 72.1875 -7.8125 C 74.53125 -10.144531 75.570312 -13.097656 75.3125 -16.671875 C 75 -20.960938 72.726562 -25.269531 68.5 -29.59375 C 63.3125 -33.84375 59.054688 -37.40625 55.734375 -40.28125 L 51.015625 -44.234375 C 48.367188 -46.347656 47.023438 -47.722656 46.984375 -48.359375 C 47.035156 -48.847656 47.203125 -49.300781 47.484375 -49.71875 L 58.484375 -63.109375 C 65.046875 -70.378906 69.265625 -76.5625 71.140625 -81.65625 C 71.765625 -83.84375 72.003906 -85.972656 71.859375 -88.046875 C 71.554688 -92.097656 70.007812 -95.457031 67.21875 -98.125 C 64.4375 -100.789062 61.414062 -102.003906 58.15625 -101.765625 C 55.769531 -101.585938 53.550781 -100.523438 51.5 -98.578125 C 49.445312 -96.628906 46.394531 -93.351562 42.34375 -88.75 L 28.328125 -72.390625 C 28.210938 -73.890625 28.066406 -75.351562 27.890625 -76.78125 L 27.734375 -78.9375 C 27.578125 -81.15625 27.3125 -83.648438 26.9375 -86.421875 C 26.707031 -89.609375 25.046875 -92.398438 21.953125 -94.796875 C 18.867188 -97.203125 15.457031 -98.347656 11.71875 -98.234375 C 8.851562 -98.015625 6.285156 -96.742188 4.015625 -94.421875 C 1.753906 -92.109375 0.296875 -89.410156 -0.359375 -86.328125 C -1.171875 -81.078125 -0.925781 -69.640625 0.375 -52.015625 C 0.925781 -44.472656 1.476562 -37.445312 2.03125 -30.9375 L 3.109375 -18.078125 C 4.796875 -5.898438 9.8125 -0.117188 18.15625 -0.734375 L 20.0625 -0.75 C 23.164062 -0.976562 25.84375 -2.3125 28.09375 -4.75 C 30.34375 -7.195312 31.320312 -10.445312 31.03125 -14.5 C 30.957031 -15.457031 30.847656 -16.40625 30.703125 -17.34375 C 30.566406 -18.289062 30.457031 -19.28125 30.375 -20.3125 L 30.3125 -22.59375 L 30.546875 -22.71875 L 54.265625 -6.625 C 57.515625 -4.625 60.6875 -3.738281 63.78125 -3.96875 Z M 63.78125 -3.96875 "/></g></g></g><path stroke-linecap="butt" transform="matrix(1.996299, -0.146727, 0.146727, 1.996299, 134.863912, 457.024077)" fill="none" stroke-linejoin="miter" d="M 71.264343 62.883308 C 73.731845 62.882691 75.840206 62.683482 77.587477 62.285541 C 81.249705 61.284784 83.99343 59.416208 85.820885 56.676064 C 87.65684 53.926762 88.573082 50.965061 88.573645 47.789303 C 88.573287 45.398133 88.064451 43.083081 87.043673 40.838023 C 86.033198 38.585895 84.513824 36.681842 82.48346 35.127668 C 82.171942 34.893443 81.935699 34.699972 81.769034 34.54488 C 81.614905 34.378968 81.536449 34.195138 81.535899 33.989639 C 81.537352 33.756893 81.653342 33.40342 81.88596 32.927418 C 82.68317 31.052747 83.081433 29.201585 83.080606 27.37588 C 83.081008 24.548411 82.215834 22.023234 80.487173 19.798547 C 78.759227 17.564128 76.339418 16.010681 73.231781 15.136546 C 71.687894 14.737386 70.156665 14.538745 68.642127 14.538962 C 67.61283 14.539623 66.576923 14.576975 65.538011 14.655199 C 64.508831 14.734138 63.416283 14.796679 62.260225 14.844768 C 60.307559 14.922361 58.613039 15.427887 57.174719 16.361204 C 55.746272 17.29329 54.854256 18.753989 54.494493 20.746909 C 54.339511 21.737372 54.241974 26.631853 54.201739 35.432298 L 54.144989 39.42576 L 54.203479 56.254164 C 54.202688 58.527845 54.800459 60.191967 55.994416 61.252225 C 57.189231 62.300806 58.500804 62.825733 59.929279 62.82506 Z M 69.720372 50.105765 C 69.516963 50.104512 69.413895 49.989315 69.413401 49.756426 L 69.356628 44.379028 C 69.355325 43.864308 69.374775 43.466561 69.413176 43.183698 C 69.45338 42.902925 69.592846 42.762506 69.837413 42.762871 C 70.595069 42.810731 71.210117 43.174887 71.686591 43.853677 C 72.163637 44.524682 72.401388 45.336595 72.401931 46.287614 C 72.401067 47.044811 72.212419 47.774509 71.832382 48.47253 C 71.452916 49.162765 70.827277 49.688151 69.95366 50.046598 Z M 69.472971 31.90745 L 69.473324 26.471635 C 70.745098 26.473142 71.38014 27.39057 71.380252 29.226006 C 71.380757 29.858072 71.259937 30.46361 71.017506 31.046513 C 70.783576 31.620257 70.269379 31.907283 69.472971 31.90745 Z M 91.491999 63.53841 C 93.084672 63.540022 94.478415 63.053481 95.67294 62.082678 C 96.868325 61.100197 97.844834 59.794421 98.602612 58.163401 C 98.680397 57.930395 98.796478 57.735426 98.950712 57.580438 C 99.117482 57.414632 99.694937 57.331843 100.685023 57.332214 L 105.101017 57.390669 L 110.053538 57.390721 C 111.006503 57.39032 111.66168 57.847435 112.021158 58.760263 C 112.778573 60.275665 113.773988 61.401557 115.00726 62.139885 C 116.241248 62.868481 117.494201 63.23256 118.768064 63.232264 C 119.96156 63.233889 121.054273 62.956118 122.045917 62.402844 C 123.045489 61.848196 123.823555 61.032675 124.376366 59.954047 C 124.774345 59.118416 124.97461 58.283908 124.973411 57.448289 C 124.974697 56.419135 124.595654 54.947196 123.838084 53.034563 C 122.808534 50.323155 121.059409 45.208805 118.592654 37.691658 C 116.844413 32.485407 115.309424 28.104923 113.987828 24.548259 C 112.676536 20.984525 111.506007 18.540612 110.475955 17.220414 C 109.001209 15.587715 107.286328 14.772898 105.333546 14.772212 C 103.662451 14.772663 102.151739 15.413017 100.801267 16.695222 C 100.568871 16.928604 100.350329 17.186486 100.145783 17.466921 C 99.748941 18.020864 99.014002 19.633994 97.946948 22.304795 C 97.421444 23.491094 93.220167 34.008981 85.342687 53.864294 C 84.945402 54.903477 84.746116 55.937646 84.744687 56.968746 C 84.745126 58.240664 85.046858 59.513202 85.64808 60.784271 C 86.164549 61.824085 86.790367 62.494285 87.529428 62.795155 C 88.267114 63.088098 88.971368 63.276832 89.641904 63.365251 L 90.122996 63.422135 C 90.598622 63.500142 91.053611 63.539453 91.491999 63.53841 Z M 105.099709 45.268529 C 104.42079 45.267547 104.080169 45.18968 104.079793 45.035069 C 104.285137 44.637288 104.565664 44.121758 104.925125 43.490712 C 105.285301 42.849934 105.562621 42.271552 105.754996 41.75737 C 105.872486 41.756222 105.974778 41.775481 106.061873 41.815147 C 106.373441 42.767501 106.688152 43.54398 107.009756 44.146814 C 107.251616 44.583335 107.372663 44.879873 107.37304 45.034484 C 107.373157 45.112762 107.335121 45.151058 107.256842 45.151175 Z M 136.778623 63.888777 C 138.177761 63.887906 139.512172 63.383306 140.785891 62.373318 C 142.057663 61.363188 143.014914 60.159703 143.65584 58.760775 L 146.81791 51.83932 C 146.972742 51.596324 147.148042 51.474192 147.341721 51.47473 C 147.584341 51.474952 147.774789 51.625922 147.909174 51.927355 C 148.055379 52.227699 148.187618 52.558325 148.304088 52.917143 C 149.382535 56.054803 150.216787 58.202011 150.808933 59.356966 C 152.325132 62.262639 154.272978 63.714868 156.652471 63.713652 C 158.605253 63.714337 160.257027 62.698872 161.605702 60.669058 C 162.286965 59.599872 164.417804 53.078112 168.002397 41.100171 C 171.304413 29.958517 173.137169 23.632047 173.495116 22.116439 L 173.612283 20.921652 C 173.61263 19.133211 172.903559 17.705502 171.485213 16.636579 C 170.077314 15.55864 168.614078 15.020608 167.09954 15.020826 C 165.35031 15.019447 163.879411 15.703819 162.684897 17.073799 C 161.490384 18.443779 160.454814 20.207007 159.580135 22.363626 C 158.706171 24.510514 157.881495 26.758861 157.104162 29.108526 C 156.327401 31.450406 155.521069 33.635529 154.685025 35.665842 C 154.646074 35.743206 154.588432 35.782018 154.510154 35.782135 C 154.394611 35.783426 154.297269 35.723439 154.219646 35.608156 C 153.97632 35.005205 153.577375 34.150136 153.024756 33.043092 C 151.469347 30.13845 149.818902 28.686556 148.069529 28.687123 C 147.0305 28.687069 146.034904 29.134387 145.082881 30.027134 C 144.130716 30.921826 143.315476 31.897025 142.634929 32.956481 C 141.95524 34.004259 141.45477 34.849967 141.135607 35.491803 L 140.902063 35.607696 C 140.784717 35.606898 140.698394 35.530111 140.639344 35.375101 C 140.58101 35.21036 139.853615 32.620954 138.453125 27.608542 C 136.588729 21.080777 134.321313 17.161084 131.648788 15.851266 C 130.541881 15.257242 129.489278 14.962677 128.487514 14.961448 C 123.71894 14.961219 121.333352 16.90895 121.334642 20.804926 C 121.334914 21.280436 121.459323 22.037057 121.713566 23.077165 C 121.974506 24.106025 122.68324 26.709714 123.839911 30.886285 C 125.229495 35.860717 127.715929 44.893832 131.301016 57.98772 C 131.85358 60.133792 132.626279 61.654231 133.617164 62.548894 C 134.617925 63.442326 135.671048 63.889555 136.778623 63.888777 Z M 202.837745 63.364982 C 204.469772 63.363616 205.912283 62.82587 207.165565 61.747851 C 208.418989 60.667886 209.044687 59.236531 209.045034 57.44809 C 209.046258 55.301629 208.073278 53.071825 206.131788 50.761051 C 203.702397 48.459423 201.711319 46.530484 200.158412 44.976181 L 197.942252 42.835024 C 196.718183 41.678629 196.107102 40.941027 196.107207 40.620129 C 196.14664 40.376477 196.242886 40.158525 196.398034 39.96447 L 202.372596 33.699783 C 205.908476 30.318163 208.234618 27.395516 209.351307 24.927952 C 209.749508 23.849701 209.948278 22.795927 209.949563 21.766773 C 209.948186 19.735569 209.302301 18.007251 208.010106 16.579732 C 206.718769 15.140534 205.257016 14.422592 203.625132 14.422011 C 202.429547 14.42219 201.285178 14.870315 200.186473 15.762063 C 199.089571 16.655902 197.447601 18.176928 195.262652 20.32334 L 187.68547 27.973017 C 187.684389 27.215676 187.666307 26.476654 187.627189 25.75761 L 187.626212 24.67937 C 187.627381 23.571938 187.588247 22.320657 187.511043 20.92178 C 187.510852 19.327017 186.781946 17.876326 185.324754 16.563868 C 183.877294 15.252125 182.21611 14.558659 180.341346 14.481524 C 178.914961 14.480393 177.593688 15.019223 176.379475 16.098157 C 175.16403 17.167217 174.33924 18.458707 173.901069 19.974288 C 173.300248 22.558039 172.998182 28.26519 172.998904 37.094083 C 172.999046 40.872571 173.018069 44.394156 173.056119 47.656892 L 173.129582 54.111727 C 173.526996 60.232288 175.814678 63.290546 179.9922 63.292339 L 180.939872 63.363949 C 182.493478 63.364646 183.877658 62.795218 185.092128 61.659558 C 186.306598 60.523897 186.912171 58.940394 186.912739 56.909333 C 186.912468 56.433823 186.89468 55.957027 186.855197 55.482549 C 186.815858 55.006125 186.795608 54.509579 186.796251 53.995002 L 186.854346 52.858489 L 186.972091 52.800614 L 198.190388 61.688903 C 199.744199 62.804961 201.293871 63.364999 202.837745 63.364982 Z M 202.837745 63.364982 " stroke="#233d4d" stroke-width="2.984445" stroke-opacity="1" stroke-miterlimit="4"/><g clip-path="url(#3bd20d420c)"><g clip-path="url(#8bd55b04a9)"><g clip-path="url(#e20147e5b3)"><path fill="#fa9712" d="M 184.171875 573.886719 L 634.800781 542.578125 L 639.726562 613.4375 L 189.09375 644.75 Z M 184.171875 573.886719 " fill-opacity="1" fill-rule="nonzero"/></g></g></g><g clip-path="url(#0361e6f86b)"><g clip-path="url(#df3a80273c)"><g clip-path="url(#51ebe542e6)"><g clip-path="url(#18328fb282)"><path stroke-linecap="butt" transform="matrix(0.748196, -0.0519872, 0.0519872, 0.748196, 184.181214, 573.887991)" fill="none" stroke-linejoin="miter" d="M 47.3515 -0.000718068 L 554.874233 0.00179648 C 567.43044 0.00235577 579.473076 4.989729 588.353112 13.866195 C 597.237982 22.748218 602.222255 34.794561 602.226891 47.351129 C 602.225971 59.912531 597.233403 71.954807 588.356936 80.834842 C 579.475274 89.714516 567.433766 94.704346 554.872363 94.703426 L 47.34963 94.700911 C 34.793062 94.705548 22.750786 89.712979 13.870751 80.836513 C 4.991077 71.954851 0.0016079 59.908146 0.00216719 47.35194 C -0.00246932 34.795373 4.99046 22.747901 13.866927 13.867866 C 22.748589 4.988192 34.795293 -0.00127736 47.3515 -0.000718068 Z M 47.3515 -0.000718068 " stroke="#233d4d" stroke-width="12" stroke-opacity="1" stroke-miterlimit="4"/></g></g></g></g><g fill="#fdefe3" fill-opacity="1"><g transform="translate(218.09439, 621.178751)"><g><path d="M 20.964844 -29.257812 C 19.707031 -29.167969 18.546875 -28.300781 18.648438 -26.824219 L 19.335938 -16.921875 L 6.347656 -16.019531 L 5.660156 -25.921875 C 5.558594 -27.398438 4.203125 -28.089844 2.941406 -28.003906 C 1.683594 -27.917969 0.5625 -27.054688 0.667969 -25.578125 L 2.269531 -2.515625 C 2.375 -0.996094 3.691406 -0.257812 4.996094 -0.347656 C 6.167969 -0.429688 7.375 -1.253906 7.265625 -2.863281 L 6.640625 -11.808594 L 19.628906 -12.710938 L 20.25 -3.765625 C 20.359375 -2.199219 21.628906 -1.503906 22.886719 -1.589844 C 24.105469 -1.675781 25.398438 -2.550781 25.289062 -4.113281 L 23.6875 -27.175781 C 23.582031 -28.652344 22.183594 -29.339844 20.964844 -29.257812 Z M 20.964844 -29.257812 "/></g></g></g><g fill="#fdefe3" fill-opacity="1"><g transform="translate(257.92284, 618.411334)"><g><path d="M 12.25 -29.085938 C 11.121094 -29.007812 10.445312 -28.699219 10.074219 -27.714844 L -0.617188 -2.621094 C -1.28125 -0.871094 0.507812 0.402344 2.027344 0.296875 C 2.851562 0.238281 3.742188 -0.171875 4.113281 -1.113281 L 6.734375 -7.363281 L 20.71875 -8.335938 L 24.175781 -2.507812 C 24.667969 -1.714844 25.65625 -1.347656 26.480469 -1.402344 C 28.128906 -1.519531 29.777344 -2.941406 28.515625 -4.773438 L 14.550781 -28.023438 C 14.054688 -28.863281 13.160156 -29.152344 12.25 -29.085938 Z M 12.757812 -21.746094 L 18.296875 -12.398438 L 8.566406 -11.722656 Z M 12.757812 -21.746094 "/></g></g></g><g fill="#fdefe3" fill-opacity="1"><g transform="translate(298.359344, 615.601668)"><g><path d="M 28.355469 -15.847656 C 27.761719 -24.40625 21.71875 -29.746094 13.25 -29.15625 C 4.734375 -28.566406 -0.597656 -22.433594 -0.00390625 -13.878906 C 0.589844 -5.320312 6.71875 -0.03125 15.230469 -0.621094 C 23.699219 -1.210938 28.953125 -7.292969 28.355469 -15.847656 Z M 14.921875 -5.050781 C 9.449219 -4.671875 5.527344 -8.371094 5.121094 -14.234375 C 4.710938 -20.140625 8.085938 -24.347656 13.554688 -24.726562 C 18.984375 -25.105469 22.863281 -21.402344 23.273438 -15.496094 C 23.683594 -9.632812 20.351562 -5.429688 14.921875 -5.050781 Z M 14.921875 -5.050781 "/></g></g></g><g fill="#fdefe3" fill-opacity="1"><g transform="translate(340.880594, 612.647147)"><g><path d="M 2.402344 -21.332031 L 4.046875 -25.289062 L 4.007812 -25.242188 C 4.839844 -27.089844 3.128906 -28.453125 1.566406 -28.34375 C 0.652344 -28.28125 -0.144531 -27.832031 -0.554688 -26.84375 L -1.933594 -22.820312 C -2.347656 -21.222656 -1.023438 -19.742188 0.367188 -19.839844 C 1.148438 -19.894531 1.988281 -20.386719 2.402344 -21.332031 Z M 2.402344 -21.332031 "/></g></g></g><g fill="#fdefe3" fill-opacity="1"><g transform="translate(356.86496, 611.536498)"><g><path d="M -0.152344 -6.578125 C 1.703125 -1.253906 8.714844 -0.167969 13.234375 -0.484375 C 18.664062 -0.859375 26.128906 -3.300781 25.652344 -10.207031 C 25.171875 -17.109375 18.636719 -16.917969 12.5625 -17.0625 C 8.285156 -17.070312 4.613281 -17.167969 4.414062 -19.988281 C 4.203125 -23.03125 8.835938 -24.179688 11.183594 -24.34375 C 13.832031 -24.527344 17.765625 -24.453125 18.996094 -21.832031 C 19.394531 -21.074219 20.339844 -20.703125 21.292969 -20.769531 C 22.769531 -20.871094 24.164062 -22.191406 23.574219 -23.765625 C 21.199219 -28.398438 15.332031 -29.300781 10.816406 -28.988281 C 5.386719 -28.609375 -1.210938 -25.621094 -0.800781 -19.671875 C -0.339844 -13.070312 6.449219 -12.710938 12.386719 -12.644531 C 16.273438 -12.609375 20.25 -12.535156 20.441406 -9.800781 C 20.679688 -6.367188 15.957031 -5.253906 12.917969 -5.042969 C 10.007812 -4.839844 5.964844 -5.214844 4.8125 -7.972656 C 4.519531 -9.085938 3.4375 -9.578125 2.308594 -9.5 C 0.789062 -9.394531 -0.703125 -8.242188 -0.152344 -6.578125 Z M -0.152344 -6.578125 "/></g></g></g><g fill="#fdefe3" fill-opacity="1"><g transform="translate(395.086432, 608.88074)"><g/></g></g><g fill="#fdefe3" fill-opacity="1"><g transform="translate(417.107842, 607.350617)"><g><path d="M 10.890625 -28.554688 L 1.941406 -27.933594 C 0.378906 -27.824219 -0.84375 -26.605469 -0.75 -25.214844 L 0.820312 -2.632812 C 0.917969 -1.242188 2.300781 -0.160156 3.867188 -0.269531 L 12.8125 -0.890625 C 20.71875 -1.441406 25.589844 -7.320312 25.011719 -15.617188 C 24.4375 -23.910156 18.792969 -29.105469 10.890625 -28.554688 Z M 12.511719 -5.191406 L 5.652344 -4.714844 L 4.324219 -23.824219 L 11.1875 -24.300781 C 16.050781 -24.636719 19.621094 -21 20.019531 -15.269531 C 20.417969 -9.535156 17.378906 -5.527344 12.511719 -5.191406 Z M 12.511719 -5.191406 "/></g></g></g><g fill="#fdefe3" fill-opacity="1"><g transform="translate(455.80708, 604.661662)"><g><path d="M 24.765625 -5.996094 L 19.171875 -11.109375 C 23.515625 -12.675781 25.464844 -16.039062 25.179688 -20.121094 C 24.816406 -25.335938 20.574219 -29.230469 12.800781 -28.6875 L 3.117188 -28.015625 C 1.640625 -27.914062 0.660156 -26.929688 0.753906 -25.582031 L 2.363281 -2.390625 C 2.464844 -0.957031 3.734375 -0.257812 5.039062 -0.351562 C 6.253906 -0.433594 7.503906 -1.308594 7.398438 -2.785156 L 6.921875 -9.644531 L 13.480469 -10.101562 L 21.832031 -2.347656 C 24.167969 -0.152344 27.605469 -3.402344 24.765625 -5.996094 Z M 6.628906 -13.859375 L 5.941406 -23.804688 L 13.148438 -24.304688 C 17.230469 -24.589844 19.859375 -22.589844 20.101562 -19.726562 C 20.371094 -17.082031 18.488281 -14.683594 13.839844 -14.359375 Z M 6.628906 -13.859375 "/></g></g></g><g fill="#fdefe3" fill-opacity="1"><g transform="translate(494.506318, 601.972707)"><g><path d="M 22.328125 -5.914062 L 7.167969 -4.863281 L 6.667969 -12.070312 L 21.042969 -13.070312 C 22.5625 -13.175781 23.230469 -14.269531 23.15625 -15.3125 C 23.082031 -16.398438 22.222656 -17.429688 20.746094 -17.328125 L 6.371094 -16.328125 L 5.84375 -23.929688 L 21 -24.980469 C 22.476562 -25.085938 23.226562 -26.269531 23.152344 -27.3125 C 23.078125 -28.398438 22.269531 -29.347656 20.707031 -29.238281 L 3.464844 -28.039062 C 1.726562 -27.917969 0.679688 -26.667969 0.773438 -25.277344 L 2.339844 -2.78125 C 2.4375 -1.347656 3.648438 -0.253906 5.386719 -0.375 L 22.628906 -1.574219 C 24.234375 -1.683594 24.945312 -2.78125 24.871094 -3.824219 C 24.796875 -4.910156 23.847656 -6.019531 22.328125 -5.914062 Z M 22.328125 -5.914062 "/></g></g></g><g fill="#fdefe3" fill-opacity="1"><g transform="translate(532.423792, 599.338072)"><g><path d="M 12.25 -29.085938 C 11.121094 -29.007812 10.445312 -28.699219 10.074219 -27.714844 L -0.617188 -2.621094 C -1.28125 -0.871094 0.507812 0.402344 2.027344 0.296875 C 2.851562 0.238281 3.742188 -0.171875 4.113281 -1.113281 L 6.734375 -7.363281 L 20.71875 -8.335938 L 24.175781 -2.507812 C 24.667969 -1.714844 25.65625 -1.347656 26.480469 -1.402344 C 28.128906 -1.519531 29.777344 -2.941406 28.515625 -4.773438 L 14.550781 -28.023438 C 14.054688 -28.863281 13.160156 -29.152344 12.25 -29.085938 Z M 12.757812 -21.746094 L 18.296875 -12.398438 L 8.566406 -11.722656 Z M 12.757812 -21.746094 "/></g></g></g><g fill="#fdefe3" fill-opacity="1"><g transform="translate(572.860297, 596.528406)"><g><path d="M 3.203125 -28.023438 C 1.941406 -27.933594 0.792969 -26.894531 0.898438 -25.375 L 2.492188 -2.441406 C 2.597656 -0.921875 3.910156 -0.273438 5.167969 -0.359375 C 6.382812 -0.445312 7.636719 -1.273438 7.53125 -2.792969 L 6.515625 -17.386719 L 13.59375 -7.882812 C 14.128906 -7.046875 15.164062 -6.597656 16.035156 -6.65625 C 16.902344 -6.71875 17.789062 -7.171875 18.203125 -8.074219 L 23.972656 -18.640625 L 24.988281 -4.003906 C 25.097656 -2.484375 26.363281 -1.832031 27.621094 -1.917969 C 28.839844 -2.003906 30.132812 -2.835938 30.027344 -4.355469 L 28.433594 -27.332031 C 28.324219 -28.894531 27.089844 -29.683594 25.832031 -29.59375 C 25.003906 -29.539062 24.121094 -29.082031 23.617188 -28.175781 L 15.574219 -13.300781 L 5.507812 -26.875 C 4.929688 -27.664062 4.027344 -28.078125 3.203125 -28.023438 Z M 3.203125 -28.023438 "/></g></g></g></svg>