<svg xmlns="http://www.w3.org/2000/svg" xmlns:xlink="http://www.w3.org/1999/xlink" width="128" zoomAndPan="magnify" viewBox="0 0 96 95.999999" height="128" preserveAspectRatio="xMidYMid meet" version="1.0"><defs><clipPath id="bdce4a2ee0"><path d="M 19.132812 81.640625 L 76.882812 81.640625 L 76.882812 85.929688 L 19.132812 85.929688 Z M 19.132812 81.640625 " clip-rule="nonzero"/></clipPath><clipPath id="dcb7e53e80"><path d="M 48 81.640625 C 32.058594 81.640625 19.132812 82.597656 19.132812 83.785156 C 19.132812 84.96875 32.058594 85.929688 48 85.929688 C 63.941406 85.929688 76.867188 84.96875 76.867188 83.785156 C 76.867188 82.597656 63.941406 81.640625 48 81.640625 Z M 48 81.640625 " clip-rule="nonzero"/></clipPath><clipPath id="8cb51c91c8"><path d="M 12 11 L 85 11 L 85 85.820312 L 12 85.820312 Z M 12 11 " clip-rule="nonzero"/></clipPath></defs><g clip-path="url(#bdce4a2ee0)"><g clip-path="url(#dcb7e53e80)"><path fill="#000000" d="M 19.132812 81.640625 L 76.863281 81.640625 L 76.863281 85.929688 L 19.132812 85.929688 Z M 19.132812 81.640625 " fill-opacity="1" fill-rule="nonzero"/></g></g><path fill="#f99b1c" d="M 73.953125 37.636719 C 74.183594 36.992188 74.714844 36.570312 74.714844 36.570312 C 74.714844 36.570312 69.125 31.4375 68.601562 25.667969 C 68.078125 19.894531 73.332031 17.4375 76.476562 17.132812 C 79.621094 16.824219 83.136719 19.046875 84.136719 24.789062 C 85.132812 30.527344 81.265625 35.617188 81.273438 35.902344 C 81.273438 35.902344 83.429688 37.546875 82.300781 38.625 C 81.496094 39.394531 80.65625 38.789062 80.242188 38.382812 C 80.078125 38.21875 79.980469 38.089844 79.980469 38.089844 C 79.980469 38.089844 79.976562 39.617188 78.613281 40.128906 C 77.589844 40.515625 77.015625 39.410156 76.792969 38.828125 C 76.71875 38.636719 76.683594 38.5 76.683594 38.5 C 76.683594 38.5 75.507812 40.929688 74.296875 39.394531 C 73.777344 38.738281 73.78125 38.125 73.953125 37.636719 Z M 73.953125 37.636719 " fill-opacity="1" fill-rule="nonzero"/><path fill="#fdefe3" d="M 81.980469 46.492188 C 83.660156 47.769531 83.792969 49.15625 82.921875 50.03125 C 82.054688 50.90625 80.417969 51.214844 79.511719 49.417969 C 79.25 50.070312 78.53125 50.664062 77.785156 50.921875 C 77.050781 51.171875 76.285156 51.097656 75.902344 50.421875 C 75.199219 49.183594 75.542969 48.171875 76.824219 46.324219 C 78.101562 44.476562 76.671875 38.878906 76.671875 38.878906 L 76.792969 38.828125 C 77.015625 39.410156 77.589844 40.515625 78.613281 40.128906 C 79.976562 39.617188 79.980469 38.089844 79.980469 38.089844 C 79.980469 38.089844 80.078125 38.21875 80.242188 38.382812 C 80.242188 38.382812 80.296875 45.214844 81.980469 46.492188 Z M 81.980469 46.492188 " fill-opacity="1" fill-rule="nonzero"/><path fill="#fdefe3" d="M 76.671875 38.878906 C 76.671875 38.878906 78.101562 44.476562 76.824219 46.324219 C 75.542969 48.171875 75.199219 49.183594 75.902344 50.421875 C 76.285156 51.097656 77.050781 51.171875 77.785156 50.921875 C 75.742188 55.90625 72.339844 60.953125 68.449219 64.113281 C 69.496094 61.425781 70.003906 58.5625 69.980469 55.667969 C 69.980469 55.664062 69.980469 55.664062 69.980469 55.664062 C 70.085938 53.375 69.390625 50.488281 69.269531 50 C 69.261719 49.976562 69.257812 49.957031 69.257812 49.945312 C 69.253906 49.9375 69.253906 49.929688 69.25 49.929688 C 69.25 49.925781 69.25 49.925781 69.25 49.925781 C 68.769531 47.980469 68.046875 46.058594 67.085938 44.210938 C 67.085938 44.074219 70.605469 39.617188 73.953125 37.636719 C 73.78125 38.125 73.777344 38.738281 74.296875 39.394531 C 75.507812 40.929688 76.683594 38.5 76.683594 38.5 C 76.683594 38.5 76.71875 38.636719 76.792969 38.828125 Z M 76.671875 38.878906 " fill-opacity="1" fill-rule="nonzero"/><path fill="#f15a26" d="M 51.351562 25.667969 C 51.585938 25.597656 65.914062 21.21875 66.148438 29.359375 C 66.246094 32.847656 64.925781 34.140625 62.746094 34.335938 C 59.808594 34.597656 55.304688 32.855469 50.640625 31.820312 C 42.519531 30.023438 34.355469 32.015625 30.519531 31.601562 C 30.496094 31.597656 30.472656 31.59375 30.449219 31.589844 C 23.335938 30.714844 25.65625 15.273438 36.703125 12.226562 C 44.527344 10.066406 44.242188 14.382812 43.996094 23.640625 C 48.652344 10.929688 57.90625 14.515625 57.808594 18.46875 C 57.714844 22.375 51.507812 25.589844 51.351562 25.667969 Z M 51.351562 25.667969 " fill-opacity="1" fill-rule="nonzero"/><path fill="#f99b1c" d="M 57.691406 76.027344 C 57.691406 76.027344 62.605469 76.089844 62.136719 79.792969 C 61.722656 83.0625 54.433594 79.085938 52.738281 78.113281 L 52.707031 77.980469 C 54.496094 77.53125 56.164062 76.851562 57.691406 76.027344 Z M 57.691406 76.027344 " fill-opacity="1" fill-rule="nonzero"/><path fill="#f99b1c" d="M 55.765625 45.238281 C 58.945312 45.992188 61.195312 48.722656 60.574219 50.789062 C 59.949219 52.851562 49.984375 53.5 51.789062 50.160156 C 53.597656 46.824219 52.585938 44.480469 55.765625 45.238281 Z M 55.765625 45.238281 " fill-opacity="1" fill-rule="nonzero"/><path fill="#fdefe3" d="M 40.953125 77.386719 C 37.214844 79.722656 30.957031 76.1875 26.363281 72.316406 C 25.609375 71.679688 24.949219 70.929688 24.449219 70.140625 C 17.691406 69.929688 17.011719 65.1875 21.53125 62.492188 C 19.28125 63.316406 16.859375 63.25 15.320312 62.808594 C 10.578125 61.453125 12.714844 54.332031 20.5625 53.34375 C 28.46875 52.347656 30.554688 56.664062 30.554688 56.664062 C 30.59375 55.277344 30.582031 53.773438 30.53125 52.167969 L 30.585938 52.167969 L 30.636719 53.925781 C 30.636719 53.925781 45.277344 62.664062 56.890625 62.804688 C 56.636719 63.175781 56.402344 63.613281 56.222656 64.09375 C 55.558594 65.855469 55.78125 67.5625 56.722656 67.917969 C 57.660156 68.265625 58.960938 67.128906 59.621094 65.367188 C 59.996094 64.371094 60.085938 63.390625 59.925781 62.664062 C 60.066406 62.644531 60.210938 62.628906 60.351562 62.609375 C 60.261719 63.34375 60.4375 64.300781 60.894531 65.253906 C 61.707031 66.945312 63.105469 67.96875 64.007812 67.535156 C 64.914062 67.101562 64.984375 65.378906 64.171875 63.6875 C 63.851562 63.023438 63.445312 62.464844 63.011719 62.054688 C 69.152344 60.25 69.957031 55.804688 69.980469 55.667969 C 70.003906 58.5625 69.496094 61.425781 68.449219 64.113281 C 68.015625 65.226562 67.492188 66.308594 66.871094 67.351562 C 65.199219 70.171875 62.011719 73.6875 57.691406 76.027344 C 56.164062 76.851562 54.496094 77.53125 52.707031 77.980469 C 51.261719 78.34375 49.734375 78.558594 48.136719 78.578125 C 45.929688 78.609375 43.582031 78.265625 41.121094 77.445312 C 41.066406 77.425781 41.007812 77.40625 40.953125 77.386719 Z M 40.953125 77.386719 " fill-opacity="1" fill-rule="nonzero"/><path fill="#f99b1c" d="M 41.121094 77.445312 C 43.582031 78.265625 45.929688 78.609375 48.136719 78.578125 C 48.136719 78.578125 54.074219 82.183594 50.019531 84 C 45.96875 85.816406 41.304688 83.015625 41.121094 77.445312 Z M 41.121094 77.445312 " fill-opacity="1" fill-rule="nonzero"/><path fill="#fdefe3" d="M 30.53125 52.167969 C 30.417969 48.835938 30.109375 45.054688 29.632812 40.925781 C 29.292969 37.980469 29.21875 34.125 30.425781 31.769531 L 30.449219 31.589844 C 30.472656 31.59375 30.496094 31.597656 30.519531 31.601562 C 34.355469 32.015625 42.519531 30.023438 50.640625 31.820312 C 55.304688 32.855469 59.808594 34.597656 62.746094 34.335938 L 62.789062 34.75 C 62.917969 35.03125 63.074219 35.378906 63.222656 35.769531 C 64.328125 38.648438 65.640625 41.441406 67.066406 44.171875 C 67.074219 44.183594 67.078125 44.199219 67.085938 44.210938 C 68.046875 46.058594 68.769531 47.980469 69.25 49.925781 C 69.25 49.925781 69.25 49.925781 69.25 49.929688 C 69.238281 50.082031 68.410156 58.8125 56.851562 58.8125 C 45.191406 58.8125 30.519531 49.925781 30.519531 49.925781 L 30.585938 52.167969 Z M 60.574219 50.789062 C 61.195312 48.722656 58.945312 45.992188 55.765625 45.238281 C 52.585938 44.480469 53.597656 46.824219 51.789062 50.160156 C 49.984375 53.5 59.949219 52.851562 60.574219 50.789062 Z M 60.574219 50.789062 " fill-opacity="1" fill-rule="nonzero"/><path fill="#f15a26" d="M 30.585938 52.167969 L 30.519531 49.925781 C 30.519531 49.925781 45.191406 58.8125 56.851562 58.8125 C 68.410156 58.8125 69.238281 50.082031 69.25 49.929688 C 69.253906 49.929688 69.253906 49.9375 69.257812 49.945312 C 69.261719 49.960938 69.265625 49.980469 69.269531 50 C 69.730469 51.875 69.96875 53.777344 69.980469 55.667969 C 69.957031 55.804688 69.152344 60.25 63.011719 62.054688 C 63.445312 62.464844 63.851562 63.023438 64.171875 63.6875 C 64.984375 65.378906 64.914062 67.101562 64.007812 67.535156 C 63.105469 67.96875 61.707031 66.945312 60.894531 65.253906 C 60.4375 64.300781 60.261719 63.34375 60.351562 62.609375 C 60.210938 62.628906 60.066406 62.644531 59.925781 62.664062 C 60.085938 63.390625 59.996094 64.371094 59.621094 65.367188 C 58.960938 67.128906 57.660156 68.265625 56.722656 67.917969 C 55.78125 67.5625 55.558594 65.855469 56.222656 64.09375 C 56.402344 63.613281 56.636719 63.175781 56.890625 62.804688 C 45.277344 62.664062 30.636719 53.921875 30.636719 53.921875 Z M 30.585938 52.167969 " fill-opacity="1" fill-rule="nonzero"/><path fill="#2c2a27" d="M 55.257812 53.019531 C 56 53.019531 56.761719 52.953125 57.464844 52.835938 C 58.65625 52.640625 60.707031 52.132812 61.066406 50.9375 C 61.332031 50.058594 61.167969 49.03125 60.605469 48.058594 C 59.695312 46.484375 57.886719 45.214844 55.882812 44.734375 C 53.28125 44.117188 52.878906 45.496094 52.417969 47.097656 C 52.191406 47.882812 51.90625 48.855469 51.332031 49.917969 C 50.855469 50.796875 51.074219 51.425781 51.339844 51.796875 C 51.964844 52.675781 53.5625 53.019531 55.257812 53.019531 Z M 52.246094 50.40625 C 52.875 49.25 53.171875 48.214844 53.414062 47.382812 C 53.890625 45.738281 54 45.351562 55.644531 45.738281 C 57.382812 46.152344 58.941406 47.238281 59.710938 48.574219 C 60.128906 49.300781 60.261719 50.035156 60.078125 50.640625 C 59.984375 50.945312 59.171875 51.507812 57.300781 51.816406 C 54.996094 52.199219 52.699219 51.921875 52.183594 51.199219 C 52.125 51.121094 51.972656 50.90625 52.246094 50.40625 Z M 52.246094 50.40625 " fill-opacity="1" fill-rule="nonzero"/><g clip-path="url(#8cb51c91c8)"><path fill="#2c2a27" d="M 82.292969 46.082031 C 81.347656 45.363281 80.894531 41.925781 80.789062 39.375 C 81.449219 39.644531 82.109375 39.523438 82.660156 38.996094 C 83.003906 38.671875 83.167969 38.261719 83.144531 37.8125 C 83.097656 36.972656 82.371094 36.183594 81.921875 35.773438 C 81.949219 35.726562 81.976562 35.679688 82.003906 35.632812 C 82.871094 34.15625 85.511719 29.660156 84.648438 24.699219 C 84.167969 21.9375 83.0625 19.726562 81.457031 18.304688 C 80.023438 17.039062 78.238281 16.441406 76.429688 16.617188 C 72.917969 16.957031 67.546875 19.730469 68.089844 25.710938 C 68.550781 30.78125 72.679688 35.277344 73.980469 36.578125 C 73.832031 36.761719 73.667969 37 73.542969 37.28125 C 71.78125 38.359375 70.046875 40.03125 68.886719 41.261719 C 68.324219 41.859375 67.753906 42.503906 67.289062 43.074219 C 67.246094 43.128906 67.203125 43.179688 67.164062 43.226562 C 65.773438 40.503906 64.636719 37.996094 63.707031 35.582031 C 63.605469 35.3125 63.492188 35.042969 63.367188 34.765625 C 65.675781 34.328125 66.757812 32.546875 66.664062 29.339844 C 66.617188 27.558594 65.933594 26.1875 64.640625 25.265625 C 62 23.378906 57.332031 23.839844 54.246094 24.433594 C 56.105469 23.042969 58.269531 20.910156 58.328125 18.476562 C 58.375 16.585938 56.636719 14.824219 54.285156 14.378906 C 51.316406 13.820312 47.394531 15.347656 44.585938 20.957031 C 44.679688 16.402344 44.523438 13.351562 42.734375 11.953125 C 41.484375 10.980469 39.527344 10.90625 36.570312 11.722656 C 32.253906 12.914062 29.6875 15.738281 28.296875 17.902344 C 26.570312 20.585938 25.695312 23.714844 25.898438 26.480469 C 26.117188 29.414062 27.542969 31.421875 29.757812 31.980469 C 28.675781 34.527344 28.804688 38.238281 29.121094 40.976562 C 29.601562 45.164062 29.90625 48.929688 30.015625 52.179688 C 30.050781 53.230469 30.066406 54.234375 30.058594 55.175781 C 28.757812 53.878906 25.9375 52.140625 20.5 52.828125 C 15.410156 53.464844 12.527344 56.605469 12.3125 59.378906 C 12.167969 61.25 13.265625 62.753906 15.179688 63.300781 C 16.1875 63.589844 17.730469 63.757812 19.410156 63.53125 C 18.351562 64.699219 17.914062 66.039062 18.242188 67.300781 C 18.75 69.238281 20.953125 70.476562 24.167969 70.636719 C 24.675781 71.390625 25.316406 72.101562 26.03125 72.703125 C 27.917969 74.296875 33.507812 78.644531 38.148438 78.644531 C 39.027344 78.644531 39.871094 78.484375 40.652344 78.125 C 40.90625 80.71875 42.136719 82.867188 44.089844 84.082031 C 45.136719 84.734375 46.304688 85.066406 47.492188 85.066406 C 48.410156 85.066406 49.34375 84.867188 50.234375 84.464844 C 51.324219 83.976562 51.898438 83.304688 51.953125 82.46875 C 52.035156 81.160156 50.71875 79.847656 49.660156 79.007812 C 50.609375 78.925781 51.554688 78.773438 52.484375 78.554688 C 54.214844 79.546875 58.027344 81.5625 60.453125 81.5625 C 60.914062 81.5625 61.324219 81.488281 61.664062 81.320312 C 62.054688 81.125 62.542969 80.714844 62.652344 79.851562 C 62.789062 78.777344 62.539062 77.867188 61.90625 77.140625 C 61.195312 76.324219 60.128906 75.914062 59.246094 75.710938 C 62.535156 73.644531 65.488281 70.699219 67.324219 67.609375 C 67.925781 66.59375 68.449219 65.519531 68.886719 64.417969 C 72.554688 61.402344 76.011719 56.527344 78.183594 51.316406 C 78.699219 51.097656 79.167969 50.757812 79.519531 50.359375 C 80.007812 50.9375 80.558594 51.144531 80.984375 51.214844 C 81.777344 51.339844 82.664062 51.023438 83.292969 50.390625 C 83.773438 49.90625 84.011719 49.285156 83.964844 48.640625 C 83.917969 48.023438 83.59375 47.070312 82.292969 46.082031 Z M 69.117188 25.621094 C 68.582031 19.722656 74.285156 17.863281 76.527344 17.644531 C 79.175781 17.386719 82.625 19.125 83.625 24.875 C 84.425781 29.464844 81.929688 33.714844 81.109375 35.113281 C 80.824219 35.59375 80.75 35.726562 80.757812 35.921875 C 80.761719 36.078125 80.835938 36.222656 80.960938 36.3125 C 81.320312 36.589844 82.078125 37.335938 82.109375 37.871094 C 82.113281 37.96875 82.101562 38.101562 81.945312 38.253906 C 81.792969 38.398438 81.390625 38.785156 80.609375 38.015625 C 80.480469 37.886719 80.398438 37.78125 80.398438 37.78125 C 80.265625 37.601562 80.035156 37.53125 79.824219 37.597656 C 79.613281 37.667969 79.46875 37.863281 79.464844 38.082031 C 79.464844 38.132812 79.433594 39.269531 78.433594 39.648438 C 77.878906 39.855469 77.5 39.21875 77.28125 38.644531 C 77.21875 38.484375 77.1875 38.371094 77.1875 38.371094 C 77.132812 38.160156 76.953125 38.011719 76.738281 37.988281 C 76.71875 37.984375 76.703125 37.984375 76.6875 37.984375 C 76.488281 37.984375 76.308594 38.097656 76.21875 38.273438 C 76.011719 38.699219 75.539062 39.347656 75.179688 39.386719 C 75.039062 39.402344 74.878906 39.296875 74.707031 39.078125 C 74.375 38.65625 74.289062 38.242188 74.445312 37.8125 C 74.621094 37.320312 75.035156 36.976562 75.039062 36.976562 C 75.15625 36.882812 75.230469 36.742188 75.234375 36.589844 C 75.242188 36.441406 75.179688 36.292969 75.066406 36.191406 C 75.011719 36.144531 69.617188 31.128906 69.117188 25.621094 Z M 26.929688 26.410156 C 26.546875 21.25 30.230469 14.546875 36.84375 12.722656 C 39.457031 12.003906 41.125 12.019531 42.09375 12.773438 C 43.738281 14.054688 43.640625 17.632812 43.492188 23.054688 L 43.480469 23.628906 C 43.472656 23.878906 43.648438 24.101562 43.898438 24.148438 C 44.148438 24.195312 44.394531 24.054688 44.480469 23.820312 C 47.066406 16.761719 51.140625 14.84375 54.089844 15.398438 C 55.945312 15.75 57.324219 17.066406 57.289062 18.457031 C 57.207031 21.992188 51.355469 25.082031 51.117188 25.207031 C 50.949219 25.292969 50.828125 25.46875 50.828125 25.671875 C 50.828125 25.957031 51.058594 26.1875 51.34375 26.1875 C 51.402344 26.1875 51.460938 26.179688 51.515625 26.160156 C 51.914062 26.042969 60.425781 23.535156 64.035156 26.109375 C 65.0625 26.847656 65.585938 27.914062 65.628906 29.375 C 65.730469 33.054688 64.207031 33.6875 62.699219 33.824219 C 60.804688 33.992188 58.082031 33.25 55.203125 32.460938 C 53.761719 32.066406 52.273438 31.65625 50.75 31.320312 C 48.085938 30.730469 45.445312 30.542969 42.941406 30.542969 C 40.429688 30.542969 38.058594 30.734375 35.949219 30.902344 C 33.761719 31.082031 31.875 31.234375 30.582031 31.09375 L 30.511719 31.082031 C 28.4375 30.824219 27.128906 29.121094 26.929688 26.410156 Z M 30.820312 32.144531 C 32.183594 32.238281 33.980469 32.09375 36.03125 31.929688 C 40.179688 31.59375 45.339844 31.175781 50.527344 32.324219 C 52.023438 32.65625 53.5 33.0625 54.929688 33.453125 C 57.703125 34.210938 60.136719 34.878906 62.109375 34.878906 C 62.167969 34.878906 62.226562 34.875 62.28125 34.875 C 62.289062 34.90625 62.300781 34.9375 62.316406 34.972656 C 62.476562 35.3125 62.613281 35.636719 62.738281 35.957031 C 63.761719 38.617188 65.023438 41.382812 66.601562 44.40625 L 66.621094 44.441406 C 66.621094 44.441406 66.621094 44.445312 66.621094 44.445312 C 66.625 44.445312 66.625 44.449219 66.625 44.449219 C 67.542969 46.214844 68.246094 48.066406 68.726562 49.964844 C 68.675781 50.367188 68.363281 52.261719 66.96875 54.121094 C 64.886719 56.894531 61.484375 58.296875 56.851562 58.296875 C 46.0625 58.296875 32.4375 50.457031 30.925781 49.570312 C 30.773438 46.929688 30.511719 44.015625 30.148438 40.867188 C 29.890625 38.644531 29.644531 34.597656 30.820312 32.144531 Z M 69.183594 52.230469 C 69.359375 53.359375 69.453125 54.496094 69.460938 55.625 C 69.375 56.039062 68.410156 59.929688 62.867188 61.5625 C 62.691406 61.613281 62.554688 61.757812 62.511719 61.9375 C 62.46875 62.117188 62.523438 62.304688 62.65625 62.433594 C 63.0625 62.816406 63.421875 63.328125 63.703125 63.910156 C 64.1875 64.914062 64.347656 65.984375 64.117188 66.640625 C 64.039062 66.859375 63.929688 67.003906 63.785156 67.070312 C 63.53125 67.191406 63.144531 67.085938 62.726562 66.777344 C 62.210938 66.398438 61.714844 65.761719 61.363281 65.03125 C 60.964844 64.203125 60.78125 63.34375 60.867188 62.671875 C 60.886719 62.511719 60.828125 62.355469 60.714844 62.242188 C 60.601562 62.128906 60.441406 62.078125 60.28125 62.097656 C 60.148438 62.117188 60.007812 62.132812 59.867188 62.152344 C 59.71875 62.167969 59.589844 62.246094 59.503906 62.363281 C 59.417969 62.484375 59.386719 62.632812 59.417969 62.777344 C 59.566406 63.4375 59.464844 64.316406 59.136719 65.1875 C 58.554688 66.734375 57.476562 67.648438 56.902344 67.433594 C 56.332031 67.21875 56.125 65.824219 56.703125 64.277344 C 56.867188 63.851562 57.070312 63.457031 57.320312 63.101562 C 57.425781 62.945312 57.441406 62.738281 57.351562 62.570312 C 57.265625 62.398438 57.089844 62.292969 56.898438 62.289062 C 46.363281 62.164062 33.097656 54.75 31.144531 53.625 L 31.066406 50.847656 C 34.332031 52.71875 46.613281 59.332031 56.851562 59.332031 C 63.046875 59.332031 66.222656 56.832031 67.796875 54.738281 C 68.453125 53.863281 68.890625 52.988281 69.183594 52.230469 Z M 19.242188 67.046875 C 18.882812 65.664062 19.859375 64.089844 21.796875 62.933594 C 22.027344 62.796875 22.113281 62.507812 22 62.269531 C 21.882812 62.027344 21.601562 61.914062 21.351562 62.007812 C 19.097656 62.832031 16.773438 62.6875 15.464844 62.3125 C 14.007812 61.894531 13.238281 60.855469 13.34375 59.460938 C 13.527344 57.109375 16.085938 54.425781 20.625 53.855469 C 27.445312 52.996094 29.660156 56.160156 30.027344 56.789062 C 29.941406 59.554688 29.65625 61.808594 29.183594 63.496094 C 25.882812 63.125 24.300781 63.96875 23.550781 64.929688 C 22.644531 66.082031 22.652344 67.769531 23.53125 69.5625 C 21.175781 69.3125 19.59375 68.398438 19.242188 67.046875 Z M 50.917969 82.410156 C 50.890625 82.835938 50.515625 83.214844 49.808594 83.53125 C 48.085938 84.304688 46.199219 84.1875 44.636719 83.214844 C 42.996094 82.191406 41.949219 80.378906 41.695312 78.167969 C 43.757812 78.78125 45.828125 79.09375 47.867188 79.09375 C 47.90625 79.09375 47.949219 79.09375 47.988281 79.09375 C 49.203125 79.859375 50.980469 81.367188 50.917969 82.410156 Z M 61.121094 77.828125 C 61.558594 78.328125 61.71875 78.949219 61.621094 79.726562 C 61.566406 80.167969 61.367188 80.316406 61.195312 80.402344 C 59.976562 81.007812 56.695312 79.671875 53.910156 78.175781 C 55.238281 77.765625 56.542969 77.222656 57.804688 76.546875 C 58.304688 76.578125 60.191406 76.757812 61.121094 77.828125 Z M 66.425781 67.089844 C 64.445312 70.429688 61.085938 73.601562 57.441406 75.574219 C 55.871094 76.421875 54.234375 77.066406 52.578125 77.480469 C 51.117188 77.847656 49.621094 78.042969 48.128906 78.058594 C 46.128906 78.089844 44.085938 77.796875 42.042969 77.191406 C 42.855469 76.425781 43.480469 75.367188 43.914062 74.027344 C 45.289062 69.777344 44.089844 66.828125 42.84375 65.101562 C 41.496094 63.234375 39.832031 62.382812 39.765625 62.347656 C 39.507812 62.21875 39.199219 62.320312 39.070312 62.574219 C 38.941406 62.832031 39.042969 63.140625 39.296875 63.269531 C 39.3125 63.277344 40.804688 64.039062 42.007812 65.707031 C 43.617188 67.933594 43.925781 70.628906 42.929688 73.710938 C 42.441406 75.234375 41.679688 76.324219 40.675781 76.953125 C 37.285156 79.070312 31.230469 75.746094 26.699219 71.921875 C 25.992188 71.328125 25.363281 70.613281 24.890625 69.863281 C 23.816406 68.171875 23.613281 66.523438 24.367188 65.5625 C 25.585938 64.007812 29.195312 64.078125 34.261719 65.757812 C 34.535156 65.847656 34.828125 65.703125 34.917969 65.429688 C 35.007812 65.160156 34.859375 64.867188 34.589844 64.777344 C 32.902344 64.21875 31.457031 63.859375 30.21875 63.644531 C 30.703125 61.863281 30.988281 59.523438 31.070312 56.683594 C 31.089844 56.078125 31.097656 55.445312 31.09375 54.785156 C 34.125 56.507812 45.898438 62.824219 56.003906 63.296875 C 55.90625 63.496094 55.816406 63.703125 55.734375 63.914062 C 54.949219 66.003906 55.292969 67.933594 56.539062 68.402344 C 56.710938 68.464844 56.886719 68.496094 57.070312 68.496094 C 58.1875 68.496094 59.441406 67.320312 60.105469 65.550781 C 60.160156 65.402344 60.214844 65.25 60.257812 65.097656 C 60.3125 65.222656 60.367188 65.351562 60.429688 65.476562 C 60.855469 66.371094 61.453125 67.128906 62.109375 67.609375 C 62.859375 68.15625 63.613281 68.296875 64.230469 68 C 64.625 67.8125 64.921875 67.460938 65.09375 66.984375 C 65.421875 66.054688 65.25 64.738281 64.636719 63.464844 C 64.433594 63.042969 64.195312 62.652344 63.925781 62.304688 C 66.773438 61.300781 68.398438 59.742188 69.320312 58.394531 C 69.109375 60.300781 68.65625 62.152344 67.964844 63.925781 C 67.542969 65.019531 67.023438 66.082031 66.425781 67.089844 Z M 69.566406 62.429688 C 70.199219 60.265625 70.511719 58.011719 70.5 55.695312 C 70.5 55.695312 70.5 55.691406 70.5 55.6875 C 70.609375 53.339844 69.914062 50.433594 69.773438 49.875 L 69.757812 49.820312 C 69.757812 49.816406 69.757812 49.816406 69.757812 49.816406 C 69.757812 49.808594 69.753906 49.800781 69.75 49.792969 C 69.277344 47.886719 68.578125 46.023438 67.683594 44.246094 C 68.300781 43.40625 70.792969 40.445312 73.371094 38.632812 C 73.4375 38.972656 73.589844 39.339844 73.890625 39.71875 C 74.402344 40.367188 74.933594 40.457031 75.289062 40.414062 C 75.707031 40.371094 76.070312 40.125 76.363281 39.839844 C 76.75 41.6875 77.199219 44.878906 76.398438 46.035156 C 75.089844 47.917969 74.585938 49.152344 75.453125 50.679688 C 75.765625 51.230469 76.304688 51.535156 76.949219 51.566406 C 75.113281 55.742188 72.453125 59.644531 69.566406 62.429688 Z M 82.554688 49.667969 C 82.15625 50.070312 81.613281 50.273438 81.140625 50.199219 C 80.667969 50.125 80.273438 49.785156 79.972656 49.1875 C 79.882812 49.007812 79.691406 48.894531 79.488281 48.902344 C 79.285156 48.914062 79.105469 49.039062 79.03125 49.226562 C 78.835938 49.714844 78.242188 50.21875 77.617188 50.433594 C 77.605469 50.4375 77.59375 50.441406 77.585938 50.445312 C 77.230469 50.5625 76.632812 50.660156 76.351562 50.167969 C 75.796875 49.195312 75.992188 48.429688 77.246094 46.621094 C 78.167969 45.289062 77.890625 42.476562 77.558594 40.582031 C 77.761719 40.679688 77.976562 40.730469 78.195312 40.730469 C 78.390625 40.730469 78.589844 40.691406 78.792969 40.617188 C 79.21875 40.457031 79.539062 40.21875 79.78125 39.953125 C 79.90625 42.144531 80.316406 45.882812 81.664062 46.90625 C 82.4375 47.492188 82.890625 48.136719 82.929688 48.71875 C 82.953125 49.074219 82.828125 49.394531 82.554688 49.667969 Z M 82.554688 49.667969 " fill-opacity="1" fill-rule="nonzero"/></g><path fill="#2c2a27" d="M 51.039062 41.03125 C 51.558594 42.910156 50.777344 44.761719 49.296875 45.167969 C 47.816406 45.574219 46.195312 44.378906 45.679688 42.5 C 45.160156 40.621094 45.941406 38.769531 47.421875 38.363281 C 48.90625 37.960938 50.523438 39.15625 51.039062 41.03125 Z M 51.039062 41.03125 " fill-opacity="1" fill-rule="nonzero"/><path fill="#2c2a27" d="M 61.121094 39.894531 C 61.289062 41.835938 60.183594 43.515625 58.65625 43.644531 C 57.125 43.777344 55.75 42.308594 55.582031 40.367188 C 55.414062 38.425781 56.519531 36.746094 58.046875 36.617188 C 59.578125 36.484375 60.953125 37.953125 61.121094 39.894531 Z M 61.121094 39.894531 " fill-opacity="1" fill-rule="nonzero"/></svg>